  0
SECTION
  2
HEADER
  9
$ANGBASE
  50
0.0
  9
$ANGDIR
  70
1
  9
$MEASUREMENT
  70
0
  0
ENDSEC
  0
SECTION
  2
TABLES
  0
TABLE
  2
LTYPE
  70
4
  0
LTYPE
  5
40F
  2
CONTINUOUS
  70
0
  3
Solid line
  72
65
  73
0
  40
0.0
  0
LTYPE
  5
410
  2
DASHDOT
 70
0
  3
Dash Dot ____ _ ____ _
 72
65
 73
4
 40
2.0
 49
1.25
 49
-0.25
 49
0.25
 49
-0.25
  0
LTYPE
  5
411
  2
DASHED
 70
0
  3
Dashed __ __ __ __ __
 72
65
 73
2
 40
0.75
 49
0.5
 49
-0.25
  0
LTYPE
  5
43B
  2
DOTTED
 70
0
  3
Dotted .  .  .  .
 72
65
 73
2
 40
0.2
 49
0.0
 49
-0.2
  0
ENDTAB
  0
TABLE
  2
STYLE
  70
4
  0
STYLE
  2
KICAD
  70
0
  40
0
  41
1
  42
1
  50
0
  71
0
  3
isocp.shx
  0
STYLE
  2
KICADB
  70
0
  40
0
  41
1
  42
1
  50
0
  71
0
  3
isocp.shx
  0
STYLE
  2
KICADI
  70
0
  40
0
  41
1
  42
1
  50
15
  71
0
  3
isocp.shx
  0
STYLE
  2
KICADBI
  70
0
  40
0
  41
1
  42
1
  50
15
  71
0
  3
isocp.shx
  0
ENDTAB
  0
TABLE
  2
LAYER
  70
1
  0
LAYER
  2
BLACK
  70
0
  62
7
  6
CONTINUOUS
  0
ENDTAB
  0
ENDSEC
  0
SECTION
  2
ENTITIES
0
LINE
8
BLACK
6
CONTINUOUS
10
0.446061
20
-0.570941
11
0.446196
21
-0.571055
0
LINE
8
BLACK
6
CONTINUOUS
10
0.446196
20
-0.571055
11
0.446371
21
-0.571075
0
LINE
8
BLACK
6
CONTINUOUS
10
0.446371
20
-0.571075
11
0.450121
21
-0.57295
0
LINE
8
BLACK
6
CONTINUOUS
10
0.450121
20
-0.57295
11
0.450944
21
-0.57356
0
LINE
8
BLACK
6
CONTINUOUS
10
0.450944
20
-0.57356
11
0.451748
21
-0.575414
0
LINE
8
BLACK
6
CONTINUOUS
10
0.451748
20
-0.575414
11
0.451172
21
-0.57735
0
LINE
8
BLACK
6
CONTINUOUS
10
0.451172
20
-0.57735
11
0.449486
21
-0.578462
0
LINE
8
BLACK
6
CONTINUOUS
10
0.449486
20
-0.578462
11
0.44748
21
-0.578232
0
LINE
8
BLACK
6
CONTINUOUS
10
0.44748
20
-0.578232
11
0.444354
21
-0.576669
0
LINE
8
BLACK
6
CONTINUOUS
10
0.444354
20
-0.576669
11
0.439905
21
-0.576669
0
LINE
8
BLACK
6
CONTINUOUS
10
0.439905
20
-0.576669
11
0.435397
21
-0.578171
0
LINE
8
BLACK
6
CONTINUOUS
10
0.435397
20
-0.578171
11
0.432479
21
-0.581089
0
LINE
8
BLACK
6
CONTINUOUS
10
0.432479
20
-0.581089
11
0.430964
21
-0.58412
0
LINE
8
BLACK
6
CONTINUOUS
10
0.430964
20
-0.58412
11
0.429256
21
-0.590952
0
LINE
8
BLACK
6
CONTINUOUS
10
0.429256
20
-0.590952
11
0.429256
21
-0.595849
0
LINE
8
BLACK
6
CONTINUOUS
10
0.429256
20
-0.595849
11
0.430964
21
-0.602681
0
LINE
8
BLACK
6
CONTINUOUS
10
0.430964
20
-0.602681
11
0.432479
21
-0.605712
0
LINE
8
BLACK
6
CONTINUOUS
10
0.432479
20
-0.605712
11
0.435397
21
-0.60863
0
LINE
8
BLACK
6
CONTINUOUS
10
0.435397
20
-0.60863
11
0.439905
21
-0.610133
0
LINE
8
BLACK
6
CONTINUOUS
10
0.439905
20
-0.610133
11
0.442697
21
-0.610133
0
LINE
8
BLACK
6
CONTINUOUS
10
0.442697
20
-0.610133
11
0.447205
21
-0.60863
0
LINE
8
BLACK
6
CONTINUOUS
10
0.447205
20
-0.60863
11
0.447722
21
-0.608113
0
LINE
8
BLACK
6
CONTINUOUS
10
0.447722
20
-0.608113
11
0.447722
21
-0.599166
0
LINE
8
BLACK
6
CONTINUOUS
10
0.447722
20
-0.599166
11
0.443176
21
-0.599166
0
LINE
8
BLACK
6
CONTINUOUS
10
0.443176
20
-0.599166
11
0.442166
21
-0.598988
0
LINE
8
BLACK
6
CONTINUOUS
10
0.442166
20
-0.598988
11
0.440619
21
-0.597689
0
LINE
8
BLACK
6
CONTINUOUS
10
0.440619
20
-0.597689
11
0.440268
21
-0.5957
0
LINE
8
BLACK
6
CONTINUOUS
10
0.440268
20
-0.5957
11
0.441278
21
-0.593951
0
LINE
8
BLACK
6
CONTINUOUS
10
0.441278
20
-0.593951
11
0.443176
21
-0.59326
0
LINE
8
BLACK
6
CONTINUOUS
10
0.443176
20
-0.59326
11
0.450675
21
-0.59326
0
LINE
8
BLACK
6
CONTINUOUS
10
0.450675
20
-0.59326
11
0.451058
21
-0.593328
0
LINE
8
BLACK
6
CONTINUOUS
10
0.451058
20
-0.593328
11
0.451188
21
-0.593305
0
LINE
8
BLACK
6
CONTINUOUS
10
0.451188
20
-0.593305
11
0.451301
21
-0.593371
0
LINE
8
BLACK
6
CONTINUOUS
10
0.451301
20
-0.593371
11
0.451685
21
-0.593438
0
LINE
8
BLACK
6
CONTINUOUS
10
0.451685
20
-0.593438
11
0.452272
21
-0.593931
0
LINE
8
BLACK
6
CONTINUOUS
10
0.452272
20
-0.593931
11
0.452937
21
-0.594315
0
LINE
8
BLACK
6
CONTINUOUS
10
0.452937
20
-0.594315
11
0.453028
21
-0.594565
0
LINE
8
BLACK
6
CONTINUOUS
10
0.453028
20
-0.594565
11
0.453232
21
-0.594737
0
LINE
8
BLACK
6
CONTINUOUS
10
0.453232
20
-0.594737
11
0.453365
21
-0.595492
0
LINE
8
BLACK
6
CONTINUOUS
10
0.453365
20
-0.595492
11
0.453628
21
-0.596213
0
LINE
8
BLACK
6
CONTINUOUS
10
0.453628
20
-0.596213
11
0.453628
21
-0.609336
0
LINE
8
BLACK
6
CONTINUOUS
10
0.453628
20
-0.609336
11
0.453596
21
-0.609517
0
LINE
8
BLACK
6
CONTINUOUS
10
0.453596
20
-0.609517
11
0.453616
21
-0.609594
0
LINE
8
BLACK
6
CONTINUOUS
10
0.453616
20
-0.609594
11
0.453561
21
-0.609711
0
LINE
8
BLACK
6
CONTINUOUS
10
0.453561
20
-0.609711
11
0.45345
21
-0.610346
0
LINE
8
BLACK
6
CONTINUOUS
10
0.45345
20
-0.610346
11
0.453035
21
-0.61084
0
LINE
8
BLACK
6
CONTINUOUS
10
0.453035
20
-0.61084
11
0.452763
21
-0.611424
0
LINE
8
BLACK
6
CONTINUOUS
10
0.452763
20
-0.611424
11
0.450888
21
-0.613299
0
LINE
8
BLACK
6
CONTINUOUS
10
0.450888
20
-0.613299
11
0.450048
21
-0.613887
0
LINE
8
BLACK
6
CONTINUOUS
10
0.450048
20
-0.613887
11
0.449872
21
-0.613903
0
LINE
8
BLACK
6
CONTINUOUS
10
0.449872
20
-0.613903
11
0.449734
21
-0.614012
0
LINE
8
BLACK
6
CONTINUOUS
10
0.449734
20
-0.614012
11
0.44411
21
-0.615887
0
LINE
8
BLACK
6
CONTINUOUS
10
0.44411
20
-0.615887
11
0.443236
21
-0.616017
0
LINE
8
BLACK
6
CONTINUOUS
10
0.443236
20
-0.616017
11
0.443176
21
-0.616039
0
LINE
8
BLACK
6
CONTINUOUS
10
0.443176
20
-0.616039
11
0.439426
21
-0.616039
0
LINE
8
BLACK
6
CONTINUOUS
10
0.439426
20
-0.616039
11
0.438557
21
-0.615885
0
LINE
8
BLACK
6
CONTINUOUS
10
0.438557
20
-0.615885
11
0.438493
21
-0.615887
0
LINE
8
BLACK
6
CONTINUOUS
10
0.438493
20
-0.615887
11
0.432868
21
-0.614012
0
LINE
8
BLACK
6
CONTINUOUS
10
0.432868
20
-0.614012
11
0.431966
21
-0.613524
0
LINE
8
BLACK
6
CONTINUOUS
10
0.431966
20
-0.613524
11
0.431874
21
-0.613374
0
LINE
8
BLACK
6
CONTINUOUS
10
0.431874
20
-0.613374
11
0.431714
21
-0.613299
0
LINE
8
BLACK
6
CONTINUOUS
10
0.431714
20
-0.613299
11
0.427965
21
-0.609549
0
LINE
8
BLACK
6
CONTINUOUS
10
0.427965
20
-0.609549
11
0.427458
21
-0.608826
0
LINE
8
BLACK
6
CONTINUOUS
10
0.427458
20
-0.608826
11
0.427411
21
-0.608782
0
LINE
8
BLACK
6
CONTINUOUS
10
0.427411
20
-0.608782
11
0.425537
21
-0.605033
0
LINE
8
BLACK
6
CONTINUOUS
10
0.425537
20
-0.605033
11
0.425391
21
-0.604544
0
LINE
8
BLACK
6
CONTINUOUS
10
0.425391
20
-0.604544
11
0.425313
21
-0.604428
0
LINE
8
BLACK
6
CONTINUOUS
10
0.425313
20
-0.604428
11
0.423438
21
-0.596929
0
LINE
8
BLACK
6
CONTINUOUS
10
0.423438
20
-0.596929
11
0.423397
21
-0.596341
0
LINE
8
BLACK
6
CONTINUOUS
10
0.423397
20
-0.596341
11
0.42335
21
-0.596213
0
LINE
8
BLACK
6
CONTINUOUS
10
0.42335
20
-0.596213
11
0.42335
21
-0.590589
0
LINE
8
BLACK
6
CONTINUOUS
10
0.42335
20
-0.590589
11
0.423453
21
-0.590008
0
LINE
8
BLACK
6
CONTINUOUS
10
0.423453
20
-0.590008
11
0.423438
21
-0.589873
0
LINE
8
BLACK
6
CONTINUOUS
10
0.423438
20
-0.589873
11
0.425313
21
-0.582373
0
LINE
8
BLACK
6
CONTINUOUS
10
0.425313
20
-0.582373
11
0.425521
21
-0.581908
0
LINE
8
BLACK
6
CONTINUOUS
10
0.425521
20
-0.581908
11
0.425537
21
-0.581769
0
LINE
8
BLACK
6
CONTINUOUS
10
0.425537
20
-0.581769
11
0.427411
21
-0.57802
0
LINE
8
BLACK
6
CONTINUOUS
10
0.427411
20
-0.57802
11
0.427937
21
-0.577311
0
LINE
8
BLACK
6
CONTINUOUS
10
0.427937
20
-0.577311
11
0.427965
21
-0.577252
0
LINE
8
BLACK
6
CONTINUOUS
10
0.427965
20
-0.577252
11
0.431714
21
-0.573503
0
LINE
8
BLACK
6
CONTINUOUS
10
0.431714
20
-0.573503
11
0.432554
21
-0.572914
0
LINE
8
BLACK
6
CONTINUOUS
10
0.432554
20
-0.572914
11
0.43273
21
-0.572899
0
LINE
8
BLACK
6
CONTINUOUS
10
0.43273
20
-0.572899
11
0.432868
21
-0.572789
0
LINE
8
BLACK
6
CONTINUOUS
10
0.432868
20
-0.572789
11
0.438493
21
-0.570915
0
LINE
8
BLACK
6
CONTINUOUS
10
0.438493
20
-0.570915
11
0.439366
21
-0.570785
0
LINE
8
BLACK
6
CONTINUOUS
10
0.439366
20
-0.570785
11
0.439426
21
-0.570763
0
LINE
8
BLACK
6
CONTINUOUS
10
0.439426
20
-0.570763
11
0.445051
21
-0.570763
0
LINE
8
BLACK
6
CONTINUOUS
10
0.445051
20
-0.570763
11
0.446061
21
-0.570941
0
LINE
8
BLACK
6
CONTINUOUS
10
0.519036
20
-0.570916
11
0.5191
21
-0.570915
0
LINE
8
BLACK
6
CONTINUOUS
10
0.5191
20
-0.570915
11
0.524725
21
-0.572789
0
LINE
8
BLACK
6
CONTINUOUS
10
0.524725
20
-0.572789
11
0.525626
21
-0.573278
0
LINE
8
BLACK
6
CONTINUOUS
10
0.525626
20
-0.573278
11
0.525719
21
-0.573428
0
LINE
8
BLACK
6
CONTINUOUS
10
0.525719
20
-0.573428
11
0.525879
21
-0.573503
0
LINE
8
BLACK
6
CONTINUOUS
10
0.525879
20
-0.573503
11
0.529628
21
-0.577252
0
LINE
8
BLACK
6
CONTINUOUS
10
0.529628
20
-0.577252
11
0.530135
21
-0.577975
0
LINE
8
BLACK
6
CONTINUOUS
10
0.530135
20
-0.577975
11
0.530181
21
-0.57802
0
LINE
8
BLACK
6
CONTINUOUS
10
0.530181
20
-0.57802
11
0.532056
21
-0.581769
0
LINE
8
BLACK
6
CONTINUOUS
10
0.532056
20
-0.581769
11
0.532201
21
-0.582258
0
LINE
8
BLACK
6
CONTINUOUS
10
0.532201
20
-0.582258
11
0.53228
21
-0.582373
0
LINE
8
BLACK
6
CONTINUOUS
10
0.53228
20
-0.582373
11
0.534154
21
-0.589873
0
LINE
8
BLACK
6
CONTINUOUS
10
0.534154
20
-0.589873
11
0.534196
21
-0.59046
0
LINE
8
BLACK
6
CONTINUOUS
10
0.534196
20
-0.59046
11
0.534243
21
-0.590589
0
LINE
8
BLACK
6
CONTINUOUS
10
0.534243
20
-0.590589
11
0.534243
21
-0.596213
0
LINE
8
BLACK
6
CONTINUOUS
10
0.534243
20
-0.596213
11
0.53414
21
-0.596793
0
LINE
8
BLACK
6
CONTINUOUS
10
0.53414
20
-0.596793
11
0.534154
21
-0.596929
0
LINE
8
BLACK
6
CONTINUOUS
10
0.534154
20
-0.596929
11
0.53228
21
-0.604428
0
LINE
8
BLACK
6
CONTINUOUS
10
0.53228
20
-0.604428
11
0.532072
21
-0.604894
0
LINE
8
BLACK
6
CONTINUOUS
10
0.532072
20
-0.604894
11
0.532056
21
-0.605033
0
LINE
8
BLACK
6
CONTINUOUS
10
0.532056
20
-0.605033
11
0.530181
21
-0.608782
0
LINE
8
BLACK
6
CONTINUOUS
10
0.530181
20
-0.608782
11
0.529655
21
-0.609491
0
LINE
8
BLACK
6
CONTINUOUS
10
0.529655
20
-0.609491
11
0.529628
21
-0.609549
0
LINE
8
BLACK
6
CONTINUOUS
10
0.529628
20
-0.609549
11
0.525879
21
-0.613299
0
LINE
8
BLACK
6
CONTINUOUS
10
0.525879
20
-0.613299
11
0.525039
21
-0.613887
0
LINE
8
BLACK
6
CONTINUOUS
10
0.525039
20
-0.613887
11
0.524863
21
-0.613903
0
LINE
8
BLACK
6
CONTINUOUS
10
0.524863
20
-0.613903
11
0.524724
21
-0.614012
0
LINE
8
BLACK
6
CONTINUOUS
10
0.524724
20
-0.614012
11
0.5191
21
-0.615887
0
LINE
8
BLACK
6
CONTINUOUS
10
0.5191
20
-0.615887
11
0.518227
21
-0.616017
0
LINE
8
BLACK
6
CONTINUOUS
10
0.518227
20
-0.616017
11
0.518166
21
-0.616039
0
LINE
8
BLACK
6
CONTINUOUS
10
0.518166
20
-0.616039
11
0.508793
21
-0.616039
0
LINE
8
BLACK
6
CONTINUOUS
10
0.508793
20
-0.616039
11
0.508409
21
-0.615971
0
LINE
8
BLACK
6
CONTINUOUS
10
0.508409
20
-0.615971
11
0.50828
21
-0.615994
0
LINE
8
BLACK
6
CONTINUOUS
10
0.50828
20
-0.615994
11
0.508166
21
-0.615928
0
LINE
8
BLACK
6
CONTINUOUS
10
0.508166
20
-0.615928
11
0.507783
21
-0.615861
0
LINE
8
BLACK
6
CONTINUOUS
10
0.507783
20
-0.615861
11
0.507195
21
-0.615367
0
LINE
8
BLACK
6
CONTINUOUS
10
0.507195
20
-0.615367
11
0.506531
21
-0.614984
0
LINE
8
BLACK
6
CONTINUOUS
10
0.506531
20
-0.614984
11
0.50644
21
-0.614733
0
LINE
8
BLACK
6
CONTINUOUS
10
0.50644
20
-0.614733
11
0.506235
21
-0.614562
0
LINE
8
BLACK
6
CONTINUOUS
10
0.506235
20
-0.614562
11
0.506102
21
-0.613807
0
LINE
8
BLACK
6
CONTINUOUS
10
0.506102
20
-0.613807
11
0.50584
21
-0.613086
0
LINE
8
BLACK
6
CONTINUOUS
10
0.50584
20
-0.613086
11
0.50584
21
-0.573716
0
LINE
8
BLACK
6
CONTINUOUS
10
0.50584
20
-0.573716
11
0.505908
21
-0.573332
0
LINE
8
BLACK
6
CONTINUOUS
10
0.505908
20
-0.573332
11
0.505885
21
-0.573203
0
LINE
8
BLACK
6
CONTINUOUS
10
0.505885
20
-0.573203
11
0.50595
21
-0.573089
0
LINE
8
BLACK
6
CONTINUOUS
10
0.50595
20
-0.573089
11
0.506018
21
-0.572706
0
LINE
8
BLACK
6
CONTINUOUS
10
0.506018
20
-0.572706
11
0.506511
21
-0.572118
0
LINE
8
BLACK
6
CONTINUOUS
10
0.506511
20
-0.572118
11
0.506895
21
-0.571454
0
LINE
8
BLACK
6
CONTINUOUS
10
0.506895
20
-0.571454
11
0.507145
21
-0.571363
0
LINE
8
BLACK
6
CONTINUOUS
10
0.507145
20
-0.571363
11
0.507316
21
-0.571159
0
LINE
8
BLACK
6
CONTINUOUS
10
0.507316
20
-0.571159
11
0.508072
21
-0.571025
0
LINE
8
BLACK
6
CONTINUOUS
10
0.508072
20
-0.571025
11
0.508793
21
-0.570763
0
LINE
8
BLACK
6
CONTINUOUS
10
0.508793
20
-0.570763
11
0.518166
21
-0.570763
0
LINE
8
BLACK
6
CONTINUOUS
10
0.518166
20
-0.570763
11
0.519036
21
-0.570916
0
LINE
8
BLACK
6
CONTINUOUS
10
0.511745
20
-0.576669
11
0.511745
21
-0.610133
0
LINE
8
BLACK
6
CONTINUOUS
10
0.511745
20
-0.610133
11
0.517687
21
-0.610133
0
LINE
8
BLACK
6
CONTINUOUS
10
0.517687
20
-0.610133
11
0.522196
21
-0.60863
0
LINE
8
BLACK
6
CONTINUOUS
10
0.522196
20
-0.60863
11
0.525114
21
-0.605712
0
LINE
8
BLACK
6
CONTINUOUS
10
0.525114
20
-0.605712
11
0.526629
21
-0.602681
0
LINE
8
BLACK
6
CONTINUOUS
10
0.526629
20
-0.602681
11
0.528337
21
-0.595849
0
LINE
8
BLACK
6
CONTINUOUS
10
0.528337
20
-0.595849
11
0.528337
21
-0.590952
0
LINE
8
BLACK
6
CONTINUOUS
10
0.528337
20
-0.590952
11
0.526629
21
-0.58412
0
LINE
8
BLACK
6
CONTINUOUS
10
0.526629
20
-0.58412
11
0.525114
21
-0.581089
0
LINE
8
BLACK
6
CONTINUOUS
10
0.525114
20
-0.581089
11
0.522196
21
-0.578171
0
LINE
8
BLACK
6
CONTINUOUS
10
0.522196
20
-0.578171
11
0.517687
21
-0.576669
0
LINE
8
BLACK
6
CONTINUOUS
10
0.517687
20
-0.576669
11
0.511745
21
-0.576669
0
LINE
8
BLACK
6
CONTINUOUS
10
0.58614
20
-0.570982
11
0.587064
21
-0.571119
0
LINE
8
BLACK
6
CONTINUOUS
10
0.587064
20
-0.571119
11
0.58712
21
-0.571183
0
LINE
8
BLACK
6
CONTINUOUS
10
0.58712
20
-0.571183
11
0.587204
21
-0.5712
0
LINE
8
BLACK
6
CONTINUOUS
10
0.587204
20
-0.5712
11
0.587784
21
-0.571931
0
LINE
8
BLACK
6
CONTINUOUS
10
0.587784
20
-0.571931
11
0.588404
21
-0.57263
0
LINE
8
BLACK
6
CONTINUOUS
10
0.588404
20
-0.57263
11
0.588406
21
-0.572715
0
LINE
8
BLACK
6
CONTINUOUS
10
0.588406
20
-0.572715
11
0.588459
21
-0.572782
0
LINE
8
BLACK
6
CONTINUOUS
10
0.588459
20
-0.572782
11
0.601583
21
-0.612152
0
LINE
8
BLACK
6
CONTINUOUS
10
0.601583
20
-0.612152
11
0.601733
21
-0.613166
0
LINE
8
BLACK
6
CONTINUOUS
10
0.601733
20
-0.613166
11
0.600991
21
-0.615045
0
LINE
8
BLACK
6
CONTINUOUS
10
0.600991
20
-0.615045
11
0.599214
21
-0.616007
0
LINE
8
BLACK
6
CONTINUOUS
10
0.599214
20
-0.616007
11
0.597236
21
-0.615602
0
LINE
8
BLACK
6
CONTINUOUS
10
0.597236
20
-0.615602
11
0.59598
21
-0.61402
0
LINE
8
BLACK
6
CONTINUOUS
10
0.59598
20
-0.61402
11
0.592904
21
-0.60479
0
LINE
8
BLACK
6
CONTINUOUS
10
0.592904
20
-0.60479
11
0.578412
21
-0.60479
0
LINE
8
BLACK
6
CONTINUOUS
10
0.578412
20
-0.60479
11
0.575336
21
-0.61402
0
LINE
8
BLACK
6
CONTINUOUS
10
0.575336
20
-0.61402
11
0.574848
21
-0.614921
0
LINE
8
BLACK
6
CONTINUOUS
10
0.574848
20
-0.614921
11
0.573127
21
-0.615979
0
LINE
8
BLACK
6
CONTINUOUS
10
0.573127
20
-0.615979
11
0.571129
21
-0.615682
0
LINE
8
BLACK
6
CONTINUOUS
10
0.571129
20
-0.615682
11
0.569789
21
-0.614171
0
LINE
8
BLACK
6
CONTINUOUS
10
0.569789
20
-0.614171
11
0.569733
21
-0.612152
0
LINE
8
BLACK
6
CONTINUOUS
10
0.569733
20
-0.612152
11
0.582857
21
-0.572782
0
LINE
8
BLACK
6
CONTINUOUS
10
0.582857
20
-0.572782
11
0.583345
21
-0.57188
0
LINE
8
BLACK
6
CONTINUOUS
10
0.583345
20
-0.57188
11
0.583418
21
-0.571836
0
LINE
8
BLACK
6
CONTINUOUS
10
0.583418
20
-0.571836
11
0.583449
21
-0.571757
0
LINE
8
BLACK
6
CONTINUOUS
10
0.583449
20
-0.571757
11
0.58427
21
-0.571312
0
LINE
8
BLACK
6
CONTINUOUS
10
0.58427
20
-0.571312
11
0.585066
21
-0.570823
0
LINE
8
BLACK
6
CONTINUOUS
10
0.585066
20
-0.570823
11
0.58515
21
-0.570835
0
LINE
8
BLACK
6
CONTINUOUS
10
0.58515
20
-0.570835
11
0.585225
21
-0.570795
0
LINE
8
BLACK
6
CONTINUOUS
10
0.585225
20
-0.570795
11
0.58614
21
-0.570982
0
LINE
8
BLACK
6
CONTINUOUS
10
0.580381
20
-0.598884
11
0.590935
21
-0.598884
0
LINE
8
BLACK
6
CONTINUOUS
10
0.590935
20
-0.598884
11
0.585658
21
-0.583053
0
LINE
8
BLACK
6
CONTINUOUS
10
0.585658
20
-0.583053
11
0.580381
21
-0.598884
0
LINE
8
BLACK
6
CONTINUOUS
10
0.361073
20
-0.571818
11
0.361764
21
-0.573716
0
LINE
8
BLACK
6
CONTINUOUS
10
0.361764
20
-0.573716
11
0.361764
21
-0.589084
0
LINE
8
BLACK
6
CONTINUOUS
10
0.361764
20
-0.589084
11
0.379221
21
-0.571628
0
LINE
8
BLACK
6
CONTINUOUS
10
0.379221
20
-0.571628
11
0.380061
21
-0.57104
0
LINE
8
BLACK
6
CONTINUOUS
10
0.380061
20
-0.57104
11
0.382073
21
-0.570864
0
LINE
8
BLACK
6
CONTINUOUS
10
0.382073
20
-0.570864
11
0.383727
21
-0.572022
0
LINE
8
BLACK
6
CONTINUOUS
10
0.383727
20
-0.572022
11
0.38425
21
-0.573973
0
LINE
8
BLACK
6
CONTINUOUS
10
0.38425
20
-0.573973
11
0.383396
21
-0.575804
0
LINE
8
BLACK
6
CONTINUOUS
10
0.383396
20
-0.575804
11
0.368334
21
-0.590866
0
LINE
8
BLACK
6
CONTINUOUS
10
0.368334
20
-0.590866
11
0.383671
21
-0.611314
0
LINE
8
BLACK
6
CONTINUOUS
10
0.383671
20
-0.611314
11
0.384134
21
-0.612229
0
LINE
8
BLACK
6
CONTINUOUS
10
0.384134
20
-0.612229
11
0.384024
21
-0.614246
0
LINE
8
BLACK
6
CONTINUOUS
10
0.384024
20
-0.614246
11
0.382643
21
-0.61572
0
LINE
8
BLACK
6
CONTINUOUS
10
0.382643
20
-0.61572
11
0.380638
21
-0.615961
0
LINE
8
BLACK
6
CONTINUOUS
10
0.380638
20
-0.615961
11
0.378946
21
-0.614857
0
LINE
8
BLACK
6
CONTINUOUS
10
0.378946
20
-0.614857
11
0.364116
21
-0.595084
0
LINE
8
BLACK
6
CONTINUOUS
10
0.364116
20
-0.595084
11
0.361764
21
-0.597436
0
LINE
8
BLACK
6
CONTINUOUS
10
0.361764
20
-0.597436
11
0.361764
21
-0.613086
0
LINE
8
BLACK
6
CONTINUOUS
10
0.361764
20
-0.613086
11
0.361586
21
-0.614096
0
LINE
8
BLACK
6
CONTINUOUS
10
0.361586
20
-0.614096
11
0.360288
21
-0.615643
0
LINE
8
BLACK
6
CONTINUOUS
10
0.360288
20
-0.615643
11
0.358299
21
-0.615994
0
LINE
8
BLACK
6
CONTINUOUS
10
0.358299
20
-0.615994
11
0.356549
21
-0.614984
0
LINE
8
BLACK
6
CONTINUOUS
10
0.356549
20
-0.614984
11
0.355859
21
-0.613086
0
LINE
8
BLACK
6
CONTINUOUS
10
0.355859
20
-0.613086
11
0.355859
21
-0.573716
0
LINE
8
BLACK
6
CONTINUOUS
10
0.355859
20
-0.573716
11
0.356037
21
-0.572706
0
LINE
8
BLACK
6
CONTINUOUS
10
0.356037
20
-0.572706
11
0.357335
21
-0.571159
0
LINE
8
BLACK
6
CONTINUOUS
10
0.357335
20
-0.571159
11
0.359324
21
-0.570808
0
LINE
8
BLACK
6
CONTINUOUS
10
0.359324
20
-0.570808
11
0.361073
21
-0.571818
0
LINE
8
BLACK
6
CONTINUOUS
10
0.492307
20
-0.571818
11
0.492998
21
-0.573716
0
LINE
8
BLACK
6
CONTINUOUS
10
0.492998
20
-0.573716
11
0.492998
21
-0.613086
0
LINE
8
BLACK
6
CONTINUOUS
10
0.492998
20
-0.613086
11
0.49282
21
-0.614096
0
LINE
8
BLACK
6
CONTINUOUS
10
0.49282
20
-0.614096
11
0.492644
21
-0.614305
0
LINE
8
BLACK
6
CONTINUOUS
10
0.492644
20
-0.614305
11
0.492596
21
-0.614574
0
LINE
8
BLACK
6
CONTINUOUS
10
0.492596
20
-0.614574
11
0.49201
21
-0.61506
0
LINE
8
BLACK
6
CONTINUOUS
10
0.49201
20
-0.61506
11
0.491521
21
-0.615643
0
LINE
8
BLACK
6
CONTINUOUS
10
0.491521
20
-0.615643
11
0.491252
21
-0.61569
0
LINE
8
BLACK
6
CONTINUOUS
10
0.491252
20
-0.61569
11
0.491042
21
-0.615865
0
LINE
8
BLACK
6
CONTINUOUS
10
0.491042
20
-0.615865
11
0.490282
21
-0.615862
0
LINE
8
BLACK
6
CONTINUOUS
10
0.490282
20
-0.615862
11
0.489532
21
-0.615994
0
LINE
8
BLACK
6
CONTINUOUS
10
0.489532
20
-0.615994
11
0.489296
21
-0.615857
0
LINE
8
BLACK
6
CONTINUOUS
10
0.489296
20
-0.615857
11
0.489023
21
-0.615856
0
LINE
8
BLACK
6
CONTINUOUS
10
0.489023
20
-0.615856
11
0.488442
21
-0.615364
0
LINE
8
BLACK
6
CONTINUOUS
10
0.488442
20
-0.615364
11
0.487783
21
-0.614984
0
LINE
8
BLACK
6
CONTINUOUS
10
0.487783
20
-0.614984
11
0.48769
21
-0.614727
0
LINE
8
BLACK
6
CONTINUOUS
10
0.48769
20
-0.614727
11
0.487481
21
-0.614551
0
LINE
8
BLACK
6
CONTINUOUS
10
0.487481
20
-0.614551
11
0.470501
21
-0.584835
0
LINE
8
BLACK
6
CONTINUOUS
10
0.470501
20
-0.584835
11
0.470501
21
-0.613086
0
LINE
8
BLACK
6
CONTINUOUS
10
0.470501
20
-0.613086
11
0.470322
21
-0.614096
0
LINE
8
BLACK
6
CONTINUOUS
10
0.470322
20
-0.614096
11
0.469024
21
-0.615643
0
LINE
8
BLACK
6
CONTINUOUS
10
0.469024
20
-0.615643
11
0.467035
21
-0.615994
0
LINE
8
BLACK
6
CONTINUOUS
10
0.467035
20
-0.615994
11
0.465286
21
-0.614984
0
LINE
8
BLACK
6
CONTINUOUS
10
0.465286
20
-0.614984
11
0.464595
21
-0.613086
0
LINE
8
BLACK
6
CONTINUOUS
10
0.464595
20
-0.613086
11
0.464595
21
-0.573716
0
LINE
8
BLACK
6
CONTINUOUS
10
0.464595
20
-0.573716
11
0.464773
21
-0.572706
0
LINE
8
BLACK
6
CONTINUOUS
10
0.464773
20
-0.572706
11
0.464949
21
-0.572497
0
LINE
8
BLACK
6
CONTINUOUS
10
0.464949
20
-0.572497
11
0.464997
21
-0.572228
0
LINE
8
BLACK
6
CONTINUOUS
10
0.464997
20
-0.572228
11
0.465582
21
-0.571741
0
LINE
8
BLACK
6
CONTINUOUS
10
0.465582
20
-0.571741
11
0.466071
21
-0.571159
0
LINE
8
BLACK
6
CONTINUOUS
10
0.466071
20
-0.571159
11
0.46634
21
-0.571111
0
LINE
8
BLACK
6
CONTINUOUS
10
0.46634
20
-0.571111
11
0.46655
21
-0.570937
0
LINE
8
BLACK
6
CONTINUOUS
10
0.46655
20
-0.570937
11
0.467311
21
-0.57094
0
LINE
8
BLACK
6
CONTINUOUS
10
0.467311
20
-0.57094
11
0.468061
21
-0.570808
0
LINE
8
BLACK
6
CONTINUOUS
10
0.468061
20
-0.570808
11
0.468297
21
-0.570944
0
LINE
8
BLACK
6
CONTINUOUS
10
0.468297
20
-0.570944
11
0.46857
21
-0.570946
0
LINE
8
BLACK
6
CONTINUOUS
10
0.46857
20
-0.570946
11
0.469151
21
-0.571437
0
LINE
8
BLACK
6
CONTINUOUS
10
0.469151
20
-0.571437
11
0.46981
21
-0.571818
0
LINE
8
BLACK
6
CONTINUOUS
10
0.46981
20
-0.571818
11
0.469903
21
-0.572074
0
LINE
8
BLACK
6
CONTINUOUS
10
0.469903
20
-0.572074
11
0.470111
21
-0.572251
0
LINE
8
BLACK
6
CONTINUOUS
10
0.470111
20
-0.572251
11
0.487092
21
-0.601967
0
LINE
8
BLACK
6
CONTINUOUS
10
0.487092
20
-0.601967
11
0.487092
21
-0.573716
0
LINE
8
BLACK
6
CONTINUOUS
10
0.487092
20
-0.573716
11
0.48727
21
-0.572706
0
LINE
8
BLACK
6
CONTINUOUS
10
0.48727
20
-0.572706
11
0.488569
21
-0.571159
0
LINE
8
BLACK
6
CONTINUOUS
10
0.488569
20
-0.571159
11
0.490558
21
-0.570808
0
LINE
8
BLACK
6
CONTINUOUS
10
0.490558
20
-0.570808
11
0.492307
21
-0.571818
0
LINE
8
BLACK
6
CONTINUOUS
10
0.347402
20
-0.477323
11
0.347402
21
-0.537165
0
LINE
8
BLACK
6
CONTINUOUS
10
0.347402
20
-0.537165
11
0.34671
21
-0.538836
0
LINE
8
BLACK
6
CONTINUOUS
10
0.34671
20
-0.538836
11
0.345039
21
-0.539528
0
LINE
8
BLACK
6
CONTINUOUS
10
0.345039
20
-0.539528
11
0.343369
21
-0.538836
0
LINE
8
BLACK
6
CONTINUOUS
10
0.343369
20
-0.538836
11
0.342677
21
-0.537165
0
LINE
8
BLACK
6
CONTINUOUS
10
0.342677
20
-0.537165
11
0.342677
21
-0.479685
0
LINE
8
BLACK
6
CONTINUOUS
10
0.342677
20
-0.479685
11
0.322598
21
-0.479685
0
LINE
8
BLACK
6
CONTINUOUS
10
0.322598
20
-0.479685
11
0.320928
21
-0.478993
0
LINE
8
BLACK
6
CONTINUOUS
10
0.320928
20
-0.478993
11
0.320236
21
-0.477323
0
LINE
8
BLACK
6
CONTINUOUS
10
0.320236
20
-0.477323
11
0.320236
21
-0.372598
0
LINE
8
BLACK
6
CONTINUOUS
10
0.320236
20
-0.372598
11
0.320928
21
-0.370928
0
LINE
8
BLACK
6
CONTINUOUS
10
0.320928
20
-0.370928
11
0.322598
21
-0.370236
0
LINE
8
BLACK
6
CONTINUOUS
10
0.322598
20
-0.370236
11
0.445039
21
-0.370236
0
LINE
8
BLACK
6
CONTINUOUS
10
0.445039
20
-0.370236
11
0.44671
21
-0.370928
0
LINE
8
BLACK
6
CONTINUOUS
10
0.44671
20
-0.370928
11
0.447402
21
-0.372598
0
LINE
8
BLACK
6
CONTINUOUS
10
0.447402
20
-0.372598
11
0.44671
21
-0.374269
0
LINE
8
BLACK
6
CONTINUOUS
10
0.44671
20
-0.374269
11
0.445039
21
-0.374961
0
LINE
8
BLACK
6
CONTINUOUS
10
0.445039
20
-0.374961
11
0.324961
21
-0.374961
0
LINE
8
BLACK
6
CONTINUOUS
10
0.324961
20
-0.374961
11
0.324961
21
-0.474961
0
LINE
8
BLACK
6
CONTINUOUS
10
0.324961
20
-0.474961
11
0.345039
21
-0.474961
0
LINE
8
BLACK
6
CONTINUOUS
10
0.345039
20
-0.474961
11
0.34671
21
-0.475653
0
LINE
8
BLACK
6
CONTINUOUS
10
0.34671
20
-0.475653
11
0.347402
21
-0.477323
0
LINE
8
BLACK
6
CONTINUOUS
10
0.54671
20
-0.475653
11
0.547402
21
-0.477323
0
LINE
8
BLACK
6
CONTINUOUS
10
0.547402
20
-0.477323
11
0.54671
21
-0.478993
0
LINE
8
BLACK
6
CONTINUOUS
10
0.54671
20
-0.478993
11
0.545039
21
-0.479685
0
LINE
8
BLACK
6
CONTINUOUS
10
0.545039
20
-0.479685
11
0.404882
21
-0.479685
0
LINE
8
BLACK
6
CONTINUOUS
10
0.404882
20
-0.479685
11
0.403212
21
-0.478993
0
LINE
8
BLACK
6
CONTINUOUS
10
0.403212
20
-0.478993
11
0.40252
21
-0.477323
0
LINE
8
BLACK
6
CONTINUOUS
10
0.40252
20
-0.477323
11
0.403212
21
-0.475653
0
LINE
8
BLACK
6
CONTINUOUS
10
0.403212
20
-0.475653
11
0.404882
21
-0.474961
0
LINE
8
BLACK
6
CONTINUOUS
10
0.404882
20
-0.474961
11
0.545039
21
-0.474961
0
LINE
8
BLACK
6
CONTINUOUS
10
0.545039
20
-0.474961
11
0.54671
21
-0.475653
0
LINE
8
BLACK
6
CONTINUOUS
10
0.503212
20
-0.374269
11
0.50252
21
-0.372598
0
LINE
8
BLACK
6
CONTINUOUS
10
0.50252
20
-0.372598
11
0.503212
21
-0.370928
0
LINE
8
BLACK
6
CONTINUOUS
10
0.503212
20
-0.370928
11
0.504882
21
-0.370236
0
LINE
8
BLACK
6
CONTINUOUS
10
0.504882
20
-0.370236
11
0.627323
21
-0.370236
0
LINE
8
BLACK
6
CONTINUOUS
10
0.627323
20
-0.370236
11
0.628993
21
-0.370928
0
LINE
8
BLACK
6
CONTINUOUS
10
0.628993
20
-0.370928
11
0.629685
21
-0.372598
0
LINE
8
BLACK
6
CONTINUOUS
10
0.629685
20
-0.372598
11
0.629685
21
-0.477323
0
LINE
8
BLACK
6
CONTINUOUS
10
0.629685
20
-0.477323
11
0.628993
21
-0.478993
0
LINE
8
BLACK
6
CONTINUOUS
10
0.628993
20
-0.478993
11
0.627323
21
-0.479685
0
LINE
8
BLACK
6
CONTINUOUS
10
0.627323
20
-0.479685
11
0.625653
21
-0.478993
0
LINE
8
BLACK
6
CONTINUOUS
10
0.625653
20
-0.478993
11
0.624961
21
-0.477323
0
LINE
8
BLACK
6
CONTINUOUS
10
0.624961
20
-0.477323
11
0.624961
21
-0.374961
0
LINE
8
BLACK
6
CONTINUOUS
10
0.624961
20
-0.374961
11
0.504882
21
-0.374961
0
LINE
8
BLACK
6
CONTINUOUS
10
0.504882
20
-0.374961
11
0.503212
21
-0.374269
0
LINE
8
BLACK
6
CONTINUOUS
10
0.290659
20
-0.435285
11
0.290724
21
-0.435283
0
LINE
8
BLACK
6
CONTINUOUS
10
0.290724
20
-0.435283
11
0.296348
21
-0.437158
0
LINE
8
BLACK
6
CONTINUOUS
10
0.296348
20
-0.437158
11
0.29725
21
-0.437646
0
LINE
8
BLACK
6
CONTINUOUS
10
0.29725
20
-0.437646
11
0.297342
21
-0.437796
0
LINE
8
BLACK
6
CONTINUOUS
10
0.297342
20
-0.437796
11
0.297502
21
-0.437871
0
LINE
8
BLACK
6
CONTINUOUS
10
0.297502
20
-0.437871
11
0.301252
21
-0.44162
0
LINE
8
BLACK
6
CONTINUOUS
10
0.301252
20
-0.44162
11
0.30184
21
-0.44246
0
LINE
8
BLACK
6
CONTINUOUS
10
0.30184
20
-0.44246
11
0.301855
21
-0.442636
0
LINE
8
BLACK
6
CONTINUOUS
10
0.301855
20
-0.442636
11
0.301965
21
-0.442775
0
LINE
8
BLACK
6
CONTINUOUS
10
0.301965
20
-0.442775
11
0.30384
21
-0.448399
0
LINE
8
BLACK
6
CONTINUOUS
10
0.30384
20
-0.448399
11
0.303969
21
-0.449272
0
LINE
8
BLACK
6
CONTINUOUS
10
0.303969
20
-0.449272
11
0.303991
21
-0.449333
0
LINE
8
BLACK
6
CONTINUOUS
10
0.303991
20
-0.449333
11
0.303991
21
-0.453082
0
LINE
8
BLACK
6
CONTINUOUS
10
0.303991
20
-0.453082
11
0.303813
21
-0.454092
0
LINE
8
BLACK
6
CONTINUOUS
10
0.303813
20
-0.454092
11
0.302515
21
-0.455639
0
LINE
8
BLACK
6
CONTINUOUS
10
0.302515
20
-0.455639
11
0.300526
21
-0.45599
0
LINE
8
BLACK
6
CONTINUOUS
10
0.300526
20
-0.45599
11
0.298777
21
-0.45498
0
LINE
8
BLACK
6
CONTINUOUS
10
0.298777
20
-0.45498
11
0.298086
21
-0.453082
0
LINE
8
BLACK
6
CONTINUOUS
10
0.298086
20
-0.453082
11
0.298086
21
-0.449812
0
LINE
8
BLACK
6
CONTINUOUS
10
0.298086
20
-0.449812
11
0.296583
21
-0.445303
0
LINE
8
BLACK
6
CONTINUOUS
10
0.296583
20
-0.445303
11
0.293819
21
-0.44254
0
LINE
8
BLACK
6
CONTINUOUS
10
0.293819
20
-0.44254
11
0.289311
21
-0.441037
0
LINE
8
BLACK
6
CONTINUOUS
10
0.289311
20
-0.441037
11
0.261669
21
-0.441037
0
LINE
8
BLACK
6
CONTINUOUS
10
0.261669
20
-0.441037
11
0.260659
21
-0.440859
0
LINE
8
BLACK
6
CONTINUOUS
10
0.260659
20
-0.440859
11
0.259111
21
-0.43956
0
LINE
8
BLACK
6
CONTINUOUS
10
0.259111
20
-0.43956
11
0.258761
21
-0.437571
0
LINE
8
BLACK
6
CONTINUOUS
10
0.258761
20
-0.437571
11
0.259771
21
-0.435822
0
LINE
8
BLACK
6
CONTINUOUS
10
0.259771
20
-0.435822
11
0.261669
21
-0.435131
0
LINE
8
BLACK
6
CONTINUOUS
10
0.261669
20
-0.435131
11
0.28979
21
-0.435131
0
LINE
8
BLACK
6
CONTINUOUS
10
0.28979
20
-0.435131
11
0.290659
21
-0.435285
0
LINE
8
BLACK
6
CONTINUOUS
10
0.303301
20
-0.396816
11
0.303991
21
-0.398714
0
LINE
8
BLACK
6
CONTINUOUS
10
0.303991
20
-0.398714
11
0.303991
21
-0.421211
0
LINE
8
BLACK
6
CONTINUOUS
10
0.303991
20
-0.421211
11
0.303813
21
-0.422221
0
LINE
8
BLACK
6
CONTINUOUS
10
0.303813
20
-0.422221
11
0.302515
21
-0.423768
0
LINE
8
BLACK
6
CONTINUOUS
10
0.302515
20
-0.423768
11
0.300526
21
-0.424119
0
LINE
8
BLACK
6
CONTINUOUS
10
0.300526
20
-0.424119
11
0.298777
21
-0.423109
0
LINE
8
BLACK
6
CONTINUOUS
10
0.298777
20
-0.423109
11
0.298086
21
-0.421211
0
LINE
8
BLACK
6
CONTINUOUS
10
0.298086
20
-0.421211
11
0.298086
21
-0.412915
0
LINE
8
BLACK
6
CONTINUOUS
10
0.298086
20
-0.412915
11
0.270672
21
-0.412915
0
LINE
8
BLACK
6
CONTINUOUS
10
0.270672
20
-0.412915
11
0.27313
21
-0.415374
0
LINE
8
BLACK
6
CONTINUOUS
10
0.27313
20
-0.415374
11
0.273637
21
-0.416097
0
LINE
8
BLACK
6
CONTINUOUS
10
0.273637
20
-0.416097
11
0.273683
21
-0.416141
0
LINE
8
BLACK
6
CONTINUOUS
10
0.273683
20
-0.416141
11
0.275558
21
-0.419891
0
LINE
8
BLACK
6
CONTINUOUS
10
0.275558
20
-0.419891
11
0.275851
21
-0.420873
0
LINE
8
BLACK
6
CONTINUOUS
10
0.275851
20
-0.420873
11
0.275381
21
-0.422838
0
LINE
8
BLACK
6
CONTINUOUS
10
0.275381
20
-0.422838
11
0.273759
21
-0.424041
0
LINE
8
BLACK
6
CONTINUOUS
10
0.273759
20
-0.424041
11
0.271743
21
-0.42392
0
LINE
8
BLACK
6
CONTINUOUS
10
0.271743
20
-0.42392
11
0.270276
21
-0.422532
0
LINE
8
BLACK
6
CONTINUOUS
10
0.270276
20
-0.422532
11
0.268616
21
-0.419211
0
LINE
8
BLACK
6
CONTINUOUS
10
0.268616
20
-0.419211
11
0.265412
21
-0.416007
0
LINE
8
BLACK
6
CONTINUOUS
10
0.265412
20
-0.416007
11
0.260031
21
-0.412419
0
LINE
8
BLACK
6
CONTINUOUS
10
0.260031
20
-0.412419
11
0.259289
21
-0.411711
0
LINE
8
BLACK
6
CONTINUOUS
10
0.259289
20
-0.411711
11
0.259241
21
-0.411548
0
LINE
8
BLACK
6
CONTINUOUS
10
0.259241
20
-0.411548
11
0.259111
21
-0.411439
0
LINE
8
BLACK
6
CONTINUOUS
10
0.259111
20
-0.411439
11
0.258963
21
-0.410595
0
LINE
8
BLACK
6
CONTINUOUS
10
0.258963
20
-0.410595
11
0.258722
21
-0.409772
0
LINE
8
BLACK
6
CONTINUOUS
10
0.258722
20
-0.409772
11
0.25879
21
-0.409617
0
LINE
8
BLACK
6
CONTINUOUS
10
0.25879
20
-0.409617
11
0.258761
21
-0.40945
0
LINE
8
BLACK
6
CONTINUOUS
10
0.258761
20
-0.40945
11
0.259189
21
-0.408708
0
LINE
8
BLACK
6
CONTINUOUS
10
0.259189
20
-0.408708
11
0.259533
21
-0.407923
0
LINE
8
BLACK
6
CONTINUOUS
10
0.259533
20
-0.407923
11
0.259686
21
-0.407848
0
LINE
8
BLACK
6
CONTINUOUS
10
0.259686
20
-0.407848
11
0.259771
21
-0.407701
0
LINE
8
BLACK
6
CONTINUOUS
10
0.259771
20
-0.407701
11
0.260576
21
-0.407407
0
LINE
8
BLACK
6
CONTINUOUS
10
0.260576
20
-0.407407
11
0.261344
21
-0.407028
0
LINE
8
BLACK
6
CONTINUOUS
10
0.261344
20
-0.407028
11
0.261509
21
-0.407068
0
LINE
8
BLACK
6
CONTINUOUS
10
0.261509
20
-0.407068
11
0.261669
21
-0.40701
0
LINE
8
BLACK
6
CONTINUOUS
10
0.261669
20
-0.40701
11
0.298086
21
-0.40701
0
LINE
8
BLACK
6
CONTINUOUS
10
0.298086
20
-0.40701
11
0.298086
21
-0.398714
0
LINE
8
BLACK
6
CONTINUOUS
10
0.298086
20
-0.398714
11
0.298264
21
-0.397704
0
LINE
8
BLACK
6
CONTINUOUS
10
0.298264
20
-0.397704
11
0.299562
21
-0.396157
0
LINE
8
BLACK
6
CONTINUOUS
10
0.299562
20
-0.396157
11
0.301551
21
-0.395806
0
LINE
8
BLACK
6
CONTINUOUS
10
0.301551
20
-0.395806
11
0.303301
21
-0.396816
0
LINE
8
BLACK
6
CONTINUOUS
10
0.803928
20
0.107908
11
0.806089
21
0.105746
0
LINE
8
BLACK
6
CONTINUOUS
10
0.806089
20
0.105746
11
0.80688
21
0.102793
0
LINE
8
BLACK
6
CONTINUOUS
10
0.80688
20
0.102793
11
0.80688
21
0.0358643
0
LINE
8
BLACK
6
CONTINUOUS
10
0.80688
20
0.0358643
11
0.806877
21
0.0358512
0
LINE
8
BLACK
6
CONTINUOUS
10
0.806877
20
0.0358512
11
0.80688
21
0.035838
0
LINE
8
BLACK
6
CONTINUOUS
10
0.80688
20
0.035838
11
0.806481
21
0.0343722
0
LINE
8
BLACK
6
CONTINUOUS
10
0.806481
20
0.0343722
11
0.806089
21
0.0329115
0
LINE
8
BLACK
6
CONTINUOUS
10
0.806089
20
0.0329115
11
0.80608
21
0.0329019
0
LINE
8
BLACK
6
CONTINUOUS
10
0.80608
20
0.0329019
11
0.806076
21
0.0328888
0
LINE
8
BLACK
6
CONTINUOUS
10
0.806076
20
0.0328888
11
0.804997
21
0.0318194
0
LINE
8
BLACK
6
CONTINUOUS
10
0.804997
20
0.0318194
11
0.803928
21
0.03075
0
LINE
8
BLACK
6
CONTINUOUS
10
0.803928
20
0.03075
11
0.803914
21
0.0307465
0
LINE
8
BLACK
6
CONTINUOUS
10
0.803914
20
0.0307465
11
0.803905
21
0.0307369
0
LINE
8
BLACK
6
CONTINUOUS
10
0.803905
20
0.0307369
11
0.802435
21
0.0303502
0
LINE
8
BLACK
6
CONTINUOUS
10
0.802435
20
0.0303502
11
0.800975
21
0.0299588
0
LINE
8
BLACK
6
CONTINUOUS
10
0.800975
20
0.0299588
11
0.800962
21
0.0299623
0
LINE
8
BLACK
6
CONTINUOUS
10
0.800962
20
0.0299623
11
0.800949
21
0.0299588
0
LINE
8
BLACK
6
CONTINUOUS
10
0.800949
20
0.0299588
11
0.799483
21
0.0303586
0
LINE
8
BLACK
6
CONTINUOUS
10
0.799483
20
0.0303586
11
0.798022
21
0.03075
0
LINE
8
BLACK
6
CONTINUOUS
10
0.798022
20
0.03075
11
0.798012
21
0.0307596
0
LINE
8
BLACK
6
CONTINUOUS
10
0.798012
20
0.0307596
11
0.797999
21
0.0307631
0
LINE
8
BLACK
6
CONTINUOUS
10
0.797999
20
0.0307631
11
0.796932
21
0.0318399
0
LINE
8
BLACK
6
CONTINUOUS
10
0.796932
20
0.0318399
11
0.795861
21
0.0329115
0
LINE
8
BLACK
6
CONTINUOUS
10
0.795861
20
0.0329115
11
0.795857
21
0.0329247
0
LINE
8
BLACK
6
CONTINUOUS
10
0.795857
20
0.0329247
11
0.795847
21
0.0329343
0
LINE
8
BLACK
6
CONTINUOUS
10
0.795847
20
0.0329343
11
0.768635
21
0.0805559
0
LINE
8
BLACK
6
CONTINUOUS
10
0.768635
20
0.0805559
11
0.768635
21
0.0358643
0
LINE
8
BLACK
6
CONTINUOUS
10
0.768635
20
0.0358643
11
0.767844
21
0.0329115
0
LINE
8
BLACK
6
CONTINUOUS
10
0.767844
20
0.0329115
11
0.765682
21
0.03075
0
LINE
8
BLACK
6
CONTINUOUS
10
0.765682
20
0.03075
11
0.76273
21
0.0299588
0
LINE
8
BLACK
6
CONTINUOUS
10
0.76273
20
0.0299588
11
0.759777
21
0.03075
0
LINE
8
BLACK
6
CONTINUOUS
10
0.759777
20
0.03075
11
0.757615
21
0.0329115
0
LINE
8
BLACK
6
CONTINUOUS
10
0.757615
20
0.0329115
11
0.756824
21
0.0358643
0
LINE
8
BLACK
6
CONTINUOUS
10
0.756824
20
0.0358643
11
0.756824
21
0.102793
0
LINE
8
BLACK
6
CONTINUOUS
10
0.756824
20
0.102793
11
0.756828
21
0.102807
0
LINE
8
BLACK
6
CONTINUOUS
10
0.756828
20
0.102807
11
0.756824
21
0.10282
0
LINE
8
BLACK
6
CONTINUOUS
10
0.756824
20
0.10282
11
0.757224
21
0.104286
0
LINE
8
BLACK
6
CONTINUOUS
10
0.757224
20
0.104286
11
0.757615
21
0.105746
0
LINE
8
BLACK
6
CONTINUOUS
10
0.757615
20
0.105746
11
0.757625
21
0.105756
0
LINE
8
BLACK
6
CONTINUOUS
10
0.757625
20
0.105756
11
0.757629
21
0.105769
0
LINE
8
BLACK
6
CONTINUOUS
10
0.757629
20
0.105769
11
0.758705
21
0.106836
0
LINE
8
BLACK
6
CONTINUOUS
10
0.758705
20
0.106836
11
0.759777
21
0.107908
0
LINE
8
BLACK
6
CONTINUOUS
10
0.759777
20
0.107908
11
0.75979
21
0.107911
0
LINE
8
BLACK
6
CONTINUOUS
10
0.75979
20
0.107911
11
0.7598
21
0.107921
0
LINE
8
BLACK
6
CONTINUOUS
10
0.7598
20
0.107921
11
0.761265
21
0.108306
0
LINE
8
BLACK
6
CONTINUOUS
10
0.761265
20
0.108306
11
0.76273
21
0.108699
0
LINE
8
BLACK
6
CONTINUOUS
10
0.76273
20
0.108699
11
0.762743
21
0.108695
0
LINE
8
BLACK
6
CONTINUOUS
10
0.762743
20
0.108695
11
0.762756
21
0.108699
0
LINE
8
BLACK
6
CONTINUOUS
10
0.762756
20
0.108699
11
0.764222
21
0.108299
0
LINE
8
BLACK
6
CONTINUOUS
10
0.764222
20
0.108299
11
0.765682
21
0.107908
0
LINE
8
BLACK
6
CONTINUOUS
10
0.765682
20
0.107908
11
0.765692
21
0.107898
0
LINE
8
BLACK
6
CONTINUOUS
10
0.765692
20
0.107898
11
0.765705
21
0.107895
0
LINE
8
BLACK
6
CONTINUOUS
10
0.765705
20
0.107895
11
0.766772
21
0.106818
0
LINE
8
BLACK
6
CONTINUOUS
10
0.766772
20
0.106818
11
0.767844
21
0.105746
0
LINE
8
BLACK
6
CONTINUOUS
10
0.767844
20
0.105746
11
0.767848
21
0.105733
0
LINE
8
BLACK
6
CONTINUOUS
10
0.767848
20
0.105733
11
0.767857
21
0.105723
0
LINE
8
BLACK
6
CONTINUOUS
10
0.767857
20
0.105723
11
0.795069
21
0.0581019
0
LINE
8
BLACK
6
CONTINUOUS
10
0.795069
20
0.0581019
11
0.795069
21
0.102793
0
LINE
8
BLACK
6
CONTINUOUS
10
0.795069
20
0.102793
11
0.795861
21
0.105746
0
LINE
8
BLACK
6
CONTINUOUS
10
0.795861
20
0.105746
11
0.798022
21
0.107908
0
LINE
8
BLACK
6
CONTINUOUS
10
0.798022
20
0.107908
11
0.800975
21
0.108699
0
LINE
8
BLACK
6
CONTINUOUS
10
0.800975
20
0.108699
11
0.803928
21
0.107908
0
LINE
8
BLACK
6
CONTINUOUS
10
0.733811
20
0.107908
11
0.735973
21
0.105746
0
LINE
8
BLACK
6
CONTINUOUS
10
0.735973
20
0.105746
11
0.736764
21
0.102793
0
LINE
8
BLACK
6
CONTINUOUS
10
0.736764
20
0.102793
11
0.736764
21
0.0358643
0
LINE
8
BLACK
6
CONTINUOUS
10
0.736764
20
0.0358643
11
0.735973
21
0.0329115
0
LINE
8
BLACK
6
CONTINUOUS
10
0.735973
20
0.0329115
11
0.733811
21
0.03075
0
LINE
8
BLACK
6
CONTINUOUS
10
0.733811
20
0.03075
11
0.730859
21
0.0299588
0
LINE
8
BLACK
6
CONTINUOUS
10
0.730859
20
0.0299588
11
0.727906
21
0.03075
0
LINE
8
BLACK
6
CONTINUOUS
10
0.727906
20
0.03075
11
0.725744
21
0.0329115
0
LINE
8
BLACK
6
CONTINUOUS
10
0.725744
20
0.0329115
11
0.724953
21
0.0358643
0
LINE
8
BLACK
6
CONTINUOUS
10
0.724953
20
0.0358643
11
0.724953
21
0.102793
0
LINE
8
BLACK
6
CONTINUOUS
10
0.724953
20
0.102793
11
0.725744
21
0.105746
0
LINE
8
BLACK
6
CONTINUOUS
10
0.725744
20
0.105746
11
0.727906
21
0.107908
0
LINE
8
BLACK
6
CONTINUOUS
10
0.727906
20
0.107908
11
0.730859
21
0.108699
0
LINE
8
BLACK
6
CONTINUOUS
10
0.730859
20
0.108699
11
0.733811
21
0.107908
0
LINE
8
BLACK
6
CONTINUOUS
10
0.690737
20
0.108348
11
0.692067
21
0.108075
0
LINE
8
BLACK
6
CONTINUOUS
10
0.692067
20
0.108075
11
0.698442
21
0.104888
0
LINE
8
BLACK
6
CONTINUOUS
10
0.698442
20
0.104888
11
0.699153
21
0.104257
0
LINE
8
BLACK
6
CONTINUOUS
10
0.699153
20
0.104257
11
0.699976
21
0.103782
0
LINE
8
BLACK
6
CONTINUOUS
10
0.699976
20
0.103782
11
0.703163
21
0.100595
0
LINE
8
BLACK
6
CONTINUOUS
10
0.703163
20
0.100595
11
0.703639
21
0.0997716
0
LINE
8
BLACK
6
CONTINUOUS
10
0.703639
20
0.0997716
11
0.70427
21
0.0990602
0
LINE
8
BLACK
6
CONTINUOUS
10
0.70427
20
0.0990602
11
0.707457
21
0.092686
0
LINE
8
BLACK
6
CONTINUOUS
10
0.707457
20
0.092686
11
0.707729
21
0.0913561
0
LINE
8
BLACK
6
CONTINUOUS
10
0.707729
20
0.0913561
11
0.70808
21
0.090045
0
LINE
8
BLACK
6
CONTINUOUS
10
0.70808
20
0.090045
11
0.70808
21
0.0804837
0
LINE
8
BLACK
6
CONTINUOUS
10
0.70808
20
0.0804837
11
0.707729
21
0.0791726
0
LINE
8
BLACK
6
CONTINUOUS
10
0.707729
20
0.0791726
11
0.707457
21
0.0778427
0
LINE
8
BLACK
6
CONTINUOUS
10
0.707457
20
0.0778427
11
0.70427
21
0.0714685
0
LINE
8
BLACK
6
CONTINUOUS
10
0.70427
20
0.0714685
11
0.703639
21
0.0707571
0
LINE
8
BLACK
6
CONTINUOUS
10
0.703639
20
0.0707571
11
0.703163
21
0.0699337
0
LINE
8
BLACK
6
CONTINUOUS
10
0.703163
20
0.0699337
11
0.699976
21
0.0667466
0
LINE
8
BLACK
6
CONTINUOUS
10
0.699976
20
0.0667466
11
0.699153
21
0.0662712
0
LINE
8
BLACK
6
CONTINUOUS
10
0.699153
20
0.0662712
11
0.698442
21
0.0656404
0
LINE
8
BLACK
6
CONTINUOUS
10
0.698442
20
0.0656404
11
0.692067
21
0.0624533
0
LINE
8
BLACK
6
CONTINUOUS
10
0.692067
20
0.0624533
11
0.690737
21
0.0621811
0
LINE
8
BLACK
6
CONTINUOUS
10
0.690737
20
0.0621811
11
0.689426
21
0.0618298
0
LINE
8
BLACK
6
CONTINUOUS
10
0.689426
20
0.0618298
11
0.669835
21
0.0618298
0
LINE
8
BLACK
6
CONTINUOUS
10
0.669835
20
0.0618298
11
0.669835
21
0.0358643
0
LINE
8
BLACK
6
CONTINUOUS
10
0.669835
20
0.0358643
11
0.669044
21
0.0329115
0
LINE
8
BLACK
6
CONTINUOUS
10
0.669044
20
0.0329115
11
0.666882
21
0.03075
0
LINE
8
BLACK
6
CONTINUOUS
10
0.666882
20
0.03075
11
0.663929
21
0.0299588
0
LINE
8
BLACK
6
CONTINUOUS
10
0.663929
20
0.0299588
11
0.660977
21
0.03075
0
LINE
8
BLACK
6
CONTINUOUS
10
0.660977
20
0.03075
11
0.658815
21
0.0329115
0
LINE
8
BLACK
6
CONTINUOUS
10
0.658815
20
0.0329115
11
0.658024
21
0.0358643
0
LINE
8
BLACK
6
CONTINUOUS
10
0.658024
20
0.0358643
11
0.658024
21
0.102793
0
LINE
8
BLACK
6
CONTINUOUS
10
0.658024
20
0.102793
11
0.658815
21
0.105746
0
LINE
8
BLACK
6
CONTINUOUS
10
0.658815
20
0.105746
11
0.660977
21
0.107908
0
LINE
8
BLACK
6
CONTINUOUS
10
0.660977
20
0.107908
11
0.663929
21
0.108699
0
LINE
8
BLACK
6
CONTINUOUS
10
0.663929
20
0.108699
11
0.689426
21
0.108699
0
LINE
8
BLACK
6
CONTINUOUS
10
0.689426
20
0.108699
11
0.690737
21
0.108348
0
LINE
8
BLACK
6
CONTINUOUS
10
0.669835
20
0.0968879
11
0.669835
21
0.0736408
0
LINE
8
BLACK
6
CONTINUOUS
10
0.669835
20
0.0736408
11
0.688032
21
0.0736408
0
LINE
8
BLACK
6
CONTINUOUS
10
0.688032
20
0.0736408
11
0.692302
21
0.0757759
0
LINE
8
BLACK
6
CONTINUOUS
10
0.692302
20
0.0757759
11
0.694134
21
0.0776077
0
LINE
8
BLACK
6
CONTINUOUS
10
0.694134
20
0.0776077
11
0.696269
21
0.0818778
0
LINE
8
BLACK
6
CONTINUOUS
10
0.696269
20
0.0818778
11
0.696269
21
0.0886509
0
LINE
8
BLACK
6
CONTINUOUS
10
0.696269
20
0.0886509
11
0.694134
21
0.092921
0
LINE
8
BLACK
6
CONTINUOUS
10
0.694134
20
0.092921
11
0.692302
21
0.0947528
0
LINE
8
BLACK
6
CONTINUOUS
10
0.692302
20
0.0947528
11
0.688032
21
0.0968879
0
LINE
8
BLACK
6
CONTINUOUS
10
0.688032
20
0.0968879
11
0.669835
21
0.0968879
0
LINE
8
BLACK
6
CONTINUOUS
10
0.874044
20
0.107908
11
0.876205
21
0.105746
0
LINE
8
BLACK
6
CONTINUOUS
10
0.876205
20
0.105746
11
0.876997
21
0.102793
0
LINE
8
BLACK
6
CONTINUOUS
10
0.876997
20
0.102793
11
0.876997
21
0.0358643
0
LINE
8
BLACK
6
CONTINUOUS
10
0.876997
20
0.0358643
11
0.876205
21
0.0329115
0
LINE
8
BLACK
6
CONTINUOUS
10
0.876205
20
0.0329115
11
0.874044
21
0.03075
0
LINE
8
BLACK
6
CONTINUOUS
10
0.874044
20
0.03075
11
0.871091
21
0.0299588
0
LINE
8
BLACK
6
CONTINUOUS
10
0.871091
20
0.0299588
11
0.868138
21
0.03075
0
LINE
8
BLACK
6
CONTINUOUS
10
0.868138
20
0.03075
11
0.865977
21
0.0329115
0
LINE
8
BLACK
6
CONTINUOUS
10
0.865977
20
0.0329115
11
0.865186
21
0.0358643
0
LINE
8
BLACK
6
CONTINUOUS
10
0.865186
20
0.0358643
11
0.865186
21
0.0650169
0
LINE
8
BLACK
6
CONTINUOUS
10
0.865186
20
0.0650169
11
0.838751
21
0.0650169
0
LINE
8
BLACK
6
CONTINUOUS
10
0.838751
20
0.0650169
11
0.838751
21
0.0358643
0
LINE
8
BLACK
6
CONTINUOUS
10
0.838751
20
0.0358643
11
0.83796
21
0.0329115
0
LINE
8
BLACK
6
CONTINUOUS
10
0.83796
20
0.0329115
11
0.835799
21
0.03075
0
LINE
8
BLACK
6
CONTINUOUS
10
0.835799
20
0.03075
11
0.832846
21
0.0299588
0
LINE
8
BLACK
6
CONTINUOUS
10
0.832846
20
0.0299588
11
0.829893
21
0.03075
0
LINE
8
BLACK
6
CONTINUOUS
10
0.829893
20
0.03075
11
0.827732
21
0.0329115
0
LINE
8
BLACK
6
CONTINUOUS
10
0.827732
20
0.0329115
11
0.82694
21
0.0358643
0
LINE
8
BLACK
6
CONTINUOUS
10
0.82694
20
0.0358643
11
0.82694
21
0.102793
0
LINE
8
BLACK
6
CONTINUOUS
10
0.82694
20
0.102793
11
0.827732
21
0.105746
0
LINE
8
BLACK
6
CONTINUOUS
10
0.827732
20
0.105746
11
0.829893
21
0.107908
0
LINE
8
BLACK
6
CONTINUOUS
10
0.829893
20
0.107908
11
0.832846
21
0.108699
0
LINE
8
BLACK
6
CONTINUOUS
10
0.832846
20
0.108699
11
0.835799
21
0.107908
0
LINE
8
BLACK
6
CONTINUOUS
10
0.835799
20
0.107908
11
0.83796
21
0.105746
0
LINE
8
BLACK
6
CONTINUOUS
10
0.83796
20
0.105746
11
0.838751
21
0.102793
0
LINE
8
BLACK
6
CONTINUOUS
10
0.838751
20
0.102793
11
0.838751
21
0.0768279
0
LINE
8
BLACK
6
CONTINUOUS
10
0.838751
20
0.0768279
11
0.865186
21
0.0768279
0
LINE
8
BLACK
6
CONTINUOUS
10
0.865186
20
0.0768279
11
0.865186
21
0.102793
0
LINE
8
BLACK
6
CONTINUOUS
10
0.865186
20
0.102793
11
0.865977
21
0.105746
0
LINE
8
BLACK
6
CONTINUOUS
10
0.865977
20
0.105746
11
0.868138
21
0.107908
0
LINE
8
BLACK
6
CONTINUOUS
10
0.868138
20
0.107908
11
0.871091
21
0.108699
0
LINE
8
BLACK
6
CONTINUOUS
10
0.871091
20
0.108699
11
0.874044
21
0.107908
0
LINE
8
BLACK
6
CONTINUOUS
10
1.24211
20
0.108348
11
1.24344
21
0.108075
0
LINE
8
BLACK
6
CONTINUOUS
10
1.24344
20
0.108075
11
1.24981
21
0.104888
0
LINE
8
BLACK
6
CONTINUOUS
10
1.24981
20
0.104888
11
1.25052
21
0.104257
0
LINE
8
BLACK
6
CONTINUOUS
10
1.25052
20
0.104257
11
1.25134
21
0.103782
0
LINE
8
BLACK
6
CONTINUOUS
10
1.25134
20
0.103782
11
1.25453
21
0.100595
0
LINE
8
BLACK
6
CONTINUOUS
10
1.25453
20
0.100595
11
1.25501
21
0.0997716
0
LINE
8
BLACK
6
CONTINUOUS
10
1.25501
20
0.0997716
11
1.25564
21
0.0990602
0
LINE
8
BLACK
6
CONTINUOUS
10
1.25564
20
0.0990602
11
1.25883
21
0.092686
0
LINE
8
BLACK
6
CONTINUOUS
10
1.25883
20
0.092686
11
1.25896
21
0.0920472
0
LINE
8
BLACK
6
CONTINUOUS
10
1.25896
20
0.0920472
11
1.25927
21
0.0914773
0
LINE
8
BLACK
6
CONTINUOUS
10
1.25927
20
0.0914773
11
1.26246
21
0.0787289
0
LINE
8
BLACK
6
CONTINUOUS
10
1.26246
20
0.0787289
11
1.26245
21
0.0780004
0
LINE
8
BLACK
6
CONTINUOUS
10
1.26245
20
0.0780004
11
1.26264
21
0.0772966
0
LINE
8
BLACK
6
CONTINUOUS
10
1.26264
20
0.0772966
11
1.26264
21
0.0613611
0
LINE
8
BLACK
6
CONTINUOUS
10
1.26264
20
0.0613611
11
1.26245
21
0.0606574
0
LINE
8
BLACK
6
CONTINUOUS
10
1.26245
20
0.0606574
11
1.26246
21
0.0599288
0
LINE
8
BLACK
6
CONTINUOUS
10
1.26246
20
0.0599288
11
1.25927
21
0.0471804
0
LINE
8
BLACK
6
CONTINUOUS
10
1.25927
20
0.0471804
11
1.25896
21
0.0466104
0
LINE
8
BLACK
6
CONTINUOUS
10
1.25896
20
0.0466104
11
1.25883
21
0.0459717
0
LINE
8
BLACK
6
CONTINUOUS
10
1.25883
20
0.0459717
11
1.25564
21
0.0395974
0
LINE
8
BLACK
6
CONTINUOUS
10
1.25564
20
0.0395974
11
1.25501
21
0.0388861
0
LINE
8
BLACK
6
CONTINUOUS
10
1.25501
20
0.0388861
11
1.25453
21
0.0380627
0
LINE
8
BLACK
6
CONTINUOUS
10
1.25453
20
0.0380627
11
1.25134
21
0.0348756
0
LINE
8
BLACK
6
CONTINUOUS
10
1.25134
20
0.0348756
11
1.25052
21
0.0344002
0
LINE
8
BLACK
6
CONTINUOUS
10
1.25052
20
0.0344002
11
1.24981
21
0.0337693
0
LINE
8
BLACK
6
CONTINUOUS
10
1.24981
20
0.0337693
11
1.24344
21
0.0305822
0
LINE
8
BLACK
6
CONTINUOUS
10
1.24344
20
0.0305822
11
1.24211
21
0.0303101
0
LINE
8
BLACK
6
CONTINUOUS
10
1.24211
20
0.0303101
11
1.24079
21
0.0299588
0
LINE
8
BLACK
6
CONTINUOUS
10
1.24079
20
0.0299588
11
1.23442
21
0.0299588
0
LINE
8
BLACK
6
CONTINUOUS
10
1.23442
20
0.0299588
11
1.23311
21
0.0303101
0
LINE
8
BLACK
6
CONTINUOUS
10
1.23311
20
0.0303101
11
1.23178
21
0.0305822
0
LINE
8
BLACK
6
CONTINUOUS
10
1.23178
20
0.0305822
11
1.22541
21
0.0337693
0
LINE
8
BLACK
6
CONTINUOUS
10
1.22541
20
0.0337693
11
1.22469
21
0.0344002
0
LINE
8
BLACK
6
CONTINUOUS
10
1.22469
20
0.0344002
11
1.22387
21
0.0348756
0
LINE
8
BLACK
6
CONTINUOUS
10
1.22387
20
0.0348756
11
1.22068
21
0.0380627
0
LINE
8
BLACK
6
CONTINUOUS
10
1.22068
20
0.0380627
11
1.22021
21
0.0388861
0
LINE
8
BLACK
6
CONTINUOUS
10
1.22021
20
0.0388861
11
1.21958
21
0.0395975
0
LINE
8
BLACK
6
CONTINUOUS
10
1.21958
20
0.0395975
11
1.21639
21
0.0459717
0
LINE
8
BLACK
6
CONTINUOUS
10
1.21639
20
0.0459717
11
1.21626
21
0.0466104
0
LINE
8
BLACK
6
CONTINUOUS
10
1.21626
20
0.0466104
11
1.21594
21
0.0471804
0
LINE
8
BLACK
6
CONTINUOUS
10
1.21594
20
0.0471804
11
1.21276
21
0.0599288
0
LINE
8
BLACK
6
CONTINUOUS
10
1.21276
20
0.0599288
11
1.21277
21
0.0606573
0
LINE
8
BLACK
6
CONTINUOUS
10
1.21277
20
0.0606573
11
1.21258
21
0.0613611
0
LINE
8
BLACK
6
CONTINUOUS
10
1.21258
20
0.0613611
11
1.21258
21
0.0772966
0
LINE
8
BLACK
6
CONTINUOUS
10
1.21258
20
0.0772966
11
1.21277
21
0.0780004
0
LINE
8
BLACK
6
CONTINUOUS
10
1.21277
20
0.0780004
11
1.21276
21
0.0787289
0
LINE
8
BLACK
6
CONTINUOUS
10
1.21276
20
0.0787289
11
1.21594
21
0.0914773
0
LINE
8
BLACK
6
CONTINUOUS
10
1.21594
20
0.0914773
11
1.21626
21
0.0920473
0
LINE
8
BLACK
6
CONTINUOUS
10
1.21626
20
0.0920473
11
1.21639
21
0.092686
0
LINE
8
BLACK
6
CONTINUOUS
10
1.21639
20
0.092686
11
1.21958
21
0.0990602
0
LINE
8
BLACK
6
CONTINUOUS
10
1.21958
20
0.0990602
11
1.22021
21
0.0997717
0
LINE
8
BLACK
6
CONTINUOUS
10
1.22021
20
0.0997717
11
1.22068
21
0.100595
0
LINE
8
BLACK
6
CONTINUOUS
10
1.22068
20
0.100595
11
1.22387
21
0.103782
0
LINE
8
BLACK
6
CONTINUOUS
10
1.22387
20
0.103782
11
1.22469
21
0.104258
0
LINE
8
BLACK
6
CONTINUOUS
10
1.22469
20
0.104258
11
1.22541
21
0.104888
0
LINE
8
BLACK
6
CONTINUOUS
10
1.22541
20
0.104888
11
1.23178
21
0.108075
0
LINE
8
BLACK
6
CONTINUOUS
10
1.23178
20
0.108075
11
1.23311
21
0.108348
0
LINE
8
BLACK
6
CONTINUOUS
10
1.23311
20
0.108348
11
1.23442
21
0.108699
0
LINE
8
BLACK
6
CONTINUOUS
10
1.23442
20
0.108699
11
1.24079
21
0.108699
0
LINE
8
BLACK
6
CONTINUOUS
10
1.24079
20
0.108699
11
1.24211
21
0.108348
0
LINE
8
BLACK
6
CONTINUOUS
10
1.23581
20
0.0968879
11
1.23154
21
0.0947528
0
LINE
8
BLACK
6
CONTINUOUS
10
1.23154
20
0.0947528
11
1.22971
21
0.092921
0
LINE
8
BLACK
6
CONTINUOUS
10
1.22971
20
0.092921
11
1.22724
21
0.0879838
0
LINE
8
BLACK
6
CONTINUOUS
10
1.22724
20
0.0879838
11
1.22439
21
0.0765696
0
LINE
8
BLACK
6
CONTINUOUS
10
1.22439
20
0.0765696
11
1.22439
21
0.0620881
0
LINE
8
BLACK
6
CONTINUOUS
10
1.22439
20
0.0620881
11
1.22724
21
0.0506739
0
LINE
8
BLACK
6
CONTINUOUS
10
1.22724
20
0.0506739
11
1.22971
21
0.0457367
0
LINE
8
BLACK
6
CONTINUOUS
10
1.22971
20
0.0457367
11
1.23154
21
0.0439048
0
LINE
8
BLACK
6
CONTINUOUS
10
1.23154
20
0.0439048
11
1.23581
21
0.0417698
0
LINE
8
BLACK
6
CONTINUOUS
10
1.23581
20
0.0417698
11
1.2394
21
0.0417698
0
LINE
8
BLACK
6
CONTINUOUS
10
1.2394
20
0.0417698
11
1.24367
21
0.0439048
0
LINE
8
BLACK
6
CONTINUOUS
10
1.24367
20
0.0439048
11
1.2455
21
0.0457367
0
LINE
8
BLACK
6
CONTINUOUS
10
1.2455
20
0.0457367
11
1.24797
21
0.050674
0
LINE
8
BLACK
6
CONTINUOUS
10
1.24797
20
0.050674
11
1.25082
21
0.0620881
0
LINE
8
BLACK
6
CONTINUOUS
10
1.25082
20
0.0620881
11
1.25082
21
0.0765696
0
LINE
8
BLACK
6
CONTINUOUS
10
1.25082
20
0.0765696
11
1.24797
21
0.0879837
0
LINE
8
BLACK
6
CONTINUOUS
10
1.24797
20
0.0879837
11
1.2455
21
0.092921
0
LINE
8
BLACK
6
CONTINUOUS
10
1.2455
20
0.092921
11
1.24367
21
0.0947528
0
LINE
8
BLACK
6
CONTINUOUS
10
1.24367
20
0.0947528
11
1.2394
21
0.0968879
0
LINE
8
BLACK
6
CONTINUOUS
10
1.2394
20
0.0968879
11
1.23581
21
0.0968879
0
LINE
8
BLACK
6
CONTINUOUS
10
1.18155
20
0.108348
11
1.18288
21
0.108075
0
LINE
8
BLACK
6
CONTINUOUS
10
1.18288
20
0.108075
11
1.18926
21
0.104888
0
LINE
8
BLACK
6
CONTINUOUS
10
1.18926
20
0.104888
11
1.18997
21
0.104257
0
LINE
8
BLACK
6
CONTINUOUS
10
1.18997
20
0.104257
11
1.19079
21
0.103782
0
LINE
8
BLACK
6
CONTINUOUS
10
1.19079
20
0.103782
11
1.19398
21
0.100595
0
LINE
8
BLACK
6
CONTINUOUS
10
1.19398
20
0.100595
11
1.19445
21
0.0997717
0
LINE
8
BLACK
6
CONTINUOUS
10
1.19445
20
0.0997717
11
1.19508
21
0.0990602
0
LINE
8
BLACK
6
CONTINUOUS
10
1.19508
20
0.0990602
11
1.19827
21
0.092686
0
LINE
8
BLACK
6
CONTINUOUS
10
1.19827
20
0.092686
11
1.19854
21
0.0913561
0
LINE
8
BLACK
6
CONTINUOUS
10
1.19854
20
0.0913561
11
1.19889
21
0.090045
0
LINE
8
BLACK
6
CONTINUOUS
10
1.19889
20
0.090045
11
1.19889
21
0.0804837
0
LINE
8
BLACK
6
CONTINUOUS
10
1.19889
20
0.0804837
11
1.19854
21
0.0791726
0
LINE
8
BLACK
6
CONTINUOUS
10
1.19854
20
0.0791726
11
1.19827
21
0.0778427
0
LINE
8
BLACK
6
CONTINUOUS
10
1.19827
20
0.0778427
11
1.19508
21
0.0714685
0
LINE
8
BLACK
6
CONTINUOUS
10
1.19508
20
0.0714685
11
1.19445
21
0.070757
0
LINE
8
BLACK
6
CONTINUOUS
10
1.19445
20
0.070757
11
1.19398
21
0.0699337
0
LINE
8
BLACK
6
CONTINUOUS
10
1.19398
20
0.0699337
11
1.19079
21
0.0667466
0
LINE
8
BLACK
6
CONTINUOUS
10
1.19079
20
0.0667466
11
1.18997
21
0.0662712
0
LINE
8
BLACK
6
CONTINUOUS
10
1.18997
20
0.0662712
11
1.18926
21
0.0656404
0
LINE
8
BLACK
6
CONTINUOUS
10
1.18926
20
0.0656404
11
1.18288
21
0.0624533
0
LINE
8
BLACK
6
CONTINUOUS
10
1.18288
20
0.0624533
11
1.18175
21
0.0622212
0
LINE
8
BLACK
6
CONTINUOUS
10
1.18175
20
0.0622212
11
1.19783
21
0.0392509
0
LINE
8
BLACK
6
CONTINUOUS
10
1.19783
20
0.0392509
11
1.19887
21
0.0363781
0
LINE
8
BLACK
6
CONTINUOUS
10
1.19887
20
0.0363781
11
1.19834
21
0.0333678
0
LINE
8
BLACK
6
CONTINUOUS
10
1.19834
20
0.0333678
11
1.19637
21
0.0310263
0
LINE
8
BLACK
6
CONTINUOUS
10
1.19637
20
0.0310263
11
1.1935
21
0.0299811
0
LINE
8
BLACK
6
CONTINUOUS
10
1.1935
20
0.0299811
11
1.19049
21
0.0305124
0
LINE
8
BLACK
6
CONTINUOUS
10
1.19049
20
0.0305124
11
1.18815
21
0.0324777
0
LINE
8
BLACK
6
CONTINUOUS
10
1.18815
20
0.0324777
11
1.1676
21
0.0618298
0
LINE
8
BLACK
6
CONTINUOUS
10
1.1676
20
0.0618298
11
1.16065
21
0.0618298
0
LINE
8
BLACK
6
CONTINUOUS
10
1.16065
20
0.0618298
11
1.16065
21
0.0358643
0
LINE
8
BLACK
6
CONTINUOUS
10
1.16065
20
0.0358643
11
1.15986
21
0.0329115
0
LINE
8
BLACK
6
CONTINUOUS
10
1.15986
20
0.0329115
11
1.1577
21
0.03075
0
LINE
8
BLACK
6
CONTINUOUS
10
1.1577
20
0.03075
11
1.15474
21
0.0299588
0
LINE
8
BLACK
6
CONTINUOUS
10
1.15474
20
0.0299588
11
1.15179
21
0.03075
0
LINE
8
BLACK
6
CONTINUOUS
10
1.15179
20
0.03075
11
1.14963
21
0.0329115
0
LINE
8
BLACK
6
CONTINUOUS
10
1.14963
20
0.0329115
11
1.14884
21
0.0358643
0
LINE
8
BLACK
6
CONTINUOUS
10
1.14884
20
0.0358643
11
1.14884
21
0.102793
0
LINE
8
BLACK
6
CONTINUOUS
10
1.14884
20
0.102793
11
1.14963
21
0.105746
0
LINE
8
BLACK
6
CONTINUOUS
10
1.14963
20
0.105746
11
1.15179
21
0.107908
0
LINE
8
BLACK
6
CONTINUOUS
10
1.15179
20
0.107908
11
1.15474
21
0.108699
0
LINE
8
BLACK
6
CONTINUOUS
10
1.15474
20
0.108699
11
1.18024
21
0.108699
0
LINE
8
BLACK
6
CONTINUOUS
10
1.18024
20
0.108699
11
1.18155
21
0.108348
0
LINE
8
BLACK
6
CONTINUOUS
10
1.16065
20
0.0968879
11
1.16065
21
0.0736408
0
LINE
8
BLACK
6
CONTINUOUS
10
1.16065
20
0.0736408
11
1.17885
21
0.0736408
0
LINE
8
BLACK
6
CONTINUOUS
10
1.17885
20
0.0736408
11
1.18312
21
0.0757759
0
LINE
8
BLACK
6
CONTINUOUS
10
1.18312
20
0.0757759
11
1.18495
21
0.0776077
0
LINE
8
BLACK
6
CONTINUOUS
10
1.18495
20
0.0776077
11
1.18708
21
0.0818778
0
LINE
8
BLACK
6
CONTINUOUS
10
1.18708
20
0.0818778
11
1.18708
21
0.0886509
0
LINE
8
BLACK
6
CONTINUOUS
10
1.18708
20
0.0886509
11
1.18495
21
0.092921
0
LINE
8
BLACK
6
CONTINUOUS
10
1.18495
20
0.092921
11
1.18312
21
0.0947528
0
LINE
8
BLACK
6
CONTINUOUS
10
1.18312
20
0.0947528
11
1.17885
21
0.0968879
0
LINE
8
BLACK
6
CONTINUOUS
10
1.17885
20
0.0968879
11
1.16065
21
0.0968879
0
LINE
8
BLACK
6
CONTINUOUS
10
1.30904
20
0.108348
11
1.31037
21
0.108075
0
LINE
8
BLACK
6
CONTINUOUS
10
1.31037
20
0.108075
11
1.31674
21
0.104888
0
LINE
8
BLACK
6
CONTINUOUS
10
1.31674
20
0.104888
11
1.31745
21
0.104257
0
LINE
8
BLACK
6
CONTINUOUS
10
1.31745
20
0.104257
11
1.31827
21
0.103782
0
LINE
8
BLACK
6
CONTINUOUS
10
1.31827
20
0.103782
11
1.32146
21
0.100595
0
LINE
8
BLACK
6
CONTINUOUS
10
1.32146
20
0.100595
11
1.32194
21
0.0997716
0
LINE
8
BLACK
6
CONTINUOUS
10
1.32194
20
0.0997716
11
1.32257
21
0.0990602
0
LINE
8
BLACK
6
CONTINUOUS
10
1.32257
20
0.0990602
11
1.32575
21
0.092686
0
LINE
8
BLACK
6
CONTINUOUS
10
1.32575
20
0.092686
11
1.32603
21
0.0913561
0
LINE
8
BLACK
6
CONTINUOUS
10
1.32603
20
0.0913561
11
1.32638
21
0.090045
0
LINE
8
BLACK
6
CONTINUOUS
10
1.32638
20
0.090045
11
1.32638
21
0.0836708
0
LINE
8
BLACK
6
CONTINUOUS
10
1.32638
20
0.0836708
11
1.32613
21
0.0827524
0
LINE
8
BLACK
6
CONTINUOUS
10
1.32613
20
0.0827524
11
1.32607
21
0.0818033
0
LINE
8
BLACK
6
CONTINUOUS
10
1.32607
20
0.0818033
11
1.32289
21
0.072242
0
LINE
8
BLACK
6
CONTINUOUS
10
1.32289
20
0.072242
11
1.32214
21
0.0711092
0
LINE
8
BLACK
6
CONTINUOUS
10
1.32214
20
0.0711092
11
1.32146
21
0.0699337
0
LINE
8
BLACK
6
CONTINUOUS
10
1.32146
20
0.0699337
11
1.2933
21
0.0417698
0
LINE
8
BLACK
6
CONTINUOUS
10
1.2933
20
0.0417698
11
1.32047
21
0.0417698
0
LINE
8
BLACK
6
CONTINUOUS
10
1.32047
20
0.0417698
11
1.32343
21
0.0409786
0
LINE
8
BLACK
6
CONTINUOUS
10
1.32343
20
0.0409786
11
1.32559
21
0.038817
0
LINE
8
BLACK
6
CONTINUOUS
10
1.32559
20
0.038817
11
1.32638
21
0.0358643
0
LINE
8
BLACK
6
CONTINUOUS
10
1.32638
20
0.0358643
11
1.32559
21
0.0329115
0
LINE
8
BLACK
6
CONTINUOUS
10
1.32559
20
0.0329115
11
1.32343
21
0.03075
0
LINE
8
BLACK
6
CONTINUOUS
10
1.32343
20
0.03075
11
1.32047
21
0.0299588
0
LINE
8
BLACK
6
CONTINUOUS
10
1.32047
20
0.0299588
11
1.27904
21
0.0299588
0
LINE
8
BLACK
6
CONTINUOUS
10
1.27904
20
0.0299588
11
1.27829
21
0.03016
0
LINE
8
BLACK
6
CONTINUOUS
10
1.27829
20
0.03016
11
1.27751
21
0.03016
0
LINE
8
BLACK
6
CONTINUOUS
10
1.27751
20
0.03016
11
1.27684
21
0.0305487
0
LINE
8
BLACK
6
CONTINUOUS
10
1.27684
20
0.0305487
11
1.27609
21
0.03075
0
LINE
8
BLACK
6
CONTINUOUS
10
1.27609
20
0.03075
11
1.27554
21
0.0312997
0
LINE
8
BLACK
6
CONTINUOUS
10
1.27554
20
0.0312997
11
1.27486
21
0.0316885
0
LINE
8
BLACK
6
CONTINUOUS
10
1.27486
20
0.0316885
11
1.27448
21
0.0323618
0
LINE
8
BLACK
6
CONTINUOUS
10
1.27448
20
0.0323618
11
1.27393
21
0.0329115
0
LINE
8
BLACK
6
CONTINUOUS
10
1.27393
20
0.0329115
11
1.27372
21
0.0336625
0
LINE
8
BLACK
6
CONTINUOUS
10
1.27372
20
0.0336625
11
1.27334
21
0.0343358
0
LINE
8
BLACK
6
CONTINUOUS
10
1.27334
20
0.0343358
11
1.27334
21
0.0351133
0
LINE
8
BLACK
6
CONTINUOUS
10
1.27334
20
0.0351133
11
1.27313
21
0.0358643
0
LINE
8
BLACK
6
CONTINUOUS
10
1.27313
20
0.0358643
11
1.27334
21
0.0366153
0
LINE
8
BLACK
6
CONTINUOUS
10
1.27334
20
0.0366153
11
1.27334
21
0.0373928
0
LINE
8
BLACK
6
CONTINUOUS
10
1.27334
20
0.0373928
11
1.27372
21
0.0380661
0
LINE
8
BLACK
6
CONTINUOUS
10
1.27372
20
0.0380661
11
1.27393
21
0.038817
0
LINE
8
BLACK
6
CONTINUOUS
10
1.27393
20
0.038817
11
1.27448
21
0.0393668
0
LINE
8
BLACK
6
CONTINUOUS
10
1.27448
20
0.0393668
11
1.27486
21
0.0400401
0
LINE
8
BLACK
6
CONTINUOUS
10
1.27486
20
0.0400401
11
1.31212
21
0.0772996
0
LINE
8
BLACK
6
CONTINUOUS
10
1.31212
20
0.0772996
11
1.31457
21
0.0846291
0
LINE
8
BLACK
6
CONTINUOUS
10
1.31457
20
0.0846291
11
1.31457
21
0.0886509
0
LINE
8
BLACK
6
CONTINUOUS
10
1.31457
20
0.0886509
11
1.31243
21
0.092921
0
LINE
8
BLACK
6
CONTINUOUS
10
1.31243
20
0.092921
11
1.3106
21
0.0947528
0
LINE
8
BLACK
6
CONTINUOUS
10
1.3106
20
0.0947528
11
1.30633
21
0.0968879
0
LINE
8
BLACK
6
CONTINUOUS
10
1.30633
20
0.0968879
11
1.29318
21
0.0968879
0
LINE
8
BLACK
6
CONTINUOUS
10
1.29318
20
0.0968879
11
1.28891
21
0.0947528
0
LINE
8
BLACK
6
CONTINUOUS
10
1.28891
20
0.0947528
11
1.2864
21
0.0922434
0
LINE
8
BLACK
6
CONTINUOUS
10
1.2864
20
0.0922434
11
1.28376
21
0.0907149
0
LINE
8
BLACK
6
CONTINUOUS
10
1.28376
20
0.0907149
11
1.2807
21
0.0907149
0
LINE
8
BLACK
6
CONTINUOUS
10
1.2807
20
0.0907149
11
1.27805
21
0.0922434
0
LINE
8
BLACK
6
CONTINUOUS
10
1.27805
20
0.0922434
11
1.27652
21
0.0948907
0
LINE
8
BLACK
6
CONTINUOUS
10
1.27652
20
0.0948907
11
1.27652
21
0.0979477
0
LINE
8
BLACK
6
CONTINUOUS
10
1.27652
20
0.0979477
11
1.27805
21
0.100595
0
LINE
8
BLACK
6
CONTINUOUS
10
1.27805
20
0.100595
11
1.28124
21
0.103782
0
LINE
8
BLACK
6
CONTINUOUS
10
1.28124
20
0.103782
11
1.28206
21
0.104258
0
LINE
8
BLACK
6
CONTINUOUS
10
1.28206
20
0.104258
11
1.28277
21
0.104888
0
LINE
8
BLACK
6
CONTINUOUS
10
1.28277
20
0.104888
11
1.28915
21
0.108075
0
LINE
8
BLACK
6
CONTINUOUS
10
1.28915
20
0.108075
11
1.29048
21
0.108348
0
LINE
8
BLACK
6
CONTINUOUS
10
1.29048
20
0.108348
11
1.29179
21
0.108699
0
LINE
8
BLACK
6
CONTINUOUS
10
1.29179
20
0.108699
11
1.30772
21
0.108699
0
LINE
8
BLACK
6
CONTINUOUS
10
1.30772
20
0.108699
11
1.30904
21
0.108348
0
LINE
8
BLACK
6
CONTINUOUS
10
1.12901
20
0.107908
11
1.13117
21
0.105746
0
LINE
8
BLACK
6
CONTINUOUS
10
1.13117
20
0.105746
11
1.13196
21
0.102793
0
LINE
8
BLACK
6
CONTINUOUS
10
1.13196
20
0.102793
11
1.13117
21
0.0998407
0
LINE
8
BLACK
6
CONTINUOUS
10
1.13117
20
0.0998407
11
1.12901
21
0.0976791
0
LINE
8
BLACK
6
CONTINUOUS
10
1.12901
20
0.0976791
11
1.12606
21
0.0968879
0
LINE
8
BLACK
6
CONTINUOUS
10
1.12606
20
0.0968879
11
1.10009
21
0.0968879
0
LINE
8
BLACK
6
CONTINUOUS
10
1.10009
20
0.0968879
11
1.10009
21
0.0768279
0
LINE
8
BLACK
6
CONTINUOUS
10
1.10009
20
0.0768279
11
1.1165
21
0.0768279
0
LINE
8
BLACK
6
CONTINUOUS
10
1.1165
20
0.0768279
11
1.11945
21
0.0760367
0
LINE
8
BLACK
6
CONTINUOUS
10
1.11945
20
0.0760367
11
1.12161
21
0.0738752
0
LINE
8
BLACK
6
CONTINUOUS
10
1.12161
20
0.0738752
11
1.1224
21
0.0709224
0
LINE
8
BLACK
6
CONTINUOUS
10
1.1224
20
0.0709224
11
1.12161
21
0.0679696
0
LINE
8
BLACK
6
CONTINUOUS
10
1.12161
20
0.0679696
11
1.11945
21
0.0658081
0
LINE
8
BLACK
6
CONTINUOUS
10
1.11945
20
0.0658081
11
1.1165
21
0.0650169
0
LINE
8
BLACK
6
CONTINUOUS
10
1.1165
20
0.0650169
11
1.10009
21
0.0650169
0
LINE
8
BLACK
6
CONTINUOUS
10
1.10009
20
0.0650169
11
1.10009
21
0.0417698
0
LINE
8
BLACK
6
CONTINUOUS
10
1.10009
20
0.0417698
11
1.12606
21
0.0417698
0
LINE
8
BLACK
6
CONTINUOUS
10
1.12606
20
0.0417698
11
1.12901
21
0.0409786
0
LINE
8
BLACK
6
CONTINUOUS
10
1.12901
20
0.0409786
11
1.13117
21
0.038817
0
LINE
8
BLACK
6
CONTINUOUS
10
1.13117
20
0.038817
11
1.13196
21
0.0358643
0
LINE
8
BLACK
6
CONTINUOUS
10
1.13196
20
0.0358643
11
1.13117
21
0.0329115
0
LINE
8
BLACK
6
CONTINUOUS
10
1.13117
20
0.0329115
11
1.12901
21
0.03075
0
LINE
8
BLACK
6
CONTINUOUS
10
1.12901
20
0.03075
11
1.12606
21
0.0299588
0
LINE
8
BLACK
6
CONTINUOUS
10
1.12606
20
0.0299588
11
1.09419
21
0.0299588
0
LINE
8
BLACK
6
CONTINUOUS
10
1.09419
20
0.0299588
11
1.09124
21
0.03075
0
LINE
8
BLACK
6
CONTINUOUS
10
1.09124
20
0.03075
11
1.08907
21
0.0329115
0
LINE
8
BLACK
6
CONTINUOUS
10
1.08907
20
0.0329115
11
1.08828
21
0.0358643
0
LINE
8
BLACK
6
CONTINUOUS
10
1.08828
20
0.0358643
11
1.08828
21
0.102793
0
LINE
8
BLACK
6
CONTINUOUS
10
1.08828
20
0.102793
11
1.08907
21
0.105746
0
LINE
8
BLACK
6
CONTINUOUS
10
1.08907
20
0.105746
11
1.09124
21
0.107908
0
LINE
8
BLACK
6
CONTINUOUS
10
1.09124
20
0.107908
11
1.09419
21
0.108699
0
LINE
8
BLACK
6
CONTINUOUS
10
1.09419
20
0.108699
11
1.12606
21
0.108699
0
LINE
8
BLACK
6
CONTINUOUS
10
1.12606
20
0.108699
11
1.12901
21
0.107908
0
LINE
8
BLACK
6
CONTINUOUS
10
1.04411
20
0.108453
11
1.04506
21
0.108396
0
LINE
8
BLACK
6
CONTINUOUS
10
1.04506
20
0.108396
11
1.05462
21
0.105209
0
LINE
8
BLACK
6
CONTINUOUS
10
1.05462
20
0.105209
11
1.05576
21
0.104461
0
LINE
8
BLACK
6
CONTINUOUS
10
1.05576
20
0.104461
11
1.05693
21
0.103782
0
LINE
8
BLACK
6
CONTINUOUS
10
1.05693
20
0.103782
11
1.06331
21
0.097408
0
LINE
8
BLACK
6
CONTINUOUS
10
1.06331
20
0.097408
11
1.06378
21
0.0965845
0
LINE
8
BLACK
6
CONTINUOUS
10
1.06378
20
0.0965845
11
1.06441
21
0.0958731
0
LINE
8
BLACK
6
CONTINUOUS
10
1.06441
20
0.0958731
11
1.0676
21
0.0894989
0
LINE
8
BLACK
6
CONTINUOUS
10
1.0676
20
0.0894989
11
1.06773
21
0.0888602
0
LINE
8
BLACK
6
CONTINUOUS
10
1.06773
20
0.0888602
11
1.06805
21
0.0882902
0
LINE
8
BLACK
6
CONTINUOUS
10
1.06805
20
0.0882902
11
1.07123
21
0.0755418
0
LINE
8
BLACK
6
CONTINUOUS
10
1.07123
20
0.0755418
11
1.07122
21
0.0748132
0
LINE
8
BLACK
6
CONTINUOUS
10
1.07122
20
0.0748132
11
1.07141
21
0.0741095
0
LINE
8
BLACK
6
CONTINUOUS
10
1.07141
20
0.0741095
11
1.07141
21
0.0645482
0
LINE
8
BLACK
6
CONTINUOUS
10
1.07141
20
0.0645482
11
1.07122
21
0.0638444
0
LINE
8
BLACK
6
CONTINUOUS
10
1.07122
20
0.0638444
11
1.07123
21
0.0631159
0
LINE
8
BLACK
6
CONTINUOUS
10
1.07123
20
0.0631159
11
1.06805
21
0.0503675
0
LINE
8
BLACK
6
CONTINUOUS
10
1.06805
20
0.0503675
11
1.06773
21
0.0497976
0
LINE
8
BLACK
6
CONTINUOUS
10
1.06773
20
0.0497976
11
1.0676
21
0.0491588
0
LINE
8
BLACK
6
CONTINUOUS
10
1.0676
20
0.0491588
11
1.06441
21
0.0427846
0
LINE
8
BLACK
6
CONTINUOUS
10
1.06441
20
0.0427846
11
1.06378
21
0.0420732
0
LINE
8
BLACK
6
CONTINUOUS
10
1.06378
20
0.0420732
11
1.06331
21
0.0412498
0
LINE
8
BLACK
6
CONTINUOUS
10
1.06331
20
0.0412498
11
1.05693
21
0.0348756
0
LINE
8
BLACK
6
CONTINUOUS
10
1.05693
20
0.0348756
11
1.05576
21
0.0341969
0
LINE
8
BLACK
6
CONTINUOUS
10
1.05576
20
0.0341969
11
1.05462
21
0.0334489
0
LINE
8
BLACK
6
CONTINUOUS
10
1.05462
20
0.0334489
11
1.04506
21
0.0302618
0
LINE
8
BLACK
6
CONTINUOUS
10
1.04506
20
0.0302618
11
1.04411
21
0.0302048
0
LINE
8
BLACK
6
CONTINUOUS
10
1.04411
20
0.0302048
11
1.04319
21
0.0299588
0
LINE
8
BLACK
6
CONTINUOUS
10
1.04319
20
0.0299588
11
1.02726
21
0.0299588
0
LINE
8
BLACK
6
CONTINUOUS
10
1.02726
20
0.0299588
11
1.02431
21
0.03075
0
LINE
8
BLACK
6
CONTINUOUS
10
1.02431
20
0.03075
11
1.02214
21
0.0329115
0
LINE
8
BLACK
6
CONTINUOUS
10
1.02214
20
0.0329115
11
1.02135
21
0.0358643
0
LINE
8
BLACK
6
CONTINUOUS
10
1.02135
20
0.0358643
11
1.02135
21
0.102793
0
LINE
8
BLACK
6
CONTINUOUS
10
1.02135
20
0.102793
11
1.02214
21
0.105746
0
LINE
8
BLACK
6
CONTINUOUS
10
1.02214
20
0.105746
11
1.02431
21
0.107908
0
LINE
8
BLACK
6
CONTINUOUS
10
1.02431
20
0.107908
11
1.02726
21
0.108699
0
LINE
8
BLACK
6
CONTINUOUS
10
1.02726
20
0.108699
11
1.04319
21
0.108699
0
LINE
8
BLACK
6
CONTINUOUS
10
1.04319
20
0.108699
11
1.04411
21
0.108453
0
LINE
8
BLACK
6
CONTINUOUS
10
1.03316
20
0.0968879
11
1.03316
21
0.0417698
0
LINE
8
BLACK
6
CONTINUOUS
10
1.03316
20
0.0417698
11
1.04224
21
0.0417698
0
LINE
8
BLACK
6
CONTINUOUS
10
1.04224
20
0.0417698
11
1.04957
21
0.044213
0
LINE
8
BLACK
6
CONTINUOUS
10
1.04957
20
0.044213
11
1.05428
21
0.0489238
0
LINE
8
BLACK
6
CONTINUOUS
10
1.05428
20
0.0489238
11
1.05675
21
0.0538611
0
LINE
8
BLACK
6
CONTINUOUS
10
1.05675
20
0.0538611
11
1.0596
21
0.0652752
0
LINE
8
BLACK
6
CONTINUOUS
10
1.0596
20
0.0652752
11
1.0596
21
0.0733825
0
LINE
8
BLACK
6
CONTINUOUS
10
1.0596
20
0.0733825
11
1.05675
21
0.0847966
0
LINE
8
BLACK
6
CONTINUOUS
10
1.05675
20
0.0847966
11
1.05428
21
0.0897339
0
LINE
8
BLACK
6
CONTINUOUS
10
1.05428
20
0.0897339
11
1.04957
21
0.0944447
0
LINE
8
BLACK
6
CONTINUOUS
10
1.04957
20
0.0944447
11
1.04224
21
0.0968879
0
LINE
8
BLACK
6
CONTINUOUS
10
1.04224
20
0.0968879
11
1.03316
21
0.0968879
0
LINE
8
BLACK
6
CONTINUOUS
10
0.976031
20
0.107908
11
0.978193
21
0.105746
0
LINE
8
BLACK
6
CONTINUOUS
10
0.978193
20
0.105746
11
0.978984
21
0.102793
0
LINE
8
BLACK
6
CONTINUOUS
10
0.978984
20
0.102793
11
0.978984
21
0.0417698
0
LINE
8
BLACK
6
CONTINUOUS
10
0.978984
20
0.0417698
11
1.00495
21
0.0417698
0
LINE
8
BLACK
6
CONTINUOUS
10
1.00495
20
0.0417698
11
1.0079
21
0.0409786
0
LINE
8
BLACK
6
CONTINUOUS
10
1.0079
20
0.0409786
11
1.01006
21
0.038817
0
LINE
8
BLACK
6
CONTINUOUS
10
1.01006
20
0.038817
11
1.01085
21
0.0358643
0
LINE
8
BLACK
6
CONTINUOUS
10
1.01085
20
0.0358643
11
1.01006
21
0.0329115
0
LINE
8
BLACK
6
CONTINUOUS
10
1.01006
20
0.0329115
11
1.0079
21
0.03075
0
LINE
8
BLACK
6
CONTINUOUS
10
1.0079
20
0.03075
11
1.00495
21
0.0299588
0
LINE
8
BLACK
6
CONTINUOUS
10
1.00495
20
0.0299588
11
0.973078
21
0.0299588
0
LINE
8
BLACK
6
CONTINUOUS
10
0.973078
20
0.0299588
11
0.970126
21
0.03075
0
LINE
8
BLACK
6
CONTINUOUS
10
0.970126
20
0.03075
11
0.967964
21
0.0329115
0
LINE
8
BLACK
6
CONTINUOUS
10
0.967964
20
0.0329115
11
0.967173
21
0.0358643
0
LINE
8
BLACK
6
CONTINUOUS
10
0.967173
20
0.0358643
11
0.967173
21
0.102793
0
LINE
8
BLACK
6
CONTINUOUS
10
0.967173
20
0.102793
11
0.967964
21
0.105746
0
LINE
8
BLACK
6
CONTINUOUS
10
0.967964
20
0.105746
11
0.970126
21
0.107908
0
LINE
8
BLACK
6
CONTINUOUS
10
0.970126
20
0.107908
11
0.973078
21
0.108699
0
LINE
8
BLACK
6
CONTINUOUS
10
0.973078
20
0.108699
11
0.976031
21
0.107908
0
LINE
8
BLACK
6
CONTINUOUS
10
0.92977
20
0.108348
11
0.9311
21
0.108075
0
LINE
8
BLACK
6
CONTINUOUS
10
0.9311
20
0.108075
11
0.937474
21
0.104888
0
LINE
8
BLACK
6
CONTINUOUS
10
0.937474
20
0.104888
11
0.938186
21
0.104257
0
LINE
8
BLACK
6
CONTINUOUS
10
0.938186
20
0.104257
11
0.939009
21
0.103782
0
LINE
8
BLACK
6
CONTINUOUS
10
0.939009
20
0.103782
11
0.945383
21
0.097408
0
LINE
8
BLACK
6
CONTINUOUS
10
0.945383
20
0.097408
11
0.945409
21
0.0973635
0
LINE
8
BLACK
6
CONTINUOUS
10
0.945409
20
0.0973635
11
0.945453
21
0.0973371
0
LINE
8
BLACK
6
CONTINUOUS
10
0.945453
20
0.0973371
11
0.946171
21
0.0960429
0
LINE
8
BLACK
6
CONTINUOUS
10
0.946171
20
0.0960429
11
0.946912
21
0.0947606
0
LINE
8
BLACK
6
CONTINUOUS
10
0.946912
20
0.0947606
11
0.946912
21
0.0947093
0
LINE
8
BLACK
6
CONTINUOUS
10
0.946912
20
0.0947093
11
0.946936
21
0.0946644
0
LINE
8
BLACK
6
CONTINUOUS
10
0.946936
20
0.0946644
11
0.950124
21
0.081916
0
LINE
8
BLACK
6
CONTINUOUS
10
0.950124
20
0.081916
11
0.950111
21
0.0811875
0
LINE
8
BLACK
6
CONTINUOUS
10
0.950111
20
0.0811875
11
0.9503
21
0.0804837
0
LINE
8
BLACK
6
CONTINUOUS
10
0.9503
20
0.0804837
11
0.9503
21
0.058174
0
LINE
8
BLACK
6
CONTINUOUS
10
0.9503
20
0.058174
11
0.950111
21
0.0574702
0
LINE
8
BLACK
6
CONTINUOUS
10
0.950111
20
0.0574702
11
0.950124
21
0.0567417
0
LINE
8
BLACK
6
CONTINUOUS
10
0.950124
20
0.0567417
11
0.946936
21
0.0439933
0
LINE
8
BLACK
6
CONTINUOUS
10
0.946936
20
0.0439933
11
0.946912
21
0.0439485
0
LINE
8
BLACK
6
CONTINUOUS
10
0.946912
20
0.0439485
11
0.946912
21
0.0438971
0
LINE
8
BLACK
6
CONTINUOUS
10
0.946912
20
0.0438971
11
0.946171
21
0.0426148
0
LINE
8
BLACK
6
CONTINUOUS
10
0.946171
20
0.0426148
11
0.945453
21
0.0413206
0
LINE
8
BLACK
6
CONTINUOUS
10
0.945453
20
0.0413206
11
0.945409
21
0.0412942
0
LINE
8
BLACK
6
CONTINUOUS
10
0.945409
20
0.0412942
11
0.945383
21
0.0412498
0
LINE
8
BLACK
6
CONTINUOUS
10
0.945383
20
0.0412498
11
0.939009
21
0.0348756
0
LINE
8
BLACK
6
CONTINUOUS
10
0.939009
20
0.0348756
11
0.938186
21
0.0344002
0
LINE
8
BLACK
6
CONTINUOUS
10
0.938186
20
0.0344002
11
0.937474
21
0.0337693
0
LINE
8
BLACK
6
CONTINUOUS
10
0.937474
20
0.0337693
11
0.9311
21
0.0305822
0
LINE
8
BLACK
6
CONTINUOUS
10
0.9311
20
0.0305822
11
0.92977
21
0.0303101
0
LINE
8
BLACK
6
CONTINUOUS
10
0.92977
20
0.0303101
11
0.928459
21
0.0299588
0
LINE
8
BLACK
6
CONTINUOUS
10
0.928459
20
0.0299588
11
0.915711
21
0.0299588
0
LINE
8
BLACK
6
CONTINUOUS
10
0.915711
20
0.0299588
11
0.914399
21
0.0303101
0
LINE
8
BLACK
6
CONTINUOUS
10
0.914399
20
0.0303101
11
0.913069
21
0.0305822
0
LINE
8
BLACK
6
CONTINUOUS
10
0.913069
20
0.0305822
11
0.906695
21
0.0337693
0
LINE
8
BLACK
6
CONTINUOUS
10
0.906695
20
0.0337693
11
0.905984
21
0.0344002
0
LINE
8
BLACK
6
CONTINUOUS
10
0.905984
20
0.0344002
11
0.90516
21
0.0348756
0
LINE
8
BLACK
6
CONTINUOUS
10
0.90516
20
0.0348756
11
0.898786
21
0.0412498
0
LINE
8
BLACK
6
CONTINUOUS
10
0.898786
20
0.0412498
11
0.898761
21
0.0412942
0
LINE
8
BLACK
6
CONTINUOUS
10
0.898761
20
0.0412942
11
0.898717
21
0.0413206
0
LINE
8
BLACK
6
CONTINUOUS
10
0.898717
20
0.0413206
11
0.897998
21
0.0426148
0
LINE
8
BLACK
6
CONTINUOUS
10
0.897998
20
0.0426148
11
0.897258
21
0.0438971
0
LINE
8
BLACK
6
CONTINUOUS
10
0.897258
20
0.0438971
11
0.897258
21
0.0439485
0
LINE
8
BLACK
6
CONTINUOUS
10
0.897258
20
0.0439485
11
0.897233
21
0.0439933
0
LINE
8
BLACK
6
CONTINUOUS
10
0.897233
20
0.0439933
11
0.894046
21
0.0567417
0
LINE
8
BLACK
6
CONTINUOUS
10
0.894046
20
0.0567417
11
0.894058
21
0.0574702
0
LINE
8
BLACK
6
CONTINUOUS
10
0.894058
20
0.0574702
11
0.893869
21
0.058174
0
LINE
8
BLACK
6
CONTINUOUS
10
0.893869
20
0.058174
11
0.893869
21
0.0804837
0
LINE
8
BLACK
6
CONTINUOUS
10
0.893869
20
0.0804837
11
0.894058
21
0.0811875
0
LINE
8
BLACK
6
CONTINUOUS
10
0.894058
20
0.0811875
11
0.894046
21
0.081916
0
LINE
8
BLACK
6
CONTINUOUS
10
0.894046
20
0.081916
11
0.897233
21
0.0946644
0
LINE
8
BLACK
6
CONTINUOUS
10
0.897233
20
0.0946644
11
0.897258
21
0.0947093
0
LINE
8
BLACK
6
CONTINUOUS
10
0.897258
20
0.0947093
11
0.897258
21
0.0947606
0
LINE
8
BLACK
6
CONTINUOUS
10
0.897258
20
0.0947606
11
0.897998
21
0.0960429
0
LINE
8
BLACK
6
CONTINUOUS
10
0.897998
20
0.0960429
11
0.898717
21
0.0973371
0
LINE
8
BLACK
6
CONTINUOUS
10
0.898717
20
0.0973371
11
0.898761
21
0.0973635
0
LINE
8
BLACK
6
CONTINUOUS
10
0.898761
20
0.0973635
11
0.898786
21
0.097408
0
LINE
8
BLACK
6
CONTINUOUS
10
0.898786
20
0.097408
11
0.90516
21
0.103782
0
LINE
8
BLACK
6
CONTINUOUS
10
0.90516
20
0.103782
11
0.905984
21
0.104258
0
LINE
8
BLACK
6
CONTINUOUS
10
0.905984
20
0.104258
11
0.906695
21
0.104888
0
LINE
8
BLACK
6
CONTINUOUS
10
0.906695
20
0.104888
11
0.913069
21
0.108075
0
LINE
8
BLACK
6
CONTINUOUS
10
0.913069
20
0.108075
11
0.914399
21
0.108348
0
LINE
8
BLACK
6
CONTINUOUS
10
0.914399
20
0.108348
11
0.915711
21
0.108699
0
LINE
8
BLACK
6
CONTINUOUS
10
0.915711
20
0.108699
11
0.928459
21
0.108699
0
LINE
8
BLACK
6
CONTINUOUS
10
0.928459
20
0.108699
11
0.92977
21
0.108348
0
LINE
8
BLACK
6
CONTINUOUS
10
0.917105
20
0.0968879
11
0.912834
21
0.0947528
0
LINE
8
BLACK
6
CONTINUOUS
10
0.912834
20
0.0947528
11
0.908295
21
0.0902129
0
LINE
8
BLACK
6
CONTINUOUS
10
0.908295
20
0.0902129
11
0.905681
21
0.0797567
0
LINE
8
BLACK
6
CONTINUOUS
10
0.905681
20
0.0797567
11
0.905681
21
0.058901
0
LINE
8
BLACK
6
CONTINUOUS
10
0.905681
20
0.058901
11
0.908295
21
0.0484448
0
LINE
8
BLACK
6
CONTINUOUS
10
0.908295
20
0.0484448
11
0.912834
21
0.0439048
0
LINE
8
BLACK
6
CONTINUOUS
10
0.912834
20
0.0439048
11
0.917105
21
0.0417698
0
LINE
8
BLACK
6
CONTINUOUS
10
0.917105
20
0.0417698
11
0.927065
21
0.0417698
0
LINE
8
BLACK
6
CONTINUOUS
10
0.927065
20
0.0417698
11
0.931335
21
0.0439048
0
LINE
8
BLACK
6
CONTINUOUS
10
0.931335
20
0.0439048
11
0.935875
21
0.0484448
0
LINE
8
BLACK
6
CONTINUOUS
10
0.935875
20
0.0484448
11
0.938489
21
0.058901
0
LINE
8
BLACK
6
CONTINUOUS
10
0.938489
20
0.058901
11
0.938489
21
0.0797567
0
LINE
8
BLACK
6
CONTINUOUS
10
0.938489
20
0.0797567
11
0.935875
21
0.0902129
0
LINE
8
BLACK
6
CONTINUOUS
10
0.935875
20
0.0902129
11
0.931335
21
0.0947528
0
LINE
8
BLACK
6
CONTINUOUS
10
0.931335
20
0.0947528
11
0.927065
21
0.0968879
0
LINE
8
BLACK
6
CONTINUOUS
10
0.927065
20
0.0968879
11
0.917105
21
0.0968879
0
LINE
8
BLACK
6
CONTINUOUS
10
1.36341
20
0.108418
11
1.36377
21
0.108396
0
LINE
8
BLACK
6
CONTINUOUS
10
1.36377
20
0.108396
11
1.36476
21
0.107743
0
LINE
8
BLACK
6
CONTINUOUS
10
1.36476
20
0.107743
11
1.36582
21
0.107212
0
LINE
8
BLACK
6
CONTINUOUS
10
1.36582
20
0.107212
11
1.36602
21
0.106911
0
LINE
8
BLACK
6
CONTINUOUS
10
1.36602
20
0.106911
11
1.36632
21
0.106712
0
LINE
8
BLACK
6
CONTINUOUS
10
1.36632
20
0.106712
11
1.36685
21
0.105651
0
LINE
8
BLACK
6
CONTINUOUS
10
1.36685
20
0.105651
11
1.36751
21
0.104661
0
LINE
8
BLACK
6
CONTINUOUS
10
1.36751
20
0.104661
11
1.38982
21
0.0377318
0
LINE
8
BLACK
6
CONTINUOUS
10
1.38982
20
0.0377318
11
1.39
21
0.0346804
0
LINE
8
BLACK
6
CONTINUOUS
10
1.39
20
0.0346804
11
1.38863
21
0.0319462
0
LINE
8
BLACK
6
CONTINUOUS
10
1.38863
20
0.0319462
11
1.38608
21
0.0302619
0
LINE
8
BLACK
6
CONTINUOUS
10
1.38608
20
0.0302619
11
1.38303
21
0.0300787
0
LINE
8
BLACK
6
CONTINUOUS
10
1.38303
20
0.0300787
11
1.3803
21
0.0314458
0
LINE
8
BLACK
6
CONTINUOUS
10
1.3803
20
0.0314458
11
1.37861
21
0.0339968
0
LINE
8
BLACK
6
CONTINUOUS
10
1.37861
20
0.0339968
11
1.37358
21
0.0490814
0
LINE
8
BLACK
6
CONTINUOUS
10
1.37358
20
0.0490814
11
1.35023
21
0.0490814
0
LINE
8
BLACK
6
CONTINUOUS
10
1.35023
20
0.0490814
11
1.3452
21
0.0339968
0
LINE
8
BLACK
6
CONTINUOUS
10
1.3452
20
0.0339968
11
1.34351
21
0.0314458
0
LINE
8
BLACK
6
CONTINUOUS
10
1.34351
20
0.0314458
11
1.34078
21
0.0300787
0
LINE
8
BLACK
6
CONTINUOUS
10
1.34078
20
0.0300787
11
1.33773
21
0.0302618
0
LINE
8
BLACK
6
CONTINUOUS
10
1.33773
20
0.0302618
11
1.33518
21
0.0319461
0
LINE
8
BLACK
6
CONTINUOUS
10
1.33518
20
0.0319461
11
1.33381
21
0.0346804
0
LINE
8
BLACK
6
CONTINUOUS
10
1.33381
20
0.0346804
11
1.33399
21
0.0377318
0
LINE
8
BLACK
6
CONTINUOUS
10
1.33399
20
0.0377318
11
1.3563
21
0.104661
0
LINE
8
BLACK
6
CONTINUOUS
10
1.3563
20
0.104661
11
1.35696
21
0.105651
0
LINE
8
BLACK
6
CONTINUOUS
10
1.35696
20
0.105651
11
1.35749
21
0.106712
0
LINE
8
BLACK
6
CONTINUOUS
10
1.35749
20
0.106712
11
1.35779
21
0.106911
0
LINE
8
BLACK
6
CONTINUOUS
10
1.35779
20
0.106911
11
1.35799
21
0.107212
0
LINE
8
BLACK
6
CONTINUOUS
10
1.35799
20
0.107212
11
1.35905
21
0.107742
0
LINE
8
BLACK
6
CONTINUOUS
10
1.35905
20
0.107742
11
1.36004
21
0.108396
0
LINE
8
BLACK
6
CONTINUOUS
10
1.36004
20
0.108396
11
1.3604
21
0.108418
0
LINE
8
BLACK
6
CONTINUOUS
10
1.3604
20
0.108418
11
1.36072
21
0.108579
0
LINE
8
BLACK
6
CONTINUOUS
10
1.36072
20
0.108579
11
1.3619
21
0.108508
0
LINE
8
BLACK
6
CONTINUOUS
10
1.3619
20
0.108508
11
1.36309
21
0.108579
0
LINE
8
BLACK
6
CONTINUOUS
10
1.36309
20
0.108579
11
1.36341
21
0.108418
0
LINE
8
BLACK
6
CONTINUOUS
10
1.35416
20
0.0608924
11
1.36965
21
0.0608924
0
LINE
8
BLACK
6
CONTINUOUS
10
1.36965
20
0.0608924
11
1.3619
21
0.0841186
0
LINE
8
BLACK
6
CONTINUOUS
10
1.3619
20
0.0841186
11
1.35416
21
0.0608924
0
LINE
8
BLACK
6
CONTINUOUS
10
0.466656
20
0.0503662
11
0.467407
21
0.050165
0
LINE
8
BLACK
6
CONTINUOUS
10
0.467407
20
0.050165
11
0.467957
21
0.0496152
0
LINE
8
BLACK
6
CONTINUOUS
10
0.467957
20
0.0496152
11
0.46863
21
0.0492265
0
LINE
8
BLACK
6
CONTINUOUS
10
0.46863
20
0.0492265
11
0.471442
21
0.0464144
0
LINE
8
BLACK
6
CONTINUOUS
10
0.471442
20
0.0464144
11
0.471442
21
0.0464143
0
LINE
8
BLACK
6
CONTINUOUS
10
0.471442
20
0.0464143
11
0.471442
21
0.0464143
0
LINE
8
BLACK
6
CONTINUOUS
10
0.471442
20
0.0464143
11
0.471611
21
0.046122
0
LINE
8
BLACK
6
CONTINUOUS
10
0.471611
20
0.046122
11
0.472971
21
0.043767
0
LINE
8
BLACK
6
CONTINUOUS
10
0.472971
20
0.043767
11
0.472971
21
0.04071
0
LINE
8
BLACK
6
CONTINUOUS
10
0.472971
20
0.04071
11
0.472329
21
0.0395974
0
LINE
8
BLACK
6
CONTINUOUS
10
0.472329
20
0.0395974
11
0.471809
21
0.0386976
0
LINE
8
BLACK
6
CONTINUOUS
10
0.471809
20
0.0386976
11
0.471442
21
0.0380627
0
LINE
8
BLACK
6
CONTINUOUS
10
0.471442
20
0.0380627
11
0.46863
21
0.0352505
0
LINE
8
BLACK
6
CONTINUOUS
10
0.46863
20
0.0352505
11
0.467957
21
0.0348618
0
LINE
8
BLACK
6
CONTINUOUS
10
0.467957
20
0.0348618
11
0.467407
21
0.034312
0
LINE
8
BLACK
6
CONTINUOUS
10
0.467407
20
0.034312
11
0.466656
21
0.0341108
0
LINE
8
BLACK
6
CONTINUOUS
10
0.466656
20
0.0341108
11
0.465983
21
0.033722
0
LINE
8
BLACK
6
CONTINUOUS
10
0.465983
20
0.033722
11
0.465205
21
0.033722
0
LINE
8
BLACK
6
CONTINUOUS
10
0.465205
20
0.033722
11
0.464454
21
0.0335208
0
LINE
8
BLACK
6
CONTINUOUS
10
0.464454
20
0.0335208
11
0.463703
21
0.033722
0
LINE
8
BLACK
6
CONTINUOUS
10
0.463703
20
0.033722
11
0.462926
21
0.033722
0
LINE
8
BLACK
6
CONTINUOUS
10
0.462926
20
0.033722
11
0.462253
21
0.0341108
0
LINE
8
BLACK
6
CONTINUOUS
10
0.462253
20
0.0341108
11
0.461502
21
0.034312
0
LINE
8
BLACK
6
CONTINUOUS
10
0.461502
20
0.034312
11
0.460952
21
0.0348618
0
LINE
8
BLACK
6
CONTINUOUS
10
0.460952
20
0.0348618
11
0.460928
21
0.0348756
0
LINE
8
BLACK
6
CONTINUOUS
10
0.460928
20
0.0348756
11
0.460279
21
0.0352505
0
LINE
8
BLACK
6
CONTINUOUS
10
0.460279
20
0.0352505
11
0.460279
21
0.0352506
0
LINE
8
BLACK
6
CONTINUOUS
10
0.460279
20
0.0352506
11
0.457466
21
0.0380627
0
LINE
8
BLACK
6
CONTINUOUS
10
0.457466
20
0.0380627
11
0.45658
21
0.0395974
0
LINE
8
BLACK
6
CONTINUOUS
10
0.45658
20
0.0395974
11
0.455938
21
0.04071
0
LINE
8
BLACK
6
CONTINUOUS
10
0.455938
20
0.04071
11
0.455938
21
0.043767
0
LINE
8
BLACK
6
CONTINUOUS
10
0.455938
20
0.043767
11
0.457298
21
0.046122
0
LINE
8
BLACK
6
CONTINUOUS
10
0.457298
20
0.046122
11
0.457466
21
0.0464143
0
LINE
8
BLACK
6
CONTINUOUS
10
0.457466
20
0.0464143
11
0.460279
21
0.0492265
0
LINE
8
BLACK
6
CONTINUOUS
10
0.460279
20
0.0492265
11
0.460952
21
0.0496152
0
LINE
8
BLACK
6
CONTINUOUS
10
0.460952
20
0.0496152
11
0.461502
21
0.050165
0
LINE
8
BLACK
6
CONTINUOUS
10
0.461502
20
0.050165
11
0.462253
21
0.0503662
0
LINE
8
BLACK
6
CONTINUOUS
10
0.462253
20
0.0503662
11
0.462926
21
0.0507549
0
LINE
8
BLACK
6
CONTINUOUS
10
0.462926
20
0.0507549
11
0.463703
21
0.0507549
0
LINE
8
BLACK
6
CONTINUOUS
10
0.463703
20
0.0507549
11
0.464454
21
0.0509561
0
LINE
8
BLACK
6
CONTINUOUS
10
0.464454
20
0.0509561
11
0.465205
21
0.0507549
0
LINE
8
BLACK
6
CONTINUOUS
10
0.465205
20
0.0507549
11
0.465983
21
0.0507549
0
LINE
8
BLACK
6
CONTINUOUS
10
0.465983
20
0.0507549
11
0.466656
21
0.0503662
0
LINE
8
BLACK
6
CONTINUOUS
10
0.280089
20
0.104056
11
0.28135
21
0.103833
0
LINE
8
BLACK
6
CONTINUOUS
10
0.28135
20
0.103833
11
0.281551
21
0.103664
0
LINE
8
BLACK
6
CONTINUOUS
10
0.281551
20
0.103664
11
0.281805
21
0.103596
0
LINE
8
BLACK
6
CONTINUOUS
10
0.281805
20
0.103596
11
0.282711
21
0.102691
0
LINE
8
BLACK
6
CONTINUOUS
10
0.282711
20
0.102691
11
0.283691
21
0.101867
0
LINE
8
BLACK
6
CONTINUOUS
10
0.283691
20
0.101867
11
0.283781
21
0.10162
0
LINE
8
BLACK
6
CONTINUOUS
10
0.283781
20
0.10162
11
0.283967
21
0.101434
0
LINE
8
BLACK
6
CONTINUOUS
10
0.283967
20
0.101434
11
0.284298
21
0.100198
0
LINE
8
BLACK
6
CONTINUOUS
10
0.284298
20
0.100198
11
0.284736
21
0.0989944
0
LINE
8
BLACK
6
CONTINUOUS
10
0.284736
20
0.0989944
11
0.28469
21
0.0987355
0
LINE
8
BLACK
6
CONTINUOUS
10
0.28469
20
0.0987355
11
0.284758
21
0.0984815
0
LINE
8
BLACK
6
CONTINUOUS
10
0.284758
20
0.0984815
11
0.284758
21
0.0394263
0
LINE
8
BLACK
6
CONTINUOUS
10
0.284758
20
0.0394263
11
0.283967
21
0.0364736
0
LINE
8
BLACK
6
CONTINUOUS
10
0.283967
20
0.0364736
11
0.281805
21
0.034312
0
LINE
8
BLACK
6
CONTINUOUS
10
0.281805
20
0.034312
11
0.278853
21
0.0335208
0
LINE
8
BLACK
6
CONTINUOUS
10
0.278853
20
0.0335208
11
0.2759
21
0.034312
0
LINE
8
BLACK
6
CONTINUOUS
10
0.2759
20
0.034312
11
0.273738
21
0.0364736
0
LINE
8
BLACK
6
CONTINUOUS
10
0.273738
20
0.0364736
11
0.272947
21
0.0394263
0
LINE
8
BLACK
6
CONTINUOUS
10
0.272947
20
0.0394263
11
0.272947
21
0.071862
0
LINE
8
BLACK
6
CONTINUOUS
10
0.272947
20
0.071862
11
0.264519
21
0.0538019
0
LINE
8
BLACK
6
CONTINUOUS
10
0.264519
20
0.0538019
11
0.264184
21
0.053403
0
LINE
8
BLACK
6
CONTINUOUS
10
0.264184
20
0.053403
11
0.264006
21
0.0529133
0
LINE
8
BLACK
6
CONTINUOUS
10
0.264006
20
0.0529133
11
0.263216
21
0.0522502
0
LINE
8
BLACK
6
CONTINUOUS
10
0.263216
20
0.0522502
11
0.262553
21
0.0514607
0
LINE
8
BLACK
6
CONTINUOUS
10
0.262553
20
0.0514607
11
0.262064
21
0.0512827
0
LINE
8
BLACK
6
CONTINUOUS
10
0.262064
20
0.0512827
11
0.261665
21
0.0509477
0
LINE
8
BLACK
6
CONTINUOUS
10
0.261665
20
0.0509477
11
0.260649
21
0.0507683
0
LINE
8
BLACK
6
CONTINUOUS
10
0.260649
20
0.0507683
11
0.259681
21
0.050416
0
LINE
8
BLACK
6
CONTINUOUS
10
0.259681
20
0.050416
11
0.259168
21
0.0505066
0
LINE
8
BLACK
6
CONTINUOUS
10
0.259168
20
0.0505066
11
0.258655
21
0.050416
0
LINE
8
BLACK
6
CONTINUOUS
10
0.258655
20
0.050416
11
0.257685
21
0.0507684
0
LINE
8
BLACK
6
CONTINUOUS
10
0.257685
20
0.0507684
11
0.25667
21
0.0509478
0
LINE
8
BLACK
6
CONTINUOUS
10
0.25667
20
0.0509478
11
0.256271
21
0.0512826
0
LINE
8
BLACK
6
CONTINUOUS
10
0.256271
20
0.0512826
11
0.255782
21
0.0514607
0
LINE
8
BLACK
6
CONTINUOUS
10
0.255782
20
0.0514607
11
0.255119
21
0.0522504
0
LINE
8
BLACK
6
CONTINUOUS
10
0.255119
20
0.0522504
11
0.254329
21
0.0529134
0
LINE
8
BLACK
6
CONTINUOUS
10
0.254329
20
0.0529134
11
0.254151
21
0.0534029
0
LINE
8
BLACK
6
CONTINUOUS
10
0.254151
20
0.0534029
11
0.253816
21
0.0538019
0
LINE
8
BLACK
6
CONTINUOUS
10
0.253816
20
0.0538019
11
0.245388
21
0.071862
0
LINE
8
BLACK
6
CONTINUOUS
10
0.245388
20
0.071862
11
0.245388
21
0.0394263
0
LINE
8
BLACK
6
CONTINUOUS
10
0.245388
20
0.0394263
11
0.244597
21
0.0364736
0
LINE
8
BLACK
6
CONTINUOUS
10
0.244597
20
0.0364736
11
0.242435
21
0.034312
0
LINE
8
BLACK
6
CONTINUOUS
10
0.242435
20
0.034312
11
0.239483
21
0.0335208
0
LINE
8
BLACK
6
CONTINUOUS
10
0.239483
20
0.0335208
11
0.23653
21
0.034312
0
LINE
8
BLACK
6
CONTINUOUS
10
0.23653
20
0.034312
11
0.234368
21
0.0364736
0
LINE
8
BLACK
6
CONTINUOUS
10
0.234368
20
0.0364736
11
0.233577
21
0.0394263
0
LINE
8
BLACK
6
CONTINUOUS
10
0.233577
20
0.0394263
11
0.233577
21
0.0984815
0
LINE
8
BLACK
6
CONTINUOUS
10
0.233577
20
0.0984815
11
0.233645
21
0.0987355
0
LINE
8
BLACK
6
CONTINUOUS
10
0.233645
20
0.0987355
11
0.233599
21
0.0989944
0
LINE
8
BLACK
6
CONTINUOUS
10
0.233599
20
0.0989944
11
0.234037
21
0.100197
0
LINE
8
BLACK
6
CONTINUOUS
10
0.234037
20
0.100197
11
0.234368
21
0.101434
0
LINE
8
BLACK
6
CONTINUOUS
10
0.234368
20
0.101434
11
0.234554
21
0.10162
0
LINE
8
BLACK
6
CONTINUOUS
10
0.234554
20
0.10162
11
0.234644
21
0.101867
0
LINE
8
BLACK
6
CONTINUOUS
10
0.234644
20
0.101867
11
0.235624
21
0.10269
0
LINE
8
BLACK
6
CONTINUOUS
10
0.235624
20
0.10269
11
0.23653
21
0.103596
0
LINE
8
BLACK
6
CONTINUOUS
10
0.23653
20
0.103596
11
0.236784
21
0.103664
0
LINE
8
BLACK
6
CONTINUOUS
10
0.236784
20
0.103664
11
0.236985
21
0.103833
0
LINE
8
BLACK
6
CONTINUOUS
10
0.236985
20
0.103833
11
0.238246
21
0.104056
0
LINE
8
BLACK
6
CONTINUOUS
10
0.238246
20
0.104056
11
0.239483
21
0.104387
0
LINE
8
BLACK
6
CONTINUOUS
10
0.239483
20
0.104387
11
0.239737
21
0.104319
0
LINE
8
BLACK
6
CONTINUOUS
10
0.239737
20
0.104319
11
0.239996
21
0.104365
0
LINE
8
BLACK
6
CONTINUOUS
10
0.239996
20
0.104365
11
0.241199
21
0.103927
0
LINE
8
BLACK
6
CONTINUOUS
10
0.241199
20
0.103927
11
0.242435
21
0.103596
0
LINE
8
BLACK
6
CONTINUOUS
10
0.242435
20
0.103596
11
0.242621
21
0.10341
0
LINE
8
BLACK
6
CONTINUOUS
10
0.242621
20
0.10341
11
0.242868
21
0.10332
0
LINE
8
BLACK
6
CONTINUOUS
10
0.242868
20
0.10332
11
0.243691
21
0.10234
0
LINE
8
BLACK
6
CONTINUOUS
10
0.243691
20
0.10234
11
0.244597
21
0.101434
0
LINE
8
BLACK
6
CONTINUOUS
10
0.244597
20
0.101434
11
0.244665
21
0.10118
0
LINE
8
BLACK
6
CONTINUOUS
10
0.244665
20
0.10118
11
0.244834
21
0.100979
0
LINE
8
BLACK
6
CONTINUOUS
10
0.244834
20
0.100979
11
0.259168
21
0.070264
0
LINE
8
BLACK
6
CONTINUOUS
10
0.259168
20
0.070264
11
0.273501
21
0.100979
0
LINE
8
BLACK
6
CONTINUOUS
10
0.273501
20
0.100979
11
0.27367
21
0.10118
0
LINE
8
BLACK
6
CONTINUOUS
10
0.27367
20
0.10118
11
0.273738
21
0.101434
0
LINE
8
BLACK
6
CONTINUOUS
10
0.273738
20
0.101434
11
0.274644
21
0.102339
0
LINE
8
BLACK
6
CONTINUOUS
10
0.274644
20
0.102339
11
0.275467
21
0.10332
0
LINE
8
BLACK
6
CONTINUOUS
10
0.275467
20
0.10332
11
0.275714
21
0.10341
0
LINE
8
BLACK
6
CONTINUOUS
10
0.275714
20
0.10341
11
0.2759
21
0.103596
0
LINE
8
BLACK
6
CONTINUOUS
10
0.2759
20
0.103596
11
0.277136
21
0.103927
0
LINE
8
BLACK
6
CONTINUOUS
10
0.277136
20
0.103927
11
0.27834
21
0.104365
0
LINE
8
BLACK
6
CONTINUOUS
10
0.27834
20
0.104365
11
0.278599
21
0.104319
0
LINE
8
BLACK
6
CONTINUOUS
10
0.278599
20
0.104319
11
0.278853
21
0.104387
0
LINE
8
BLACK
6
CONTINUOUS
10
0.278853
20
0.104387
11
0.280089
21
0.104056
0
LINE
8
BLACK
6
CONTINUOUS
10
0.309927
20
0.103596
11
0.312088
21
0.101434
0
LINE
8
BLACK
6
CONTINUOUS
10
0.312088
20
0.101434
11
0.31288
21
0.0984815
0
LINE
8
BLACK
6
CONTINUOUS
10
0.31288
20
0.0984815
11
0.31288
21
0.0453319
0
LINE
8
BLACK
6
CONTINUOUS
10
0.31288
20
0.0453319
11
0.335096
21
0.0453319
0
LINE
8
BLACK
6
CONTINUOUS
10
0.335096
20
0.0453319
11
0.338048
21
0.0445407
0
LINE
8
BLACK
6
CONTINUOUS
10
0.338048
20
0.0445407
11
0.34021
21
0.0423791
0
LINE
8
BLACK
6
CONTINUOUS
10
0.34021
20
0.0423791
11
0.340698
21
0.040559
0
LINE
8
BLACK
6
CONTINUOUS
10
0.340698
20
0.040559
11
0.340742
21
0.0412938
0
LINE
8
BLACK
6
CONTINUOUS
10
0.340742
20
0.0412938
11
0.360427
21
0.100349
0
LINE
8
BLACK
6
CONTINUOUS
10
0.360427
20
0.100349
11
0.36108
21
0.101339
0
LINE
8
BLACK
6
CONTINUOUS
10
0.36108
20
0.101339
11
0.361611
21
0.1024
0
LINE
8
BLACK
6
CONTINUOUS
10
0.361611
20
0.1024
11
0.361912
21
0.102599
0
LINE
8
BLACK
6
CONTINUOUS
10
0.361912
20
0.102599
11
0.362111
21
0.1029
0
LINE
8
BLACK
6
CONTINUOUS
10
0.362111
20
0.1029
11
0.363172
21
0.103431
0
LINE
8
BLACK
6
CONTINUOUS
10
0.363172
20
0.103431
11
0.364162
21
0.104084
0
LINE
8
BLACK
6
CONTINUOUS
10
0.364162
20
0.104084
11
0.364522
21
0.104106
0
LINE
8
BLACK
6
CONTINUOUS
10
0.364522
20
0.104106
11
0.364845
21
0.104267
0
LINE
8
BLACK
6
CONTINUOUS
10
0.364845
20
0.104267
11
0.366029
21
0.104196
0
LINE
8
BLACK
6
CONTINUOUS
10
0.366029
20
0.104196
11
0.367213
21
0.104267
0
LINE
8
BLACK
6
CONTINUOUS
10
0.367213
20
0.104267
11
0.367536
21
0.104106
0
LINE
8
BLACK
6
CONTINUOUS
10
0.367536
20
0.104106
11
0.367897
21
0.104084
0
LINE
8
BLACK
6
CONTINUOUS
10
0.367897
20
0.104084
11
0.368887
21
0.10343
0
LINE
8
BLACK
6
CONTINUOUS
10
0.368887
20
0.10343
11
0.369947
21
0.1029
0
LINE
8
BLACK
6
CONTINUOUS
10
0.369947
20
0.1029
11
0.370146
21
0.102599
0
LINE
8
BLACK
6
CONTINUOUS
10
0.370146
20
0.102599
11
0.370448
21
0.1024
0
LINE
8
BLACK
6
CONTINUOUS
10
0.370448
20
0.1024
11
0.370978
21
0.101339
0
LINE
8
BLACK
6
CONTINUOUS
10
0.370978
20
0.101339
11
0.371632
21
0.100349
0
LINE
8
BLACK
6
CONTINUOUS
10
0.371632
20
0.100349
11
0.391317
21
0.0412938
0
LINE
8
BLACK
6
CONTINUOUS
10
0.391317
20
0.0412938
11
0.3915
21
0.0382424
0
LINE
8
BLACK
6
CONTINUOUS
10
0.3915
20
0.0382424
11
0.390133
21
0.0355082
0
LINE
8
BLACK
6
CONTINUOUS
10
0.390133
20
0.0355082
11
0.387582
21
0.0338239
0
LINE
8
BLACK
6
CONTINUOUS
10
0.387582
20
0.0338239
11
0.38453
21
0.0336407
0
LINE
8
BLACK
6
CONTINUOUS
10
0.38453
20
0.0336407
11
0.381796
21
0.0350078
0
LINE
8
BLACK
6
CONTINUOUS
10
0.381796
20
0.0350078
11
0.380112
21
0.0375589
0
LINE
8
BLACK
6
CONTINUOUS
10
0.380112
20
0.0375589
11
0.375834
21
0.0503937
0
LINE
8
BLACK
6
CONTINUOUS
10
0.375834
20
0.0503937
11
0.356225
21
0.0503937
0
LINE
8
BLACK
6
CONTINUOUS
10
0.356225
20
0.0503937
11
0.351947
21
0.0375589
0
LINE
8
BLACK
6
CONTINUOUS
10
0.351947
20
0.0375589
11
0.350262
21
0.0350078
0
LINE
8
BLACK
6
CONTINUOUS
10
0.350262
20
0.0350078
11
0.347528
21
0.0336407
0
LINE
8
BLACK
6
CONTINUOUS
10
0.347528
20
0.0336407
11
0.344477
21
0.0338239
0
LINE
8
BLACK
6
CONTINUOUS
10
0.344477
20
0.0338239
11
0.341926
21
0.0355082
0
LINE
8
BLACK
6
CONTINUOUS
10
0.341926
20
0.0355082
11
0.34064
21
0.0380792
0
LINE
8
BLACK
6
CONTINUOUS
10
0.34064
20
0.0380792
11
0.34021
21
0.0364736
0
LINE
8
BLACK
6
CONTINUOUS
10
0.34021
20
0.0364736
11
0.338048
21
0.034312
0
LINE
8
BLACK
6
CONTINUOUS
10
0.338048
20
0.034312
11
0.335096
21
0.0335208
0
LINE
8
BLACK
6
CONTINUOUS
10
0.335096
20
0.0335208
11
0.306974
21
0.0335208
0
LINE
8
BLACK
6
CONTINUOUS
10
0.306974
20
0.0335208
11
0.304021
21
0.034312
0
LINE
8
BLACK
6
CONTINUOUS
10
0.304021
20
0.034312
11
0.30186
21
0.0364736
0
LINE
8
BLACK
6
CONTINUOUS
10
0.30186
20
0.0364736
11
0.301069
21
0.0394263
0
LINE
8
BLACK
6
CONTINUOUS
10
0.301069
20
0.0394263
11
0.301069
21
0.0984815
0
LINE
8
BLACK
6
CONTINUOUS
10
0.301069
20
0.0984815
11
0.30186
21
0.101434
0
LINE
8
BLACK
6
CONTINUOUS
10
0.30186
20
0.101434
11
0.304021
21
0.103596
0
LINE
8
BLACK
6
CONTINUOUS
10
0.304021
20
0.103596
11
0.306974
21
0.104387
0
LINE
8
BLACK
6
CONTINUOUS
10
0.306974
20
0.104387
11
0.309927
21
0.103596
0
LINE
8
BLACK
6
CONTINUOUS
10
0.360162
20
0.0622047
11
0.371897
21
0.0622047
0
LINE
8
BLACK
6
CONTINUOUS
10
0.371897
20
0.0622047
11
0.366029
21
0.0798066
0
LINE
8
BLACK
6
CONTINUOUS
10
0.366029
20
0.0798066
11
0.360162
21
0.0622047
0
LINE
8
BLACK
6
CONTINUOUS
10
0.426395
20
0.104036
11
0.427725
21
0.103764
0
LINE
8
BLACK
6
CONTINUOUS
10
0.427725
20
0.103764
11
0.43335
21
0.100951
0
LINE
8
BLACK
6
CONTINUOUS
10
0.43335
20
0.100951
11
0.434061
21
0.100321
0
LINE
8
BLACK
6
CONTINUOUS
10
0.434061
20
0.100321
11
0.434884
21
0.0998451
0
LINE
8
BLACK
6
CONTINUOUS
10
0.434884
20
0.0998451
11
0.437697
21
0.097033
0
LINE
8
BLACK
6
CONTINUOUS
10
0.437697
20
0.097033
11
0.438172
21
0.0962096
0
LINE
8
BLACK
6
CONTINUOUS
10
0.438172
20
0.0962096
11
0.438803
21
0.0954982
0
LINE
8
BLACK
6
CONTINUOUS
10
0.438803
20
0.0954982
11
0.441615
21
0.0898739
0
LINE
8
BLACK
6
CONTINUOUS
10
0.441615
20
0.0898739
11
0.441887
21
0.0885439
0
LINE
8
BLACK
6
CONTINUOUS
10
0.441887
20
0.0885439
11
0.442238
21
0.0872329
0
LINE
8
BLACK
6
CONTINUOUS
10
0.442238
20
0.0872329
11
0.442238
21
0.0816086
0
LINE
8
BLACK
6
CONTINUOUS
10
0.442238
20
0.0816086
11
0.441887
21
0.0802975
0
LINE
8
BLACK
6
CONTINUOUS
10
0.441887
20
0.0802975
11
0.441615
21
0.0789676
0
LINE
8
BLACK
6
CONTINUOUS
10
0.441615
20
0.0789676
11
0.438803
21
0.0733432
0
LINE
8
BLACK
6
CONTINUOUS
10
0.438803
20
0.0733432
11
0.438172
21
0.0726318
0
LINE
8
BLACK
6
CONTINUOUS
10
0.438172
20
0.0726318
11
0.437697
21
0.0718084
0
LINE
8
BLACK
6
CONTINUOUS
10
0.437697
20
0.0718084
11
0.437643
21
0.0717547
0
LINE
8
BLACK
6
CONTINUOUS
10
0.437643
20
0.0717547
11
0.437697
21
0.0717237
0
LINE
8
BLACK
6
CONTINUOUS
10
0.437697
20
0.0717237
11
0.440509
21
0.0689115
0
LINE
8
BLACK
6
CONTINUOUS
10
0.440509
20
0.0689115
11
0.440984
21
0.0680881
0
LINE
8
BLACK
6
CONTINUOUS
10
0.440984
20
0.0680881
11
0.441615
21
0.0673767
0
LINE
8
BLACK
6
CONTINUOUS
10
0.441615
20
0.0673767
11
0.444427
21
0.0617524
0
LINE
8
BLACK
6
CONTINUOUS
10
0.444427
20
0.0617524
11
0.444699
21
0.0604226
0
LINE
8
BLACK
6
CONTINUOUS
10
0.444699
20
0.0604226
11
0.445051
21
0.0591114
0
LINE
8
BLACK
6
CONTINUOUS
10
0.445051
20
0.0591114
11
0.445051
21
0.0506749
0
LINE
8
BLACK
6
CONTINUOUS
10
0.445051
20
0.0506749
11
0.444699
21
0.0493637
0
LINE
8
BLACK
6
CONTINUOUS
10
0.444699
20
0.0493637
11
0.444427
21
0.0480339
0
LINE
8
BLACK
6
CONTINUOUS
10
0.444427
20
0.0480339
11
0.441615
21
0.0424096
0
LINE
8
BLACK
6
CONTINUOUS
10
0.441615
20
0.0424096
11
0.440984
21
0.0416982
0
LINE
8
BLACK
6
CONTINUOUS
10
0.440984
20
0.0416982
11
0.440509
21
0.0408748
0
LINE
8
BLACK
6
CONTINUOUS
10
0.440509
20
0.0408748
11
0.437697
21
0.0380626
0
LINE
8
BLACK
6
CONTINUOUS
10
0.437697
20
0.0380626
11
0.436873
21
0.0375872
0
LINE
8
BLACK
6
CONTINUOUS
10
0.436873
20
0.0375872
11
0.436162
21
0.0369565
0
LINE
8
BLACK
6
CONTINUOUS
10
0.436162
20
0.0369565
11
0.430538
21
0.0341443
0
LINE
8
BLACK
6
CONTINUOUS
10
0.430538
20
0.0341443
11
0.429208
21
0.0338721
0
LINE
8
BLACK
6
CONTINUOUS
10
0.429208
20
0.0338721
11
0.427896
21
0.0335208
0
LINE
8
BLACK
6
CONTINUOUS
10
0.427896
20
0.0335208
11
0.405399
21
0.0335208
0
LINE
8
BLACK
6
CONTINUOUS
10
0.405399
20
0.0335208
11
0.402447
21
0.034312
0
LINE
8
BLACK
6
CONTINUOUS
10
0.402447
20
0.034312
11
0.400285
21
0.0364736
0
LINE
8
BLACK
6
CONTINUOUS
10
0.400285
20
0.0364736
11
0.399494
21
0.0394263
0
LINE
8
BLACK
6
CONTINUOUS
10
0.399494
20
0.0394263
11
0.399494
21
0.0984815
0
LINE
8
BLACK
6
CONTINUOUS
10
0.399494
20
0.0984815
11
0.400285
21
0.101434
0
LINE
8
BLACK
6
CONTINUOUS
10
0.400285
20
0.101434
11
0.402447
21
0.103596
0
LINE
8
BLACK
6
CONTINUOUS
10
0.402447
20
0.103596
11
0.405399
21
0.104387
0
LINE
8
BLACK
6
CONTINUOUS
10
0.405399
20
0.104387
11
0.425084
21
0.104387
0
LINE
8
BLACK
6
CONTINUOUS
10
0.425084
20
0.104387
11
0.426395
21
0.104036
0
LINE
8
BLACK
6
CONTINUOUS
10
0.411305
20
0.0644544
11
0.411305
21
0.0453319
0
LINE
8
BLACK
6
CONTINUOUS
10
0.411305
20
0.0453319
11
0.426502
21
0.0453319
0
LINE
8
BLACK
6
CONTINUOUS
10
0.426502
20
0.0453319
11
0.430023
21
0.047092
0
LINE
8
BLACK
6
CONTINUOUS
10
0.430023
20
0.047092
11
0.431479
21
0.0485488
0
LINE
8
BLACK
6
CONTINUOUS
10
0.431479
20
0.0485488
11
0.43324
21
0.052069
0
LINE
8
BLACK
6
CONTINUOUS
10
0.43324
20
0.052069
11
0.43324
21
0.0577173
0
LINE
8
BLACK
6
CONTINUOUS
10
0.43324
20
0.0577173
11
0.431479
21
0.0612375
0
LINE
8
BLACK
6
CONTINUOUS
10
0.431479
20
0.0612375
11
0.430331
21
0.0623862
0
LINE
8
BLACK
6
CONTINUOUS
10
0.430331
20
0.0623862
11
0.424126
21
0.0644544
0
LINE
8
BLACK
6
CONTINUOUS
10
0.424126
20
0.0644544
11
0.411305
21
0.0644544
0
LINE
8
BLACK
6
CONTINUOUS
10
0.411305
20
0.0925759
11
0.411305
21
0.0762655
0
LINE
8
BLACK
6
CONTINUOUS
10
0.411305
20
0.0762655
11
0.42369
21
0.0762655
0
LINE
8
BLACK
6
CONTINUOUS
10
0.42369
20
0.0762655
11
0.42721
21
0.0780256
0
LINE
8
BLACK
6
CONTINUOUS
10
0.42721
20
0.0780256
11
0.428667
21
0.0794824
0
LINE
8
BLACK
6
CONTINUOUS
10
0.428667
20
0.0794824
11
0.430427
21
0.0830027
0
LINE
8
BLACK
6
CONTINUOUS
10
0.430427
20
0.0830027
11
0.430427
21
0.0858388
0
LINE
8
BLACK
6
CONTINUOUS
10
0.430427
20
0.0858388
11
0.428667
21
0.089359
0
LINE
8
BLACK
6
CONTINUOUS
10
0.428667
20
0.089359
11
0.42721
21
0.0908158
0
LINE
8
BLACK
6
CONTINUOUS
10
0.42721
20
0.0908158
11
0.42369
21
0.0925759
0
LINE
8
BLACK
6
CONTINUOUS
10
0.42369
20
0.0925759
11
0.411305
21
0.0925759
0
LINE
8
BLACK
6
CONTINUOUS
10
0.513572
20
0.0843506
11
0.514902
21
0.0840785
0
LINE
8
BLACK
6
CONTINUOUS
10
0.514902
20
0.0840785
11
0.520526
21
0.0812663
0
LINE
8
BLACK
6
CONTINUOUS
10
0.520526
20
0.0812663
11
0.522813
21
0.0792381
0
LINE
8
BLACK
6
CONTINUOUS
10
0.522813
20
0.0792381
11
0.52378
21
0.0763381
0
LINE
8
BLACK
6
CONTINUOUS
10
0.52378
20
0.0763381
11
0.523167
21
0.0733432
0
LINE
8
BLACK
6
CONTINUOUS
10
0.523167
20
0.0733432
11
0.521139
21
0.071056
0
LINE
8
BLACK
6
CONTINUOUS
10
0.521139
20
0.071056
11
0.518239
21
0.0700893
0
LINE
8
BLACK
6
CONTINUOUS
10
0.518239
20
0.0700893
11
0.515244
21
0.0707022
0
LINE
8
BLACK
6
CONTINUOUS
10
0.515244
20
0.0707022
11
0.510867
21
0.0728909
0
LINE
8
BLACK
6
CONTINUOUS
10
0.510867
20
0.0728909
11
0.502406
21
0.0728909
0
LINE
8
BLACK
6
CONTINUOUS
10
0.502406
20
0.0728909
11
0.498886
21
0.0711308
0
LINE
8
BLACK
6
CONTINUOUS
10
0.498886
20
0.0711308
11
0.497429
21
0.0696739
0
LINE
8
BLACK
6
CONTINUOUS
10
0.497429
20
0.0696739
11
0.495669
21
0.0661537
0
LINE
8
BLACK
6
CONTINUOUS
10
0.495669
20
0.0661537
11
0.495669
21
0.052069
0
LINE
8
BLACK
6
CONTINUOUS
10
0.495669
20
0.052069
11
0.497429
21
0.0485489
0
LINE
8
BLACK
6
CONTINUOUS
10
0.497429
20
0.0485489
11
0.498886
21
0.047092
0
LINE
8
BLACK
6
CONTINUOUS
10
0.498886
20
0.047092
11
0.502406
21
0.0453319
0
LINE
8
BLACK
6
CONTINUOUS
10
0.502406
20
0.0453319
11
0.510867
21
0.0453319
0
LINE
8
BLACK
6
CONTINUOUS
10
0.510867
20
0.0453319
11
0.515244
21
0.0475206
0
LINE
8
BLACK
6
CONTINUOUS
10
0.515244
20
0.0475206
11
0.518239
21
0.0481334
0
LINE
8
BLACK
6
CONTINUOUS
10
0.518239
20
0.0481334
11
0.521139
21
0.0471667
0
LINE
8
BLACK
6
CONTINUOUS
10
0.521139
20
0.0471667
11
0.523167
21
0.0448795
0
LINE
8
BLACK
6
CONTINUOUS
10
0.523167
20
0.0448795
11
0.52378
21
0.0418847
0
LINE
8
BLACK
6
CONTINUOUS
10
0.52378
20
0.0418847
11
0.522813
21
0.0389846
0
LINE
8
BLACK
6
CONTINUOUS
10
0.522813
20
0.0389846
11
0.520526
21
0.0369565
0
LINE
8
BLACK
6
CONTINUOUS
10
0.520526
20
0.0369565
11
0.514902
21
0.0341443
0
LINE
8
BLACK
6
CONTINUOUS
10
0.514902
20
0.0341443
11
0.513572
21
0.0338721
0
LINE
8
BLACK
6
CONTINUOUS
10
0.513572
20
0.0338721
11
0.512261
21
0.0335208
0
LINE
8
BLACK
6
CONTINUOUS
10
0.512261
20
0.0335208
11
0.501012
21
0.0335208
0
LINE
8
BLACK
6
CONTINUOUS
10
0.501012
20
0.0335208
11
0.499701
21
0.0338721
0
LINE
8
BLACK
6
CONTINUOUS
10
0.499701
20
0.0338721
11
0.498371
21
0.0341443
0
LINE
8
BLACK
6
CONTINUOUS
10
0.498371
20
0.0341443
11
0.492747
21
0.0369565
0
LINE
8
BLACK
6
CONTINUOUS
10
0.492747
20
0.0369565
11
0.492036
21
0.0375872
0
LINE
8
BLACK
6
CONTINUOUS
10
0.492036
20
0.0375872
11
0.491212
21
0.0380626
0
LINE
8
BLACK
6
CONTINUOUS
10
0.491212
20
0.0380626
11
0.4884
21
0.0408748
0
LINE
8
BLACK
6
CONTINUOUS
10
0.4884
20
0.0408748
11
0.487925
21
0.0416982
0
LINE
8
BLACK
6
CONTINUOUS
10
0.487925
20
0.0416982
11
0.487294
21
0.0424096
0
LINE
8
BLACK
6
CONTINUOUS
10
0.487294
20
0.0424096
11
0.484482
21
0.0480339
0
LINE
8
BLACK
6
CONTINUOUS
10
0.484482
20
0.0480339
11
0.48421
21
0.0493638
0
LINE
8
BLACK
6
CONTINUOUS
10
0.48421
20
0.0493638
11
0.483858
21
0.0506749
0
LINE
8
BLACK
6
CONTINUOUS
10
0.483858
20
0.0506749
11
0.483858
21
0.0675478
0
LINE
8
BLACK
6
CONTINUOUS
10
0.483858
20
0.0675478
11
0.48421
21
0.068859
0
LINE
8
BLACK
6
CONTINUOUS
10
0.48421
20
0.068859
11
0.484482
21
0.0701889
0
LINE
8
BLACK
6
CONTINUOUS
10
0.484482
20
0.0701889
11
0.487294
21
0.0758131
0
LINE
8
BLACK
6
CONTINUOUS
10
0.487294
20
0.0758131
11
0.487925
21
0.0765246
0
LINE
8
BLACK
6
CONTINUOUS
10
0.487925
20
0.0765246
11
0.4884
21
0.077348
0
LINE
8
BLACK
6
CONTINUOUS
10
0.4884
20
0.077348
11
0.491212
21
0.0801601
0
LINE
8
BLACK
6
CONTINUOUS
10
0.491212
20
0.0801601
11
0.492036
21
0.0806355
0
LINE
8
BLACK
6
CONTINUOUS
10
0.492036
20
0.0806355
11
0.492747
21
0.0812663
0
LINE
8
BLACK
6
CONTINUOUS
10
0.492747
20
0.0812663
11
0.498371
21
0.0840785
0
LINE
8
BLACK
6
CONTINUOUS
10
0.498371
20
0.0840785
11
0.499701
21
0.0843506
0
LINE
8
BLACK
6
CONTINUOUS
10
0.499701
20
0.0843506
11
0.501012
21
0.0847019
0
LINE
8
BLACK
6
CONTINUOUS
10
0.501012
20
0.0847019
11
0.512261
21
0.0847019
0
LINE
8
BLACK
6
CONTINUOUS
10
0.512261
20
0.0847019
11
0.513572
21
0.0843506
0
LINE
8
BLACK
6
CONTINUOUS
10
0.568917
20
0.0845912
11
0.569342
21
0.0846422
0
LINE
8
BLACK
6
CONTINUOUS
10
0.569342
20
0.0846422
11
0.570373
21
0.084201
0
LINE
8
BLACK
6
CONTINUOUS
10
0.570373
20
0.084201
11
0.571457
21
0.0839107
0
LINE
8
BLACK
6
CONTINUOUS
10
0.571457
20
0.0839107
11
0.571759
21
0.0836083
0
LINE
8
BLACK
6
CONTINUOUS
10
0.571759
20
0.0836083
11
0.572152
21
0.08344
0
LINE
8
BLACK
6
CONTINUOUS
10
0.572152
20
0.08344
11
0.572825
21
0.0825424
0
LINE
8
BLACK
6
CONTINUOUS
10
0.572825
20
0.0825424
11
0.573618
21
0.0817492
0
LINE
8
BLACK
6
CONTINUOUS
10
0.573618
20
0.0817492
11
0.573729
21
0.0813359
0
LINE
8
BLACK
6
CONTINUOUS
10
0.573729
20
0.0813359
11
0.573985
21
0.0809936
0
LINE
8
BLACK
6
CONTINUOUS
10
0.573985
20
0.0809936
11
0.574119
21
0.0798799
0
LINE
8
BLACK
6
CONTINUOUS
10
0.574119
20
0.0798799
11
0.574409
21
0.0787964
0
LINE
8
BLACK
6
CONTINUOUS
10
0.574409
20
0.0787964
11
0.574299
21
0.0783833
0
LINE
8
BLACK
6
CONTINUOUS
10
0.574299
20
0.0783833
11
0.57435
21
0.0779585
0
LINE
8
BLACK
6
CONTINUOUS
10
0.57435
20
0.0779585
11
0.573909
21
0.076927
0
LINE
8
BLACK
6
CONTINUOUS
10
0.573909
20
0.076927
11
0.573618
21
0.0758437
0
LINE
8
BLACK
6
CONTINUOUS
10
0.573618
20
0.0758437
11
0.573316
21
0.0755412
0
LINE
8
BLACK
6
CONTINUOUS
10
0.573316
20
0.0755412
11
0.573148
21
0.0751479
0
LINE
8
BLACK
6
CONTINUOUS
10
0.573148
20
0.0751479
11
0.549721
21
0.0453319
0
LINE
8
BLACK
6
CONTINUOUS
10
0.549721
20
0.0453319
11
0.568504
21
0.0453319
0
LINE
8
BLACK
6
CONTINUOUS
10
0.568504
20
0.0453319
11
0.571457
21
0.0445407
0
LINE
8
BLACK
6
CONTINUOUS
10
0.571457
20
0.0445407
11
0.573618
21
0.0423791
0
LINE
8
BLACK
6
CONTINUOUS
10
0.573618
20
0.0423791
11
0.574409
21
0.0394263
0
LINE
8
BLACK
6
CONTINUOUS
10
0.574409
20
0.0394263
11
0.573618
21
0.0364736
0
LINE
8
BLACK
6
CONTINUOUS
10
0.573618
20
0.0364736
11
0.571457
21
0.034312
0
LINE
8
BLACK
6
CONTINUOUS
10
0.571457
20
0.034312
11
0.568504
21
0.0335208
0
LINE
8
BLACK
6
CONTINUOUS
10
0.568504
20
0.0335208
11
0.53757
21
0.0335208
0
LINE
8
BLACK
6
CONTINUOUS
10
0.53757
20
0.0335208
11
0.537157
21
0.0336315
0
LINE
8
BLACK
6
CONTINUOUS
10
0.537157
20
0.0336315
11
0.536732
21
0.0335806
0
LINE
8
BLACK
6
CONTINUOUS
10
0.536732
20
0.0335806
11
0.535701
21
0.0340217
0
LINE
8
BLACK
6
CONTINUOUS
10
0.535701
20
0.0340217
11
0.534618
21
0.034312
0
LINE
8
BLACK
6
CONTINUOUS
10
0.534618
20
0.034312
11
0.534315
21
0.0346145
0
LINE
8
BLACK
6
CONTINUOUS
10
0.534315
20
0.0346145
11
0.533922
21
0.0347827
0
LINE
8
BLACK
6
CONTINUOUS
10
0.533922
20
0.0347827
11
0.533249
21
0.0356804
0
LINE
8
BLACK
6
CONTINUOUS
10
0.533249
20
0.0356804
11
0.532456
21
0.0364736
0
LINE
8
BLACK
6
CONTINUOUS
10
0.532456
20
0.0364736
11
0.532345
21
0.0368868
0
LINE
8
BLACK
6
CONTINUOUS
10
0.532345
20
0.0368868
11
0.532089
21
0.0372291
0
LINE
8
BLACK
6
CONTINUOUS
10
0.532089
20
0.0372291
11
0.531955
21
0.0383428
0
LINE
8
BLACK
6
CONTINUOUS
10
0.531955
20
0.0383428
11
0.531665
21
0.0394263
0
LINE
8
BLACK
6
CONTINUOUS
10
0.531665
20
0.0394263
11
0.531775
21
0.0398395
0
LINE
8
BLACK
6
CONTINUOUS
10
0.531775
20
0.0398395
11
0.531724
21
0.0402643
0
LINE
8
BLACK
6
CONTINUOUS
10
0.531724
20
0.0402643
11
0.532166
21
0.0412957
0
LINE
8
BLACK
6
CONTINUOUS
10
0.532166
20
0.0412957
11
0.532456
21
0.0423791
0
LINE
8
BLACK
6
CONTINUOUS
10
0.532456
20
0.0423791
11
0.532758
21
0.0426816
0
LINE
8
BLACK
6
CONTINUOUS
10
0.532758
20
0.0426816
11
0.532927
21
0.0430749
0
LINE
8
BLACK
6
CONTINUOUS
10
0.532927
20
0.0430749
11
0.556354
21
0.0728909
0
LINE
8
BLACK
6
CONTINUOUS
10
0.556354
20
0.0728909
11
0.53757
21
0.0728909
0
LINE
8
BLACK
6
CONTINUOUS
10
0.53757
20
0.0728909
11
0.534618
21
0.0736821
0
LINE
8
BLACK
6
CONTINUOUS
10
0.534618
20
0.0736821
11
0.532456
21
0.0758437
0
LINE
8
BLACK
6
CONTINUOUS
10
0.532456
20
0.0758437
11
0.531665
21
0.0787964
0
LINE
8
BLACK
6
CONTINUOUS
10
0.531665
20
0.0787964
11
0.532456
21
0.0817492
0
LINE
8
BLACK
6
CONTINUOUS
10
0.532456
20
0.0817492
11
0.534618
21
0.0839107
0
LINE
8
BLACK
6
CONTINUOUS
10
0.534618
20
0.0839107
11
0.53757
21
0.0847019
0
LINE
8
BLACK
6
CONTINUOUS
10
0.53757
20
0.0847019
11
0.568504
21
0.0847019
0
LINE
8
BLACK
6
CONTINUOUS
10
0.568504
20
0.0847019
11
0.568917
21
0.0845912
  0
ENDSEC
  0
EOF
