  0
SECTION
  2
HEADER
  9
$ANGBASE
  50
0.0
  9
$ANGDIR
  70
1
  9
$MEASUREMENT
  70
0
  0
ENDSEC
  0
SECTION
  2
TABLES
  0
TABLE
  2
LTYPE
  70
4
  0
LTYPE
  5
40F
  2
CONTINUOUS
  70
0
  3
Solid line
  72
65
  73
0
  40
0.0
  0
LTYPE
  5
410
  2
DASHDOT
 70
0
  3
Dash Dot ____ _ ____ _
 72
65
 73
4
 40
2.0
 49
1.25
 49
-0.25
 49
0.25
 49
-0.25
  0
LTYPE
  5
411
  2
DASHED
 70
0
  3
Dashed __ __ __ __ __
 72
65
 73
2
 40
0.75
 49
0.5
 49
-0.25
  0
LTYPE
  5
43B
  2
DOTTED
 70
0
  3
Dotted .  .  .  .
 72
65
 73
2
 40
0.2
 49
0.0
 49
-0.2
  0
ENDTAB
  0
TABLE
  2
STYLE
  70
4
  0
STYLE
  2
KICAD
  70
0
  40
0
  41
1
  42
1
  50
0
  71
0
  3
isocp.shx
  0
STYLE
  2
KICADB
  70
0
  40
0
  41
1
  42
1
  50
0
  71
0
  3
isocp.shx
  0
STYLE
  2
KICADI
  70
0
  40
0
  41
1
  42
1
  50
15
  71
0
  3
isocp.shx
  0
STYLE
  2
KICADBI
  70
0
  40
0
  41
1
  42
1
  50
15
  71
0
  3
isocp.shx
  0
ENDTAB
  0
TABLE
  2
LAYER
  70
1
  0
LAYER
  2
BLACK
  70
0
  62
7
  6
CONTINUOUS
  0
ENDTAB
  0
ENDSEC
  0
SECTION
  2
ENTITIES
0
LINE
8
BLACK
6
CONTINUOUS
10
-0.0739605
20
-2.08098
11
-0.0726995
21
-2.08121
0
LINE
8
BLACK
6
CONTINUOUS
10
-0.0726995
20
-2.08121
11
-0.0724981
21
-2.08138
0
LINE
8
BLACK
6
CONTINUOUS
10
-0.0724981
20
-2.08138
11
-0.0722441
21
-2.08144
0
LINE
8
BLACK
6
CONTINUOUS
10
-0.0722441
20
-2.08144
11
-0.0713389
21
-2.08235
0
LINE
8
BLACK
6
CONTINUOUS
10
-0.0713389
20
-2.08235
11
-0.0703583
21
-2.08317
0
LINE
8
BLACK
6
CONTINUOUS
10
-0.0703583
20
-2.08317
11
-0.0702685
21
-2.08342
0
LINE
8
BLACK
6
CONTINUOUS
10
-0.0702685
20
-2.08342
11
-0.0700825
21
-2.08361
0
LINE
8
BLACK
6
CONTINUOUS
10
-0.0700825
20
-2.08361
11
-0.0697512
21
-2.08484
0
LINE
8
BLACK
6
CONTINUOUS
10
-0.0697512
20
-2.08484
11
-0.0693137
21
-2.08604
0
LINE
8
BLACK
6
CONTINUOUS
10
-0.0693137
20
-2.08604
11
-0.0693594
21
-2.0863
0
LINE
8
BLACK
6
CONTINUOUS
10
-0.0693594
20
-2.0863
11
-0.0692913
21
-2.08656
0
LINE
8
BLACK
6
CONTINUOUS
10
-0.0692913
20
-2.08656
11
-0.0692913
21
-2.14561
0
LINE
8
BLACK
6
CONTINUOUS
10
-0.0692913
20
-2.14561
11
-0.0700825
21
-2.14857
0
LINE
8
BLACK
6
CONTINUOUS
10
-0.0700825
20
-2.14857
11
-0.0722441
21
-2.15073
0
LINE
8
BLACK
6
CONTINUOUS
10
-0.0722441
20
-2.15073
11
-0.0751969
21
-2.15152
0
LINE
8
BLACK
6
CONTINUOUS
10
-0.0751969
20
-2.15152
11
-0.0781496
21
-2.15073
0
LINE
8
BLACK
6
CONTINUOUS
10
-0.0781496
20
-2.15073
11
-0.0803112
21
-2.14857
0
LINE
8
BLACK
6
CONTINUOUS
10
-0.0803112
20
-2.14857
11
-0.0811024
21
-2.14561
0
LINE
8
BLACK
6
CONTINUOUS
10
-0.0811024
20
-2.14561
11
-0.0811024
21
-2.11318
0
LINE
8
BLACK
6
CONTINUOUS
10
-0.0811024
20
-2.11318
11
-0.0895304
21
-2.13124
0
LINE
8
BLACK
6
CONTINUOUS
10
-0.0895304
20
-2.13124
11
-0.0898654
21
-2.13164
0
LINE
8
BLACK
6
CONTINUOUS
10
-0.0898654
20
-2.13164
11
-0.0900434
21
-2.13213
0
LINE
8
BLACK
6
CONTINUOUS
10
-0.0900434
20
-2.13213
11
-0.0908331
21
-2.13279
0
LINE
8
BLACK
6
CONTINUOUS
10
-0.0908331
20
-2.13279
11
-0.0914961
21
-2.13358
0
LINE
8
BLACK
6
CONTINUOUS
10
-0.0914961
20
-2.13358
11
-0.0919855
21
-2.13376
0
LINE
8
BLACK
6
CONTINUOUS
10
-0.0919855
20
-2.13376
11
-0.0923845
21
-2.13409
0
LINE
8
BLACK
6
CONTINUOUS
10
-0.0923845
20
-2.13409
11
-0.0934001
21
-2.13427
0
LINE
8
BLACK
6
CONTINUOUS
10
-0.0934001
20
-2.13427
11
-0.0943689
21
-2.13462
0
LINE
8
BLACK
6
CONTINUOUS
10
-0.0943689
20
-2.13462
11
-0.0948818
21
-2.13453
0
LINE
8
BLACK
6
CONTINUOUS
10
-0.0948818
20
-2.13453
11
-0.0953948
21
-2.13462
0
LINE
8
BLACK
6
CONTINUOUS
10
-0.0953948
20
-2.13462
11
-0.0963641
21
-2.13427
0
LINE
8
BLACK
6
CONTINUOUS
10
-0.0963641
20
-2.13427
11
-0.0973793
21
-2.13409
0
LINE
8
BLACK
6
CONTINUOUS
10
-0.0973793
20
-2.13409
11
-0.0977781
21
-2.13376
0
LINE
8
BLACK
6
CONTINUOUS
10
-0.0977781
20
-2.13376
11
-0.0982677
21
-2.13358
0
LINE
8
BLACK
6
CONTINUOUS
10
-0.0982677
20
-2.13358
11
-0.0989308
21
-2.13279
0
LINE
8
BLACK
6
CONTINUOUS
10
-0.0989308
20
-2.13279
11
-0.0997204
21
-2.13213
0
LINE
8
BLACK
6
CONTINUOUS
10
-0.0997204
20
-2.13213
11
-0.0998984
21
-2.13164
0
LINE
8
BLACK
6
CONTINUOUS
10
-0.0998984
20
-2.13164
11
-0.100233
21
-2.13124
0
LINE
8
BLACK
6
CONTINUOUS
10
-0.100233
20
-2.13124
11
-0.108661
21
-2.11318
0
LINE
8
BLACK
6
CONTINUOUS
10
-0.108661
20
-2.11318
11
-0.108661
21
-2.14561
0
LINE
8
BLACK
6
CONTINUOUS
10
-0.108661
20
-2.14561
11
-0.109453
21
-2.14857
0
LINE
8
BLACK
6
CONTINUOUS
10
-0.109453
20
-2.14857
11
-0.111614
21
-2.15073
0
LINE
8
BLACK
6
CONTINUOUS
10
-0.111614
20
-2.15073
11
-0.114567
21
-2.15152
0
LINE
8
BLACK
6
CONTINUOUS
10
-0.114567
20
-2.15152
11
-0.11752
21
-2.15073
0
LINE
8
BLACK
6
CONTINUOUS
10
-0.11752
20
-2.15073
11
-0.119681
21
-2.14857
0
LINE
8
BLACK
6
CONTINUOUS
10
-0.119681
20
-2.14857
11
-0.120472
21
-2.14561
0
LINE
8
BLACK
6
CONTINUOUS
10
-0.120472
20
-2.14561
11
-0.120472
21
-2.08656
0
LINE
8
BLACK
6
CONTINUOUS
10
-0.120472
20
-2.08656
11
-0.120404
21
-2.0863
0
LINE
8
BLACK
6
CONTINUOUS
10
-0.120404
20
-2.0863
11
-0.12045
21
-2.08604
0
LINE
8
BLACK
6
CONTINUOUS
10
-0.12045
20
-2.08604
11
-0.120013
21
-2.08484
0
LINE
8
BLACK
6
CONTINUOUS
10
-0.120013
20
-2.08484
11
-0.119681
21
-2.08361
0
LINE
8
BLACK
6
CONTINUOUS
10
-0.119681
20
-2.08361
11
-0.119495
21
-2.08342
0
LINE
8
BLACK
6
CONTINUOUS
10
-0.119495
20
-2.08342
11
-0.119405
21
-2.08317
0
LINE
8
BLACK
6
CONTINUOUS
10
-0.119405
20
-2.08317
11
-0.118425
21
-2.08235
0
LINE
8
BLACK
6
CONTINUOUS
10
-0.118425
20
-2.08235
11
-0.11752
21
-2.08144
0
LINE
8
BLACK
6
CONTINUOUS
10
-0.11752
20
-2.08144
11
-0.117266
21
-2.08138
0
LINE
8
BLACK
6
CONTINUOUS
10
-0.117266
20
-2.08138
11
-0.117064
21
-2.08121
0
LINE
8
BLACK
6
CONTINUOUS
10
-0.117064
20
-2.08121
11
-0.115804
21
-2.08098
0
LINE
8
BLACK
6
CONTINUOUS
10
-0.115804
20
-2.08098
11
-0.114567
21
-2.08065
0
LINE
8
BLACK
6
CONTINUOUS
10
-0.114567
20
-2.08065
11
-0.114313
21
-2.08072
0
LINE
8
BLACK
6
CONTINUOUS
10
-0.114313
20
-2.08072
11
-0.114054
21
-2.08067
0
LINE
8
BLACK
6
CONTINUOUS
10
-0.114054
20
-2.08067
11
-0.112851
21
-2.08111
0
LINE
8
BLACK
6
CONTINUOUS
10
-0.112851
20
-2.08111
11
-0.111614
21
-2.08144
0
LINE
8
BLACK
6
CONTINUOUS
10
-0.111614
20
-2.08144
11
-0.111428
21
-2.08163
0
LINE
8
BLACK
6
CONTINUOUS
10
-0.111428
20
-2.08163
11
-0.111181
21
-2.08172
0
LINE
8
BLACK
6
CONTINUOUS
10
-0.111181
20
-2.08172
11
-0.110358
21
-2.0827
0
LINE
8
BLACK
6
CONTINUOUS
10
-0.110358
20
-2.0827
11
-0.109453
21
-2.08361
0
LINE
8
BLACK
6
CONTINUOUS
10
-0.109453
20
-2.08361
11
-0.109385
21
-2.08386
0
LINE
8
BLACK
6
CONTINUOUS
10
-0.109385
20
-2.08386
11
-0.109215
21
-2.08406
0
LINE
8
BLACK
6
CONTINUOUS
10
-0.109215
20
-2.08406
11
-0.0948819
21
-2.11478
0
LINE
8
BLACK
6
CONTINUOUS
10
-0.0948819
20
-2.11478
11
-0.0805483
21
-2.08406
0
LINE
8
BLACK
6
CONTINUOUS
10
-0.0805483
20
-2.08406
11
-0.0803793
21
-2.08386
0
LINE
8
BLACK
6
CONTINUOUS
10
-0.0803793
20
-2.08386
11
-0.0803112
21
-2.08361
0
LINE
8
BLACK
6
CONTINUOUS
10
-0.0803112
20
-2.08361
11
-0.0794059
21
-2.0827
0
LINE
8
BLACK
6
CONTINUOUS
10
-0.0794059
20
-2.0827
11
-0.0785827
21
-2.08172
0
LINE
8
BLACK
6
CONTINUOUS
10
-0.0785827
20
-2.08172
11
-0.0783355
21
-2.08163
0
LINE
8
BLACK
6
CONTINUOUS
10
-0.0783355
20
-2.08163
11
-0.0781496
21
-2.08144
0
LINE
8
BLACK
6
CONTINUOUS
10
-0.0781496
20
-2.08144
11
-0.0769133
21
-2.08111
0
LINE
8
BLACK
6
CONTINUOUS
10
-0.0769133
20
-2.08111
11
-0.0757098
21
-2.08067
0
LINE
8
BLACK
6
CONTINUOUS
10
-0.0757098
20
-2.08067
11
-0.0754508
21
-2.08072
0
LINE
8
BLACK
6
CONTINUOUS
10
-0.0754508
20
-2.08072
11
-0.0751969
21
-2.08065
0
LINE
8
BLACK
6
CONTINUOUS
10
-0.0751969
20
-2.08065
11
-0.0739605
21
-2.08098
0
LINE
8
BLACK
6
CONTINUOUS
10
-0.0441226
20
-2.08144
11
-0.0419611
21
-2.08361
0
LINE
8
BLACK
6
CONTINUOUS
10
-0.0419611
20
-2.08361
11
-0.0411699
21
-2.08656
0
LINE
8
BLACK
6
CONTINUOUS
10
-0.0411699
20
-2.08656
11
-0.0411699
21
-2.13971
0
LINE
8
BLACK
6
CONTINUOUS
10
-0.0411699
20
-2.13971
11
-0.0189539
21
-2.13971
0
LINE
8
BLACK
6
CONTINUOUS
10
-0.0189539
20
-2.13971
11
-0.0160011
21
-2.1405
0
LINE
8
BLACK
6
CONTINUOUS
10
-0.0160011
20
-2.1405
11
-0.0138396
21
-2.14266
0
LINE
8
BLACK
6
CONTINUOUS
10
-0.0138396
20
-2.14266
11
-0.0133519
21
-2.14448
0
LINE
8
BLACK
6
CONTINUOUS
10
-0.0133519
20
-2.14448
11
-0.0133078
21
-2.14375
0
LINE
8
BLACK
6
CONTINUOUS
10
-0.0133078
20
-2.14375
11
0.00637728
21
-2.08469
0
LINE
8
BLACK
6
CONTINUOUS
10
0.00637728
20
-2.08469
11
0.00703079
21
-2.0837
0
LINE
8
BLACK
6
CONTINUOUS
10
0.00703079
20
-2.0837
11
0.00756122
21
-2.08264
0
LINE
8
BLACK
6
CONTINUOUS
10
0.00756122
20
-2.08264
11
0.00786256
21
-2.08244
0
LINE
8
BLACK
6
CONTINUOUS
10
0.00786256
20
-2.08244
11
0.00806157
21
-2.08214
0
LINE
8
BLACK
6
CONTINUOUS
10
0.00806157
20
-2.08214
11
0.00912268
21
-2.08161
0
LINE
8
BLACK
6
CONTINUOUS
10
0.00912268
20
-2.08161
11
0.0101122
21
-2.08096
0
LINE
8
BLACK
6
CONTINUOUS
10
0.0101122
20
-2.08096
11
0.0104727
21
-2.08093
0
LINE
8
BLACK
6
CONTINUOUS
10
0.0104727
20
-2.08093
11
0.0107958
21
-2.08077
0
LINE
8
BLACK
6
CONTINUOUS
10
0.0107958
20
-2.08077
11
0.0119798
21
-2.08084
0
LINE
8
BLACK
6
CONTINUOUS
10
0.0119798
20
-2.08084
11
0.0131637
21
-2.08077
0
LINE
8
BLACK
6
CONTINUOUS
10
0.0131637
20
-2.08077
11
0.0134867
21
-2.08093
0
LINE
8
BLACK
6
CONTINUOUS
10
0.0134867
20
-2.08093
11
0.0138472
21
-2.08096
0
LINE
8
BLACK
6
CONTINUOUS
10
0.0138472
20
-2.08096
11
0.0148371
21
-2.08161
0
LINE
8
BLACK
6
CONTINUOUS
10
0.0148371
20
-2.08161
11
0.0158979
21
-2.08214
0
LINE
8
BLACK
6
CONTINUOUS
10
0.0158979
20
-2.08214
11
0.0160968
21
-2.08244
0
LINE
8
BLACK
6
CONTINUOUS
10
0.0160968
20
-2.08244
11
0.0163983
21
-2.08264
0
LINE
8
BLACK
6
CONTINUOUS
10
0.0163983
20
-2.08264
11
0.0169288
21
-2.0837
0
LINE
8
BLACK
6
CONTINUOUS
10
0.0169288
20
-2.0837
11
0.0175822
21
-2.08469
0
LINE
8
BLACK
6
CONTINUOUS
10
0.0175822
20
-2.08469
11
0.0372672
21
-2.14375
0
LINE
8
BLACK
6
CONTINUOUS
10
0.0372672
20
-2.14375
11
0.0374504
21
-2.1468
0
LINE
8
BLACK
6
CONTINUOUS
10
0.0374504
20
-2.1468
11
0.0360833
21
-2.14953
0
LINE
8
BLACK
6
CONTINUOUS
10
0.0360833
20
-2.14953
11
0.0335322
21
-2.15122
0
LINE
8
BLACK
6
CONTINUOUS
10
0.0335322
20
-2.15122
11
0.0304808
21
-2.1514
0
LINE
8
BLACK
6
CONTINUOUS
10
0.0304808
20
-2.1514
11
0.0277466
21
-2.15003
0
LINE
8
BLACK
6
CONTINUOUS
10
0.0277466
20
-2.15003
11
0.0260623
21
-2.14748
0
LINE
8
BLACK
6
CONTINUOUS
10
0.0260623
20
-2.14748
11
0.0217841
21
-2.13465
0
LINE
8
BLACK
6
CONTINUOUS
10
0.0217841
20
-2.13465
11
0.00217543
21
-2.13465
0
LINE
8
BLACK
6
CONTINUOUS
10
0.00217543
20
-2.13465
11
-0.00210287
21
-2.14748
0
LINE
8
BLACK
6
CONTINUOUS
10
-0.00210287
20
-2.14748
11
-0.00378717
21
-2.15003
0
LINE
8
BLACK
6
CONTINUOUS
10
-0.00378717
20
-2.15003
11
-0.00652138
21
-2.1514
0
LINE
8
BLACK
6
CONTINUOUS
10
-0.00652138
20
-2.1514
11
-0.0095728
21
-2.15122
0
LINE
8
BLACK
6
CONTINUOUS
10
-0.0095728
20
-2.15122
11
-0.0121238
21
-2.14953
0
LINE
8
BLACK
6
CONTINUOUS
10
-0.0121238
20
-2.14953
11
-0.0134093
21
-2.14696
0
LINE
8
BLACK
6
CONTINUOUS
10
-0.0134093
20
-2.14696
11
-0.0138396
21
-2.14857
0
LINE
8
BLACK
6
CONTINUOUS
10
-0.0138396
20
-2.14857
11
-0.0160011
21
-2.15073
0
LINE
8
BLACK
6
CONTINUOUS
10
-0.0160011
20
-2.15073
11
-0.0189539
21
-2.15152
0
LINE
8
BLACK
6
CONTINUOUS
10
-0.0189539
20
-2.15152
11
-0.0470754
21
-2.15152
0
LINE
8
BLACK
6
CONTINUOUS
10
-0.0470754
20
-2.15152
11
-0.0500281
21
-2.15073
0
LINE
8
BLACK
6
CONTINUOUS
10
-0.0500281
20
-2.15073
11
-0.0521897
21
-2.14857
0
LINE
8
BLACK
6
CONTINUOUS
10
-0.0521897
20
-2.14857
11
-0.0529809
21
-2.14561
0
LINE
8
BLACK
6
CONTINUOUS
10
-0.0529809
20
-2.14561
11
-0.0529809
21
-2.08656
0
LINE
8
BLACK
6
CONTINUOUS
10
-0.0529809
20
-2.08656
11
-0.0521897
21
-2.08361
0
LINE
8
BLACK
6
CONTINUOUS
10
-0.0521897
20
-2.08361
11
-0.0500281
21
-2.08144
0
LINE
8
BLACK
6
CONTINUOUS
10
-0.0500281
20
-2.08144
11
-0.0470754
21
-2.08065
0
LINE
8
BLACK
6
CONTINUOUS
10
-0.0470754
20
-2.08065
11
-0.0441226
21
-2.08144
0
LINE
8
BLACK
6
CONTINUOUS
10
0.00611244
20
-2.12283
11
0.017847
21
-2.12283
0
LINE
8
BLACK
6
CONTINUOUS
10
0.017847
20
-2.12283
11
0.0119797
21
-2.10523
0
LINE
8
BLACK
6
CONTINUOUS
10
0.0119797
20
-2.10523
11
0.00611244
21
-2.12283
0
LINE
8
BLACK
6
CONTINUOUS
10
0.0723459
20
-2.081
11
0.0736759
21
-2.08128
0
LINE
8
BLACK
6
CONTINUOUS
10
0.0736759
20
-2.08128
11
0.0793002
21
-2.08409
0
LINE
8
BLACK
6
CONTINUOUS
10
0.0793002
20
-2.08409
11
0.0800115
21
-2.08472
0
LINE
8
BLACK
6
CONTINUOUS
10
0.0800115
20
-2.08472
11
0.0808349
21
-2.08519
0
LINE
8
BLACK
6
CONTINUOUS
10
0.0808349
20
-2.08519
11
0.0836471
21
-2.08801
0
LINE
8
BLACK
6
CONTINUOUS
10
0.0836471
20
-2.08801
11
0.0841225
21
-2.08883
0
LINE
8
BLACK
6
CONTINUOUS
10
0.0841225
20
-2.08883
11
0.0847533
21
-2.08954
0
LINE
8
BLACK
6
CONTINUOUS
10
0.0847533
20
-2.08954
11
0.0875655
21
-2.09517
0
LINE
8
BLACK
6
CONTINUOUS
10
0.0875655
20
-2.09517
11
0.0878377
21
-2.0965
0
LINE
8
BLACK
6
CONTINUOUS
10
0.0878377
20
-2.0965
11
0.088189
21
-2.09781
0
LINE
8
BLACK
6
CONTINUOUS
10
0.088189
20
-2.09781
11
0.088189
21
-2.10343
0
LINE
8
BLACK
6
CONTINUOUS
10
0.088189
20
-2.10343
11
0.0878377
21
-2.10474
0
LINE
8
BLACK
6
CONTINUOUS
10
0.0878377
20
-2.10474
11
0.0875655
21
-2.10607
0
LINE
8
BLACK
6
CONTINUOUS
10
0.0875655
20
-2.10607
11
0.0847533
21
-2.1117
0
LINE
8
BLACK
6
CONTINUOUS
10
0.0847533
20
-2.1117
11
0.0841225
21
-2.11241
0
LINE
8
BLACK
6
CONTINUOUS
10
0.0841225
20
-2.11241
11
0.0836471
21
-2.11323
0
LINE
8
BLACK
6
CONTINUOUS
10
0.0836471
20
-2.11323
11
0.0835934
21
-2.11328
0
LINE
8
BLACK
6
CONTINUOUS
10
0.0835934
20
-2.11328
11
0.0836471
21
-2.11332
0
LINE
8
BLACK
6
CONTINUOUS
10
0.0836471
20
-2.11332
11
0.0864593
21
-2.11613
0
LINE
8
BLACK
6
CONTINUOUS
10
0.0864593
20
-2.11613
11
0.0869347
21
-2.11695
0
LINE
8
BLACK
6
CONTINUOUS
10
0.0869347
20
-2.11695
11
0.0875655
21
-2.11766
0
LINE
8
BLACK
6
CONTINUOUS
10
0.0875655
20
-2.11766
11
0.0903776
21
-2.12329
0
LINE
8
BLACK
6
CONTINUOUS
10
0.0903776
20
-2.12329
11
0.0906498
21
-2.12462
0
LINE
8
BLACK
6
CONTINUOUS
10
0.0906498
20
-2.12462
11
0.0910011
21
-2.12593
0
LINE
8
BLACK
6
CONTINUOUS
10
0.0910011
20
-2.12593
11
0.0910011
21
-2.13436
0
LINE
8
BLACK
6
CONTINUOUS
10
0.0910011
20
-2.13436
11
0.0906498
21
-2.13568
0
LINE
8
BLACK
6
CONTINUOUS
10
0.0906498
20
-2.13568
11
0.0903776
21
-2.13701
0
LINE
8
BLACK
6
CONTINUOUS
10
0.0903776
20
-2.13701
11
0.0875655
21
-2.14263
0
LINE
8
BLACK
6
CONTINUOUS
10
0.0875655
20
-2.14263
11
0.0869347
21
-2.14334
0
LINE
8
BLACK
6
CONTINUOUS
10
0.0869347
20
-2.14334
11
0.0864593
21
-2.14416
0
LINE
8
BLACK
6
CONTINUOUS
10
0.0864593
20
-2.14416
11
0.0836471
21
-2.14698
0
LINE
8
BLACK
6
CONTINUOUS
10
0.0836471
20
-2.14698
11
0.0828237
21
-2.14745
0
LINE
8
BLACK
6
CONTINUOUS
10
0.0828237
20
-2.14745
11
0.0821123
21
-2.14808
0
LINE
8
BLACK
6
CONTINUOUS
10
0.0821123
20
-2.14808
11
0.076488
21
-2.1509
0
LINE
8
BLACK
6
CONTINUOUS
10
0.076488
20
-2.1509
11
0.0751581
21
-2.15117
0
LINE
8
BLACK
6
CONTINUOUS
10
0.0751581
20
-2.15117
11
0.073847
21
-2.15152
0
LINE
8
BLACK
6
CONTINUOUS
10
0.073847
20
-2.15152
11
0.0513498
21
-2.15152
0
LINE
8
BLACK
6
CONTINUOUS
10
0.0513498
20
-2.15152
11
0.048397
21
-2.15073
0
LINE
8
BLACK
6
CONTINUOUS
10
0.048397
20
-2.15073
11
0.0462355
21
-2.14857
0
LINE
8
BLACK
6
CONTINUOUS
10
0.0462355
20
-2.14857
11
0.0454443
21
-2.14561
0
LINE
8
BLACK
6
CONTINUOUS
10
0.0454443
20
-2.14561
11
0.0454443
21
-2.08656
0
LINE
8
BLACK
6
CONTINUOUS
10
0.0454443
20
-2.08656
11
0.0462355
21
-2.08361
0
LINE
8
BLACK
6
CONTINUOUS
10
0.0462355
20
-2.08361
11
0.048397
21
-2.08144
0
LINE
8
BLACK
6
CONTINUOUS
10
0.048397
20
-2.08144
11
0.0513498
21
-2.08065
0
LINE
8
BLACK
6
CONTINUOUS
10
0.0513498
20
-2.08065
11
0.0710348
21
-2.08065
0
LINE
8
BLACK
6
CONTINUOUS
10
0.0710348
20
-2.08065
11
0.0723459
21
-2.081
0
LINE
8
BLACK
6
CONTINUOUS
10
0.0572553
20
-2.12058
11
0.0572553
21
-2.13971
0
LINE
8
BLACK
6
CONTINUOUS
10
0.0572553
20
-2.13971
11
0.0724529
21
-2.13971
0
LINE
8
BLACK
6
CONTINUOUS
10
0.0724529
20
-2.13971
11
0.0759731
21
-2.13795
0
LINE
8
BLACK
6
CONTINUOUS
10
0.0759731
20
-2.13795
11
0.07743
21
-2.13649
0
LINE
8
BLACK
6
CONTINUOUS
10
0.07743
20
-2.13649
11
0.0791901
21
-2.13297
0
LINE
8
BLACK
6
CONTINUOUS
10
0.0791901
20
-2.13297
11
0.0791901
21
-2.12732
0
LINE
8
BLACK
6
CONTINUOUS
10
0.0791901
20
-2.12732
11
0.07743
21
-2.1238
0
LINE
8
BLACK
6
CONTINUOUS
10
0.07743
20
-2.1238
11
0.0762813
21
-2.12265
0
LINE
8
BLACK
6
CONTINUOUS
10
0.0762813
20
-2.12265
11
0.0700765
21
-2.12058
0
LINE
8
BLACK
6
CONTINUOUS
10
0.0700765
20
-2.12058
11
0.0572553
21
-2.12058
0
LINE
8
BLACK
6
CONTINUOUS
10
0.0572553
20
-2.09246
11
0.0572553
21
-2.10877
0
LINE
8
BLACK
6
CONTINUOUS
10
0.0572553
20
-2.10877
11
0.0696407
21
-2.10877
0
LINE
8
BLACK
6
CONTINUOUS
10
0.0696407
20
-2.10877
11
0.073161
21
-2.10701
0
LINE
8
BLACK
6
CONTINUOUS
10
0.073161
20
-2.10701
11
0.0746178
21
-2.10556
0
LINE
8
BLACK
6
CONTINUOUS
10
0.0746178
20
-2.10556
11
0.076378
21
-2.10204
0
LINE
8
BLACK
6
CONTINUOUS
10
0.076378
20
-2.10204
11
0.076378
21
-2.0992
0
LINE
8
BLACK
6
CONTINUOUS
10
0.076378
20
-2.0992
11
0.0746178
21
-2.09568
0
LINE
8
BLACK
6
CONTINUOUS
10
0.0746178
20
-2.09568
11
0.073161
21
-2.09422
0
LINE
8
BLACK
6
CONTINUOUS
10
0.073161
20
-2.09422
11
0.0696407
21
-2.09246
0
LINE
8
BLACK
6
CONTINUOUS
10
0.0696407
20
-2.09246
11
0.0572553
21
-2.09246
0
LINE
8
BLACK
6
CONTINUOUS
10
-0.173456
20
0.169797
11
-0.171282
21
0.172523
0
LINE
8
BLACK
6
CONTINUOUS
10
-0.171282
20
0.172523
11
-0.168141
21
0.174036
0
LINE
8
BLACK
6
CONTINUOUS
10
-0.168141
20
0.174036
11
-0.166398
21
0.174232
0
LINE
8
BLACK
6
CONTINUOUS
10
-0.166398
20
0.174232
11
2.1664
21
0.174232
0
LINE
8
BLACK
6
CONTINUOUS
10
2.1664
20
0.174232
11
2.1698
21
0.173456
0
LINE
8
BLACK
6
CONTINUOUS
10
2.1698
20
0.173456
11
2.17252
21
0.171282
0
LINE
8
BLACK
6
CONTINUOUS
10
2.17252
20
0.171282
11
2.17404
21
0.168141
0
LINE
8
BLACK
6
CONTINUOUS
10
2.17404
20
0.168141
11
2.17423
21
0.166398
0
LINE
8
BLACK
6
CONTINUOUS
10
2.17423
20
0.166398
11
2.17423
21
-2.1664
0
LINE
8
BLACK
6
CONTINUOUS
10
2.17423
20
-2.1664
11
2.17346
21
-2.1698
0
LINE
8
BLACK
6
CONTINUOUS
10
2.17346
20
-2.1698
11
2.17128
21
-2.17252
0
LINE
8
BLACK
6
CONTINUOUS
10
2.17128
20
-2.17252
11
2.16814
21
-2.17404
0
LINE
8
BLACK
6
CONTINUOUS
10
2.16814
20
-2.17404
11
2.1664
21
-2.17423
0
LINE
8
BLACK
6
CONTINUOUS
10
2.1664
20
-2.17423
11
0.125852
21
-2.17423
0
LINE
8
BLACK
6
CONTINUOUS
10
0.125852
20
-2.17423
11
0.122453
21
-2.17346
0
LINE
8
BLACK
6
CONTINUOUS
10
0.122453
20
-2.17346
11
0.119727
21
-2.17128
0
LINE
8
BLACK
6
CONTINUOUS
10
0.119727
20
-2.17128
11
0.118214
21
-2.16814
0
LINE
8
BLACK
6
CONTINUOUS
10
0.118214
20
-2.16814
11
0.118017
21
-2.1664
0
LINE
8
BLACK
6
CONTINUOUS
10
0.118017
20
-2.1664
11
0.118017
21
-2.04673
0
LINE
8
BLACK
6
CONTINUOUS
10
0.118017
20
-2.04673
11
-0.150301
21
-2.04673
0
LINE
8
BLACK
6
CONTINUOUS
10
-0.150301
20
-2.04673
11
-0.150301
21
-2.1664
0
LINE
8
BLACK
6
CONTINUOUS
10
-0.150301
20
-2.1664
11
-0.151077
21
-2.1698
0
LINE
8
BLACK
6
CONTINUOUS
10
-0.151077
20
-2.1698
11
-0.153251
21
-2.17252
0
LINE
8
BLACK
6
CONTINUOUS
10
-0.153251
20
-2.17252
11
-0.156392
21
-2.17404
0
LINE
8
BLACK
6
CONTINUOUS
10
-0.156392
20
-2.17404
11
-0.158136
21
-2.17423
0
LINE
8
BLACK
6
CONTINUOUS
10
-0.158136
20
-2.17423
11
-0.166398
21
-2.17423
0
LINE
8
BLACK
6
CONTINUOUS
10
-0.166398
20
-2.17423
11
-0.169797
21
-2.17346
0
LINE
8
BLACK
6
CONTINUOUS
10
-0.169797
20
-2.17346
11
-0.172523
21
-2.17128
0
LINE
8
BLACK
6
CONTINUOUS
10
-0.172523
20
-2.17128
11
-0.174036
21
-2.16814
0
LINE
8
BLACK
6
CONTINUOUS
10
-0.174036
20
-2.16814
11
-0.174232
21
-2.1664
0
LINE
8
BLACK
6
CONTINUOUS
10
-0.174232
20
-2.1664
11
-0.174232
21
0.166398
0
LINE
8
BLACK
6
CONTINUOUS
10
-0.174232
20
0.166398
11
-0.173456
21
0.169797
0
LINE
8
BLACK
6
CONTINUOUS
10
0.339556
20
-0.541072
11
0.339556
21
-0.541072
0
LINE
8
BLACK
6
CONTINUOUS
10
0.339556
20
-0.541072
11
0.339996
21
-0.543852
0
LINE
8
BLACK
6
CONTINUOUS
10
0.339996
20
-0.543852
11
0.339996
21
-0.543852
0
LINE
8
BLACK
6
CONTINUOUS
10
0.339996
20
-0.543852
11
0.340093
21
-0.544461
0
LINE
8
BLACK
6
CONTINUOUS
10
0.340093
20
-0.544461
11
0.340373
21
-0.54501
0
LINE
8
BLACK
6
CONTINUOUS
10
0.340373
20
-0.54501
11
0.340373
21
-0.54501
0
LINE
8
BLACK
6
CONTINUOUS
10
0.340373
20
-0.54501
11
0.34208
21
-0.548362
0
LINE
8
BLACK
6
CONTINUOUS
10
0.34208
20
-0.548362
11
0.34236
21
-0.548911
0
LINE
8
BLACK
6
CONTINUOUS
10
0.34236
20
-0.548911
11
0.345892
21
-0.552443
0
LINE
8
BLACK
6
CONTINUOUS
10
0.345892
20
-0.552443
11
0.348306
21
-0.553673
0
LINE
8
BLACK
6
CONTINUOUS
10
0.348306
20
-0.553673
11
0.350983
21
-0.555908
0
LINE
8
BLACK
6
CONTINUOUS
10
0.350983
20
-0.555908
11
0.351988
21
-0.557655
0
LINE
8
BLACK
6
CONTINUOUS
10
0.351988
20
-0.557655
11
0.35431
21
-0.563261
0
LINE
8
BLACK
6
CONTINUOUS
10
0.35431
20
-0.563261
11
0.358099
21
-0.5682
0
LINE
8
BLACK
6
CONTINUOUS
10
0.358099
20
-0.5682
11
0.358932
21
-0.568839
0
LINE
8
BLACK
6
CONTINUOUS
10
0.358932
20
-0.568839
11
0.359702
21
-0.569515
0
LINE
8
BLACK
6
CONTINUOUS
10
0.359702
20
-0.569515
11
0.408596
21
-0.618408
0
LINE
8
BLACK
6
CONTINUOUS
10
0.408596
20
-0.618408
11
0.409271
21
-0.619178
0
LINE
8
BLACK
6
CONTINUOUS
10
0.409271
20
-0.619178
11
0.40991
21
-0.620011
0
LINE
8
BLACK
6
CONTINUOUS
10
0.40991
20
-0.620011
11
0.413154
21
-0.6225
0
LINE
8
BLACK
6
CONTINUOUS
10
0.413154
20
-0.6225
11
0.414849
21
-0.623801
0
LINE
8
BLACK
6
CONTINUOUS
10
0.414849
20
-0.623801
11
0.4206
21
-0.626183
0
LINE
8
BLACK
6
CONTINUOUS
10
0.4206
20
-0.626183
11
0.426772
21
-0.626995
0
LINE
8
BLACK
6
CONTINUOUS
10
0.426772
20
-0.626995
11
0.427281
21
-0.626928
0
LINE
8
BLACK
6
CONTINUOUS
10
0.427281
20
-0.626928
11
0.427281
21
-0.626928
0
LINE
8
BLACK
6
CONTINUOUS
10
0.427281
20
-0.626928
11
0.427812
21
-0.626858
0
LINE
8
BLACK
6
CONTINUOUS
10
0.427812
20
-0.626858
11
0.428835
21
-0.626791
0
LINE
8
BLACK
6
CONTINUOUS
10
0.428835
20
-0.626791
11
0.686469
21
-0.626791
0
LINE
8
BLACK
6
CONTINUOUS
10
0.686469
20
-0.626791
11
0.689869
21
-0.627567
0
LINE
8
BLACK
6
CONTINUOUS
10
0.689869
20
-0.627567
11
0.690759
21
-0.62807
0
LINE
8
BLACK
6
CONTINUOUS
10
0.690759
20
-0.62807
11
0.69518
21
-0.630963
0
LINE
8
BLACK
6
CONTINUOUS
10
0.69518
20
-0.630963
11
0.695937
21
-0.631458
0
LINE
8
BLACK
6
CONTINUOUS
10
0.695937
20
-0.631458
11
0.696347
21
-0.631611
0
LINE
8
BLACK
6
CONTINUOUS
10
0.696347
20
-0.631611
11
0.702153
21
-0.63377
0
LINE
8
BLACK
6
CONTINUOUS
10
0.702153
20
-0.63377
11
0.702153
21
-0.63377
0
LINE
8
BLACK
6
CONTINUOUS
10
0.702153
20
-0.63377
11
0.702564
21
-0.633923
0
LINE
8
BLACK
6
CONTINUOUS
10
0.702564
20
-0.633923
11
0.702998
21
-0.633981
0
LINE
8
BLACK
6
CONTINUOUS
10
0.702998
20
-0.633981
11
0.702998
21
-0.633981
0
LINE
8
BLACK
6
CONTINUOUS
10
0.702998
20
-0.633981
11
0.707657
21
-0.634602
0
LINE
8
BLACK
6
CONTINUOUS
10
0.707657
20
-0.634602
11
0.709572
21
-0.634858
0
LINE
8
BLACK
6
CONTINUOUS
10
0.709572
20
-0.634858
11
0.710008
21
-0.634818
0
LINE
8
BLACK
6
CONTINUOUS
10
0.710008
20
-0.634818
11
0.716177
21
-0.634257
0
LINE
8
BLACK
6
CONTINUOUS
10
0.716177
20
-0.634257
11
0.716177
21
-0.634257
0
LINE
8
BLACK
6
CONTINUOUS
10
0.716177
20
-0.634257
11
0.716613
21
-0.634217
0
LINE
8
BLACK
6
CONTINUOUS
10
0.716613
20
-0.634217
11
0.719976
21
-0.633125
0
LINE
8
BLACK
6
CONTINUOUS
10
0.719976
20
-0.633125
11
0.722921
21
-0.632168
0
LINE
8
BLACK
6
CONTINUOUS
10
0.722921
20
-0.632168
11
0.722921
21
-0.632167
0
LINE
8
BLACK
6
CONTINUOUS
10
0.722921
20
-0.632167
11
0.723338
21
-0.632032
0
LINE
8
BLACK
6
CONTINUOUS
10
0.723338
20
-0.632032
11
0.724301
21
-0.631458
0
LINE
8
BLACK
6
CONTINUOUS
10
0.724301
20
-0.631458
11
0.729035
21
-0.628636
0
LINE
8
BLACK
6
CONTINUOUS
10
0.729035
20
-0.628636
11
0.729035
21
-0.628636
0
LINE
8
BLACK
6
CONTINUOUS
10
0.729035
20
-0.628636
11
0.729411
21
-0.628412
0
LINE
8
BLACK
6
CONTINUOUS
10
0.729411
20
-0.628412
11
0.734531
21
-0.623536
0
LINE
8
BLACK
6
CONTINUOUS
10
0.734531
20
-0.623536
11
0.735219
21
-0.6225
0
LINE
8
BLACK
6
CONTINUOUS
10
0.735219
20
-0.6225
11
0.738202
21
-0.618011
0
LINE
8
BLACK
6
CONTINUOUS
10
0.738202
20
-0.618011
11
0.738444
21
-0.617647
0
LINE
8
BLACK
6
CONTINUOUS
10
0.738444
20
-0.617647
11
0.740955
21
-0.611037
0
LINE
8
BLACK
6
CONTINUOUS
10
0.740955
20
-0.611037
11
0.741939
21
-0.604035
0
LINE
8
BLACK
6
CONTINUOUS
10
0.741939
20
-0.604035
11
0.741951
21
-0.60315
0
LINE
8
BLACK
6
CONTINUOUS
10
0.741951
20
-0.60315
11
0.741163
21
-0.596123
0
LINE
8
BLACK
6
CONTINUOUS
10
0.741163
20
-0.596123
11
0.738838
21
-0.589446
0
LINE
8
BLACK
6
CONTINUOUS
10
0.738838
20
-0.589446
11
0.735091
21
-0.58345
0
LINE
8
BLACK
6
CONTINUOUS
10
0.735091
20
-0.58345
11
0.730109
21
-0.578433
0
LINE
8
BLACK
6
CONTINUOUS
10
0.730109
20
-0.578433
11
0.724139
21
-0.574644
0
LINE
8
BLACK
6
CONTINUOUS
10
0.724139
20
-0.574644
11
0.720634
21
-0.573396
0
LINE
8
BLACK
6
CONTINUOUS
10
0.720634
20
-0.573396
11
0.717891
21
-0.572419
0
LINE
8
BLACK
6
CONTINUOUS
10
0.717891
20
-0.572419
11
0.717891
21
-0.572419
0
LINE
8
BLACK
6
CONTINUOUS
10
0.717891
20
-0.572419
11
0.717478
21
-0.572272
0
LINE
8
BLACK
6
CONTINUOUS
10
0.717478
20
-0.572272
11
0.717043
21
-0.572221
0
LINE
8
BLACK
6
CONTINUOUS
10
0.717043
20
-0.572221
11
0.717043
21
-0.572221
0
LINE
8
BLACK
6
CONTINUOUS
10
0.717043
20
-0.572221
11
0.710893
21
-0.571487
0
LINE
8
BLACK
6
CONTINUOUS
10
0.710893
20
-0.571487
11
0.710892
21
-0.571487
0
LINE
8
BLACK
6
CONTINUOUS
10
0.710892
20
-0.571487
11
0.710458
21
-0.571435
0
LINE
8
BLACK
6
CONTINUOUS
10
0.710458
20
-0.571435
11
0.703426
21
-0.572174
0
LINE
8
BLACK
6
CONTINUOUS
10
0.703426
20
-0.572174
11
0.703011
21
-0.572315
0
LINE
8
BLACK
6
CONTINUOUS
10
0.703011
20
-0.572315
11
0.703011
21
-0.572316
0
LINE
8
BLACK
6
CONTINUOUS
10
0.703011
20
-0.572316
11
0.699923
21
-0.573367
0
LINE
8
BLACK
6
CONTINUOUS
10
0.699923
20
-0.573367
11
0.696733
21
-0.574453
0
LINE
8
BLACK
6
CONTINUOUS
10
0.696733
20
-0.574453
11
0.69071
21
-0.578158
0
LINE
8
BLACK
6
CONTINUOUS
10
0.69071
20
-0.578158
11
0.690669
21
-0.57809
0
LINE
8
BLACK
6
CONTINUOUS
10
0.690669
20
-0.57809
11
0.688031
21
-0.579328
0
LINE
8
BLACK
6
CONTINUOUS
10
0.688031
20
-0.579328
11
0.686364
21
-0.579508
0
LINE
8
BLACK
6
CONTINUOUS
10
0.686364
20
-0.579508
11
0.43981
21
-0.579508
0
LINE
8
BLACK
6
CONTINUOUS
10
0.43981
20
-0.579508
11
0.43641
21
-0.578732
0
LINE
8
BLACK
6
CONTINUOUS
10
0.43641
20
-0.578732
11
0.43427
21
-0.577213
0
LINE
8
BLACK
6
CONTINUOUS
10
0.43427
20
-0.577213
11
0.411048
21
-0.553992
0
LINE
8
BLACK
6
CONTINUOUS
10
0.411048
20
-0.553992
11
0.409193
21
-0.551039
0
LINE
8
BLACK
6
CONTINUOUS
10
0.409193
20
-0.551039
11
0.408803
21
-0.547575
0
LINE
8
BLACK
6
CONTINUOUS
10
0.408803
20
-0.547575
11
0.409393
21
-0.545608
0
LINE
8
BLACK
6
CONTINUOUS
10
0.409393
20
-0.545608
11
0.409358
21
-0.545597
0
LINE
8
BLACK
6
CONTINUOUS
10
0.409358
20
-0.545597
11
0.409549
21
-0.54501
0
LINE
8
BLACK
6
CONTINUOUS
10
0.409549
20
-0.54501
11
0.409829
21
-0.544461
0
LINE
8
BLACK
6
CONTINUOUS
10
0.409829
20
-0.544461
11
0.410413
21
-0.540768
0
LINE
8
BLACK
6
CONTINUOUS
10
0.410413
20
-0.540768
11
0.410413
21
-0.439468
0
LINE
8
BLACK
6
CONTINUOUS
10
0.410413
20
-0.439468
11
0.410365
21
-0.439164
0
LINE
8
BLACK
6
CONTINUOUS
10
0.410365
20
-0.439164
11
0.409925
21
-0.436385
0
LINE
8
BLACK
6
CONTINUOUS
10
0.409925
20
-0.436385
11
0.409925
21
-0.436384
0
LINE
8
BLACK
6
CONTINUOUS
10
0.409925
20
-0.436384
11
0.409829
21
-0.435775
0
LINE
8
BLACK
6
CONTINUOUS
10
0.409829
20
-0.435775
11
0.407561
21
-0.431325
0
LINE
8
BLACK
6
CONTINUOUS
10
0.407561
20
-0.431325
11
0.404029
21
-0.427793
0
LINE
8
BLACK
6
CONTINUOUS
10
0.404029
20
-0.427793
11
0.399579
21
-0.425526
0
LINE
8
BLACK
6
CONTINUOUS
10
0.399579
20
-0.425526
11
0.395887
21
-0.424941
0
LINE
8
BLACK
6
CONTINUOUS
10
0.395887
20
-0.424941
11
0.395579
21
-0.424941
0
LINE
8
BLACK
6
CONTINUOUS
10
0.395579
20
-0.424941
11
0.374946
21
-0.424941
0
LINE
8
BLACK
6
CONTINUOUS
10
0.374946
20
-0.424941
11
0.354035
21
-0.424941
0
LINE
8
BLACK
6
CONTINUOUS
10
0.354035
20
-0.424941
11
0.353731
21
-0.424989
0
LINE
8
BLACK
6
CONTINUOUS
10
0.353731
20
-0.424989
11
0.353731
21
-0.424989
0
LINE
8
BLACK
6
CONTINUOUS
10
0.353731
20
-0.424989
11
0.350952
21
-0.425429
0
LINE
8
BLACK
6
CONTINUOUS
10
0.350952
20
-0.425429
11
0.350951
21
-0.425429
0
LINE
8
BLACK
6
CONTINUOUS
10
0.350951
20
-0.425429
11
0.350342
21
-0.425526
0
LINE
8
BLACK
6
CONTINUOUS
10
0.350342
20
-0.425526
11
0.349793
21
-0.425806
0
LINE
8
BLACK
6
CONTINUOUS
10
0.349793
20
-0.425806
11
0.349793
21
-0.425806
0
LINE
8
BLACK
6
CONTINUOUS
10
0.349793
20
-0.425806
11
0.347041
21
-0.427208
0
LINE
8
BLACK
6
CONTINUOUS
10
0.347041
20
-0.427208
11
0.345892
21
-0.427793
0
LINE
8
BLACK
6
CONTINUOUS
10
0.345892
20
-0.427793
11
0.34236
21
-0.431325
0
LINE
8
BLACK
6
CONTINUOUS
10
0.34236
20
-0.431325
11
0.340093
21
-0.435775
0
LINE
8
BLACK
6
CONTINUOUS
10
0.340093
20
-0.435775
11
0.339508
21
-0.439468
0
LINE
8
BLACK
6
CONTINUOUS
10
0.339508
20
-0.439468
11
0.339508
21
-0.540768
0
LINE
8
BLACK
6
CONTINUOUS
10
0.339508
20
-0.540768
11
0.339556
21
-0.541072
0
LINE
8
BLACK
6
CONTINUOUS
10
0.485843
20
-0.289528
11
0.485097
21
-0.289698
0
LINE
8
BLACK
6
CONTINUOUS
10
0.485097
20
-0.289698
11
0.484961
21
-0.28998
0
LINE
8
BLACK
6
CONTINUOUS
10
0.484961
20
-0.28998
11
0.484961
21
-0.310394
0
LINE
8
BLACK
6
CONTINUOUS
10
0.484961
20
-0.310394
11
0.494646
21
-0.310394
0
LINE
8
BLACK
6
CONTINUOUS
10
0.494646
20
-0.310394
11
0.494646
21
-0.349803
0
LINE
8
BLACK
6
CONTINUOUS
10
0.494646
20
-0.349803
11
0.514629
21
-0.349803
0
LINE
8
BLACK
6
CONTINUOUS
10
0.514629
20
-0.349803
11
0.515376
21
-0.349633
0
LINE
8
BLACK
6
CONTINUOUS
10
0.515376
20
-0.349633
11
0.515512
21
-0.34935
0
LINE
8
BLACK
6
CONTINUOUS
10
0.515512
20
-0.34935
11
0.515512
21
-0.309009
0
LINE
8
BLACK
6
CONTINUOUS
10
0.515512
20
-0.309009
11
0.515483
21
-0.308538
0
LINE
8
BLACK
6
CONTINUOUS
10
0.515483
20
-0.308538
11
0.51516
21
-0.305869
0
LINE
8
BLACK
6
CONTINUOUS
10
0.51516
20
-0.305869
11
0.514915
21
-0.304902
0
LINE
8
BLACK
6
CONTINUOUS
10
0.514915
20
-0.304902
11
0.513192
21
-0.300551
0
LINE
8
BLACK
6
CONTINUOUS
10
0.513192
20
-0.300551
11
0.512673
21
-0.299629
0
LINE
8
BLACK
6
CONTINUOUS
10
0.512673
20
-0.299629
11
0.509862
21
-0.295926
0
LINE
8
BLACK
6
CONTINUOUS
10
0.509862
20
-0.295926
11
0.509114
21
-0.295178
0
LINE
8
BLACK
6
CONTINUOUS
10
0.509114
20
-0.295178
11
0.505411
21
-0.292367
0
LINE
8
BLACK
6
CONTINUOUS
10
0.505411
20
-0.292367
11
0.504489
21
-0.291847
0
LINE
8
BLACK
6
CONTINUOUS
10
0.504489
20
-0.291847
11
0.500138
21
-0.290125
0
LINE
8
BLACK
6
CONTINUOUS
10
0.500138
20
-0.290125
11
0.49917
21
-0.289879
0
LINE
8
BLACK
6
CONTINUOUS
10
0.49917
20
-0.289879
11
0.496501
21
-0.289556
0
LINE
8
BLACK
6
CONTINUOUS
10
0.496501
20
-0.289556
11
0.496031
21
-0.289528
0
LINE
8
BLACK
6
CONTINUOUS
10
0.496031
20
-0.289528
11
0.485843
21
-0.289528
0
LINE
8
BLACK
6
CONTINUOUS
10
0.485413
20
-0.430079
11
0.496031
21
-0.430079
0
LINE
8
BLACK
6
CONTINUOUS
10
0.496031
20
-0.430079
11
0.496501
21
-0.43005
0
LINE
8
BLACK
6
CONTINUOUS
10
0.496501
20
-0.43005
11
0.49917
21
-0.429727
0
LINE
8
BLACK
6
CONTINUOUS
10
0.49917
20
-0.429727
11
0.500138
21
-0.429482
0
LINE
8
BLACK
6
CONTINUOUS
10
0.500138
20
-0.429482
11
0.504489
21
-0.427759
0
LINE
8
BLACK
6
CONTINUOUS
10
0.504489
20
-0.427759
11
0.505411
21
-0.42724
0
LINE
8
BLACK
6
CONTINUOUS
10
0.505411
20
-0.42724
11
0.509114
21
-0.424429
0
LINE
8
BLACK
6
CONTINUOUS
10
0.509114
20
-0.424429
11
0.509862
21
-0.423681
0
LINE
8
BLACK
6
CONTINUOUS
10
0.509862
20
-0.423681
11
0.512673
21
-0.419978
0
LINE
8
BLACK
6
CONTINUOUS
10
0.512673
20
-0.419978
11
0.513192
21
-0.419056
0
LINE
8
BLACK
6
CONTINUOUS
10
0.513192
20
-0.419056
11
0.514915
21
-0.414704
0
LINE
8
BLACK
6
CONTINUOUS
10
0.514915
20
-0.414704
11
0.51516
21
-0.413737
0
LINE
8
BLACK
6
CONTINUOUS
10
0.51516
20
-0.413737
11
0.515483
21
-0.411068
0
LINE
8
BLACK
6
CONTINUOUS
10
0.515483
20
-0.411068
11
0.515512
21
-0.410597
0
LINE
8
BLACK
6
CONTINUOUS
10
0.515512
20
-0.410597
11
0.515512
21
-0.370686
0
LINE
8
BLACK
6
CONTINUOUS
10
0.515512
20
-0.370686
11
0.515341
21
-0.369939
0
LINE
8
BLACK
6
CONTINUOUS
10
0.515341
20
-0.369939
11
0.515059
21
-0.369803
0
LINE
8
BLACK
6
CONTINUOUS
10
0.515059
20
-0.369803
11
0.494646
21
-0.369803
0
LINE
8
BLACK
6
CONTINUOUS
10
0.494646
20
-0.369803
11
0.494646
21
-0.409213
0
LINE
8
BLACK
6
CONTINUOUS
10
0.494646
20
-0.409213
11
0.484961
21
-0.409213
0
LINE
8
BLACK
6
CONTINUOUS
10
0.484961
20
-0.409213
11
0.484961
21
-0.429196
0
LINE
8
BLACK
6
CONTINUOUS
10
0.484961
20
-0.429196
11
0.485131
21
-0.429943
0
LINE
8
BLACK
6
CONTINUOUS
10
0.485131
20
-0.429943
11
0.485413
21
-0.430079
0
LINE
8
BLACK
6
CONTINUOUS
10
0.455276
20
-0.409213
11
0.455276
21
-0.369803
0
LINE
8
BLACK
6
CONTINUOUS
10
0.455276
20
-0.369803
11
0.435292
21
-0.369803
0
LINE
8
BLACK
6
CONTINUOUS
10
0.435292
20
-0.369803
11
0.434545
21
-0.369974
0
LINE
8
BLACK
6
CONTINUOUS
10
0.434545
20
-0.369974
11
0.434409
21
-0.370256
0
LINE
8
BLACK
6
CONTINUOUS
10
0.434409
20
-0.370256
11
0.434409
21
-0.410597
0
LINE
8
BLACK
6
CONTINUOUS
10
0.434409
20
-0.410597
11
0.434438
21
-0.411068
0
LINE
8
BLACK
6
CONTINUOUS
10
0.434438
20
-0.411068
11
0.434761
21
-0.413737
0
LINE
8
BLACK
6
CONTINUOUS
10
0.434761
20
-0.413737
11
0.435006
21
-0.414704
0
LINE
8
BLACK
6
CONTINUOUS
10
0.435006
20
-0.414704
11
0.436729
21
-0.419056
0
LINE
8
BLACK
6
CONTINUOUS
10
0.436729
20
-0.419056
11
0.437249
21
-0.419978
0
LINE
8
BLACK
6
CONTINUOUS
10
0.437249
20
-0.419978
11
0.440059
21
-0.423681
0
LINE
8
BLACK
6
CONTINUOUS
10
0.440059
20
-0.423681
11
0.440808
21
-0.424429
0
LINE
8
BLACK
6
CONTINUOUS
10
0.440808
20
-0.424429
11
0.444511
21
-0.42724
0
LINE
8
BLACK
6
CONTINUOUS
10
0.444511
20
-0.42724
11
0.445432
21
-0.427759
0
LINE
8
BLACK
6
CONTINUOUS
10
0.445432
20
-0.427759
11
0.449784
21
-0.429482
0
LINE
8
BLACK
6
CONTINUOUS
10
0.449784
20
-0.429482
11
0.450751
21
-0.429727
0
LINE
8
BLACK
6
CONTINUOUS
10
0.450751
20
-0.429727
11
0.45342
21
-0.43005
0
LINE
8
BLACK
6
CONTINUOUS
10
0.45342
20
-0.43005
11
0.453891
21
-0.430079
0
LINE
8
BLACK
6
CONTINUOUS
10
0.453891
20
-0.430079
11
0.464078
21
-0.430079
0
LINE
8
BLACK
6
CONTINUOUS
10
0.464078
20
-0.430079
11
0.464825
21
-0.429908
0
LINE
8
BLACK
6
CONTINUOUS
10
0.464825
20
-0.429908
11
0.464961
21
-0.429626
0
LINE
8
BLACK
6
CONTINUOUS
10
0.464961
20
-0.429626
11
0.464961
21
-0.409213
0
LINE
8
BLACK
6
CONTINUOUS
10
0.464961
20
-0.409213
11
0.455276
21
-0.409213
0
LINE
8
BLACK
6
CONTINUOUS
10
0.434862
20
-0.349803
11
0.455276
21
-0.349803
0
LINE
8
BLACK
6
CONTINUOUS
10
0.455276
20
-0.349803
11
0.455276
21
-0.310394
0
LINE
8
BLACK
6
CONTINUOUS
10
0.455276
20
-0.310394
11
0.464961
21
-0.310394
0
LINE
8
BLACK
6
CONTINUOUS
10
0.464961
20
-0.310394
11
0.464961
21
-0.29041
0
LINE
8
BLACK
6
CONTINUOUS
10
0.464961
20
-0.29041
11
0.46479
21
-0.289664
0
LINE
8
BLACK
6
CONTINUOUS
10
0.46479
20
-0.289664
11
0.464508
21
-0.289528
0
LINE
8
BLACK
6
CONTINUOUS
10
0.464508
20
-0.289528
11
0.453891
21
-0.289528
0
LINE
8
BLACK
6
CONTINUOUS
10
0.453891
20
-0.289528
11
0.45342
21
-0.289556
0
LINE
8
BLACK
6
CONTINUOUS
10
0.45342
20
-0.289556
11
0.450751
21
-0.289879
0
LINE
8
BLACK
6
CONTINUOUS
10
0.450751
20
-0.289879
11
0.449784
21
-0.290125
0
LINE
8
BLACK
6
CONTINUOUS
10
0.449784
20
-0.290125
11
0.445432
21
-0.291847
0
LINE
8
BLACK
6
CONTINUOUS
10
0.445432
20
-0.291847
11
0.444511
21
-0.292367
0
LINE
8
BLACK
6
CONTINUOUS
10
0.444511
20
-0.292367
11
0.440808
21
-0.295178
0
LINE
8
BLACK
6
CONTINUOUS
10
0.440808
20
-0.295178
11
0.440059
21
-0.295926
0
LINE
8
BLACK
6
CONTINUOUS
10
0.440059
20
-0.295926
11
0.437249
21
-0.299629
0
LINE
8
BLACK
6
CONTINUOUS
10
0.437249
20
-0.299629
11
0.436729
21
-0.300551
0
LINE
8
BLACK
6
CONTINUOUS
10
0.436729
20
-0.300551
11
0.435006
21
-0.304902
0
LINE
8
BLACK
6
CONTINUOUS
10
0.435006
20
-0.304902
11
0.434761
21
-0.305869
0
LINE
8
BLACK
6
CONTINUOUS
10
0.434761
20
-0.305869
11
0.434438
21
-0.308538
0
LINE
8
BLACK
6
CONTINUOUS
10
0.434438
20
-0.308538
11
0.434409
21
-0.309009
0
LINE
8
BLACK
6
CONTINUOUS
10
0.434409
20
-0.309009
11
0.434409
21
-0.34892
0
LINE
8
BLACK
6
CONTINUOUS
10
0.434409
20
-0.34892
11
0.43458
21
-0.349667
0
LINE
8
BLACK
6
CONTINUOUS
10
0.43458
20
-0.349667
11
0.434862
21
-0.349803
0
LINE
8
BLACK
6
CONTINUOUS
10
0.101795
20
-0.418104
11
0.101859
21
-0.41875
0
LINE
8
BLACK
6
CONTINUOUS
10
0.101859
20
-0.41875
11
0.102442
21
-0.424704
0
LINE
8
BLACK
6
CONTINUOUS
10
0.102442
20
-0.424704
11
0.104674
21
-0.431413
0
LINE
8
BLACK
6
CONTINUOUS
10
0.104674
20
-0.431413
11
0.108337
21
-0.437461
0
LINE
8
BLACK
6
CONTINUOUS
10
0.108337
20
-0.437461
11
0.113249
21
-0.442547
0
LINE
8
BLACK
6
CONTINUOUS
10
0.113249
20
-0.442547
11
0.119165
21
-0.446419
0
LINE
8
BLACK
6
CONTINUOUS
10
0.119165
20
-0.446419
11
0.119575
21
-0.446571
0
LINE
8
BLACK
6
CONTINUOUS
10
0.119575
20
-0.446571
11
0.125381
21
-0.448731
0
LINE
8
BLACK
6
CONTINUOUS
10
0.125381
20
-0.448731
11
0.125381
21
-0.448731
0
LINE
8
BLACK
6
CONTINUOUS
10
0.125381
20
-0.448731
11
0.125792
21
-0.448883
0
LINE
8
BLACK
6
CONTINUOUS
10
0.125792
20
-0.448883
11
0.126226
21
-0.448941
0
LINE
8
BLACK
6
CONTINUOUS
10
0.126226
20
-0.448941
11
0.126226
21
-0.448941
0
LINE
8
BLACK
6
CONTINUOUS
10
0.126226
20
-0.448941
11
0.130885
21
-0.449563
0
LINE
8
BLACK
6
CONTINUOUS
10
0.130885
20
-0.449563
11
0.1328
21
-0.449818
0
LINE
8
BLACK
6
CONTINUOUS
10
0.1328
20
-0.449818
11
0.133236
21
-0.449779
0
LINE
8
BLACK
6
CONTINUOUS
10
0.133236
20
-0.449779
11
0.139405
21
-0.449217
0
LINE
8
BLACK
6
CONTINUOUS
10
0.139405
20
-0.449217
11
0.139405
21
-0.449217
0
LINE
8
BLACK
6
CONTINUOUS
10
0.139405
20
-0.449217
11
0.139842
21
-0.449178
0
LINE
8
BLACK
6
CONTINUOUS
10
0.139842
20
-0.449178
11
0.143204
21
-0.448085
0
LINE
8
BLACK
6
CONTINUOUS
10
0.143204
20
-0.448085
11
0.146149
21
-0.447128
0
LINE
8
BLACK
6
CONTINUOUS
10
0.146149
20
-0.447128
11
0.14615
21
-0.447128
0
LINE
8
BLACK
6
CONTINUOUS
10
0.14615
20
-0.447128
11
0.146566
21
-0.446993
0
LINE
8
BLACK
6
CONTINUOUS
10
0.146566
20
-0.446993
11
0.147529
21
-0.446419
0
LINE
8
BLACK
6
CONTINUOUS
10
0.147529
20
-0.446419
11
0.152263
21
-0.443597
0
LINE
8
BLACK
6
CONTINUOUS
10
0.152263
20
-0.443597
11
0.152263
21
-0.443597
0
LINE
8
BLACK
6
CONTINUOUS
10
0.152263
20
-0.443597
11
0.15264
21
-0.443372
0
LINE
8
BLACK
6
CONTINUOUS
10
0.15264
20
-0.443372
11
0.156416
21
-0.439776
0
LINE
8
BLACK
6
CONTINUOUS
10
0.156416
20
-0.439776
11
0.15674
21
-0.439468
0
LINE
8
BLACK
6
CONTINUOUS
10
0.15674
20
-0.439468
11
0.157443
21
-0.438798
0
LINE
8
BLACK
6
CONTINUOUS
10
0.157443
20
-0.438798
11
0.157443
21
-0.438798
0
LINE
8
BLACK
6
CONTINUOUS
10
0.157443
20
-0.438798
11
0.15776
21
-0.438496
0
LINE
8
BLACK
6
CONTINUOUS
10
0.15776
20
-0.438496
11
0.158448
21
-0.437461
0
LINE
8
BLACK
6
CONTINUOUS
10
0.158448
20
-0.437461
11
0.16143
21
-0.432972
0
LINE
8
BLACK
6
CONTINUOUS
10
0.16143
20
-0.432972
11
0.161673
21
-0.432607
0
LINE
8
BLACK
6
CONTINUOUS
10
0.161673
20
-0.432607
11
0.161951
21
-0.431874
0
LINE
8
BLACK
6
CONTINUOUS
10
0.161951
20
-0.431874
11
0.163608
21
-0.427513
0
LINE
8
BLACK
6
CONTINUOUS
10
0.163608
20
-0.427513
11
0.164183
21
-0.425997
0
LINE
8
BLACK
6
CONTINUOUS
10
0.164183
20
-0.425997
11
0.164263
21
-0.425429
0
LINE
8
BLACK
6
CONTINUOUS
10
0.164263
20
-0.425429
11
0.164613
21
-0.422941
0
LINE
8
BLACK
6
CONTINUOUS
10
0.164613
20
-0.422941
11
0.165167
21
-0.418996
0
LINE
8
BLACK
6
CONTINUOUS
10
0.165167
20
-0.418996
11
0.16518
21
-0.41811
0
LINE
8
BLACK
6
CONTINUOUS
10
0.16518
20
-0.41811
11
0.165152
21
-0.417866
0
LINE
8
BLACK
6
CONTINUOUS
10
0.165152
20
-0.417866
11
0.16444
21
-0.411519
0
LINE
8
BLACK
6
CONTINUOUS
10
0.16444
20
-0.411519
11
0.16444
21
-0.411519
0
LINE
8
BLACK
6
CONTINUOUS
10
0.16444
20
-0.411519
11
0.164392
21
-0.411084
0
LINE
8
BLACK
6
CONTINUOUS
10
0.164392
20
-0.411084
11
0.164222
21
-0.410597
0
LINE
8
BLACK
6
CONTINUOUS
10
0.164222
20
-0.410597
11
0.164098
21
-0.410241
0
LINE
8
BLACK
6
CONTINUOUS
10
0.164098
20
-0.410241
11
0.16221
21
-0.40482
0
LINE
8
BLACK
6
CONTINUOUS
10
0.16221
20
-0.40482
11
0.162066
21
-0.404407
0
LINE
8
BLACK
6
CONTINUOUS
10
0.162066
20
-0.404407
11
0.15832
21
-0.39841
0
LINE
8
BLACK
6
CONTINUOUS
10
0.15832
20
-0.39841
11
0.158438
21
-0.398337
0
LINE
8
BLACK
6
CONTINUOUS
10
0.158438
20
-0.398337
11
0.157298
21
-0.395951
0
LINE
8
BLACK
6
CONTINUOUS
10
0.157298
20
-0.395951
11
0.157106
21
-0.39423
0
LINE
8
BLACK
6
CONTINUOUS
10
0.157106
20
-0.39423
11
0.157106
21
-0.320912
0
LINE
8
BLACK
6
CONTINUOUS
10
0.157106
20
-0.320912
11
0.157882
21
-0.317513
0
LINE
8
BLACK
6
CONTINUOUS
10
0.157882
20
-0.317513
11
0.159401
21
-0.315372
0
LINE
8
BLACK
6
CONTINUOUS
10
0.159401
20
-0.315372
11
0.225608
21
-0.249165
0
LINE
8
BLACK
6
CONTINUOUS
10
0.225608
20
-0.249165
11
0.228561
21
-0.24731
0
LINE
8
BLACK
6
CONTINUOUS
10
0.228561
20
-0.24731
11
0.231148
21
-0.24687
0
LINE
8
BLACK
6
CONTINUOUS
10
0.231148
20
-0.24687
11
0.482631
21
-0.24687
0
LINE
8
BLACK
6
CONTINUOUS
10
0.482631
20
-0.24687
11
0.486031
21
-0.247646
0
LINE
8
BLACK
6
CONTINUOUS
10
0.486031
20
-0.247646
11
0.488171
21
-0.249165
0
LINE
8
BLACK
6
CONTINUOUS
10
0.488171
20
-0.249165
11
0.549024
21
-0.310018
0
LINE
8
BLACK
6
CONTINUOUS
10
0.549024
20
-0.310018
11
0.550879
21
-0.31297
0
LINE
8
BLACK
6
CONTINUOUS
10
0.550879
20
-0.31297
11
0.551319
21
-0.315558
0
LINE
8
BLACK
6
CONTINUOUS
10
0.551319
20
-0.315558
11
0.551319
21
-0.420227
0
LINE
8
BLACK
6
CONTINUOUS
10
0.551319
20
-0.420227
11
0.550543
21
-0.423626
0
LINE
8
BLACK
6
CONTINUOUS
10
0.550543
20
-0.423626
11
0.548369
21
-0.426352
0
LINE
8
BLACK
6
CONTINUOUS
10
0.548369
20
-0.426352
11
0.547041
21
-0.427208
0
LINE
8
BLACK
6
CONTINUOUS
10
0.547041
20
-0.427208
11
0.545892
21
-0.427793
0
LINE
8
BLACK
6
CONTINUOUS
10
0.545892
20
-0.427793
11
0.54236
21
-0.431325
0
LINE
8
BLACK
6
CONTINUOUS
10
0.54236
20
-0.431325
11
0.540093
21
-0.435775
0
LINE
8
BLACK
6
CONTINUOUS
10
0.540093
20
-0.435775
11
0.539508
21
-0.439468
0
LINE
8
BLACK
6
CONTINUOUS
10
0.539508
20
-0.439468
11
0.539508
21
-0.540768
0
LINE
8
BLACK
6
CONTINUOUS
10
0.539508
20
-0.540768
11
0.539556
21
-0.541072
0
LINE
8
BLACK
6
CONTINUOUS
10
0.539556
20
-0.541072
11
0.539556
21
-0.541072
0
LINE
8
BLACK
6
CONTINUOUS
10
0.539556
20
-0.541072
11
0.539996
21
-0.543852
0
LINE
8
BLACK
6
CONTINUOUS
10
0.539996
20
-0.543852
11
0.539996
21
-0.543852
0
LINE
8
BLACK
6
CONTINUOUS
10
0.539996
20
-0.543852
11
0.540093
21
-0.544461
0
LINE
8
BLACK
6
CONTINUOUS
10
0.540093
20
-0.544461
11
0.540373
21
-0.54501
0
LINE
8
BLACK
6
CONTINUOUS
10
0.540373
20
-0.54501
11
0.540373
21
-0.54501
0
LINE
8
BLACK
6
CONTINUOUS
10
0.540373
20
-0.54501
11
0.54208
21
-0.548362
0
LINE
8
BLACK
6
CONTINUOUS
10
0.54208
20
-0.548362
11
0.54236
21
-0.548911
0
LINE
8
BLACK
6
CONTINUOUS
10
0.54236
20
-0.548911
11
0.545892
21
-0.552443
0
LINE
8
BLACK
6
CONTINUOUS
10
0.545892
20
-0.552443
11
0.550342
21
-0.55471
0
LINE
8
BLACK
6
CONTINUOUS
10
0.550342
20
-0.55471
11
0.554035
21
-0.555295
0
LINE
8
BLACK
6
CONTINUOUS
10
0.554035
20
-0.555295
11
0.554343
21
-0.555295
0
LINE
8
BLACK
6
CONTINUOUS
10
0.554343
20
-0.555295
11
0.574975
21
-0.555295
0
LINE
8
BLACK
6
CONTINUOUS
10
0.574975
20
-0.555295
11
0.595887
21
-0.555295
0
LINE
8
BLACK
6
CONTINUOUS
10
0.595887
20
-0.555295
11
0.59619
21
-0.555247
0
LINE
8
BLACK
6
CONTINUOUS
10
0.59619
20
-0.555247
11
0.59619
21
-0.555247
0
LINE
8
BLACK
6
CONTINUOUS
10
0.59619
20
-0.555247
11
0.59897
21
-0.554807
0
LINE
8
BLACK
6
CONTINUOUS
10
0.59897
20
-0.554807
11
0.59897
21
-0.554807
0
LINE
8
BLACK
6
CONTINUOUS
10
0.59897
20
-0.554807
11
0.599579
21
-0.55471
0
LINE
8
BLACK
6
CONTINUOUS
10
0.599579
20
-0.55471
11
0.600128
21
-0.554431
0
LINE
8
BLACK
6
CONTINUOUS
10
0.600128
20
-0.554431
11
0.600128
21
-0.55443
0
LINE
8
BLACK
6
CONTINUOUS
10
0.600128
20
-0.55443
11
0.60348
21
-0.552723
0
LINE
8
BLACK
6
CONTINUOUS
10
0.60348
20
-0.552723
11
0.604029
21
-0.552443
0
LINE
8
BLACK
6
CONTINUOUS
10
0.604029
20
-0.552443
11
0.607561
21
-0.548911
0
LINE
8
BLACK
6
CONTINUOUS
10
0.607561
20
-0.548911
11
0.609829
21
-0.544461
0
LINE
8
BLACK
6
CONTINUOUS
10
0.609829
20
-0.544461
11
0.610413
21
-0.540768
0
LINE
8
BLACK
6
CONTINUOUS
10
0.610413
20
-0.540768
11
0.610413
21
-0.439468
0
LINE
8
BLACK
6
CONTINUOUS
10
0.610413
20
-0.439468
11
0.610365
21
-0.439164
0
LINE
8
BLACK
6
CONTINUOUS
10
0.610365
20
-0.439164
11
0.609925
21
-0.436385
0
LINE
8
BLACK
6
CONTINUOUS
10
0.609925
20
-0.436385
11
0.609925
21
-0.436384
0
LINE
8
BLACK
6
CONTINUOUS
10
0.609925
20
-0.436384
11
0.609829
21
-0.435775
0
LINE
8
BLACK
6
CONTINUOUS
10
0.609829
20
-0.435775
11
0.607561
21
-0.431325
0
LINE
8
BLACK
6
CONTINUOUS
10
0.607561
20
-0.431325
11
0.604029
21
-0.427793
0
LINE
8
BLACK
6
CONTINUOUS
10
0.604029
20
-0.427793
11
0.60288
21
-0.427208
0
LINE
8
BLACK
6
CONTINUOUS
10
0.60288
20
-0.427208
11
0.600204
21
-0.424973
0
LINE
8
BLACK
6
CONTINUOUS
10
0.600204
20
-0.424973
11
0.598762
21
-0.421799
0
LINE
8
BLACK
6
CONTINUOUS
10
0.598762
20
-0.421799
11
0.598602
21
-0.420227
0
LINE
8
BLACK
6
CONTINUOUS
10
0.598602
20
-0.420227
11
0.598602
21
-0.304583
0
LINE
8
BLACK
6
CONTINUOUS
10
0.598602
20
-0.304583
11
0.598669
21
-0.30356
0
LINE
8
BLACK
6
CONTINUOUS
10
0.598669
20
-0.30356
11
0.598739
21
-0.303029
0
LINE
8
BLACK
6
CONTINUOUS
10
0.598739
20
-0.303029
11
0.598739
21
-0.303029
0
LINE
8
BLACK
6
CONTINUOUS
10
0.598739
20
-0.303029
11
0.598806
21
-0.30252
0
LINE
8
BLACK
6
CONTINUOUS
10
0.598806
20
-0.30252
11
0.597994
21
-0.296348
0
LINE
8
BLACK
6
CONTINUOUS
10
0.597994
20
-0.296348
11
0.595612
21
-0.290597
0
LINE
8
BLACK
6
CONTINUOUS
10
0.595612
20
-0.290597
11
0.595139
21
-0.28998
0
LINE
8
BLACK
6
CONTINUOUS
10
0.595139
20
-0.28998
11
0.592774
21
-0.286898
0
LINE
8
BLACK
6
CONTINUOUS
10
0.592774
20
-0.286898
11
0.592774
21
-0.286898
0
LINE
8
BLACK
6
CONTINUOUS
10
0.592774
20
-0.286898
11
0.592135
21
-0.286066
0
LINE
8
BLACK
6
CONTINUOUS
10
0.592135
20
-0.286066
11
0.592135
21
-0.286065
0
LINE
8
BLACK
6
CONTINUOUS
10
0.592135
20
-0.286065
11
0.591822
21
-0.285658
0
LINE
8
BLACK
6
CONTINUOUS
10
0.591822
20
-0.285658
11
0.590989
21
-0.285019
0
LINE
8
BLACK
6
CONTINUOUS
10
0.590989
20
-0.285019
11
0.590219
21
-0.284344
0
LINE
8
BLACK
6
CONTINUOUS
10
0.590219
20
-0.284344
11
0.513845
21
-0.20797
0
LINE
8
BLACK
6
CONTINUOUS
10
0.513845
20
-0.20797
11
0.51317
21
-0.2072
0
LINE
8
BLACK
6
CONTINUOUS
10
0.51317
20
-0.2072
11
0.512531
21
-0.206367
0
LINE
8
BLACK
6
CONTINUOUS
10
0.512531
20
-0.206367
11
0.507592
21
-0.202577
0
LINE
8
BLACK
6
CONTINUOUS
10
0.507592
20
-0.202577
11
0.502316
21
-0.200392
0
LINE
8
BLACK
6
CONTINUOUS
10
0.502316
20
-0.200392
11
0.502315
21
-0.200392
0
LINE
8
BLACK
6
CONTINUOUS
10
0.502315
20
-0.200392
11
0.501841
21
-0.200195
0
LINE
8
BLACK
6
CONTINUOUS
10
0.501841
20
-0.200195
11
0.497219
21
-0.199587
0
LINE
8
BLACK
6
CONTINUOUS
10
0.497219
20
-0.199587
11
0.496178
21
-0.19945
0
LINE
8
BLACK
6
CONTINUOUS
10
0.496178
20
-0.19945
11
0.495669
21
-0.199383
0
LINE
8
BLACK
6
CONTINUOUS
10
0.495669
20
-0.199383
11
0.49516
21
-0.19945
0
LINE
8
BLACK
6
CONTINUOUS
10
0.49516
20
-0.19945
11
0.49516
21
-0.19945
0
LINE
8
BLACK
6
CONTINUOUS
10
0.49516
20
-0.19945
11
0.494629
21
-0.19952
0
LINE
8
BLACK
6
CONTINUOUS
10
0.494629
20
-0.19952
11
0.493606
21
-0.199587
0
LINE
8
BLACK
6
CONTINUOUS
10
0.493606
20
-0.199587
11
0.220174
21
-0.199587
0
LINE
8
BLACK
6
CONTINUOUS
10
0.220174
20
-0.199587
11
0.219151
21
-0.19952
0
LINE
8
BLACK
6
CONTINUOUS
10
0.219151
20
-0.19952
11
0.218619
21
-0.19945
0
LINE
8
BLACK
6
CONTINUOUS
10
0.218619
20
-0.19945
11
0.218619
21
-0.19945
0
LINE
8
BLACK
6
CONTINUOUS
10
0.218619
20
-0.19945
11
0.21811
21
-0.199383
0
LINE
8
BLACK
6
CONTINUOUS
10
0.21811
20
-0.199383
11
0.217601
21
-0.19945
0
LINE
8
BLACK
6
CONTINUOUS
10
0.217601
20
-0.19945
11
0.216561
21
-0.199587
0
LINE
8
BLACK
6
CONTINUOUS
10
0.216561
20
-0.199587
11
0.211939
21
-0.200195
0
LINE
8
BLACK
6
CONTINUOUS
10
0.211939
20
-0.200195
11
0.206187
21
-0.202577
0
LINE
8
BLACK
6
CONTINUOUS
10
0.206187
20
-0.202577
11
0.201249
21
-0.206367
0
LINE
8
BLACK
6
CONTINUOUS
10
0.201249
20
-0.206367
11
0.20061
21
-0.2072
0
LINE
8
BLACK
6
CONTINUOUS
10
0.20061
20
-0.2072
11
0.199934
21
-0.20797
0
LINE
8
BLACK
6
CONTINUOUS
10
0.199934
20
-0.20797
11
0.118206
21
-0.289698
0
LINE
8
BLACK
6
CONTINUOUS
10
0.118206
20
-0.289698
11
0.117436
21
-0.290373
0
LINE
8
BLACK
6
CONTINUOUS
10
0.117436
20
-0.290373
11
0.116603
21
-0.291013
0
LINE
8
BLACK
6
CONTINUOUS
10
0.116603
20
-0.291013
11
0.116291
21
-0.29142
0
LINE
8
BLACK
6
CONTINUOUS
10
0.116291
20
-0.29142
11
0.11629
21
-0.29142
0
LINE
8
BLACK
6
CONTINUOUS
10
0.11629
20
-0.29142
11
0.115963
21
-0.291847
0
LINE
8
BLACK
6
CONTINUOUS
10
0.115963
20
-0.291847
11
0.115652
21
-0.292253
0
LINE
8
BLACK
6
CONTINUOUS
10
0.115652
20
-0.292253
11
0.112814
21
-0.295951
0
LINE
8
BLACK
6
CONTINUOUS
10
0.112814
20
-0.295951
11
0.110431
21
-0.301702
0
LINE
8
BLACK
6
CONTINUOUS
10
0.110431
20
-0.301702
11
0.109619
21
-0.307874
0
LINE
8
BLACK
6
CONTINUOUS
10
0.109619
20
-0.307874
11
0.109686
21
-0.308383
0
LINE
8
BLACK
6
CONTINUOUS
10
0.109686
20
-0.308383
11
0.109686
21
-0.308383
0
LINE
8
BLACK
6
CONTINUOUS
10
0.109686
20
-0.308383
11
0.109756
21
-0.308915
0
LINE
8
BLACK
6
CONTINUOUS
10
0.109756
20
-0.308915
11
0.109823
21
-0.309937
0
LINE
8
BLACK
6
CONTINUOUS
10
0.109823
20
-0.309937
11
0.109823
21
-0.394307
0
LINE
8
BLACK
6
CONTINUOUS
10
0.109823
20
-0.394307
11
0.109047
21
-0.397707
0
LINE
8
BLACK
6
CONTINUOUS
10
0.109047
20
-0.397707
11
0.108574
21
-0.398551
0
LINE
8
BLACK
6
CONTINUOUS
10
0.108574
20
-0.398551
11
0.105057
21
-0.404009
0
LINE
8
BLACK
6
CONTINUOUS
10
0.105057
20
-0.404009
11
0.102639
21
-0.410653
0
LINE
8
BLACK
6
CONTINUOUS
10
0.102639
20
-0.410653
11
0.102584
21
-0.411087
0
LINE
8
BLACK
6
CONTINUOUS
10
0.102584
20
-0.411087
11
0.102584
21
-0.411087
0
LINE
8
BLACK
6
CONTINUOUS
10
0.102584
20
-0.411087
11
0.102317
21
-0.4132
0
LINE
8
BLACK
6
CONTINUOUS
10
0.102317
20
-0.4132
11
0.101753
21
-0.417667
0
LINE
8
BLACK
6
CONTINUOUS
10
0.101753
20
-0.417667
11
0.101795
21
-0.418104
0
LINE
8
BLACK
6
CONTINUOUS
10
0.101795
20
-0.418104
11
0.101795
21
-0.418104
0
LINE
8
BLACK
6
CONTINUOUS
10
0.394646
20
-0.539528
11
0.382835
21
-0.539528
0
LINE
8
BLACK
6
CONTINUOUS
10
0.382835
20
-0.539528
11
0.382835
21
-0.548077
0
LINE
8
BLACK
6
CONTINUOUS
10
0.382835
20
-0.548077
11
0.430033
21
-0.595276
0
LINE
8
BLACK
6
CONTINUOUS
10
0.430033
20
-0.595276
11
0.696791
21
-0.595276
0
LINE
8
BLACK
6
CONTINUOUS
10
0.696791
20
-0.595276
11
0.697496
21
-0.593893
0
LINE
8
BLACK
6
CONTINUOUS
10
0.697496
20
-0.593893
11
0.70098
21
-0.590409
0
LINE
8
BLACK
6
CONTINUOUS
10
0.70098
20
-0.590409
11
0.70537
21
-0.588172
0
LINE
8
BLACK
6
CONTINUOUS
10
0.70537
20
-0.588172
11
0.710236
21
-0.587402
0
LINE
8
BLACK
6
CONTINUOUS
10
0.710236
20
-0.587402
11
0.715103
21
-0.588172
0
LINE
8
BLACK
6
CONTINUOUS
10
0.715103
20
-0.588172
11
0.719493
21
-0.590409
0
LINE
8
BLACK
6
CONTINUOUS
10
0.719493
20
-0.590409
11
0.722977
21
-0.593893
0
LINE
8
BLACK
6
CONTINUOUS
10
0.722977
20
-0.593893
11
0.725214
21
-0.598283
0
LINE
8
BLACK
6
CONTINUOUS
10
0.725214
20
-0.598283
11
0.725984
21
-0.60315
0
LINE
8
BLACK
6
CONTINUOUS
10
0.725984
20
-0.60315
11
0.725214
21
-0.608016
0
LINE
8
BLACK
6
CONTINUOUS
10
0.725214
20
-0.608016
11
0.722977
21
-0.612406
0
LINE
8
BLACK
6
CONTINUOUS
10
0.722977
20
-0.612406
11
0.719493
21
-0.61589
0
LINE
8
BLACK
6
CONTINUOUS
10
0.719493
20
-0.61589
11
0.715103
21
-0.618127
0
LINE
8
BLACK
6
CONTINUOUS
10
0.715103
20
-0.618127
11
0.710236
21
-0.618898
0
LINE
8
BLACK
6
CONTINUOUS
10
0.710236
20
-0.618898
11
0.70537
21
-0.618127
0
LINE
8
BLACK
6
CONTINUOUS
10
0.70537
20
-0.618127
11
0.70098
21
-0.61589
0
LINE
8
BLACK
6
CONTINUOUS
10
0.70098
20
-0.61589
11
0.697496
21
-0.612406
0
LINE
8
BLACK
6
CONTINUOUS
10
0.697496
20
-0.612406
11
0.696791
21
-0.611024
0
LINE
8
BLACK
6
CONTINUOUS
10
0.696791
20
-0.611024
11
0.426758
21
-0.611024
0
LINE
8
BLACK
6
CONTINUOUS
10
0.426758
20
-0.611024
11
0.425476
21
-0.610729
0
LINE
8
BLACK
6
CONTINUOUS
10
0.425476
20
-0.610729
11
0.424169
21
-0.610581
0
LINE
8
BLACK
6
CONTINUOUS
10
0.424169
20
-0.610581
11
0.423786
21
-0.61034
0
LINE
8
BLACK
6
CONTINUOUS
10
0.423786
20
-0.61034
11
0.423345
21
-0.610239
0
LINE
8
BLACK
6
CONTINUOUS
10
0.423345
20
-0.610239
11
0.422317
21
-0.609417
0
LINE
8
BLACK
6
CONTINUOUS
10
0.422317
20
-0.609417
11
0.421204
21
-0.608717
0
LINE
8
BLACK
6
CONTINUOUS
10
0.421204
20
-0.608717
11
0.369383
21
-0.556897
0
LINE
8
BLACK
6
CONTINUOUS
10
0.369383
20
-0.556897
11
0.368685
21
-0.555782
0
LINE
8
BLACK
6
CONTINUOUS
10
0.368685
20
-0.555782
11
0.367866
21
-0.554753
0
LINE
8
BLACK
6
CONTINUOUS
10
0.367866
20
-0.554753
11
0.367765
21
-0.554312
0
LINE
8
BLACK
6
CONTINUOUS
10
0.367765
20
-0.554312
11
0.367525
21
-0.553928
0
LINE
8
BLACK
6
CONTINUOUS
10
0.367525
20
-0.553928
11
0.367379
21
-0.552621
0
LINE
8
BLACK
6
CONTINUOUS
10
0.367379
20
-0.552621
11
0.367087
21
-0.551339
0
LINE
8
BLACK
6
CONTINUOUS
10
0.367087
20
-0.551339
11
0.367087
21
-0.539528
0
LINE
8
BLACK
6
CONTINUOUS
10
0.367087
20
-0.539528
11
0.355276
21
-0.539528
0
LINE
8
BLACK
6
CONTINUOUS
10
0.355276
20
-0.539528
11
0.355276
21
-0.440709
0
LINE
8
BLACK
6
CONTINUOUS
10
0.355276
20
-0.440709
11
0.394646
21
-0.440709
0
LINE
8
BLACK
6
CONTINUOUS
10
0.394646
20
-0.440709
11
0.394646
21
-0.539528
0
LINE
8
BLACK
6
CONTINUOUS
10
0.496965
20
-0.215649
11
0.498272
21
-0.215797
0
LINE
8
BLACK
6
CONTINUOUS
10
0.498272
20
-0.215797
11
0.498655
21
-0.216038
0
LINE
8
BLACK
6
CONTINUOUS
10
0.498655
20
-0.216038
11
0.499096
21
-0.216139
0
LINE
8
BLACK
6
CONTINUOUS
10
0.499096
20
-0.216139
11
0.500124
21
-0.216961
0
LINE
8
BLACK
6
CONTINUOUS
10
0.500124
20
-0.216961
11
0.501237
21
-0.217661
0
LINE
8
BLACK
6
CONTINUOUS
10
0.501237
20
-0.217661
11
0.580538
21
-0.296962
0
LINE
8
BLACK
6
CONTINUOUS
10
0.580538
20
-0.296962
11
0.581236
21
-0.298077
0
LINE
8
BLACK
6
CONTINUOUS
10
0.581236
20
-0.298077
11
0.582056
21
-0.299105
0
LINE
8
BLACK
6
CONTINUOUS
10
0.582056
20
-0.299105
11
0.582156
21
-0.299546
0
LINE
8
BLACK
6
CONTINUOUS
10
0.582156
20
-0.299546
11
0.582397
21
-0.29993
0
LINE
8
BLACK
6
CONTINUOUS
10
0.582397
20
-0.29993
11
0.582542
21
-0.301237
0
LINE
8
BLACK
6
CONTINUOUS
10
0.582542
20
-0.301237
11
0.582835
21
-0.30252
0
LINE
8
BLACK
6
CONTINUOUS
10
0.582835
20
-0.30252
11
0.582835
21
-0.440709
0
LINE
8
BLACK
6
CONTINUOUS
10
0.582835
20
-0.440709
11
0.594646
21
-0.440709
0
LINE
8
BLACK
6
CONTINUOUS
10
0.594646
20
-0.440709
11
0.594646
21
-0.539528
0
LINE
8
BLACK
6
CONTINUOUS
10
0.594646
20
-0.539528
11
0.555276
21
-0.539528
0
LINE
8
BLACK
6
CONTINUOUS
10
0.555276
20
-0.539528
11
0.555276
21
-0.440709
0
LINE
8
BLACK
6
CONTINUOUS
10
0.555276
20
-0.440709
11
0.567087
21
-0.440709
0
LINE
8
BLACK
6
CONTINUOUS
10
0.567087
20
-0.440709
11
0.567087
21
-0.305781
0
LINE
8
BLACK
6
CONTINUOUS
10
0.567087
20
-0.305781
11
0.492408
21
-0.231102
0
LINE
8
BLACK
6
CONTINUOUS
10
0.492408
20
-0.231102
11
0.221372
21
-0.231102
0
LINE
8
BLACK
6
CONTINUOUS
10
0.221372
20
-0.231102
11
0.141339
21
-0.311136
0
LINE
8
BLACK
6
CONTINUOUS
10
0.141339
20
-0.311136
11
0.141339
21
-0.404665
0
LINE
8
BLACK
6
CONTINUOUS
10
0.141339
20
-0.404665
11
0.142721
21
-0.40537
0
LINE
8
BLACK
6
CONTINUOUS
10
0.142721
20
-0.40537
11
0.146205
21
-0.408854
0
LINE
8
BLACK
6
CONTINUOUS
10
0.146205
20
-0.408854
11
0.148442
21
-0.413244
0
LINE
8
BLACK
6
CONTINUOUS
10
0.148442
20
-0.413244
11
0.149213
21
-0.41811
0
LINE
8
BLACK
6
CONTINUOUS
10
0.149213
20
-0.41811
11
0.148442
21
-0.422977
0
LINE
8
BLACK
6
CONTINUOUS
10
0.148442
20
-0.422977
11
0.146205
21
-0.427367
0
LINE
8
BLACK
6
CONTINUOUS
10
0.146205
20
-0.427367
11
0.142721
21
-0.430851
0
LINE
8
BLACK
6
CONTINUOUS
10
0.142721
20
-0.430851
11
0.138331
21
-0.433088
0
LINE
8
BLACK
6
CONTINUOUS
10
0.138331
20
-0.433088
11
0.133465
21
-0.433858
0
LINE
8
BLACK
6
CONTINUOUS
10
0.133465
20
-0.433858
11
0.128598
21
-0.433088
0
LINE
8
BLACK
6
CONTINUOUS
10
0.128598
20
-0.433088
11
0.124208
21
-0.430851
0
LINE
8
BLACK
6
CONTINUOUS
10
0.124208
20
-0.430851
11
0.120724
21
-0.427367
0
LINE
8
BLACK
6
CONTINUOUS
10
0.120724
20
-0.427367
11
0.118487
21
-0.422977
0
LINE
8
BLACK
6
CONTINUOUS
10
0.118487
20
-0.422977
11
0.117717
21
-0.41811
0
LINE
8
BLACK
6
CONTINUOUS
10
0.117717
20
-0.41811
11
0.118487
21
-0.413244
0
LINE
8
BLACK
6
CONTINUOUS
10
0.118487
20
-0.413244
11
0.120724
21
-0.408854
0
LINE
8
BLACK
6
CONTINUOUS
10
0.120724
20
-0.408854
11
0.124208
21
-0.40537
0
LINE
8
BLACK
6
CONTINUOUS
10
0.124208
20
-0.40537
11
0.125591
21
-0.404665
0
LINE
8
BLACK
6
CONTINUOUS
10
0.125591
20
-0.404665
11
0.125591
21
-0.30786
0
LINE
8
BLACK
6
CONTINUOUS
10
0.125591
20
-0.30786
11
0.125885
21
-0.306578
0
LINE
8
BLACK
6
CONTINUOUS
10
0.125885
20
-0.306578
11
0.126033
21
-0.305272
0
LINE
8
BLACK
6
CONTINUOUS
10
0.126033
20
-0.305272
11
0.126274
21
-0.304888
0
LINE
8
BLACK
6
CONTINUOUS
10
0.126274
20
-0.304888
11
0.126375
21
-0.304447
0
LINE
8
BLACK
6
CONTINUOUS
10
0.126375
20
-0.304447
11
0.127197
21
-0.30342
0
LINE
8
BLACK
6
CONTINUOUS
10
0.127197
20
-0.30342
11
0.127897
21
-0.302306
0
LINE
8
BLACK
6
CONTINUOUS
10
0.127897
20
-0.302306
11
0.212552
21
-0.217651
0
LINE
8
BLACK
6
CONTINUOUS
10
0.212552
20
-0.217651
11
0.213667
21
-0.216953
0
LINE
8
BLACK
6
CONTINUOUS
10
0.213667
20
-0.216953
11
0.214696
21
-0.216133
0
LINE
8
BLACK
6
CONTINUOUS
10
0.214696
20
-0.216133
11
0.215137
21
-0.216033
0
LINE
8
BLACK
6
CONTINUOUS
10
0.215137
20
-0.216033
11
0.215521
21
-0.215792
0
LINE
8
BLACK
6
CONTINUOUS
10
0.215521
20
-0.215792
11
0.216828
21
-0.215647
0
LINE
8
BLACK
6
CONTINUOUS
10
0.216828
20
-0.215647
11
0.21811
21
-0.215354
0
LINE
8
BLACK
6
CONTINUOUS
10
0.21811
20
-0.215354
11
0.495683
21
-0.215354
0
LINE
8
BLACK
6
CONTINUOUS
10
0.495683
20
-0.215354
11
0.496965
21
-0.215649
0
CIRCLE
8
BLACK
10
0.710236
20
-0.60315
40
0.00787402
0
CIRCLE
8
BLACK
10
-0.106693
20
-0.264567
40
0.00787402
0
CIRCLE
8
BLACK
10
0.133465
20
-0.41811
40
0.00787402
  0
ENDSEC
  0
EOF
