  0
SECTION
  2
HEADER
  9
$ANGBASE
  50
0.0
  9
$ANGDIR
  70
1
  9
$MEASUREMENT
  70
0
  0
ENDSEC
  0
SECTION
  2
TABLES
  0
TABLE
  2
LTYPE
  70
4
  0
LTYPE
  5
40F
  2
CONTINUOUS
  70
0
  3
Solid line
  72
65
  73
0
  40
0.0
  0
LTYPE
  5
410
  2
DASHDOT
 70
0
  3
Dash Dot ____ _ ____ _
 72
65
 73
4
 40
2.0
 49
1.25
 49
-0.25
 49
0.25
 49
-0.25
  0
LTYPE
  5
411
  2
DASHED
 70
0
  3
Dashed __ __ __ __ __
 72
65
 73
2
 40
0.75
 49
0.5
 49
-0.25
  0
LTYPE
  5
43B
  2
DOTTED
 70
0
  3
Dotted .  .  .  .
 72
65
 73
2
 40
0.2
 49
0.0
 49
-0.2
  0
ENDTAB
  0
TABLE
  2
STYLE
  70
4
  0
STYLE
  2
KICAD
  70
0
  40
0
  41
1
  42
1
  50
0
  71
0
  3
isocp.shx
  0
STYLE
  2
KICADB
  70
0
  40
0
  41
1
  42
1
  50
0
  71
0
  3
isocp.shx
  0
STYLE
  2
KICADI
  70
0
  40
0
  41
1
  42
1
  50
15
  71
0
  3
isocp.shx
  0
STYLE
  2
KICADBI
  70
0
  40
0
  41
1
  42
1
  50
15
  71
0
  3
isocp.shx
  0
ENDTAB
  0
TABLE
  2
LAYER
  70
1
  0
LAYER
  2
BLACK
  70
0
  62
7
  6
CONTINUOUS
  0
ENDTAB
  0
ENDSEC
  0
SECTION
  2
ENTITIES
0
LINE
8
BLACK
6
CONTINUOUS
10
0.0559969
20
-0.57235
11
0.0557087
21
-0.571654
0
LINE
8
BLACK
6
CONTINUOUS
10
0.0557087
20
-0.571654
11
0.0557087
21
-0.386614
0
LINE
8
BLACK
6
CONTINUOUS
10
0.0557087
20
-0.386614
11
0.0559969
21
-0.385918
0
LINE
8
BLACK
6
CONTINUOUS
10
0.0559969
20
-0.385918
11
0.0566929
21
-0.38563
0
LINE
8
BLACK
6
CONTINUOUS
10
0.0566929
20
-0.38563
11
0.170866
21
-0.38563
0
LINE
8
BLACK
6
CONTINUOUS
10
0.170866
20
-0.38563
11
0.171562
21
-0.385918
0
LINE
8
BLACK
6
CONTINUOUS
10
0.171562
20
-0.385918
11
0.17185
21
-0.386614
0
LINE
8
BLACK
6
CONTINUOUS
10
0.17185
20
-0.386614
11
0.17185
21
-0.571654
0
LINE
8
BLACK
6
CONTINUOUS
10
0.17185
20
-0.571654
11
0.171562
21
-0.57235
0
LINE
8
BLACK
6
CONTINUOUS
10
0.171562
20
-0.57235
11
0.170866
21
-0.572638
0
LINE
8
BLACK
6
CONTINUOUS
10
0.170866
20
-0.572638
11
0.0566929
21
-0.572638
0
LINE
8
BLACK
6
CONTINUOUS
10
0.0566929
20
-0.572638
11
0.0559969
21
-0.57235
0
LINE
8
BLACK
6
CONTINUOUS
10
0.0576772
20
-0.387598
11
0.0576772
21
-0.570669
0
LINE
8
BLACK
6
CONTINUOUS
10
0.0576772
20
-0.570669
11
0.169882
21
-0.570669
0
LINE
8
BLACK
6
CONTINUOUS
10
0.169882
20
-0.570669
11
0.169882
21
-0.387598
0
LINE
8
BLACK
6
CONTINUOUS
10
0.169882
20
-0.387598
11
0.0576772
21
-0.387598
0
LINE
8
BLACK
6
CONTINUOUS
10
-0.108676
20
-0.244045
11
-0.10507
21
-0.235341
0
LINE
8
BLACK
6
CONTINUOUS
10
-0.10507
20
-0.235341
11
-0.100148
21
-0.227308
0
LINE
8
BLACK
6
CONTINUOUS
10
-0.100148
20
-0.227308
11
-0.0940291
21
-0.220144
0
LINE
8
BLACK
6
CONTINUOUS
10
-0.0940291
20
-0.220144
11
-0.0868651
21
-0.214026
0
LINE
8
BLACK
6
CONTINUOUS
10
-0.0868651
20
-0.214026
11
-0.0788321
21
-0.209103
0
LINE
8
BLACK
6
CONTINUOUS
10
-0.0788321
20
-0.209103
11
-0.070128
21
-0.205498
0
LINE
8
BLACK
6
CONTINUOUS
10
-0.070128
20
-0.205498
11
-0.060967
21
-0.203298
0
LINE
8
BLACK
6
CONTINUOUS
10
-0.060967
20
-0.203298
11
-0.0515748
21
-0.202559
0
LINE
8
BLACK
6
CONTINUOUS
10
-0.0515748
20
-0.202559
11
-0.0421826
21
-0.203298
0
LINE
8
BLACK
6
CONTINUOUS
10
-0.0421826
20
-0.203298
11
-0.0330216
21
-0.205498
0
LINE
8
BLACK
6
CONTINUOUS
10
-0.0330216
20
-0.205498
11
-0.0243175
21
-0.209103
0
LINE
8
BLACK
6
CONTINUOUS
10
-0.0243175
20
-0.209103
11
-0.0162845
21
-0.214026
0
LINE
8
BLACK
6
CONTINUOUS
10
-0.0162845
20
-0.214026
11
-0.00912055
21
-0.220144
0
LINE
8
BLACK
6
CONTINUOUS
10
-0.00912055
20
-0.220144
11
-0.00300193
21
-0.227308
0
LINE
8
BLACK
6
CONTINUOUS
10
-0.00300193
20
-0.227308
11
0.00192067
21
-0.235341
0
LINE
8
BLACK
6
CONTINUOUS
10
0.00192067
20
-0.235341
11
0.00552602
21
-0.244045
0
LINE
8
BLACK
6
CONTINUOUS
10
0.00552602
20
-0.244045
11
0.00772539
21
-0.253206
0
LINE
8
BLACK
6
CONTINUOUS
10
0.00772539
20
-0.253206
11
0.00846457
21
-0.262598
0
LINE
8
BLACK
6
CONTINUOUS
10
0.00846457
20
-0.262598
11
0.00772539
21
-0.271991
0
LINE
8
BLACK
6
CONTINUOUS
10
0.00772539
20
-0.271991
11
0.00552602
21
-0.281152
0
LINE
8
BLACK
6
CONTINUOUS
10
0.00552602
20
-0.281152
11
0.00192067
21
-0.289856
0
LINE
8
BLACK
6
CONTINUOUS
10
0.00192067
20
-0.289856
11
-0.00300193
21
-0.297889
0
LINE
8
BLACK
6
CONTINUOUS
10
-0.00300193
20
-0.297889
11
-0.00912055
21
-0.305053
0
LINE
8
BLACK
6
CONTINUOUS
10
-0.00912055
20
-0.305053
11
-0.0162845
21
-0.311171
0
LINE
8
BLACK
6
CONTINUOUS
10
-0.0162845
20
-0.311171
11
-0.0243175
21
-0.316094
0
LINE
8
BLACK
6
CONTINUOUS
10
-0.0243175
20
-0.316094
11
-0.0330216
21
-0.319699
0
LINE
8
BLACK
6
CONTINUOUS
10
-0.0330216
20
-0.319699
11
-0.0421826
21
-0.321899
0
LINE
8
BLACK
6
CONTINUOUS
10
-0.0421826
20
-0.321899
11
-0.0515748
21
-0.322638
0
LINE
8
BLACK
6
CONTINUOUS
10
-0.0515748
20
-0.322638
11
-0.060967
21
-0.321899
0
LINE
8
BLACK
6
CONTINUOUS
10
-0.060967
20
-0.321899
11
-0.070128
21
-0.319699
0
LINE
8
BLACK
6
CONTINUOUS
10
-0.070128
20
-0.319699
11
-0.0788321
21
-0.316094
0
LINE
8
BLACK
6
CONTINUOUS
10
-0.0788321
20
-0.316094
11
-0.0868651
21
-0.311171
0
LINE
8
BLACK
6
CONTINUOUS
10
-0.0868651
20
-0.311171
11
-0.0940291
21
-0.305053
0
LINE
8
BLACK
6
CONTINUOUS
10
-0.0940291
20
-0.305053
11
-0.100148
21
-0.297889
0
LINE
8
BLACK
6
CONTINUOUS
10
-0.100148
20
-0.297889
11
-0.10507
21
-0.289856
0
LINE
8
BLACK
6
CONTINUOUS
10
-0.10507
20
-0.289856
11
-0.108676
21
-0.281152
0
LINE
8
BLACK
6
CONTINUOUS
10
-0.108676
20
-0.281152
11
-0.110875
21
-0.271991
0
LINE
8
BLACK
6
CONTINUOUS
10
-0.110875
20
-0.271991
11
-0.111614
21
-0.262598
0
LINE
8
BLACK
6
CONTINUOUS
10
-0.111614
20
-0.262598
11
-0.111502
21
-0.261175
0
LINE
8
BLACK
6
CONTINUOUS
10
-0.111502
20
-0.261175
11
-0.110875
21
-0.253206
0
LINE
8
BLACK
6
CONTINUOUS
10
-0.110875
20
-0.253206
11
-0.108676
21
-0.244045
0
LINE
8
BLACK
6
CONTINUOUS
10
-0.107178
20
-0.280024
11
-0.103586
21
-0.288871
0
LINE
8
BLACK
6
CONTINUOUS
10
-0.103586
20
-0.288871
11
-0.0985963
21
-0.297013
0
LINE
8
BLACK
6
CONTINUOUS
10
-0.0985963
20
-0.297013
11
-0.0923441
21
-0.304231
0
LINE
8
BLACK
6
CONTINUOUS
10
-0.0923441
20
-0.304231
11
-0.084997
21
-0.31033
0
LINE
8
BLACK
6
CONTINUOUS
10
-0.084997
20
-0.31033
11
-0.0767524
21
-0.315148
0
LINE
8
BLACK
6
CONTINUOUS
10
-0.0767524
20
-0.315148
11
-0.0678316
21
-0.318555
0
LINE
8
BLACK
6
CONTINUOUS
10
-0.0678316
20
-0.318555
11
-0.0584742
21
-0.320458
0
LINE
8
BLACK
6
CONTINUOUS
10
-0.0584742
20
-0.320458
11
-0.0489315
21
-0.320808
0
LINE
8
BLACK
6
CONTINUOUS
10
-0.0489315
20
-0.320808
11
-0.0394598
21
-0.319595
0
LINE
8
BLACK
6
CONTINUOUS
10
-0.0394598
20
-0.319595
11
-0.0303135
21
-0.316851
0
LINE
8
BLACK
6
CONTINUOUS
10
-0.0303135
20
-0.316851
11
-0.0217381
21
-0.31265
0
LINE
8
BLACK
6
CONTINUOUS
10
-0.0217381
20
-0.31265
11
-0.0139641
21
-0.307105
0
LINE
8
BLACK
6
CONTINUOUS
10
-0.0139641
20
-0.307105
11
-0.00720004
21
-0.300364
0
LINE
8
BLACK
6
CONTINUOUS
10
-0.00720004
20
-0.300364
11
-0.00162776
21
-0.29261
0
LINE
8
BLACK
6
CONTINUOUS
10
-0.00162776
20
-0.29261
11
0.00260315
21
-0.284049
0
LINE
8
BLACK
6
CONTINUOUS
10
0.00260315
20
-0.284049
11
0.00537909
21
-0.274912
0
LINE
8
BLACK
6
CONTINUOUS
10
0.00537909
20
-0.274912
11
0.00662551
21
-0.265445
0
LINE
8
BLACK
6
CONTINUOUS
10
0.00662551
20
-0.265445
11
0.00669508
21
-0.262598
0
LINE
8
BLACK
6
CONTINUOUS
10
0.00669508
20
-0.262598
11
0.00591264
21
-0.253081
0
LINE
8
BLACK
6
CONTINUOUS
10
0.00591264
20
-0.253081
11
0.00358634
21
-0.24382
0
LINE
8
BLACK
6
CONTINUOUS
10
0.00358634
20
-0.24382
11
-0.000221339
21
-0.235063
0
LINE
8
BLACK
6
CONTINUOUS
10
-0.000221339
20
-0.235063
11
-0.00540819
21
-0.227045
0
LINE
8
BLACK
6
CONTINUOUS
10
-0.00540819
20
-0.227045
11
-0.0118348
21
-0.219983
0
LINE
8
BLACK
6
CONTINUOUS
10
-0.0118348
20
-0.219983
11
-0.0193287
21
-0.214064
0
LINE
8
BLACK
6
CONTINUOUS
10
-0.0193287
20
-0.214064
11
-0.0276886
21
-0.209449
0
LINE
8
BLACK
6
CONTINUOUS
10
-0.0276886
20
-0.209449
11
-0.03669
21
-0.206262
0
LINE
8
BLACK
6
CONTINUOUS
10
-0.03669
20
-0.206262
11
-0.0460911
21
-0.204587
0
LINE
8
BLACK
6
CONTINUOUS
10
-0.0460911
20
-0.204587
11
-0.0556395
21
-0.20447
0
LINE
8
BLACK
6
CONTINUOUS
10
-0.0556395
20
-0.20447
11
-0.0650787
21
-0.205915
0
LINE
8
BLACK
6
CONTINUOUS
10
-0.0650787
20
-0.205915
11
-0.0741553
21
-0.208882
0
LINE
8
BLACK
6
CONTINUOUS
10
-0.0741553
20
-0.208882
11
-0.0826254
21
-0.213291
0
LINE
8
BLACK
6
CONTINUOUS
10
-0.0826254
20
-0.213291
11
-0.0902617
21
-0.219024
0
LINE
8
BLACK
6
CONTINUOUS
10
-0.0902617
20
-0.219024
11
-0.096859
21
-0.225928
0
LINE
8
BLACK
6
CONTINUOUS
10
-0.096859
20
-0.225928
11
-0.10224
21
-0.233816
0
LINE
8
BLACK
6
CONTINUOUS
10
-0.10224
20
-0.233816
11
-0.106261
21
-0.242478
0
LINE
8
BLACK
6
CONTINUOUS
10
-0.106261
20
-0.242478
11
-0.108813
21
-0.25168
0
LINE
8
BLACK
6
CONTINUOUS
10
-0.108813
20
-0.25168
11
-0.109827
21
-0.261175
0
LINE
8
BLACK
6
CONTINUOUS
10
-0.109827
20
-0.261175
11
-0.109278
21
-0.270708
0
LINE
8
BLACK
6
CONTINUOUS
10
-0.109278
20
-0.270708
11
-0.107178
21
-0.280024
  0
ENDSEC
  0
EOF
