  0
SECTION
  2
HEADER
  9
$ANGBASE
  50
0.0
  9
$ANGDIR
  70
1
  9
$MEASUREMENT
  70
0
  0
ENDSEC
  0
SECTION
  2
TABLES
  0
TABLE
  2
LTYPE
  70
4
  0
LTYPE
  5
40F
  2
CONTINUOUS
  70
0
  3
Solid line
  72
65
  73
0
  40
0.0
  0
LTYPE
  5
410
  2
DASHDOT
 70
0
  3
Dash Dot ____ _ ____ _
 72
65
 73
4
 40
2.0
 49
1.25
 49
-0.25
 49
0.25
 49
-0.25
  0
LTYPE
  5
411
  2
DASHED
 70
0
  3
Dashed __ __ __ __ __
 72
65
 73
2
 40
0.75
 49
0.5
 49
-0.25
  0
LTYPE
  5
43B
  2
DOTTED
 70
0
  3
Dotted .  .  .  .
 72
65
 73
2
 40
0.2
 49
0.0
 49
-0.2
  0
ENDTAB
  0
TABLE
  2
STYLE
  70
4
  0
STYLE
  2
KICAD
  70
0
  40
0
  41
1
  42
1
  50
0
  71
0
  3
isocp.shx
  0
STYLE
  2
KICADB
  70
0
  40
0
  41
1
  42
1
  50
0
  71
0
  3
isocp.shx
  0
STYLE
  2
KICADI
  70
0
  40
0
  41
1
  42
1
  50
15
  71
0
  3
isocp.shx
  0
STYLE
  2
KICADBI
  70
0
  40
0
  41
1
  42
1
  50
15
  71
0
  3
isocp.shx
  0
ENDTAB
  0
TABLE
  2
LAYER
  70
1
  0
LAYER
  2
BLACK
  70
0
  62
7
  6
CONTINUOUS
  0
ENDTAB
  0
ENDSEC
  0
SECTION
  2
ENTITIES
0
LINE
8
BLACK
6
CONTINUOUS
10
-0.0806806
20
-2.08143
11
-0.078519
21
-2.0836
0
LINE
8
BLACK
6
CONTINUOUS
10
-0.078519
20
-2.0836
11
-0.0777278
21
-2.08655
0
LINE
8
BLACK
6
CONTINUOUS
10
-0.0777278
20
-2.08655
11
-0.0777278
21
-2.1456
0
LINE
8
BLACK
6
CONTINUOUS
10
-0.0777278
20
-2.1456
11
-0.078519
21
-2.14856
0
LINE
8
BLACK
6
CONTINUOUS
10
-0.078519
20
-2.14856
11
-0.0806806
21
-2.15072
0
LINE
8
BLACK
6
CONTINUOUS
10
-0.0806806
20
-2.15072
11
-0.0836333
21
-2.15151
0
LINE
8
BLACK
6
CONTINUOUS
10
-0.0836333
20
-2.15151
11
-0.106131
21
-2.15151
0
LINE
8
BLACK
6
CONTINUOUS
10
-0.106131
20
-2.15151
11
-0.107442
21
-2.15116
0
LINE
8
BLACK
6
CONTINUOUS
10
-0.107442
20
-2.15116
11
-0.108771
21
-2.15089
0
LINE
8
BLACK
6
CONTINUOUS
10
-0.108771
20
-2.15089
11
-0.114396
21
-2.14807
0
LINE
8
BLACK
6
CONTINUOUS
10
-0.114396
20
-2.14807
11
-0.115107
21
-2.14744
0
LINE
8
BLACK
6
CONTINUOUS
10
-0.115107
20
-2.14744
11
-0.115931
21
-2.14697
0
LINE
8
BLACK
6
CONTINUOUS
10
-0.115931
20
-2.14697
11
-0.118743
21
-2.14416
0
LINE
8
BLACK
6
CONTINUOUS
10
-0.118743
20
-2.14416
11
-0.119218
21
-2.14333
0
LINE
8
BLACK
6
CONTINUOUS
10
-0.119218
20
-2.14333
11
-0.119849
21
-2.14262
0
LINE
8
BLACK
6
CONTINUOUS
10
-0.119849
20
-2.14262
11
-0.122661
21
-2.137
0
LINE
8
BLACK
6
CONTINUOUS
10
-0.122661
20
-2.137
11
-0.122933
21
-2.13567
0
LINE
8
BLACK
6
CONTINUOUS
10
-0.122933
20
-2.13567
11
-0.123285
21
-2.13435
0
LINE
8
BLACK
6
CONTINUOUS
10
-0.123285
20
-2.13435
11
-0.123285
21
-2.12592
0
LINE
8
BLACK
6
CONTINUOUS
10
-0.123285
20
-2.12592
11
-0.122933
21
-2.12461
0
LINE
8
BLACK
6
CONTINUOUS
10
-0.122933
20
-2.12461
11
-0.122661
21
-2.12328
0
LINE
8
BLACK
6
CONTINUOUS
10
-0.122661
20
-2.12328
11
-0.119849
21
-2.11765
0
LINE
8
BLACK
6
CONTINUOUS
10
-0.119849
20
-2.11765
11
-0.119218
21
-2.11694
0
LINE
8
BLACK
6
CONTINUOUS
10
-0.119218
20
-2.11694
11
-0.118743
21
-2.11612
0
LINE
8
BLACK
6
CONTINUOUS
10
-0.118743
20
-2.11612
11
-0.115931
21
-2.11331
0
LINE
8
BLACK
6
CONTINUOUS
10
-0.115931
20
-2.11331
11
-0.115877
21
-2.11328
0
LINE
8
BLACK
6
CONTINUOUS
10
-0.115877
20
-2.11328
11
-0.115931
21
-2.11322
0
LINE
8
BLACK
6
CONTINUOUS
10
-0.115931
20
-2.11322
11
-0.116406
21
-2.1124
0
LINE
8
BLACK
6
CONTINUOUS
10
-0.116406
20
-2.1124
11
-0.117037
21
-2.11169
0
LINE
8
BLACK
6
CONTINUOUS
10
-0.117037
20
-2.11169
11
-0.119849
21
-2.10606
0
LINE
8
BLACK
6
CONTINUOUS
10
-0.119849
20
-2.10606
11
-0.120121
21
-2.10473
0
LINE
8
BLACK
6
CONTINUOUS
10
-0.120121
20
-2.10473
11
-0.120472
21
-2.10342
0
LINE
8
BLACK
6
CONTINUOUS
10
-0.120472
20
-2.10342
11
-0.120472
21
-2.0978
0
LINE
8
BLACK
6
CONTINUOUS
10
-0.120472
20
-2.0978
11
-0.120121
21
-2.09649
0
LINE
8
BLACK
6
CONTINUOUS
10
-0.120121
20
-2.09649
11
-0.119849
21
-2.09516
0
LINE
8
BLACK
6
CONTINUOUS
10
-0.119849
20
-2.09516
11
-0.117037
21
-2.08953
0
LINE
8
BLACK
6
CONTINUOUS
10
-0.117037
20
-2.08953
11
-0.116406
21
-2.08882
0
LINE
8
BLACK
6
CONTINUOUS
10
-0.116406
20
-2.08882
11
-0.115931
21
-2.088
0
LINE
8
BLACK
6
CONTINUOUS
10
-0.115931
20
-2.088
11
-0.113118
21
-2.08518
0
LINE
8
BLACK
6
CONTINUOUS
10
-0.113118
20
-2.08518
11
-0.112295
21
-2.08471
0
LINE
8
BLACK
6
CONTINUOUS
10
-0.112295
20
-2.08471
11
-0.111584
21
-2.08408
0
LINE
8
BLACK
6
CONTINUOUS
10
-0.111584
20
-2.08408
11
-0.105959
21
-2.08127
0
LINE
8
BLACK
6
CONTINUOUS
10
-0.105959
20
-2.08127
11
-0.104629
21
-2.08099
0
LINE
8
BLACK
6
CONTINUOUS
10
-0.104629
20
-2.08099
11
-0.103318
21
-2.08064
0
LINE
8
BLACK
6
CONTINUOUS
10
-0.103318
20
-2.08064
11
-0.0836333
21
-2.08064
0
LINE
8
BLACK
6
CONTINUOUS
10
-0.0836333
20
-2.08064
11
-0.0806806
21
-2.08143
0
LINE
8
BLACK
6
CONTINUOUS
10
-0.108565
20
-2.12264
11
-0.109714
21
-2.12379
0
LINE
8
BLACK
6
CONTINUOUS
10
-0.109714
20
-2.12379
11
-0.111474
21
-2.12731
0
LINE
8
BLACK
6
CONTINUOUS
10
-0.111474
20
-2.12731
11
-0.111474
21
-2.13296
0
LINE
8
BLACK
6
CONTINUOUS
10
-0.111474
20
-2.13296
11
-0.109714
21
-2.13648
0
LINE
8
BLACK
6
CONTINUOUS
10
-0.109714
20
-2.13648
11
-0.108257
21
-2.13794
0
LINE
8
BLACK
6
CONTINUOUS
10
-0.108257
20
-2.13794
11
-0.104736
21
-2.1397
0
LINE
8
BLACK
6
CONTINUOUS
10
-0.104736
20
-2.1397
11
-0.0895388
21
-2.1397
0
LINE
8
BLACK
6
CONTINUOUS
10
-0.0895388
20
-2.1397
11
-0.0895388
21
-2.12058
0
LINE
8
BLACK
6
CONTINUOUS
10
-0.0895388
20
-2.12058
11
-0.10236
21
-2.12058
0
LINE
8
BLACK
6
CONTINUOUS
10
-0.10236
20
-2.12058
11
-0.108565
21
-2.12264
0
LINE
8
BLACK
6
CONTINUOUS
10
-0.105444
20
-2.09421
11
-0.106901
21
-2.09567
0
LINE
8
BLACK
6
CONTINUOUS
10
-0.106901
20
-2.09567
11
-0.108661
21
-2.09919
0
LINE
8
BLACK
6
CONTINUOUS
10
-0.108661
20
-2.09919
11
-0.108661
21
-2.10203
0
LINE
8
BLACK
6
CONTINUOUS
10
-0.108661
20
-2.10203
11
-0.106901
21
-2.10555
0
LINE
8
BLACK
6
CONTINUOUS
10
-0.106901
20
-2.10555
11
-0.105444
21
-2.107
0
LINE
8
BLACK
6
CONTINUOUS
10
-0.105444
20
-2.107
11
-0.101924
21
-2.10876
0
LINE
8
BLACK
6
CONTINUOUS
10
-0.101924
20
-2.10876
11
-0.0895388
21
-2.10876
0
LINE
8
BLACK
6
CONTINUOUS
10
-0.0895388
20
-2.10876
11
-0.0895388
21
-2.09245
0
LINE
8
BLACK
6
CONTINUOUS
10
-0.0895388
20
-2.09245
11
-0.101924
21
-2.09245
0
LINE
8
BLACK
6
CONTINUOUS
10
-0.101924
20
-2.09245
11
-0.105444
21
-2.09421
0
LINE
8
BLACK
6
CONTINUOUS
10
0.0177446
20
-2.08143
11
0.0199062
21
-2.0836
0
LINE
8
BLACK
6
CONTINUOUS
10
0.0199062
20
-2.0836
11
0.0206974
21
-2.08655
0
LINE
8
BLACK
6
CONTINUOUS
10
0.0206974
20
-2.08655
11
0.0206974
21
-2.1456
0
LINE
8
BLACK
6
CONTINUOUS
10
0.0206974
20
-2.1456
11
0.0199062
21
-2.14856
0
LINE
8
BLACK
6
CONTINUOUS
10
0.0199062
20
-2.14856
11
0.0177446
21
-2.15072
0
LINE
8
BLACK
6
CONTINUOUS
10
0.0177446
20
-2.15072
11
0.0147919
21
-2.15151
0
LINE
8
BLACK
6
CONTINUOUS
10
0.0147919
20
-2.15151
11
-0.0133296
21
-2.15151
0
LINE
8
BLACK
6
CONTINUOUS
10
-0.0133296
20
-2.15151
11
-0.0162824
21
-2.15072
0
LINE
8
BLACK
6
CONTINUOUS
10
-0.0162824
20
-2.15072
11
-0.0184439
21
-2.14856
0
LINE
8
BLACK
6
CONTINUOUS
10
-0.0184439
20
-2.14856
11
-0.0188742
21
-2.14695
0
LINE
8
BLACK
6
CONTINUOUS
10
-0.0188742
20
-2.14695
11
-0.0201597
21
-2.14952
0
LINE
8
BLACK
6
CONTINUOUS
10
-0.0201597
20
-2.14952
11
-0.0227107
21
-2.15121
0
LINE
8
BLACK
6
CONTINUOUS
10
-0.0227107
20
-2.15121
11
-0.0257622
21
-2.15139
0
LINE
8
BLACK
6
CONTINUOUS
10
-0.0257622
20
-2.15139
11
-0.0284964
21
-2.15002
0
LINE
8
BLACK
6
CONTINUOUS
10
-0.0284964
20
-2.15002
11
-0.0301807
21
-2.14747
0
LINE
8
BLACK
6
CONTINUOUS
10
-0.0301807
20
-2.14747
11
-0.0344589
21
-2.13464
0
LINE
8
BLACK
6
CONTINUOUS
10
-0.0344589
20
-2.13464
11
-0.0540676
21
-2.13464
0
LINE
8
BLACK
6
CONTINUOUS
10
-0.0540676
20
-2.13464
11
-0.0583459
21
-2.14747
0
LINE
8
BLACK
6
CONTINUOUS
10
-0.0583459
20
-2.14747
11
-0.0600302
21
-2.15002
0
LINE
8
BLACK
6
CONTINUOUS
10
-0.0600302
20
-2.15002
11
-0.0627644
21
-2.15139
0
LINE
8
BLACK
6
CONTINUOUS
10
-0.0627644
20
-2.15139
11
-0.0658158
21
-2.15121
0
LINE
8
BLACK
6
CONTINUOUS
10
-0.0658158
20
-2.15121
11
-0.0683668
21
-2.14952
0
LINE
8
BLACK
6
CONTINUOUS
10
-0.0683668
20
-2.14952
11
-0.0697339
21
-2.14679
0
LINE
8
BLACK
6
CONTINUOUS
10
-0.0697339
20
-2.14679
11
-0.0695507
21
-2.14374
0
LINE
8
BLACK
6
CONTINUOUS
10
-0.0695507
20
-2.14374
11
-0.0498657
21
-2.08468
0
LINE
8
BLACK
6
CONTINUOUS
10
-0.0498657
20
-2.08468
11
-0.0492122
21
-2.08369
0
LINE
8
BLACK
6
CONTINUOUS
10
-0.0492122
20
-2.08369
11
-0.0486818
21
-2.08263
0
LINE
8
BLACK
6
CONTINUOUS
10
-0.0486818
20
-2.08263
11
-0.0483805
21
-2.08243
0
LINE
8
BLACK
6
CONTINUOUS
10
-0.0483805
20
-2.08243
11
-0.0481814
21
-2.08213
0
LINE
8
BLACK
6
CONTINUOUS
10
-0.0481814
20
-2.08213
11
-0.0471204
21
-2.0816
0
LINE
8
BLACK
6
CONTINUOUS
10
-0.0471204
20
-2.0816
11
-0.0461307
21
-2.08095
0
LINE
8
BLACK
6
CONTINUOUS
10
-0.0461307
20
-2.08095
11
-0.0457703
21
-2.08092
0
LINE
8
BLACK
6
CONTINUOUS
10
-0.0457703
20
-2.08092
11
-0.0454472
21
-2.08076
0
LINE
8
BLACK
6
CONTINUOUS
10
-0.0454472
20
-2.08076
11
-0.0442631
21
-2.08083
0
LINE
8
BLACK
6
CONTINUOUS
10
-0.0442631
20
-2.08083
11
-0.0430793
21
-2.08076
0
LINE
8
BLACK
6
CONTINUOUS
10
-0.0430793
20
-2.08076
11
-0.0427563
21
-2.08092
0
LINE
8
BLACK
6
CONTINUOUS
10
-0.0427563
20
-2.08092
11
-0.0423958
21
-2.08095
0
LINE
8
BLACK
6
CONTINUOUS
10
-0.0423958
20
-2.08095
11
-0.0414059
21
-2.0816
0
LINE
8
BLACK
6
CONTINUOUS
10
-0.0414059
20
-2.0816
11
-0.0403451
21
-2.08213
0
LINE
8
BLACK
6
CONTINUOUS
10
-0.0403451
20
-2.08213
11
-0.0401462
21
-2.08243
0
LINE
8
BLACK
6
CONTINUOUS
10
-0.0401462
20
-2.08243
11
-0.0398447
21
-2.08263
0
LINE
8
BLACK
6
CONTINUOUS
10
-0.0398447
20
-2.08263
11
-0.0393142
21
-2.08369
0
LINE
8
BLACK
6
CONTINUOUS
10
-0.0393142
20
-2.08369
11
-0.0386608
21
-2.08468
0
LINE
8
BLACK
6
CONTINUOUS
10
-0.0386608
20
-2.08468
11
-0.0189757
21
-2.14374
0
LINE
8
BLACK
6
CONTINUOUS
10
-0.0189757
20
-2.14374
11
-0.0189317
21
-2.14447
0
LINE
8
BLACK
6
CONTINUOUS
10
-0.0189317
20
-2.14447
11
-0.0184439
21
-2.14265
0
LINE
8
BLACK
6
CONTINUOUS
10
-0.0184439
20
-2.14265
11
-0.0162824
21
-2.14049
0
LINE
8
BLACK
6
CONTINUOUS
10
-0.0162824
20
-2.14049
11
-0.0133296
21
-2.1397
0
LINE
8
BLACK
6
CONTINUOUS
10
-0.0133296
20
-2.1397
11
0.00888638
21
-2.1397
0
LINE
8
BLACK
6
CONTINUOUS
10
0.00888638
20
-2.1397
11
0.00888638
21
-2.08655
0
LINE
8
BLACK
6
CONTINUOUS
10
0.00888638
20
-2.08655
11
0.00967756
21
-2.0836
0
LINE
8
BLACK
6
CONTINUOUS
10
0.00967756
20
-2.0836
11
0.0118391
21
-2.08143
0
LINE
8
BLACK
6
CONTINUOUS
10
0.0118391
20
-2.08143
11
0.0147919
21
-2.08064
0
LINE
8
BLACK
6
CONTINUOUS
10
0.0147919
20
-2.08064
11
0.0177446
21
-2.08143
0
LINE
8
BLACK
6
CONTINUOUS
10
-0.0501306
20
-2.12283
11
-0.0383959
21
-2.12283
0
LINE
8
BLACK
6
CONTINUOUS
10
-0.0383959
20
-2.12283
11
-0.0442633
21
-2.10522
0
LINE
8
BLACK
6
CONTINUOUS
10
-0.0442633
20
-2.10522
11
-0.0501306
21
-2.12283
0
LINE
8
BLACK
6
CONTINUOUS
10
0.0835198
20
-2.08097
11
0.0847808
21
-2.0812
0
LINE
8
BLACK
6
CONTINUOUS
10
0.0847808
20
-2.0812
11
0.0849822
21
-2.08137
0
LINE
8
BLACK
6
CONTINUOUS
10
0.0849822
20
-2.08137
11
0.0852362
21
-2.08143
0
LINE
8
BLACK
6
CONTINUOUS
10
0.0852362
20
-2.08143
11
0.0861414
21
-2.08234
0
LINE
8
BLACK
6
CONTINUOUS
10
0.0861414
20
-2.08234
11
0.087122
21
-2.08316
0
LINE
8
BLACK
6
CONTINUOUS
10
0.087122
20
-2.08316
11
0.0872118
21
-2.08341
0
LINE
8
BLACK
6
CONTINUOUS
10
0.0872118
20
-2.08341
11
0.0873978
21
-2.0836
0
LINE
8
BLACK
6
CONTINUOUS
10
0.0873978
20
-2.0836
11
0.0877291
21
-2.08483
0
LINE
8
BLACK
6
CONTINUOUS
10
0.0877291
20
-2.08483
11
0.0881667
21
-2.08604
0
LINE
8
BLACK
6
CONTINUOUS
10
0.0881667
20
-2.08604
11
0.0881209
21
-2.08629
0
LINE
8
BLACK
6
CONTINUOUS
10
0.0881209
20
-2.08629
11
0.088189
21
-2.08655
0
LINE
8
BLACK
6
CONTINUOUS
10
0.088189
20
-2.08655
11
0.088189
21
-2.1456
0
LINE
8
BLACK
6
CONTINUOUS
10
0.088189
20
-2.1456
11
0.0873978
21
-2.14856
0
LINE
8
BLACK
6
CONTINUOUS
10
0.0873978
20
-2.14856
11
0.0852362
21
-2.15072
0
LINE
8
BLACK
6
CONTINUOUS
10
0.0852362
20
-2.15072
11
0.0822835
21
-2.15151
0
LINE
8
BLACK
6
CONTINUOUS
10
0.0822835
20
-2.15151
11
0.0793307
21
-2.15072
0
LINE
8
BLACK
6
CONTINUOUS
10
0.0793307
20
-2.15072
11
0.0771691
21
-2.14856
0
LINE
8
BLACK
6
CONTINUOUS
10
0.0771691
20
-2.14856
11
0.076378
21
-2.1456
0
LINE
8
BLACK
6
CONTINUOUS
10
0.076378
20
-2.1456
11
0.076378
21
-2.11317
0
LINE
8
BLACK
6
CONTINUOUS
10
0.076378
20
-2.11317
11
0.0679499
21
-2.13123
0
LINE
8
BLACK
6
CONTINUOUS
10
0.0679499
20
-2.13123
11
0.067615
21
-2.13163
0
LINE
8
BLACK
6
CONTINUOUS
10
0.067615
20
-2.13163
11
0.0674369
21
-2.13212
0
LINE
8
BLACK
6
CONTINUOUS
10
0.0674369
20
-2.13212
11
0.0666471
21
-2.13278
0
LINE
8
BLACK
6
CONTINUOUS
10
0.0666471
20
-2.13278
11
0.0659843
21
-2.13357
0
LINE
8
BLACK
6
CONTINUOUS
10
0.0659843
20
-2.13357
11
0.0654948
21
-2.13375
0
LINE
8
BLACK
6
CONTINUOUS
10
0.0654948
20
-2.13375
11
0.0650958
21
-2.13408
0
LINE
8
BLACK
6
CONTINUOUS
10
0.0650958
20
-2.13408
11
0.0640802
21
-2.13426
0
LINE
8
BLACK
6
CONTINUOUS
10
0.0640802
20
-2.13426
11
0.0631114
21
-2.13461
0
LINE
8
BLACK
6
CONTINUOUS
10
0.0631114
20
-2.13461
11
0.0625985
21
-2.13452
0
LINE
8
BLACK
6
CONTINUOUS
10
0.0625985
20
-2.13452
11
0.0620855
21
-2.13461
0
LINE
8
BLACK
6
CONTINUOUS
10
0.0620855
20
-2.13461
11
0.0611162
21
-2.13426
0
LINE
8
BLACK
6
CONTINUOUS
10
0.0611162
20
-2.13426
11
0.0601011
21
-2.13408
0
LINE
8
BLACK
6
CONTINUOUS
10
0.0601011
20
-2.13408
11
0.0597022
21
-2.13375
0
LINE
8
BLACK
6
CONTINUOUS
10
0.0597022
20
-2.13375
11
0.0592126
21
-2.13357
0
LINE
8
BLACK
6
CONTINUOUS
10
0.0592126
20
-2.13357
11
0.0585495
21
-2.13278
0
LINE
8
BLACK
6
CONTINUOUS
10
0.0585495
20
-2.13278
11
0.0577599
21
-2.13212
0
LINE
8
BLACK
6
CONTINUOUS
10
0.0577599
20
-2.13212
11
0.0575819
21
-2.13163
0
LINE
8
BLACK
6
CONTINUOUS
10
0.0575819
20
-2.13163
11
0.057247
21
-2.13123
0
LINE
8
BLACK
6
CONTINUOUS
10
0.057247
20
-2.13123
11
0.0488189
21
-2.11317
0
LINE
8
BLACK
6
CONTINUOUS
10
0.0488189
20
-2.11317
11
0.0488189
21
-2.1456
0
LINE
8
BLACK
6
CONTINUOUS
10
0.0488189
20
-2.1456
11
0.0480277
21
-2.14856
0
LINE
8
BLACK
6
CONTINUOUS
10
0.0480277
20
-2.14856
11
0.0458661
21
-2.15072
0
LINE
8
BLACK
6
CONTINUOUS
10
0.0458661
20
-2.15072
11
0.0429134
21
-2.15151
0
LINE
8
BLACK
6
CONTINUOUS
10
0.0429134
20
-2.15151
11
0.0399606
21
-2.15072
0
LINE
8
BLACK
6
CONTINUOUS
10
0.0399606
20
-2.15072
11
0.0377991
21
-2.14856
0
LINE
8
BLACK
6
CONTINUOUS
10
0.0377991
20
-2.14856
11
0.0370079
21
-2.1456
0
LINE
8
BLACK
6
CONTINUOUS
10
0.0370079
20
-2.1456
11
0.0370079
21
-2.08655
0
LINE
8
BLACK
6
CONTINUOUS
10
0.0370079
20
-2.08655
11
0.0370759
21
-2.08629
0
LINE
8
BLACK
6
CONTINUOUS
10
0.0370759
20
-2.08629
11
0.0370302
21
-2.08604
0
LINE
8
BLACK
6
CONTINUOUS
10
0.0370302
20
-2.08604
11
0.0374676
21
-2.08483
0
LINE
8
BLACK
6
CONTINUOUS
10
0.0374676
20
-2.08483
11
0.0377991
21
-2.0836
0
LINE
8
BLACK
6
CONTINUOUS
10
0.0377991
20
-2.0836
11
0.037985
21
-2.08341
0
LINE
8
BLACK
6
CONTINUOUS
10
0.037985
20
-2.08341
11
0.0380749
21
-2.08316
0
LINE
8
BLACK
6
CONTINUOUS
10
0.0380749
20
-2.08316
11
0.0390552
21
-2.08234
0
LINE
8
BLACK
6
CONTINUOUS
10
0.0390552
20
-2.08234
11
0.0399606
21
-2.08143
0
LINE
8
BLACK
6
CONTINUOUS
10
0.0399606
20
-2.08143
11
0.0402146
21
-2.08137
0
LINE
8
BLACK
6
CONTINUOUS
10
0.0402146
20
-2.08137
11
0.040416
21
-2.0812
0
LINE
8
BLACK
6
CONTINUOUS
10
0.040416
20
-2.0812
11
0.0416766
21
-2.08097
0
LINE
8
BLACK
6
CONTINUOUS
10
0.0416766
20
-2.08097
11
0.0429134
21
-2.08064
0
LINE
8
BLACK
6
CONTINUOUS
10
0.0429134
20
-2.08064
11
0.0431674
21
-2.08071
0
LINE
8
BLACK
6
CONTINUOUS
10
0.0431674
20
-2.08071
11
0.0434263
21
-2.08067
0
LINE
8
BLACK
6
CONTINUOUS
10
0.0434263
20
-2.08067
11
0.0446294
21
-2.0811
0
LINE
8
BLACK
6
CONTINUOUS
10
0.0446294
20
-2.0811
11
0.0458661
21
-2.08143
0
LINE
8
BLACK
6
CONTINUOUS
10
0.0458661
20
-2.08143
11
0.0460521
21
-2.08162
0
LINE
8
BLACK
6
CONTINUOUS
10
0.0460521
20
-2.08162
11
0.0462992
21
-2.08171
0
LINE
8
BLACK
6
CONTINUOUS
10
0.0462992
20
-2.08171
11
0.0471223
21
-2.08269
0
LINE
8
BLACK
6
CONTINUOUS
10
0.0471223
20
-2.08269
11
0.0480277
21
-2.0836
0
LINE
8
BLACK
6
CONTINUOUS
10
0.0480277
20
-2.0836
11
0.0480957
21
-2.08385
0
LINE
8
BLACK
6
CONTINUOUS
10
0.0480957
20
-2.08385
11
0.0482648
21
-2.08405
0
LINE
8
BLACK
6
CONTINUOUS
10
0.0482648
20
-2.08405
11
0.0625984
21
-2.11477
0
LINE
8
BLACK
6
CONTINUOUS
10
0.0625984
20
-2.11477
11
0.076932
21
-2.08405
0
LINE
8
BLACK
6
CONTINUOUS
10
0.076932
20
-2.08405
11
0.0771011
21
-2.08385
0
LINE
8
BLACK
6
CONTINUOUS
10
0.0771011
20
-2.08385
11
0.0771691
21
-2.0836
0
LINE
8
BLACK
6
CONTINUOUS
10
0.0771691
20
-2.0836
11
0.0780744
21
-2.08269
0
LINE
8
BLACK
6
CONTINUOUS
10
0.0780744
20
-2.08269
11
0.0788976
21
-2.08171
0
LINE
8
BLACK
6
CONTINUOUS
10
0.0788976
20
-2.08171
11
0.0791448
21
-2.08162
0
LINE
8
BLACK
6
CONTINUOUS
10
0.0791448
20
-2.08162
11
0.0793307
21
-2.08143
0
LINE
8
BLACK
6
CONTINUOUS
10
0.0793307
20
-2.08143
11
0.080567
21
-2.0811
0
LINE
8
BLACK
6
CONTINUOUS
10
0.080567
20
-2.0811
11
0.0817705
21
-2.08067
0
LINE
8
BLACK
6
CONTINUOUS
10
0.0817705
20
-2.08067
11
0.0820295
21
-2.08071
0
LINE
8
BLACK
6
CONTINUOUS
10
0.0820295
20
-2.08071
11
0.0822835
21
-2.08064
0
LINE
8
BLACK
6
CONTINUOUS
10
0.0822835
20
-2.08064
11
0.0835198
21
-2.08097
0
LINE
8
BLACK
6
CONTINUOUS
10
1.47764
20
-0.44252
11
1.47947
21
-0.444632
0
LINE
8
BLACK
6
CONTINUOUS
10
1.47947
20
-0.444632
11
1.47992
21
-0.446693
0
LINE
8
BLACK
6
CONTINUOUS
10
1.47992
20
-0.446693
11
1.47992
21
-1.11787
0
LINE
8
BLACK
6
CONTINUOUS
10
1.47992
20
-1.11787
11
1.47913
21
-1.12056
0
LINE
8
BLACK
6
CONTINUOUS
10
1.47913
20
-1.12056
11
1.47702
21
-1.12239
0
LINE
8
BLACK
6
CONTINUOUS
10
1.47702
20
-1.12239
11
1.47496
21
-1.12283
0
LINE
8
BLACK
6
CONTINUOUS
10
1.47496
20
-1.12283
11
0.693543
21
-1.12283
0
LINE
8
BLACK
6
CONTINUOUS
10
0.693543
20
-1.12283
11
0.690861
21
-1.12205
0
LINE
8
BLACK
6
CONTINUOUS
10
0.690861
20
-1.12205
11
0.689031
21
-1.11993
0
LINE
8
BLACK
6
CONTINUOUS
10
0.689031
20
-1.11993
11
0.688583
21
-1.11787
0
LINE
8
BLACK
6
CONTINUOUS
10
0.688583
20
-1.11787
11
0.688583
21
-0.446693
0
LINE
8
BLACK
6
CONTINUOUS
10
0.688583
20
-0.446693
11
0.68937
21
-0.444011
0
LINE
8
BLACK
6
CONTINUOUS
10
0.68937
20
-0.444011
11
0.691483
21
-0.442181
0
LINE
8
BLACK
6
CONTINUOUS
10
0.691483
20
-0.442181
11
0.693543
21
-0.441732
0
LINE
8
BLACK
6
CONTINUOUS
10
0.693543
20
-0.441732
11
1.47496
21
-0.441732
0
LINE
8
BLACK
6
CONTINUOUS
10
1.47496
20
-0.441732
11
1.47764
21
-0.44252
0
LINE
8
BLACK
6
CONTINUOUS
10
0.0205096
20
-0.683684
11
0.0338744
21
-0.686852
0
LINE
8
BLACK
6
CONTINUOUS
10
0.0338744
20
-0.686852
11
0.0467811
21
-0.691549
0
LINE
8
BLACK
6
CONTINUOUS
10
0.0467811
20
-0.691549
11
0.0590551
21
-0.697714
0
LINE
8
BLACK
6
CONTINUOUS
10
0.0590551
20
-0.697714
11
0.0705306
21
-0.705261
0
LINE
8
BLACK
6
CONTINUOUS
10
0.0705306
20
-0.705261
11
0.0810522
21
-0.71409
0
LINE
8
BLACK
6
CONTINUOUS
10
0.0810522
20
-0.71409
11
0.0904777
21
-0.72408
0
LINE
8
BLACK
6
CONTINUOUS
10
0.0904777
20
-0.72408
11
0.0986796
21
-0.735097
0
LINE
8
BLACK
6
CONTINUOUS
10
0.0986796
20
-0.735097
11
0.105547
21
-0.746992
0
LINE
8
BLACK
6
CONTINUOUS
10
0.105547
20
-0.746992
11
0.110987
21
-0.759604
0
LINE
8
BLACK
6
CONTINUOUS
10
0.110987
20
-0.759604
11
0.114927
21
-0.772762
0
LINE
8
BLACK
6
CONTINUOUS
10
0.114927
20
-0.772762
11
0.117312
21
-0.786288
0
LINE
8
BLACK
6
CONTINUOUS
10
0.117312
20
-0.786288
11
0.11811
21
-0.8
0
LINE
8
BLACK
6
CONTINUOUS
10
0.11811
20
-0.8
11
0.117312
21
-0.813712
0
LINE
8
BLACK
6
CONTINUOUS
10
0.117312
20
-0.813712
11
0.114927
21
-0.827238
0
LINE
8
BLACK
6
CONTINUOUS
10
0.114927
20
-0.827238
11
0.110987
21
-0.840396
0
LINE
8
BLACK
6
CONTINUOUS
10
0.110987
20
-0.840396
11
0.105547
21
-0.853008
0
LINE
8
BLACK
6
CONTINUOUS
10
0.105547
20
-0.853008
11
0.0986796
21
-0.864903
0
LINE
8
BLACK
6
CONTINUOUS
10
0.0986796
20
-0.864903
11
0.0904777
21
-0.87592
0
LINE
8
BLACK
6
CONTINUOUS
10
0.0904777
20
-0.87592
11
0.0810522
21
-0.88591
0
LINE
8
BLACK
6
CONTINUOUS
10
0.0810522
20
-0.88591
11
0.0705306
21
-0.894739
0
LINE
8
BLACK
6
CONTINUOUS
10
0.0705306
20
-0.894739
11
0.0590551
21
-0.902286
0
LINE
8
BLACK
6
CONTINUOUS
10
0.0590551
20
-0.902286
11
0.0467811
21
-0.908451
0
LINE
8
BLACK
6
CONTINUOUS
10
0.0467811
20
-0.908451
11
0.0338744
21
-0.913148
0
LINE
8
BLACK
6
CONTINUOUS
10
0.0338744
20
-0.913148
11
0.0205096
21
-0.916316
0
LINE
8
BLACK
6
CONTINUOUS
10
0.0205096
20
-0.916316
11
0.00686748
21
-0.91791
0
LINE
8
BLACK
6
CONTINUOUS
10
0.00686748
20
-0.91791
11
-0.00686748
21
-0.91791
0
LINE
8
BLACK
6
CONTINUOUS
10
-0.00686748
20
-0.91791
11
-0.0205096
21
-0.916316
0
LINE
8
BLACK
6
CONTINUOUS
10
-0.0205096
20
-0.916316
11
-0.0338744
21
-0.913148
0
LINE
8
BLACK
6
CONTINUOUS
10
-0.0338744
20
-0.913148
11
-0.0467811
21
-0.908451
0
LINE
8
BLACK
6
CONTINUOUS
10
-0.0467811
20
-0.908451
11
-0.0590551
21
-0.902286
0
LINE
8
BLACK
6
CONTINUOUS
10
-0.0590551
20
-0.902286
11
-0.0705306
21
-0.894739
0
LINE
8
BLACK
6
CONTINUOUS
10
-0.0705306
20
-0.894739
11
-0.0810522
21
-0.88591
0
LINE
8
BLACK
6
CONTINUOUS
10
-0.0810522
20
-0.88591
11
-0.0904777
21
-0.87592
0
LINE
8
BLACK
6
CONTINUOUS
10
-0.0904777
20
-0.87592
11
-0.0986796
21
-0.864903
0
LINE
8
BLACK
6
CONTINUOUS
10
-0.0986796
20
-0.864903
11
-0.105547
21
-0.853008
0
LINE
8
BLACK
6
CONTINUOUS
10
-0.105547
20
-0.853008
11
-0.110987
21
-0.840396
0
LINE
8
BLACK
6
CONTINUOUS
10
-0.110987
20
-0.840396
11
-0.114927
21
-0.827238
0
LINE
8
BLACK
6
CONTINUOUS
10
-0.114927
20
-0.827238
11
-0.117312
21
-0.813712
0
LINE
8
BLACK
6
CONTINUOUS
10
-0.117312
20
-0.813712
11
-0.11811
21
-0.8
0
LINE
8
BLACK
6
CONTINUOUS
10
-0.11811
20
-0.8
11
-0.117312
21
-0.786288
0
LINE
8
BLACK
6
CONTINUOUS
10
-0.117312
20
-0.786288
11
-0.114927
21
-0.772762
0
LINE
8
BLACK
6
CONTINUOUS
10
-0.114927
20
-0.772762
11
-0.110987
21
-0.759604
0
LINE
8
BLACK
6
CONTINUOUS
10
-0.110987
20
-0.759604
11
-0.105547
21
-0.746992
0
LINE
8
BLACK
6
CONTINUOUS
10
-0.105547
20
-0.746992
11
-0.0986796
21
-0.735097
0
LINE
8
BLACK
6
CONTINUOUS
10
-0.0986796
20
-0.735097
11
-0.0904777
21
-0.72408
0
LINE
8
BLACK
6
CONTINUOUS
10
-0.0904777
20
-0.72408
11
-0.0810522
21
-0.71409
0
LINE
8
BLACK
6
CONTINUOUS
10
-0.0810522
20
-0.71409
11
-0.0705306
21
-0.705261
0
LINE
8
BLACK
6
CONTINUOUS
10
-0.0705306
20
-0.705261
11
-0.0590551
21
-0.697714
0
LINE
8
BLACK
6
CONTINUOUS
10
-0.0590551
20
-0.697714
11
-0.0467811
21
-0.691549
0
LINE
8
BLACK
6
CONTINUOUS
10
-0.0467811
20
-0.691549
11
-0.0338744
21
-0.686852
0
LINE
8
BLACK
6
CONTINUOUS
10
-0.0338744
20
-0.686852
11
-0.0205096
21
-0.683684
0
LINE
8
BLACK
6
CONTINUOUS
10
-0.0205096
20
-0.683684
11
-0.00686748
21
-0.68209
0
LINE
8
BLACK
6
CONTINUOUS
10
-0.00686748
20
-0.68209
11
0.00686748
21
-0.68209
0
LINE
8
BLACK
6
CONTINUOUS
10
0.00686748
20
-0.68209
11
0.0205096
21
-0.683684
0
LINE
8
BLACK
6
CONTINUOUS
10
0.138331
20
-0.403133
11
0.140682
21
-0.404331
0
LINE
8
BLACK
6
CONTINUOUS
10
0.140682
20
-0.404331
11
0.15315
21
-0.404331
0
LINE
8
BLACK
6
CONTINUOUS
10
0.15315
20
-0.404331
11
0.15315
21
-0.553937
0
LINE
8
BLACK
6
CONTINUOUS
10
0.15315
20
-0.553937
11
0.0744094
21
-0.553937
0
LINE
8
BLACK
6
CONTINUOUS
10
0.0744094
20
-0.553937
11
0.0744094
21
-0.404331
0
LINE
8
BLACK
6
CONTINUOUS
10
0.0744094
20
-0.404331
11
0.126247
21
-0.404331
0
LINE
8
BLACK
6
CONTINUOUS
10
0.126247
20
-0.404331
11
0.128598
21
-0.403133
0
LINE
8
BLACK
6
CONTINUOUS
10
0.128598
20
-0.403133
11
0.133465
21
-0.402362
0
LINE
8
BLACK
6
CONTINUOUS
10
0.133465
20
-0.402362
11
0.138331
21
-0.403133
0
LINE
8
BLACK
6
CONTINUOUS
10
-0.0438941
20
-0.223985
11
-0.0365085
21
-0.226225
0
LINE
8
BLACK
6
CONTINUOUS
10
-0.0365085
20
-0.226225
11
-0.029702
21
-0.229863
0
LINE
8
BLACK
6
CONTINUOUS
10
-0.029702
20
-0.229863
11
-0.0237359
21
-0.23476
0
LINE
8
BLACK
6
CONTINUOUS
10
-0.0237359
20
-0.23476
11
-0.0188398
21
-0.240726
0
LINE
8
BLACK
6
CONTINUOUS
10
-0.0188398
20
-0.240726
11
-0.0152016
21
-0.247532
0
LINE
8
BLACK
6
CONTINUOUS
10
-0.0152016
20
-0.247532
11
-0.0129612
21
-0.254918
0
LINE
8
BLACK
6
CONTINUOUS
10
-0.0129612
20
-0.254918
11
-0.0122047
21
-0.262598
0
LINE
8
BLACK
6
CONTINUOUS
10
-0.0122047
20
-0.262598
11
-0.0129612
21
-0.270279
0
LINE
8
BLACK
6
CONTINUOUS
10
-0.0129612
20
-0.270279
11
-0.0152016
21
-0.277665
0
LINE
8
BLACK
6
CONTINUOUS
10
-0.0152016
20
-0.277665
11
-0.0188398
21
-0.284471
0
LINE
8
BLACK
6
CONTINUOUS
10
-0.0188398
20
-0.284471
11
-0.0237359
21
-0.290437
0
LINE
8
BLACK
6
CONTINUOUS
10
-0.0237359
20
-0.290437
11
-0.029702
21
-0.295333
0
LINE
8
BLACK
6
CONTINUOUS
10
-0.029702
20
-0.295333
11
-0.0365085
21
-0.298972
0
LINE
8
BLACK
6
CONTINUOUS
10
-0.0365085
20
-0.298972
11
-0.0438941
21
-0.301212
0
LINE
8
BLACK
6
CONTINUOUS
10
-0.0438941
20
-0.301212
11
-0.0515748
21
-0.301969
0
LINE
8
BLACK
6
CONTINUOUS
10
-0.0515748
20
-0.301969
11
-0.0592555
21
-0.301212
0
LINE
8
BLACK
6
CONTINUOUS
10
-0.0592555
20
-0.301212
11
-0.0666411
21
-0.298972
0
LINE
8
BLACK
6
CONTINUOUS
10
-0.0666411
20
-0.298972
11
-0.0734476
21
-0.295333
0
LINE
8
BLACK
6
CONTINUOUS
10
-0.0734476
20
-0.295333
11
-0.0794137
21
-0.290437
0
LINE
8
BLACK
6
CONTINUOUS
10
-0.0794137
20
-0.290437
11
-0.0843098
21
-0.284471
0
LINE
8
BLACK
6
CONTINUOUS
10
-0.0843098
20
-0.284471
11
-0.087948
21
-0.277665
0
LINE
8
BLACK
6
CONTINUOUS
10
-0.087948
20
-0.277665
11
-0.0901884
21
-0.270279
0
LINE
8
BLACK
6
CONTINUOUS
10
-0.0901884
20
-0.270279
11
-0.0904602
21
-0.26752
0
LINE
8
BLACK
6
CONTINUOUS
10
-0.0904602
20
-0.26752
11
-0.0914126
21
-0.26752
0
LINE
8
BLACK
6
CONTINUOUS
10
-0.0914126
20
-0.26752
11
-0.0917156
21
-0.269433
0
LINE
8
BLACK
6
CONTINUOUS
10
-0.0917156
20
-0.269433
11
-0.0939525
21
-0.273823
0
LINE
8
BLACK
6
CONTINUOUS
10
-0.0939525
20
-0.273823
11
-0.0974365
21
-0.277307
0
LINE
8
BLACK
6
CONTINUOUS
10
-0.0974365
20
-0.277307
11
-0.101826
21
-0.279544
0
LINE
8
BLACK
6
CONTINUOUS
10
-0.101826
20
-0.279544
11
-0.106693
21
-0.280315
0
LINE
8
BLACK
6
CONTINUOUS
10
-0.106693
20
-0.280315
11
-0.111559
21
-0.279544
0
LINE
8
BLACK
6
CONTINUOUS
10
-0.111559
20
-0.279544
11
-0.115949
21
-0.277307
0
LINE
8
BLACK
6
CONTINUOUS
10
-0.115949
20
-0.277307
11
-0.119433
21
-0.273823
0
LINE
8
BLACK
6
CONTINUOUS
10
-0.119433
20
-0.273823
11
-0.12167
21
-0.269433
0
LINE
8
BLACK
6
CONTINUOUS
10
-0.12167
20
-0.269433
11
-0.122441
21
-0.264567
0
LINE
8
BLACK
6
CONTINUOUS
10
-0.122441
20
-0.264567
11
-0.12167
21
-0.259701
0
LINE
8
BLACK
6
CONTINUOUS
10
-0.12167
20
-0.259701
11
-0.119433
21
-0.25531
0
LINE
8
BLACK
6
CONTINUOUS
10
-0.119433
20
-0.25531
11
-0.115949
21
-0.251826
0
LINE
8
BLACK
6
CONTINUOUS
10
-0.115949
20
-0.251826
11
-0.111559
21
-0.24959
0
LINE
8
BLACK
6
CONTINUOUS
10
-0.111559
20
-0.24959
11
-0.106693
21
-0.248819
0
LINE
8
BLACK
6
CONTINUOUS
10
-0.106693
20
-0.248819
11
-0.101826
21
-0.24959
0
LINE
8
BLACK
6
CONTINUOUS
10
-0.101826
20
-0.24959
11
-0.0974365
21
-0.251826
0
LINE
8
BLACK
6
CONTINUOUS
10
-0.0974365
20
-0.251826
11
-0.0939525
21
-0.25531
0
LINE
8
BLACK
6
CONTINUOUS
10
-0.0939525
20
-0.25531
11
-0.0927466
21
-0.257677
0
LINE
8
BLACK
6
CONTINUOUS
10
-0.0927466
20
-0.257677
11
-0.0904602
21
-0.257677
0
LINE
8
BLACK
6
CONTINUOUS
10
-0.0904602
20
-0.257677
11
-0.0901884
21
-0.254918
0
LINE
8
BLACK
6
CONTINUOUS
10
-0.0901884
20
-0.254918
11
-0.087948
21
-0.247532
0
LINE
8
BLACK
6
CONTINUOUS
10
-0.087948
20
-0.247532
11
-0.0843098
21
-0.240726
0
LINE
8
BLACK
6
CONTINUOUS
10
-0.0843098
20
-0.240726
11
-0.0794137
21
-0.23476
0
LINE
8
BLACK
6
CONTINUOUS
10
-0.0794137
20
-0.23476
11
-0.0734476
21
-0.229863
0
LINE
8
BLACK
6
CONTINUOUS
10
-0.0734476
20
-0.229863
11
-0.0666411
21
-0.226225
0
LINE
8
BLACK
6
CONTINUOUS
10
-0.0666411
20
-0.226225
11
-0.0592555
21
-0.223985
0
LINE
8
BLACK
6
CONTINUOUS
10
-0.0592555
20
-0.223985
11
-0.0515748
21
-0.223228
0
LINE
8
BLACK
6
CONTINUOUS
10
-0.0515748
20
-0.223228
11
-0.0438941
21
-0.223985
0
LINE
8
BLACK
6
CONTINUOUS
10
0.0205096
20
0.116316
11
0.0338744
21
0.113148
0
LINE
8
BLACK
6
CONTINUOUS
10
0.0338744
20
0.113148
11
0.0467811
21
0.108451
0
LINE
8
BLACK
6
CONTINUOUS
10
0.0467811
20
0.108451
11
0.0590551
21
0.102286
0
LINE
8
BLACK
6
CONTINUOUS
10
0.0590551
20
0.102286
11
0.0705306
21
0.094739
0
LINE
8
BLACK
6
CONTINUOUS
10
0.0705306
20
0.094739
11
0.0810522
21
0.0859103
0
LINE
8
BLACK
6
CONTINUOUS
10
0.0810522
20
0.0859103
11
0.0904777
21
0.0759198
0
LINE
8
BLACK
6
CONTINUOUS
10
0.0904777
20
0.0759198
11
0.0986796
21
0.0649026
0
LINE
8
BLACK
6
CONTINUOUS
10
0.0986796
20
0.0649026
11
0.105547
21
0.0530078
0
LINE
8
BLACK
6
CONTINUOUS
10
0.105547
20
0.0530078
11
0.110987
21
0.0403961
0
LINE
8
BLACK
6
CONTINUOUS
10
0.110987
20
0.0403961
11
0.114927
21
0.0272381
0
LINE
8
BLACK
6
CONTINUOUS
10
0.114927
20
0.0272381
11
0.117312
21
0.0137118
0
LINE
8
BLACK
6
CONTINUOUS
10
0.117312
20
0.0137118
11
0.11811
21
0
0
LINE
8
BLACK
6
CONTINUOUS
10
0.11811
20
0
11
0.117312
21
-0.0137118
0
LINE
8
BLACK
6
CONTINUOUS
10
0.117312
20
-0.0137118
11
0.114927
21
-0.0272381
0
LINE
8
BLACK
6
CONTINUOUS
10
0.114927
20
-0.0272381
11
0.110987
21
-0.0403961
0
LINE
8
BLACK
6
CONTINUOUS
10
0.110987
20
-0.0403961
11
0.105547
21
-0.0530078
0
LINE
8
BLACK
6
CONTINUOUS
10
0.105547
20
-0.0530078
11
0.0986796
21
-0.0649026
0
LINE
8
BLACK
6
CONTINUOUS
10
0.0986796
20
-0.0649026
11
0.0904777
21
-0.0759198
0
LINE
8
BLACK
6
CONTINUOUS
10
0.0904777
20
-0.0759198
11
0.0810522
21
-0.0859103
0
LINE
8
BLACK
6
CONTINUOUS
10
0.0810522
20
-0.0859103
11
0.0705306
21
-0.094739
0
LINE
8
BLACK
6
CONTINUOUS
10
0.0705306
20
-0.094739
11
0.0590551
21
-0.102286
0
LINE
8
BLACK
6
CONTINUOUS
10
0.0590551
20
-0.102286
11
0.0467811
21
-0.108451
0
LINE
8
BLACK
6
CONTINUOUS
10
0.0467811
20
-0.108451
11
0.0338744
21
-0.113148
0
LINE
8
BLACK
6
CONTINUOUS
10
0.0338744
20
-0.113148
11
0.0205096
21
-0.116316
0
LINE
8
BLACK
6
CONTINUOUS
10
0.0205096
20
-0.116316
11
0.00686748
21
-0.11791
0
LINE
8
BLACK
6
CONTINUOUS
10
0.00686748
20
-0.11791
11
-0.00686748
21
-0.11791
0
LINE
8
BLACK
6
CONTINUOUS
10
-0.00686748
20
-0.11791
11
-0.0205096
21
-0.116316
0
LINE
8
BLACK
6
CONTINUOUS
10
-0.0205096
20
-0.116316
11
-0.0338744
21
-0.113148
0
LINE
8
BLACK
6
CONTINUOUS
10
-0.0338744
20
-0.113148
11
-0.0467811
21
-0.108451
0
LINE
8
BLACK
6
CONTINUOUS
10
-0.0467811
20
-0.108451
11
-0.0590551
21
-0.102286
0
LINE
8
BLACK
6
CONTINUOUS
10
-0.0590551
20
-0.102286
11
-0.0705306
21
-0.094739
0
LINE
8
BLACK
6
CONTINUOUS
10
-0.0705306
20
-0.094739
11
-0.0810522
21
-0.0859103
0
LINE
8
BLACK
6
CONTINUOUS
10
-0.0810522
20
-0.0859103
11
-0.0904777
21
-0.0759198
0
LINE
8
BLACK
6
CONTINUOUS
10
-0.0904777
20
-0.0759198
11
-0.0986796
21
-0.0649026
0
LINE
8
BLACK
6
CONTINUOUS
10
-0.0986796
20
-0.0649026
11
-0.105547
21
-0.0530078
0
LINE
8
BLACK
6
CONTINUOUS
10
-0.105547
20
-0.0530078
11
-0.110987
21
-0.0403961
0
LINE
8
BLACK
6
CONTINUOUS
10
-0.110987
20
-0.0403961
11
-0.114927
21
-0.0272381
0
LINE
8
BLACK
6
CONTINUOUS
10
-0.114927
20
-0.0272381
11
-0.117312
21
-0.0137118
0
LINE
8
BLACK
6
CONTINUOUS
10
-0.117312
20
-0.0137118
11
-0.11811
21
0
0
LINE
8
BLACK
6
CONTINUOUS
10
-0.11811
20
0
11
-0.117312
21
0.0137118
0
LINE
8
BLACK
6
CONTINUOUS
10
-0.117312
20
0.0137118
11
-0.114927
21
0.0272381
0
LINE
8
BLACK
6
CONTINUOUS
10
-0.114927
20
0.0272381
11
-0.110987
21
0.0403961
0
LINE
8
BLACK
6
CONTINUOUS
10
-0.110987
20
0.0403961
11
-0.105547
21
0.0530078
0
LINE
8
BLACK
6
CONTINUOUS
10
-0.105547
20
0.0530078
11
-0.0986796
21
0.0649026
0
LINE
8
BLACK
6
CONTINUOUS
10
-0.0986796
20
0.0649026
11
-0.0904777
21
0.0759198
0
LINE
8
BLACK
6
CONTINUOUS
10
-0.0904777
20
0.0759198
11
-0.0810522
21
0.0859103
0
LINE
8
BLACK
6
CONTINUOUS
10
-0.0810522
20
0.0859103
11
-0.0705306
21
0.094739
0
LINE
8
BLACK
6
CONTINUOUS
10
-0.0705306
20
0.094739
11
-0.0590551
21
0.102286
0
LINE
8
BLACK
6
CONTINUOUS
10
-0.0590551
20
0.102286
11
-0.0467811
21
0.108451
0
LINE
8
BLACK
6
CONTINUOUS
10
-0.0467811
20
0.108451
11
-0.0338744
21
0.113148
0
LINE
8
BLACK
6
CONTINUOUS
10
-0.0338744
20
0.113148
11
-0.0205096
21
0.116316
0
LINE
8
BLACK
6
CONTINUOUS
10
-0.0205096
20
0.116316
11
-0.00686748
21
0.11791
0
LINE
8
BLACK
6
CONTINUOUS
10
-0.00686748
20
0.11791
11
0.00686748
21
0.11791
0
LINE
8
BLACK
6
CONTINUOUS
10
0.00686748
20
0.11791
11
0.0205096
21
0.116316
0
LINE
8
BLACK
6
CONTINUOUS
10
1.62051
20
0.116316
11
1.63387
21
0.113148
0
LINE
8
BLACK
6
CONTINUOUS
10
1.63387
20
0.113148
11
1.64678
21
0.108451
0
LINE
8
BLACK
6
CONTINUOUS
10
1.64678
20
0.108451
11
1.65906
21
0.102286
0
LINE
8
BLACK
6
CONTINUOUS
10
1.65906
20
0.102286
11
1.67053
21
0.094739
0
LINE
8
BLACK
6
CONTINUOUS
10
1.67053
20
0.094739
11
1.68105
21
0.0859103
0
LINE
8
BLACK
6
CONTINUOUS
10
1.68105
20
0.0859103
11
1.69048
21
0.0759198
0
LINE
8
BLACK
6
CONTINUOUS
10
1.69048
20
0.0759198
11
1.69868
21
0.0649026
0
LINE
8
BLACK
6
CONTINUOUS
10
1.69868
20
0.0649026
11
1.70555
21
0.0530078
0
LINE
8
BLACK
6
CONTINUOUS
10
1.70555
20
0.0530078
11
1.71099
21
0.0403961
0
LINE
8
BLACK
6
CONTINUOUS
10
1.71099
20
0.0403961
11
1.71493
21
0.0272381
0
LINE
8
BLACK
6
CONTINUOUS
10
1.71493
20
0.0272381
11
1.71731
21
0.0137118
0
LINE
8
BLACK
6
CONTINUOUS
10
1.71731
20
0.0137118
11
1.71811
21
0
0
LINE
8
BLACK
6
CONTINUOUS
10
1.71811
20
0
11
1.71731
21
-0.0137118
0
LINE
8
BLACK
6
CONTINUOUS
10
1.71731
20
-0.0137118
11
1.71493
21
-0.0272381
0
LINE
8
BLACK
6
CONTINUOUS
10
1.71493
20
-0.0272381
11
1.71099
21
-0.0403961
0
LINE
8
BLACK
6
CONTINUOUS
10
1.71099
20
-0.0403961
11
1.70555
21
-0.0530078
0
LINE
8
BLACK
6
CONTINUOUS
10
1.70555
20
-0.0530078
11
1.69868
21
-0.0649026
0
LINE
8
BLACK
6
CONTINUOUS
10
1.69868
20
-0.0649026
11
1.69048
21
-0.0759198
0
LINE
8
BLACK
6
CONTINUOUS
10
1.69048
20
-0.0759198
11
1.68105
21
-0.0859103
0
LINE
8
BLACK
6
CONTINUOUS
10
1.68105
20
-0.0859103
11
1.67053
21
-0.094739
0
LINE
8
BLACK
6
CONTINUOUS
10
1.67053
20
-0.094739
11
1.65906
21
-0.102286
0
LINE
8
BLACK
6
CONTINUOUS
10
1.65906
20
-0.102286
11
1.64678
21
-0.108451
0
LINE
8
BLACK
6
CONTINUOUS
10
1.64678
20
-0.108451
11
1.63387
21
-0.113148
0
LINE
8
BLACK
6
CONTINUOUS
10
1.63387
20
-0.113148
11
1.62051
21
-0.116316
0
LINE
8
BLACK
6
CONTINUOUS
10
1.62051
20
-0.116316
11
1.60687
21
-0.11791
0
LINE
8
BLACK
6
CONTINUOUS
10
1.60687
20
-0.11791
11
1.59313
21
-0.11791
0
LINE
8
BLACK
6
CONTINUOUS
10
1.59313
20
-0.11791
11
1.57949
21
-0.116316
0
LINE
8
BLACK
6
CONTINUOUS
10
1.57949
20
-0.116316
11
1.56613
21
-0.113148
0
LINE
8
BLACK
6
CONTINUOUS
10
1.56613
20
-0.113148
11
1.55322
21
-0.108451
0
LINE
8
BLACK
6
CONTINUOUS
10
1.55322
20
-0.108451
11
1.54094
21
-0.102286
0
LINE
8
BLACK
6
CONTINUOUS
10
1.54094
20
-0.102286
11
1.52947
21
-0.094739
0
LINE
8
BLACK
6
CONTINUOUS
10
1.52947
20
-0.094739
11
1.51895
21
-0.0859103
0
LINE
8
BLACK
6
CONTINUOUS
10
1.51895
20
-0.0859103
11
1.50952
21
-0.0759198
0
LINE
8
BLACK
6
CONTINUOUS
10
1.50952
20
-0.0759198
11
1.50132
21
-0.0649026
0
LINE
8
BLACK
6
CONTINUOUS
10
1.50132
20
-0.0649026
11
1.49445
21
-0.0530078
0
LINE
8
BLACK
6
CONTINUOUS
10
1.49445
20
-0.0530078
11
1.48901
21
-0.0403961
0
LINE
8
BLACK
6
CONTINUOUS
10
1.48901
20
-0.0403961
11
1.48507
21
-0.0272381
0
LINE
8
BLACK
6
CONTINUOUS
10
1.48507
20
-0.0272381
11
1.48269
21
-0.0137118
0
LINE
8
BLACK
6
CONTINUOUS
10
1.48269
20
-0.0137118
11
1.48189
21
0
0
LINE
8
BLACK
6
CONTINUOUS
10
1.48189
20
0
11
1.48269
21
0.0137118
0
LINE
8
BLACK
6
CONTINUOUS
10
1.48269
20
0.0137118
11
1.48507
21
0.0272381
0
LINE
8
BLACK
6
CONTINUOUS
10
1.48507
20
0.0272381
11
1.48901
21
0.0403961
0
LINE
8
BLACK
6
CONTINUOUS
10
1.48901
20
0.0403961
11
1.49445
21
0.0530078
0
LINE
8
BLACK
6
CONTINUOUS
10
1.49445
20
0.0530078
11
1.50132
21
0.0649026
0
LINE
8
BLACK
6
CONTINUOUS
10
1.50132
20
0.0649026
11
1.50952
21
0.0759198
0
LINE
8
BLACK
6
CONTINUOUS
10
1.50952
20
0.0759198
11
1.51895
21
0.0859103
0
LINE
8
BLACK
6
CONTINUOUS
10
1.51895
20
0.0859103
11
1.52947
21
0.094739
0
LINE
8
BLACK
6
CONTINUOUS
10
1.52947
20
0.094739
11
1.54094
21
0.102286
0
LINE
8
BLACK
6
CONTINUOUS
10
1.54094
20
0.102286
11
1.55322
21
0.108451
0
LINE
8
BLACK
6
CONTINUOUS
10
1.55322
20
0.108451
11
1.56613
21
0.113148
0
LINE
8
BLACK
6
CONTINUOUS
10
1.56613
20
0.113148
11
1.57949
21
0.116316
0
LINE
8
BLACK
6
CONTINUOUS
10
1.57949
20
0.116316
11
1.59313
21
0.11791
0
LINE
8
BLACK
6
CONTINUOUS
10
1.59313
20
0.11791
11
1.60687
21
0.11791
0
LINE
8
BLACK
6
CONTINUOUS
10
1.60687
20
0.11791
11
1.62051
21
0.116316
0
CIRCLE
8
BLACK
10
0
20
0
40
0.00688976
0
CIRCLE
8
BLACK
10
1.6
20
0
40
0.00688976
0
CIRCLE
8
BLACK
10
0
20
-0.8
40
0.00688976
0
CIRCLE
8
BLACK
10
0.710236
20
-0.60315
40
0.00787402
0
CIRCLE
8
BLACK
10
-0.106693
20
-0.264567
40
0.00787402
0
CIRCLE
8
BLACK
10
0.133465
20
-0.41811
40
0.00787402
  0
ENDSEC
  0
EOF
