  0
SECTION
  2
HEADER
  9
$ANGBASE
  50
0.0
  9
$ANGDIR
  70
1
  9
$MEASUREMENT
  70
0
  0
ENDSEC
  0
SECTION
  2
TABLES
  0
TABLE
  2
LTYPE
  70
4
  0
LTYPE
  5
40F
  2
CONTINUOUS
  70
0
  3
Solid line
  72
65
  73
0
  40
0.0
  0
LTYPE
  5
410
  2
DASHDOT
 70
0
  3
Dash Dot ____ _ ____ _
 72
65
 73
4
 40
2.0
 49
1.25
 49
-0.25
 49
0.25
 49
-0.25
  0
LTYPE
  5
411
  2
DASHED
 70
0
  3
Dashed __ __ __ __ __
 72
65
 73
2
 40
0.75
 49
0.5
 49
-0.25
  0
LTYPE
  5
43B
  2
DOTTED
 70
0
  3
Dotted .  .  .  .
 72
65
 73
2
 40
0.2
 49
0.0
 49
-0.2
  0
ENDTAB
  0
TABLE
  2
STYLE
  70
4
  0
STYLE
  2
KICAD
  70
0
  40
0
  41
1
  42
1
  50
0
  71
0
  3
isocp.shx
  0
STYLE
  2
KICADB
  70
0
  40
0
  41
1
  42
1
  50
0
  71
0
  3
isocp.shx
  0
STYLE
  2
KICADI
  70
0
  40
0
  41
1
  42
1
  50
15
  71
0
  3
isocp.shx
  0
STYLE
  2
KICADBI
  70
0
  40
0
  41
1
  42
1
  50
15
  71
0
  3
isocp.shx
  0
ENDTAB
  0
TABLE
  2
LAYER
  70
1
  0
LAYER
  2
BLACK
  70
0
  62
7
  6
CONTINUOUS
  0
ENDTAB
  0
ENDSEC
  0
SECTION
  2
ENTITIES
0
LINE
8
BLACK
6
CONTINUOUS
10
2.18554
20
0.189204
11
2.18827
21
0.18703
0
LINE
8
BLACK
6
CONTINUOUS
10
2.18827
20
0.18703
11
2.18978
21
0.183889
0
LINE
8
BLACK
6
CONTINUOUS
10
2.18978
20
0.183889
11
2.18998
21
0.182146
0
LINE
8
BLACK
6
CONTINUOUS
10
2.18998
20
0.182146
11
2.18998
21
-2.18215
0
LINE
8
BLACK
6
CONTINUOUS
10
2.18998
20
-2.18215
11
2.1892
21
-2.18554
0
LINE
8
BLACK
6
CONTINUOUS
10
2.1892
20
-2.18554
11
2.18703
21
-2.18827
0
LINE
8
BLACK
6
CONTINUOUS
10
2.18703
20
-2.18827
11
2.18389
21
-2.18978
0
LINE
8
BLACK
6
CONTINUOUS
10
2.18389
20
-2.18978
11
2.18215
21
-2.18998
0
LINE
8
BLACK
6
CONTINUOUS
10
2.18215
20
-2.18998
11
0.137241
21
-2.18998
0
LINE
8
BLACK
6
CONTINUOUS
10
0.137241
20
-2.18998
11
0.133842
21
-2.1892
0
LINE
8
BLACK
6
CONTINUOUS
10
0.133842
20
-2.1892
11
0.131116
21
-2.18703
0
LINE
8
BLACK
6
CONTINUOUS
10
0.131116
20
-2.18703
11
0.129603
21
-2.18389
0
LINE
8
BLACK
6
CONTINUOUS
10
0.129603
20
-2.18389
11
0.129407
21
-2.18215
0
LINE
8
BLACK
6
CONTINUOUS
10
0.129407
20
-2.18215
11
0.129407
21
-2.0504
0
LINE
8
BLACK
6
CONTINUOUS
10
0.129407
20
-2.0504
11
-0.16169
21
-2.0504
0
LINE
8
BLACK
6
CONTINUOUS
10
-0.16169
20
-2.0504
11
-0.16169
21
-2.18215
0
LINE
8
BLACK
6
CONTINUOUS
10
-0.16169
20
-2.18215
11
-0.162466
21
-2.18554
0
LINE
8
BLACK
6
CONTINUOUS
10
-0.162466
20
-2.18554
11
-0.16464
21
-2.18827
0
LINE
8
BLACK
6
CONTINUOUS
10
-0.16464
20
-2.18827
11
-0.167781
21
-2.18978
0
LINE
8
BLACK
6
CONTINUOUS
10
-0.167781
20
-2.18978
11
-0.169525
21
-2.18998
0
LINE
8
BLACK
6
CONTINUOUS
10
-0.169525
20
-2.18998
11
-0.182146
21
-2.18998
0
LINE
8
BLACK
6
CONTINUOUS
10
-0.182146
20
-2.18998
11
-0.185545
21
-2.1892
0
LINE
8
BLACK
6
CONTINUOUS
10
-0.185545
20
-2.1892
11
-0.188271
21
-2.18703
0
LINE
8
BLACK
6
CONTINUOUS
10
-0.188271
20
-2.18703
11
-0.189784
21
-2.18389
0
LINE
8
BLACK
6
CONTINUOUS
10
-0.189784
20
-2.18389
11
-0.18998
21
-2.18215
0
LINE
8
BLACK
6
CONTINUOUS
10
-0.18998
20
-2.18215
11
-0.18998
21
-0.540768
0
LINE
8
BLACK
6
CONTINUOUS
10
-0.18998
20
-0.540768
11
-0.18998
21
-0.41811
0
LINE
8
BLACK
6
CONTINUOUS
10
-0.18998
20
-0.41811
11
-0.18998
21
0.182146
0
LINE
8
BLACK
6
CONTINUOUS
10
-0.18998
20
0.182146
11
-0.189204
21
0.185545
0
LINE
8
BLACK
6
CONTINUOUS
10
-0.189204
20
0.185545
11
-0.18703
21
0.188271
0
LINE
8
BLACK
6
CONTINUOUS
10
-0.18703
20
0.188271
11
-0.183889
21
0.189784
0
LINE
8
BLACK
6
CONTINUOUS
10
-0.183889
20
0.189784
11
-0.182146
21
0.18998
0
LINE
8
BLACK
6
CONTINUOUS
10
-0.182146
20
0.18998
11
2.18215
21
0.18998
0
LINE
8
BLACK
6
CONTINUOUS
10
2.18215
20
0.18998
11
2.18554
21
0.189204
0
LINE
8
BLACK
6
CONTINUOUS
10
0.394646
20
-0.539528
11
0.382835
21
-0.539528
0
LINE
8
BLACK
6
CONTINUOUS
10
0.382835
20
-0.539528
11
0.382835
21
-0.548077
0
LINE
8
BLACK
6
CONTINUOUS
10
0.382835
20
-0.548077
11
0.430033
21
-0.595276
0
LINE
8
BLACK
6
CONTINUOUS
10
0.430033
20
-0.595276
11
0.696791
21
-0.595276
0
LINE
8
BLACK
6
CONTINUOUS
10
0.696791
20
-0.595276
11
0.697496
21
-0.593893
0
LINE
8
BLACK
6
CONTINUOUS
10
0.697496
20
-0.593893
11
0.70098
21
-0.590409
0
LINE
8
BLACK
6
CONTINUOUS
10
0.70098
20
-0.590409
11
0.70537
21
-0.588172
0
LINE
8
BLACK
6
CONTINUOUS
10
0.70537
20
-0.588172
11
0.710236
21
-0.587402
0
LINE
8
BLACK
6
CONTINUOUS
10
0.710236
20
-0.587402
11
0.715103
21
-0.588172
0
LINE
8
BLACK
6
CONTINUOUS
10
0.715103
20
-0.588172
11
0.719493
21
-0.590409
0
LINE
8
BLACK
6
CONTINUOUS
10
0.719493
20
-0.590409
11
0.722977
21
-0.593893
0
LINE
8
BLACK
6
CONTINUOUS
10
0.722977
20
-0.593893
11
0.725214
21
-0.598283
0
LINE
8
BLACK
6
CONTINUOUS
10
0.725214
20
-0.598283
11
0.725984
21
-0.60315
0
LINE
8
BLACK
6
CONTINUOUS
10
0.725984
20
-0.60315
11
0.725214
21
-0.608016
0
LINE
8
BLACK
6
CONTINUOUS
10
0.725214
20
-0.608016
11
0.722977
21
-0.612406
0
LINE
8
BLACK
6
CONTINUOUS
10
0.722977
20
-0.612406
11
0.719493
21
-0.61589
0
LINE
8
BLACK
6
CONTINUOUS
10
0.719493
20
-0.61589
11
0.715103
21
-0.618127
0
LINE
8
BLACK
6
CONTINUOUS
10
0.715103
20
-0.618127
11
0.710236
21
-0.618898
0
LINE
8
BLACK
6
CONTINUOUS
10
0.710236
20
-0.618898
11
0.70537
21
-0.618127
0
LINE
8
BLACK
6
CONTINUOUS
10
0.70537
20
-0.618127
11
0.70098
21
-0.61589
0
LINE
8
BLACK
6
CONTINUOUS
10
0.70098
20
-0.61589
11
0.697496
21
-0.612406
0
LINE
8
BLACK
6
CONTINUOUS
10
0.697496
20
-0.612406
11
0.696791
21
-0.611024
0
LINE
8
BLACK
6
CONTINUOUS
10
0.696791
20
-0.611024
11
0.426772
21
-0.611024
0
LINE
8
BLACK
6
CONTINUOUS
10
0.426772
20
-0.611024
11
0.425484
21
-0.61073
0
LINE
8
BLACK
6
CONTINUOUS
10
0.425484
20
-0.61073
11
0.424171
21
-0.610582
0
LINE
8
BLACK
6
CONTINUOUS
10
0.424171
20
-0.610582
11
0.423792
21
-0.610344
0
LINE
8
BLACK
6
CONTINUOUS
10
0.423792
20
-0.610344
11
0.423355
21
-0.610244
0
LINE
8
BLACK
6
CONTINUOUS
10
0.423355
20
-0.610244
11
0.422322
21
-0.60942
0
LINE
8
BLACK
6
CONTINUOUS
10
0.422322
20
-0.60942
11
0.421204
21
-0.608717
0
LINE
8
BLACK
6
CONTINUOUS
10
0.421204
20
-0.608717
11
0.369393
21
-0.556906
0
LINE
8
BLACK
6
CONTINUOUS
10
0.369393
20
-0.556906
11
0.36869
21
-0.555788
0
LINE
8
BLACK
6
CONTINUOUS
10
0.36869
20
-0.555788
11
0.367866
21
-0.554755
0
LINE
8
BLACK
6
CONTINUOUS
10
0.367866
20
-0.554755
11
0.367767
21
-0.554318
0
LINE
8
BLACK
6
CONTINUOUS
10
0.367767
20
-0.554318
11
0.367528
21
-0.553939
0
LINE
8
BLACK
6
CONTINUOUS
10
0.367528
20
-0.553939
11
0.367381
21
-0.552626
0
LINE
8
BLACK
6
CONTINUOUS
10
0.367381
20
-0.552626
11
0.367087
21
-0.551339
0
LINE
8
BLACK
6
CONTINUOUS
10
0.367087
20
-0.551339
11
0.367087
21
-0.539528
0
LINE
8
BLACK
6
CONTINUOUS
10
0.367087
20
-0.539528
11
0.355276
21
-0.539528
0
LINE
8
BLACK
6
CONTINUOUS
10
0.355276
20
-0.539528
11
0.355276
21
-0.440709
0
LINE
8
BLACK
6
CONTINUOUS
10
0.355276
20
-0.440709
11
0.394646
21
-0.440709
0
LINE
8
BLACK
6
CONTINUOUS
10
0.394646
20
-0.440709
11
0.394646
21
-0.539528
0
LINE
8
BLACK
6
CONTINUOUS
10
0.496957
20
-0.215648
11
0.49827
21
-0.215796
0
LINE
8
BLACK
6
CONTINUOUS
10
0.49827
20
-0.215796
11
0.498649
21
-0.216034
0
LINE
8
BLACK
6
CONTINUOUS
10
0.498649
20
-0.216034
11
0.499086
21
-0.216134
0
LINE
8
BLACK
6
CONTINUOUS
10
0.499086
20
-0.216134
11
0.500119
21
-0.216958
0
LINE
8
BLACK
6
CONTINUOUS
10
0.500119
20
-0.216958
11
0.501237
21
-0.217661
0
LINE
8
BLACK
6
CONTINUOUS
10
0.501237
20
-0.217661
11
0.580528
21
-0.296952
0
LINE
8
BLACK
6
CONTINUOUS
10
0.580528
20
-0.296952
11
0.581231
21
-0.29807
0
LINE
8
BLACK
6
CONTINUOUS
10
0.581231
20
-0.29807
11
0.582055
21
-0.299103
0
LINE
8
BLACK
6
CONTINUOUS
10
0.582055
20
-0.299103
11
0.582155
21
-0.29954
0
LINE
8
BLACK
6
CONTINUOUS
10
0.582155
20
-0.29954
11
0.582393
21
-0.299919
0
LINE
8
BLACK
6
CONTINUOUS
10
0.582393
20
-0.299919
11
0.582541
21
-0.301232
0
LINE
8
BLACK
6
CONTINUOUS
10
0.582541
20
-0.301232
11
0.582835
21
-0.30252
0
LINE
8
BLACK
6
CONTINUOUS
10
0.582835
20
-0.30252
11
0.582835
21
-0.440709
0
LINE
8
BLACK
6
CONTINUOUS
10
0.582835
20
-0.440709
11
0.594646
21
-0.440709
0
LINE
8
BLACK
6
CONTINUOUS
10
0.594646
20
-0.440709
11
0.594646
21
-0.539528
0
LINE
8
BLACK
6
CONTINUOUS
10
0.594646
20
-0.539528
11
0.555276
21
-0.539528
0
LINE
8
BLACK
6
CONTINUOUS
10
0.555276
20
-0.539528
11
0.555276
21
-0.440709
0
LINE
8
BLACK
6
CONTINUOUS
10
0.555276
20
-0.440709
11
0.567087
21
-0.440709
0
LINE
8
BLACK
6
CONTINUOUS
10
0.567087
20
-0.440709
11
0.567087
21
-0.305781
0
LINE
8
BLACK
6
CONTINUOUS
10
0.567087
20
-0.305781
11
0.492408
21
-0.231102
0
LINE
8
BLACK
6
CONTINUOUS
10
0.492408
20
-0.231102
11
0.221372
21
-0.231102
0
LINE
8
BLACK
6
CONTINUOUS
10
0.221372
20
-0.231102
11
0.141339
21
-0.311136
0
LINE
8
BLACK
6
CONTINUOUS
10
0.141339
20
-0.311136
11
0.141339
21
-0.404665
0
LINE
8
BLACK
6
CONTINUOUS
10
0.141339
20
-0.404665
11
0.142721
21
-0.40537
0
LINE
8
BLACK
6
CONTINUOUS
10
0.142721
20
-0.40537
11
0.146205
21
-0.408854
0
LINE
8
BLACK
6
CONTINUOUS
10
0.146205
20
-0.408854
11
0.148442
21
-0.413244
0
LINE
8
BLACK
6
CONTINUOUS
10
0.148442
20
-0.413244
11
0.149213
21
-0.41811
0
LINE
8
BLACK
6
CONTINUOUS
10
0.149213
20
-0.41811
11
0.148442
21
-0.422977
0
LINE
8
BLACK
6
CONTINUOUS
10
0.148442
20
-0.422977
11
0.146205
21
-0.427367
0
LINE
8
BLACK
6
CONTINUOUS
10
0.146205
20
-0.427367
11
0.142721
21
-0.430851
0
LINE
8
BLACK
6
CONTINUOUS
10
0.142721
20
-0.430851
11
0.138331
21
-0.433088
0
LINE
8
BLACK
6
CONTINUOUS
10
0.138331
20
-0.433088
11
0.133465
21
-0.433858
0
LINE
8
BLACK
6
CONTINUOUS
10
0.133465
20
-0.433858
11
0.128598
21
-0.433088
0
LINE
8
BLACK
6
CONTINUOUS
10
0.128598
20
-0.433088
11
0.124208
21
-0.430851
0
LINE
8
BLACK
6
CONTINUOUS
10
0.124208
20
-0.430851
11
0.120724
21
-0.427367
0
LINE
8
BLACK
6
CONTINUOUS
10
0.120724
20
-0.427367
11
0.118487
21
-0.422977
0
LINE
8
BLACK
6
CONTINUOUS
10
0.118487
20
-0.422977
11
0.117717
21
-0.41811
0
LINE
8
BLACK
6
CONTINUOUS
10
0.117717
20
-0.41811
11
0.118487
21
-0.413244
0
LINE
8
BLACK
6
CONTINUOUS
10
0.118487
20
-0.413244
11
0.120724
21
-0.408854
0
LINE
8
BLACK
6
CONTINUOUS
10
0.120724
20
-0.408854
11
0.124208
21
-0.40537
0
LINE
8
BLACK
6
CONTINUOUS
10
0.124208
20
-0.40537
11
0.125591
21
-0.404665
0
LINE
8
BLACK
6
CONTINUOUS
10
0.125591
20
-0.404665
11
0.125591
21
-0.307874
0
LINE
8
BLACK
6
CONTINUOUS
10
0.125591
20
-0.307874
11
0.125884
21
-0.306586
0
LINE
8
BLACK
6
CONTINUOUS
10
0.125884
20
-0.306586
11
0.126032
21
-0.305273
0
LINE
8
BLACK
6
CONTINUOUS
10
0.126032
20
-0.305273
11
0.126271
21
-0.304894
0
LINE
8
BLACK
6
CONTINUOUS
10
0.126271
20
-0.304894
11
0.12637
21
-0.304458
0
LINE
8
BLACK
6
CONTINUOUS
10
0.12637
20
-0.304458
11
0.127194
21
-0.303425
0
LINE
8
BLACK
6
CONTINUOUS
10
0.127194
20
-0.303425
11
0.127897
21
-0.302306
0
LINE
8
BLACK
6
CONTINUOUS
10
0.127897
20
-0.302306
11
0.212542
21
-0.217661
0
LINE
8
BLACK
6
CONTINUOUS
10
0.212542
20
-0.217661
11
0.213661
21
-0.216958
0
LINE
8
BLACK
6
CONTINUOUS
10
0.213661
20
-0.216958
11
0.214694
21
-0.216134
0
LINE
8
BLACK
6
CONTINUOUS
10
0.214694
20
-0.216134
11
0.21513
21
-0.216034
0
LINE
8
BLACK
6
CONTINUOUS
10
0.21513
20
-0.216034
11
0.21551
21
-0.215796
0
LINE
8
BLACK
6
CONTINUOUS
10
0.21551
20
-0.215796
11
0.216822
21
-0.215648
0
LINE
8
BLACK
6
CONTINUOUS
10
0.216822
20
-0.215648
11
0.21811
21
-0.215354
0
LINE
8
BLACK
6
CONTINUOUS
10
0.21811
20
-0.215354
11
0.495669
21
-0.215354
0
LINE
8
BLACK
6
CONTINUOUS
10
0.495669
20
-0.215354
11
0.496957
21
-0.215648
0
LINE
8
BLACK
6
CONTINUOUS
10
0.434409
20
-0.410846
11
0.434812
21
-0.414199
0
LINE
8
BLACK
6
CONTINUOUS
10
0.434812
20
-0.414199
11
0.436916
21
-0.419535
0
LINE
8
BLACK
6
CONTINUOUS
10
0.436916
20
-0.419535
11
0.436916
21
-0.419536
0
LINE
8
BLACK
6
CONTINUOUS
10
0.436916
20
-0.419536
11
0.440382
21
-0.424106
0
LINE
8
BLACK
6
CONTINUOUS
10
0.440382
20
-0.424106
11
0.440382
21
-0.424106
0
LINE
8
BLACK
6
CONTINUOUS
10
0.440382
20
-0.424106
11
0.444953
21
-0.427572
0
LINE
8
BLACK
6
CONTINUOUS
10
0.444953
20
-0.427572
11
0.444953
21
-0.427572
0
LINE
8
BLACK
6
CONTINUOUS
10
0.444953
20
-0.427572
11
0.450289
21
-0.429676
0
LINE
8
BLACK
6
CONTINUOUS
10
0.450289
20
-0.429676
11
0.453642
21
-0.430079
0
LINE
8
BLACK
6
CONTINUOUS
10
0.453642
20
-0.430079
11
0.464961
21
-0.430079
0
LINE
8
BLACK
6
CONTINUOUS
10
0.464961
20
-0.430079
11
0.464961
21
-0.409213
0
LINE
8
BLACK
6
CONTINUOUS
10
0.464961
20
-0.409213
11
0.455276
21
-0.409213
0
LINE
8
BLACK
6
CONTINUOUS
10
0.455276
20
-0.409213
11
0.455276
21
-0.369803
0
LINE
8
BLACK
6
CONTINUOUS
10
0.455276
20
-0.369803
11
0.434409
21
-0.369803
0
LINE
8
BLACK
6
CONTINUOUS
10
0.434409
20
-0.369803
11
0.434409
21
-0.410846
0
LINE
8
BLACK
6
CONTINUOUS
10
0.494646
20
-0.409213
11
0.484961
21
-0.409213
0
LINE
8
BLACK
6
CONTINUOUS
10
0.484961
20
-0.409213
11
0.484961
21
-0.430079
0
LINE
8
BLACK
6
CONTINUOUS
10
0.484961
20
-0.430079
11
0.49628
21
-0.430079
0
LINE
8
BLACK
6
CONTINUOUS
10
0.49628
20
-0.430079
11
0.499632
21
-0.429676
0
LINE
8
BLACK
6
CONTINUOUS
10
0.499632
20
-0.429676
11
0.504968
21
-0.427572
0
LINE
8
BLACK
6
CONTINUOUS
10
0.504968
20
-0.427572
11
0.504969
21
-0.427572
0
LINE
8
BLACK
6
CONTINUOUS
10
0.504969
20
-0.427572
11
0.509539
21
-0.424106
0
LINE
8
BLACK
6
CONTINUOUS
10
0.509539
20
-0.424106
11
0.509539
21
-0.424106
0
LINE
8
BLACK
6
CONTINUOUS
10
0.509539
20
-0.424106
11
0.513005
21
-0.419536
0
LINE
8
BLACK
6
CONTINUOUS
10
0.513005
20
-0.419536
11
0.513005
21
-0.419535
0
LINE
8
BLACK
6
CONTINUOUS
10
0.513005
20
-0.419535
11
0.515109
21
-0.414199
0
LINE
8
BLACK
6
CONTINUOUS
10
0.515109
20
-0.414199
11
0.515512
21
-0.410846
0
LINE
8
BLACK
6
CONTINUOUS
10
0.515512
20
-0.410846
11
0.515512
21
-0.369803
0
LINE
8
BLACK
6
CONTINUOUS
10
0.515512
20
-0.369803
11
0.494646
21
-0.369803
0
LINE
8
BLACK
6
CONTINUOUS
10
0.494646
20
-0.369803
11
0.494646
21
-0.409213
0
LINE
8
BLACK
6
CONTINUOUS
10
0.484961
20
-0.310394
11
0.494646
21
-0.310394
0
LINE
8
BLACK
6
CONTINUOUS
10
0.494646
20
-0.310394
11
0.494646
21
-0.349803
0
LINE
8
BLACK
6
CONTINUOUS
10
0.494646
20
-0.349803
11
0.515512
21
-0.349803
0
LINE
8
BLACK
6
CONTINUOUS
10
0.515512
20
-0.349803
11
0.515512
21
-0.30876
0
LINE
8
BLACK
6
CONTINUOUS
10
0.515512
20
-0.30876
11
0.515109
21
-0.305407
0
LINE
8
BLACK
6
CONTINUOUS
10
0.515109
20
-0.305407
11
0.513005
21
-0.300071
0
LINE
8
BLACK
6
CONTINUOUS
10
0.513005
20
-0.300071
11
0.513005
21
-0.300071
0
LINE
8
BLACK
6
CONTINUOUS
10
0.513005
20
-0.300071
11
0.509539
21
-0.2955
0
LINE
8
BLACK
6
CONTINUOUS
10
0.509539
20
-0.2955
11
0.509539
21
-0.2955
0
LINE
8
BLACK
6
CONTINUOUS
10
0.509539
20
-0.2955
11
0.504969
21
-0.292035
0
LINE
8
BLACK
6
CONTINUOUS
10
0.504969
20
-0.292035
11
0.504968
21
-0.292034
0
LINE
8
BLACK
6
CONTINUOUS
10
0.504968
20
-0.292034
11
0.499632
21
-0.28993
0
LINE
8
BLACK
6
CONTINUOUS
10
0.499632
20
-0.28993
11
0.49628
21
-0.289528
0
LINE
8
BLACK
6
CONTINUOUS
10
0.49628
20
-0.289528
11
0.484961
21
-0.289528
0
LINE
8
BLACK
6
CONTINUOUS
10
0.484961
20
-0.289528
11
0.484961
21
-0.310394
0
LINE
8
BLACK
6
CONTINUOUS
10
0.340013
20
-0.543956
11
0.340093
21
-0.544461
0
LINE
8
BLACK
6
CONTINUOUS
10
0.340093
20
-0.544461
11
0.340093
21
-0.544461
0
LINE
8
BLACK
6
CONTINUOUS
10
0.340093
20
-0.544461
11
0.340093
21
-0.544461
0
LINE
8
BLACK
6
CONTINUOUS
10
0.340093
20
-0.544461
11
0.34236
21
-0.548911
0
LINE
8
BLACK
6
CONTINUOUS
10
0.34236
20
-0.548911
11
0.345892
21
-0.552443
0
LINE
8
BLACK
6
CONTINUOUS
10
0.345892
20
-0.552443
11
0.348306
21
-0.553673
0
LINE
8
BLACK
6
CONTINUOUS
10
0.348306
20
-0.553673
11
0.350983
21
-0.555908
0
LINE
8
BLACK
6
CONTINUOUS
10
0.350983
20
-0.555908
11
0.351988
21
-0.557655
0
LINE
8
BLACK
6
CONTINUOUS
10
0.351988
20
-0.557655
11
0.35431
21
-0.563261
0
LINE
8
BLACK
6
CONTINUOUS
10
0.35431
20
-0.563261
11
0.35431
21
-0.563262
0
LINE
8
BLACK
6
CONTINUOUS
10
0.35431
20
-0.563262
11
0.358099
21
-0.5682
0
LINE
8
BLACK
6
CONTINUOUS
10
0.358099
20
-0.5682
11
0.358099
21
-0.5682
0
LINE
8
BLACK
6
CONTINUOUS
10
0.358099
20
-0.5682
11
0.359136
21
-0.568995
0
LINE
8
BLACK
6
CONTINUOUS
10
0.359136
20
-0.568995
11
0.359521
21
-0.569333
0
LINE
8
BLACK
6
CONTINUOUS
10
0.359521
20
-0.569333
11
0.408777
21
-0.61859
0
LINE
8
BLACK
6
CONTINUOUS
10
0.408777
20
-0.61859
11
0.409115
21
-0.618974
0
LINE
8
BLACK
6
CONTINUOUS
10
0.409115
20
-0.618974
11
0.409762
21
-0.619818
0
LINE
8
BLACK
6
CONTINUOUS
10
0.409762
20
-0.619818
11
0.40991
21
-0.620011
0
LINE
8
BLACK
6
CONTINUOUS
10
0.40991
20
-0.620011
11
0.413706
21
-0.622924
0
LINE
8
BLACK
6
CONTINUOUS
10
0.413706
20
-0.622924
11
0.413706
21
-0.622924
0
LINE
8
BLACK
6
CONTINUOUS
10
0.413706
20
-0.622924
11
0.414849
21
-0.623801
0
LINE
8
BLACK
6
CONTINUOUS
10
0.414849
20
-0.623801
11
0.414849
21
-0.623801
0
LINE
8
BLACK
6
CONTINUOUS
10
0.414849
20
-0.623801
11
0.416882
21
-0.624643
0
LINE
8
BLACK
6
CONTINUOUS
10
0.416882
20
-0.624643
11
0.4206
21
-0.626183
0
LINE
8
BLACK
6
CONTINUOUS
10
0.4206
20
-0.626183
11
0.426772
21
-0.626995
0
LINE
8
BLACK
6
CONTINUOUS
10
0.426772
20
-0.626995
11
0.427614
21
-0.626884
0
LINE
8
BLACK
6
CONTINUOUS
10
0.427614
20
-0.626884
11
0.428067
21
-0.626825
0
LINE
8
BLACK
6
CONTINUOUS
10
0.428067
20
-0.626825
11
0.428578
21
-0.626791
0
LINE
8
BLACK
6
CONTINUOUS
10
0.428578
20
-0.626791
11
0.686368
21
-0.626791
0
LINE
8
BLACK
6
CONTINUOUS
10
0.686368
20
-0.626791
11
0.689767
21
-0.627567
0
LINE
8
BLACK
6
CONTINUOUS
10
0.689767
20
-0.627567
11
0.690536
21
-0.627992
0
LINE
8
BLACK
6
CONTINUOUS
10
0.690536
20
-0.627992
11
0.696476
21
-0.631724
0
LINE
8
BLACK
6
CONTINUOUS
10
0.696476
20
-0.631724
11
0.703179
21
-0.63407
0
LINE
8
BLACK
6
CONTINUOUS
10
0.703179
20
-0.63407
11
0.710236
21
-0.634865
0
LINE
8
BLACK
6
CONTINUOUS
10
0.710236
20
-0.634865
11
0.717294
21
-0.63407
0
LINE
8
BLACK
6
CONTINUOUS
10
0.717294
20
-0.63407
11
0.723997
21
-0.631724
0
LINE
8
BLACK
6
CONTINUOUS
10
0.723997
20
-0.631724
11
0.73001
21
-0.627946
0
LINE
8
BLACK
6
CONTINUOUS
10
0.73001
20
-0.627946
11
0.735032
21
-0.622924
0
LINE
8
BLACK
6
CONTINUOUS
10
0.735032
20
-0.622924
11
0.738811
21
-0.61691
0
LINE
8
BLACK
6
CONTINUOUS
10
0.738811
20
-0.61691
11
0.741156
21
-0.610207
0
LINE
8
BLACK
6
CONTINUOUS
10
0.741156
20
-0.610207
11
0.741951
21
-0.60315
0
LINE
8
BLACK
6
CONTINUOUS
10
0.741951
20
-0.60315
11
0.741156
21
-0.596092
0
LINE
8
BLACK
6
CONTINUOUS
10
0.741156
20
-0.596092
11
0.738811
21
-0.589389
0
LINE
8
BLACK
6
CONTINUOUS
10
0.738811
20
-0.589389
11
0.735032
21
-0.583376
0
LINE
8
BLACK
6
CONTINUOUS
10
0.735032
20
-0.583376
11
0.735032
21
-0.583375
0
LINE
8
BLACK
6
CONTINUOUS
10
0.735032
20
-0.583375
11
0.735032
21
-0.583375
0
LINE
8
BLACK
6
CONTINUOUS
10
0.735032
20
-0.583375
11
0.73001
21
-0.578354
0
LINE
8
BLACK
6
CONTINUOUS
10
0.73001
20
-0.578354
11
0.73001
21
-0.578354
0
LINE
8
BLACK
6
CONTINUOUS
10
0.73001
20
-0.578354
11
0.73001
21
-0.578354
0
LINE
8
BLACK
6
CONTINUOUS
10
0.73001
20
-0.578354
11
0.723997
21
-0.574575
0
LINE
8
BLACK
6
CONTINUOUS
10
0.723997
20
-0.574575
11
0.723997
21
-0.574575
0
LINE
8
BLACK
6
CONTINUOUS
10
0.723997
20
-0.574575
11
0.723997
21
-0.574575
0
LINE
8
BLACK
6
CONTINUOUS
10
0.723997
20
-0.574575
11
0.717294
21
-0.57223
0
LINE
8
BLACK
6
CONTINUOUS
10
0.717294
20
-0.57223
11
0.717294
21
-0.57223
0
LINE
8
BLACK
6
CONTINUOUS
10
0.717294
20
-0.57223
11
0.717294
21
-0.57223
0
LINE
8
BLACK
6
CONTINUOUS
10
0.717294
20
-0.57223
11
0.710236
21
-0.571434
0
LINE
8
BLACK
6
CONTINUOUS
10
0.710236
20
-0.571434
11
0.710236
21
-0.571434
0
LINE
8
BLACK
6
CONTINUOUS
10
0.710236
20
-0.571434
11
0.709035
21
-0.57157
0
LINE
8
BLACK
6
CONTINUOUS
10
0.709035
20
-0.57157
11
0.703179
21
-0.57223
0
LINE
8
BLACK
6
CONTINUOUS
10
0.703179
20
-0.57223
11
0.703179
21
-0.57223
0
LINE
8
BLACK
6
CONTINUOUS
10
0.703179
20
-0.57223
11
0.703179
21
-0.57223
0
LINE
8
BLACK
6
CONTINUOUS
10
0.703179
20
-0.57223
11
0.696476
21
-0.574575
0
LINE
8
BLACK
6
CONTINUOUS
10
0.696476
20
-0.574575
11
0.696476
21
-0.574575
0
LINE
8
BLACK
6
CONTINUOUS
10
0.696476
20
-0.574575
11
0.690536
21
-0.578307
0
LINE
8
BLACK
6
CONTINUOUS
10
0.690536
20
-0.578307
11
0.687245
21
-0.579459
0
LINE
8
BLACK
6
CONTINUOUS
10
0.687245
20
-0.579459
11
0.686368
21
-0.579508
0
LINE
8
BLACK
6
CONTINUOUS
10
0.686368
20
-0.579508
11
0.43981
21
-0.579508
0
LINE
8
BLACK
6
CONTINUOUS
10
0.43981
20
-0.579508
11
0.43641
21
-0.578732
0
LINE
8
BLACK
6
CONTINUOUS
10
0.43641
20
-0.578732
11
0.43427
21
-0.577213
0
LINE
8
BLACK
6
CONTINUOUS
10
0.43427
20
-0.577213
11
0.411048
21
-0.553992
0
LINE
8
BLACK
6
CONTINUOUS
10
0.411048
20
-0.553992
11
0.409193
21
-0.551039
0
LINE
8
BLACK
6
CONTINUOUS
10
0.409193
20
-0.551039
11
0.408803
21
-0.547575
0
LINE
8
BLACK
6
CONTINUOUS
10
0.408803
20
-0.547575
11
0.409607
21
-0.544895
0
LINE
8
BLACK
6
CONTINUOUS
10
0.409607
20
-0.544895
11
0.409829
21
-0.544461
0
LINE
8
BLACK
6
CONTINUOUS
10
0.409829
20
-0.544461
11
0.410413
21
-0.540768
0
LINE
8
BLACK
6
CONTINUOUS
10
0.410413
20
-0.540768
11
0.410413
21
-0.439468
0
LINE
8
BLACK
6
CONTINUOUS
10
0.410413
20
-0.439468
11
0.409829
21
-0.435775
0
LINE
8
BLACK
6
CONTINUOUS
10
0.409829
20
-0.435775
11
0.407561
21
-0.431325
0
LINE
8
BLACK
6
CONTINUOUS
10
0.407561
20
-0.431325
11
0.407561
21
-0.431325
0
LINE
8
BLACK
6
CONTINUOUS
10
0.407561
20
-0.431325
11
0.407561
21
-0.431325
0
LINE
8
BLACK
6
CONTINUOUS
10
0.407561
20
-0.431325
11
0.404029
21
-0.427793
0
LINE
8
BLACK
6
CONTINUOUS
10
0.404029
20
-0.427793
11
0.399579
21
-0.425526
0
LINE
8
BLACK
6
CONTINUOUS
10
0.399579
20
-0.425526
11
0.399579
21
-0.425526
0
LINE
8
BLACK
6
CONTINUOUS
10
0.399579
20
-0.425526
11
0.399579
21
-0.425526
0
LINE
8
BLACK
6
CONTINUOUS
10
0.399579
20
-0.425526
11
0.399579
21
-0.425526
0
LINE
8
BLACK
6
CONTINUOUS
10
0.399579
20
-0.425526
11
0.397001
21
-0.425117
0
LINE
8
BLACK
6
CONTINUOUS
10
0.397001
20
-0.425117
11
0.395887
21
-0.424941
0
LINE
8
BLACK
6
CONTINUOUS
10
0.395887
20
-0.424941
11
0.395887
21
-0.424941
0
LINE
8
BLACK
6
CONTINUOUS
10
0.395887
20
-0.424941
11
0.354035
21
-0.424941
0
LINE
8
BLACK
6
CONTINUOUS
10
0.354035
20
-0.424941
11
0.350342
21
-0.425526
0
LINE
8
BLACK
6
CONTINUOUS
10
0.350342
20
-0.425526
11
0.350342
21
-0.425526
0
LINE
8
BLACK
6
CONTINUOUS
10
0.350342
20
-0.425526
11
0.345892
21
-0.427793
0
LINE
8
BLACK
6
CONTINUOUS
10
0.345892
20
-0.427793
11
0.34236
21
-0.431325
0
LINE
8
BLACK
6
CONTINUOUS
10
0.34236
20
-0.431325
11
0.340093
21
-0.435775
0
LINE
8
BLACK
6
CONTINUOUS
10
0.340093
20
-0.435775
11
0.340093
21
-0.435776
0
LINE
8
BLACK
6
CONTINUOUS
10
0.340093
20
-0.435776
11
0.339508
21
-0.439468
0
LINE
8
BLACK
6
CONTINUOUS
10
0.339508
20
-0.439468
11
0.339508
21
-0.540768
0
LINE
8
BLACK
6
CONTINUOUS
10
0.339508
20
-0.540768
11
0.340013
21
-0.543956
0
LINE
8
BLACK
6
CONTINUOUS
10
0.102545
20
-0.425168
11
0.102545
21
-0.425168
0
LINE
8
BLACK
6
CONTINUOUS
10
0.102545
20
-0.425168
11
0.102545
21
-0.425168
0
LINE
8
BLACK
6
CONTINUOUS
10
0.102545
20
-0.425168
11
0.10489
21
-0.431871
0
LINE
8
BLACK
6
CONTINUOUS
10
0.10489
20
-0.431871
11
0.10489
21
-0.431871
0
LINE
8
BLACK
6
CONTINUOUS
10
0.10489
20
-0.431871
11
0.108669
21
-0.437884
0
LINE
8
BLACK
6
CONTINUOUS
10
0.108669
20
-0.437884
11
0.11369
21
-0.442906
0
LINE
8
BLACK
6
CONTINUOUS
10
0.11369
20
-0.442906
11
0.11369
21
-0.442906
0
LINE
8
BLACK
6
CONTINUOUS
10
0.11369
20
-0.442906
11
0.11369
21
-0.442906
0
LINE
8
BLACK
6
CONTINUOUS
10
0.11369
20
-0.442906
11
0.119704
21
-0.446685
0
LINE
8
BLACK
6
CONTINUOUS
10
0.119704
20
-0.446685
11
0.126407
21
-0.44903
0
LINE
8
BLACK
6
CONTINUOUS
10
0.126407
20
-0.44903
11
0.133465
21
-0.449825
0
LINE
8
BLACK
6
CONTINUOUS
10
0.133465
20
-0.449825
11
0.140522
21
-0.44903
0
LINE
8
BLACK
6
CONTINUOUS
10
0.140522
20
-0.44903
11
0.147225
21
-0.446685
0
LINE
8
BLACK
6
CONTINUOUS
10
0.147225
20
-0.446685
11
0.153239
21
-0.442906
0
LINE
8
BLACK
6
CONTINUOUS
10
0.153239
20
-0.442906
11
0.15826
21
-0.437884
0
LINE
8
BLACK
6
CONTINUOUS
10
0.15826
20
-0.437884
11
0.162039
21
-0.431871
0
LINE
8
BLACK
6
CONTINUOUS
10
0.162039
20
-0.431871
11
0.164385
21
-0.425168
0
LINE
8
BLACK
6
CONTINUOUS
10
0.164385
20
-0.425168
11
0.16518
21
-0.41811
0
LINE
8
BLACK
6
CONTINUOUS
10
0.16518
20
-0.41811
11
0.164385
21
-0.411053
0
LINE
8
BLACK
6
CONTINUOUS
10
0.164385
20
-0.411053
11
0.162039
21
-0.40435
0
LINE
8
BLACK
6
CONTINUOUS
10
0.162039
20
-0.40435
11
0.158307
21
-0.39841
0
LINE
8
BLACK
6
CONTINUOUS
10
0.158307
20
-0.39841
11
0.157156
21
-0.395119
0
LINE
8
BLACK
6
CONTINUOUS
10
0.157156
20
-0.395119
11
0.157106
21
-0.394242
0
LINE
8
BLACK
6
CONTINUOUS
10
0.157106
20
-0.394242
11
0.157106
21
-0.369803
0
LINE
8
BLACK
6
CONTINUOUS
10
0.157106
20
-0.369803
11
0.157106
21
-0.349803
0
LINE
8
BLACK
6
CONTINUOUS
10
0.157106
20
-0.349803
11
0.157106
21
-0.320912
0
LINE
8
BLACK
6
CONTINUOUS
10
0.157106
20
-0.320912
11
0.157882
21
-0.317513
0
LINE
8
BLACK
6
CONTINUOUS
10
0.157882
20
-0.317513
11
0.159401
21
-0.315372
0
LINE
8
BLACK
6
CONTINUOUS
10
0.159401
20
-0.315372
11
0.225608
21
-0.249165
0
LINE
8
BLACK
6
CONTINUOUS
10
0.225608
20
-0.249165
11
0.228561
21
-0.24731
0
LINE
8
BLACK
6
CONTINUOUS
10
0.228561
20
-0.24731
11
0.231148
21
-0.24687
0
LINE
8
BLACK
6
CONTINUOUS
10
0.231148
20
-0.24687
11
0.482631
21
-0.24687
0
LINE
8
BLACK
6
CONTINUOUS
10
0.482631
20
-0.24687
11
0.486031
21
-0.247646
0
LINE
8
BLACK
6
CONTINUOUS
10
0.486031
20
-0.247646
11
0.488171
21
-0.249165
0
LINE
8
BLACK
6
CONTINUOUS
10
0.488171
20
-0.249165
11
0.549024
21
-0.310018
0
LINE
8
BLACK
6
CONTINUOUS
10
0.549024
20
-0.310018
11
0.550879
21
-0.31297
0
LINE
8
BLACK
6
CONTINUOUS
10
0.550879
20
-0.31297
11
0.551319
21
-0.315558
0
LINE
8
BLACK
6
CONTINUOUS
10
0.551319
20
-0.315558
11
0.551319
21
-0.420227
0
LINE
8
BLACK
6
CONTINUOUS
10
0.551319
20
-0.420227
11
0.550543
21
-0.423626
0
LINE
8
BLACK
6
CONTINUOUS
10
0.550543
20
-0.423626
11
0.548369
21
-0.426352
0
LINE
8
BLACK
6
CONTINUOUS
10
0.548369
20
-0.426352
11
0.547041
21
-0.427208
0
LINE
8
BLACK
6
CONTINUOUS
10
0.547041
20
-0.427208
11
0.545892
21
-0.427793
0
LINE
8
BLACK
6
CONTINUOUS
10
0.545892
20
-0.427793
11
0.545892
21
-0.427793
0
LINE
8
BLACK
6
CONTINUOUS
10
0.545892
20
-0.427793
11
0.54236
21
-0.431325
0
LINE
8
BLACK
6
CONTINUOUS
10
0.54236
20
-0.431325
11
0.540093
21
-0.435775
0
LINE
8
BLACK
6
CONTINUOUS
10
0.540093
20
-0.435775
11
0.540093
21
-0.435776
0
LINE
8
BLACK
6
CONTINUOUS
10
0.540093
20
-0.435776
11
0.539508
21
-0.439468
0
LINE
8
BLACK
6
CONTINUOUS
10
0.539508
20
-0.439468
11
0.539508
21
-0.540768
0
LINE
8
BLACK
6
CONTINUOUS
10
0.539508
20
-0.540768
11
0.540013
21
-0.543956
0
LINE
8
BLACK
6
CONTINUOUS
10
0.540013
20
-0.543956
11
0.540093
21
-0.544461
0
LINE
8
BLACK
6
CONTINUOUS
10
0.540093
20
-0.544461
11
0.540093
21
-0.544461
0
LINE
8
BLACK
6
CONTINUOUS
10
0.540093
20
-0.544461
11
0.540093
21
-0.544461
0
LINE
8
BLACK
6
CONTINUOUS
10
0.540093
20
-0.544461
11
0.54236
21
-0.548911
0
LINE
8
BLACK
6
CONTINUOUS
10
0.54236
20
-0.548911
11
0.545892
21
-0.552443
0
LINE
8
BLACK
6
CONTINUOUS
10
0.545892
20
-0.552443
11
0.550342
21
-0.55471
0
LINE
8
BLACK
6
CONTINUOUS
10
0.550342
20
-0.55471
11
0.550342
21
-0.55471
0
LINE
8
BLACK
6
CONTINUOUS
10
0.550342
20
-0.55471
11
0.554035
21
-0.555295
0
LINE
8
BLACK
6
CONTINUOUS
10
0.554035
20
-0.555295
11
0.595887
21
-0.555295
0
LINE
8
BLACK
6
CONTINUOUS
10
0.595887
20
-0.555295
11
0.599579
21
-0.55471
0
LINE
8
BLACK
6
CONTINUOUS
10
0.599579
20
-0.55471
11
0.604029
21
-0.552443
0
LINE
8
BLACK
6
CONTINUOUS
10
0.604029
20
-0.552443
11
0.607561
21
-0.548911
0
LINE
8
BLACK
6
CONTINUOUS
10
0.607561
20
-0.548911
11
0.609829
21
-0.544461
0
LINE
8
BLACK
6
CONTINUOUS
10
0.609829
20
-0.544461
11
0.610413
21
-0.540768
0
LINE
8
BLACK
6
CONTINUOUS
10
0.610413
20
-0.540768
11
0.610413
21
-0.439468
0
LINE
8
BLACK
6
CONTINUOUS
10
0.610413
20
-0.439468
11
0.609829
21
-0.435775
0
LINE
8
BLACK
6
CONTINUOUS
10
0.609829
20
-0.435775
11
0.607561
21
-0.431325
0
LINE
8
BLACK
6
CONTINUOUS
10
0.607561
20
-0.431325
11
0.607561
21
-0.431325
0
LINE
8
BLACK
6
CONTINUOUS
10
0.607561
20
-0.431325
11
0.607561
21
-0.431325
0
LINE
8
BLACK
6
CONTINUOUS
10
0.607561
20
-0.431325
11
0.604029
21
-0.427793
0
LINE
8
BLACK
6
CONTINUOUS
10
0.604029
20
-0.427793
11
0.604029
21
-0.427793
0
LINE
8
BLACK
6
CONTINUOUS
10
0.604029
20
-0.427793
11
0.60288
21
-0.427208
0
LINE
8
BLACK
6
CONTINUOUS
10
0.60288
20
-0.427208
11
0.600204
21
-0.424973
0
LINE
8
BLACK
6
CONTINUOUS
10
0.600204
20
-0.424973
11
0.598762
21
-0.421799
0
LINE
8
BLACK
6
CONTINUOUS
10
0.598762
20
-0.421799
11
0.598602
21
-0.420227
0
LINE
8
BLACK
6
CONTINUOUS
10
0.598602
20
-0.420227
11
0.598602
21
-0.304326
0
LINE
8
BLACK
6
CONTINUOUS
10
0.598602
20
-0.304326
11
0.598636
21
-0.303815
0
LINE
8
BLACK
6
CONTINUOUS
10
0.598636
20
-0.303815
11
0.598696
21
-0.303362
0
LINE
8
BLACK
6
CONTINUOUS
10
0.598696
20
-0.303362
11
0.598806
21
-0.30252
0
LINE
8
BLACK
6
CONTINUOUS
10
0.598806
20
-0.30252
11
0.597994
21
-0.296348
0
LINE
8
BLACK
6
CONTINUOUS
10
0.597994
20
-0.296348
11
0.595784
21
-0.291013
0
LINE
8
BLACK
6
CONTINUOUS
10
0.595784
20
-0.291013
11
0.595612
21
-0.290597
0
LINE
8
BLACK
6
CONTINUOUS
10
0.595612
20
-0.290597
11
0.592774
21
-0.286898
0
LINE
8
BLACK
6
CONTINUOUS
10
0.592774
20
-0.286898
11
0.591822
21
-0.285658
0
LINE
8
BLACK
6
CONTINUOUS
10
0.591822
20
-0.285658
11
0.591314
21
-0.285269
0
LINE
8
BLACK
6
CONTINUOUS
10
0.591314
20
-0.285269
11
0.590786
21
-0.284863
0
LINE
8
BLACK
6
CONTINUOUS
10
0.590786
20
-0.284863
11
0.5904
21
-0.284525
0
LINE
8
BLACK
6
CONTINUOUS
10
0.5904
20
-0.284525
11
0.513664
21
-0.207789
0
LINE
8
BLACK
6
CONTINUOUS
10
0.513664
20
-0.207789
11
0.513326
21
-0.207403
0
LINE
8
BLACK
6
CONTINUOUS
10
0.513326
20
-0.207403
11
0.512531
21
-0.206367
0
LINE
8
BLACK
6
CONTINUOUS
10
0.512531
20
-0.206367
11
0.512531
21
-0.206367
0
LINE
8
BLACK
6
CONTINUOUS
10
0.512531
20
-0.206367
11
0.507592
21
-0.202577
0
LINE
8
BLACK
6
CONTINUOUS
10
0.507592
20
-0.202577
11
0.507592
21
-0.202577
0
LINE
8
BLACK
6
CONTINUOUS
10
0.507592
20
-0.202577
11
0.501841
21
-0.200195
0
LINE
8
BLACK
6
CONTINUOUS
10
0.501841
20
-0.200195
11
0.501841
21
-0.200195
0
LINE
8
BLACK
6
CONTINUOUS
10
0.501841
20
-0.200195
11
0.501841
21
-0.200195
0
LINE
8
BLACK
6
CONTINUOUS
10
0.501841
20
-0.200195
11
0.501841
21
-0.200195
0
LINE
8
BLACK
6
CONTINUOUS
10
0.501841
20
-0.200195
11
0.501841
21
-0.200195
0
LINE
8
BLACK
6
CONTINUOUS
10
0.501841
20
-0.200195
11
0.497219
21
-0.199587
0
LINE
8
BLACK
6
CONTINUOUS
10
0.497219
20
-0.199587
11
0.497219
21
-0.199587
0
LINE
8
BLACK
6
CONTINUOUS
10
0.497219
20
-0.199587
11
0.496186
21
-0.199451
0
LINE
8
BLACK
6
CONTINUOUS
10
0.496186
20
-0.199451
11
0.495669
21
-0.199383
0
LINE
8
BLACK
6
CONTINUOUS
10
0.495669
20
-0.199383
11
0.495669
21
-0.199383
0
LINE
8
BLACK
6
CONTINUOUS
10
0.495669
20
-0.199383
11
0.494374
21
-0.199553
0
LINE
8
BLACK
6
CONTINUOUS
10
0.494374
20
-0.199553
11
0.493862
21
-0.199587
0
LINE
8
BLACK
6
CONTINUOUS
10
0.493862
20
-0.199587
11
0.219917
21
-0.199587
0
LINE
8
BLACK
6
CONTINUOUS
10
0.219917
20
-0.199587
11
0.219405
21
-0.199553
0
LINE
8
BLACK
6
CONTINUOUS
10
0.219405
20
-0.199553
11
0.21811
21
-0.199383
0
LINE
8
BLACK
6
CONTINUOUS
10
0.21811
20
-0.199383
11
0.216561
21
-0.199587
0
LINE
8
BLACK
6
CONTINUOUS
10
0.216561
20
-0.199587
11
0.21656
21
-0.199587
0
LINE
8
BLACK
6
CONTINUOUS
10
0.21656
20
-0.199587
11
0.211939
21
-0.200195
0
LINE
8
BLACK
6
CONTINUOUS
10
0.211939
20
-0.200195
11
0.211938
21
-0.200195
0
LINE
8
BLACK
6
CONTINUOUS
10
0.211938
20
-0.200195
11
0.206187
21
-0.202577
0
LINE
8
BLACK
6
CONTINUOUS
10
0.206187
20
-0.202577
11
0.206187
21
-0.202577
0
LINE
8
BLACK
6
CONTINUOUS
10
0.206187
20
-0.202577
11
0.201249
21
-0.206367
0
LINE
8
BLACK
6
CONTINUOUS
10
0.201249
20
-0.206367
11
0.200453
21
-0.207403
0
LINE
8
BLACK
6
CONTINUOUS
10
0.200453
20
-0.207403
11
0.200115
21
-0.207789
0
LINE
8
BLACK
6
CONTINUOUS
10
0.200115
20
-0.207789
11
0.118025
21
-0.289879
0
LINE
8
BLACK
6
CONTINUOUS
10
0.118025
20
-0.289879
11
0.117639
21
-0.290217
0
LINE
8
BLACK
6
CONTINUOUS
10
0.117639
20
-0.290217
11
0.116603
21
-0.291012
0
LINE
8
BLACK
6
CONTINUOUS
10
0.116603
20
-0.291012
11
0.115652
21
-0.292252
0
LINE
8
BLACK
6
CONTINUOUS
10
0.115652
20
-0.292252
11
0.112814
21
-0.295951
0
LINE
8
BLACK
6
CONTINUOUS
10
0.112814
20
-0.295951
11
0.112814
21
-0.295951
0
LINE
8
BLACK
6
CONTINUOUS
10
0.112814
20
-0.295951
11
0.110431
21
-0.301702
0
LINE
8
BLACK
6
CONTINUOUS
10
0.110431
20
-0.301702
11
0.110431
21
-0.301702
0
LINE
8
BLACK
6
CONTINUOUS
10
0.110431
20
-0.301702
11
0.109619
21
-0.307874
0
LINE
8
BLACK
6
CONTINUOUS
10
0.109619
20
-0.307874
11
0.109789
21
-0.309169
0
LINE
8
BLACK
6
CONTINUOUS
10
0.109789
20
-0.309169
11
0.109823
21
-0.309681
0
LINE
8
BLACK
6
CONTINUOUS
10
0.109823
20
-0.309681
11
0.109823
21
-0.394242
0
LINE
8
BLACK
6
CONTINUOUS
10
0.109823
20
-0.394242
11
0.109047
21
-0.397641
0
LINE
8
BLACK
6
CONTINUOUS
10
0.109047
20
-0.397641
11
0.108622
21
-0.39841
0
LINE
8
BLACK
6
CONTINUOUS
10
0.108622
20
-0.39841
11
0.10489
21
-0.40435
0
LINE
8
BLACK
6
CONTINUOUS
10
0.10489
20
-0.40435
11
0.10489
21
-0.40435
0
LINE
8
BLACK
6
CONTINUOUS
10
0.10489
20
-0.40435
11
0.102617
21
-0.410846
0
LINE
8
BLACK
6
CONTINUOUS
10
0.102617
20
-0.410846
11
0.102545
21
-0.411053
0
LINE
8
BLACK
6
CONTINUOUS
10
0.102545
20
-0.411053
11
0.101749
21
-0.41811
0
LINE
8
BLACK
6
CONTINUOUS
10
0.101749
20
-0.41811
11
0.102545
21
-0.425168
0
LINE
8
BLACK
6
CONTINUOUS
10
0.455276
20
-0.349803
11
0.455276
21
-0.310394
0
LINE
8
BLACK
6
CONTINUOUS
10
0.455276
20
-0.310394
11
0.464961
21
-0.310394
0
LINE
8
BLACK
6
CONTINUOUS
10
0.464961
20
-0.310394
11
0.464961
21
-0.289528
0
LINE
8
BLACK
6
CONTINUOUS
10
0.464961
20
-0.289528
11
0.453642
21
-0.289528
0
LINE
8
BLACK
6
CONTINUOUS
10
0.453642
20
-0.289528
11
0.450289
21
-0.28993
0
LINE
8
BLACK
6
CONTINUOUS
10
0.450289
20
-0.28993
11
0.444953
21
-0.292034
0
LINE
8
BLACK
6
CONTINUOUS
10
0.444953
20
-0.292034
11
0.444953
21
-0.292035
0
LINE
8
BLACK
6
CONTINUOUS
10
0.444953
20
-0.292035
11
0.440382
21
-0.2955
0
LINE
8
BLACK
6
CONTINUOUS
10
0.440382
20
-0.2955
11
0.440382
21
-0.2955
0
LINE
8
BLACK
6
CONTINUOUS
10
0.440382
20
-0.2955
11
0.436916
21
-0.300071
0
LINE
8
BLACK
6
CONTINUOUS
10
0.436916
20
-0.300071
11
0.436916
21
-0.300071
0
LINE
8
BLACK
6
CONTINUOUS
10
0.436916
20
-0.300071
11
0.434812
21
-0.305407
0
LINE
8
BLACK
6
CONTINUOUS
10
0.434812
20
-0.305407
11
0.434409
21
-0.30876
0
LINE
8
BLACK
6
CONTINUOUS
10
0.434409
20
-0.30876
11
0.434409
21
-0.349803
0
LINE
8
BLACK
6
CONTINUOUS
10
0.434409
20
-0.349803
11
0.455276
21
-0.349803
0
LINE
8
BLACK
6
CONTINUOUS
10
-0.0739606
20
-2.08097
11
-0.0726995
21
-2.0812
0
LINE
8
BLACK
6
CONTINUOUS
10
-0.0726995
20
-2.0812
11
-0.0724981
21
-2.08137
0
LINE
8
BLACK
6
CONTINUOUS
10
-0.0724981
20
-2.08137
11
-0.0722441
21
-2.08143
0
LINE
8
BLACK
6
CONTINUOUS
10
-0.0722441
20
-2.08143
11
-0.071339
21
-2.08234
0
LINE
8
BLACK
6
CONTINUOUS
10
-0.071339
20
-2.08234
11
-0.0703584
21
-2.08316
0
LINE
8
BLACK
6
CONTINUOUS
10
-0.0703584
20
-2.08316
11
-0.0702685
21
-2.08341
0
LINE
8
BLACK
6
CONTINUOUS
10
-0.0702685
20
-2.08341
11
-0.0700826
21
-2.0836
0
LINE
8
BLACK
6
CONTINUOUS
10
-0.0700826
20
-2.0836
11
-0.0697512
21
-2.08483
0
LINE
8
BLACK
6
CONTINUOUS
10
-0.0697512
20
-2.08483
11
-0.0693137
21
-2.08604
0
LINE
8
BLACK
6
CONTINUOUS
10
-0.0693137
20
-2.08604
11
-0.0693594
21
-2.08629
0
LINE
8
BLACK
6
CONTINUOUS
10
-0.0693594
20
-2.08629
11
-0.0692914
21
-2.08655
0
LINE
8
BLACK
6
CONTINUOUS
10
-0.0692914
20
-2.08655
11
-0.0692914
21
-2.1456
0
LINE
8
BLACK
6
CONTINUOUS
10
-0.0692914
20
-2.1456
11
-0.0700826
21
-2.14856
0
LINE
8
BLACK
6
CONTINUOUS
10
-0.0700826
20
-2.14856
11
-0.0722441
21
-2.15072
0
LINE
8
BLACK
6
CONTINUOUS
10
-0.0722441
20
-2.15072
11
-0.0751969
21
-2.15151
0
LINE
8
BLACK
6
CONTINUOUS
10
-0.0751969
20
-2.15151
11
-0.0781496
21
-2.15072
0
LINE
8
BLACK
6
CONTINUOUS
10
-0.0781496
20
-2.15072
11
-0.0803112
21
-2.14856
0
LINE
8
BLACK
6
CONTINUOUS
10
-0.0803112
20
-2.14856
11
-0.0811024
21
-2.1456
0
LINE
8
BLACK
6
CONTINUOUS
10
-0.0811024
20
-2.1456
11
-0.0811024
21
-2.11317
0
LINE
8
BLACK
6
CONTINUOUS
10
-0.0811024
20
-2.11317
11
-0.0895305
21
-2.13123
0
LINE
8
BLACK
6
CONTINUOUS
10
-0.0895305
20
-2.13123
11
-0.0898654
21
-2.13163
0
LINE
8
BLACK
6
CONTINUOUS
10
-0.0898654
20
-2.13163
11
-0.0900434
21
-2.13212
0
LINE
8
BLACK
6
CONTINUOUS
10
-0.0900434
20
-2.13212
11
-0.0908332
21
-2.13278
0
LINE
8
BLACK
6
CONTINUOUS
10
-0.0908332
20
-2.13278
11
-0.0914961
21
-2.13357
0
LINE
8
BLACK
6
CONTINUOUS
10
-0.0914961
20
-2.13357
11
-0.0919856
21
-2.13375
0
LINE
8
BLACK
6
CONTINUOUS
10
-0.0919856
20
-2.13375
11
-0.0923846
21
-2.13408
0
LINE
8
BLACK
6
CONTINUOUS
10
-0.0923846
20
-2.13408
11
-0.0934002
21
-2.13426
0
LINE
8
BLACK
6
CONTINUOUS
10
-0.0934002
20
-2.13426
11
-0.094369
21
-2.13461
0
LINE
8
BLACK
6
CONTINUOUS
10
-0.094369
20
-2.13461
11
-0.0948819
21
-2.13452
0
LINE
8
BLACK
6
CONTINUOUS
10
-0.0948819
20
-2.13452
11
-0.0953949
21
-2.13461
0
LINE
8
BLACK
6
CONTINUOUS
10
-0.0953949
20
-2.13461
11
-0.0963642
21
-2.13426
0
LINE
8
BLACK
6
CONTINUOUS
10
-0.0963642
20
-2.13426
11
-0.0973793
21
-2.13408
0
LINE
8
BLACK
6
CONTINUOUS
10
-0.0973793
20
-2.13408
11
-0.0977781
21
-2.13375
0
LINE
8
BLACK
6
CONTINUOUS
10
-0.0977781
20
-2.13375
11
-0.0982678
21
-2.13357
0
LINE
8
BLACK
6
CONTINUOUS
10
-0.0982678
20
-2.13357
11
-0.0989309
21
-2.13278
0
LINE
8
BLACK
6
CONTINUOUS
10
-0.0989309
20
-2.13278
11
-0.0997204
21
-2.13212
0
LINE
8
BLACK
6
CONTINUOUS
10
-0.0997204
20
-2.13212
11
-0.0998985
21
-2.13163
0
LINE
8
BLACK
6
CONTINUOUS
10
-0.0998985
20
-2.13163
11
-0.100233
21
-2.13123
0
LINE
8
BLACK
6
CONTINUOUS
10
-0.100233
20
-2.13123
11
-0.108661
21
-2.11317
0
LINE
8
BLACK
6
CONTINUOUS
10
-0.108661
20
-2.11317
11
-0.108661
21
-2.1456
0
LINE
8
BLACK
6
CONTINUOUS
10
-0.108661
20
-2.1456
11
-0.109453
21
-2.14856
0
LINE
8
BLACK
6
CONTINUOUS
10
-0.109453
20
-2.14856
11
-0.111614
21
-2.15072
0
LINE
8
BLACK
6
CONTINUOUS
10
-0.111614
20
-2.15072
11
-0.114567
21
-2.15151
0
LINE
8
BLACK
6
CONTINUOUS
10
-0.114567
20
-2.15151
11
-0.11752
21
-2.15072
0
LINE
8
BLACK
6
CONTINUOUS
10
-0.11752
20
-2.15072
11
-0.119681
21
-2.14856
0
LINE
8
BLACK
6
CONTINUOUS
10
-0.119681
20
-2.14856
11
-0.120472
21
-2.1456
0
LINE
8
BLACK
6
CONTINUOUS
10
-0.120472
20
-2.1456
11
-0.120472
21
-2.08655
0
LINE
8
BLACK
6
CONTINUOUS
10
-0.120472
20
-2.08655
11
-0.120404
21
-2.08629
0
LINE
8
BLACK
6
CONTINUOUS
10
-0.120404
20
-2.08629
11
-0.12045
21
-2.08604
0
LINE
8
BLACK
6
CONTINUOUS
10
-0.12045
20
-2.08604
11
-0.120013
21
-2.08483
0
LINE
8
BLACK
6
CONTINUOUS
10
-0.120013
20
-2.08483
11
-0.119681
21
-2.0836
0
LINE
8
BLACK
6
CONTINUOUS
10
-0.119681
20
-2.0836
11
-0.119495
21
-2.08341
0
LINE
8
BLACK
6
CONTINUOUS
10
-0.119495
20
-2.08341
11
-0.119405
21
-2.08316
0
LINE
8
BLACK
6
CONTINUOUS
10
-0.119405
20
-2.08316
11
-0.118425
21
-2.08234
0
LINE
8
BLACK
6
CONTINUOUS
10
-0.118425
20
-2.08234
11
-0.11752
21
-2.08143
0
LINE
8
BLACK
6
CONTINUOUS
10
-0.11752
20
-2.08143
11
-0.117266
21
-2.08137
0
LINE
8
BLACK
6
CONTINUOUS
10
-0.117266
20
-2.08137
11
-0.117064
21
-2.0812
0
LINE
8
BLACK
6
CONTINUOUS
10
-0.117064
20
-2.0812
11
-0.115804
21
-2.08097
0
LINE
8
BLACK
6
CONTINUOUS
10
-0.115804
20
-2.08097
11
-0.114567
21
-2.08064
0
LINE
8
BLACK
6
CONTINUOUS
10
-0.114567
20
-2.08064
11
-0.114313
21
-2.08071
0
LINE
8
BLACK
6
CONTINUOUS
10
-0.114313
20
-2.08071
11
-0.114054
21
-2.08067
0
LINE
8
BLACK
6
CONTINUOUS
10
-0.114054
20
-2.08067
11
-0.112851
21
-2.0811
0
LINE
8
BLACK
6
CONTINUOUS
10
-0.112851
20
-2.0811
11
-0.111614
21
-2.08143
0
LINE
8
BLACK
6
CONTINUOUS
10
-0.111614
20
-2.08143
11
-0.111428
21
-2.08162
0
LINE
8
BLACK
6
CONTINUOUS
10
-0.111428
20
-2.08162
11
-0.111181
21
-2.08171
0
LINE
8
BLACK
6
CONTINUOUS
10
-0.111181
20
-2.08171
11
-0.110358
21
-2.08269
0
LINE
8
BLACK
6
CONTINUOUS
10
-0.110358
20
-2.08269
11
-0.109453
21
-2.0836
0
LINE
8
BLACK
6
CONTINUOUS
10
-0.109453
20
-2.0836
11
-0.109385
21
-2.08385
0
LINE
8
BLACK
6
CONTINUOUS
10
-0.109385
20
-2.08385
11
-0.109216
21
-2.08405
0
LINE
8
BLACK
6
CONTINUOUS
10
-0.109216
20
-2.08405
11
-0.0948819
21
-2.11477
0
LINE
8
BLACK
6
CONTINUOUS
10
-0.0948819
20
-2.11477
11
-0.0805483
21
-2.08405
0
LINE
8
BLACK
6
CONTINUOUS
10
-0.0805483
20
-2.08405
11
-0.0803793
21
-2.08385
0
LINE
8
BLACK
6
CONTINUOUS
10
-0.0803793
20
-2.08385
11
-0.0803112
21
-2.0836
0
LINE
8
BLACK
6
CONTINUOUS
10
-0.0803112
20
-2.0836
11
-0.0794059
21
-2.08269
0
LINE
8
BLACK
6
CONTINUOUS
10
-0.0794059
20
-2.08269
11
-0.0785827
21
-2.08171
0
LINE
8
BLACK
6
CONTINUOUS
10
-0.0785827
20
-2.08171
11
-0.0783356
21
-2.08162
0
LINE
8
BLACK
6
CONTINUOUS
10
-0.0783356
20
-2.08162
11
-0.0781496
21
-2.08143
0
LINE
8
BLACK
6
CONTINUOUS
10
-0.0781496
20
-2.08143
11
-0.0769133
21
-2.0811
0
LINE
8
BLACK
6
CONTINUOUS
10
-0.0769133
20
-2.0811
11
-0.0757098
21
-2.08067
0
LINE
8
BLACK
6
CONTINUOUS
10
-0.0757098
20
-2.08067
11
-0.0754508
21
-2.08071
0
LINE
8
BLACK
6
CONTINUOUS
10
-0.0754508
20
-2.08071
11
-0.0751969
21
-2.08064
0
LINE
8
BLACK
6
CONTINUOUS
10
-0.0751969
20
-2.08064
11
-0.0739606
21
-2.08097
0
LINE
8
BLACK
6
CONTINUOUS
10
-0.0441226
20
-2.08143
11
-0.0419611
21
-2.0836
0
LINE
8
BLACK
6
CONTINUOUS
10
-0.0419611
20
-2.0836
11
-0.0411699
21
-2.08655
0
LINE
8
BLACK
6
CONTINUOUS
10
-0.0411699
20
-2.08655
11
-0.0411699
21
-2.1397
0
LINE
8
BLACK
6
CONTINUOUS
10
-0.0411699
20
-2.1397
11
-0.0189539
21
-2.1397
0
LINE
8
BLACK
6
CONTINUOUS
10
-0.0189539
20
-2.1397
11
-0.0160011
21
-2.14049
0
LINE
8
BLACK
6
CONTINUOUS
10
-0.0160011
20
-2.14049
11
-0.0138396
21
-2.14265
0
LINE
8
BLACK
6
CONTINUOUS
10
-0.0138396
20
-2.14265
11
-0.0133519
21
-2.14447
0
LINE
8
BLACK
6
CONTINUOUS
10
-0.0133519
20
-2.14447
11
-0.0133077
21
-2.14374
0
LINE
8
BLACK
6
CONTINUOUS
10
-0.0133077
20
-2.14374
11
0.00637732
21
-2.08468
0
LINE
8
BLACK
6
CONTINUOUS
10
0.00637732
20
-2.08468
11
0.00703079
21
-2.08369
0
LINE
8
BLACK
6
CONTINUOUS
10
0.00703079
20
-2.08369
11
0.00756126
21
-2.08263
0
LINE
8
BLACK
6
CONTINUOUS
10
0.00756126
20
-2.08263
11
0.00786256
21
-2.08243
0
LINE
8
BLACK
6
CONTINUOUS
10
0.00786256
20
-2.08243
11
0.00806161
21
-2.08213
0
LINE
8
BLACK
6
CONTINUOUS
10
0.00806161
20
-2.08213
11
0.00912268
21
-2.0816
0
LINE
8
BLACK
6
CONTINUOUS
10
0.00912268
20
-2.0816
11
0.0101123
21
-2.08095
0
LINE
8
BLACK
6
CONTINUOUS
10
0.0101123
20
-2.08095
11
0.0104727
21
-2.08092
0
LINE
8
BLACK
6
CONTINUOUS
10
0.0104727
20
-2.08092
11
0.0107958
21
-2.08076
0
LINE
8
BLACK
6
CONTINUOUS
10
0.0107958
20
-2.08076
11
0.0119799
21
-2.08083
0
LINE
8
BLACK
6
CONTINUOUS
10
0.0119799
20
-2.08083
11
0.0131637
21
-2.08076
0
LINE
8
BLACK
6
CONTINUOUS
10
0.0131637
20
-2.08076
11
0.0134867
21
-2.08092
0
LINE
8
BLACK
6
CONTINUOUS
10
0.0134867
20
-2.08092
11
0.0138472
21
-2.08095
0
LINE
8
BLACK
6
CONTINUOUS
10
0.0138472
20
-2.08095
11
0.0148372
21
-2.0816
0
LINE
8
BLACK
6
CONTINUOUS
10
0.0148372
20
-2.0816
11
0.0158979
21
-2.08213
0
LINE
8
BLACK
6
CONTINUOUS
10
0.0158979
20
-2.08213
11
0.0160969
21
-2.08243
0
LINE
8
BLACK
6
CONTINUOUS
10
0.0160969
20
-2.08243
11
0.0163983
21
-2.08263
0
LINE
8
BLACK
6
CONTINUOUS
10
0.0163983
20
-2.08263
11
0.0169288
21
-2.08369
0
LINE
8
BLACK
6
CONTINUOUS
10
0.0169288
20
-2.08369
11
0.0175822
21
-2.08468
0
LINE
8
BLACK
6
CONTINUOUS
10
0.0175822
20
-2.08468
11
0.0372673
21
-2.14374
0
LINE
8
BLACK
6
CONTINUOUS
10
0.0372673
20
-2.14374
11
0.0374504
21
-2.14679
0
LINE
8
BLACK
6
CONTINUOUS
10
0.0374504
20
-2.14679
11
0.0360833
21
-2.14952
0
LINE
8
BLACK
6
CONTINUOUS
10
0.0360833
20
-2.14952
11
0.0335323
21
-2.15121
0
LINE
8
BLACK
6
CONTINUOUS
10
0.0335323
20
-2.15121
11
0.0304809
21
-2.15139
0
LINE
8
BLACK
6
CONTINUOUS
10
0.0304809
20
-2.15139
11
0.0277467
21
-2.15002
0
LINE
8
BLACK
6
CONTINUOUS
10
0.0277467
20
-2.15002
11
0.0260624
21
-2.14747
0
LINE
8
BLACK
6
CONTINUOUS
10
0.0260624
20
-2.14747
11
0.0217841
21
-2.13464
0
LINE
8
BLACK
6
CONTINUOUS
10
0.0217841
20
-2.13464
11
0.00217547
21
-2.13464
0
LINE
8
BLACK
6
CONTINUOUS
10
0.00217547
20
-2.13464
11
-0.00210283
21
-2.14747
0
LINE
8
BLACK
6
CONTINUOUS
10
-0.00210283
20
-2.14747
11
-0.00378713
21
-2.15002
0
LINE
8
BLACK
6
CONTINUOUS
10
-0.00378713
20
-2.15002
11
-0.00652134
21
-2.15139
0
LINE
8
BLACK
6
CONTINUOUS
10
-0.00652134
20
-2.15139
11
-0.00957276
21
-2.15121
0
LINE
8
BLACK
6
CONTINUOUS
10
-0.00957276
20
-2.15121
11
-0.0121238
21
-2.14952
0
LINE
8
BLACK
6
CONTINUOUS
10
-0.0121238
20
-2.14952
11
-0.0134094
21
-2.14695
0
LINE
8
BLACK
6
CONTINUOUS
10
-0.0134094
20
-2.14695
11
-0.0138396
21
-2.14856
0
LINE
8
BLACK
6
CONTINUOUS
10
-0.0138396
20
-2.14856
11
-0.0160011
21
-2.15072
0
LINE
8
BLACK
6
CONTINUOUS
10
-0.0160011
20
-2.15072
11
-0.0189539
21
-2.15151
0
LINE
8
BLACK
6
CONTINUOUS
10
-0.0189539
20
-2.15151
11
-0.0470754
21
-2.15151
0
LINE
8
BLACK
6
CONTINUOUS
10
-0.0470754
20
-2.15151
11
-0.0500281
21
-2.15072
0
LINE
8
BLACK
6
CONTINUOUS
10
-0.0500281
20
-2.15072
11
-0.0521897
21
-2.14856
0
LINE
8
BLACK
6
CONTINUOUS
10
-0.0521897
20
-2.14856
11
-0.0529809
21
-2.1456
0
LINE
8
BLACK
6
CONTINUOUS
10
-0.0529809
20
-2.1456
11
-0.0529809
21
-2.08655
0
LINE
8
BLACK
6
CONTINUOUS
10
-0.0529809
20
-2.08655
11
-0.0521897
21
-2.0836
0
LINE
8
BLACK
6
CONTINUOUS
10
-0.0521897
20
-2.0836
11
-0.0500281
21
-2.08143
0
LINE
8
BLACK
6
CONTINUOUS
10
-0.0500281
20
-2.08143
11
-0.0470754
21
-2.08064
0
LINE
8
BLACK
6
CONTINUOUS
10
-0.0470754
20
-2.08064
11
-0.0441226
21
-2.08143
0
LINE
8
BLACK
6
CONTINUOUS
10
0.00611248
20
-2.12283
11
0.0178471
21
-2.12283
0
LINE
8
BLACK
6
CONTINUOUS
10
0.0178471
20
-2.12283
11
0.0119798
21
-2.10522
0
LINE
8
BLACK
6
CONTINUOUS
10
0.0119798
20
-2.10522
11
0.00611248
21
-2.12283
0
LINE
8
BLACK
6
CONTINUOUS
10
0.0723459
20
-2.08099
11
0.0736759
21
-2.08127
0
LINE
8
BLACK
6
CONTINUOUS
10
0.0736759
20
-2.08127
11
0.0793002
21
-2.08408
0
LINE
8
BLACK
6
CONTINUOUS
10
0.0793002
20
-2.08408
11
0.0800116
21
-2.08471
0
LINE
8
BLACK
6
CONTINUOUS
10
0.0800116
20
-2.08471
11
0.080835
21
-2.08518
0
LINE
8
BLACK
6
CONTINUOUS
10
0.080835
20
-2.08518
11
0.0836471
21
-2.088
0
LINE
8
BLACK
6
CONTINUOUS
10
0.0836471
20
-2.088
11
0.0841225
21
-2.08882
0
LINE
8
BLACK
6
CONTINUOUS
10
0.0841225
20
-2.08882
11
0.0847533
21
-2.08953
0
LINE
8
BLACK
6
CONTINUOUS
10
0.0847533
20
-2.08953
11
0.0875655
21
-2.09516
0
LINE
8
BLACK
6
CONTINUOUS
10
0.0875655
20
-2.09516
11
0.0878377
21
-2.09649
0
LINE
8
BLACK
6
CONTINUOUS
10
0.0878377
20
-2.09649
11
0.088189
21
-2.0978
0
LINE
8
BLACK
6
CONTINUOUS
10
0.088189
20
-2.0978
11
0.088189
21
-2.10342
0
LINE
8
BLACK
6
CONTINUOUS
10
0.088189
20
-2.10342
11
0.0878377
21
-2.10473
0
LINE
8
BLACK
6
CONTINUOUS
10
0.0878377
20
-2.10473
11
0.0875655
21
-2.10606
0
LINE
8
BLACK
6
CONTINUOUS
10
0.0875655
20
-2.10606
11
0.0847533
21
-2.11169
0
LINE
8
BLACK
6
CONTINUOUS
10
0.0847533
20
-2.11169
11
0.0841225
21
-2.1124
0
LINE
8
BLACK
6
CONTINUOUS
10
0.0841225
20
-2.1124
11
0.0836471
21
-2.11322
0
LINE
8
BLACK
6
CONTINUOUS
10
0.0836471
20
-2.11322
11
0.0835934
21
-2.11328
0
LINE
8
BLACK
6
CONTINUOUS
10
0.0835934
20
-2.11328
11
0.0836471
21
-2.11331
0
LINE
8
BLACK
6
CONTINUOUS
10
0.0836471
20
-2.11331
11
0.0864593
21
-2.11612
0
LINE
8
BLACK
6
CONTINUOUS
10
0.0864593
20
-2.11612
11
0.0869346
21
-2.11694
0
LINE
8
BLACK
6
CONTINUOUS
10
0.0869346
20
-2.11694
11
0.0875655
21
-2.11765
0
LINE
8
BLACK
6
CONTINUOUS
10
0.0875655
20
-2.11765
11
0.0903776
21
-2.12328
0
LINE
8
BLACK
6
CONTINUOUS
10
0.0903776
20
-2.12328
11
0.0906497
21
-2.12461
0
LINE
8
BLACK
6
CONTINUOUS
10
0.0906497
20
-2.12461
11
0.0910011
21
-2.12592
0
LINE
8
BLACK
6
CONTINUOUS
10
0.0910011
20
-2.12592
11
0.0910011
21
-2.13435
0
LINE
8
BLACK
6
CONTINUOUS
10
0.0910011
20
-2.13435
11
0.0906497
21
-2.13567
0
LINE
8
BLACK
6
CONTINUOUS
10
0.0906497
20
-2.13567
11
0.0903776
21
-2.137
0
LINE
8
BLACK
6
CONTINUOUS
10
0.0903776
20
-2.137
11
0.0875655
21
-2.14262
0
LINE
8
BLACK
6
CONTINUOUS
10
0.0875655
20
-2.14262
11
0.0869346
21
-2.14333
0
LINE
8
BLACK
6
CONTINUOUS
10
0.0869346
20
-2.14333
11
0.0864593
21
-2.14416
0
LINE
8
BLACK
6
CONTINUOUS
10
0.0864593
20
-2.14416
11
0.0836471
21
-2.14697
0
LINE
8
BLACK
6
CONTINUOUS
10
0.0836471
20
-2.14697
11
0.0828237
21
-2.14744
0
LINE
8
BLACK
6
CONTINUOUS
10
0.0828237
20
-2.14744
11
0.0821123
21
-2.14807
0
LINE
8
BLACK
6
CONTINUOUS
10
0.0821123
20
-2.14807
11
0.076488
21
-2.15089
0
LINE
8
BLACK
6
CONTINUOUS
10
0.076488
20
-2.15089
11
0.0751581
21
-2.15116
0
LINE
8
BLACK
6
CONTINUOUS
10
0.0751581
20
-2.15116
11
0.073847
21
-2.15151
0
LINE
8
BLACK
6
CONTINUOUS
10
0.073847
20
-2.15151
11
0.0513498
21
-2.15151
0
LINE
8
BLACK
6
CONTINUOUS
10
0.0513498
20
-2.15151
11
0.048397
21
-2.15072
0
LINE
8
BLACK
6
CONTINUOUS
10
0.048397
20
-2.15072
11
0.0462355
21
-2.14856
0
LINE
8
BLACK
6
CONTINUOUS
10
0.0462355
20
-2.14856
11
0.0454443
21
-2.1456
0
LINE
8
BLACK
6
CONTINUOUS
10
0.0454443
20
-2.1456
11
0.0454443
21
-2.08655
0
LINE
8
BLACK
6
CONTINUOUS
10
0.0454443
20
-2.08655
11
0.0462355
21
-2.0836
0
LINE
8
BLACK
6
CONTINUOUS
10
0.0462355
20
-2.0836
11
0.048397
21
-2.08143
0
LINE
8
BLACK
6
CONTINUOUS
10
0.048397
20
-2.08143
11
0.0513498
21
-2.08064
0
LINE
8
BLACK
6
CONTINUOUS
10
0.0513498
20
-2.08064
11
0.0710348
21
-2.08064
0
LINE
8
BLACK
6
CONTINUOUS
10
0.0710348
20
-2.08064
11
0.0723459
21
-2.08099
0
LINE
8
BLACK
6
CONTINUOUS
10
0.0572553
20
-2.1397
11
0.0724529
21
-2.1397
0
LINE
8
BLACK
6
CONTINUOUS
10
0.0724529
20
-2.1397
11
0.0759731
21
-2.13794
0
LINE
8
BLACK
6
CONTINUOUS
10
0.0759731
20
-2.13794
11
0.07743
21
-2.13648
0
LINE
8
BLACK
6
CONTINUOUS
10
0.07743
20
-2.13648
11
0.0791901
21
-2.13296
0
LINE
8
BLACK
6
CONTINUOUS
10
0.0791901
20
-2.13296
11
0.0791901
21
-2.12731
0
LINE
8
BLACK
6
CONTINUOUS
10
0.0791901
20
-2.12731
11
0.07743
21
-2.12379
0
LINE
8
BLACK
6
CONTINUOUS
10
0.07743
20
-2.12379
11
0.0762813
21
-2.12264
0
LINE
8
BLACK
6
CONTINUOUS
10
0.0762813
20
-2.12264
11
0.0700765
21
-2.12058
0
LINE
8
BLACK
6
CONTINUOUS
10
0.0700765
20
-2.12058
11
0.0572553
21
-2.12058
0
LINE
8
BLACK
6
CONTINUOUS
10
0.0572553
20
-2.12058
11
0.0572553
21
-2.1397
0
LINE
8
BLACK
6
CONTINUOUS
10
0.0572553
20
-2.10876
11
0.0696407
21
-2.10876
0
LINE
8
BLACK
6
CONTINUOUS
10
0.0696407
20
-2.10876
11
0.073161
21
-2.107
0
LINE
8
BLACK
6
CONTINUOUS
10
0.073161
20
-2.107
11
0.0746178
21
-2.10555
0
LINE
8
BLACK
6
CONTINUOUS
10
0.0746178
20
-2.10555
11
0.076378
21
-2.10203
0
LINE
8
BLACK
6
CONTINUOUS
10
0.076378
20
-2.10203
11
0.076378
21
-2.09919
0
LINE
8
BLACK
6
CONTINUOUS
10
0.076378
20
-2.09919
11
0.0746178
21
-2.09567
0
LINE
8
BLACK
6
CONTINUOUS
10
0.0746178
20
-2.09567
11
0.073161
21
-2.09421
0
LINE
8
BLACK
6
CONTINUOUS
10
0.073161
20
-2.09421
11
0.0696407
21
-2.09245
0
LINE
8
BLACK
6
CONTINUOUS
10
0.0696407
20
-2.09245
11
0.0572553
21
-2.09245
0
LINE
8
BLACK
6
CONTINUOUS
10
0.0572553
20
-2.09245
11
0.0572553
21
-2.10876
0
CIRCLE
8
BLACK
10
0
20
0
40
0.00688976
0
CIRCLE
8
BLACK
10
1.6
20
0
40
0.00688976
0
CIRCLE
8
BLACK
10
0
20
-0.8
40
0.00688976
0
CIRCLE
8
BLACK
10
0.710236
20
-0.60315
40
0.00787402
0
CIRCLE
8
BLACK
10
-0.106693
20
-0.264567
40
0.00787402
0
CIRCLE
8
BLACK
10
0.133465
20
-0.41811
40
0.00787402
  0
ENDSEC
  0
EOF
