  0
SECTION
  2
HEADER
  9
$ANGBASE
  50
0.0
  9
$ANGDIR
  70
1
  9
$MEASUREMENT
  70
0
  0
ENDSEC
  0
SECTION
  2
TABLES
  0
TABLE
  2
LTYPE
  70
4
  0
LTYPE
  5
40F
  2
CONTINUOUS
  70
0
  3
Solid line
  72
65
  73
0
  40
0.0
  0
LTYPE
  5
410
  2
DASHDOT
 70
0
  3
Dash Dot ____ _ ____ _
 72
65
 73
4
 40
2.0
 49
1.25
 49
-0.25
 49
0.25
 49
-0.25
  0
LTYPE
  5
411
  2
DASHED
 70
0
  3
Dashed __ __ __ __ __
 72
65
 73
2
 40
0.75
 49
0.5
 49
-0.25
  0
LTYPE
  5
43B
  2
DOTTED
 70
0
  3
Dotted .  .  .  .
 72
65
 73
2
 40
0.2
 49
0.0
 49
-0.2
  0
ENDTAB
  0
TABLE
  2
STYLE
  70
4
  0
STYLE
  2
KICAD
  70
0
  40
0
  41
1
  42
1
  50
0
  71
0
  3
isocp.shx
  0
STYLE
  2
KICADB
  70
0
  40
0
  41
1
  42
1
  50
0
  71
0
  3
isocp.shx
  0
STYLE
  2
KICADI
  70
0
  40
0
  41
1
  42
1
  50
15
  71
0
  3
isocp.shx
  0
STYLE
  2
KICADBI
  70
0
  40
0
  41
1
  42
1
  50
15
  71
0
  3
isocp.shx
  0
ENDTAB
  0
TABLE
  2
LAYER
  70
1
  0
LAYER
  2
BLACK
  70
0
  62
7
  6
CONTINUOUS
  0
ENDTAB
  0
ENDSEC
  0
SECTION
  2
ENTITIES
0
LINE
8
BLACK
6
CONTINUOUS
10
0.133848
20
-0.401446
11
0.133977
21
-0.401423
0
LINE
8
BLACK
6
CONTINUOUS
10
0.133977
20
-0.401423
11
0.134091
21
-0.401488
0
LINE
8
BLACK
6
CONTINUOUS
10
0.134091
20
-0.401488
11
0.134474
21
-0.401556
0
LINE
8
BLACK
6
CONTINUOUS
10
0.134474
20
-0.401556
11
0.135062
21
-0.402049
0
LINE
8
BLACK
6
CONTINUOUS
10
0.135062
20
-0.402049
11
0.135726
21
-0.402433
0
LINE
8
BLACK
6
CONTINUOUS
10
0.135726
20
-0.402433
11
0.135818
21
-0.402683
0
LINE
8
BLACK
6
CONTINUOUS
10
0.135818
20
-0.402683
11
0.136022
21
-0.402854
0
LINE
8
BLACK
6
CONTINUOUS
10
0.136022
20
-0.402854
11
0.136155
21
-0.40361
0
LINE
8
BLACK
6
CONTINUOUS
10
0.136155
20
-0.40361
11
0.136417
21
-0.404331
0
LINE
8
BLACK
6
CONTINUOUS
10
0.136417
20
-0.404331
11
0.136417
21
-0.426969
0
LINE
8
BLACK
6
CONTINUOUS
10
0.136417
20
-0.426969
11
0.15315
21
-0.426969
0
LINE
8
BLACK
6
CONTINUOUS
10
0.15315
20
-0.426969
11
0.153533
21
-0.427036
0
LINE
8
BLACK
6
CONTINUOUS
10
0.153533
20
-0.427036
11
0.153662
21
-0.427013
0
LINE
8
BLACK
6
CONTINUOUS
10
0.153662
20
-0.427013
11
0.153776
21
-0.427079
0
LINE
8
BLACK
6
CONTINUOUS
10
0.153776
20
-0.427079
11
0.15416
21
-0.427147
0
LINE
8
BLACK
6
CONTINUOUS
10
0.15416
20
-0.427147
11
0.154747
21
-0.42764
0
LINE
8
BLACK
6
CONTINUOUS
10
0.154747
20
-0.42764
11
0.155412
21
-0.428023
0
LINE
8
BLACK
6
CONTINUOUS
10
0.155412
20
-0.428023
11
0.155503
21
-0.428274
0
LINE
8
BLACK
6
CONTINUOUS
10
0.155503
20
-0.428274
11
0.155707
21
-0.428445
0
LINE
8
BLACK
6
CONTINUOUS
10
0.155707
20
-0.428445
11
0.15584
21
-0.4292
0
LINE
8
BLACK
6
CONTINUOUS
10
0.15584
20
-0.4292
11
0.156102
21
-0.429921
0
LINE
8
BLACK
6
CONTINUOUS
10
0.156102
20
-0.429921
11
0.156102
21
-0.528346
0
LINE
8
BLACK
6
CONTINUOUS
10
0.156102
20
-0.528346
11
0.156035
21
-0.52873
0
LINE
8
BLACK
6
CONTINUOUS
10
0.156035
20
-0.52873
11
0.156058
21
-0.528859
0
LINE
8
BLACK
6
CONTINUOUS
10
0.156058
20
-0.528859
11
0.155992
21
-0.528973
0
LINE
8
BLACK
6
CONTINUOUS
10
0.155992
20
-0.528973
11
0.155924
21
-0.529356
0
LINE
8
BLACK
6
CONTINUOUS
10
0.155924
20
-0.529356
11
0.155431
21
-0.529944
0
LINE
8
BLACK
6
CONTINUOUS
10
0.155431
20
-0.529944
11
0.155048
21
-0.530608
0
LINE
8
BLACK
6
CONTINUOUS
10
0.155048
20
-0.530608
11
0.154797
21
-0.530699
0
LINE
8
BLACK
6
CONTINUOUS
10
0.154797
20
-0.530699
11
0.154626
21
-0.530904
0
LINE
8
BLACK
6
CONTINUOUS
10
0.154626
20
-0.530904
11
0.15387
21
-0.531037
0
LINE
8
BLACK
6
CONTINUOUS
10
0.15387
20
-0.531037
11
0.15315
21
-0.531299
0
LINE
8
BLACK
6
CONTINUOUS
10
0.15315
20
-0.531299
11
0.136417
21
-0.531299
0
LINE
8
BLACK
6
CONTINUOUS
10
0.136417
20
-0.531299
11
0.136417
21
-0.553937
0
LINE
8
BLACK
6
CONTINUOUS
10
0.136417
20
-0.553937
11
0.13635
21
-0.554321
0
LINE
8
BLACK
6
CONTINUOUS
10
0.13635
20
-0.554321
11
0.136372
21
-0.55445
0
LINE
8
BLACK
6
CONTINUOUS
10
0.136372
20
-0.55445
11
0.136307
21
-0.554563
0
LINE
8
BLACK
6
CONTINUOUS
10
0.136307
20
-0.554563
11
0.136239
21
-0.554947
0
LINE
8
BLACK
6
CONTINUOUS
10
0.136239
20
-0.554947
11
0.135746
21
-0.555535
0
LINE
8
BLACK
6
CONTINUOUS
10
0.135746
20
-0.555535
11
0.135363
21
-0.556199
0
LINE
8
BLACK
6
CONTINUOUS
10
0.135363
20
-0.556199
11
0.135112
21
-0.55629
0
LINE
8
BLACK
6
CONTINUOUS
10
0.135112
20
-0.55629
11
0.134941
21
-0.556494
0
LINE
8
BLACK
6
CONTINUOUS
10
0.134941
20
-0.556494
11
0.134185
21
-0.556627
0
LINE
8
BLACK
6
CONTINUOUS
10
0.134185
20
-0.556627
11
0.133465
21
-0.55689
0
LINE
8
BLACK
6
CONTINUOUS
10
0.133465
20
-0.55689
11
0.0940945
21
-0.55689
0
LINE
8
BLACK
6
CONTINUOUS
10
0.0940945
20
-0.55689
11
0.0937109
21
-0.556822
0
LINE
8
BLACK
6
CONTINUOUS
10
0.0937109
20
-0.556822
11
0.0935817
21
-0.556845
0
LINE
8
BLACK
6
CONTINUOUS
10
0.0935817
20
-0.556845
11
0.0934681
21
-0.556779
0
LINE
8
BLACK
6
CONTINUOUS
10
0.0934681
20
-0.556779
11
0.0930846
21
-0.556712
0
LINE
8
BLACK
6
CONTINUOUS
10
0.0930846
20
-0.556712
11
0.0924969
21
-0.556219
0
LINE
8
BLACK
6
CONTINUOUS
10
0.0924969
20
-0.556219
11
0.0918326
21
-0.555835
0
LINE
8
BLACK
6
CONTINUOUS
10
0.0918326
20
-0.555835
11
0.0917414
21
-0.555585
0
LINE
8
BLACK
6
CONTINUOUS
10
0.0917414
20
-0.555585
11
0.0915373
21
-0.555413
0
LINE
8
BLACK
6
CONTINUOUS
10
0.0915373
20
-0.555413
11
0.0914041
21
-0.554658
0
LINE
8
BLACK
6
CONTINUOUS
10
0.0914041
20
-0.554658
11
0.0911417
21
-0.553937
0
LINE
8
BLACK
6
CONTINUOUS
10
0.0911417
20
-0.553937
11
0.0911417
21
-0.531299
0
LINE
8
BLACK
6
CONTINUOUS
10
0.0911417
20
-0.531299
11
0.0744094
21
-0.531299
0
LINE
8
BLACK
6
CONTINUOUS
10
0.0744094
20
-0.531299
11
0.0740259
21
-0.531232
0
LINE
8
BLACK
6
CONTINUOUS
10
0.0740259
20
-0.531232
11
0.0738967
21
-0.531254
0
LINE
8
BLACK
6
CONTINUOUS
10
0.0738967
20
-0.531254
11
0.0737831
21
-0.531189
0
LINE
8
BLACK
6
CONTINUOUS
10
0.0737831
20
-0.531189
11
0.0733995
21
-0.531121
0
LINE
8
BLACK
6
CONTINUOUS
10
0.0733995
20
-0.531121
11
0.0728118
21
-0.530628
0
LINE
8
BLACK
6
CONTINUOUS
10
0.0728118
20
-0.530628
11
0.0721475
21
-0.530244
0
LINE
8
BLACK
6
CONTINUOUS
10
0.0721475
20
-0.530244
11
0.0720564
21
-0.529994
0
LINE
8
BLACK
6
CONTINUOUS
10
0.0720564
20
-0.529994
11
0.0718523
21
-0.529823
0
LINE
8
BLACK
6
CONTINUOUS
10
0.0718523
20
-0.529823
11
0.071719
21
-0.529067
0
LINE
8
BLACK
6
CONTINUOUS
10
0.071719
20
-0.529067
11
0.0714567
21
-0.528346
0
LINE
8
BLACK
6
CONTINUOUS
10
0.0714567
20
-0.528346
11
0.0714567
21
-0.429921
0
LINE
8
BLACK
6
CONTINUOUS
10
0.0714567
20
-0.429921
11
0.0715243
21
-0.429538
0
LINE
8
BLACK
6
CONTINUOUS
10
0.0715243
20
-0.429538
11
0.0715015
21
-0.429409
0
LINE
8
BLACK
6
CONTINUOUS
10
0.0715015
20
-0.429409
11
0.0715671
21
-0.429295
0
LINE
8
BLACK
6
CONTINUOUS
10
0.0715671
20
-0.429295
11
0.0716348
21
-0.428911
0
LINE
8
BLACK
6
CONTINUOUS
10
0.0716348
20
-0.428911
11
0.0721279
21
-0.428324
0
LINE
8
BLACK
6
CONTINUOUS
10
0.0721279
20
-0.428324
11
0.0725115
21
-0.427659
0
LINE
8
BLACK
6
CONTINUOUS
10
0.0725115
20
-0.427659
11
0.0727618
21
-0.427568
0
LINE
8
BLACK
6
CONTINUOUS
10
0.0727618
20
-0.427568
11
0.0729331
21
-0.427364
0
LINE
8
BLACK
6
CONTINUOUS
10
0.0729331
20
-0.427364
11
0.0736886
21
-0.427231
0
LINE
8
BLACK
6
CONTINUOUS
10
0.0736886
20
-0.427231
11
0.0744094
21
-0.426969
0
LINE
8
BLACK
6
CONTINUOUS
10
0.0744094
20
-0.426969
11
0.0911417
21
-0.426969
0
LINE
8
BLACK
6
CONTINUOUS
10
0.0911417
20
-0.426969
11
0.0911417
21
-0.404331
0
LINE
8
BLACK
6
CONTINUOUS
10
0.0911417
20
-0.404331
11
0.0912093
21
-0.403947
0
LINE
8
BLACK
6
CONTINUOUS
10
0.0912093
20
-0.403947
11
0.0911866
21
-0.403818
0
LINE
8
BLACK
6
CONTINUOUS
10
0.0911866
20
-0.403818
11
0.0912522
21
-0.403704
0
LINE
8
BLACK
6
CONTINUOUS
10
0.0912522
20
-0.403704
11
0.0913198
21
-0.403321
0
LINE
8
BLACK
6
CONTINUOUS
10
0.0913198
20
-0.403321
11
0.0918129
21
-0.402733
0
LINE
8
BLACK
6
CONTINUOUS
10
0.0918129
20
-0.402733
11
0.0921965
21
-0.402069
0
LINE
8
BLACK
6
CONTINUOUS
10
0.0921965
20
-0.402069
11
0.0924468
21
-0.401978
0
LINE
8
BLACK
6
CONTINUOUS
10
0.0924468
20
-0.401978
11
0.0926181
21
-0.401774
0
LINE
8
BLACK
6
CONTINUOUS
10
0.0926181
20
-0.401774
11
0.0933737
21
-0.40164
0
LINE
8
BLACK
6
CONTINUOUS
10
0.0933737
20
-0.40164
11
0.0940945
21
-0.401378
0
LINE
8
BLACK
6
CONTINUOUS
10
0.0940945
20
-0.401378
11
0.133465
21
-0.401378
0
LINE
8
BLACK
6
CONTINUOUS
10
0.133465
20
-0.401378
11
0.133848
21
-0.401446
0
LINE
8
BLACK
6
CONTINUOUS
10
0.111527
20
-0.520664
11
0.110955
21
-0.520901
0
LINE
8
BLACK
6
CONTINUOUS
10
0.110955
20
-0.520901
11
0.110488
21
-0.521306
0
LINE
8
BLACK
6
CONTINUOUS
10
0.110488
20
-0.521306
11
0.105426
21
-0.522994
0
LINE
8
BLACK
6
CONTINUOUS
10
0.105426
20
-0.522994
11
0.10499
21
-0.522963
0
LINE
8
BLACK
6
CONTINUOUS
10
0.10499
20
-0.522963
11
0.104586
21
-0.52313
0
LINE
8
BLACK
6
CONTINUOUS
10
0.104586
20
-0.52313
11
0.101211
21
-0.52313
0
LINE
8
BLACK
6
CONTINUOUS
10
0.101211
20
-0.52313
11
0.10064
21
-0.522893
0
LINE
8
BLACK
6
CONTINUOUS
10
0.10064
20
-0.522893
11
0.100023
21
-0.522849
0
LINE
8
BLACK
6
CONTINUOUS
10
0.100023
20
-0.522849
11
0.0970472
21
-0.521362
0
LINE
8
BLACK
6
CONTINUOUS
10
0.0970472
20
-0.521362
11
0.0970472
21
-0.550984
0
LINE
8
BLACK
6
CONTINUOUS
10
0.0970472
20
-0.550984
11
0.130512
21
-0.550984
0
LINE
8
BLACK
6
CONTINUOUS
10
0.130512
20
-0.550984
11
0.130512
21
-0.522874
0
LINE
8
BLACK
6
CONTINUOUS
10
0.130512
20
-0.522874
11
0.129895
21
-0.52313
0
LINE
8
BLACK
6
CONTINUOUS
10
0.129895
20
-0.52313
11
0.128016
21
-0.522352
0
LINE
8
BLACK
6
CONTINUOUS
10
0.128016
20
-0.522352
11
0.127238
21
-0.520472
0
LINE
8
BLACK
6
CONTINUOUS
10
0.127238
20
-0.520472
11
0.127238
21
-0.504953
0
LINE
8
BLACK
6
CONTINUOUS
10
0.127238
20
-0.504953
11
0.111527
21
-0.520664
0
LINE
8
BLACK
6
CONTINUOUS
10
0.136417
20
-0.482087
11
0.136417
21
-0.525394
0
LINE
8
BLACK
6
CONTINUOUS
10
0.136417
20
-0.525394
11
0.150197
21
-0.525394
0
LINE
8
BLACK
6
CONTINUOUS
10
0.150197
20
-0.525394
11
0.150197
21
-0.482087
0
LINE
8
BLACK
6
CONTINUOUS
10
0.150197
20
-0.482087
11
0.136417
21
-0.482087
0
LINE
8
BLACK
6
CONTINUOUS
10
0.0773622
20
-0.482087
11
0.0773622
21
-0.525394
0
LINE
8
BLACK
6
CONTINUOUS
10
0.0773622
20
-0.525394
11
0.0911417
21
-0.525394
0
LINE
8
BLACK
6
CONTINUOUS
10
0.0911417
20
-0.525394
11
0.0911417
21
-0.482087
0
LINE
8
BLACK
6
CONTINUOUS
10
0.0911417
20
-0.482087
11
0.0773622
21
-0.482087
0
LINE
8
BLACK
6
CONTINUOUS
10
0.129895
20
-0.469137
11
0.11568
21
-0.469137
0
LINE
8
BLACK
6
CONTINUOUS
10
0.11568
20
-0.469137
11
0.11568
21
-0.479977
0
LINE
8
BLACK
6
CONTINUOUS
10
0.11568
20
-0.479977
11
0.115443
21
-0.480549
0
LINE
8
BLACK
6
CONTINUOUS
10
0.115443
20
-0.480549
11
0.115399
21
-0.481166
0
LINE
8
BLACK
6
CONTINUOUS
10
0.115399
20
-0.481166
11
0.113712
21
-0.484541
0
LINE
8
BLACK
6
CONTINUOUS
10
0.113712
20
-0.484541
11
0.113381
21
-0.484827
0
LINE
8
BLACK
6
CONTINUOUS
10
0.113381
20
-0.484827
11
0.113214
21
-0.485231
0
LINE
8
BLACK
6
CONTINUOUS
10
0.113214
20
-0.485231
11
0.111527
21
-0.486919
0
LINE
8
BLACK
6
CONTINUOUS
10
0.111527
20
-0.486919
11
0.111123
21
-0.487086
0
LINE
8
BLACK
6
CONTINUOUS
10
0.111123
20
-0.487086
11
0.110836
21
-0.487416
0
LINE
8
BLACK
6
CONTINUOUS
10
0.110836
20
-0.487416
11
0.107462
21
-0.489104
0
LINE
8
BLACK
6
CONTINUOUS
10
0.107462
20
-0.489104
11
0.106845
21
-0.489147
0
LINE
8
BLACK
6
CONTINUOUS
10
0.106845
20
-0.489147
11
0.106273
21
-0.489384
0
LINE
8
BLACK
6
CONTINUOUS
10
0.106273
20
-0.489384
11
0.101211
21
-0.489384
0
LINE
8
BLACK
6
CONTINUOUS
10
0.101211
20
-0.489384
11
0.10064
21
-0.489147
0
LINE
8
BLACK
6
CONTINUOUS
10
0.10064
20
-0.489147
11
0.100023
21
-0.489104
0
LINE
8
BLACK
6
CONTINUOUS
10
0.100023
20
-0.489104
11
0.0970472
21
-0.487616
0
LINE
8
BLACK
6
CONTINUOUS
10
0.0970472
20
-0.487616
11
0.0970472
21
-0.497894
0
LINE
8
BLACK
6
CONTINUOUS
10
0.0970472
20
-0.497894
11
0.0978367
21
-0.497567
0
LINE
8
BLACK
6
CONTINUOUS
10
0.0978367
20
-0.497567
11
0.0997158
21
-0.498346
0
LINE
8
BLACK
6
CONTINUOUS
10
0.0997158
20
-0.498346
11
0.100494
21
-0.500225
0
LINE
8
BLACK
6
CONTINUOUS
10
0.100494
20
-0.500225
11
0.0997158
21
-0.502104
0
LINE
8
BLACK
6
CONTINUOUS
10
0.0997158
20
-0.502104
11
0.0983334
21
-0.503486
0
LINE
8
BLACK
6
CONTINUOUS
10
0.0983334
20
-0.503486
11
0.0971196
21
-0.505914
0
LINE
8
BLACK
6
CONTINUOUS
10
0.0971196
20
-0.505914
11
0.0971196
21
-0.513096
0
LINE
8
BLACK
6
CONTINUOUS
10
0.0971196
20
-0.513096
11
0.0983334
21
-0.515524
0
LINE
8
BLACK
6
CONTINUOUS
10
0.0983334
20
-0.515524
11
0.0994109
21
-0.516601
0
LINE
8
BLACK
6
CONTINUOUS
10
0.0994109
20
-0.516601
11
0.101839
21
-0.517815
0
LINE
8
BLACK
6
CONTINUOUS
10
0.101839
20
-0.517815
11
0.104155
21
-0.517815
0
LINE
8
BLACK
6
CONTINUOUS
10
0.104155
20
-0.517815
11
0.108212
21
-0.516462
0
LINE
8
BLACK
6
CONTINUOUS
10
0.108212
20
-0.516462
11
0.128016
21
-0.496659
0
LINE
8
BLACK
6
CONTINUOUS
10
0.128016
20
-0.496659
11
0.129895
21
-0.49588
0
LINE
8
BLACK
6
CONTINUOUS
10
0.129895
20
-0.49588
11
0.130512
21
-0.496136
0
LINE
8
BLACK
6
CONTINUOUS
10
0.130512
20
-0.496136
11
0.130512
21
-0.468881
0
LINE
8
BLACK
6
CONTINUOUS
10
0.130512
20
-0.468881
11
0.129895
21
-0.469137
0
LINE
8
BLACK
6
CONTINUOUS
10
0.0971196
20
-0.47935
11
0.0983334
21
-0.481778
0
LINE
8
BLACK
6
CONTINUOUS
10
0.0983334
20
-0.481778
11
0.0994109
21
-0.482855
0
LINE
8
BLACK
6
CONTINUOUS
10
0.0994109
20
-0.482855
11
0.101839
21
-0.484069
0
LINE
8
BLACK
6
CONTINUOUS
10
0.101839
20
-0.484069
11
0.105646
21
-0.484069
0
LINE
8
BLACK
6
CONTINUOUS
10
0.105646
20
-0.484069
11
0.108073
21
-0.482855
0
LINE
8
BLACK
6
CONTINUOUS
10
0.108073
20
-0.482855
11
0.109151
21
-0.481778
0
LINE
8
BLACK
6
CONTINUOUS
10
0.109151
20
-0.481778
11
0.110365
21
-0.47935
0
LINE
8
BLACK
6
CONTINUOUS
10
0.110365
20
-0.47935
11
0.110365
21
-0.469137
0
LINE
8
BLACK
6
CONTINUOUS
10
0.110365
20
-0.469137
11
0.0971196
21
-0.469137
0
LINE
8
BLACK
6
CONTINUOUS
10
0.0971196
20
-0.469137
11
0.0971196
21
-0.47935
0
LINE
8
BLACK
6
CONTINUOUS
10
0.136417
20
-0.432874
11
0.136417
21
-0.476181
0
LINE
8
BLACK
6
CONTINUOUS
10
0.136417
20
-0.476181
11
0.150197
21
-0.476181
0
LINE
8
BLACK
6
CONTINUOUS
10
0.150197
20
-0.476181
11
0.150197
21
-0.432874
0
LINE
8
BLACK
6
CONTINUOUS
10
0.150197
20
-0.432874
11
0.136417
21
-0.432874
0
LINE
8
BLACK
6
CONTINUOUS
10
0.0773622
20
-0.432874
11
0.0773622
21
-0.476181
0
LINE
8
BLACK
6
CONTINUOUS
10
0.0773622
20
-0.476181
11
0.0911417
21
-0.476181
0
LINE
8
BLACK
6
CONTINUOUS
10
0.0911417
20
-0.476181
11
0.0911417
21
-0.432874
0
LINE
8
BLACK
6
CONTINUOUS
10
0.0911417
20
-0.432874
11
0.0773622
21
-0.432874
0
LINE
8
BLACK
6
CONTINUOUS
10
0.129895
20
-0.447202
11
0.0971196
21
-0.447202
0
LINE
8
BLACK
6
CONTINUOUS
10
0.0971196
20
-0.447202
11
0.0971196
21
-0.454668
0
LINE
8
BLACK
6
CONTINUOUS
10
0.0971196
20
-0.454668
11
0.0970472
21
-0.454843
0
LINE
8
BLACK
6
CONTINUOUS
10
0.0970472
20
-0.454843
11
0.0970472
21
-0.463822
0
LINE
8
BLACK
6
CONTINUOUS
10
0.0970472
20
-0.463822
11
0.129895
21
-0.463822
0
LINE
8
BLACK
6
CONTINUOUS
10
0.129895
20
-0.463822
11
0.130512
21
-0.464077
0
LINE
8
BLACK
6
CONTINUOUS
10
0.130512
20
-0.464077
11
0.130512
21
-0.446946
0
LINE
8
BLACK
6
CONTINUOUS
10
0.130512
20
-0.446946
11
0.129895
21
-0.447202
0
LINE
8
BLACK
6
CONTINUOUS
10
0.0970472
20
-0.407283
11
0.0970472
21
-0.434246
0
LINE
8
BLACK
6
CONTINUOUS
10
0.0970472
20
-0.434246
11
0.0971196
21
-0.434421
0
LINE
8
BLACK
6
CONTINUOUS
10
0.0971196
20
-0.434421
11
0.0971196
21
-0.441887
0
LINE
8
BLACK
6
CONTINUOUS
10
0.0971196
20
-0.441887
11
0.129895
21
-0.441887
0
LINE
8
BLACK
6
CONTINUOUS
10
0.129895
20
-0.441887
11
0.130512
21
-0.442142
0
LINE
8
BLACK
6
CONTINUOUS
10
0.130512
20
-0.442142
11
0.130512
21
-0.407283
0
LINE
8
BLACK
6
CONTINUOUS
10
0.130512
20
-0.407283
11
0.0970472
21
-0.407283
0
LINE
8
BLACK
6
CONTINUOUS
10
-0.171173
20
-0.319945
11
-0.170482
21
-0.321843
0
LINE
8
BLACK
6
CONTINUOUS
10
-0.170482
20
-0.321843
11
-0.170482
21
-0.332014
0
LINE
8
BLACK
6
CONTINUOUS
10
-0.170482
20
-0.332014
11
-0.16781
21
-0.332014
0
LINE
8
BLACK
6
CONTINUOUS
10
-0.16781
20
-0.332014
11
-0.1668
21
-0.332192
0
LINE
8
BLACK
6
CONTINUOUS
10
-0.1668
20
-0.332192
11
-0.165253
21
-0.33349
0
LINE
8
BLACK
6
CONTINUOUS
10
-0.165253
20
-0.33349
11
-0.164902
21
-0.335479
0
LINE
8
BLACK
6
CONTINUOUS
10
-0.164902
20
-0.335479
11
-0.165912
21
-0.337229
0
LINE
8
BLACK
6
CONTINUOUS
10
-0.165912
20
-0.337229
11
-0.16781
21
-0.337919
0
LINE
8
BLACK
6
CONTINUOUS
10
-0.16781
20
-0.337919
11
-0.170482
21
-0.337919
0
LINE
8
BLACK
6
CONTINUOUS
10
-0.170482
20
-0.337919
11
-0.170482
21
-0.355589
0
LINE
8
BLACK
6
CONTINUOUS
10
-0.170482
20
-0.355589
11
-0.17066
21
-0.356599
0
LINE
8
BLACK
6
CONTINUOUS
10
-0.17066
20
-0.356599
11
-0.170773
21
-0.356734
0
LINE
8
BLACK
6
CONTINUOUS
10
-0.170773
20
-0.356734
11
-0.170794
21
-0.35691
0
LINE
8
BLACK
6
CONTINUOUS
10
-0.170794
20
-0.35691
11
-0.172668
21
-0.360659
0
LINE
8
BLACK
6
CONTINUOUS
10
-0.172668
20
-0.360659
11
-0.173279
21
-0.361483
0
LINE
8
BLACK
6
CONTINUOUS
10
-0.173279
20
-0.361483
11
-0.173685
21
-0.361659
0
LINE
8
BLACK
6
CONTINUOUS
10
-0.173685
20
-0.361659
11
-0.173989
21
-0.36198
0
LINE
8
BLACK
6
CONTINUOUS
10
-0.173989
20
-0.36198
11
-0.177738
21
-0.363854
0
LINE
8
BLACK
6
CONTINUOUS
10
-0.177738
20
-0.363854
11
-0.178721
21
-0.364147
0
LINE
8
BLACK
6
CONTINUOUS
10
-0.178721
20
-0.364147
11
-0.178893
21
-0.364106
0
LINE
8
BLACK
6
CONTINUOUS
10
-0.178893
20
-0.364106
11
-0.179059
21
-0.364166
0
LINE
8
BLACK
6
CONTINUOUS
10
-0.179059
20
-0.364166
11
-0.182808
21
-0.364166
0
LINE
8
BLACK
6
CONTINUOUS
10
-0.182808
20
-0.364166
11
-0.183818
21
-0.363988
0
LINE
8
BLACK
6
CONTINUOUS
10
-0.183818
20
-0.363988
11
-0.185366
21
-0.36269
0
LINE
8
BLACK
6
CONTINUOUS
10
-0.185366
20
-0.36269
11
-0.185716
21
-0.360701
0
LINE
8
BLACK
6
CONTINUOUS
10
-0.185716
20
-0.360701
11
-0.184706
21
-0.358951
0
LINE
8
BLACK
6
CONTINUOUS
10
-0.184706
20
-0.358951
11
-0.182808
21
-0.358261
0
LINE
8
BLACK
6
CONTINUOUS
10
-0.182808
20
-0.358261
11
-0.179756
21
-0.358261
0
LINE
8
BLACK
6
CONTINUOUS
10
-0.179756
20
-0.358261
11
-0.17751
21
-0.357138
0
LINE
8
BLACK
6
CONTINUOUS
10
-0.17751
20
-0.357138
11
-0.176387
21
-0.354892
0
LINE
8
BLACK
6
CONTINUOUS
10
-0.176387
20
-0.354892
11
-0.176387
21
-0.337919
0
LINE
8
BLACK
6
CONTINUOUS
10
-0.176387
20
-0.337919
11
-0.182808
21
-0.337919
0
LINE
8
BLACK
6
CONTINUOUS
10
-0.182808
20
-0.337919
11
-0.183818
21
-0.337741
0
LINE
8
BLACK
6
CONTINUOUS
10
-0.183818
20
-0.337741
11
-0.185366
21
-0.336443
0
LINE
8
BLACK
6
CONTINUOUS
10
-0.185366
20
-0.336443
11
-0.185716
21
-0.334454
0
LINE
8
BLACK
6
CONTINUOUS
10
-0.185716
20
-0.334454
11
-0.184706
21
-0.332705
0
LINE
8
BLACK
6
CONTINUOUS
10
-0.184706
20
-0.332705
11
-0.182808
21
-0.332014
0
LINE
8
BLACK
6
CONTINUOUS
10
-0.182808
20
-0.332014
11
-0.176387
21
-0.332014
0
LINE
8
BLACK
6
CONTINUOUS
10
-0.176387
20
-0.332014
11
-0.176387
21
-0.321843
0
LINE
8
BLACK
6
CONTINUOUS
10
-0.176387
20
-0.321843
11
-0.176209
21
-0.320833
0
LINE
8
BLACK
6
CONTINUOUS
10
-0.176209
20
-0.320833
11
-0.174911
21
-0.319286
0
LINE
8
BLACK
6
CONTINUOUS
10
-0.174911
20
-0.319286
11
-0.172922
21
-0.318935
0
LINE
8
BLACK
6
CONTINUOUS
10
-0.172922
20
-0.318935
11
-0.171173
21
-0.319945
0
LINE
8
BLACK
6
CONTINUOUS
10
-0.0880602
20
-0.332192
11
-0.087925
21
-0.332305
0
LINE
8
BLACK
6
CONTINUOUS
10
-0.087925
20
-0.332305
11
-0.0877496
21
-0.332326
0
LINE
8
BLACK
6
CONTINUOUS
10
-0.0877496
20
-0.332326
11
-0.0840001
21
-0.3342
0
LINE
8
BLACK
6
CONTINUOUS
10
-0.0840001
20
-0.3342
11
-0.0832911
21
-0.334726
0
LINE
8
BLACK
6
CONTINUOUS
10
-0.0832911
20
-0.334726
11
-0.0832327
21
-0.334753
0
LINE
8
BLACK
6
CONTINUOUS
10
-0.0832327
20
-0.334753
11
-0.081358
21
-0.336628
0
LINE
8
BLACK
6
CONTINUOUS
10
-0.081358
20
-0.336628
11
-0.0808517
21
-0.337351
0
LINE
8
BLACK
6
CONTINUOUS
10
-0.0808517
20
-0.337351
11
-0.0808048
21
-0.337396
0
LINE
8
BLACK
6
CONTINUOUS
10
-0.0808048
20
-0.337396
11
-0.0789301
21
-0.341145
0
LINE
8
BLACK
6
CONTINUOUS
10
-0.0789301
20
-0.341145
11
-0.0786377
21
-0.342128
0
LINE
8
BLACK
6
CONTINUOUS
10
-0.0786377
20
-0.342128
11
-0.0786787
21
-0.3423
0
LINE
8
BLACK
6
CONTINUOUS
10
-0.0786787
20
-0.3423
11
-0.0786183
21
-0.342466
0
LINE
8
BLACK
6
CONTINUOUS
10
-0.0786183
20
-0.342466
11
-0.0786183
21
-0.353714
0
LINE
8
BLACK
6
CONTINUOUS
10
-0.0786183
20
-0.353714
11
-0.0787964
21
-0.354724
0
LINE
8
BLACK
6
CONTINUOUS
10
-0.0787964
20
-0.354724
11
-0.0789099
21
-0.354859
0
LINE
8
BLACK
6
CONTINUOUS
10
-0.0789099
20
-0.354859
11
-0.0789301
21
-0.355035
0
LINE
8
BLACK
6
CONTINUOUS
10
-0.0789301
20
-0.355035
11
-0.0808048
21
-0.358784
0
LINE
8
BLACK
6
CONTINUOUS
10
-0.0808048
20
-0.358784
11
-0.0813308
21
-0.359493
0
LINE
8
BLACK
6
CONTINUOUS
10
-0.0813308
20
-0.359493
11
-0.081358
21
-0.359552
0
LINE
8
BLACK
6
CONTINUOUS
10
-0.081358
20
-0.359552
11
-0.0832327
21
-0.361426
0
LINE
8
BLACK
6
CONTINUOUS
10
-0.0832327
20
-0.361426
11
-0.0839559
21
-0.361933
0
LINE
8
BLACK
6
CONTINUOUS
10
-0.0839559
20
-0.361933
11
-0.0840001
21
-0.36198
0
LINE
8
BLACK
6
CONTINUOUS
10
-0.0840001
20
-0.36198
11
-0.0877496
21
-0.363854
0
LINE
8
BLACK
6
CONTINUOUS
10
-0.0877496
20
-0.363854
11
-0.0887326
21
-0.364147
0
LINE
8
BLACK
6
CONTINUOUS
10
-0.0887326
20
-0.364147
11
-0.0889043
21
-0.364106
0
LINE
8
BLACK
6
CONTINUOUS
10
-0.0889043
20
-0.364106
11
-0.0890702
21
-0.364166
0
LINE
8
BLACK
6
CONTINUOUS
10
-0.0890702
20
-0.364166
11
-0.0946944
21
-0.364166
0
LINE
8
BLACK
6
CONTINUOUS
10
-0.0946944
20
-0.364166
11
-0.0957044
21
-0.363988
0
LINE
8
BLACK
6
CONTINUOUS
10
-0.0957044
20
-0.363988
11
-0.0958396
21
-0.363875
0
LINE
8
BLACK
6
CONTINUOUS
10
-0.0958396
20
-0.363875
11
-0.096015
21
-0.363854
0
LINE
8
BLACK
6
CONTINUOUS
10
-0.096015
20
-0.363854
11
-0.0997645
21
-0.36198
0
LINE
8
BLACK
6
CONTINUOUS
10
-0.0997645
20
-0.36198
11
-0.100474
21
-0.361454
0
LINE
8
BLACK
6
CONTINUOUS
10
-0.100474
20
-0.361454
11
-0.100532
21
-0.361426
0
LINE
8
BLACK
6
CONTINUOUS
10
-0.100532
20
-0.361426
11
-0.102407
21
-0.359552
0
LINE
8
BLACK
6
CONTINUOUS
10
-0.102407
20
-0.359552
11
-0.102913
21
-0.358829
0
LINE
8
BLACK
6
CONTINUOUS
10
-0.102913
20
-0.358829
11
-0.10296
21
-0.358784
0
LINE
8
BLACK
6
CONTINUOUS
10
-0.10296
20
-0.358784
11
-0.104835
21
-0.355035
0
LINE
8
BLACK
6
CONTINUOUS
10
-0.104835
20
-0.355035
11
-0.105127
21
-0.354052
0
LINE
8
BLACK
6
CONTINUOUS
10
-0.105127
20
-0.354052
11
-0.105086
21
-0.35388
0
LINE
8
BLACK
6
CONTINUOUS
10
-0.105086
20
-0.35388
11
-0.105146
21
-0.353714
0
LINE
8
BLACK
6
CONTINUOUS
10
-0.105146
20
-0.353714
11
-0.105146
21
-0.342466
0
LINE
8
BLACK
6
CONTINUOUS
10
-0.105146
20
-0.342466
11
-0.104968
21
-0.341456
0
LINE
8
BLACK
6
CONTINUOUS
10
-0.104968
20
-0.341456
11
-0.104855
21
-0.34132
0
LINE
8
BLACK
6
CONTINUOUS
10
-0.104855
20
-0.34132
11
-0.104835
21
-0.341145
0
LINE
8
BLACK
6
CONTINUOUS
10
-0.104835
20
-0.341145
11
-0.10296
21
-0.337396
0
LINE
8
BLACK
6
CONTINUOUS
10
-0.10296
20
-0.337396
11
-0.102434
21
-0.336687
0
LINE
8
BLACK
6
CONTINUOUS
10
-0.102434
20
-0.336687
11
-0.102407
21
-0.336628
0
LINE
8
BLACK
6
CONTINUOUS
10
-0.102407
20
-0.336628
11
-0.100532
21
-0.334753
0
LINE
8
BLACK
6
CONTINUOUS
10
-0.100532
20
-0.334753
11
-0.0998088
21
-0.334247
0
LINE
8
BLACK
6
CONTINUOUS
10
-0.0998088
20
-0.334247
11
-0.0997645
21
-0.3342
0
LINE
8
BLACK
6
CONTINUOUS
10
-0.0997645
20
-0.3342
11
-0.096015
21
-0.332326
0
LINE
8
BLACK
6
CONTINUOUS
10
-0.096015
20
-0.332326
11
-0.095032
21
-0.332033
0
LINE
8
BLACK
6
CONTINUOUS
10
-0.095032
20
-0.332033
11
-0.0948604
21
-0.332074
0
LINE
8
BLACK
6
CONTINUOUS
10
-0.0948604
20
-0.332074
11
-0.0946944
21
-0.332014
0
LINE
8
BLACK
6
CONTINUOUS
10
-0.0946944
20
-0.332014
11
-0.0890702
21
-0.332014
0
LINE
8
BLACK
6
CONTINUOUS
10
-0.0890702
20
-0.332014
11
-0.0880602
21
-0.332192
0
LINE
8
BLACK
6
CONTINUOUS
10
-0.0966949
20
-0.339268
11
-0.097892
21
-0.340465
0
LINE
8
BLACK
6
CONTINUOUS
10
-0.097892
20
-0.340465
11
-0.0992407
21
-0.343163
0
LINE
8
BLACK
6
CONTINUOUS
10
-0.0992407
20
-0.343163
11
-0.0992407
21
-0.353017
0
LINE
8
BLACK
6
CONTINUOUS
10
-0.0992407
20
-0.353017
11
-0.097892
21
-0.355715
0
LINE
8
BLACK
6
CONTINUOUS
10
-0.097892
20
-0.355715
11
-0.0966949
21
-0.356912
0
LINE
8
BLACK
6
CONTINUOUS
10
-0.0966949
20
-0.356912
11
-0.0939974
21
-0.358261
0
LINE
8
BLACK
6
CONTINUOUS
10
-0.0939974
20
-0.358261
11
-0.0897672
21
-0.358261
0
LINE
8
BLACK
6
CONTINUOUS
10
-0.0897672
20
-0.358261
11
-0.0870698
21
-0.356912
0
LINE
8
BLACK
6
CONTINUOUS
10
-0.0870698
20
-0.356912
11
-0.0858726
21
-0.355715
0
LINE
8
BLACK
6
CONTINUOUS
10
-0.0858726
20
-0.355715
11
-0.0845239
21
-0.353017
0
LINE
8
BLACK
6
CONTINUOUS
10
-0.0845239
20
-0.353017
11
-0.0845239
21
-0.343163
0
LINE
8
BLACK
6
CONTINUOUS
10
-0.0845239
20
-0.343163
11
-0.0858726
21
-0.340465
0
LINE
8
BLACK
6
CONTINUOUS
10
-0.0858726
20
-0.340465
11
-0.0870697
21
-0.339268
0
LINE
8
BLACK
6
CONTINUOUS
10
-0.0870697
20
-0.339268
11
-0.0897672
21
-0.337919
0
LINE
8
BLACK
6
CONTINUOUS
10
-0.0897672
20
-0.337919
11
-0.0939974
21
-0.337919
0
LINE
8
BLACK
6
CONTINUOUS
10
-0.0939974
20
-0.337919
11
-0.0966949
21
-0.339268
0
LINE
8
BLACK
6
CONTINUOUS
10
-0.0193167
20
-0.319945
11
-0.0186258
21
-0.321843
0
LINE
8
BLACK
6
CONTINUOUS
10
-0.0186258
20
-0.321843
11
-0.0186258
21
-0.332014
0
LINE
8
BLACK
6
CONTINUOUS
10
-0.0186258
20
-0.332014
11
-0.0159543
21
-0.332014
0
LINE
8
BLACK
6
CONTINUOUS
10
-0.0159543
20
-0.332014
11
-0.0149444
21
-0.332192
0
LINE
8
BLACK
6
CONTINUOUS
10
-0.0149444
20
-0.332192
11
-0.0133971
21
-0.33349
0
LINE
8
BLACK
6
CONTINUOUS
10
-0.0133971
20
-0.33349
11
-0.0130464
21
-0.335479
0
LINE
8
BLACK
6
CONTINUOUS
10
-0.0130464
20
-0.335479
11
-0.0140563
21
-0.337229
0
LINE
8
BLACK
6
CONTINUOUS
10
-0.0140563
20
-0.337229
11
-0.0159543
21
-0.337919
0
LINE
8
BLACK
6
CONTINUOUS
10
-0.0159543
20
-0.337919
11
-0.0186258
21
-0.337919
0
LINE
8
BLACK
6
CONTINUOUS
10
-0.0186258
20
-0.337919
11
-0.0186258
21
-0.355589
0
LINE
8
BLACK
6
CONTINUOUS
10
-0.0186258
20
-0.355589
11
-0.0188039
21
-0.356599
0
LINE
8
BLACK
6
CONTINUOUS
10
-0.0188039
20
-0.356599
11
-0.0189174
21
-0.356734
0
LINE
8
BLACK
6
CONTINUOUS
10
-0.0189174
20
-0.356734
11
-0.0189376
21
-0.35691
0
LINE
8
BLACK
6
CONTINUOUS
10
-0.0189376
20
-0.35691
11
-0.0208123
21
-0.360659
0
LINE
8
BLACK
6
CONTINUOUS
10
-0.0208123
20
-0.360659
11
-0.0214232
21
-0.361483
0
LINE
8
BLACK
6
CONTINUOUS
10
-0.0214232
20
-0.361483
11
-0.0218289
21
-0.361659
0
LINE
8
BLACK
6
CONTINUOUS
10
-0.0218289
20
-0.361659
11
-0.0221328
21
-0.36198
0
LINE
8
BLACK
6
CONTINUOUS
10
-0.0221328
20
-0.36198
11
-0.0258824
21
-0.363854
0
LINE
8
BLACK
6
CONTINUOUS
10
-0.0258824
20
-0.363854
11
-0.0268653
21
-0.364147
0
LINE
8
BLACK
6
CONTINUOUS
10
-0.0268653
20
-0.364147
11
-0.027037
21
-0.364106
0
LINE
8
BLACK
6
CONTINUOUS
10
-0.027037
20
-0.364106
11
-0.0272029
21
-0.364166
0
LINE
8
BLACK
6
CONTINUOUS
10
-0.0272029
20
-0.364166
11
-0.0309524
21
-0.364166
0
LINE
8
BLACK
6
CONTINUOUS
10
-0.0309524
20
-0.364166
11
-0.0319623
21
-0.363988
0
LINE
8
BLACK
6
CONTINUOUS
10
-0.0319623
20
-0.363988
11
-0.0335096
21
-0.36269
0
LINE
8
BLACK
6
CONTINUOUS
10
-0.0335096
20
-0.36269
11
-0.0338603
21
-0.360701
0
LINE
8
BLACK
6
CONTINUOUS
10
-0.0338603
20
-0.360701
11
-0.0328504
21
-0.358951
0
LINE
8
BLACK
6
CONTINUOUS
10
-0.0328504
20
-0.358951
11
-0.0309524
21
-0.358261
0
LINE
8
BLACK
6
CONTINUOUS
10
-0.0309524
20
-0.358261
11
-0.0278999
21
-0.358261
0
LINE
8
BLACK
6
CONTINUOUS
10
-0.0278999
20
-0.358261
11
-0.0256542
21
-0.357138
0
LINE
8
BLACK
6
CONTINUOUS
10
-0.0256542
20
-0.357138
11
-0.0245313
21
-0.354892
0
LINE
8
BLACK
6
CONTINUOUS
10
-0.0245313
20
-0.354892
11
-0.0245313
21
-0.337919
0
LINE
8
BLACK
6
CONTINUOUS
10
-0.0245313
20
-0.337919
11
-0.0309524
21
-0.337919
0
LINE
8
BLACK
6
CONTINUOUS
10
-0.0309524
20
-0.337919
11
-0.0319623
21
-0.337741
0
LINE
8
BLACK
6
CONTINUOUS
10
-0.0319623
20
-0.337741
11
-0.0335096
21
-0.336443
0
LINE
8
BLACK
6
CONTINUOUS
10
-0.0335096
20
-0.336443
11
-0.0338603
21
-0.334454
0
LINE
8
BLACK
6
CONTINUOUS
10
-0.0338603
20
-0.334454
11
-0.0328504
21
-0.332705
0
LINE
8
BLACK
6
CONTINUOUS
10
-0.0328504
20
-0.332705
11
-0.0309524
21
-0.332014
0
LINE
8
BLACK
6
CONTINUOUS
10
-0.0309524
20
-0.332014
11
-0.0245313
21
-0.332014
0
LINE
8
BLACK
6
CONTINUOUS
10
-0.0245313
20
-0.332014
11
-0.0245313
21
-0.321843
0
LINE
8
BLACK
6
CONTINUOUS
10
-0.0245313
20
-0.321843
11
-0.0243533
21
-0.320833
0
LINE
8
BLACK
6
CONTINUOUS
10
-0.0243533
20
-0.320833
11
-0.023055
21
-0.319286
0
LINE
8
BLACK
6
CONTINUOUS
10
-0.023055
20
-0.319286
11
-0.0210658
21
-0.318935
0
LINE
8
BLACK
6
CONTINUOUS
10
-0.0210658
20
-0.318935
11
-0.0193167
21
-0.319945
0
LINE
8
BLACK
6
CONTINUOUS
10
0.00755283
20
-0.332192
11
0.00768807
21
-0.332305
0
LINE
8
BLACK
6
CONTINUOUS
10
0.00768807
20
-0.332305
11
0.00786343
21
-0.332326
0
LINE
8
BLACK
6
CONTINUOUS
10
0.00786343
20
-0.332326
11
0.011613
21
-0.3342
0
LINE
8
BLACK
6
CONTINUOUS
10
0.011613
20
-0.3342
11
0.0124366
21
-0.334811
0
LINE
8
BLACK
6
CONTINUOUS
10
0.0124366
20
-0.334811
11
0.0126124
21
-0.335217
0
LINE
8
BLACK
6
CONTINUOUS
10
0.0126124
20
-0.335217
11
0.0129335
21
-0.335521
0
LINE
8
BLACK
6
CONTINUOUS
10
0.0129335
20
-0.335521
11
0.0148082
21
-0.33927
0
LINE
8
BLACK
6
CONTINUOUS
10
0.0148082
20
-0.33927
11
0.0151006
21
-0.340253
0
LINE
8
BLACK
6
CONTINUOUS
10
0.0151006
20
-0.340253
11
0.0150596
21
-0.340425
0
LINE
8
BLACK
6
CONTINUOUS
10
0.0150596
20
-0.340425
11
0.01512
21
-0.340591
0
LINE
8
BLACK
6
CONTINUOUS
10
0.01512
20
-0.340591
11
0.01512
21
-0.342466
0
LINE
8
BLACK
6
CONTINUOUS
10
0.01512
20
-0.342466
11
0.0149419
21
-0.343476
0
LINE
8
BLACK
6
CONTINUOUS
10
0.0149419
20
-0.343476
11
0.0148284
21
-0.343611
0
LINE
8
BLACK
6
CONTINUOUS
10
0.0148284
20
-0.343611
11
0.0148082
21
-0.343786
0
LINE
8
BLACK
6
CONTINUOUS
10
0.0148082
20
-0.343786
11
0.0129335
21
-0.347536
0
LINE
8
BLACK
6
CONTINUOUS
10
0.0129335
20
-0.347536
11
0.0123226
21
-0.348359
0
LINE
8
BLACK
6
CONTINUOUS
10
0.0123226
20
-0.348359
11
0.0119169
21
-0.348535
0
LINE
8
BLACK
6
CONTINUOUS
10
0.0119169
20
-0.348535
11
0.011613
21
-0.348856
0
LINE
8
BLACK
6
CONTINUOUS
10
0.011613
20
-0.348856
11
0.00786343
21
-0.350731
0
LINE
8
BLACK
6
CONTINUOUS
10
0.00786343
20
-0.350731
11
0.00688047
21
-0.351023
0
LINE
8
BLACK
6
CONTINUOUS
10
0.00688047
20
-0.351023
11
0.00670878
21
-0.350982
0
LINE
8
BLACK
6
CONTINUOUS
10
0.00670878
20
-0.350982
11
0.00654291
21
-0.351043
0
LINE
8
BLACK
6
CONTINUOUS
10
0.00654291
20
-0.351043
11
0.00161567
21
-0.351043
0
LINE
8
BLACK
6
CONTINUOUS
10
0.00161567
20
-0.351043
11
-0.000630079
21
-0.352166
0
LINE
8
BLACK
6
CONTINUOUS
10
-0.000630079
20
-0.352166
11
-0.00175291
21
-0.354411
0
LINE
8
BLACK
6
CONTINUOUS
10
-0.00175291
20
-0.354411
11
-0.00175291
21
-0.354892
0
LINE
8
BLACK
6
CONTINUOUS
10
-0.00175291
20
-0.354892
11
-0.000630079
21
-0.357138
0
LINE
8
BLACK
6
CONTINUOUS
10
-0.000630079
20
-0.357138
11
0.00161567
21
-0.358261
0
LINE
8
BLACK
6
CONTINUOUS
10
0.00161567
20
-0.358261
11
0.00772063
21
-0.358261
0
LINE
8
BLACK
6
CONTINUOUS
10
0.00772063
20
-0.358261
11
0.0108467
21
-0.356698
0
LINE
8
BLACK
6
CONTINUOUS
10
0.0108467
20
-0.356698
11
0.0118296
21
-0.356405
0
LINE
8
BLACK
6
CONTINUOUS
10
0.0118296
20
-0.356405
11
0.0137941
21
-0.356874
0
LINE
8
BLACK
6
CONTINUOUS
10
0.0137941
20
-0.356874
11
0.0149974
21
-0.358497
0
LINE
8
BLACK
6
CONTINUOUS
10
0.0149974
20
-0.358497
11
0.0148764
21
-0.360513
0
LINE
8
BLACK
6
CONTINUOUS
10
0.0148764
20
-0.360513
11
0.0134877
21
-0.36198
0
LINE
8
BLACK
6
CONTINUOUS
10
0.0134877
20
-0.36198
11
0.00973819
21
-0.363854
0
LINE
8
BLACK
6
CONTINUOUS
10
0.00973819
20
-0.363854
11
0.00875524
21
-0.364147
0
LINE
8
BLACK
6
CONTINUOUS
10
0.00875524
20
-0.364147
11
0.00858354
21
-0.364106
0
LINE
8
BLACK
6
CONTINUOUS
10
0.00858354
20
-0.364106
11
0.00841768
21
-0.364166
0
LINE
8
BLACK
6
CONTINUOUS
10
0.00841768
20
-0.364166
11
0.000918622
21
-0.364166
0
LINE
8
BLACK
6
CONTINUOUS
10
0.000918622
20
-0.364166
11
-9.12992e-05
21
-0.363988
0
LINE
8
BLACK
6
CONTINUOUS
10
-9.12992e-05
20
-0.363988
11
-0.000226575
21
-0.363875
0
LINE
8
BLACK
6
CONTINUOUS
10
-0.000226575
20
-0.363875
11
-0.00040189
21
-0.363854
0
LINE
8
BLACK
6
CONTINUOUS
10
-0.00040189
20
-0.363854
11
-0.00415142
21
-0.36198
0
LINE
8
BLACK
6
CONTINUOUS
10
-0.00415142
20
-0.36198
11
-0.00497508
21
-0.361369
0
LINE
8
BLACK
6
CONTINUOUS
10
-0.00497508
20
-0.361369
11
-0.00515094
21
-0.360963
0
LINE
8
BLACK
6
CONTINUOUS
10
-0.00515094
20
-0.360963
11
-0.00547193
21
-0.360659
0
LINE
8
BLACK
6
CONTINUOUS
10
-0.00547193
20
-0.360659
11
-0.00734669
21
-0.35691
0
LINE
8
BLACK
6
CONTINUOUS
10
-0.00734669
20
-0.35691
11
-0.00763909
21
-0.355927
0
LINE
8
BLACK
6
CONTINUOUS
10
-0.00763909
20
-0.355927
11
-0.00759807
21
-0.355755
0
LINE
8
BLACK
6
CONTINUOUS
10
-0.00759807
20
-0.355755
11
-0.00765843
21
-0.355589
0
LINE
8
BLACK
6
CONTINUOUS
10
-0.00765843
20
-0.355589
11
-0.00765843
21
-0.353714
0
LINE
8
BLACK
6
CONTINUOUS
10
-0.00765843
20
-0.353714
11
-0.00748035
21
-0.352704
0
LINE
8
BLACK
6
CONTINUOUS
10
-0.00748035
20
-0.352704
11
-0.00736689
21
-0.352569
0
LINE
8
BLACK
6
CONTINUOUS
10
-0.00736689
20
-0.352569
11
-0.00734669
21
-0.352394
0
LINE
8
BLACK
6
CONTINUOUS
10
-0.00734669
20
-0.352394
11
-0.00547193
21
-0.348644
0
LINE
8
BLACK
6
CONTINUOUS
10
-0.00547193
20
-0.348644
11
-0.00486102
21
-0.347821
0
LINE
8
BLACK
6
CONTINUOUS
10
-0.00486102
20
-0.347821
11
-0.00445535
21
-0.347645
0
LINE
8
BLACK
6
CONTINUOUS
10
-0.00445535
20
-0.347645
11
-0.00415142
21
-0.347324
0
LINE
8
BLACK
6
CONTINUOUS
10
-0.00415142
20
-0.347324
11
-0.00040189
21
-0.345449
0
LINE
8
BLACK
6
CONTINUOUS
10
-0.00040189
20
-0.345449
11
0.000581024
21
-0.345157
0
LINE
8
BLACK
6
CONTINUOUS
10
0.000581024
20
-0.345157
11
0.000752717
21
-0.345198
0
LINE
8
BLACK
6
CONTINUOUS
10
0.000752717
20
-0.345198
11
0.000918622
21
-0.345137
0
LINE
8
BLACK
6
CONTINUOUS
10
0.000918622
20
-0.345137
11
0.00584587
21
-0.345137
0
LINE
8
BLACK
6
CONTINUOUS
10
0.00584587
20
-0.345137
11
0.00809157
21
-0.344014
0
LINE
8
BLACK
6
CONTINUOUS
10
0.00809157
20
-0.344014
11
0.00921445
21
-0.341769
0
LINE
8
BLACK
6
CONTINUOUS
10
0.00921445
20
-0.341769
11
0.00921445
21
-0.341288
0
LINE
8
BLACK
6
CONTINUOUS
10
0.00921445
20
-0.341288
11
0.00809157
21
-0.339042
0
LINE
8
BLACK
6
CONTINUOUS
10
0.00809157
20
-0.339042
11
0.00584587
21
-0.337919
0
LINE
8
BLACK
6
CONTINUOUS
10
0.00584587
20
-0.337919
11
0.00161567
21
-0.337919
0
LINE
8
BLACK
6
CONTINUOUS
10
0.00161567
20
-0.337919
11
-0.00151039
21
-0.339482
0
LINE
8
BLACK
6
CONTINUOUS
10
-0.00151039
20
-0.339482
11
-0.00249335
21
-0.339775
0
LINE
8
BLACK
6
CONTINUOUS
10
-0.00249335
20
-0.339775
11
-0.00445783
21
-0.339305
0
LINE
8
BLACK
6
CONTINUOUS
10
-0.00445783
20
-0.339305
11
-0.00566114
21
-0.337683
0
LINE
8
BLACK
6
CONTINUOUS
10
-0.00566114
20
-0.337683
11
-0.00554008
21
-0.335667
0
LINE
8
BLACK
6
CONTINUOUS
10
-0.00554008
20
-0.335667
11
-0.00415142
21
-0.3342
0
LINE
8
BLACK
6
CONTINUOUS
10
-0.00415142
20
-0.3342
11
-0.00040189
21
-0.332326
0
LINE
8
BLACK
6
CONTINUOUS
10
-0.00040189
20
-0.332326
11
0.000581024
21
-0.332033
0
LINE
8
BLACK
6
CONTINUOUS
10
0.000581024
20
-0.332033
11
0.000752717
21
-0.332074
0
LINE
8
BLACK
6
CONTINUOUS
10
0.000752717
20
-0.332074
11
0.000918622
21
-0.332014
0
LINE
8
BLACK
6
CONTINUOUS
10
0.000918622
20
-0.332014
11
0.00654291
21
-0.332014
0
LINE
8
BLACK
6
CONTINUOUS
10
0.00654291
20
-0.332014
11
0.00755283
21
-0.332192
0
LINE
8
BLACK
6
CONTINUOUS
10
0.0412986
20
-0.332192
11
0.0414339
21
-0.332305
0
LINE
8
BLACK
6
CONTINUOUS
10
0.0414339
20
-0.332305
11
0.0416092
21
-0.332326
0
LINE
8
BLACK
6
CONTINUOUS
10
0.0416092
20
-0.332326
11
0.0453587
21
-0.3342
0
LINE
8
BLACK
6
CONTINUOUS
10
0.0453587
20
-0.3342
11
0.0461824
21
-0.334811
0
LINE
8
BLACK
6
CONTINUOUS
10
0.0461824
20
-0.334811
11
0.0463582
21
-0.335217
0
LINE
8
BLACK
6
CONTINUOUS
10
0.0463582
20
-0.335217
11
0.0466793
21
-0.335521
0
LINE
8
BLACK
6
CONTINUOUS
10
0.0466793
20
-0.335521
11
0.048554
21
-0.33927
0
LINE
8
BLACK
6
CONTINUOUS
10
0.048554
20
-0.33927
11
0.0488464
21
-0.340253
0
LINE
8
BLACK
6
CONTINUOUS
10
0.0488464
20
-0.340253
11
0.0488054
21
-0.340425
0
LINE
8
BLACK
6
CONTINUOUS
10
0.0488054
20
-0.340425
11
0.0488657
21
-0.340591
0
LINE
8
BLACK
6
CONTINUOUS
10
0.0488657
20
-0.340591
11
0.0488657
21
-0.355589
0
LINE
8
BLACK
6
CONTINUOUS
10
0.0488657
20
-0.355589
11
0.0486877
21
-0.356599
0
LINE
8
BLACK
6
CONTINUOUS
10
0.0486877
20
-0.356599
11
0.0485742
21
-0.356734
0
LINE
8
BLACK
6
CONTINUOUS
10
0.0485742
20
-0.356734
11
0.048554
21
-0.35691
0
LINE
8
BLACK
6
CONTINUOUS
10
0.048554
20
-0.35691
11
0.0466793
21
-0.360659
0
LINE
8
BLACK
6
CONTINUOUS
10
0.0466793
20
-0.360659
11
0.0460683
21
-0.361483
0
LINE
8
BLACK
6
CONTINUOUS
10
0.0460683
20
-0.361483
11
0.0456626
21
-0.361659
0
LINE
8
BLACK
6
CONTINUOUS
10
0.0456626
20
-0.361659
11
0.0453587
21
-0.36198
0
LINE
8
BLACK
6
CONTINUOUS
10
0.0453587
20
-0.36198
11
0.0416092
21
-0.363854
0
LINE
8
BLACK
6
CONTINUOUS
10
0.0416092
20
-0.363854
11
0.0406263
21
-0.364147
0
LINE
8
BLACK
6
CONTINUOUS
10
0.0406263
20
-0.364147
11
0.0404546
21
-0.364106
0
LINE
8
BLACK
6
CONTINUOUS
10
0.0404546
20
-0.364106
11
0.0402887
21
-0.364166
0
LINE
8
BLACK
6
CONTINUOUS
10
0.0402887
20
-0.364166
11
0.0327896
21
-0.364166
0
LINE
8
BLACK
6
CONTINUOUS
10
0.0327896
20
-0.364166
11
0.0317797
21
-0.363988
0
LINE
8
BLACK
6
CONTINUOUS
10
0.0317797
20
-0.363988
11
0.0316444
21
-0.363875
0
LINE
8
BLACK
6
CONTINUOUS
10
0.0316444
20
-0.363875
11
0.0314691
21
-0.363854
0
LINE
8
BLACK
6
CONTINUOUS
10
0.0314691
20
-0.363854
11
0.0277196
21
-0.36198
0
LINE
8
BLACK
6
CONTINUOUS
10
0.0277196
20
-0.36198
11
0.0268959
21
-0.361369
0
LINE
8
BLACK
6
CONTINUOUS
10
0.0268959
20
-0.361369
11
0.0260927
21
-0.359516
0
LINE
8
BLACK
6
CONTINUOUS
10
0.0260927
20
-0.359516
11
0.0266685
21
-0.357579
0
LINE
8
BLACK
6
CONTINUOUS
10
0.0266685
20
-0.357579
11
0.0283541
21
-0.356467
0
LINE
8
BLACK
6
CONTINUOUS
10
0.0283541
20
-0.356467
11
0.0303606
21
-0.356698
0
LINE
8
BLACK
6
CONTINUOUS
10
0.0303606
20
-0.356698
11
0.0334867
21
-0.358261
0
LINE
8
BLACK
6
CONTINUOUS
10
0.0334867
20
-0.358261
11
0.0395917
21
-0.358261
0
LINE
8
BLACK
6
CONTINUOUS
10
0.0395917
20
-0.358261
11
0.0418374
21
-0.357138
0
LINE
8
BLACK
6
CONTINUOUS
10
0.0418374
20
-0.357138
11
0.0429602
21
-0.354892
0
LINE
8
BLACK
6
CONTINUOUS
10
0.0429602
20
-0.354892
11
0.0429602
21
-0.350511
0
LINE
8
BLACK
6
CONTINUOUS
10
0.0429602
20
-0.350511
11
0.0265863
21
-0.347236
0
LINE
8
BLACK
6
CONTINUOUS
10
0.0265863
20
-0.347236
11
0.0256309
21
-0.346863
0
LINE
8
BLACK
6
CONTINUOUS
10
0.0256309
20
-0.346863
11
0.0253258
21
-0.346482
0
LINE
8
BLACK
6
CONTINUOUS
10
0.0253258
20
-0.346482
11
0.0249034
21
-0.346238
0
LINE
8
BLACK
6
CONTINUOUS
10
0.0249034
20
-0.346238
11
0.0247142
21
-0.345719
0
LINE
8
BLACK
6
CONTINUOUS
10
0.0247142
20
-0.345719
11
0.0243683
21
-0.345287
0
LINE
8
BLACK
6
CONTINUOUS
10
0.0243683
20
-0.345287
11
0.0243794
21
-0.344799
0
LINE
8
BLACK
6
CONTINUOUS
10
0.0243794
20
-0.344799
11
0.0242126
21
-0.34434
0
LINE
8
BLACK
6
CONTINUOUS
10
0.0242126
20
-0.34434
11
0.0242126
21
-0.340591
0
LINE
8
BLACK
6
CONTINUOUS
10
0.0242126
20
-0.340591
11
0.0243907
21
-0.339581
0
LINE
8
BLACK
6
CONTINUOUS
10
0.0243907
20
-0.339581
11
0.0245041
21
-0.339446
0
LINE
8
BLACK
6
CONTINUOUS
10
0.0245041
20
-0.339446
11
0.0245243
21
-0.33927
0
LINE
8
BLACK
6
CONTINUOUS
10
0.0245243
20
-0.33927
11
0.0263991
21
-0.335521
0
LINE
8
BLACK
6
CONTINUOUS
10
0.0263991
20
-0.335521
11
0.02701
21
-0.334697
0
LINE
8
BLACK
6
CONTINUOUS
10
0.02701
20
-0.334697
11
0.0274157
21
-0.334521
0
LINE
8
BLACK
6
CONTINUOUS
10
0.0274157
20
-0.334521
11
0.0277196
21
-0.3342
0
LINE
8
BLACK
6
CONTINUOUS
10
0.0277196
20
-0.3342
11
0.0314691
21
-0.332326
0
LINE
8
BLACK
6
CONTINUOUS
10
0.0314691
20
-0.332326
11
0.032452
21
-0.332033
0
LINE
8
BLACK
6
CONTINUOUS
10
0.032452
20
-0.332033
11
0.0326237
21
-0.332074
0
LINE
8
BLACK
6
CONTINUOUS
10
0.0326237
20
-0.332074
11
0.0327896
21
-0.332014
0
LINE
8
BLACK
6
CONTINUOUS
10
0.0327896
20
-0.332014
11
0.0402887
21
-0.332014
0
LINE
8
BLACK
6
CONTINUOUS
10
0.0402887
20
-0.332014
11
0.0412986
21
-0.332192
0
LINE
8
BLACK
6
CONTINUOUS
10
0.0312409
20
-0.339042
11
0.0301181
21
-0.341288
0
LINE
8
BLACK
6
CONTINUOUS
10
0.0301181
20
-0.341288
11
0.0301181
21
-0.34192
0
LINE
8
BLACK
6
CONTINUOUS
10
0.0301181
20
-0.34192
11
0.0429602
21
-0.344488
0
LINE
8
BLACK
6
CONTINUOUS
10
0.0429602
20
-0.344488
11
0.0429602
21
-0.341288
0
LINE
8
BLACK
6
CONTINUOUS
10
0.0429602
20
-0.341288
11
0.0418374
21
-0.339042
0
LINE
8
BLACK
6
CONTINUOUS
10
0.0418374
20
-0.339042
11
0.0395917
21
-0.337919
0
LINE
8
BLACK
6
CONTINUOUS
10
0.0395917
20
-0.337919
11
0.0334867
21
-0.337919
0
LINE
8
BLACK
6
CONTINUOUS
10
0.0334867
20
-0.337919
11
0.0312409
21
-0.339042
0
LINE
8
BLACK
6
CONTINUOUS
10
-0.142428
20
-0.332192
11
-0.142293
21
-0.332305
0
LINE
8
BLACK
6
CONTINUOUS
10
-0.142293
20
-0.332305
11
-0.142118
21
-0.332326
0
LINE
8
BLACK
6
CONTINUOUS
10
-0.142118
20
-0.332326
11
-0.140077
21
-0.333346
0
LINE
8
BLACK
6
CONTINUOUS
10
-0.140077
20
-0.333346
11
-0.13929
21
-0.332409
0
LINE
8
BLACK
6
CONTINUOUS
10
-0.13929
20
-0.332409
11
-0.137301
21
-0.332059
0
LINE
8
BLACK
6
CONTINUOUS
10
-0.137301
20
-0.332059
11
-0.135552
21
-0.333069
0
LINE
8
BLACK
6
CONTINUOUS
10
-0.135552
20
-0.333069
11
-0.134861
21
-0.334967
0
LINE
8
BLACK
6
CONTINUOUS
10
-0.134861
20
-0.334967
11
-0.134861
21
-0.361213
0
LINE
8
BLACK
6
CONTINUOUS
10
-0.134861
20
-0.361213
11
-0.135039
21
-0.362223
0
LINE
8
BLACK
6
CONTINUOUS
10
-0.135039
20
-0.362223
11
-0.136338
21
-0.363771
0
LINE
8
BLACK
6
CONTINUOUS
10
-0.136338
20
-0.363771
11
-0.138327
21
-0.364121
0
LINE
8
BLACK
6
CONTINUOUS
10
-0.138327
20
-0.364121
11
-0.140076
21
-0.363111
0
LINE
8
BLACK
6
CONTINUOUS
10
-0.140076
20
-0.363111
11
-0.140767
21
-0.361213
0
LINE
8
BLACK
6
CONTINUOUS
10
-0.140767
20
-0.361213
11
-0.140767
21
-0.339939
0
LINE
8
BLACK
6
CONTINUOUS
10
-0.140767
20
-0.339939
11
-0.141438
21
-0.339268
0
LINE
8
BLACK
6
CONTINUOUS
10
-0.141438
20
-0.339268
11
-0.144135
21
-0.337919
0
LINE
8
BLACK
6
CONTINUOUS
10
-0.144135
20
-0.337919
11
-0.148366
21
-0.337919
0
LINE
8
BLACK
6
CONTINUOUS
10
-0.148366
20
-0.337919
11
-0.150611
21
-0.339042
0
LINE
8
BLACK
6
CONTINUOUS
10
-0.150611
20
-0.339042
11
-0.151734
21
-0.341288
0
LINE
8
BLACK
6
CONTINUOUS
10
-0.151734
20
-0.341288
11
-0.151734
21
-0.361213
0
LINE
8
BLACK
6
CONTINUOUS
10
-0.151734
20
-0.361213
11
-0.151912
21
-0.362223
0
LINE
8
BLACK
6
CONTINUOUS
10
-0.151912
20
-0.362223
11
-0.153211
21
-0.363771
0
LINE
8
BLACK
6
CONTINUOUS
10
-0.153211
20
-0.363771
11
-0.1552
21
-0.364121
0
LINE
8
BLACK
6
CONTINUOUS
10
-0.1552
20
-0.364121
11
-0.156949
21
-0.363111
0
LINE
8
BLACK
6
CONTINUOUS
10
-0.156949
20
-0.363111
11
-0.15764
21
-0.361213
0
LINE
8
BLACK
6
CONTINUOUS
10
-0.15764
20
-0.361213
11
-0.15764
21
-0.340591
0
LINE
8
BLACK
6
CONTINUOUS
10
-0.15764
20
-0.340591
11
-0.157462
21
-0.339581
0
LINE
8
BLACK
6
CONTINUOUS
10
-0.157462
20
-0.339581
11
-0.157348
21
-0.339446
0
LINE
8
BLACK
6
CONTINUOUS
10
-0.157348
20
-0.339446
11
-0.157328
21
-0.33927
0
LINE
8
BLACK
6
CONTINUOUS
10
-0.157328
20
-0.33927
11
-0.155453
21
-0.335521
0
LINE
8
BLACK
6
CONTINUOUS
10
-0.155453
20
-0.335521
11
-0.154842
21
-0.334697
0
LINE
8
BLACK
6
CONTINUOUS
10
-0.154842
20
-0.334697
11
-0.154437
21
-0.334521
0
LINE
8
BLACK
6
CONTINUOUS
10
-0.154437
20
-0.334521
11
-0.154133
21
-0.3342
0
LINE
8
BLACK
6
CONTINUOUS
10
-0.154133
20
-0.3342
11
-0.150383
21
-0.332326
0
LINE
8
BLACK
6
CONTINUOUS
10
-0.150383
20
-0.332326
11
-0.1494
21
-0.332033
0
LINE
8
BLACK
6
CONTINUOUS
10
-0.1494
20
-0.332033
11
-0.149229
21
-0.332074
0
LINE
8
BLACK
6
CONTINUOUS
10
-0.149229
20
-0.332074
11
-0.149063
21
-0.332014
0
LINE
8
BLACK
6
CONTINUOUS
10
-0.149063
20
-0.332014
11
-0.143438
21
-0.332014
0
LINE
8
BLACK
6
CONTINUOUS
10
-0.143438
20
-0.332014
11
-0.142428
21
-0.332192
0
LINE
8
BLACK
6
CONTINUOUS
10
-0.116804
20
-0.333069
11
-0.116114
21
-0.334967
0
LINE
8
BLACK
6
CONTINUOUS
10
-0.116114
20
-0.334967
11
-0.116114
21
-0.361213
0
LINE
8
BLACK
6
CONTINUOUS
10
-0.116114
20
-0.361213
11
-0.116292
21
-0.362223
0
LINE
8
BLACK
6
CONTINUOUS
10
-0.116292
20
-0.362223
11
-0.11759
21
-0.363771
0
LINE
8
BLACK
6
CONTINUOUS
10
-0.11759
20
-0.363771
11
-0.119579
21
-0.364121
0
LINE
8
BLACK
6
CONTINUOUS
10
-0.119579
20
-0.364121
11
-0.121328
21
-0.363111
0
LINE
8
BLACK
6
CONTINUOUS
10
-0.121328
20
-0.363111
11
-0.122019
21
-0.361213
0
LINE
8
BLACK
6
CONTINUOUS
10
-0.122019
20
-0.361213
11
-0.122019
21
-0.334967
0
LINE
8
BLACK
6
CONTINUOUS
10
-0.122019
20
-0.334967
11
-0.121841
21
-0.333957
0
LINE
8
BLACK
6
CONTINUOUS
10
-0.121841
20
-0.333957
11
-0.120543
21
-0.332409
0
LINE
8
BLACK
6
CONTINUOUS
10
-0.120543
20
-0.332409
11
-0.118554
21
-0.332059
0
LINE
8
BLACK
6
CONTINUOUS
10
-0.118554
20
-0.332059
11
-0.116804
21
-0.333069
0
LINE
8
BLACK
6
CONTINUOUS
10
-0.0436923
20
-0.318958
11
-0.043563
21
-0.318935
0
LINE
8
BLACK
6
CONTINUOUS
10
-0.043563
20
-0.318935
11
-0.0434494
21
-0.319001
0
LINE
8
BLACK
6
CONTINUOUS
10
-0.0434494
20
-0.319001
11
-0.0430659
21
-0.319069
0
LINE
8
BLACK
6
CONTINUOUS
10
-0.0430659
20
-0.319069
11
-0.0424782
21
-0.319562
0
LINE
8
BLACK
6
CONTINUOUS
10
-0.0424782
20
-0.319562
11
-0.0418139
21
-0.319945
0
LINE
8
BLACK
6
CONTINUOUS
10
-0.0418139
20
-0.319945
11
-0.0417228
21
-0.320196
0
LINE
8
BLACK
6
CONTINUOUS
10
-0.0417228
20
-0.320196
11
-0.0415186
21
-0.320367
0
LINE
8
BLACK
6
CONTINUOUS
10
-0.0415186
20
-0.320367
11
-0.0413854
21
-0.321122
0
LINE
8
BLACK
6
CONTINUOUS
10
-0.0413854
20
-0.321122
11
-0.041123
21
-0.321843
0
LINE
8
BLACK
6
CONTINUOUS
10
-0.041123
20
-0.321843
11
-0.041123
21
-0.361213
0
LINE
8
BLACK
6
CONTINUOUS
10
-0.041123
20
-0.361213
11
-0.0413011
21
-0.362223
0
LINE
8
BLACK
6
CONTINUOUS
10
-0.0413011
20
-0.362223
11
-0.0425994
21
-0.363771
0
LINE
8
BLACK
6
CONTINUOUS
10
-0.0425994
20
-0.363771
11
-0.0445885
21
-0.364121
0
LINE
8
BLACK
6
CONTINUOUS
10
-0.0445885
20
-0.364121
11
-0.0463377
21
-0.363111
0
LINE
8
BLACK
6
CONTINUOUS
10
-0.0463377
20
-0.363111
11
-0.0470285
21
-0.361213
0
LINE
8
BLACK
6
CONTINUOUS
10
-0.0470285
20
-0.361213
11
-0.0470285
21
-0.345418
0
LINE
8
BLACK
6
CONTINUOUS
10
-0.0470285
20
-0.345418
11
-0.0590739
21
-0.345418
0
LINE
8
BLACK
6
CONTINUOUS
10
-0.0590739
20
-0.345418
11
-0.0600838
21
-0.34524
0
LINE
8
BLACK
6
CONTINUOUS
10
-0.0600838
20
-0.34524
11
-0.0602191
21
-0.345127
0
LINE
8
BLACK
6
CONTINUOUS
10
-0.0602191
20
-0.345127
11
-0.0603944
21
-0.345107
0
LINE
8
BLACK
6
CONTINUOUS
10
-0.0603944
20
-0.345107
11
-0.0641439
21
-0.343232
0
LINE
8
BLACK
6
CONTINUOUS
10
-0.0641439
20
-0.343232
11
-0.064853
21
-0.342706
0
LINE
8
BLACK
6
CONTINUOUS
10
-0.064853
20
-0.342706
11
-0.0649113
21
-0.342679
0
LINE
8
BLACK
6
CONTINUOUS
10
-0.0649113
20
-0.342679
11
-0.0667861
21
-0.340804
0
LINE
8
BLACK
6
CONTINUOUS
10
-0.0667861
20
-0.340804
11
-0.0672924
21
-0.340081
0
LINE
8
BLACK
6
CONTINUOUS
10
-0.0672924
20
-0.340081
11
-0.0673392
21
-0.340037
0
LINE
8
BLACK
6
CONTINUOUS
10
-0.0673392
20
-0.340037
11
-0.069214
21
-0.336287
0
LINE
8
BLACK
6
CONTINUOUS
10
-0.069214
20
-0.336287
11
-0.0695063
21
-0.335304
0
LINE
8
BLACK
6
CONTINUOUS
10
-0.0695063
20
-0.335304
11
-0.0694654
21
-0.335132
0
LINE
8
BLACK
6
CONTINUOUS
10
-0.0694654
20
-0.335132
11
-0.0695257
21
-0.334967
0
LINE
8
BLACK
6
CONTINUOUS
10
-0.0695257
20
-0.334967
11
-0.0695257
21
-0.329342
0
LINE
8
BLACK
6
CONTINUOUS
10
-0.0695257
20
-0.329342
11
-0.0693476
21
-0.328332
0
LINE
8
BLACK
6
CONTINUOUS
10
-0.0693476
20
-0.328332
11
-0.0692342
21
-0.328197
0
LINE
8
BLACK
6
CONTINUOUS
10
-0.0692342
20
-0.328197
11
-0.069214
21
-0.328022
0
LINE
8
BLACK
6
CONTINUOUS
10
-0.069214
20
-0.328022
11
-0.0673392
21
-0.324272
0
LINE
8
BLACK
6
CONTINUOUS
10
-0.0673392
20
-0.324272
11
-0.0668133
21
-0.323563
0
LINE
8
BLACK
6
CONTINUOUS
10
-0.0668133
20
-0.323563
11
-0.0667861
21
-0.323505
0
LINE
8
BLACK
6
CONTINUOUS
10
-0.0667861
20
-0.323505
11
-0.0649113
21
-0.32163
0
LINE
8
BLACK
6
CONTINUOUS
10
-0.0649113
20
-0.32163
11
-0.0641883
21
-0.321124
0
LINE
8
BLACK
6
CONTINUOUS
10
-0.0641883
20
-0.321124
11
-0.0641439
21
-0.321077
0
LINE
8
BLACK
6
CONTINUOUS
10
-0.0641439
20
-0.321077
11
-0.0603944
21
-0.319202
0
LINE
8
BLACK
6
CONTINUOUS
10
-0.0603944
20
-0.319202
11
-0.0594115
21
-0.31891
0
LINE
8
BLACK
6
CONTINUOUS
10
-0.0594115
20
-0.31891
11
-0.0592398
21
-0.318951
0
LINE
8
BLACK
6
CONTINUOUS
10
-0.0592398
20
-0.318951
11
-0.0590739
21
-0.318891
0
LINE
8
BLACK
6
CONTINUOUS
10
-0.0590739
20
-0.318891
11
-0.0440758
21
-0.318891
0
LINE
8
BLACK
6
CONTINUOUS
10
-0.0440758
20
-0.318891
11
-0.0436923
21
-0.318958
0
LINE
8
BLACK
6
CONTINUOUS
10
-0.0610743
20
-0.326145
11
-0.0622715
21
-0.327342
0
LINE
8
BLACK
6
CONTINUOUS
10
-0.0622715
20
-0.327342
11
-0.0636202
21
-0.330039
0
LINE
8
BLACK
6
CONTINUOUS
10
-0.0636202
20
-0.330039
11
-0.0636202
21
-0.33427
0
LINE
8
BLACK
6
CONTINUOUS
10
-0.0636202
20
-0.33427
11
-0.0622715
21
-0.336967
0
LINE
8
BLACK
6
CONTINUOUS
10
-0.0622715
20
-0.336967
11
-0.0610743
21
-0.338164
0
LINE
8
BLACK
6
CONTINUOUS
10
-0.0610743
20
-0.338164
11
-0.0583769
21
-0.339513
0
LINE
8
BLACK
6
CONTINUOUS
10
-0.0583769
20
-0.339513
11
-0.0470285
21
-0.339513
0
LINE
8
BLACK
6
CONTINUOUS
10
-0.0470285
20
-0.339513
11
-0.0470285
21
-0.324796
0
LINE
8
BLACK
6
CONTINUOUS
10
-0.0470285
20
-0.324796
11
-0.0583769
21
-0.324796
0
LINE
8
BLACK
6
CONTINUOUS
10
-0.0583769
20
-0.324796
11
-0.0610743
21
-0.326145
0
LINE
8
BLACK
6
CONTINUOUS
10
0.0806687
20
-0.319069
11
0.0822159
21
-0.320367
0
LINE
8
BLACK
6
CONTINUOUS
10
0.0822159
20
-0.320367
11
0.0825667
21
-0.322356
0
LINE
8
BLACK
6
CONTINUOUS
10
0.0825667
20
-0.322356
11
0.0815568
21
-0.324105
0
LINE
8
BLACK
6
CONTINUOUS
10
0.0815568
20
-0.324105
11
0.0796588
21
-0.324796
0
LINE
8
BLACK
6
CONTINUOUS
10
0.0796588
20
-0.324796
11
0.071363
21
-0.324796
0
LINE
8
BLACK
6
CONTINUOUS
10
0.071363
20
-0.324796
11
0.071363
21
-0.361213
0
LINE
8
BLACK
6
CONTINUOUS
10
0.071363
20
-0.361213
11
0.0711849
21
-0.362223
0
LINE
8
BLACK
6
CONTINUOUS
10
0.0711849
20
-0.362223
11
0.0698866
21
-0.363771
0
LINE
8
BLACK
6
CONTINUOUS
10
0.0698866
20
-0.363771
11
0.0678974
21
-0.364121
0
LINE
8
BLACK
6
CONTINUOUS
10
0.0678974
20
-0.364121
11
0.0661483
21
-0.363111
0
LINE
8
BLACK
6
CONTINUOUS
10
0.0661483
20
-0.363111
11
0.0654574
21
-0.361213
0
LINE
8
BLACK
6
CONTINUOUS
10
0.0654574
20
-0.361213
11
0.0654574
21
-0.324796
0
LINE
8
BLACK
6
CONTINUOUS
10
0.0654574
20
-0.324796
11
0.0571616
21
-0.324796
0
LINE
8
BLACK
6
CONTINUOUS
10
0.0571616
20
-0.324796
11
0.0561517
21
-0.324618
0
LINE
8
BLACK
6
CONTINUOUS
10
0.0561517
20
-0.324618
11
0.0546044
21
-0.32332
0
LINE
8
BLACK
6
CONTINUOUS
10
0.0546044
20
-0.32332
11
0.0542537
21
-0.321331
0
LINE
8
BLACK
6
CONTINUOUS
10
0.0542537
20
-0.321331
11
0.0552636
21
-0.319581
0
LINE
8
BLACK
6
CONTINUOUS
10
0.0552636
20
-0.319581
11
0.0571616
21
-0.318891
0
LINE
8
BLACK
6
CONTINUOUS
10
0.0571616
20
-0.318891
11
0.0796588
21
-0.318891
0
LINE
8
BLACK
6
CONTINUOUS
10
0.0796588
20
-0.318891
11
0.0806687
21
-0.319069
0
LINE
8
BLACK
6
CONTINUOUS
10
-0.118687
20
-0.318959
11
-0.118554
21
-0.318935
0
LINE
8
BLACK
6
CONTINUOUS
10
-0.118554
20
-0.318935
11
-0.118437
21
-0.319003
0
LINE
8
BLACK
6
CONTINUOUS
10
-0.118437
20
-0.319003
11
-0.118302
21
-0.318991
0
LINE
8
BLACK
6
CONTINUOUS
10
-0.118302
20
-0.318991
11
-0.117674
21
-0.319431
0
LINE
8
BLACK
6
CONTINUOUS
10
-0.117674
20
-0.319431
11
-0.116979
21
-0.319755
0
LINE
8
BLACK
6
CONTINUOUS
10
-0.116979
20
-0.319755
11
-0.115104
21
-0.32163
0
LINE
8
BLACK
6
CONTINUOUS
10
-0.115104
20
-0.32163
11
-0.11488
21
-0.321949
0
LINE
8
BLACK
6
CONTINUOUS
10
-0.11488
20
-0.321949
11
-0.114773
21
-0.322024
0
LINE
8
BLACK
6
CONTINUOUS
10
-0.114773
20
-0.322024
11
-0.114739
21
-0.322151
0
LINE
8
BLACK
6
CONTINUOUS
10
-0.114739
20
-0.322151
11
-0.114516
21
-0.32247
0
LINE
8
BLACK
6
CONTINUOUS
10
-0.114516
20
-0.32247
11
-0.114449
21
-0.323234
0
LINE
8
BLACK
6
CONTINUOUS
10
-0.114449
20
-0.323234
11
-0.11425
21
-0.323975
0
LINE
8
BLACK
6
CONTINUOUS
10
-0.11425
20
-0.323975
11
-0.114363
21
-0.324217
0
LINE
8
BLACK
6
CONTINUOUS
10
-0.114363
20
-0.324217
11
-0.11434
21
-0.324482
0
LINE
8
BLACK
6
CONTINUOUS
10
-0.11434
20
-0.324482
11
-0.11478
21
-0.325111
0
LINE
8
BLACK
6
CONTINUOUS
10
-0.11478
20
-0.325111
11
-0.115104
21
-0.325806
0
LINE
8
BLACK
6
CONTINUOUS
10
-0.115104
20
-0.325806
11
-0.116979
21
-0.327681
0
LINE
8
BLACK
6
CONTINUOUS
10
-0.116979
20
-0.327681
11
-0.117298
21
-0.327904
0
LINE
8
BLACK
6
CONTINUOUS
10
-0.117298
20
-0.327904
11
-0.117373
21
-0.328012
0
LINE
8
BLACK
6
CONTINUOUS
10
-0.117373
20
-0.328012
11
-0.1175
21
-0.328046
0
LINE
8
BLACK
6
CONTINUOUS
10
-0.1175
20
-0.328046
11
-0.117507
21
-0.32805
0
LINE
8
BLACK
6
CONTINUOUS
10
-0.117507
20
-0.32805
11
-0.11759
21
-0.32815
0
LINE
8
BLACK
6
CONTINUOUS
10
-0.11759
20
-0.32815
11
-0.117668
21
-0.328164
0
LINE
8
BLACK
6
CONTINUOUS
10
-0.117668
20
-0.328164
11
-0.117819
21
-0.328269
0
LINE
8
BLACK
6
CONTINUOUS
10
-0.117819
20
-0.328269
11
-0.118583
21
-0.328336
0
LINE
8
BLACK
6
CONTINUOUS
10
-0.118583
20
-0.328336
11
-0.119324
21
-0.328534
0
LINE
8
BLACK
6
CONTINUOUS
10
-0.119324
20
-0.328534
11
-0.119446
21
-0.328477
0
LINE
8
BLACK
6
CONTINUOUS
10
-0.119446
20
-0.328477
11
-0.119579
21
-0.328501
0
LINE
8
BLACK
6
CONTINUOUS
10
-0.119579
20
-0.328501
11
-0.119696
21
-0.328433
0
LINE
8
BLACK
6
CONTINUOUS
10
-0.119696
20
-0.328433
11
-0.119831
21
-0.328445
0
LINE
8
BLACK
6
CONTINUOUS
10
-0.119831
20
-0.328445
11
-0.120459
21
-0.328005
0
LINE
8
BLACK
6
CONTINUOUS
10
-0.120459
20
-0.328005
11
-0.121154
21
-0.327681
0
LINE
8
BLACK
6
CONTINUOUS
10
-0.121154
20
-0.327681
11
-0.123029
21
-0.325806
0
LINE
8
BLACK
6
CONTINUOUS
10
-0.123029
20
-0.325806
11
-0.123252
21
-0.325487
0
LINE
8
BLACK
6
CONTINUOUS
10
-0.123252
20
-0.325487
11
-0.12336
21
-0.325412
0
LINE
8
BLACK
6
CONTINUOUS
10
-0.12336
20
-0.325412
11
-0.123394
21
-0.325285
0
LINE
8
BLACK
6
CONTINUOUS
10
-0.123394
20
-0.325285
11
-0.123617
21
-0.324966
0
LINE
8
BLACK
6
CONTINUOUS
10
-0.123617
20
-0.324966
11
-0.123684
21
-0.324202
0
LINE
8
BLACK
6
CONTINUOUS
10
-0.123684
20
-0.324202
11
-0.123883
21
-0.323461
0
LINE
8
BLACK
6
CONTINUOUS
10
-0.123883
20
-0.323461
11
-0.12377
21
-0.323219
0
LINE
8
BLACK
6
CONTINUOUS
10
-0.12377
20
-0.323219
11
-0.123793
21
-0.322954
0
LINE
8
BLACK
6
CONTINUOUS
10
-0.123793
20
-0.322954
11
-0.123353
21
-0.322325
0
LINE
8
BLACK
6
CONTINUOUS
10
-0.123353
20
-0.322325
11
-0.123029
21
-0.32163
0
LINE
8
BLACK
6
CONTINUOUS
10
-0.123029
20
-0.32163
11
-0.121154
21
-0.319755
0
LINE
8
BLACK
6
CONTINUOUS
10
-0.121154
20
-0.319755
11
-0.120835
21
-0.319532
0
LINE
8
BLACK
6
CONTINUOUS
10
-0.120835
20
-0.319532
11
-0.12076
21
-0.319424
0
LINE
8
BLACK
6
CONTINUOUS
10
-0.12076
20
-0.319424
11
-0.120633
21
-0.319391
0
LINE
8
BLACK
6
CONTINUOUS
10
-0.120633
20
-0.319391
11
-0.120626
21
-0.319386
0
LINE
8
BLACK
6
CONTINUOUS
10
-0.120626
20
-0.319386
11
-0.120543
21
-0.319286
0
LINE
8
BLACK
6
CONTINUOUS
10
-0.120543
20
-0.319286
11
-0.120464
21
-0.319272
0
LINE
8
BLACK
6
CONTINUOUS
10
-0.120464
20
-0.319272
11
-0.120314
21
-0.319167
0
LINE
8
BLACK
6
CONTINUOUS
10
-0.120314
20
-0.319167
11
-0.11955
21
-0.3191
0
LINE
8
BLACK
6
CONTINUOUS
10
-0.11955
20
-0.3191
11
-0.118809
21
-0.318902
0
LINE
8
BLACK
6
CONTINUOUS
10
-0.118809
20
-0.318902
11
-0.118687
21
-0.318959
0
LINE
8
BLACK
6
CONTINUOUS
10
-0.0721247
20
-0.15962
11
-0.0705775
21
-0.160918
0
LINE
8
BLACK
6
CONTINUOUS
10
-0.0705775
20
-0.160918
11
-0.0702267
21
-0.162907
0
LINE
8
BLACK
6
CONTINUOUS
10
-0.0702267
20
-0.162907
11
-0.0712367
21
-0.164656
0
LINE
8
BLACK
6
CONTINUOUS
10
-0.0712367
20
-0.164656
11
-0.0731346
21
-0.165347
0
LINE
8
BLACK
6
CONTINUOUS
10
-0.0731346
20
-0.165347
11
-0.0909994
21
-0.165347
0
LINE
8
BLACK
6
CONTINUOUS
10
-0.0909994
20
-0.165347
11
-0.0821611
21
-0.175448
0
LINE
8
BLACK
6
CONTINUOUS
10
-0.0821611
20
-0.175448
11
-0.0819312
21
-0.175828
0
LINE
8
BLACK
6
CONTINUOUS
10
-0.0819312
20
-0.175828
11
-0.0818261
21
-0.175916
0
LINE
8
BLACK
6
CONTINUOUS
10
-0.0818261
20
-0.175916
11
-0.0818048
21
-0.176037
0
LINE
8
BLACK
6
CONTINUOUS
10
-0.0818048
20
-0.176037
11
-0.08163
21
-0.176325
0
LINE
8
BLACK
6
CONTINUOUS
10
-0.08163
20
-0.176325
11
-0.0816136
21
-0.177121
0
LINE
8
BLACK
6
CONTINUOUS
10
-0.0816136
20
-0.177121
11
-0.0814753
21
-0.177905
0
LINE
8
BLACK
6
CONTINUOUS
10
-0.0814753
20
-0.177905
11
-0.0815931
21
-0.178109
0
LINE
8
BLACK
6
CONTINUOUS
10
-0.0815931
20
-0.178109
11
-0.0815882
21
-0.178345
0
LINE
8
BLACK
6
CONTINUOUS
10
-0.0815882
20
-0.178345
11
-0.0820872
21
-0.178965
0
LINE
8
BLACK
6
CONTINUOUS
10
-0.0820872
20
-0.178965
11
-0.0824852
21
-0.179654
0
LINE
8
BLACK
6
CONTINUOUS
10
-0.0824852
20
-0.179654
11
-0.0827066
21
-0.179735
0
LINE
8
BLACK
6
CONTINUOUS
10
-0.0827066
20
-0.179735
11
-0.0828543
21
-0.179919
0
LINE
8
BLACK
6
CONTINUOUS
10
-0.0828543
20
-0.179919
11
-0.0836352
21
-0.180073
0
LINE
8
BLACK
6
CONTINUOUS
10
-0.0836352
20
-0.180073
11
-0.0843832
21
-0.180345
0
LINE
8
BLACK
6
CONTINUOUS
10
-0.0843832
20
-0.180345
11
-0.0893105
21
-0.180345
0
LINE
8
BLACK
6
CONTINUOUS
10
-0.0893105
20
-0.180345
11
-0.092008
21
-0.181694
0
LINE
8
BLACK
6
CONTINUOUS
10
-0.092008
20
-0.181694
11
-0.0932051
21
-0.182891
0
LINE
8
BLACK
6
CONTINUOUS
10
-0.0932051
20
-0.182891
11
-0.0945538
21
-0.185589
0
LINE
8
BLACK
6
CONTINUOUS
10
-0.0945538
20
-0.185589
11
-0.0945538
21
-0.193568
0
LINE
8
BLACK
6
CONTINUOUS
10
-0.0945538
20
-0.193568
11
-0.0932051
21
-0.196266
0
LINE
8
BLACK
6
CONTINUOUS
10
-0.0932051
20
-0.196266
11
-0.092008
21
-0.197463
0
LINE
8
BLACK
6
CONTINUOUS
10
-0.092008
20
-0.197463
11
-0.0893105
21
-0.198812
0
LINE
8
BLACK
6
CONTINUOUS
10
-0.0893105
20
-0.198812
11
-0.079456
21
-0.198812
0
LINE
8
BLACK
6
CONTINUOUS
10
-0.079456
20
-0.198812
11
-0.0767585
21
-0.197463
0
LINE
8
BLACK
6
CONTINUOUS
10
-0.0767585
20
-0.197463
11
-0.0752226
21
-0.195927
0
LINE
8
BLACK
6
CONTINUOUS
10
-0.0752226
20
-0.195927
11
-0.0743826
21
-0.195339
0
LINE
8
BLACK
6
CONTINUOUS
10
-0.0743826
20
-0.195339
11
-0.0723704
21
-0.195163
0
LINE
8
BLACK
6
CONTINUOUS
10
-0.0723704
20
-0.195163
11
-0.0707159
21
-0.196321
0
LINE
8
BLACK
6
CONTINUOUS
10
-0.0707159
20
-0.196321
11
-0.0701931
21
-0.198272
0
LINE
8
BLACK
6
CONTINUOUS
10
-0.0701931
20
-0.198272
11
-0.0710467
21
-0.200103
0
LINE
8
BLACK
6
CONTINUOUS
10
-0.0710467
20
-0.200103
11
-0.0729215
21
-0.201978
0
LINE
8
BLACK
6
CONTINUOUS
10
-0.0729215
20
-0.201978
11
-0.0736446
21
-0.202484
0
LINE
8
BLACK
6
CONTINUOUS
10
-0.0736446
20
-0.202484
11
-0.0736889
21
-0.202531
0
LINE
8
BLACK
6
CONTINUOUS
10
-0.0736889
20
-0.202531
11
-0.0774384
21
-0.204406
0
LINE
8
BLACK
6
CONTINUOUS
10
-0.0774384
20
-0.204406
11
-0.0784214
21
-0.204698
0
LINE
8
BLACK
6
CONTINUOUS
10
-0.0784214
20
-0.204698
11
-0.0785931
21
-0.204657
0
LINE
8
BLACK
6
CONTINUOUS
10
-0.0785931
20
-0.204657
11
-0.0787589
21
-0.204717
0
LINE
8
BLACK
6
CONTINUOUS
10
-0.0787589
20
-0.204717
11
-0.0900075
21
-0.204717
0
LINE
8
BLACK
6
CONTINUOUS
10
-0.0900075
20
-0.204717
11
-0.0910174
21
-0.204539
0
LINE
8
BLACK
6
CONTINUOUS
10
-0.0910174
20
-0.204539
11
-0.0911527
21
-0.204426
0
LINE
8
BLACK
6
CONTINUOUS
10
-0.0911527
20
-0.204426
11
-0.091328
21
-0.204406
0
LINE
8
BLACK
6
CONTINUOUS
10
-0.091328
20
-0.204406
11
-0.0950776
21
-0.202531
0
LINE
8
BLACK
6
CONTINUOUS
10
-0.0950776
20
-0.202531
11
-0.0957867
21
-0.202005
0
LINE
8
BLACK
6
CONTINUOUS
10
-0.0957867
20
-0.202005
11
-0.095845
21
-0.201978
0
LINE
8
BLACK
6
CONTINUOUS
10
-0.095845
20
-0.201978
11
-0.0977198
21
-0.200103
0
LINE
8
BLACK
6
CONTINUOUS
10
-0.0977198
20
-0.200103
11
-0.0982261
21
-0.19938
0
LINE
8
BLACK
6
CONTINUOUS
10
-0.0982261
20
-0.19938
11
-0.0982728
21
-0.199335
0
LINE
8
BLACK
6
CONTINUOUS
10
-0.0982728
20
-0.199335
11
-0.100148
21
-0.195586
0
LINE
8
BLACK
6
CONTINUOUS
10
-0.100148
20
-0.195586
11
-0.10044
21
-0.194603
0
LINE
8
BLACK
6
CONTINUOUS
10
-0.10044
20
-0.194603
11
-0.100399
21
-0.194431
0
LINE
8
BLACK
6
CONTINUOUS
10
-0.100399
20
-0.194431
11
-0.100459
21
-0.194265
0
LINE
8
BLACK
6
CONTINUOUS
10
-0.100459
20
-0.194265
11
-0.100459
21
-0.184892
0
LINE
8
BLACK
6
CONTINUOUS
10
-0.100459
20
-0.184892
11
-0.100281
21
-0.183882
0
LINE
8
BLACK
6
CONTINUOUS
10
-0.100281
20
-0.183882
11
-0.100168
21
-0.183746
0
LINE
8
BLACK
6
CONTINUOUS
10
-0.100168
20
-0.183746
11
-0.100148
21
-0.183571
0
LINE
8
BLACK
6
CONTINUOUS
10
-0.100148
20
-0.183571
11
-0.0982728
21
-0.179822
0
LINE
8
BLACK
6
CONTINUOUS
10
-0.0982728
20
-0.179822
11
-0.0977469
21
-0.179112
0
LINE
8
BLACK
6
CONTINUOUS
10
-0.0977469
20
-0.179112
11
-0.0977197
21
-0.179054
0
LINE
8
BLACK
6
CONTINUOUS
10
-0.0977197
20
-0.179054
11
-0.095845
21
-0.177179
0
LINE
8
BLACK
6
CONTINUOUS
10
-0.095845
20
-0.177179
11
-0.0951219
21
-0.176673
0
LINE
8
BLACK
6
CONTINUOUS
10
-0.0951219
20
-0.176673
11
-0.0950776
21
-0.176626
0
LINE
8
BLACK
6
CONTINUOUS
10
-0.0950776
20
-0.176626
11
-0.091328
21
-0.174752
0
LINE
8
BLACK
6
CONTINUOUS
10
-0.091328
20
-0.174752
11
-0.0907644
21
-0.174584
0
LINE
8
BLACK
6
CONTINUOUS
10
-0.0907644
20
-0.174584
11
-0.0997287
21
-0.164339
0
LINE
8
BLACK
6
CONTINUOUS
10
-0.0997287
20
-0.164339
11
-0.0999587
21
-0.163959
0
LINE
8
BLACK
6
CONTINUOUS
10
-0.0999587
20
-0.163959
11
-0.100064
21
-0.163871
0
LINE
8
BLACK
6
CONTINUOUS
10
-0.100064
20
-0.163871
11
-0.100085
21
-0.16375
0
LINE
8
BLACK
6
CONTINUOUS
10
-0.100085
20
-0.16375
11
-0.10026
21
-0.163462
0
LINE
8
BLACK
6
CONTINUOUS
10
-0.10026
20
-0.163462
11
-0.100276
21
-0.162666
0
LINE
8
BLACK
6
CONTINUOUS
10
-0.100276
20
-0.162666
11
-0.100414
21
-0.161882
0
LINE
8
BLACK
6
CONTINUOUS
10
-0.100414
20
-0.161882
11
-0.100297
21
-0.161678
0
LINE
8
BLACK
6
CONTINUOUS
10
-0.100297
20
-0.161678
11
-0.100302
21
-0.161442
0
LINE
8
BLACK
6
CONTINUOUS
10
-0.100302
20
-0.161442
11
-0.0998026
21
-0.160822
0
LINE
8
BLACK
6
CONTINUOUS
10
-0.0998026
20
-0.160822
11
-0.0994046
21
-0.160133
0
LINE
8
BLACK
6
CONTINUOUS
10
-0.0994046
20
-0.160133
11
-0.0991832
21
-0.160052
0
LINE
8
BLACK
6
CONTINUOUS
10
-0.0991832
20
-0.160052
11
-0.0990356
21
-0.159868
0
LINE
8
BLACK
6
CONTINUOUS
10
-0.0990356
20
-0.159868
11
-0.0982546
21
-0.159714
0
LINE
8
BLACK
6
CONTINUOUS
10
-0.0982546
20
-0.159714
11
-0.0975066
21
-0.159442
0
LINE
8
BLACK
6
CONTINUOUS
10
-0.0975066
20
-0.159442
11
-0.0731346
21
-0.159442
0
LINE
8
BLACK
6
CONTINUOUS
10
-0.0731346
20
-0.159442
11
-0.0721247
21
-0.15962
0
LINE
8
BLACK
6
CONTINUOUS
10
-0.0371306
20
-0.159509
11
-0.0370013
21
-0.159487
0
LINE
8
BLACK
6
CONTINUOUS
10
-0.0370013
20
-0.159487
11
-0.0368878
21
-0.159552
0
LINE
8
BLACK
6
CONTINUOUS
10
-0.0368878
20
-0.159552
11
-0.0365042
21
-0.15962
0
LINE
8
BLACK
6
CONTINUOUS
10
-0.0365042
20
-0.15962
11
-0.0359165
21
-0.160113
0
LINE
8
BLACK
6
CONTINUOUS
10
-0.0359165
20
-0.160113
11
-0.0352522
21
-0.160496
0
LINE
8
BLACK
6
CONTINUOUS
10
-0.0352522
20
-0.160496
11
-0.0351611
21
-0.160747
0
LINE
8
BLACK
6
CONTINUOUS
10
-0.0351611
20
-0.160747
11
-0.0349569
21
-0.160918
0
LINE
8
BLACK
6
CONTINUOUS
10
-0.0349569
20
-0.160918
11
-0.0348237
21
-0.161674
0
LINE
8
BLACK
6
CONTINUOUS
10
-0.0348237
20
-0.161674
11
-0.0345613
21
-0.162394
0
LINE
8
BLACK
6
CONTINUOUS
10
-0.0345613
20
-0.162394
11
-0.0345613
21
-0.201765
0
LINE
8
BLACK
6
CONTINUOUS
10
-0.0345613
20
-0.201765
11
-0.0347394
21
-0.202774
0
LINE
8
BLACK
6
CONTINUOUS
10
-0.0347394
20
-0.202774
11
-0.0360377
21
-0.204322
0
LINE
8
BLACK
6
CONTINUOUS
10
-0.0360377
20
-0.204322
11
-0.0380269
21
-0.204672
0
LINE
8
BLACK
6
CONTINUOUS
10
-0.0380269
20
-0.204672
11
-0.039776
21
-0.203663
0
LINE
8
BLACK
6
CONTINUOUS
10
-0.039776
20
-0.203663
11
-0.0404669
21
-0.201765
0
LINE
8
BLACK
6
CONTINUOUS
10
-0.0404669
20
-0.201765
11
-0.0404669
21
-0.18597
0
LINE
8
BLACK
6
CONTINUOUS
10
-0.0404669
20
-0.18597
11
-0.0525122
21
-0.18597
0
LINE
8
BLACK
6
CONTINUOUS
10
-0.0525122
20
-0.18597
11
-0.0535221
21
-0.185792
0
LINE
8
BLACK
6
CONTINUOUS
10
-0.0535221
20
-0.185792
11
-0.0536574
21
-0.185678
0
LINE
8
BLACK
6
CONTINUOUS
10
-0.0536574
20
-0.185678
11
-0.0538327
21
-0.185658
0
LINE
8
BLACK
6
CONTINUOUS
10
-0.0538327
20
-0.185658
11
-0.0575822
21
-0.183783
0
LINE
8
BLACK
6
CONTINUOUS
10
-0.0575822
20
-0.183783
11
-0.0582913
21
-0.183257
0
LINE
8
BLACK
6
CONTINUOUS
10
-0.0582913
20
-0.183257
11
-0.0583496
21
-0.18323
0
LINE
8
BLACK
6
CONTINUOUS
10
-0.0583496
20
-0.18323
11
-0.0602244
21
-0.181355
0
LINE
8
BLACK
6
CONTINUOUS
10
-0.0602244
20
-0.181355
11
-0.0607307
21
-0.180632
0
LINE
8
BLACK
6
CONTINUOUS
10
-0.0607307
20
-0.180632
11
-0.0607775
21
-0.180588
0
LINE
8
BLACK
6
CONTINUOUS
10
-0.0607775
20
-0.180588
11
-0.0626523
21
-0.176838
0
LINE
8
BLACK
6
CONTINUOUS
10
-0.0626523
20
-0.176838
11
-0.0629446
21
-0.175855
0
LINE
8
BLACK
6
CONTINUOUS
10
-0.0629446
20
-0.175855
11
-0.0629037
21
-0.175684
0
LINE
8
BLACK
6
CONTINUOUS
10
-0.0629037
20
-0.175684
11
-0.062964
21
-0.175518
0
LINE
8
BLACK
6
CONTINUOUS
10
-0.062964
20
-0.175518
11
-0.062964
21
-0.169894
0
LINE
8
BLACK
6
CONTINUOUS
10
-0.062964
20
-0.169894
11
-0.0627859
21
-0.168884
0
LINE
8
BLACK
6
CONTINUOUS
10
-0.0627859
20
-0.168884
11
-0.0626725
21
-0.168748
0
LINE
8
BLACK
6
CONTINUOUS
10
-0.0626725
20
-0.168748
11
-0.0626523
21
-0.168573
0
LINE
8
BLACK
6
CONTINUOUS
10
-0.0626523
20
-0.168573
11
-0.0607775
21
-0.164823
0
LINE
8
BLACK
6
CONTINUOUS
10
-0.0607775
20
-0.164823
11
-0.0602516
21
-0.164114
0
LINE
8
BLACK
6
CONTINUOUS
10
-0.0602516
20
-0.164114
11
-0.0602244
21
-0.164056
0
LINE
8
BLACK
6
CONTINUOUS
10
-0.0602244
20
-0.164056
11
-0.0583496
21
-0.162181
0
LINE
8
BLACK
6
CONTINUOUS
10
-0.0583496
20
-0.162181
11
-0.0576266
21
-0.161675
0
LINE
8
BLACK
6
CONTINUOUS
10
-0.0576266
20
-0.161675
11
-0.0575822
21
-0.161628
0
LINE
8
BLACK
6
CONTINUOUS
10
-0.0575822
20
-0.161628
11
-0.0538327
21
-0.159753
0
LINE
8
BLACK
6
CONTINUOUS
10
-0.0538327
20
-0.159753
11
-0.0528498
21
-0.159461
0
LINE
8
BLACK
6
CONTINUOUS
10
-0.0528498
20
-0.159461
11
-0.0526781
21
-0.159502
0
LINE
8
BLACK
6
CONTINUOUS
10
-0.0526781
20
-0.159502
11
-0.0525122
21
-0.159442
0
LINE
8
BLACK
6
CONTINUOUS
10
-0.0525122
20
-0.159442
11
-0.0375141
21
-0.159442
0
LINE
8
BLACK
6
CONTINUOUS
10
-0.0375141
20
-0.159442
11
-0.0371306
21
-0.159509
0
LINE
8
BLACK
6
CONTINUOUS
10
-0.0545126
20
-0.166696
11
-0.0557098
21
-0.167893
0
LINE
8
BLACK
6
CONTINUOUS
10
-0.0557098
20
-0.167893
11
-0.0570585
21
-0.170591
0
LINE
8
BLACK
6
CONTINUOUS
10
-0.0570585
20
-0.170591
11
-0.0570585
21
-0.174821
0
LINE
8
BLACK
6
CONTINUOUS
10
-0.0570585
20
-0.174821
11
-0.0557098
21
-0.177518
0
LINE
8
BLACK
6
CONTINUOUS
10
-0.0557098
20
-0.177518
11
-0.0545126
21
-0.178715
0
LINE
8
BLACK
6
CONTINUOUS
10
-0.0545126
20
-0.178715
11
-0.0518152
21
-0.180064
0
LINE
8
BLACK
6
CONTINUOUS
10
-0.0518152
20
-0.180064
11
-0.0404669
21
-0.180064
0
LINE
8
BLACK
6
CONTINUOUS
10
-0.0404669
20
-0.180064
11
-0.0404669
21
-0.165347
0
LINE
8
BLACK
6
CONTINUOUS
10
-0.0404669
20
-0.165347
11
-0.0518152
21
-0.165347
0
LINE
8
BLACK
6
CONTINUOUS
10
-0.0518152
20
-0.165347
11
-0.0545126
21
-0.166696
0
LINE
8
BLACK
6
CONTINUOUS
10
-0.000883622
20
-0.15962
11
0.000663622
21
-0.160918
0
LINE
8
BLACK
6
CONTINUOUS
10
0.000663622
20
-0.160918
11
0.00101437
21
-0.162907
0
LINE
8
BLACK
6
CONTINUOUS
10
0.00101437
20
-0.162907
11
4.44882e-06
21
-0.164656
0
LINE
8
BLACK
6
CONTINUOUS
10
4.44882e-06
20
-0.164656
11
-0.00189354
21
-0.165347
0
LINE
8
BLACK
6
CONTINUOUS
10
-0.00189354
20
-0.165347
11
-0.0101894
21
-0.165347
0
LINE
8
BLACK
6
CONTINUOUS
10
-0.0101894
20
-0.165347
11
-0.0101894
21
-0.201765
0
LINE
8
BLACK
6
CONTINUOUS
10
-0.0101894
20
-0.201765
11
-0.0103674
21
-0.202774
0
LINE
8
BLACK
6
CONTINUOUS
10
-0.0103674
20
-0.202774
11
-0.0116657
21
-0.204322
0
LINE
8
BLACK
6
CONTINUOUS
10
-0.0116657
20
-0.204322
11
-0.0136549
21
-0.204672
0
LINE
8
BLACK
6
CONTINUOUS
10
-0.0136549
20
-0.204672
11
-0.0154041
21
-0.203663
0
LINE
8
BLACK
6
CONTINUOUS
10
-0.0154041
20
-0.203663
11
-0.0160949
21
-0.201765
0
LINE
8
BLACK
6
CONTINUOUS
10
-0.0160949
20
-0.201765
11
-0.0160949
21
-0.165347
0
LINE
8
BLACK
6
CONTINUOUS
10
-0.0160949
20
-0.165347
11
-0.0243907
21
-0.165347
0
LINE
8
BLACK
6
CONTINUOUS
10
-0.0243907
20
-0.165347
11
-0.0254006
21
-0.165169
0
LINE
8
BLACK
6
CONTINUOUS
10
-0.0254006
20
-0.165169
11
-0.0269479
21
-0.163871
0
LINE
8
BLACK
6
CONTINUOUS
10
-0.0269479
20
-0.163871
11
-0.0272986
21
-0.161882
0
LINE
8
BLACK
6
CONTINUOUS
10
-0.0272986
20
-0.161882
11
-0.0262887
21
-0.160133
0
LINE
8
BLACK
6
CONTINUOUS
10
-0.0262887
20
-0.160133
11
-0.0243907
21
-0.159442
0
LINE
8
BLACK
6
CONTINUOUS
10
-0.0243907
20
-0.159442
11
-0.00189354
21
-0.159442
0
LINE
8
BLACK
6
CONTINUOUS
10
-0.00189354
20
-0.159442
11
-0.000883622
21
-0.15962
  0
ENDSEC
  0
EOF
