  0
SECTION
  2
HEADER
  9
$ANGBASE
  50
0.0
  9
$ANGDIR
  70
1
  9
$MEASUREMENT
  70
0
  0
ENDSEC
  0
SECTION
  2
TABLES
  0
TABLE
  2
LTYPE
  70
4
  0
LTYPE
  5
40F
  2
CONTINUOUS
  70
0
  3
Solid line
  72
65
  73
0
  40
0.0
  0
LTYPE
  5
410
  2
DASHDOT
 70
0
  3
Dash Dot ____ _ ____ _
 72
65
 73
4
 40
2.0
 49
1.25
 49
-0.25
 49
0.25
 49
-0.25
  0
LTYPE
  5
411
  2
DASHED
 70
0
  3
Dashed __ __ __ __ __
 72
65
 73
2
 40
0.75
 49
0.5
 49
-0.25
  0
LTYPE
  5
43B
  2
DOTTED
 70
0
  3
Dotted .  .  .  .
 72
65
 73
2
 40
0.2
 49
0.0
 49
-0.2
  0
ENDTAB
  0
TABLE
  2
STYLE
  70
4
  0
STYLE
  2
KICAD
  70
0
  40
0
  41
1
  42
1
  50
0
  71
0
  3
isocp.shx
  0
STYLE
  2
KICADB
  70
0
  40
0
  41
1
  42
1
  50
0
  71
0
  3
isocp.shx
  0
STYLE
  2
KICADI
  70
0
  40
0
  41
1
  42
1
  50
15
  71
0
  3
isocp.shx
  0
STYLE
  2
KICADBI
  70
0
  40
0
  41
1
  42
1
  50
15
  71
0
  3
isocp.shx
  0
ENDTAB
  0
TABLE
  2
LAYER
  70
1
  0
LAYER
  2
BLACK
  70
0
  62
7
  6
CONTINUOUS
  0
ENDTAB
  0
ENDSEC
  0
SECTION
  2
ENTITIES
0
LINE
8
BLACK
6
CONTINUOUS
10
0.446061
20
-0.571037
11
0.446196
21
-0.571151
0
LINE
8
BLACK
6
CONTINUOUS
10
0.446196
20
-0.571151
11
0.446371
21
-0.571171
0
LINE
8
BLACK
6
CONTINUOUS
10
0.446371
20
-0.571171
11
0.450121
21
-0.573046
0
LINE
8
BLACK
6
CONTINUOUS
10
0.450121
20
-0.573046
11
0.450944
21
-0.573656
0
LINE
8
BLACK
6
CONTINUOUS
10
0.450944
20
-0.573656
11
0.451748
21
-0.57551
0
LINE
8
BLACK
6
CONTINUOUS
10
0.451748
20
-0.57551
11
0.451172
21
-0.577446
0
LINE
8
BLACK
6
CONTINUOUS
10
0.451172
20
-0.577446
11
0.449486
21
-0.578558
0
LINE
8
BLACK
6
CONTINUOUS
10
0.449486
20
-0.578558
11
0.44748
21
-0.578328
0
LINE
8
BLACK
6
CONTINUOUS
10
0.44748
20
-0.578328
11
0.444354
21
-0.576765
0
LINE
8
BLACK
6
CONTINUOUS
10
0.444354
20
-0.576765
11
0.439905
21
-0.576765
0
LINE
8
BLACK
6
CONTINUOUS
10
0.439905
20
-0.576765
11
0.435397
21
-0.578267
0
LINE
8
BLACK
6
CONTINUOUS
10
0.435397
20
-0.578267
11
0.432479
21
-0.581185
0
LINE
8
BLACK
6
CONTINUOUS
10
0.432479
20
-0.581185
11
0.430964
21
-0.584216
0
LINE
8
BLACK
6
CONTINUOUS
10
0.430964
20
-0.584216
11
0.429256
21
-0.591048
0
LINE
8
BLACK
6
CONTINUOUS
10
0.429256
20
-0.591048
11
0.429256
21
-0.595945
0
LINE
8
BLACK
6
CONTINUOUS
10
0.429256
20
-0.595945
11
0.430964
21
-0.602777
0
LINE
8
BLACK
6
CONTINUOUS
10
0.430964
20
-0.602777
11
0.432479
21
-0.605808
0
LINE
8
BLACK
6
CONTINUOUS
10
0.432479
20
-0.605808
11
0.435397
21
-0.608726
0
LINE
8
BLACK
6
CONTINUOUS
10
0.435397
20
-0.608726
11
0.439905
21
-0.610229
0
LINE
8
BLACK
6
CONTINUOUS
10
0.439905
20
-0.610229
11
0.442697
21
-0.610229
0
LINE
8
BLACK
6
CONTINUOUS
10
0.442697
20
-0.610229
11
0.447205
21
-0.608726
0
LINE
8
BLACK
6
CONTINUOUS
10
0.447205
20
-0.608726
11
0.447722
21
-0.608209
0
LINE
8
BLACK
6
CONTINUOUS
10
0.447722
20
-0.608209
11
0.447722
21
-0.599262
0
LINE
8
BLACK
6
CONTINUOUS
10
0.447722
20
-0.599262
11
0.443176
21
-0.599262
0
LINE
8
BLACK
6
CONTINUOUS
10
0.443176
20
-0.599262
11
0.442166
21
-0.599084
0
LINE
8
BLACK
6
CONTINUOUS
10
0.442166
20
-0.599084
11
0.440619
21
-0.597785
0
LINE
8
BLACK
6
CONTINUOUS
10
0.440619
20
-0.597785
11
0.440268
21
-0.595796
0
LINE
8
BLACK
6
CONTINUOUS
10
0.440268
20
-0.595796
11
0.441278
21
-0.594047
0
LINE
8
BLACK
6
CONTINUOUS
10
0.441278
20
-0.594047
11
0.443176
21
-0.593356
0
LINE
8
BLACK
6
CONTINUOUS
10
0.443176
20
-0.593356
11
0.450675
21
-0.593356
0
LINE
8
BLACK
6
CONTINUOUS
10
0.450675
20
-0.593356
11
0.451058
21
-0.593424
0
LINE
8
BLACK
6
CONTINUOUS
10
0.451058
20
-0.593424
11
0.451188
21
-0.593401
0
LINE
8
BLACK
6
CONTINUOUS
10
0.451188
20
-0.593401
11
0.451301
21
-0.593467
0
LINE
8
BLACK
6
CONTINUOUS
10
0.451301
20
-0.593467
11
0.451685
21
-0.593534
0
LINE
8
BLACK
6
CONTINUOUS
10
0.451685
20
-0.593534
11
0.452272
21
-0.594027
0
LINE
8
BLACK
6
CONTINUOUS
10
0.452272
20
-0.594027
11
0.452937
21
-0.594411
0
LINE
8
BLACK
6
CONTINUOUS
10
0.452937
20
-0.594411
11
0.453028
21
-0.594661
0
LINE
8
BLACK
6
CONTINUOUS
10
0.453028
20
-0.594661
11
0.453232
21
-0.594833
0
LINE
8
BLACK
6
CONTINUOUS
10
0.453232
20
-0.594833
11
0.453365
21
-0.595588
0
LINE
8
BLACK
6
CONTINUOUS
10
0.453365
20
-0.595588
11
0.453628
21
-0.596309
0
LINE
8
BLACK
6
CONTINUOUS
10
0.453628
20
-0.596309
11
0.453628
21
-0.609432
0
LINE
8
BLACK
6
CONTINUOUS
10
0.453628
20
-0.609432
11
0.453596
21
-0.609613
0
LINE
8
BLACK
6
CONTINUOUS
10
0.453596
20
-0.609613
11
0.453616
21
-0.60969
0
LINE
8
BLACK
6
CONTINUOUS
10
0.453616
20
-0.60969
11
0.453561
21
-0.609807
0
LINE
8
BLACK
6
CONTINUOUS
10
0.453561
20
-0.609807
11
0.45345
21
-0.610442
0
LINE
8
BLACK
6
CONTINUOUS
10
0.45345
20
-0.610442
11
0.453035
21
-0.610936
0
LINE
8
BLACK
6
CONTINUOUS
10
0.453035
20
-0.610936
11
0.452763
21
-0.61152
0
LINE
8
BLACK
6
CONTINUOUS
10
0.452763
20
-0.61152
11
0.450888
21
-0.613395
0
LINE
8
BLACK
6
CONTINUOUS
10
0.450888
20
-0.613395
11
0.450048
21
-0.613983
0
LINE
8
BLACK
6
CONTINUOUS
10
0.450048
20
-0.613983
11
0.449872
21
-0.613999
0
LINE
8
BLACK
6
CONTINUOUS
10
0.449872
20
-0.613999
11
0.449734
21
-0.614108
0
LINE
8
BLACK
6
CONTINUOUS
10
0.449734
20
-0.614108
11
0.44411
21
-0.615983
0
LINE
8
BLACK
6
CONTINUOUS
10
0.44411
20
-0.615983
11
0.443236
21
-0.616113
0
LINE
8
BLACK
6
CONTINUOUS
10
0.443236
20
-0.616113
11
0.443176
21
-0.616135
0
LINE
8
BLACK
6
CONTINUOUS
10
0.443176
20
-0.616135
11
0.439426
21
-0.616135
0
LINE
8
BLACK
6
CONTINUOUS
10
0.439426
20
-0.616135
11
0.438557
21
-0.615981
0
LINE
8
BLACK
6
CONTINUOUS
10
0.438557
20
-0.615981
11
0.438493
21
-0.615983
0
LINE
8
BLACK
6
CONTINUOUS
10
0.438493
20
-0.615983
11
0.432868
21
-0.614108
0
LINE
8
BLACK
6
CONTINUOUS
10
0.432868
20
-0.614108
11
0.431966
21
-0.61362
0
LINE
8
BLACK
6
CONTINUOUS
10
0.431966
20
-0.61362
11
0.431874
21
-0.61347
0
LINE
8
BLACK
6
CONTINUOUS
10
0.431874
20
-0.61347
11
0.431714
21
-0.613395
0
LINE
8
BLACK
6
CONTINUOUS
10
0.431714
20
-0.613395
11
0.427965
21
-0.609645
0
LINE
8
BLACK
6
CONTINUOUS
10
0.427965
20
-0.609645
11
0.427458
21
-0.608922
0
LINE
8
BLACK
6
CONTINUOUS
10
0.427458
20
-0.608922
11
0.427411
21
-0.608878
0
LINE
8
BLACK
6
CONTINUOUS
10
0.427411
20
-0.608878
11
0.425537
21
-0.605129
0
LINE
8
BLACK
6
CONTINUOUS
10
0.425537
20
-0.605129
11
0.425391
21
-0.60464
0
LINE
8
BLACK
6
CONTINUOUS
10
0.425391
20
-0.60464
11
0.425313
21
-0.604524
0
LINE
8
BLACK
6
CONTINUOUS
10
0.425313
20
-0.604524
11
0.423438
21
-0.597025
0
LINE
8
BLACK
6
CONTINUOUS
10
0.423438
20
-0.597025
11
0.423397
21
-0.596437
0
LINE
8
BLACK
6
CONTINUOUS
10
0.423397
20
-0.596437
11
0.42335
21
-0.596309
0
LINE
8
BLACK
6
CONTINUOUS
10
0.42335
20
-0.596309
11
0.42335
21
-0.590685
0
LINE
8
BLACK
6
CONTINUOUS
10
0.42335
20
-0.590685
11
0.423453
21
-0.590104
0
LINE
8
BLACK
6
CONTINUOUS
10
0.423453
20
-0.590104
11
0.423438
21
-0.589969
0
LINE
8
BLACK
6
CONTINUOUS
10
0.423438
20
-0.589969
11
0.425313
21
-0.582469
0
LINE
8
BLACK
6
CONTINUOUS
10
0.425313
20
-0.582469
11
0.425521
21
-0.582004
0
LINE
8
BLACK
6
CONTINUOUS
10
0.425521
20
-0.582004
11
0.425537
21
-0.581865
0
LINE
8
BLACK
6
CONTINUOUS
10
0.425537
20
-0.581865
11
0.427411
21
-0.578116
0
LINE
8
BLACK
6
CONTINUOUS
10
0.427411
20
-0.578116
11
0.427937
21
-0.577406
0
LINE
8
BLACK
6
CONTINUOUS
10
0.427937
20
-0.577406
11
0.427965
21
-0.577348
0
LINE
8
BLACK
6
CONTINUOUS
10
0.427965
20
-0.577348
11
0.431714
21
-0.573599
0
LINE
8
BLACK
6
CONTINUOUS
10
0.431714
20
-0.573599
11
0.432554
21
-0.57301
0
LINE
8
BLACK
6
CONTINUOUS
10
0.432554
20
-0.57301
11
0.43273
21
-0.572995
0
LINE
8
BLACK
6
CONTINUOUS
10
0.43273
20
-0.572995
11
0.432868
21
-0.572885
0
LINE
8
BLACK
6
CONTINUOUS
10
0.432868
20
-0.572885
11
0.438493
21
-0.571011
0
LINE
8
BLACK
6
CONTINUOUS
10
0.438493
20
-0.571011
11
0.439366
21
-0.570881
0
LINE
8
BLACK
6
CONTINUOUS
10
0.439366
20
-0.570881
11
0.439426
21
-0.570859
0
LINE
8
BLACK
6
CONTINUOUS
10
0.439426
20
-0.570859
11
0.445051
21
-0.570859
0
LINE
8
BLACK
6
CONTINUOUS
10
0.445051
20
-0.570859
11
0.446061
21
-0.571037
0
LINE
8
BLACK
6
CONTINUOUS
10
0.519036
20
-0.571012
11
0.5191
21
-0.571011
0
LINE
8
BLACK
6
CONTINUOUS
10
0.5191
20
-0.571011
11
0.524724
21
-0.572885
0
LINE
8
BLACK
6
CONTINUOUS
10
0.524724
20
-0.572885
11
0.525626
21
-0.573374
0
LINE
8
BLACK
6
CONTINUOUS
10
0.525626
20
-0.573374
11
0.525719
21
-0.573524
0
LINE
8
BLACK
6
CONTINUOUS
10
0.525719
20
-0.573524
11
0.525879
21
-0.573599
0
LINE
8
BLACK
6
CONTINUOUS
10
0.525879
20
-0.573599
11
0.529628
21
-0.577348
0
LINE
8
BLACK
6
CONTINUOUS
10
0.529628
20
-0.577348
11
0.530135
21
-0.578071
0
LINE
8
BLACK
6
CONTINUOUS
10
0.530135
20
-0.578071
11
0.530181
21
-0.578116
0
LINE
8
BLACK
6
CONTINUOUS
10
0.530181
20
-0.578116
11
0.532056
21
-0.581865
0
LINE
8
BLACK
6
CONTINUOUS
10
0.532056
20
-0.581865
11
0.532201
21
-0.582354
0
LINE
8
BLACK
6
CONTINUOUS
10
0.532201
20
-0.582354
11
0.53228
21
-0.582469
0
LINE
8
BLACK
6
CONTINUOUS
10
0.53228
20
-0.582469
11
0.534154
21
-0.589969
0
LINE
8
BLACK
6
CONTINUOUS
10
0.534154
20
-0.589969
11
0.534196
21
-0.590556
0
LINE
8
BLACK
6
CONTINUOUS
10
0.534196
20
-0.590556
11
0.534243
21
-0.590685
0
LINE
8
BLACK
6
CONTINUOUS
10
0.534243
20
-0.590685
11
0.534243
21
-0.596309
0
LINE
8
BLACK
6
CONTINUOUS
10
0.534243
20
-0.596309
11
0.53414
21
-0.596889
0
LINE
8
BLACK
6
CONTINUOUS
10
0.53414
20
-0.596889
11
0.534154
21
-0.597025
0
LINE
8
BLACK
6
CONTINUOUS
10
0.534154
20
-0.597025
11
0.53228
21
-0.604524
0
LINE
8
BLACK
6
CONTINUOUS
10
0.53228
20
-0.604524
11
0.532072
21
-0.60499
0
LINE
8
BLACK
6
CONTINUOUS
10
0.532072
20
-0.60499
11
0.532056
21
-0.605129
0
LINE
8
BLACK
6
CONTINUOUS
10
0.532056
20
-0.605129
11
0.530181
21
-0.608878
0
LINE
8
BLACK
6
CONTINUOUS
10
0.530181
20
-0.608878
11
0.529655
21
-0.609587
0
LINE
8
BLACK
6
CONTINUOUS
10
0.529655
20
-0.609587
11
0.529628
21
-0.609645
0
LINE
8
BLACK
6
CONTINUOUS
10
0.529628
20
-0.609645
11
0.525879
21
-0.613395
0
LINE
8
BLACK
6
CONTINUOUS
10
0.525879
20
-0.613395
11
0.525039
21
-0.613983
0
LINE
8
BLACK
6
CONTINUOUS
10
0.525039
20
-0.613983
11
0.524863
21
-0.613999
0
LINE
8
BLACK
6
CONTINUOUS
10
0.524863
20
-0.613999
11
0.524724
21
-0.614108
0
LINE
8
BLACK
6
CONTINUOUS
10
0.524724
20
-0.614108
11
0.5191
21
-0.615983
0
LINE
8
BLACK
6
CONTINUOUS
10
0.5191
20
-0.615983
11
0.518227
21
-0.616113
0
LINE
8
BLACK
6
CONTINUOUS
10
0.518227
20
-0.616113
11
0.518166
21
-0.616135
0
LINE
8
BLACK
6
CONTINUOUS
10
0.518166
20
-0.616135
11
0.508793
21
-0.616135
0
LINE
8
BLACK
6
CONTINUOUS
10
0.508793
20
-0.616135
11
0.508409
21
-0.616067
0
LINE
8
BLACK
6
CONTINUOUS
10
0.508409
20
-0.616067
11
0.50828
21
-0.61609
0
LINE
8
BLACK
6
CONTINUOUS
10
0.50828
20
-0.61609
11
0.508166
21
-0.616024
0
LINE
8
BLACK
6
CONTINUOUS
10
0.508166
20
-0.616024
11
0.507783
21
-0.615957
0
LINE
8
BLACK
6
CONTINUOUS
10
0.507783
20
-0.615957
11
0.507195
21
-0.615463
0
LINE
8
BLACK
6
CONTINUOUS
10
0.507195
20
-0.615463
11
0.506531
21
-0.61508
0
LINE
8
BLACK
6
CONTINUOUS
10
0.506531
20
-0.61508
11
0.50644
21
-0.614829
0
LINE
8
BLACK
6
CONTINUOUS
10
0.50644
20
-0.614829
11
0.506235
21
-0.614658
0
LINE
8
BLACK
6
CONTINUOUS
10
0.506235
20
-0.614658
11
0.506102
21
-0.613903
0
LINE
8
BLACK
6
CONTINUOUS
10
0.506102
20
-0.613903
11
0.50584
21
-0.613182
0
LINE
8
BLACK
6
CONTINUOUS
10
0.50584
20
-0.613182
11
0.50584
21
-0.573812
0
LINE
8
BLACK
6
CONTINUOUS
10
0.50584
20
-0.573812
11
0.505907
21
-0.573428
0
LINE
8
BLACK
6
CONTINUOUS
10
0.505907
20
-0.573428
11
0.505885
21
-0.573299
0
LINE
8
BLACK
6
CONTINUOUS
10
0.505885
20
-0.573299
11
0.50595
21
-0.573185
0
LINE
8
BLACK
6
CONTINUOUS
10
0.50595
20
-0.573185
11
0.506018
21
-0.572802
0
LINE
8
BLACK
6
CONTINUOUS
10
0.506018
20
-0.572802
11
0.506511
21
-0.572214
0
LINE
8
BLACK
6
CONTINUOUS
10
0.506511
20
-0.572214
11
0.506895
21
-0.57155
0
LINE
8
BLACK
6
CONTINUOUS
10
0.506895
20
-0.57155
11
0.507145
21
-0.571459
0
LINE
8
BLACK
6
CONTINUOUS
10
0.507145
20
-0.571459
11
0.507316
21
-0.571255
0
LINE
8
BLACK
6
CONTINUOUS
10
0.507316
20
-0.571255
11
0.508072
21
-0.571121
0
LINE
8
BLACK
6
CONTINUOUS
10
0.508072
20
-0.571121
11
0.508793
21
-0.570859
0
LINE
8
BLACK
6
CONTINUOUS
10
0.508793
20
-0.570859
11
0.518166
21
-0.570859
0
LINE
8
BLACK
6
CONTINUOUS
10
0.518166
20
-0.570859
11
0.519036
21
-0.571012
0
LINE
8
BLACK
6
CONTINUOUS
10
0.511745
20
-0.610229
11
0.517687
21
-0.610229
0
LINE
8
BLACK
6
CONTINUOUS
10
0.517687
20
-0.610229
11
0.522196
21
-0.608726
0
LINE
8
BLACK
6
CONTINUOUS
10
0.522196
20
-0.608726
11
0.525114
21
-0.605808
0
LINE
8
BLACK
6
CONTINUOUS
10
0.525114
20
-0.605808
11
0.526629
21
-0.602777
0
LINE
8
BLACK
6
CONTINUOUS
10
0.526629
20
-0.602777
11
0.528337
21
-0.595945
0
LINE
8
BLACK
6
CONTINUOUS
10
0.528337
20
-0.595945
11
0.528337
21
-0.591048
0
LINE
8
BLACK
6
CONTINUOUS
10
0.528337
20
-0.591048
11
0.526629
21
-0.584216
0
LINE
8
BLACK
6
CONTINUOUS
10
0.526629
20
-0.584216
11
0.525114
21
-0.581185
0
LINE
8
BLACK
6
CONTINUOUS
10
0.525114
20
-0.581185
11
0.522196
21
-0.578267
0
LINE
8
BLACK
6
CONTINUOUS
10
0.522196
20
-0.578267
11
0.517687
21
-0.576765
0
LINE
8
BLACK
6
CONTINUOUS
10
0.517687
20
-0.576765
11
0.511745
21
-0.576765
0
LINE
8
BLACK
6
CONTINUOUS
10
0.511745
20
-0.576765
11
0.511745
21
-0.610229
0
LINE
8
BLACK
6
CONTINUOUS
10
0.58614
20
-0.571078
11
0.587064
21
-0.571215
0
LINE
8
BLACK
6
CONTINUOUS
10
0.587064
20
-0.571215
11
0.58712
21
-0.571279
0
LINE
8
BLACK
6
CONTINUOUS
10
0.58712
20
-0.571279
11
0.587204
21
-0.571296
0
LINE
8
BLACK
6
CONTINUOUS
10
0.587204
20
-0.571296
11
0.587784
21
-0.572028
0
LINE
8
BLACK
6
CONTINUOUS
10
0.587784
20
-0.572028
11
0.588404
21
-0.572726
0
LINE
8
BLACK
6
CONTINUOUS
10
0.588404
20
-0.572726
11
0.588406
21
-0.572811
0
LINE
8
BLACK
6
CONTINUOUS
10
0.588406
20
-0.572811
11
0.588459
21
-0.572878
0
LINE
8
BLACK
6
CONTINUOUS
10
0.588459
20
-0.572878
11
0.601583
21
-0.612248
0
LINE
8
BLACK
6
CONTINUOUS
10
0.601583
20
-0.612248
11
0.601733
21
-0.613262
0
LINE
8
BLACK
6
CONTINUOUS
10
0.601733
20
-0.613262
11
0.600991
21
-0.615141
0
LINE
8
BLACK
6
CONTINUOUS
10
0.600991
20
-0.615141
11
0.599214
21
-0.616103
0
LINE
8
BLACK
6
CONTINUOUS
10
0.599214
20
-0.616103
11
0.597236
21
-0.615698
0
LINE
8
BLACK
6
CONTINUOUS
10
0.597236
20
-0.615698
11
0.59598
21
-0.614116
0
LINE
8
BLACK
6
CONTINUOUS
10
0.59598
20
-0.614116
11
0.592904
21
-0.604886
0
LINE
8
BLACK
6
CONTINUOUS
10
0.592904
20
-0.604886
11
0.578412
21
-0.604886
0
LINE
8
BLACK
6
CONTINUOUS
10
0.578412
20
-0.604886
11
0.575336
21
-0.614116
0
LINE
8
BLACK
6
CONTINUOUS
10
0.575336
20
-0.614116
11
0.574848
21
-0.615017
0
LINE
8
BLACK
6
CONTINUOUS
10
0.574848
20
-0.615017
11
0.573127
21
-0.616075
0
LINE
8
BLACK
6
CONTINUOUS
10
0.573127
20
-0.616075
11
0.571129
21
-0.615778
0
LINE
8
BLACK
6
CONTINUOUS
10
0.571129
20
-0.615778
11
0.569789
21
-0.614267
0
LINE
8
BLACK
6
CONTINUOUS
10
0.569789
20
-0.614267
11
0.569733
21
-0.612248
0
LINE
8
BLACK
6
CONTINUOUS
10
0.569733
20
-0.612248
11
0.582857
21
-0.572878
0
LINE
8
BLACK
6
CONTINUOUS
10
0.582857
20
-0.572878
11
0.583345
21
-0.571976
0
LINE
8
BLACK
6
CONTINUOUS
10
0.583345
20
-0.571976
11
0.583418
21
-0.571932
0
LINE
8
BLACK
6
CONTINUOUS
10
0.583418
20
-0.571932
11
0.583449
21
-0.571853
0
LINE
8
BLACK
6
CONTINUOUS
10
0.583449
20
-0.571853
11
0.58427
21
-0.571408
0
LINE
8
BLACK
6
CONTINUOUS
10
0.58427
20
-0.571408
11
0.585066
21
-0.570919
0
LINE
8
BLACK
6
CONTINUOUS
10
0.585066
20
-0.570919
11
0.58515
21
-0.570931
0
LINE
8
BLACK
6
CONTINUOUS
10
0.58515
20
-0.570931
11
0.585225
21
-0.570891
0
LINE
8
BLACK
6
CONTINUOUS
10
0.585225
20
-0.570891
11
0.58614
21
-0.571078
0
LINE
8
BLACK
6
CONTINUOUS
10
0.580381
20
-0.59898
11
0.590935
21
-0.59898
0
LINE
8
BLACK
6
CONTINUOUS
10
0.590935
20
-0.59898
11
0.585658
21
-0.583149
0
LINE
8
BLACK
6
CONTINUOUS
10
0.585658
20
-0.583149
11
0.580381
21
-0.59898
0
LINE
8
BLACK
6
CONTINUOUS
10
0.361073
20
-0.571914
11
0.361764
21
-0.573812
0
LINE
8
BLACK
6
CONTINUOUS
10
0.361764
20
-0.573812
11
0.361764
21
-0.58918
0
LINE
8
BLACK
6
CONTINUOUS
10
0.361764
20
-0.58918
11
0.379221
21
-0.571724
0
LINE
8
BLACK
6
CONTINUOUS
10
0.379221
20
-0.571724
11
0.380061
21
-0.571136
0
LINE
8
BLACK
6
CONTINUOUS
10
0.380061
20
-0.571136
11
0.382073
21
-0.57096
0
LINE
8
BLACK
6
CONTINUOUS
10
0.382073
20
-0.57096
11
0.383727
21
-0.572118
0
LINE
8
BLACK
6
CONTINUOUS
10
0.383727
20
-0.572118
11
0.38425
21
-0.574069
0
LINE
8
BLACK
6
CONTINUOUS
10
0.38425
20
-0.574069
11
0.383396
21
-0.5759
0
LINE
8
BLACK
6
CONTINUOUS
10
0.383396
20
-0.5759
11
0.368334
21
-0.590962
0
LINE
8
BLACK
6
CONTINUOUS
10
0.368334
20
-0.590962
11
0.383671
21
-0.61141
0
LINE
8
BLACK
6
CONTINUOUS
10
0.383671
20
-0.61141
11
0.384134
21
-0.612325
0
LINE
8
BLACK
6
CONTINUOUS
10
0.384134
20
-0.612325
11
0.384024
21
-0.614342
0
LINE
8
BLACK
6
CONTINUOUS
10
0.384024
20
-0.614342
11
0.382643
21
-0.615816
0
LINE
8
BLACK
6
CONTINUOUS
10
0.382643
20
-0.615816
11
0.380638
21
-0.616057
0
LINE
8
BLACK
6
CONTINUOUS
10
0.380638
20
-0.616057
11
0.378946
21
-0.614954
0
LINE
8
BLACK
6
CONTINUOUS
10
0.378946
20
-0.614954
11
0.364116
21
-0.59518
0
LINE
8
BLACK
6
CONTINUOUS
10
0.364116
20
-0.59518
11
0.361764
21
-0.597532
0
LINE
8
BLACK
6
CONTINUOUS
10
0.361764
20
-0.597532
11
0.361764
21
-0.613182
0
LINE
8
BLACK
6
CONTINUOUS
10
0.361764
20
-0.613182
11
0.361586
21
-0.614192
0
LINE
8
BLACK
6
CONTINUOUS
10
0.361586
20
-0.614192
11
0.360288
21
-0.615739
0
LINE
8
BLACK
6
CONTINUOUS
10
0.360288
20
-0.615739
11
0.358299
21
-0.61609
0
LINE
8
BLACK
6
CONTINUOUS
10
0.358299
20
-0.61609
11
0.356549
21
-0.61508
0
LINE
8
BLACK
6
CONTINUOUS
10
0.356549
20
-0.61508
11
0.355859
21
-0.613182
0
LINE
8
BLACK
6
CONTINUOUS
10
0.355859
20
-0.613182
11
0.355859
21
-0.573812
0
LINE
8
BLACK
6
CONTINUOUS
10
0.355859
20
-0.573812
11
0.356037
21
-0.572802
0
LINE
8
BLACK
6
CONTINUOUS
10
0.356037
20
-0.572802
11
0.357335
21
-0.571255
0
LINE
8
BLACK
6
CONTINUOUS
10
0.357335
20
-0.571255
11
0.359324
21
-0.570904
0
LINE
8
BLACK
6
CONTINUOUS
10
0.359324
20
-0.570904
11
0.361073
21
-0.571914
0
LINE
8
BLACK
6
CONTINUOUS
10
0.492307
20
-0.571914
11
0.492998
21
-0.573812
0
LINE
8
BLACK
6
CONTINUOUS
10
0.492998
20
-0.573812
11
0.492998
21
-0.613182
0
LINE
8
BLACK
6
CONTINUOUS
10
0.492998
20
-0.613182
11
0.49282
21
-0.614192
0
LINE
8
BLACK
6
CONTINUOUS
10
0.49282
20
-0.614192
11
0.492644
21
-0.614401
0
LINE
8
BLACK
6
CONTINUOUS
10
0.492644
20
-0.614401
11
0.492596
21
-0.61467
0
LINE
8
BLACK
6
CONTINUOUS
10
0.492596
20
-0.61467
11
0.49201
21
-0.615156
0
LINE
8
BLACK
6
CONTINUOUS
10
0.49201
20
-0.615156
11
0.491521
21
-0.615739
0
LINE
8
BLACK
6
CONTINUOUS
10
0.491521
20
-0.615739
11
0.491252
21
-0.615786
0
LINE
8
BLACK
6
CONTINUOUS
10
0.491252
20
-0.615786
11
0.491042
21
-0.615961
0
LINE
8
BLACK
6
CONTINUOUS
10
0.491042
20
-0.615961
11
0.490282
21
-0.615958
0
LINE
8
BLACK
6
CONTINUOUS
10
0.490282
20
-0.615958
11
0.489532
21
-0.61609
0
LINE
8
BLACK
6
CONTINUOUS
10
0.489532
20
-0.61609
11
0.489296
21
-0.615953
0
LINE
8
BLACK
6
CONTINUOUS
10
0.489296
20
-0.615953
11
0.489023
21
-0.615952
0
LINE
8
BLACK
6
CONTINUOUS
10
0.489023
20
-0.615952
11
0.488442
21
-0.61546
0
LINE
8
BLACK
6
CONTINUOUS
10
0.488442
20
-0.61546
11
0.487783
21
-0.61508
0
LINE
8
BLACK
6
CONTINUOUS
10
0.487783
20
-0.61508
11
0.48769
21
-0.614823
0
LINE
8
BLACK
6
CONTINUOUS
10
0.48769
20
-0.614823
11
0.487481
21
-0.614647
0
LINE
8
BLACK
6
CONTINUOUS
10
0.487481
20
-0.614647
11
0.470501
21
-0.584931
0
LINE
8
BLACK
6
CONTINUOUS
10
0.470501
20
-0.584931
11
0.470501
21
-0.613182
0
LINE
8
BLACK
6
CONTINUOUS
10
0.470501
20
-0.613182
11
0.470322
21
-0.614192
0
LINE
8
BLACK
6
CONTINUOUS
10
0.470322
20
-0.614192
11
0.469024
21
-0.615739
0
LINE
8
BLACK
6
CONTINUOUS
10
0.469024
20
-0.615739
11
0.467035
21
-0.61609
0
LINE
8
BLACK
6
CONTINUOUS
10
0.467035
20
-0.61609
11
0.465286
21
-0.61508
0
LINE
8
BLACK
6
CONTINUOUS
10
0.465286
20
-0.61508
11
0.464595
21
-0.613182
0
LINE
8
BLACK
6
CONTINUOUS
10
0.464595
20
-0.613182
11
0.464595
21
-0.573812
0
LINE
8
BLACK
6
CONTINUOUS
10
0.464595
20
-0.573812
11
0.464773
21
-0.572802
0
LINE
8
BLACK
6
CONTINUOUS
10
0.464773
20
-0.572802
11
0.464949
21
-0.572593
0
LINE
8
BLACK
6
CONTINUOUS
10
0.464949
20
-0.572593
11
0.464997
21
-0.572324
0
LINE
8
BLACK
6
CONTINUOUS
10
0.464997
20
-0.572324
11
0.465582
21
-0.571838
0
LINE
8
BLACK
6
CONTINUOUS
10
0.465582
20
-0.571838
11
0.466071
21
-0.571255
0
LINE
8
BLACK
6
CONTINUOUS
10
0.466071
20
-0.571255
11
0.46634
21
-0.571207
0
LINE
8
BLACK
6
CONTINUOUS
10
0.46634
20
-0.571207
11
0.46655
21
-0.571033
0
LINE
8
BLACK
6
CONTINUOUS
10
0.46655
20
-0.571033
11
0.467311
21
-0.571036
0
LINE
8
BLACK
6
CONTINUOUS
10
0.467311
20
-0.571036
11
0.468061
21
-0.570904
0
LINE
8
BLACK
6
CONTINUOUS
10
0.468061
20
-0.570904
11
0.468297
21
-0.57104
0
LINE
8
BLACK
6
CONTINUOUS
10
0.468297
20
-0.57104
11
0.46857
21
-0.571042
0
LINE
8
BLACK
6
CONTINUOUS
10
0.46857
20
-0.571042
11
0.469151
21
-0.571533
0
LINE
8
BLACK
6
CONTINUOUS
10
0.469151
20
-0.571533
11
0.46981
21
-0.571914
0
LINE
8
BLACK
6
CONTINUOUS
10
0.46981
20
-0.571914
11
0.469903
21
-0.57217
0
LINE
8
BLACK
6
CONTINUOUS
10
0.469903
20
-0.57217
11
0.470111
21
-0.572347
0
LINE
8
BLACK
6
CONTINUOUS
10
0.470111
20
-0.572347
11
0.487092
21
-0.602063
0
LINE
8
BLACK
6
CONTINUOUS
10
0.487092
20
-0.602063
11
0.487092
21
-0.573812
0
LINE
8
BLACK
6
CONTINUOUS
10
0.487092
20
-0.573812
11
0.48727
21
-0.572802
0
LINE
8
BLACK
6
CONTINUOUS
10
0.48727
20
-0.572802
11
0.488569
21
-0.571255
0
LINE
8
BLACK
6
CONTINUOUS
10
0.488569
20
-0.571255
11
0.490558
21
-0.570904
0
LINE
8
BLACK
6
CONTINUOUS
10
0.490558
20
-0.570904
11
0.492307
21
-0.571914
0
LINE
8
BLACK
6
CONTINUOUS
10
0.44671
20
-0.370928
11
0.447402
21
-0.372598
0
LINE
8
BLACK
6
CONTINUOUS
10
0.447402
20
-0.372598
11
0.44671
21
-0.374269
0
LINE
8
BLACK
6
CONTINUOUS
10
0.44671
20
-0.374269
11
0.445039
21
-0.374961
0
LINE
8
BLACK
6
CONTINUOUS
10
0.445039
20
-0.374961
11
0.324961
21
-0.374961
0
LINE
8
BLACK
6
CONTINUOUS
10
0.324961
20
-0.374961
11
0.324961
21
-0.474961
0
LINE
8
BLACK
6
CONTINUOUS
10
0.324961
20
-0.474961
11
0.345039
21
-0.474961
0
LINE
8
BLACK
6
CONTINUOUS
10
0.345039
20
-0.474961
11
0.34671
21
-0.475653
0
LINE
8
BLACK
6
CONTINUOUS
10
0.34671
20
-0.475653
11
0.347402
21
-0.477323
0
LINE
8
BLACK
6
CONTINUOUS
10
0.347402
20
-0.477323
11
0.347402
21
-0.537165
0
LINE
8
BLACK
6
CONTINUOUS
10
0.347402
20
-0.537165
11
0.34671
21
-0.538836
0
LINE
8
BLACK
6
CONTINUOUS
10
0.34671
20
-0.538836
11
0.345039
21
-0.539528
0
LINE
8
BLACK
6
CONTINUOUS
10
0.345039
20
-0.539528
11
0.343369
21
-0.538836
0
LINE
8
BLACK
6
CONTINUOUS
10
0.343369
20
-0.538836
11
0.342677
21
-0.537165
0
LINE
8
BLACK
6
CONTINUOUS
10
0.342677
20
-0.537165
11
0.342677
21
-0.479685
0
LINE
8
BLACK
6
CONTINUOUS
10
0.342677
20
-0.479685
11
0.322598
21
-0.479685
0
LINE
8
BLACK
6
CONTINUOUS
10
0.322598
20
-0.479685
11
0.320928
21
-0.478993
0
LINE
8
BLACK
6
CONTINUOUS
10
0.320928
20
-0.478993
11
0.320236
21
-0.477323
0
LINE
8
BLACK
6
CONTINUOUS
10
0.320236
20
-0.477323
11
0.320236
21
-0.477323
0
LINE
8
BLACK
6
CONTINUOUS
10
0.320236
20
-0.477323
11
0.320236
21
-0.372598
0
LINE
8
BLACK
6
CONTINUOUS
10
0.320236
20
-0.372598
11
0.320928
21
-0.370928
0
LINE
8
BLACK
6
CONTINUOUS
10
0.320928
20
-0.370928
11
0.322598
21
-0.370236
0
LINE
8
BLACK
6
CONTINUOUS
10
0.322598
20
-0.370236
11
0.445039
21
-0.370236
0
LINE
8
BLACK
6
CONTINUOUS
10
0.445039
20
-0.370236
11
0.44671
21
-0.370928
0
LINE
8
BLACK
6
CONTINUOUS
10
0.54671
20
-0.475653
11
0.547402
21
-0.477323
0
LINE
8
BLACK
6
CONTINUOUS
10
0.547402
20
-0.477323
11
0.54671
21
-0.478993
0
LINE
8
BLACK
6
CONTINUOUS
10
0.54671
20
-0.478993
11
0.545039
21
-0.479685
0
LINE
8
BLACK
6
CONTINUOUS
10
0.545039
20
-0.479685
11
0.404882
21
-0.479685
0
LINE
8
BLACK
6
CONTINUOUS
10
0.404882
20
-0.479685
11
0.403212
21
-0.478993
0
LINE
8
BLACK
6
CONTINUOUS
10
0.403212
20
-0.478993
11
0.40252
21
-0.477323
0
LINE
8
BLACK
6
CONTINUOUS
10
0.40252
20
-0.477323
11
0.403212
21
-0.475653
0
LINE
8
BLACK
6
CONTINUOUS
10
0.403212
20
-0.475653
11
0.404882
21
-0.474961
0
LINE
8
BLACK
6
CONTINUOUS
10
0.404882
20
-0.474961
11
0.545039
21
-0.474961
0
LINE
8
BLACK
6
CONTINUOUS
10
0.545039
20
-0.474961
11
0.54671
21
-0.475653
0
LINE
8
BLACK
6
CONTINUOUS
10
0.627323
20
-0.370236
11
0.628993
21
-0.370928
0
LINE
8
BLACK
6
CONTINUOUS
10
0.628993
20
-0.370928
11
0.629685
21
-0.372598
0
LINE
8
BLACK
6
CONTINUOUS
10
0.629685
20
-0.372598
11
0.629685
21
-0.477323
0
LINE
8
BLACK
6
CONTINUOUS
10
0.629685
20
-0.477323
11
0.628993
21
-0.478993
0
LINE
8
BLACK
6
CONTINUOUS
10
0.628993
20
-0.478993
11
0.627323
21
-0.479685
0
LINE
8
BLACK
6
CONTINUOUS
10
0.627323
20
-0.479685
11
0.625653
21
-0.478993
0
LINE
8
BLACK
6
CONTINUOUS
10
0.625653
20
-0.478993
11
0.624961
21
-0.477323
0
LINE
8
BLACK
6
CONTINUOUS
10
0.624961
20
-0.477323
11
0.624961
21
-0.374961
0
LINE
8
BLACK
6
CONTINUOUS
10
0.624961
20
-0.374961
11
0.604882
21
-0.374961
0
LINE
8
BLACK
6
CONTINUOUS
10
0.604882
20
-0.374961
11
0.504882
21
-0.374961
0
LINE
8
BLACK
6
CONTINUOUS
10
0.504882
20
-0.374961
11
0.503212
21
-0.374269
0
LINE
8
BLACK
6
CONTINUOUS
10
0.503212
20
-0.374269
11
0.50252
21
-0.372598
0
LINE
8
BLACK
6
CONTINUOUS
10
0.50252
20
-0.372598
11
0.503212
21
-0.370928
0
LINE
8
BLACK
6
CONTINUOUS
10
0.503212
20
-0.370928
11
0.504882
21
-0.370236
0
LINE
8
BLACK
6
CONTINUOUS
10
0.504882
20
-0.370236
11
0.627323
21
-0.370236
0
LINE
8
BLACK
6
CONTINUOUS
10
0.290755
20
-0.435284
11
0.29082
21
-0.435283
0
LINE
8
BLACK
6
CONTINUOUS
10
0.29082
20
-0.435283
11
0.296444
21
-0.437158
0
LINE
8
BLACK
6
CONTINUOUS
10
0.296444
20
-0.437158
11
0.297346
21
-0.437646
0
LINE
8
BLACK
6
CONTINUOUS
10
0.297346
20
-0.437646
11
0.297438
21
-0.437796
0
LINE
8
BLACK
6
CONTINUOUS
10
0.297438
20
-0.437796
11
0.297598
21
-0.437871
0
LINE
8
BLACK
6
CONTINUOUS
10
0.297598
20
-0.437871
11
0.301348
21
-0.44162
0
LINE
8
BLACK
6
CONTINUOUS
10
0.301348
20
-0.44162
11
0.301936
21
-0.44246
0
LINE
8
BLACK
6
CONTINUOUS
10
0.301936
20
-0.44246
11
0.301951
21
-0.442636
0
LINE
8
BLACK
6
CONTINUOUS
10
0.301951
20
-0.442636
11
0.302061
21
-0.442775
0
LINE
8
BLACK
6
CONTINUOUS
10
0.302061
20
-0.442775
11
0.303936
21
-0.448399
0
LINE
8
BLACK
6
CONTINUOUS
10
0.303936
20
-0.448399
11
0.304065
21
-0.449272
0
LINE
8
BLACK
6
CONTINUOUS
10
0.304065
20
-0.449272
11
0.304087
21
-0.449333
0
LINE
8
BLACK
6
CONTINUOUS
10
0.304087
20
-0.449333
11
0.304087
21
-0.453082
0
LINE
8
BLACK
6
CONTINUOUS
10
0.304087
20
-0.453082
11
0.303909
21
-0.454092
0
LINE
8
BLACK
6
CONTINUOUS
10
0.303909
20
-0.454092
11
0.302611
21
-0.455639
0
LINE
8
BLACK
6
CONTINUOUS
10
0.302611
20
-0.455639
11
0.300622
21
-0.45599
0
LINE
8
BLACK
6
CONTINUOUS
10
0.300622
20
-0.45599
11
0.298873
21
-0.45498
0
LINE
8
BLACK
6
CONTINUOUS
10
0.298873
20
-0.45498
11
0.298182
21
-0.453082
0
LINE
8
BLACK
6
CONTINUOUS
10
0.298182
20
-0.453082
11
0.298182
21
-0.449812
0
LINE
8
BLACK
6
CONTINUOUS
10
0.298182
20
-0.449812
11
0.296679
21
-0.445303
0
LINE
8
BLACK
6
CONTINUOUS
10
0.296679
20
-0.445303
11
0.293915
21
-0.44254
0
LINE
8
BLACK
6
CONTINUOUS
10
0.293915
20
-0.44254
11
0.289407
21
-0.441037
0
LINE
8
BLACK
6
CONTINUOUS
10
0.289407
20
-0.441037
11
0.261765
21
-0.441037
0
LINE
8
BLACK
6
CONTINUOUS
10
0.261765
20
-0.441037
11
0.260755
21
-0.440859
0
LINE
8
BLACK
6
CONTINUOUS
10
0.260755
20
-0.440859
11
0.259207
21
-0.43956
0
LINE
8
BLACK
6
CONTINUOUS
10
0.259207
20
-0.43956
11
0.258857
21
-0.437571
0
LINE
8
BLACK
6
CONTINUOUS
10
0.258857
20
-0.437571
11
0.259867
21
-0.435822
0
LINE
8
BLACK
6
CONTINUOUS
10
0.259867
20
-0.435822
11
0.261765
21
-0.435131
0
LINE
8
BLACK
6
CONTINUOUS
10
0.261765
20
-0.435131
11
0.289886
21
-0.435131
0
LINE
8
BLACK
6
CONTINUOUS
10
0.289886
20
-0.435131
11
0.290755
21
-0.435284
0
LINE
8
BLACK
6
CONTINUOUS
10
0.303397
20
-0.396816
11
0.304087
21
-0.398714
0
LINE
8
BLACK
6
CONTINUOUS
10
0.304087
20
-0.398714
11
0.304087
21
-0.421211
0
LINE
8
BLACK
6
CONTINUOUS
10
0.304087
20
-0.421211
11
0.303909
21
-0.422221
0
LINE
8
BLACK
6
CONTINUOUS
10
0.303909
20
-0.422221
11
0.302611
21
-0.423768
0
LINE
8
BLACK
6
CONTINUOUS
10
0.302611
20
-0.423768
11
0.300622
21
-0.424119
0
LINE
8
BLACK
6
CONTINUOUS
10
0.300622
20
-0.424119
11
0.298873
21
-0.423109
0
LINE
8
BLACK
6
CONTINUOUS
10
0.298873
20
-0.423109
11
0.298182
21
-0.421211
0
LINE
8
BLACK
6
CONTINUOUS
10
0.298182
20
-0.421211
11
0.298182
21
-0.412915
0
LINE
8
BLACK
6
CONTINUOUS
10
0.298182
20
-0.412915
11
0.270768
21
-0.412915
0
LINE
8
BLACK
6
CONTINUOUS
10
0.270768
20
-0.412915
11
0.273226
21
-0.415374
0
LINE
8
BLACK
6
CONTINUOUS
10
0.273226
20
-0.415374
11
0.273733
21
-0.416097
0
LINE
8
BLACK
6
CONTINUOUS
10
0.273733
20
-0.416097
11
0.273779
21
-0.416141
0
LINE
8
BLACK
6
CONTINUOUS
10
0.273779
20
-0.416141
11
0.275654
21
-0.419891
0
LINE
8
BLACK
6
CONTINUOUS
10
0.275654
20
-0.419891
11
0.275946
21
-0.420873
0
LINE
8
BLACK
6
CONTINUOUS
10
0.275946
20
-0.420873
11
0.275477
21
-0.422838
0
LINE
8
BLACK
6
CONTINUOUS
10
0.275477
20
-0.422838
11
0.273855
21
-0.424041
0
LINE
8
BLACK
6
CONTINUOUS
10
0.273855
20
-0.424041
11
0.271839
21
-0.42392
0
LINE
8
BLACK
6
CONTINUOUS
10
0.271839
20
-0.42392
11
0.270372
21
-0.422532
0
LINE
8
BLACK
6
CONTINUOUS
10
0.270372
20
-0.422532
11
0.268712
21
-0.419211
0
LINE
8
BLACK
6
CONTINUOUS
10
0.268712
20
-0.419211
11
0.265508
21
-0.416007
0
LINE
8
BLACK
6
CONTINUOUS
10
0.265508
20
-0.416007
11
0.260127
21
-0.412419
0
LINE
8
BLACK
6
CONTINUOUS
10
0.260127
20
-0.412419
11
0.259385
21
-0.411711
0
LINE
8
BLACK
6
CONTINUOUS
10
0.259385
20
-0.411711
11
0.259337
21
-0.411548
0
LINE
8
BLACK
6
CONTINUOUS
10
0.259337
20
-0.411548
11
0.259207
21
-0.411439
0
LINE
8
BLACK
6
CONTINUOUS
10
0.259207
20
-0.411439
11
0.259059
21
-0.410595
0
LINE
8
BLACK
6
CONTINUOUS
10
0.259059
20
-0.410595
11
0.258818
21
-0.409772
0
LINE
8
BLACK
6
CONTINUOUS
10
0.258818
20
-0.409772
11
0.258886
21
-0.409617
0
LINE
8
BLACK
6
CONTINUOUS
10
0.258886
20
-0.409617
11
0.258857
21
-0.40945
0
LINE
8
BLACK
6
CONTINUOUS
10
0.258857
20
-0.40945
11
0.259285
21
-0.408708
0
LINE
8
BLACK
6
CONTINUOUS
10
0.259285
20
-0.408708
11
0.259629
21
-0.407923
0
LINE
8
BLACK
6
CONTINUOUS
10
0.259629
20
-0.407923
11
0.259782
21
-0.407848
0
LINE
8
BLACK
6
CONTINUOUS
10
0.259782
20
-0.407848
11
0.259867
21
-0.407701
0
LINE
8
BLACK
6
CONTINUOUS
10
0.259867
20
-0.407701
11
0.260672
21
-0.407407
0
LINE
8
BLACK
6
CONTINUOUS
10
0.260672
20
-0.407407
11
0.26144
21
-0.407028
0
LINE
8
BLACK
6
CONTINUOUS
10
0.26144
20
-0.407028
11
0.261605
21
-0.407068
0
LINE
8
BLACK
6
CONTINUOUS
10
0.261605
20
-0.407068
11
0.261765
21
-0.40701
0
LINE
8
BLACK
6
CONTINUOUS
10
0.261765
20
-0.40701
11
0.298182
21
-0.40701
0
LINE
8
BLACK
6
CONTINUOUS
10
0.298182
20
-0.40701
11
0.298182
21
-0.398714
0
LINE
8
BLACK
6
CONTINUOUS
10
0.298182
20
-0.398714
11
0.29836
21
-0.397704
0
LINE
8
BLACK
6
CONTINUOUS
10
0.29836
20
-0.397704
11
0.299658
21
-0.396157
0
LINE
8
BLACK
6
CONTINUOUS
10
0.299658
20
-0.396157
11
0.301647
21
-0.395806
0
LINE
8
BLACK
6
CONTINUOUS
10
0.301647
20
-0.395806
11
0.303397
21
-0.396816
0
LINE
8
BLACK
6
CONTINUOUS
10
0.690737
20
0.108277
11
0.692067
21
0.108004
0
LINE
8
BLACK
6
CONTINUOUS
10
0.692067
20
0.108004
11
0.698442
21
0.104817
0
LINE
8
BLACK
6
CONTINUOUS
10
0.698442
20
0.104817
11
0.699153
21
0.104186
0
LINE
8
BLACK
6
CONTINUOUS
10
0.699153
20
0.104186
11
0.699976
21
0.103711
0
LINE
8
BLACK
6
CONTINUOUS
10
0.699976
20
0.103711
11
0.703163
21
0.100524
0
LINE
8
BLACK
6
CONTINUOUS
10
0.703163
20
0.100524
11
0.703639
21
0.0997006
0
LINE
8
BLACK
6
CONTINUOUS
10
0.703639
20
0.0997006
11
0.70427
21
0.0989891
0
LINE
8
BLACK
6
CONTINUOUS
10
0.70427
20
0.0989891
11
0.707457
21
0.092615
0
LINE
8
BLACK
6
CONTINUOUS
10
0.707457
20
0.092615
11
0.707729
21
0.091285
0
LINE
8
BLACK
6
CONTINUOUS
10
0.707729
20
0.091285
11
0.70808
21
0.0899739
0
LINE
8
BLACK
6
CONTINUOUS
10
0.70808
20
0.0899739
11
0.70808
21
0.0804126
0
LINE
8
BLACK
6
CONTINUOUS
10
0.70808
20
0.0804126
11
0.707729
21
0.0791015
0
LINE
8
BLACK
6
CONTINUOUS
10
0.707729
20
0.0791015
11
0.707457
21
0.0777716
0
LINE
8
BLACK
6
CONTINUOUS
10
0.707457
20
0.0777716
11
0.70427
21
0.0713974
0
LINE
8
BLACK
6
CONTINUOUS
10
0.70427
20
0.0713974
11
0.703639
21
0.070686
0
LINE
8
BLACK
6
CONTINUOUS
10
0.703639
20
0.070686
11
0.703163
21
0.0698626
0
LINE
8
BLACK
6
CONTINUOUS
10
0.703163
20
0.0698626
11
0.699976
21
0.0666755
0
LINE
8
BLACK
6
CONTINUOUS
10
0.699976
20
0.0666755
11
0.699153
21
0.0662001
0
LINE
8
BLACK
6
CONTINUOUS
10
0.699153
20
0.0662001
11
0.698442
21
0.0655693
0
LINE
8
BLACK
6
CONTINUOUS
10
0.698442
20
0.0655693
11
0.692067
21
0.0623822
0
LINE
8
BLACK
6
CONTINUOUS
10
0.692067
20
0.0623822
11
0.690737
21
0.06211
0
LINE
8
BLACK
6
CONTINUOUS
10
0.690737
20
0.06211
11
0.689426
21
0.0617587
0
LINE
8
BLACK
6
CONTINUOUS
10
0.689426
20
0.0617587
11
0.669835
21
0.0617587
0
LINE
8
BLACK
6
CONTINUOUS
10
0.669835
20
0.0617587
11
0.669835
21
0.0357932
0
LINE
8
BLACK
6
CONTINUOUS
10
0.669835
20
0.0357932
11
0.669044
21
0.0328404
0
LINE
8
BLACK
6
CONTINUOUS
10
0.669044
20
0.0328404
11
0.666882
21
0.0306789
0
LINE
8
BLACK
6
CONTINUOUS
10
0.666882
20
0.0306789
11
0.663929
21
0.0298877
0
LINE
8
BLACK
6
CONTINUOUS
10
0.663929
20
0.0298877
11
0.660977
21
0.0306789
0
LINE
8
BLACK
6
CONTINUOUS
10
0.660977
20
0.0306789
11
0.658815
21
0.0328404
0
LINE
8
BLACK
6
CONTINUOUS
10
0.658815
20
0.0328404
11
0.658024
21
0.0357932
0
LINE
8
BLACK
6
CONTINUOUS
10
0.658024
20
0.0357932
11
0.658024
21
0.102722
0
LINE
8
BLACK
6
CONTINUOUS
10
0.658024
20
0.102722
11
0.658815
21
0.105675
0
LINE
8
BLACK
6
CONTINUOUS
10
0.658815
20
0.105675
11
0.660977
21
0.107837
0
LINE
8
BLACK
6
CONTINUOUS
10
0.660977
20
0.107837
11
0.663929
21
0.108628
0
LINE
8
BLACK
6
CONTINUOUS
10
0.663929
20
0.108628
11
0.689426
21
0.108628
0
LINE
8
BLACK
6
CONTINUOUS
10
0.689426
20
0.108628
11
0.690737
21
0.108277
0
LINE
8
BLACK
6
CONTINUOUS
10
0.669835
20
0.0735697
11
0.688032
21
0.0735697
0
LINE
8
BLACK
6
CONTINUOUS
10
0.688032
20
0.0735697
11
0.692302
21
0.0757048
0
LINE
8
BLACK
6
CONTINUOUS
10
0.692302
20
0.0757048
11
0.694134
21
0.0775366
0
LINE
8
BLACK
6
CONTINUOUS
10
0.694134
20
0.0775366
11
0.696269
21
0.0818067
0
LINE
8
BLACK
6
CONTINUOUS
10
0.696269
20
0.0818067
11
0.696269
21
0.0885798
0
LINE
8
BLACK
6
CONTINUOUS
10
0.696269
20
0.0885798
11
0.694134
21
0.09285
0
LINE
8
BLACK
6
CONTINUOUS
10
0.694134
20
0.09285
11
0.692302
21
0.0946818
0
LINE
8
BLACK
6
CONTINUOUS
10
0.692302
20
0.0946818
11
0.688032
21
0.0968168
0
LINE
8
BLACK
6
CONTINUOUS
10
0.688032
20
0.0968168
11
0.669835
21
0.0968168
0
LINE
8
BLACK
6
CONTINUOUS
10
0.669835
20
0.0968168
11
0.669835
21
0.0735697
0
LINE
8
BLACK
6
CONTINUOUS
10
0.733811
20
0.107837
11
0.735973
21
0.105675
0
LINE
8
BLACK
6
CONTINUOUS
10
0.735973
20
0.105675
11
0.736764
21
0.102722
0
LINE
8
BLACK
6
CONTINUOUS
10
0.736764
20
0.102722
11
0.736764
21
0.0357932
0
LINE
8
BLACK
6
CONTINUOUS
10
0.736764
20
0.0357932
11
0.735973
21
0.0328404
0
LINE
8
BLACK
6
CONTINUOUS
10
0.735973
20
0.0328404
11
0.733811
21
0.0306789
0
LINE
8
BLACK
6
CONTINUOUS
10
0.733811
20
0.0306789
11
0.730859
21
0.0298877
0
LINE
8
BLACK
6
CONTINUOUS
10
0.730859
20
0.0298877
11
0.727906
21
0.0306789
0
LINE
8
BLACK
6
CONTINUOUS
10
0.727906
20
0.0306789
11
0.725744
21
0.0328404
0
LINE
8
BLACK
6
CONTINUOUS
10
0.725744
20
0.0328404
11
0.724953
21
0.0357932
0
LINE
8
BLACK
6
CONTINUOUS
10
0.724953
20
0.0357932
11
0.724953
21
0.102722
0
LINE
8
BLACK
6
CONTINUOUS
10
0.724953
20
0.102722
11
0.725744
21
0.105675
0
LINE
8
BLACK
6
CONTINUOUS
10
0.725744
20
0.105675
11
0.727906
21
0.107837
0
LINE
8
BLACK
6
CONTINUOUS
10
0.727906
20
0.107837
11
0.730859
21
0.108628
0
LINE
8
BLACK
6
CONTINUOUS
10
0.730859
20
0.108628
11
0.733811
21
0.107837
0
LINE
8
BLACK
6
CONTINUOUS
10
0.803928
20
0.107837
11
0.806089
21
0.105675
0
LINE
8
BLACK
6
CONTINUOUS
10
0.806089
20
0.105675
11
0.80688
21
0.102722
0
LINE
8
BLACK
6
CONTINUOUS
10
0.80688
20
0.102722
11
0.80688
21
0.0357932
0
LINE
8
BLACK
6
CONTINUOUS
10
0.80688
20
0.0357932
11
0.806877
21
0.0357801
0
LINE
8
BLACK
6
CONTINUOUS
10
0.806877
20
0.0357801
11
0.80688
21
0.0357669
0
LINE
8
BLACK
6
CONTINUOUS
10
0.80688
20
0.0357669
11
0.806481
21
0.0343011
0
LINE
8
BLACK
6
CONTINUOUS
10
0.806481
20
0.0343011
11
0.806089
21
0.0328404
0
LINE
8
BLACK
6
CONTINUOUS
10
0.806089
20
0.0328404
11
0.80608
21
0.0328309
0
LINE
8
BLACK
6
CONTINUOUS
10
0.80608
20
0.0328309
11
0.806076
21
0.0328177
0
LINE
8
BLACK
6
CONTINUOUS
10
0.806076
20
0.0328177
11
0.804999
21
0.0317506
0
LINE
8
BLACK
6
CONTINUOUS
10
0.804999
20
0.0317506
11
0.803928
21
0.0306789
0
LINE
8
BLACK
6
CONTINUOUS
10
0.803928
20
0.0306789
11
0.803914
21
0.0306754
0
LINE
8
BLACK
6
CONTINUOUS
10
0.803914
20
0.0306754
11
0.803905
21
0.0306658
0
LINE
8
BLACK
6
CONTINUOUS
10
0.803905
20
0.0306658
11
0.80244
21
0.0302802
0
LINE
8
BLACK
6
CONTINUOUS
10
0.80244
20
0.0302802
11
0.800975
21
0.0298877
0
LINE
8
BLACK
6
CONTINUOUS
10
0.800975
20
0.0298877
11
0.800962
21
0.0298912
0
LINE
8
BLACK
6
CONTINUOUS
10
0.800962
20
0.0298912
11
0.800949
21
0.0298877
0
LINE
8
BLACK
6
CONTINUOUS
10
0.800949
20
0.0298877
11
0.799483
21
0.0302875
0
LINE
8
BLACK
6
CONTINUOUS
10
0.799483
20
0.0302875
11
0.798022
21
0.0306789
0
LINE
8
BLACK
6
CONTINUOUS
10
0.798022
20
0.0306789
11
0.798013
21
0.0306885
0
LINE
8
BLACK
6
CONTINUOUS
10
0.798013
20
0.0306885
11
0.797999
21
0.030692
0
LINE
8
BLACK
6
CONTINUOUS
10
0.797999
20
0.030692
11
0.79693
21
0.031771
0
LINE
8
BLACK
6
CONTINUOUS
10
0.79693
20
0.031771
11
0.795861
21
0.0328404
0
LINE
8
BLACK
6
CONTINUOUS
10
0.795861
20
0.0328404
11
0.795857
21
0.0328536
0
LINE
8
BLACK
6
CONTINUOUS
10
0.795857
20
0.0328536
11
0.795847
21
0.0328632
0
LINE
8
BLACK
6
CONTINUOUS
10
0.795847
20
0.0328632
11
0.768635
21
0.0804848
0
LINE
8
BLACK
6
CONTINUOUS
10
0.768635
20
0.0804848
11
0.768635
21
0.0357932
0
LINE
8
BLACK
6
CONTINUOUS
10
0.768635
20
0.0357932
11
0.767844
21
0.0328404
0
LINE
8
BLACK
6
CONTINUOUS
10
0.767844
20
0.0328404
11
0.765682
21
0.0306789
0
LINE
8
BLACK
6
CONTINUOUS
10
0.765682
20
0.0306789
11
0.76273
21
0.0298877
0
LINE
8
BLACK
6
CONTINUOUS
10
0.76273
20
0.0298877
11
0.759777
21
0.0306789
0
LINE
8
BLACK
6
CONTINUOUS
10
0.759777
20
0.0306789
11
0.757615
21
0.0328404
0
LINE
8
BLACK
6
CONTINUOUS
10
0.757615
20
0.0328404
11
0.756824
21
0.0357932
0
LINE
8
BLACK
6
CONTINUOUS
10
0.756824
20
0.0357932
11
0.756824
21
0.102722
0
LINE
8
BLACK
6
CONTINUOUS
10
0.756824
20
0.102722
11
0.756828
21
0.102735
0
LINE
8
BLACK
6
CONTINUOUS
10
0.756828
20
0.102735
11
0.756824
21
0.102749
0
LINE
8
BLACK
6
CONTINUOUS
10
0.756824
20
0.102749
11
0.757224
21
0.104214
0
LINE
8
BLACK
6
CONTINUOUS
10
0.757224
20
0.104214
11
0.757615
21
0.105675
0
LINE
8
BLACK
6
CONTINUOUS
10
0.757615
20
0.105675
11
0.757625
21
0.105685
0
LINE
8
BLACK
6
CONTINUOUS
10
0.757625
20
0.105685
11
0.757629
21
0.105698
0
LINE
8
BLACK
6
CONTINUOUS
10
0.757629
20
0.105698
11
0.758705
21
0.106765
0
LINE
8
BLACK
6
CONTINUOUS
10
0.758705
20
0.106765
11
0.759777
21
0.107837
0
LINE
8
BLACK
6
CONTINUOUS
10
0.759777
20
0.107837
11
0.75979
21
0.10784
0
LINE
8
BLACK
6
CONTINUOUS
10
0.75979
20
0.10784
11
0.7598
21
0.10785
0
LINE
8
BLACK
6
CONTINUOUS
10
0.7598
20
0.10785
11
0.761265
21
0.108235
0
LINE
8
BLACK
6
CONTINUOUS
10
0.761265
20
0.108235
11
0.76273
21
0.108628
0
LINE
8
BLACK
6
CONTINUOUS
10
0.76273
20
0.108628
11
0.762743
21
0.108624
0
LINE
8
BLACK
6
CONTINUOUS
10
0.762743
20
0.108624
11
0.762756
21
0.108628
0
LINE
8
BLACK
6
CONTINUOUS
10
0.762756
20
0.108628
11
0.764222
21
0.108228
0
LINE
8
BLACK
6
CONTINUOUS
10
0.764222
20
0.108228
11
0.765682
21
0.107837
0
LINE
8
BLACK
6
CONTINUOUS
10
0.765682
20
0.107837
11
0.765692
21
0.107827
0
LINE
8
BLACK
6
CONTINUOUS
10
0.765692
20
0.107827
11
0.765705
21
0.107823
0
LINE
8
BLACK
6
CONTINUOUS
10
0.765705
20
0.107823
11
0.766772
21
0.106747
0
LINE
8
BLACK
6
CONTINUOUS
10
0.766772
20
0.106747
11
0.767844
21
0.105675
0
LINE
8
BLACK
6
CONTINUOUS
10
0.767844
20
0.105675
11
0.767847
21
0.105662
0
LINE
8
BLACK
6
CONTINUOUS
10
0.767847
20
0.105662
11
0.767857
21
0.105652
0
LINE
8
BLACK
6
CONTINUOUS
10
0.767857
20
0.105652
11
0.795069
21
0.0580307
0
LINE
8
BLACK
6
CONTINUOUS
10
0.795069
20
0.0580307
11
0.795069
21
0.102722
0
LINE
8
BLACK
6
CONTINUOUS
10
0.795069
20
0.102722
11
0.795861
21
0.105675
0
LINE
8
BLACK
6
CONTINUOUS
10
0.795861
20
0.105675
11
0.798022
21
0.107837
0
LINE
8
BLACK
6
CONTINUOUS
10
0.798022
20
0.107837
11
0.800975
21
0.108628
0
LINE
8
BLACK
6
CONTINUOUS
10
0.800975
20
0.108628
11
0.803928
21
0.107837
0
LINE
8
BLACK
6
CONTINUOUS
10
0.874044
20
0.107837
11
0.876205
21
0.105675
0
LINE
8
BLACK
6
CONTINUOUS
10
0.876205
20
0.105675
11
0.876997
21
0.102722
0
LINE
8
BLACK
6
CONTINUOUS
10
0.876997
20
0.102722
11
0.876997
21
0.0357932
0
LINE
8
BLACK
6
CONTINUOUS
10
0.876997
20
0.0357932
11
0.876205
21
0.0328404
0
LINE
8
BLACK
6
CONTINUOUS
10
0.876205
20
0.0328404
11
0.874044
21
0.0306789
0
LINE
8
BLACK
6
CONTINUOUS
10
0.874044
20
0.0306789
11
0.871091
21
0.0298877
0
LINE
8
BLACK
6
CONTINUOUS
10
0.871091
20
0.0298877
11
0.868138
21
0.0306789
0
LINE
8
BLACK
6
CONTINUOUS
10
0.868138
20
0.0306789
11
0.865977
21
0.0328404
0
LINE
8
BLACK
6
CONTINUOUS
10
0.865977
20
0.0328404
11
0.865186
21
0.0357932
0
LINE
8
BLACK
6
CONTINUOUS
10
0.865186
20
0.0357932
11
0.865186
21
0.0649458
0
LINE
8
BLACK
6
CONTINUOUS
10
0.865186
20
0.0649458
11
0.838751
21
0.0649458
0
LINE
8
BLACK
6
CONTINUOUS
10
0.838751
20
0.0649458
11
0.838751
21
0.0357932
0
LINE
8
BLACK
6
CONTINUOUS
10
0.838751
20
0.0357932
11
0.83796
21
0.0328404
0
LINE
8
BLACK
6
CONTINUOUS
10
0.83796
20
0.0328404
11
0.835799
21
0.0306789
0
LINE
8
BLACK
6
CONTINUOUS
10
0.835799
20
0.0306789
11
0.832846
21
0.0298877
0
LINE
8
BLACK
6
CONTINUOUS
10
0.832846
20
0.0298877
11
0.829893
21
0.0306789
0
LINE
8
BLACK
6
CONTINUOUS
10
0.829893
20
0.0306789
11
0.827732
21
0.0328404
0
LINE
8
BLACK
6
CONTINUOUS
10
0.827732
20
0.0328404
11
0.82694
21
0.0357932
0
LINE
8
BLACK
6
CONTINUOUS
10
0.82694
20
0.0357932
11
0.82694
21
0.102722
0
LINE
8
BLACK
6
CONTINUOUS
10
0.82694
20
0.102722
11
0.827732
21
0.105675
0
LINE
8
BLACK
6
CONTINUOUS
10
0.827732
20
0.105675
11
0.829893
21
0.107837
0
LINE
8
BLACK
6
CONTINUOUS
10
0.829893
20
0.107837
11
0.832846
21
0.108628
0
LINE
8
BLACK
6
CONTINUOUS
10
0.832846
20
0.108628
11
0.835799
21
0.107837
0
LINE
8
BLACK
6
CONTINUOUS
10
0.835799
20
0.107837
11
0.83796
21
0.105675
0
LINE
8
BLACK
6
CONTINUOUS
10
0.83796
20
0.105675
11
0.838751
21
0.102722
0
LINE
8
BLACK
6
CONTINUOUS
10
0.838751
20
0.102722
11
0.838751
21
0.0767568
0
LINE
8
BLACK
6
CONTINUOUS
10
0.838751
20
0.0767568
11
0.865186
21
0.0767568
0
LINE
8
BLACK
6
CONTINUOUS
10
0.865186
20
0.0767568
11
0.865186
21
0.102722
0
LINE
8
BLACK
6
CONTINUOUS
10
0.865186
20
0.102722
11
0.865977
21
0.105675
0
LINE
8
BLACK
6
CONTINUOUS
10
0.865977
20
0.105675
11
0.868138
21
0.107837
0
LINE
8
BLACK
6
CONTINUOUS
10
0.868138
20
0.107837
11
0.871091
21
0.108628
0
LINE
8
BLACK
6
CONTINUOUS
10
0.871091
20
0.108628
11
0.874044
21
0.107837
0
LINE
8
BLACK
6
CONTINUOUS
10
0.92977
20
0.108277
11
0.9311
21
0.108004
0
LINE
8
BLACK
6
CONTINUOUS
10
0.9311
20
0.108004
11
0.937474
21
0.104817
0
LINE
8
BLACK
6
CONTINUOUS
10
0.937474
20
0.104817
11
0.938186
21
0.104186
0
LINE
8
BLACK
6
CONTINUOUS
10
0.938186
20
0.104186
11
0.939009
21
0.103711
0
LINE
8
BLACK
6
CONTINUOUS
10
0.939009
20
0.103711
11
0.945383
21
0.0973369
0
LINE
8
BLACK
6
CONTINUOUS
10
0.945383
20
0.0973369
11
0.945409
21
0.0972924
0
LINE
8
BLACK
6
CONTINUOUS
10
0.945409
20
0.0972924
11
0.945453
21
0.097266
0
LINE
8
BLACK
6
CONTINUOUS
10
0.945453
20
0.097266
11
0.946171
21
0.0959723
0
LINE
8
BLACK
6
CONTINUOUS
10
0.946171
20
0.0959723
11
0.946912
21
0.0946895
0
LINE
8
BLACK
6
CONTINUOUS
10
0.946912
20
0.0946895
11
0.946912
21
0.0946381
0
LINE
8
BLACK
6
CONTINUOUS
10
0.946912
20
0.0946381
11
0.946936
21
0.0945933
0
LINE
8
BLACK
6
CONTINUOUS
10
0.946936
20
0.0945933
11
0.950124
21
0.0818449
0
LINE
8
BLACK
6
CONTINUOUS
10
0.950124
20
0.0818449
11
0.950111
21
0.0811163
0
LINE
8
BLACK
6
CONTINUOUS
10
0.950111
20
0.0811163
11
0.9503
21
0.0804126
0
LINE
8
BLACK
6
CONTINUOUS
10
0.9503
20
0.0804126
11
0.9503
21
0.0581029
0
LINE
8
BLACK
6
CONTINUOUS
10
0.9503
20
0.0581029
11
0.950111
21
0.0573992
0
LINE
8
BLACK
6
CONTINUOUS
10
0.950111
20
0.0573992
11
0.950124
21
0.0566706
0
LINE
8
BLACK
6
CONTINUOUS
10
0.950124
20
0.0566706
11
0.946936
21
0.0439222
0
LINE
8
BLACK
6
CONTINUOUS
10
0.946936
20
0.0439222
11
0.946912
21
0.0438774
0
LINE
8
BLACK
6
CONTINUOUS
10
0.946912
20
0.0438774
11
0.946912
21
0.043826
0
LINE
8
BLACK
6
CONTINUOUS
10
0.946912
20
0.043826
11
0.946171
21
0.0425432
0
LINE
8
BLACK
6
CONTINUOUS
10
0.946171
20
0.0425432
11
0.945453
21
0.0412495
0
LINE
8
BLACK
6
CONTINUOUS
10
0.945453
20
0.0412495
11
0.945409
21
0.0412231
0
LINE
8
BLACK
6
CONTINUOUS
10
0.945409
20
0.0412231
11
0.945383
21
0.0411787
0
LINE
8
BLACK
6
CONTINUOUS
10
0.945383
20
0.0411787
11
0.939009
21
0.0348044
0
LINE
8
BLACK
6
CONTINUOUS
10
0.939009
20
0.0348044
11
0.938186
21
0.0343291
0
LINE
8
BLACK
6
CONTINUOUS
10
0.938186
20
0.0343291
11
0.937474
21
0.0336982
0
LINE
8
BLACK
6
CONTINUOUS
10
0.937474
20
0.0336982
11
0.9311
21
0.0305111
0
LINE
8
BLACK
6
CONTINUOUS
10
0.9311
20
0.0305111
11
0.92977
21
0.030239
0
LINE
8
BLACK
6
CONTINUOUS
10
0.92977
20
0.030239
11
0.928459
21
0.0298877
0
LINE
8
BLACK
6
CONTINUOUS
10
0.928459
20
0.0298877
11
0.915711
21
0.0298877
0
LINE
8
BLACK
6
CONTINUOUS
10
0.915711
20
0.0298877
11
0.914399
21
0.030239
0
LINE
8
BLACK
6
CONTINUOUS
10
0.914399
20
0.030239
11
0.913069
21
0.0305111
0
LINE
8
BLACK
6
CONTINUOUS
10
0.913069
20
0.0305111
11
0.906695
21
0.0336982
0
LINE
8
BLACK
6
CONTINUOUS
10
0.906695
20
0.0336982
11
0.905984
21
0.0343291
0
LINE
8
BLACK
6
CONTINUOUS
10
0.905984
20
0.0343291
11
0.90516
21
0.0348044
0
LINE
8
BLACK
6
CONTINUOUS
10
0.90516
20
0.0348044
11
0.898786
21
0.0411787
0
LINE
8
BLACK
6
CONTINUOUS
10
0.898786
20
0.0411787
11
0.898761
21
0.0412231
0
LINE
8
BLACK
6
CONTINUOUS
10
0.898761
20
0.0412231
11
0.898717
21
0.0412495
0
LINE
8
BLACK
6
CONTINUOUS
10
0.898717
20
0.0412495
11
0.897998
21
0.0425437
0
LINE
8
BLACK
6
CONTINUOUS
10
0.897998
20
0.0425437
11
0.897258
21
0.043826
0
LINE
8
BLACK
6
CONTINUOUS
10
0.897258
20
0.043826
11
0.897258
21
0.0438774
0
LINE
8
BLACK
6
CONTINUOUS
10
0.897258
20
0.0438774
11
0.897233
21
0.0439222
0
LINE
8
BLACK
6
CONTINUOUS
10
0.897233
20
0.0439222
11
0.894046
21
0.0566706
0
LINE
8
BLACK
6
CONTINUOUS
10
0.894046
20
0.0566706
11
0.894058
21
0.0573991
0
LINE
8
BLACK
6
CONTINUOUS
10
0.894058
20
0.0573991
11
0.893869
21
0.0581029
0
LINE
8
BLACK
6
CONTINUOUS
10
0.893869
20
0.0581029
11
0.893869
21
0.0804126
0
LINE
8
BLACK
6
CONTINUOUS
10
0.893869
20
0.0804126
11
0.894058
21
0.0811164
0
LINE
8
BLACK
6
CONTINUOUS
10
0.894058
20
0.0811164
11
0.894046
21
0.0818449
0
LINE
8
BLACK
6
CONTINUOUS
10
0.894046
20
0.0818449
11
0.897233
21
0.0945933
0
LINE
8
BLACK
6
CONTINUOUS
10
0.897233
20
0.0945933
11
0.897258
21
0.0946382
0
LINE
8
BLACK
6
CONTINUOUS
10
0.897258
20
0.0946382
11
0.897258
21
0.0946895
0
LINE
8
BLACK
6
CONTINUOUS
10
0.897258
20
0.0946895
11
0.897998
21
0.0959719
0
LINE
8
BLACK
6
CONTINUOUS
10
0.897998
20
0.0959719
11
0.898717
21
0.097266
0
LINE
8
BLACK
6
CONTINUOUS
10
0.898717
20
0.097266
11
0.898761
21
0.0972924
0
LINE
8
BLACK
6
CONTINUOUS
10
0.898761
20
0.0972924
11
0.898786
21
0.0973369
0
LINE
8
BLACK
6
CONTINUOUS
10
0.898786
20
0.0973369
11
0.90516
21
0.103711
0
LINE
8
BLACK
6
CONTINUOUS
10
0.90516
20
0.103711
11
0.905984
21
0.104186
0
LINE
8
BLACK
6
CONTINUOUS
10
0.905984
20
0.104186
11
0.906695
21
0.104817
0
LINE
8
BLACK
6
CONTINUOUS
10
0.906695
20
0.104817
11
0.913069
21
0.108004
0
LINE
8
BLACK
6
CONTINUOUS
10
0.913069
20
0.108004
11
0.914399
21
0.108277
0
LINE
8
BLACK
6
CONTINUOUS
10
0.914399
20
0.108277
11
0.915711
21
0.108628
0
LINE
8
BLACK
6
CONTINUOUS
10
0.915711
20
0.108628
11
0.928459
21
0.108628
0
LINE
8
BLACK
6
CONTINUOUS
10
0.928459
20
0.108628
11
0.92977
21
0.108277
0
LINE
8
BLACK
6
CONTINUOUS
10
0.912834
20
0.0946818
11
0.908295
21
0.0901419
0
LINE
8
BLACK
6
CONTINUOUS
10
0.908295
20
0.0901419
11
0.905681
21
0.0796857
0
LINE
8
BLACK
6
CONTINUOUS
10
0.905681
20
0.0796857
11
0.905681
21
0.0588299
0
LINE
8
BLACK
6
CONTINUOUS
10
0.905681
20
0.0588299
11
0.908295
21
0.0483737
0
LINE
8
BLACK
6
CONTINUOUS
10
0.908295
20
0.0483737
11
0.912834
21
0.0438338
0
LINE
8
BLACK
6
CONTINUOUS
10
0.912834
20
0.0438338
11
0.917105
21
0.0416987
0
LINE
8
BLACK
6
CONTINUOUS
10
0.917105
20
0.0416987
11
0.927065
21
0.0416987
0
LINE
8
BLACK
6
CONTINUOUS
10
0.927065
20
0.0416987
11
0.931335
21
0.0438338
0
LINE
8
BLACK
6
CONTINUOUS
10
0.931335
20
0.0438338
11
0.935875
21
0.0483737
0
LINE
8
BLACK
6
CONTINUOUS
10
0.935875
20
0.0483737
11
0.938489
21
0.0588299
0
LINE
8
BLACK
6
CONTINUOUS
10
0.938489
20
0.0588299
11
0.938489
21
0.0796857
0
LINE
8
BLACK
6
CONTINUOUS
10
0.938489
20
0.0796857
11
0.935875
21
0.0901419
0
LINE
8
BLACK
6
CONTINUOUS
10
0.935875
20
0.0901419
11
0.931335
21
0.0946818
0
LINE
8
BLACK
6
CONTINUOUS
10
0.931335
20
0.0946818
11
0.927065
21
0.0968168
0
LINE
8
BLACK
6
CONTINUOUS
10
0.927065
20
0.0968168
11
0.917105
21
0.0968168
0
LINE
8
BLACK
6
CONTINUOUS
10
0.917105
20
0.0968168
11
0.912834
21
0.0946818
0
LINE
8
BLACK
6
CONTINUOUS
10
0.976031
20
0.107837
11
0.978193
21
0.105675
0
LINE
8
BLACK
6
CONTINUOUS
10
0.978193
20
0.105675
11
0.978984
21
0.102722
0
LINE
8
BLACK
6
CONTINUOUS
10
0.978984
20
0.102722
11
0.978984
21
0.0416987
0
LINE
8
BLACK
6
CONTINUOUS
10
0.978984
20
0.0416987
11
1.00495
21
0.0416987
0
LINE
8
BLACK
6
CONTINUOUS
10
1.00495
20
0.0416987
11
1.0079
21
0.0409075
0
LINE
8
BLACK
6
CONTINUOUS
10
1.0079
20
0.0409075
11
1.01006
21
0.0387459
0
LINE
8
BLACK
6
CONTINUOUS
10
1.01006
20
0.0387459
11
1.01085
21
0.0357932
0
LINE
8
BLACK
6
CONTINUOUS
10
1.01085
20
0.0357932
11
1.01006
21
0.0328404
0
LINE
8
BLACK
6
CONTINUOUS
10
1.01006
20
0.0328404
11
1.0079
21
0.0306789
0
LINE
8
BLACK
6
CONTINUOUS
10
1.0079
20
0.0306789
11
1.00495
21
0.0298877
0
LINE
8
BLACK
6
CONTINUOUS
10
1.00495
20
0.0298877
11
0.973078
21
0.0298877
0
LINE
8
BLACK
6
CONTINUOUS
10
0.973078
20
0.0298877
11
0.970126
21
0.0306789
0
LINE
8
BLACK
6
CONTINUOUS
10
0.970126
20
0.0306789
11
0.967964
21
0.0328404
0
LINE
8
BLACK
6
CONTINUOUS
10
0.967964
20
0.0328404
11
0.967173
21
0.0357932
0
LINE
8
BLACK
6
CONTINUOUS
10
0.967173
20
0.0357932
11
0.967173
21
0.102722
0
LINE
8
BLACK
6
CONTINUOUS
10
0.967173
20
0.102722
11
0.967964
21
0.105675
0
LINE
8
BLACK
6
CONTINUOUS
10
0.967964
20
0.105675
11
0.970126
21
0.107837
0
LINE
8
BLACK
6
CONTINUOUS
10
0.970126
20
0.107837
11
0.973078
21
0.108628
0
LINE
8
BLACK
6
CONTINUOUS
10
0.973078
20
0.108628
11
0.976031
21
0.107837
0
LINE
8
BLACK
6
CONTINUOUS
10
1.04411
20
0.108382
11
1.04506
21
0.108325
0
LINE
8
BLACK
6
CONTINUOUS
10
1.04506
20
0.108325
11
1.05462
21
0.105138
0
LINE
8
BLACK
6
CONTINUOUS
10
1.05462
20
0.105138
11
1.05576
21
0.10439
0
LINE
8
BLACK
6
CONTINUOUS
10
1.05576
20
0.10439
11
1.05693
21
0.103711
0
LINE
8
BLACK
6
CONTINUOUS
10
1.05693
20
0.103711
11
1.06331
21
0.0973369
0
LINE
8
BLACK
6
CONTINUOUS
10
1.06331
20
0.0973369
11
1.06378
21
0.0965134
0
LINE
8
BLACK
6
CONTINUOUS
10
1.06378
20
0.0965134
11
1.06441
21
0.095802
0
LINE
8
BLACK
6
CONTINUOUS
10
1.06441
20
0.095802
11
1.0676
21
0.0894278
0
LINE
8
BLACK
6
CONTINUOUS
10
1.0676
20
0.0894278
11
1.06773
21
0.0887891
0
LINE
8
BLACK
6
CONTINUOUS
10
1.06773
20
0.0887891
11
1.06805
21
0.0882191
0
LINE
8
BLACK
6
CONTINUOUS
10
1.06805
20
0.0882191
11
1.07123
21
0.0754707
0
LINE
8
BLACK
6
CONTINUOUS
10
1.07123
20
0.0754707
11
1.07122
21
0.0747422
0
LINE
8
BLACK
6
CONTINUOUS
10
1.07122
20
0.0747422
11
1.07141
21
0.0740384
0
LINE
8
BLACK
6
CONTINUOUS
10
1.07141
20
0.0740384
11
1.07141
21
0.0644771
0
LINE
8
BLACK
6
CONTINUOUS
10
1.07141
20
0.0644771
11
1.07122
21
0.0637734
0
LINE
8
BLACK
6
CONTINUOUS
10
1.07122
20
0.0637734
11
1.07123
21
0.0630448
0
LINE
8
BLACK
6
CONTINUOUS
10
1.07123
20
0.0630448
11
1.06805
21
0.0502964
0
LINE
8
BLACK
6
CONTINUOUS
10
1.06805
20
0.0502964
11
1.06773
21
0.0497265
0
LINE
8
BLACK
6
CONTINUOUS
10
1.06773
20
0.0497265
11
1.0676
21
0.0490877
0
LINE
8
BLACK
6
CONTINUOUS
10
1.0676
20
0.0490877
11
1.06441
21
0.0427135
0
LINE
8
BLACK
6
CONTINUOUS
10
1.06441
20
0.0427135
11
1.06378
21
0.0420021
0
LINE
8
BLACK
6
CONTINUOUS
10
1.06378
20
0.0420021
11
1.06331
21
0.0411787
0
LINE
8
BLACK
6
CONTINUOUS
10
1.06331
20
0.0411787
11
1.05693
21
0.0348044
0
LINE
8
BLACK
6
CONTINUOUS
10
1.05693
20
0.0348044
11
1.05576
21
0.0341257
0
LINE
8
BLACK
6
CONTINUOUS
10
1.05576
20
0.0341257
11
1.05462
21
0.0333778
0
LINE
8
BLACK
6
CONTINUOUS
10
1.05462
20
0.0333778
11
1.04506
21
0.0301907
0
LINE
8
BLACK
6
CONTINUOUS
10
1.04506
20
0.0301907
11
1.04411
21
0.0301337
0
LINE
8
BLACK
6
CONTINUOUS
10
1.04411
20
0.0301337
11
1.04319
21
0.0298877
0
LINE
8
BLACK
6
CONTINUOUS
10
1.04319
20
0.0298877
11
1.02726
21
0.0298877
0
LINE
8
BLACK
6
CONTINUOUS
10
1.02726
20
0.0298877
11
1.02431
21
0.0306789
0
LINE
8
BLACK
6
CONTINUOUS
10
1.02431
20
0.0306789
11
1.02214
21
0.0328404
0
LINE
8
BLACK
6
CONTINUOUS
10
1.02214
20
0.0328404
11
1.02135
21
0.0357932
0
LINE
8
BLACK
6
CONTINUOUS
10
1.02135
20
0.0357932
11
1.02135
21
0.102722
0
LINE
8
BLACK
6
CONTINUOUS
10
1.02135
20
0.102722
11
1.02214
21
0.105675
0
LINE
8
BLACK
6
CONTINUOUS
10
1.02214
20
0.105675
11
1.02431
21
0.107837
0
LINE
8
BLACK
6
CONTINUOUS
10
1.02431
20
0.107837
11
1.02726
21
0.108628
0
LINE
8
BLACK
6
CONTINUOUS
10
1.02726
20
0.108628
11
1.04319
21
0.108628
0
LINE
8
BLACK
6
CONTINUOUS
10
1.04319
20
0.108628
11
1.04411
21
0.108382
0
LINE
8
BLACK
6
CONTINUOUS
10
1.03316
20
0.0416987
11
1.04224
21
0.0416987
0
LINE
8
BLACK
6
CONTINUOUS
10
1.04224
20
0.0416987
11
1.04957
21
0.0441419
0
LINE
8
BLACK
6
CONTINUOUS
10
1.04957
20
0.0441419
11
1.05428
21
0.0488527
0
LINE
8
BLACK
6
CONTINUOUS
10
1.05428
20
0.0488527
11
1.05675
21
0.05379
0
LINE
8
BLACK
6
CONTINUOUS
10
1.05675
20
0.05379
11
1.0596
21
0.0652041
0
LINE
8
BLACK
6
CONTINUOUS
10
1.0596
20
0.0652041
11
1.0596
21
0.0733115
0
LINE
8
BLACK
6
CONTINUOUS
10
1.0596
20
0.0733115
11
1.05675
21
0.0847255
0
LINE
8
BLACK
6
CONTINUOUS
10
1.05675
20
0.0847255
11
1.05428
21
0.0896628
0
LINE
8
BLACK
6
CONTINUOUS
10
1.05428
20
0.0896628
11
1.04957
21
0.0943736
0
LINE
8
BLACK
6
CONTINUOUS
10
1.04957
20
0.0943736
11
1.04224
21
0.0968168
0
LINE
8
BLACK
6
CONTINUOUS
10
1.04224
20
0.0968168
11
1.03316
21
0.0968168
0
LINE
8
BLACK
6
CONTINUOUS
10
1.03316
20
0.0968168
11
1.03316
21
0.0416987
0
LINE
8
BLACK
6
CONTINUOUS
10
1.12901
20
0.107837
11
1.13117
21
0.105675
0
LINE
8
BLACK
6
CONTINUOUS
10
1.13117
20
0.105675
11
1.13196
21
0.102722
0
LINE
8
BLACK
6
CONTINUOUS
10
1.13196
20
0.102722
11
1.13117
21
0.0997696
0
LINE
8
BLACK
6
CONTINUOUS
10
1.13117
20
0.0997696
11
1.12901
21
0.097608
0
LINE
8
BLACK
6
CONTINUOUS
10
1.12901
20
0.097608
11
1.12606
21
0.0968168
0
LINE
8
BLACK
6
CONTINUOUS
10
1.12606
20
0.0968168
11
1.10009
21
0.0968168
0
LINE
8
BLACK
6
CONTINUOUS
10
1.10009
20
0.0968168
11
1.10009
21
0.0767568
0
LINE
8
BLACK
6
CONTINUOUS
10
1.10009
20
0.0767568
11
1.1165
21
0.0767568
0
LINE
8
BLACK
6
CONTINUOUS
10
1.1165
20
0.0767568
11
1.11945
21
0.0759656
0
LINE
8
BLACK
6
CONTINUOUS
10
1.11945
20
0.0759656
11
1.12161
21
0.0738041
0
LINE
8
BLACK
6
CONTINUOUS
10
1.12161
20
0.0738041
11
1.1224
21
0.0708513
0
LINE
8
BLACK
6
CONTINUOUS
10
1.1224
20
0.0708513
11
1.12161
21
0.0678985
0
LINE
8
BLACK
6
CONTINUOUS
10
1.12161
20
0.0678985
11
1.11945
21
0.065737
0
LINE
8
BLACK
6
CONTINUOUS
10
1.11945
20
0.065737
11
1.1165
21
0.0649458
0
LINE
8
BLACK
6
CONTINUOUS
10
1.1165
20
0.0649458
11
1.10009
21
0.0649458
0
LINE
8
BLACK
6
CONTINUOUS
10
1.10009
20
0.0649458
11
1.10009
21
0.0416987
0
LINE
8
BLACK
6
CONTINUOUS
10
1.10009
20
0.0416987
11
1.12606
21
0.0416987
0
LINE
8
BLACK
6
CONTINUOUS
10
1.12606
20
0.0416987
11
1.12901
21
0.0409075
0
LINE
8
BLACK
6
CONTINUOUS
10
1.12901
20
0.0409075
11
1.13117
21
0.0387459
0
LINE
8
BLACK
6
CONTINUOUS
10
1.13117
20
0.0387459
11
1.13196
21
0.0357932
0
LINE
8
BLACK
6
CONTINUOUS
10
1.13196
20
0.0357932
11
1.13117
21
0.0328404
0
LINE
8
BLACK
6
CONTINUOUS
10
1.13117
20
0.0328404
11
1.12901
21
0.0306789
0
LINE
8
BLACK
6
CONTINUOUS
10
1.12901
20
0.0306789
11
1.12606
21
0.0298877
0
LINE
8
BLACK
6
CONTINUOUS
10
1.12606
20
0.0298877
11
1.09419
21
0.0298877
0
LINE
8
BLACK
6
CONTINUOUS
10
1.09419
20
0.0298877
11
1.09124
21
0.0306789
0
LINE
8
BLACK
6
CONTINUOUS
10
1.09124
20
0.0306789
11
1.08907
21
0.0328404
0
LINE
8
BLACK
6
CONTINUOUS
10
1.08907
20
0.0328404
11
1.08828
21
0.0357932
0
LINE
8
BLACK
6
CONTINUOUS
10
1.08828
20
0.0357932
11
1.08828
21
0.102722
0
LINE
8
BLACK
6
CONTINUOUS
10
1.08828
20
0.102722
11
1.08907
21
0.105675
0
LINE
8
BLACK
6
CONTINUOUS
10
1.08907
20
0.105675
11
1.09124
21
0.107837
0
LINE
8
BLACK
6
CONTINUOUS
10
1.09124
20
0.107837
11
1.09419
21
0.108628
0
LINE
8
BLACK
6
CONTINUOUS
10
1.09419
20
0.108628
11
1.12606
21
0.108628
0
LINE
8
BLACK
6
CONTINUOUS
10
1.12606
20
0.108628
11
1.12901
21
0.107837
0
LINE
8
BLACK
6
CONTINUOUS
10
1.18155
20
0.108277
11
1.18288
21
0.108004
0
LINE
8
BLACK
6
CONTINUOUS
10
1.18288
20
0.108004
11
1.18926
21
0.104817
0
LINE
8
BLACK
6
CONTINUOUS
10
1.18926
20
0.104817
11
1.18997
21
0.104186
0
LINE
8
BLACK
6
CONTINUOUS
10
1.18997
20
0.104186
11
1.19079
21
0.103711
0
LINE
8
BLACK
6
CONTINUOUS
10
1.19079
20
0.103711
11
1.19398
21
0.100524
0
LINE
8
BLACK
6
CONTINUOUS
10
1.19398
20
0.100524
11
1.19445
21
0.0997006
0
LINE
8
BLACK
6
CONTINUOUS
10
1.19445
20
0.0997006
11
1.19508
21
0.0989891
0
LINE
8
BLACK
6
CONTINUOUS
10
1.19508
20
0.0989891
11
1.19827
21
0.092615
0
LINE
8
BLACK
6
CONTINUOUS
10
1.19827
20
0.092615
11
1.19854
21
0.091285
0
LINE
8
BLACK
6
CONTINUOUS
10
1.19854
20
0.091285
11
1.19889
21
0.0899739
0
LINE
8
BLACK
6
CONTINUOUS
10
1.19889
20
0.0899739
11
1.19889
21
0.0804126
0
LINE
8
BLACK
6
CONTINUOUS
10
1.19889
20
0.0804126
11
1.19854
21
0.0791015
0
LINE
8
BLACK
6
CONTINUOUS
10
1.19854
20
0.0791015
11
1.19827
21
0.0777716
0
LINE
8
BLACK
6
CONTINUOUS
10
1.19827
20
0.0777716
11
1.19508
21
0.0713974
0
LINE
8
BLACK
6
CONTINUOUS
10
1.19508
20
0.0713974
11
1.19445
21
0.070686
0
LINE
8
BLACK
6
CONTINUOUS
10
1.19445
20
0.070686
11
1.19398
21
0.0698626
0
LINE
8
BLACK
6
CONTINUOUS
10
1.19398
20
0.0698626
11
1.19079
21
0.0666755
0
LINE
8
BLACK
6
CONTINUOUS
10
1.19079
20
0.0666755
11
1.18997
21
0.0662001
0
LINE
8
BLACK
6
CONTINUOUS
10
1.18997
20
0.0662001
11
1.18926
21
0.0655693
0
LINE
8
BLACK
6
CONTINUOUS
10
1.18926
20
0.0655693
11
1.18288
21
0.0623822
0
LINE
8
BLACK
6
CONTINUOUS
10
1.18288
20
0.0623822
11
1.18175
21
0.0621502
0
LINE
8
BLACK
6
CONTINUOUS
10
1.18175
20
0.0621502
11
1.19783
21
0.0391798
0
LINE
8
BLACK
6
CONTINUOUS
10
1.19783
20
0.0391798
11
1.19887
21
0.0363071
0
LINE
8
BLACK
6
CONTINUOUS
10
1.19887
20
0.0363071
11
1.19834
21
0.0332967
0
LINE
8
BLACK
6
CONTINUOUS
10
1.19834
20
0.0332967
11
1.19637
21
0.0309552
0
LINE
8
BLACK
6
CONTINUOUS
10
1.19637
20
0.0309552
11
1.1935
21
0.0299101
0
LINE
8
BLACK
6
CONTINUOUS
10
1.1935
20
0.0299101
11
1.19049
21
0.0304413
0
LINE
8
BLACK
6
CONTINUOUS
10
1.19049
20
0.0304413
11
1.18815
21
0.0324066
0
LINE
8
BLACK
6
CONTINUOUS
10
1.18815
20
0.0324066
11
1.1676
21
0.0617587
0
LINE
8
BLACK
6
CONTINUOUS
10
1.1676
20
0.0617587
11
1.16065
21
0.0617587
0
LINE
8
BLACK
6
CONTINUOUS
10
1.16065
20
0.0617587
11
1.16065
21
0.0357932
0
LINE
8
BLACK
6
CONTINUOUS
10
1.16065
20
0.0357932
11
1.15986
21
0.0328404
0
LINE
8
BLACK
6
CONTINUOUS
10
1.15986
20
0.0328404
11
1.1577
21
0.0306789
0
LINE
8
BLACK
6
CONTINUOUS
10
1.1577
20
0.0306789
11
1.15474
21
0.0298877
0
LINE
8
BLACK
6
CONTINUOUS
10
1.15474
20
0.0298877
11
1.15179
21
0.0306789
0
LINE
8
BLACK
6
CONTINUOUS
10
1.15179
20
0.0306789
11
1.14963
21
0.0328404
0
LINE
8
BLACK
6
CONTINUOUS
10
1.14963
20
0.0328404
11
1.14884
21
0.0357932
0
LINE
8
BLACK
6
CONTINUOUS
10
1.14884
20
0.0357932
11
1.14884
21
0.102722
0
LINE
8
BLACK
6
CONTINUOUS
10
1.14884
20
0.102722
11
1.14963
21
0.105675
0
LINE
8
BLACK
6
CONTINUOUS
10
1.14963
20
0.105675
11
1.15179
21
0.107837
0
LINE
8
BLACK
6
CONTINUOUS
10
1.15179
20
0.107837
11
1.15474
21
0.108628
0
LINE
8
BLACK
6
CONTINUOUS
10
1.15474
20
0.108628
11
1.18024
21
0.108628
0
LINE
8
BLACK
6
CONTINUOUS
10
1.18024
20
0.108628
11
1.18155
21
0.108277
0
LINE
8
BLACK
6
CONTINUOUS
10
1.16065
20
0.0735697
11
1.17885
21
0.0735697
0
LINE
8
BLACK
6
CONTINUOUS
10
1.17885
20
0.0735697
11
1.18312
21
0.0757048
0
LINE
8
BLACK
6
CONTINUOUS
10
1.18312
20
0.0757048
11
1.18495
21
0.0775367
0
LINE
8
BLACK
6
CONTINUOUS
10
1.18495
20
0.0775367
11
1.18708
21
0.0818067
0
LINE
8
BLACK
6
CONTINUOUS
10
1.18708
20
0.0818067
11
1.18708
21
0.0885798
0
LINE
8
BLACK
6
CONTINUOUS
10
1.18708
20
0.0885798
11
1.18495
21
0.0928499
0
LINE
8
BLACK
6
CONTINUOUS
10
1.18495
20
0.0928499
11
1.18312
21
0.0946818
0
LINE
8
BLACK
6
CONTINUOUS
10
1.18312
20
0.0946818
11
1.17885
21
0.0968168
0
LINE
8
BLACK
6
CONTINUOUS
10
1.17885
20
0.0968168
11
1.16065
21
0.0968168
0
LINE
8
BLACK
6
CONTINUOUS
10
1.16065
20
0.0968168
11
1.16065
21
0.0735697
0
LINE
8
BLACK
6
CONTINUOUS
10
1.24211
20
0.108277
11
1.24344
21
0.108004
0
LINE
8
BLACK
6
CONTINUOUS
10
1.24344
20
0.108004
11
1.24981
21
0.104817
0
LINE
8
BLACK
6
CONTINUOUS
10
1.24981
20
0.104817
11
1.25052
21
0.104186
0
LINE
8
BLACK
6
CONTINUOUS
10
1.25052
20
0.104186
11
1.25134
21
0.103711
0
LINE
8
BLACK
6
CONTINUOUS
10
1.25134
20
0.103711
11
1.25453
21
0.100524
0
LINE
8
BLACK
6
CONTINUOUS
10
1.25453
20
0.100524
11
1.25501
21
0.0997006
0
LINE
8
BLACK
6
CONTINUOUS
10
1.25501
20
0.0997006
11
1.25564
21
0.0989891
0
LINE
8
BLACK
6
CONTINUOUS
10
1.25564
20
0.0989891
11
1.25883
21
0.092615
0
LINE
8
BLACK
6
CONTINUOUS
10
1.25883
20
0.092615
11
1.25896
21
0.0919763
0
LINE
8
BLACK
6
CONTINUOUS
10
1.25896
20
0.0919763
11
1.25927
21
0.0914063
0
LINE
8
BLACK
6
CONTINUOUS
10
1.25927
20
0.0914063
11
1.26246
21
0.0786578
0
LINE
8
BLACK
6
CONTINUOUS
10
1.26246
20
0.0786578
11
1.26245
21
0.0779293
0
LINE
8
BLACK
6
CONTINUOUS
10
1.26245
20
0.0779293
11
1.26264
21
0.0772255
0
LINE
8
BLACK
6
CONTINUOUS
10
1.26264
20
0.0772255
11
1.26264
21
0.06129
0
LINE
8
BLACK
6
CONTINUOUS
10
1.26264
20
0.06129
11
1.26245
21
0.0605862
0
LINE
8
BLACK
6
CONTINUOUS
10
1.26245
20
0.0605862
11
1.26246
21
0.0598577
0
LINE
8
BLACK
6
CONTINUOUS
10
1.26246
20
0.0598577
11
1.25927
21
0.0471093
0
LINE
8
BLACK
6
CONTINUOUS
10
1.25927
20
0.0471093
11
1.25896
21
0.0465393
0
LINE
8
BLACK
6
CONTINUOUS
10
1.25896
20
0.0465393
11
1.25883
21
0.0459006
0
LINE
8
BLACK
6
CONTINUOUS
10
1.25883
20
0.0459006
11
1.25564
21
0.0395264
0
LINE
8
BLACK
6
CONTINUOUS
10
1.25564
20
0.0395264
11
1.25501
21
0.038815
0
LINE
8
BLACK
6
CONTINUOUS
10
1.25501
20
0.038815
11
1.25453
21
0.0379916
0
LINE
8
BLACK
6
CONTINUOUS
10
1.25453
20
0.0379916
11
1.25134
21
0.0348044
0
LINE
8
BLACK
6
CONTINUOUS
10
1.25134
20
0.0348044
11
1.25052
21
0.0343291
0
LINE
8
BLACK
6
CONTINUOUS
10
1.25052
20
0.0343291
11
1.24981
21
0.0336982
0
LINE
8
BLACK
6
CONTINUOUS
10
1.24981
20
0.0336982
11
1.24344
21
0.0305111
0
LINE
8
BLACK
6
CONTINUOUS
10
1.24344
20
0.0305111
11
1.24211
21
0.030239
0
LINE
8
BLACK
6
CONTINUOUS
10
1.24211
20
0.030239
11
1.24079
21
0.0298877
0
LINE
8
BLACK
6
CONTINUOUS
10
1.24079
20
0.0298877
11
1.23442
21
0.0298877
0
LINE
8
BLACK
6
CONTINUOUS
10
1.23442
20
0.0298877
11
1.23311
21
0.030239
0
LINE
8
BLACK
6
CONTINUOUS
10
1.23311
20
0.030239
11
1.23178
21
0.0305111
0
LINE
8
BLACK
6
CONTINUOUS
10
1.23178
20
0.0305111
11
1.22541
21
0.0336982
0
LINE
8
BLACK
6
CONTINUOUS
10
1.22541
20
0.0336982
11
1.22469
21
0.0343291
0
LINE
8
BLACK
6
CONTINUOUS
10
1.22469
20
0.0343291
11
1.22387
21
0.0348045
0
LINE
8
BLACK
6
CONTINUOUS
10
1.22387
20
0.0348045
11
1.22068
21
0.0379916
0
LINE
8
BLACK
6
CONTINUOUS
10
1.22068
20
0.0379916
11
1.22021
21
0.0388149
0
LINE
8
BLACK
6
CONTINUOUS
10
1.22021
20
0.0388149
11
1.21958
21
0.0395263
0
LINE
8
BLACK
6
CONTINUOUS
10
1.21958
20
0.0395263
11
1.21639
21
0.0459006
0
LINE
8
BLACK
6
CONTINUOUS
10
1.21639
20
0.0459006
11
1.21626
21
0.0465393
0
LINE
8
BLACK
6
CONTINUOUS
10
1.21626
20
0.0465393
11
1.21594
21
0.0471093
0
LINE
8
BLACK
6
CONTINUOUS
10
1.21594
20
0.0471093
11
1.21276
21
0.0598577
0
LINE
8
BLACK
6
CONTINUOUS
10
1.21276
20
0.0598577
11
1.21277
21
0.0605862
0
LINE
8
BLACK
6
CONTINUOUS
10
1.21277
20
0.0605862
11
1.21258
21
0.06129
0
LINE
8
BLACK
6
CONTINUOUS
10
1.21258
20
0.06129
11
1.21258
21
0.0772255
0
LINE
8
BLACK
6
CONTINUOUS
10
1.21258
20
0.0772255
11
1.21277
21
0.0779293
0
LINE
8
BLACK
6
CONTINUOUS
10
1.21277
20
0.0779293
11
1.21276
21
0.0786578
0
LINE
8
BLACK
6
CONTINUOUS
10
1.21276
20
0.0786578
11
1.21594
21
0.0914063
0
LINE
8
BLACK
6
CONTINUOUS
10
1.21594
20
0.0914063
11
1.21626
21
0.0919762
0
LINE
8
BLACK
6
CONTINUOUS
10
1.21626
20
0.0919762
11
1.21639
21
0.092615
0
LINE
8
BLACK
6
CONTINUOUS
10
1.21639
20
0.092615
11
1.21958
21
0.0989892
0
LINE
8
BLACK
6
CONTINUOUS
10
1.21958
20
0.0989892
11
1.22021
21
0.0997006
0
LINE
8
BLACK
6
CONTINUOUS
10
1.22021
20
0.0997006
11
1.22068
21
0.100524
0
LINE
8
BLACK
6
CONTINUOUS
10
1.22068
20
0.100524
11
1.22387
21
0.103711
0
LINE
8
BLACK
6
CONTINUOUS
10
1.22387
20
0.103711
11
1.22469
21
0.104186
0
LINE
8
BLACK
6
CONTINUOUS
10
1.22469
20
0.104186
11
1.22541
21
0.104817
0
LINE
8
BLACK
6
CONTINUOUS
10
1.22541
20
0.104817
11
1.23178
21
0.108004
0
LINE
8
BLACK
6
CONTINUOUS
10
1.23178
20
0.108004
11
1.23311
21
0.108277
0
LINE
8
BLACK
6
CONTINUOUS
10
1.23311
20
0.108277
11
1.23442
21
0.108628
0
LINE
8
BLACK
6
CONTINUOUS
10
1.23442
20
0.108628
11
1.24079
21
0.108628
0
LINE
8
BLACK
6
CONTINUOUS
10
1.24079
20
0.108628
11
1.24211
21
0.108277
0
LINE
8
BLACK
6
CONTINUOUS
10
1.23154
20
0.0946818
11
1.22971
21
0.09285
0
LINE
8
BLACK
6
CONTINUOUS
10
1.22971
20
0.09285
11
1.22724
21
0.0879128
0
LINE
8
BLACK
6
CONTINUOUS
10
1.22724
20
0.0879128
11
1.22439
21
0.0764986
0
LINE
8
BLACK
6
CONTINUOUS
10
1.22439
20
0.0764986
11
1.22439
21
0.0620169
0
LINE
8
BLACK
6
CONTINUOUS
10
1.22439
20
0.0620169
11
1.22724
21
0.0506029
0
LINE
8
BLACK
6
CONTINUOUS
10
1.22724
20
0.0506029
11
1.22971
21
0.0456656
0
LINE
8
BLACK
6
CONTINUOUS
10
1.22971
20
0.0456656
11
1.23154
21
0.0438337
0
LINE
8
BLACK
6
CONTINUOUS
10
1.23154
20
0.0438337
11
1.23581
21
0.0416987
0
LINE
8
BLACK
6
CONTINUOUS
10
1.23581
20
0.0416987
11
1.2394
21
0.0416987
0
LINE
8
BLACK
6
CONTINUOUS
10
1.2394
20
0.0416987
11
1.24367
21
0.0438338
0
LINE
8
BLACK
6
CONTINUOUS
10
1.24367
20
0.0438338
11
1.2455
21
0.0456656
0
LINE
8
BLACK
6
CONTINUOUS
10
1.2455
20
0.0456656
11
1.24797
21
0.0506028
0
LINE
8
BLACK
6
CONTINUOUS
10
1.24797
20
0.0506028
11
1.25082
21
0.062017
0
LINE
8
BLACK
6
CONTINUOUS
10
1.25082
20
0.062017
11
1.25082
21
0.0764985
0
LINE
8
BLACK
6
CONTINUOUS
10
1.25082
20
0.0764985
11
1.24797
21
0.0879127
0
LINE
8
BLACK
6
CONTINUOUS
10
1.24797
20
0.0879127
11
1.2455
21
0.0928499
0
LINE
8
BLACK
6
CONTINUOUS
10
1.2455
20
0.0928499
11
1.24367
21
0.0946818
0
LINE
8
BLACK
6
CONTINUOUS
10
1.24367
20
0.0946818
11
1.2394
21
0.0968168
0
LINE
8
BLACK
6
CONTINUOUS
10
1.2394
20
0.0968168
11
1.23581
21
0.0968168
0
LINE
8
BLACK
6
CONTINUOUS
10
1.23581
20
0.0968168
11
1.23154
21
0.0946818
0
LINE
8
BLACK
6
CONTINUOUS
10
1.30904
20
0.108277
11
1.31037
21
0.108004
0
LINE
8
BLACK
6
CONTINUOUS
10
1.31037
20
0.108004
11
1.31674
21
0.104817
0
LINE
8
BLACK
6
CONTINUOUS
10
1.31674
20
0.104817
11
1.31745
21
0.104186
0
LINE
8
BLACK
6
CONTINUOUS
10
1.31745
20
0.104186
11
1.31827
21
0.103711
0
LINE
8
BLACK
6
CONTINUOUS
10
1.31827
20
0.103711
11
1.32146
21
0.100524
0
LINE
8
BLACK
6
CONTINUOUS
10
1.32146
20
0.100524
11
1.32194
21
0.0997006
0
LINE
8
BLACK
6
CONTINUOUS
10
1.32194
20
0.0997006
11
1.32257
21
0.0989892
0
LINE
8
BLACK
6
CONTINUOUS
10
1.32257
20
0.0989892
11
1.32575
21
0.092615
0
LINE
8
BLACK
6
CONTINUOUS
10
1.32575
20
0.092615
11
1.32603
21
0.091285
0
LINE
8
BLACK
6
CONTINUOUS
10
1.32603
20
0.091285
11
1.32638
21
0.0899739
0
LINE
8
BLACK
6
CONTINUOUS
10
1.32638
20
0.0899739
11
1.32638
21
0.0835997
0
LINE
8
BLACK
6
CONTINUOUS
10
1.32638
20
0.0835997
11
1.32613
21
0.0826813
0
LINE
8
BLACK
6
CONTINUOUS
10
1.32613
20
0.0826813
11
1.32607
21
0.0817322
0
LINE
8
BLACK
6
CONTINUOUS
10
1.32607
20
0.0817322
11
1.32289
21
0.0721709
0
LINE
8
BLACK
6
CONTINUOUS
10
1.32289
20
0.0721709
11
1.32214
21
0.0710382
0
LINE
8
BLACK
6
CONTINUOUS
10
1.32214
20
0.0710382
11
1.32146
21
0.0698626
0
LINE
8
BLACK
6
CONTINUOUS
10
1.32146
20
0.0698626
11
1.2933
21
0.0416987
0
LINE
8
BLACK
6
CONTINUOUS
10
1.2933
20
0.0416987
11
1.32047
21
0.0416987
0
LINE
8
BLACK
6
CONTINUOUS
10
1.32047
20
0.0416987
11
1.32343
21
0.0409075
0
LINE
8
BLACK
6
CONTINUOUS
10
1.32343
20
0.0409075
11
1.32559
21
0.0387459
0
LINE
8
BLACK
6
CONTINUOUS
10
1.32559
20
0.0387459
11
1.32638
21
0.0357932
0
LINE
8
BLACK
6
CONTINUOUS
10
1.32638
20
0.0357932
11
1.32559
21
0.0328404
0
LINE
8
BLACK
6
CONTINUOUS
10
1.32559
20
0.0328404
11
1.32343
21
0.0306789
0
LINE
8
BLACK
6
CONTINUOUS
10
1.32343
20
0.0306789
11
1.32047
21
0.0298877
0
LINE
8
BLACK
6
CONTINUOUS
10
1.32047
20
0.0298877
11
1.27904
21
0.0298877
0
LINE
8
BLACK
6
CONTINUOUS
10
1.27904
20
0.0298877
11
1.27829
21
0.0300889
0
LINE
8
BLACK
6
CONTINUOUS
10
1.27829
20
0.0300889
11
1.27751
21
0.0300889
0
LINE
8
BLACK
6
CONTINUOUS
10
1.27751
20
0.0300889
11
1.27684
21
0.0304776
0
LINE
8
BLACK
6
CONTINUOUS
10
1.27684
20
0.0304776
11
1.27609
21
0.0306789
0
LINE
8
BLACK
6
CONTINUOUS
10
1.27609
20
0.0306789
11
1.27554
21
0.0312287
0
LINE
8
BLACK
6
CONTINUOUS
10
1.27554
20
0.0312287
11
1.27486
21
0.0316174
0
LINE
8
BLACK
6
CONTINUOUS
10
1.27486
20
0.0316174
11
1.27448
21
0.0322907
0
LINE
8
BLACK
6
CONTINUOUS
10
1.27448
20
0.0322907
11
1.27393
21
0.0328404
0
LINE
8
BLACK
6
CONTINUOUS
10
1.27393
20
0.0328404
11
1.27372
21
0.0335914
0
LINE
8
BLACK
6
CONTINUOUS
10
1.27372
20
0.0335914
11
1.27334
21
0.0342647
0
LINE
8
BLACK
6
CONTINUOUS
10
1.27334
20
0.0342647
11
1.27334
21
0.0350422
0
LINE
8
BLACK
6
CONTINUOUS
10
1.27334
20
0.0350422
11
1.27313
21
0.0357932
0
LINE
8
BLACK
6
CONTINUOUS
10
1.27313
20
0.0357932
11
1.27334
21
0.0365442
0
LINE
8
BLACK
6
CONTINUOUS
10
1.27334
20
0.0365442
11
1.27334
21
0.0373217
0
LINE
8
BLACK
6
CONTINUOUS
10
1.27334
20
0.0373217
11
1.27372
21
0.037995
0
LINE
8
BLACK
6
CONTINUOUS
10
1.27372
20
0.037995
11
1.27393
21
0.0387459
0
LINE
8
BLACK
6
CONTINUOUS
10
1.27393
20
0.0387459
11
1.27448
21
0.0392957
0
LINE
8
BLACK
6
CONTINUOUS
10
1.27448
20
0.0392957
11
1.27486
21
0.039969
0
LINE
8
BLACK
6
CONTINUOUS
10
1.27486
20
0.039969
11
1.31212
21
0.0772285
0
LINE
8
BLACK
6
CONTINUOUS
10
1.31212
20
0.0772285
11
1.31457
21
0.0845581
0
LINE
8
BLACK
6
CONTINUOUS
10
1.31457
20
0.0845581
11
1.31457
21
0.0885798
0
LINE
8
BLACK
6
CONTINUOUS
10
1.31457
20
0.0885798
11
1.31243
21
0.09285
0
LINE
8
BLACK
6
CONTINUOUS
10
1.31243
20
0.09285
11
1.3106
21
0.0946818
0
LINE
8
BLACK
6
CONTINUOUS
10
1.3106
20
0.0946818
11
1.30633
21
0.0968168
0
LINE
8
BLACK
6
CONTINUOUS
10
1.30633
20
0.0968168
11
1.29318
21
0.0968168
0
LINE
8
BLACK
6
CONTINUOUS
10
1.29318
20
0.0968168
11
1.28891
21
0.0946818
0
LINE
8
BLACK
6
CONTINUOUS
10
1.28891
20
0.0946818
11
1.2864
21
0.0921723
0
LINE
8
BLACK
6
CONTINUOUS
10
1.2864
20
0.0921723
11
1.28376
21
0.0906438
0
LINE
8
BLACK
6
CONTINUOUS
10
1.28376
20
0.0906438
11
1.2807
21
0.0906438
0
LINE
8
BLACK
6
CONTINUOUS
10
1.2807
20
0.0906438
11
1.27805
21
0.0921722
0
LINE
8
BLACK
6
CONTINUOUS
10
1.27805
20
0.0921722
11
1.27652
21
0.0948196
0
LINE
8
BLACK
6
CONTINUOUS
10
1.27652
20
0.0948196
11
1.27652
21
0.0978765
0
LINE
8
BLACK
6
CONTINUOUS
10
1.27652
20
0.0978765
11
1.27805
21
0.100524
0
LINE
8
BLACK
6
CONTINUOUS
10
1.27805
20
0.100524
11
1.28124
21
0.103711
0
LINE
8
BLACK
6
CONTINUOUS
10
1.28124
20
0.103711
11
1.28206
21
0.104186
0
LINE
8
BLACK
6
CONTINUOUS
10
1.28206
20
0.104186
11
1.28277
21
0.104817
0
LINE
8
BLACK
6
CONTINUOUS
10
1.28277
20
0.104817
11
1.28915
21
0.108004
0
LINE
8
BLACK
6
CONTINUOUS
10
1.28915
20
0.108004
11
1.29048
21
0.108277
0
LINE
8
BLACK
6
CONTINUOUS
10
1.29048
20
0.108277
11
1.29179
21
0.108628
0
LINE
8
BLACK
6
CONTINUOUS
10
1.29179
20
0.108628
11
1.30772
21
0.108628
0
LINE
8
BLACK
6
CONTINUOUS
10
1.30772
20
0.108628
11
1.30904
21
0.108277
0
LINE
8
BLACK
6
CONTINUOUS
10
1.36341
20
0.108346
11
1.36377
21
0.108325
0
LINE
8
BLACK
6
CONTINUOUS
10
1.36377
20
0.108325
11
1.36476
21
0.107671
0
LINE
8
BLACK
6
CONTINUOUS
10
1.36476
20
0.107671
11
1.36582
21
0.107141
0
LINE
8
BLACK
6
CONTINUOUS
10
1.36582
20
0.107141
11
1.36602
21
0.106839
0
LINE
8
BLACK
6
CONTINUOUS
10
1.36602
20
0.106839
11
1.36632
21
0.10664
0
LINE
8
BLACK
6
CONTINUOUS
10
1.36632
20
0.10664
11
1.36685
21
0.10558
0
LINE
8
BLACK
6
CONTINUOUS
10
1.36685
20
0.10558
11
1.36751
21
0.10459
0
LINE
8
BLACK
6
CONTINUOUS
10
1.36751
20
0.10459
11
1.38982
21
0.0376607
0
LINE
8
BLACK
6
CONTINUOUS
10
1.38982
20
0.0376607
11
1.39
21
0.0346093
0
LINE
8
BLACK
6
CONTINUOUS
10
1.39
20
0.0346093
11
1.38863
21
0.0318751
0
LINE
8
BLACK
6
CONTINUOUS
10
1.38863
20
0.0318751
11
1.38608
21
0.0301907
0
LINE
8
BLACK
6
CONTINUOUS
10
1.38608
20
0.0301907
11
1.38303
21
0.0300076
0
LINE
8
BLACK
6
CONTINUOUS
10
1.38303
20
0.0300076
11
1.3803
21
0.0313747
0
LINE
8
BLACK
6
CONTINUOUS
10
1.3803
20
0.0313747
11
1.37861
21
0.0339257
0
LINE
8
BLACK
6
CONTINUOUS
10
1.37861
20
0.0339257
11
1.37358
21
0.0490103
0
LINE
8
BLACK
6
CONTINUOUS
10
1.37358
20
0.0490103
11
1.35023
21
0.0490103
0
LINE
8
BLACK
6
CONTINUOUS
10
1.35023
20
0.0490103
11
1.3452
21
0.0339257
0
LINE
8
BLACK
6
CONTINUOUS
10
1.3452
20
0.0339257
11
1.34351
21
0.0313746
0
LINE
8
BLACK
6
CONTINUOUS
10
1.34351
20
0.0313746
11
1.34078
21
0.0300076
0
LINE
8
BLACK
6
CONTINUOUS
10
1.34078
20
0.0300076
11
1.33773
21
0.0301907
0
LINE
8
BLACK
6
CONTINUOUS
10
1.33773
20
0.0301907
11
1.33518
21
0.031875
0
LINE
8
BLACK
6
CONTINUOUS
10
1.33518
20
0.031875
11
1.33381
21
0.0346093
0
LINE
8
BLACK
6
CONTINUOUS
10
1.33381
20
0.0346093
11
1.33399
21
0.0376607
0
LINE
8
BLACK
6
CONTINUOUS
10
1.33399
20
0.0376607
11
1.3563
21
0.10459
0
LINE
8
BLACK
6
CONTINUOUS
10
1.3563
20
0.10459
11
1.35696
21
0.10558
0
LINE
8
BLACK
6
CONTINUOUS
10
1.35696
20
0.10558
11
1.35749
21
0.10664
0
LINE
8
BLACK
6
CONTINUOUS
10
1.35749
20
0.10664
11
1.35779
21
0.106839
0
LINE
8
BLACK
6
CONTINUOUS
10
1.35779
20
0.106839
11
1.35799
21
0.107141
0
LINE
8
BLACK
6
CONTINUOUS
10
1.35799
20
0.107141
11
1.35905
21
0.107671
0
LINE
8
BLACK
6
CONTINUOUS
10
1.35905
20
0.107671
11
1.36004
21
0.108325
0
LINE
8
BLACK
6
CONTINUOUS
10
1.36004
20
0.108325
11
1.3604
21
0.108346
0
LINE
8
BLACK
6
CONTINUOUS
10
1.3604
20
0.108346
11
1.36072
21
0.108508
0
LINE
8
BLACK
6
CONTINUOUS
10
1.36072
20
0.108508
11
1.3619
21
0.108437
0
LINE
8
BLACK
6
CONTINUOUS
10
1.3619
20
0.108437
11
1.36309
21
0.108508
0
LINE
8
BLACK
6
CONTINUOUS
10
1.36309
20
0.108508
11
1.36341
21
0.108346
0
LINE
8
BLACK
6
CONTINUOUS
10
1.35416
20
0.0608213
11
1.36965
21
0.0608213
0
LINE
8
BLACK
6
CONTINUOUS
10
1.36965
20
0.0608213
11
1.3619
21
0.0840475
0
LINE
8
BLACK
6
CONTINUOUS
10
1.3619
20
0.0840475
11
1.35416
21
0.0608213
0
LINE
8
BLACK
6
CONTINUOUS
10
0.280089
20
0.104065
11
0.28135
21
0.103843
0
LINE
8
BLACK
6
CONTINUOUS
10
0.28135
20
0.103843
11
0.281551
21
0.103673
0
LINE
8
BLACK
6
CONTINUOUS
10
0.281551
20
0.103673
11
0.281805
21
0.103605
0
LINE
8
BLACK
6
CONTINUOUS
10
0.281805
20
0.103605
11
0.282711
21
0.1027
0
LINE
8
BLACK
6
CONTINUOUS
10
0.282711
20
0.1027
11
0.283691
21
0.101877
0
LINE
8
BLACK
6
CONTINUOUS
10
0.283691
20
0.101877
11
0.283781
21
0.10163
0
LINE
8
BLACK
6
CONTINUOUS
10
0.283781
20
0.10163
11
0.283967
21
0.101444
0
LINE
8
BLACK
6
CONTINUOUS
10
0.283967
20
0.101444
11
0.284298
21
0.100207
0
LINE
8
BLACK
6
CONTINUOUS
10
0.284298
20
0.100207
11
0.284736
21
0.099004
0
LINE
8
BLACK
6
CONTINUOUS
10
0.284736
20
0.099004
11
0.28469
21
0.0987451
0
LINE
8
BLACK
6
CONTINUOUS
10
0.28469
20
0.0987451
11
0.284758
21
0.098491
0
LINE
8
BLACK
6
CONTINUOUS
10
0.284758
20
0.098491
11
0.284758
21
0.0394359
0
LINE
8
BLACK
6
CONTINUOUS
10
0.284758
20
0.0394359
11
0.283967
21
0.0364831
0
LINE
8
BLACK
6
CONTINUOUS
10
0.283967
20
0.0364831
11
0.281805
21
0.0343216
0
LINE
8
BLACK
6
CONTINUOUS
10
0.281805
20
0.0343216
11
0.278853
21
0.0335304
0
LINE
8
BLACK
6
CONTINUOUS
10
0.278853
20
0.0335304
11
0.2759
21
0.0343216
0
LINE
8
BLACK
6
CONTINUOUS
10
0.2759
20
0.0343216
11
0.273738
21
0.0364831
0
LINE
8
BLACK
6
CONTINUOUS
10
0.273738
20
0.0364831
11
0.272947
21
0.0394359
0
LINE
8
BLACK
6
CONTINUOUS
10
0.272947
20
0.0394359
11
0.272947
21
0.0718716
0
LINE
8
BLACK
6
CONTINUOUS
10
0.272947
20
0.0718716
11
0.264519
21
0.0538114
0
LINE
8
BLACK
6
CONTINUOUS
10
0.264519
20
0.0538114
11
0.264184
21
0.0534126
0
LINE
8
BLACK
6
CONTINUOUS
10
0.264184
20
0.0534126
11
0.264006
21
0.0529229
0
LINE
8
BLACK
6
CONTINUOUS
10
0.264006
20
0.0529229
11
0.263216
21
0.0522598
0
LINE
8
BLACK
6
CONTINUOUS
10
0.263216
20
0.0522598
11
0.262553
21
0.0514703
0
LINE
8
BLACK
6
CONTINUOUS
10
0.262553
20
0.0514703
11
0.262064
21
0.0512923
0
LINE
8
BLACK
6
CONTINUOUS
10
0.262064
20
0.0512923
11
0.261665
21
0.0509573
0
LINE
8
BLACK
6
CONTINUOUS
10
0.261665
20
0.0509573
11
0.260649
21
0.0507779
0
LINE
8
BLACK
6
CONTINUOUS
10
0.260649
20
0.0507779
11
0.259681
21
0.0504256
0
LINE
8
BLACK
6
CONTINUOUS
10
0.259681
20
0.0504256
11
0.259168
21
0.0505162
0
LINE
8
BLACK
6
CONTINUOUS
10
0.259168
20
0.0505162
11
0.258655
21
0.0504256
0
LINE
8
BLACK
6
CONTINUOUS
10
0.258655
20
0.0504256
11
0.257685
21
0.050778
0
LINE
8
BLACK
6
CONTINUOUS
10
0.257685
20
0.050778
11
0.25667
21
0.0509573
0
LINE
8
BLACK
6
CONTINUOUS
10
0.25667
20
0.0509573
11
0.256271
21
0.0512922
0
LINE
8
BLACK
6
CONTINUOUS
10
0.256271
20
0.0512922
11
0.255782
21
0.0514702
0
LINE
8
BLACK
6
CONTINUOUS
10
0.255782
20
0.0514702
11
0.255119
21
0.05226
0
LINE
8
BLACK
6
CONTINUOUS
10
0.255119
20
0.05226
11
0.254329
21
0.052923
0
LINE
8
BLACK
6
CONTINUOUS
10
0.254329
20
0.052923
11
0.254151
21
0.0534125
0
LINE
8
BLACK
6
CONTINUOUS
10
0.254151
20
0.0534125
11
0.253816
21
0.0538114
0
LINE
8
BLACK
6
CONTINUOUS
10
0.253816
20
0.0538114
11
0.245388
21
0.0718716
0
LINE
8
BLACK
6
CONTINUOUS
10
0.245388
20
0.0718716
11
0.245388
21
0.0394359
0
LINE
8
BLACK
6
CONTINUOUS
10
0.245388
20
0.0394359
11
0.244597
21
0.0364831
0
LINE
8
BLACK
6
CONTINUOUS
10
0.244597
20
0.0364831
11
0.242435
21
0.0343216
0
LINE
8
BLACK
6
CONTINUOUS
10
0.242435
20
0.0343216
11
0.239483
21
0.0335304
0
LINE
8
BLACK
6
CONTINUOUS
10
0.239483
20
0.0335304
11
0.23653
21
0.0343216
0
LINE
8
BLACK
6
CONTINUOUS
10
0.23653
20
0.0343216
11
0.234368
21
0.0364831
0
LINE
8
BLACK
6
CONTINUOUS
10
0.234368
20
0.0364831
11
0.233577
21
0.0394359
0
LINE
8
BLACK
6
CONTINUOUS
10
0.233577
20
0.0394359
11
0.233577
21
0.098491
0
LINE
8
BLACK
6
CONTINUOUS
10
0.233577
20
0.098491
11
0.233645
21
0.098745
0
LINE
8
BLACK
6
CONTINUOUS
10
0.233645
20
0.098745
11
0.233599
21
0.099004
0
LINE
8
BLACK
6
CONTINUOUS
10
0.233599
20
0.099004
11
0.234037
21
0.100207
0
LINE
8
BLACK
6
CONTINUOUS
10
0.234037
20
0.100207
11
0.234368
21
0.101444
0
LINE
8
BLACK
6
CONTINUOUS
10
0.234368
20
0.101444
11
0.234554
21
0.10163
0
LINE
8
BLACK
6
CONTINUOUS
10
0.234554
20
0.10163
11
0.234644
21
0.101877
0
LINE
8
BLACK
6
CONTINUOUS
10
0.234644
20
0.101877
11
0.235624
21
0.1027
0
LINE
8
BLACK
6
CONTINUOUS
10
0.235624
20
0.1027
11
0.23653
21
0.103605
0
LINE
8
BLACK
6
CONTINUOUS
10
0.23653
20
0.103605
11
0.236784
21
0.103673
0
LINE
8
BLACK
6
CONTINUOUS
10
0.236784
20
0.103673
11
0.236985
21
0.103842
0
LINE
8
BLACK
6
CONTINUOUS
10
0.236985
20
0.103842
11
0.238246
21
0.104065
0
LINE
8
BLACK
6
CONTINUOUS
10
0.238246
20
0.104065
11
0.239483
21
0.104397
0
LINE
8
BLACK
6
CONTINUOUS
10
0.239483
20
0.104397
11
0.239736
21
0.104329
0
LINE
8
BLACK
6
CONTINUOUS
10
0.239736
20
0.104329
11
0.239995
21
0.104374
0
LINE
8
BLACK
6
CONTINUOUS
10
0.239995
20
0.104374
11
0.241199
21
0.103937
0
LINE
8
BLACK
6
CONTINUOUS
10
0.241199
20
0.103937
11
0.242435
21
0.103605
0
LINE
8
BLACK
6
CONTINUOUS
10
0.242435
20
0.103605
11
0.242621
21
0.103419
0
LINE
8
BLACK
6
CONTINUOUS
10
0.242621
20
0.103419
11
0.242868
21
0.10333
0
LINE
8
BLACK
6
CONTINUOUS
10
0.242868
20
0.10333
11
0.243691
21
0.102349
0
LINE
8
BLACK
6
CONTINUOUS
10
0.243691
20
0.102349
11
0.244597
21
0.101444
0
LINE
8
BLACK
6
CONTINUOUS
10
0.244597
20
0.101444
11
0.244665
21
0.10119
0
LINE
8
BLACK
6
CONTINUOUS
10
0.244665
20
0.10119
11
0.244834
21
0.100988
0
LINE
8
BLACK
6
CONTINUOUS
10
0.244834
20
0.100988
11
0.259168
21
0.0702736
0
LINE
8
BLACK
6
CONTINUOUS
10
0.259168
20
0.0702736
11
0.273501
21
0.100988
0
LINE
8
BLACK
6
CONTINUOUS
10
0.273501
20
0.100988
11
0.27367
21
0.10119
0
LINE
8
BLACK
6
CONTINUOUS
10
0.27367
20
0.10119
11
0.273738
21
0.101444
0
LINE
8
BLACK
6
CONTINUOUS
10
0.273738
20
0.101444
11
0.274644
21
0.102349
0
LINE
8
BLACK
6
CONTINUOUS
10
0.274644
20
0.102349
11
0.275467
21
0.10333
0
LINE
8
BLACK
6
CONTINUOUS
10
0.275467
20
0.10333
11
0.275714
21
0.103419
0
LINE
8
BLACK
6
CONTINUOUS
10
0.275714
20
0.103419
11
0.2759
21
0.103605
0
LINE
8
BLACK
6
CONTINUOUS
10
0.2759
20
0.103605
11
0.277136
21
0.103937
0
LINE
8
BLACK
6
CONTINUOUS
10
0.277136
20
0.103937
11
0.27834
21
0.104374
0
LINE
8
BLACK
6
CONTINUOUS
10
0.27834
20
0.104374
11
0.278599
21
0.104329
0
LINE
8
BLACK
6
CONTINUOUS
10
0.278599
20
0.104329
11
0.278853
21
0.104397
0
LINE
8
BLACK
6
CONTINUOUS
10
0.278853
20
0.104397
11
0.280089
21
0.104065
0
LINE
8
BLACK
6
CONTINUOUS
10
0.309927
20
0.103605
11
0.312088
21
0.101444
0
LINE
8
BLACK
6
CONTINUOUS
10
0.312088
20
0.101444
11
0.31288
21
0.098491
0
LINE
8
BLACK
6
CONTINUOUS
10
0.31288
20
0.098491
11
0.31288
21
0.0453414
0
LINE
8
BLACK
6
CONTINUOUS
10
0.31288
20
0.0453414
11
0.335096
21
0.0453414
0
LINE
8
BLACK
6
CONTINUOUS
10
0.335096
20
0.0453414
11
0.338048
21
0.0445502
0
LINE
8
BLACK
6
CONTINUOUS
10
0.338048
20
0.0445502
11
0.34021
21
0.0423887
0
LINE
8
BLACK
6
CONTINUOUS
10
0.34021
20
0.0423887
11
0.340698
21
0.0405684
0
LINE
8
BLACK
6
CONTINUOUS
10
0.340698
20
0.0405684
11
0.340742
21
0.0413034
0
LINE
8
BLACK
6
CONTINUOUS
10
0.340742
20
0.0413034
11
0.360427
21
0.100359
0
LINE
8
BLACK
6
CONTINUOUS
10
0.360427
20
0.100359
11
0.36108
21
0.101348
0
LINE
8
BLACK
6
CONTINUOUS
10
0.36108
20
0.101348
11
0.361611
21
0.102409
0
LINE
8
BLACK
6
CONTINUOUS
10
0.361611
20
0.102409
11
0.361912
21
0.102608
0
LINE
8
BLACK
6
CONTINUOUS
10
0.361912
20
0.102608
11
0.362111
21
0.10291
0
LINE
8
BLACK
6
CONTINUOUS
10
0.362111
20
0.10291
11
0.363172
21
0.10344
0
LINE
8
BLACK
6
CONTINUOUS
10
0.363172
20
0.10344
11
0.364162
21
0.104093
0
LINE
8
BLACK
6
CONTINUOUS
10
0.364162
20
0.104093
11
0.364522
21
0.104115
0
LINE
8
BLACK
6
CONTINUOUS
10
0.364522
20
0.104115
11
0.364845
21
0.104277
0
LINE
8
BLACK
6
CONTINUOUS
10
0.364845
20
0.104277
11
0.366029
21
0.104206
0
LINE
8
BLACK
6
CONTINUOUS
10
0.366029
20
0.104206
11
0.367213
21
0.104277
0
LINE
8
BLACK
6
CONTINUOUS
10
0.367213
20
0.104277
11
0.367536
21
0.104115
0
LINE
8
BLACK
6
CONTINUOUS
10
0.367536
20
0.104115
11
0.367897
21
0.104094
0
LINE
8
BLACK
6
CONTINUOUS
10
0.367897
20
0.104094
11
0.368887
21
0.10344
0
LINE
8
BLACK
6
CONTINUOUS
10
0.368887
20
0.10344
11
0.369947
21
0.10291
0
LINE
8
BLACK
6
CONTINUOUS
10
0.369947
20
0.10291
11
0.370146
21
0.102608
0
LINE
8
BLACK
6
CONTINUOUS
10
0.370146
20
0.102608
11
0.370448
21
0.102409
0
LINE
8
BLACK
6
CONTINUOUS
10
0.370448
20
0.102409
11
0.370978
21
0.101348
0
LINE
8
BLACK
6
CONTINUOUS
10
0.370978
20
0.101348
11
0.371632
21
0.100359
0
LINE
8
BLACK
6
CONTINUOUS
10
0.371632
20
0.100359
11
0.391317
21
0.0413034
0
LINE
8
BLACK
6
CONTINUOUS
10
0.391317
20
0.0413034
11
0.3915
21
0.038252
0
LINE
8
BLACK
6
CONTINUOUS
10
0.3915
20
0.038252
11
0.390133
21
0.0355178
0
LINE
8
BLACK
6
CONTINUOUS
10
0.390133
20
0.0355178
11
0.387582
21
0.0338334
0
LINE
8
BLACK
6
CONTINUOUS
10
0.387582
20
0.0338334
11
0.38453
21
0.0336503
0
LINE
8
BLACK
6
CONTINUOUS
10
0.38453
20
0.0336503
11
0.381796
21
0.0350174
0
LINE
8
BLACK
6
CONTINUOUS
10
0.381796
20
0.0350174
11
0.380112
21
0.0375684
0
LINE
8
BLACK
6
CONTINUOUS
10
0.380112
20
0.0375684
11
0.375834
21
0.0504033
0
LINE
8
BLACK
6
CONTINUOUS
10
0.375834
20
0.0504033
11
0.356225
21
0.0504033
0
LINE
8
BLACK
6
CONTINUOUS
10
0.356225
20
0.0504033
11
0.351947
21
0.0375684
0
LINE
8
BLACK
6
CONTINUOUS
10
0.351947
20
0.0375684
11
0.350262
21
0.0350174
0
LINE
8
BLACK
6
CONTINUOUS
10
0.350262
20
0.0350174
11
0.347528
21
0.0336503
0
LINE
8
BLACK
6
CONTINUOUS
10
0.347528
20
0.0336503
11
0.344477
21
0.0338335
0
LINE
8
BLACK
6
CONTINUOUS
10
0.344477
20
0.0338335
11
0.341926
21
0.0355178
0
LINE
8
BLACK
6
CONTINUOUS
10
0.341926
20
0.0355178
11
0.34064
21
0.0380889
0
LINE
8
BLACK
6
CONTINUOUS
10
0.34064
20
0.0380889
11
0.34021
21
0.0364831
0
LINE
8
BLACK
6
CONTINUOUS
10
0.34021
20
0.0364831
11
0.338048
21
0.0343216
0
LINE
8
BLACK
6
CONTINUOUS
10
0.338048
20
0.0343216
11
0.335096
21
0.0335304
0
LINE
8
BLACK
6
CONTINUOUS
10
0.335096
20
0.0335304
11
0.306974
21
0.0335304
0
LINE
8
BLACK
6
CONTINUOUS
10
0.306974
20
0.0335304
11
0.304021
21
0.0343216
0
LINE
8
BLACK
6
CONTINUOUS
10
0.304021
20
0.0343216
11
0.30186
21
0.0364831
0
LINE
8
BLACK
6
CONTINUOUS
10
0.30186
20
0.0364831
11
0.301069
21
0.0394359
0
LINE
8
BLACK
6
CONTINUOUS
10
0.301069
20
0.0394359
11
0.301069
21
0.098491
0
LINE
8
BLACK
6
CONTINUOUS
10
0.301069
20
0.098491
11
0.30186
21
0.101444
0
LINE
8
BLACK
6
CONTINUOUS
10
0.30186
20
0.101444
11
0.304021
21
0.103605
0
LINE
8
BLACK
6
CONTINUOUS
10
0.304021
20
0.103605
11
0.306974
21
0.104397
0
LINE
8
BLACK
6
CONTINUOUS
10
0.306974
20
0.104397
11
0.309927
21
0.103605
0
LINE
8
BLACK
6
CONTINUOUS
10
0.360162
20
0.0622143
11
0.371897
21
0.0622143
0
LINE
8
BLACK
6
CONTINUOUS
10
0.371897
20
0.0622143
11
0.366029
21
0.0798162
0
LINE
8
BLACK
6
CONTINUOUS
10
0.366029
20
0.0798162
11
0.360162
21
0.0622143
0
LINE
8
BLACK
6
CONTINUOUS
10
0.426395
20
0.104045
11
0.427725
21
0.103773
0
LINE
8
BLACK
6
CONTINUOUS
10
0.427725
20
0.103773
11
0.43335
21
0.100961
0
LINE
8
BLACK
6
CONTINUOUS
10
0.43335
20
0.100961
11
0.434061
21
0.10033
0
LINE
8
BLACK
6
CONTINUOUS
10
0.434061
20
0.10033
11
0.434884
21
0.0998547
0
LINE
8
BLACK
6
CONTINUOUS
10
0.434884
20
0.0998547
11
0.437697
21
0.0970426
0
LINE
8
BLACK
6
CONTINUOUS
10
0.437697
20
0.0970426
11
0.438172
21
0.0962191
0
LINE
8
BLACK
6
CONTINUOUS
10
0.438172
20
0.0962191
11
0.438803
21
0.0955078
0
LINE
8
BLACK
6
CONTINUOUS
10
0.438803
20
0.0955078
11
0.441615
21
0.0898835
0
LINE
8
BLACK
6
CONTINUOUS
10
0.441615
20
0.0898835
11
0.441887
21
0.0885535
0
LINE
8
BLACK
6
CONTINUOUS
10
0.441887
20
0.0885535
11
0.442238
21
0.0872424
0
LINE
8
BLACK
6
CONTINUOUS
10
0.442238
20
0.0872424
11
0.442238
21
0.0816181
0
LINE
8
BLACK
6
CONTINUOUS
10
0.442238
20
0.0816181
11
0.441887
21
0.0803071
0
LINE
8
BLACK
6
CONTINUOUS
10
0.441887
20
0.0803071
11
0.441615
21
0.078977
0
LINE
8
BLACK
6
CONTINUOUS
10
0.441615
20
0.078977
11
0.438803
21
0.0733528
0
LINE
8
BLACK
6
CONTINUOUS
10
0.438803
20
0.0733528
11
0.438172
21
0.0726415
0
LINE
8
BLACK
6
CONTINUOUS
10
0.438172
20
0.0726415
11
0.437697
21
0.071818
0
LINE
8
BLACK
6
CONTINUOUS
10
0.437697
20
0.071818
11
0.437643
21
0.0717643
0
LINE
8
BLACK
6
CONTINUOUS
10
0.437643
20
0.0717643
11
0.437697
21
0.0717332
0
LINE
8
BLACK
6
CONTINUOUS
10
0.437697
20
0.0717332
11
0.440509
21
0.0689211
0
LINE
8
BLACK
6
CONTINUOUS
10
0.440509
20
0.0689211
11
0.440984
21
0.0680977
0
LINE
8
BLACK
6
CONTINUOUS
10
0.440984
20
0.0680977
11
0.441615
21
0.0673863
0
LINE
8
BLACK
6
CONTINUOUS
10
0.441615
20
0.0673863
11
0.444427
21
0.0617619
0
LINE
8
BLACK
6
CONTINUOUS
10
0.444427
20
0.0617619
11
0.444699
21
0.0604322
0
LINE
8
BLACK
6
CONTINUOUS
10
0.444699
20
0.0604322
11
0.445051
21
0.0591209
0
LINE
8
BLACK
6
CONTINUOUS
10
0.445051
20
0.0591209
11
0.445051
21
0.0506845
0
LINE
8
BLACK
6
CONTINUOUS
10
0.445051
20
0.0506845
11
0.444699
21
0.0493733
0
LINE
8
BLACK
6
CONTINUOUS
10
0.444699
20
0.0493733
11
0.444427
21
0.0480435
0
LINE
8
BLACK
6
CONTINUOUS
10
0.444427
20
0.0480435
11
0.441615
21
0.0424192
0
LINE
8
BLACK
6
CONTINUOUS
10
0.441615
20
0.0424192
11
0.440984
21
0.0417078
0
LINE
8
BLACK
6
CONTINUOUS
10
0.440984
20
0.0417078
11
0.440509
21
0.0408844
0
LINE
8
BLACK
6
CONTINUOUS
10
0.440509
20
0.0408844
11
0.437697
21
0.0380722
0
LINE
8
BLACK
6
CONTINUOUS
10
0.437697
20
0.0380722
11
0.436873
21
0.0375969
0
LINE
8
BLACK
6
CONTINUOUS
10
0.436873
20
0.0375969
11
0.436162
21
0.036966
0
LINE
8
BLACK
6
CONTINUOUS
10
0.436162
20
0.036966
11
0.430538
21
0.0341539
0
LINE
8
BLACK
6
CONTINUOUS
10
0.430538
20
0.0341539
11
0.429208
21
0.0338817
0
LINE
8
BLACK
6
CONTINUOUS
10
0.429208
20
0.0338817
11
0.427896
21
0.0335304
0
LINE
8
BLACK
6
CONTINUOUS
10
0.427896
20
0.0335304
11
0.405399
21
0.0335304
0
LINE
8
BLACK
6
CONTINUOUS
10
0.405399
20
0.0335304
11
0.402447
21
0.0343216
0
LINE
8
BLACK
6
CONTINUOUS
10
0.402447
20
0.0343216
11
0.400285
21
0.0364831
0
LINE
8
BLACK
6
CONTINUOUS
10
0.400285
20
0.0364831
11
0.399494
21
0.0394359
0
LINE
8
BLACK
6
CONTINUOUS
10
0.399494
20
0.0394359
11
0.399494
21
0.098491
0
LINE
8
BLACK
6
CONTINUOUS
10
0.399494
20
0.098491
11
0.400285
21
0.101444
0
LINE
8
BLACK
6
CONTINUOUS
10
0.400285
20
0.101444
11
0.402447
21
0.103605
0
LINE
8
BLACK
6
CONTINUOUS
10
0.402447
20
0.103605
11
0.405399
21
0.104397
0
LINE
8
BLACK
6
CONTINUOUS
10
0.405399
20
0.104397
11
0.425084
21
0.104397
0
LINE
8
BLACK
6
CONTINUOUS
10
0.425084
20
0.104397
11
0.426395
21
0.104045
0
LINE
8
BLACK
6
CONTINUOUS
10
0.411305
20
0.0453414
11
0.426502
21
0.0453414
0
LINE
8
BLACK
6
CONTINUOUS
10
0.426502
20
0.0453414
11
0.430023
21
0.0471015
0
LINE
8
BLACK
6
CONTINUOUS
10
0.430023
20
0.0471015
11
0.431479
21
0.0485584
0
LINE
8
BLACK
6
CONTINUOUS
10
0.431479
20
0.0485584
11
0.43324
21
0.0520786
0
LINE
8
BLACK
6
CONTINUOUS
10
0.43324
20
0.0520786
11
0.43324
21
0.0577269
0
LINE
8
BLACK
6
CONTINUOUS
10
0.43324
20
0.0577269
11
0.431479
21
0.0612471
0
LINE
8
BLACK
6
CONTINUOUS
10
0.431479
20
0.0612471
11
0.430331
21
0.0623958
0
LINE
8
BLACK
6
CONTINUOUS
10
0.430331
20
0.0623958
11
0.424126
21
0.064464
0
LINE
8
BLACK
6
CONTINUOUS
10
0.424126
20
0.064464
11
0.411305
21
0.064464
0
LINE
8
BLACK
6
CONTINUOUS
10
0.411305
20
0.064464
11
0.411305
21
0.0453414
0
LINE
8
BLACK
6
CONTINUOUS
10
0.411305
20
0.076275
11
0.42369
21
0.076275
0
LINE
8
BLACK
6
CONTINUOUS
10
0.42369
20
0.076275
11
0.42721
21
0.0780352
0
LINE
8
BLACK
6
CONTINUOUS
10
0.42721
20
0.0780352
11
0.428667
21
0.079492
0
LINE
8
BLACK
6
CONTINUOUS
10
0.428667
20
0.079492
11
0.430427
21
0.0830122
0
LINE
8
BLACK
6
CONTINUOUS
10
0.430427
20
0.0830122
11
0.430427
21
0.0858483
0
LINE
8
BLACK
6
CONTINUOUS
10
0.430427
20
0.0858483
11
0.428667
21
0.0893685
0
LINE
8
BLACK
6
CONTINUOUS
10
0.428667
20
0.0893685
11
0.42721
21
0.0908254
0
LINE
8
BLACK
6
CONTINUOUS
10
0.42721
20
0.0908254
11
0.42369
21
0.0925855
0
LINE
8
BLACK
6
CONTINUOUS
10
0.42369
20
0.0925855
11
0.411305
21
0.0925855
0
LINE
8
BLACK
6
CONTINUOUS
10
0.411305
20
0.0925855
11
0.411305
21
0.076275
0
LINE
8
BLACK
6
CONTINUOUS
10
0.465205
20
0.0507645
11
0.465983
21
0.0507645
0
LINE
8
BLACK
6
CONTINUOUS
10
0.465983
20
0.0507645
11
0.465983
21
0.0507645
0
LINE
8
BLACK
6
CONTINUOUS
10
0.465983
20
0.0507645
11
0.466656
21
0.0503758
0
LINE
8
BLACK
6
CONTINUOUS
10
0.466656
20
0.0503758
11
0.467407
21
0.0501745
0
LINE
8
BLACK
6
CONTINUOUS
10
0.467407
20
0.0501745
11
0.467957
21
0.0496248
0
LINE
8
BLACK
6
CONTINUOUS
10
0.467957
20
0.0496248
11
0.46863
21
0.0492361
0
LINE
8
BLACK
6
CONTINUOUS
10
0.46863
20
0.0492361
11
0.46863
21
0.049236
0
LINE
8
BLACK
6
CONTINUOUS
10
0.46863
20
0.049236
11
0.471442
21
0.0464239
0
LINE
8
BLACK
6
CONTINUOUS
10
0.471442
20
0.0464239
11
0.472971
21
0.0437765
0
LINE
8
BLACK
6
CONTINUOUS
10
0.472971
20
0.0437765
11
0.472971
21
0.0437765
0
LINE
8
BLACK
6
CONTINUOUS
10
0.472971
20
0.0437765
11
0.472971
21
0.0407195
0
LINE
8
BLACK
6
CONTINUOUS
10
0.472971
20
0.0407195
11
0.47223
21
0.0394359
0
LINE
8
BLACK
6
CONTINUOUS
10
0.47223
20
0.0394359
11
0.471442
21
0.0380722
0
LINE
8
BLACK
6
CONTINUOUS
10
0.471442
20
0.0380722
11
0.471442
21
0.0380722
0
LINE
8
BLACK
6
CONTINUOUS
10
0.471442
20
0.0380722
11
0.46863
21
0.03526
0
LINE
8
BLACK
6
CONTINUOUS
10
0.46863
20
0.03526
11
0.46821
21
0.0350174
0
LINE
8
BLACK
6
CONTINUOUS
10
0.46821
20
0.0350174
11
0.467957
21
0.0348714
0
LINE
8
BLACK
6
CONTINUOUS
10
0.467957
20
0.0348714
11
0.467407
21
0.0343216
0
LINE
8
BLACK
6
CONTINUOUS
10
0.467407
20
0.0343216
11
0.466656
21
0.0341204
0
LINE
8
BLACK
6
CONTINUOUS
10
0.466656
20
0.0341204
11
0.465983
21
0.0337316
0
LINE
8
BLACK
6
CONTINUOUS
10
0.465983
20
0.0337316
11
0.465205
21
0.0337316
0
LINE
8
BLACK
6
CONTINUOUS
10
0.465205
20
0.0337316
11
0.464454
21
0.0335304
0
LINE
8
BLACK
6
CONTINUOUS
10
0.464454
20
0.0335304
11
0.463703
21
0.0337316
0
LINE
8
BLACK
6
CONTINUOUS
10
0.463703
20
0.0337316
11
0.462926
21
0.0337316
0
LINE
8
BLACK
6
CONTINUOUS
10
0.462926
20
0.0337316
11
0.462926
21
0.0337316
0
LINE
8
BLACK
6
CONTINUOUS
10
0.462926
20
0.0337316
11
0.462253
21
0.0341204
0
LINE
8
BLACK
6
CONTINUOUS
10
0.462253
20
0.0341204
11
0.461502
21
0.0343216
0
LINE
8
BLACK
6
CONTINUOUS
10
0.461502
20
0.0343216
11
0.460952
21
0.0348714
0
LINE
8
BLACK
6
CONTINUOUS
10
0.460952
20
0.0348714
11
0.460699
21
0.0350174
0
LINE
8
BLACK
6
CONTINUOUS
10
0.460699
20
0.0350174
11
0.460279
21
0.0352601
0
LINE
8
BLACK
6
CONTINUOUS
10
0.460279
20
0.0352601
11
0.457466
21
0.0380722
0
LINE
8
BLACK
6
CONTINUOUS
10
0.457466
20
0.0380722
11
0.456679
21
0.0394359
0
LINE
8
BLACK
6
CONTINUOUS
10
0.456679
20
0.0394359
11
0.455938
21
0.0407195
0
LINE
8
BLACK
6
CONTINUOUS
10
0.455938
20
0.0407195
11
0.455938
21
0.0437765
0
LINE
8
BLACK
6
CONTINUOUS
10
0.455938
20
0.0437765
11
0.455938
21
0.0437765
0
LINE
8
BLACK
6
CONTINUOUS
10
0.455938
20
0.0437765
11
0.457466
21
0.0464239
0
LINE
8
BLACK
6
CONTINUOUS
10
0.457466
20
0.0464239
11
0.457466
21
0.0464239
0
LINE
8
BLACK
6
CONTINUOUS
10
0.457466
20
0.0464239
11
0.460279
21
0.049236
0
LINE
8
BLACK
6
CONTINUOUS
10
0.460279
20
0.049236
11
0.460279
21
0.049236
0
LINE
8
BLACK
6
CONTINUOUS
10
0.460279
20
0.049236
11
0.460279
21
0.049236
0
LINE
8
BLACK
6
CONTINUOUS
10
0.460279
20
0.049236
11
0.460952
21
0.0496248
0
LINE
8
BLACK
6
CONTINUOUS
10
0.460952
20
0.0496248
11
0.461502
21
0.0501745
0
LINE
8
BLACK
6
CONTINUOUS
10
0.461502
20
0.0501745
11
0.462253
21
0.0503757
0
LINE
8
BLACK
6
CONTINUOUS
10
0.462253
20
0.0503757
11
0.462926
21
0.0507645
0
LINE
8
BLACK
6
CONTINUOUS
10
0.462926
20
0.0507645
11
0.463703
21
0.0507645
0
LINE
8
BLACK
6
CONTINUOUS
10
0.463703
20
0.0507645
11
0.464454
21
0.0509657
0
LINE
8
BLACK
6
CONTINUOUS
10
0.464454
20
0.0509657
11
0.465205
21
0.0507645
0
LINE
8
BLACK
6
CONTINUOUS
10
0.513572
20
0.0843602
11
0.514902
21
0.084088
0
LINE
8
BLACK
6
CONTINUOUS
10
0.514902
20
0.084088
11
0.520526
21
0.0812759
0
LINE
8
BLACK
6
CONTINUOUS
10
0.520526
20
0.0812759
11
0.522814
21
0.0792477
0
LINE
8
BLACK
6
CONTINUOUS
10
0.522814
20
0.0792477
11
0.52378
21
0.0763476
0
LINE
8
BLACK
6
CONTINUOUS
10
0.52378
20
0.0763476
11
0.523167
21
0.0733528
0
LINE
8
BLACK
6
CONTINUOUS
10
0.523167
20
0.0733528
11
0.521139
21
0.0710656
0
LINE
8
BLACK
6
CONTINUOUS
10
0.521139
20
0.0710656
11
0.518239
21
0.0700989
0
LINE
8
BLACK
6
CONTINUOUS
10
0.518239
20
0.0700989
11
0.515244
21
0.0707118
0
LINE
8
BLACK
6
CONTINUOUS
10
0.515244
20
0.0707118
11
0.510867
21
0.0729005
0
LINE
8
BLACK
6
CONTINUOUS
10
0.510867
20
0.0729005
11
0.502406
21
0.0729005
0
LINE
8
BLACK
6
CONTINUOUS
10
0.502406
20
0.0729005
11
0.498886
21
0.0711404
0
LINE
8
BLACK
6
CONTINUOUS
10
0.498886
20
0.0711404
11
0.497429
21
0.0696835
0
LINE
8
BLACK
6
CONTINUOUS
10
0.497429
20
0.0696835
11
0.495669
21
0.0661633
0
LINE
8
BLACK
6
CONTINUOUS
10
0.495669
20
0.0661633
11
0.495669
21
0.0520786
0
LINE
8
BLACK
6
CONTINUOUS
10
0.495669
20
0.0520786
11
0.497429
21
0.0485584
0
LINE
8
BLACK
6
CONTINUOUS
10
0.497429
20
0.0485584
11
0.498886
21
0.0471015
0
LINE
8
BLACK
6
CONTINUOUS
10
0.498886
20
0.0471015
11
0.502406
21
0.0453414
0
LINE
8
BLACK
6
CONTINUOUS
10
0.502406
20
0.0453414
11
0.510867
21
0.0453414
0
LINE
8
BLACK
6
CONTINUOUS
10
0.510867
20
0.0453414
11
0.515244
21
0.0475301
0
LINE
8
BLACK
6
CONTINUOUS
10
0.515244
20
0.0475301
11
0.518239
21
0.048143
0
LINE
8
BLACK
6
CONTINUOUS
10
0.518239
20
0.048143
11
0.521139
21
0.0471763
0
LINE
8
BLACK
6
CONTINUOUS
10
0.521139
20
0.0471763
11
0.523167
21
0.044889
0
LINE
8
BLACK
6
CONTINUOUS
10
0.523167
20
0.044889
11
0.52378
21
0.0418942
0
LINE
8
BLACK
6
CONTINUOUS
10
0.52378
20
0.0418942
11
0.522814
21
0.0389941
0
LINE
8
BLACK
6
CONTINUOUS
10
0.522814
20
0.0389941
11
0.520526
21
0.036966
0
LINE
8
BLACK
6
CONTINUOUS
10
0.520526
20
0.036966
11
0.514902
21
0.0341539
0
LINE
8
BLACK
6
CONTINUOUS
10
0.514902
20
0.0341539
11
0.513572
21
0.0338818
0
LINE
8
BLACK
6
CONTINUOUS
10
0.513572
20
0.0338818
11
0.512261
21
0.0335304
0
LINE
8
BLACK
6
CONTINUOUS
10
0.512261
20
0.0335304
11
0.501012
21
0.0335304
0
LINE
8
BLACK
6
CONTINUOUS
10
0.501012
20
0.0335304
11
0.499701
21
0.0338818
0
LINE
8
BLACK
6
CONTINUOUS
10
0.499701
20
0.0338818
11
0.498371
21
0.0341539
0
LINE
8
BLACK
6
CONTINUOUS
10
0.498371
20
0.0341539
11
0.492747
21
0.036966
0
LINE
8
BLACK
6
CONTINUOUS
10
0.492747
20
0.036966
11
0.492036
21
0.0375969
0
LINE
8
BLACK
6
CONTINUOUS
10
0.492036
20
0.0375969
11
0.491212
21
0.0380722
0
LINE
8
BLACK
6
CONTINUOUS
10
0.491212
20
0.0380722
11
0.4884
21
0.0408844
0
LINE
8
BLACK
6
CONTINUOUS
10
0.4884
20
0.0408844
11
0.487925
21
0.0417078
0
LINE
8
BLACK
6
CONTINUOUS
10
0.487925
20
0.0417078
11
0.487294
21
0.0424192
0
LINE
8
BLACK
6
CONTINUOUS
10
0.487294
20
0.0424192
11
0.484482
21
0.0480435
0
LINE
8
BLACK
6
CONTINUOUS
10
0.484482
20
0.0480435
11
0.48421
21
0.0493733
0
LINE
8
BLACK
6
CONTINUOUS
10
0.48421
20
0.0493733
11
0.483858
21
0.0506845
0
LINE
8
BLACK
6
CONTINUOUS
10
0.483858
20
0.0506845
11
0.483858
21
0.0675574
0
LINE
8
BLACK
6
CONTINUOUS
10
0.483858
20
0.0675574
11
0.48421
21
0.0688686
0
LINE
8
BLACK
6
CONTINUOUS
10
0.48421
20
0.0688686
11
0.484482
21
0.0701984
0
LINE
8
BLACK
6
CONTINUOUS
10
0.484482
20
0.0701984
11
0.487294
21
0.0758227
0
LINE
8
BLACK
6
CONTINUOUS
10
0.487294
20
0.0758227
11
0.487925
21
0.0765341
0
LINE
8
BLACK
6
CONTINUOUS
10
0.487925
20
0.0765341
11
0.4884
21
0.0773576
0
LINE
8
BLACK
6
CONTINUOUS
10
0.4884
20
0.0773576
11
0.491212
21
0.0801697
0
LINE
8
BLACK
6
CONTINUOUS
10
0.491212
20
0.0801697
11
0.492036
21
0.0806451
0
LINE
8
BLACK
6
CONTINUOUS
10
0.492036
20
0.0806451
11
0.492747
21
0.0812759
0
LINE
8
BLACK
6
CONTINUOUS
10
0.492747
20
0.0812759
11
0.498371
21
0.084088
0
LINE
8
BLACK
6
CONTINUOUS
10
0.498371
20
0.084088
11
0.499701
21
0.0843602
0
LINE
8
BLACK
6
CONTINUOUS
10
0.499701
20
0.0843602
11
0.501012
21
0.0847115
0
LINE
8
BLACK
6
CONTINUOUS
10
0.501012
20
0.0847115
11
0.512261
21
0.0847115
0
LINE
8
BLACK
6
CONTINUOUS
10
0.512261
20
0.0847115
11
0.513572
21
0.0843602
0
LINE
8
BLACK
6
CONTINUOUS
10
0.568917
20
0.0846008
11
0.569342
21
0.0846518
0
LINE
8
BLACK
6
CONTINUOUS
10
0.569342
20
0.0846518
11
0.570373
21
0.0842106
0
LINE
8
BLACK
6
CONTINUOUS
10
0.570373
20
0.0842106
11
0.571457
21
0.0839203
0
LINE
8
BLACK
6
CONTINUOUS
10
0.571457
20
0.0839203
11
0.571759
21
0.0836178
0
LINE
8
BLACK
6
CONTINUOUS
10
0.571759
20
0.0836178
11
0.572152
21
0.0834496
0
LINE
8
BLACK
6
CONTINUOUS
10
0.572152
20
0.0834496
11
0.572825
21
0.082552
0
LINE
8
BLACK
6
CONTINUOUS
10
0.572825
20
0.082552
11
0.573618
21
0.0817587
0
LINE
8
BLACK
6
CONTINUOUS
10
0.573618
20
0.0817587
11
0.573729
21
0.0813455
0
LINE
8
BLACK
6
CONTINUOUS
10
0.573729
20
0.0813455
11
0.573985
21
0.0810032
0
LINE
8
BLACK
6
CONTINUOUS
10
0.573985
20
0.0810032
11
0.574119
21
0.0798895
0
LINE
8
BLACK
6
CONTINUOUS
10
0.574119
20
0.0798895
11
0.574409
21
0.078806
0
LINE
8
BLACK
6
CONTINUOUS
10
0.574409
20
0.078806
11
0.574299
21
0.0783928
0
LINE
8
BLACK
6
CONTINUOUS
10
0.574299
20
0.0783928
11
0.57435
21
0.077968
0
LINE
8
BLACK
6
CONTINUOUS
10
0.57435
20
0.077968
11
0.573909
21
0.0769366
0
LINE
8
BLACK
6
CONTINUOUS
10
0.573909
20
0.0769366
11
0.573618
21
0.0758532
0
LINE
8
BLACK
6
CONTINUOUS
10
0.573618
20
0.0758532
11
0.573316
21
0.0755507
0
LINE
8
BLACK
6
CONTINUOUS
10
0.573316
20
0.0755507
11
0.573148
21
0.0751574
0
LINE
8
BLACK
6
CONTINUOUS
10
0.573148
20
0.0751574
11
0.549721
21
0.0453414
0
LINE
8
BLACK
6
CONTINUOUS
10
0.549721
20
0.0453414
11
0.568504
21
0.0453414
0
LINE
8
BLACK
6
CONTINUOUS
10
0.568504
20
0.0453414
11
0.571457
21
0.0445502
0
LINE
8
BLACK
6
CONTINUOUS
10
0.571457
20
0.0445502
11
0.573618
21
0.0423887
0
LINE
8
BLACK
6
CONTINUOUS
10
0.573618
20
0.0423887
11
0.574409
21
0.0394359
0
LINE
8
BLACK
6
CONTINUOUS
10
0.574409
20
0.0394359
11
0.573618
21
0.0364831
0
LINE
8
BLACK
6
CONTINUOUS
10
0.573618
20
0.0364831
11
0.571457
21
0.0343216
0
LINE
8
BLACK
6
CONTINUOUS
10
0.571457
20
0.0343216
11
0.568504
21
0.0335304
0
LINE
8
BLACK
6
CONTINUOUS
10
0.568504
20
0.0335304
11
0.53757
21
0.0335304
0
LINE
8
BLACK
6
CONTINUOUS
10
0.53757
20
0.0335304
11
0.537157
21
0.0336411
0
LINE
8
BLACK
6
CONTINUOUS
10
0.537157
20
0.0336411
11
0.536732
21
0.0335901
0
LINE
8
BLACK
6
CONTINUOUS
10
0.536732
20
0.0335901
11
0.535701
21
0.0340313
0
LINE
8
BLACK
6
CONTINUOUS
10
0.535701
20
0.0340313
11
0.534618
21
0.0343216
0
LINE
8
BLACK
6
CONTINUOUS
10
0.534618
20
0.0343216
11
0.534315
21
0.0346241
0
LINE
8
BLACK
6
CONTINUOUS
10
0.534315
20
0.0346241
11
0.533922
21
0.0347923
0
LINE
8
BLACK
6
CONTINUOUS
10
0.533922
20
0.0347923
11
0.533249
21
0.03569
0
LINE
8
BLACK
6
CONTINUOUS
10
0.533249
20
0.03569
11
0.532456
21
0.0364831
0
LINE
8
BLACK
6
CONTINUOUS
10
0.532456
20
0.0364831
11
0.532345
21
0.0368964
0
LINE
8
BLACK
6
CONTINUOUS
10
0.532345
20
0.0368964
11
0.532089
21
0.0372387
0
LINE
8
BLACK
6
CONTINUOUS
10
0.532089
20
0.0372387
11
0.531955
21
0.0383524
0
LINE
8
BLACK
6
CONTINUOUS
10
0.531955
20
0.0383524
11
0.531665
21
0.0394359
0
LINE
8
BLACK
6
CONTINUOUS
10
0.531665
20
0.0394359
11
0.531775
21
0.0398491
0
LINE
8
BLACK
6
CONTINUOUS
10
0.531775
20
0.0398491
11
0.531724
21
0.0402739
0
LINE
8
BLACK
6
CONTINUOUS
10
0.531724
20
0.0402739
11
0.532166
21
0.0413053
0
LINE
8
BLACK
6
CONTINUOUS
10
0.532166
20
0.0413053
11
0.532456
21
0.0423887
0
LINE
8
BLACK
6
CONTINUOUS
10
0.532456
20
0.0423887
11
0.532758
21
0.0426912
0
LINE
8
BLACK
6
CONTINUOUS
10
0.532758
20
0.0426912
11
0.532927
21
0.0430844
0
LINE
8
BLACK
6
CONTINUOUS
10
0.532927
20
0.0430844
11
0.556354
21
0.0729005
0
LINE
8
BLACK
6
CONTINUOUS
10
0.556354
20
0.0729005
11
0.53757
21
0.0729005
0
LINE
8
BLACK
6
CONTINUOUS
10
0.53757
20
0.0729005
11
0.534618
21
0.0736917
0
LINE
8
BLACK
6
CONTINUOUS
10
0.534618
20
0.0736917
11
0.532456
21
0.0758532
0
LINE
8
BLACK
6
CONTINUOUS
10
0.532456
20
0.0758532
11
0.531665
21
0.078806
0
LINE
8
BLACK
6
CONTINUOUS
10
0.531665
20
0.078806
11
0.532456
21
0.0817587
0
LINE
8
BLACK
6
CONTINUOUS
10
0.532456
20
0.0817587
11
0.534618
21
0.0839203
0
LINE
8
BLACK
6
CONTINUOUS
10
0.534618
20
0.0839203
11
0.53757
21
0.0847115
0
LINE
8
BLACK
6
CONTINUOUS
10
0.53757
20
0.0847115
11
0.568504
21
0.0847115
0
LINE
8
BLACK
6
CONTINUOUS
10
0.568504
20
0.0847115
11
0.568917
21
0.0846008
0
CIRCLE
8
BLACK
10
0
20
0
40
0.00688976
0
CIRCLE
8
BLACK
10
1.6
20
0
40
0.00688976
0
CIRCLE
8
BLACK
10
0
20
-0.8
40
0.00688976
  0
ENDSEC
  0
EOF
