  0
SECTION
  2
HEADER
  9
$ANGBASE
  50
0.0
  9
$ANGDIR
  70
1
  9
$MEASUREMENT
  70
0
  0
ENDSEC
  0
SECTION
  2
TABLES
  0
TABLE
  2
LTYPE
  70
4
  0
LTYPE
  5
40F
  2
CONTINUOUS
  70
0
  3
Solid line
  72
65
  73
0
  40
0.0
  0
LTYPE
  5
410
  2
DASHDOT
 70
0
  3
Dash Dot ____ _ ____ _
 72
65
 73
4
 40
2.0
 49
1.25
 49
-0.25
 49
0.25
 49
-0.25
  0
LTYPE
  5
411
  2
DASHED
 70
0
  3
Dashed __ __ __ __ __
 72
65
 73
2
 40
0.75
 49
0.5
 49
-0.25
  0
LTYPE
  5
43B
  2
DOTTED
 70
0
  3
Dotted .  .  .  .
 72
65
 73
2
 40
0.2
 49
0.0
 49
-0.2
  0
ENDTAB
  0
TABLE
  2
STYLE
  70
4
  0
STYLE
  2
KICAD
  70
0
  40
0
  41
1
  42
1
  50
0
  71
0
  3
isocp.shx
  0
STYLE
  2
KICADB
  70
0
  40
0
  41
1
  42
1
  50
0
  71
0
  3
isocp.shx
  0
STYLE
  2
KICADI
  70
0
  40
0
  41
1
  42
1
  50
15
  71
0
  3
isocp.shx
  0
STYLE
  2
KICADBI
  70
0
  40
0
  41
1
  42
1
  50
15
  71
0
  3
isocp.shx
  0
ENDTAB
  0
TABLE
  2
LAYER
  70
1
  0
LAYER
  2
BLACK
  70
0
  62
7
  6
CONTINUOUS
  0
ENDTAB
  0
ENDSEC
  0
SECTION
  2
ENTITIES
0
LINE
8
BLACK
6
CONTINUOUS
10
0.161407
20
-0.393572
11
0.161536
21
-0.393549
0
LINE
8
BLACK
6
CONTINUOUS
10
0.161536
20
-0.393549
11
0.16165
21
-0.393614
0
LINE
8
BLACK
6
CONTINUOUS
10
0.16165
20
-0.393614
11
0.162034
21
-0.393682
0
LINE
8
BLACK
6
CONTINUOUS
10
0.162034
20
-0.393682
11
0.162621
21
-0.394175
0
LINE
8
BLACK
6
CONTINUOUS
10
0.162621
20
-0.394175
11
0.163286
21
-0.394559
0
LINE
8
BLACK
6
CONTINUOUS
10
0.163286
20
-0.394559
11
0.163377
21
-0.394809
0
LINE
8
BLACK
6
CONTINUOUS
10
0.163377
20
-0.394809
11
0.163581
21
-0.39498
0
LINE
8
BLACK
6
CONTINUOUS
10
0.163581
20
-0.39498
11
0.163714
21
-0.395736
0
LINE
8
BLACK
6
CONTINUOUS
10
0.163714
20
-0.395736
11
0.163976
21
-0.396457
0
LINE
8
BLACK
6
CONTINUOUS
10
0.163976
20
-0.396457
11
0.163976
21
-0.561811
0
LINE
8
BLACK
6
CONTINUOUS
10
0.163976
20
-0.561811
11
0.163909
21
-0.562195
0
LINE
8
BLACK
6
CONTINUOUS
10
0.163909
20
-0.562195
11
0.163932
21
-0.562324
0
LINE
8
BLACK
6
CONTINUOUS
10
0.163932
20
-0.562324
11
0.163866
21
-0.562437
0
LINE
8
BLACK
6
CONTINUOUS
10
0.163866
20
-0.562437
11
0.163798
21
-0.562821
0
LINE
8
BLACK
6
CONTINUOUS
10
0.163798
20
-0.562821
11
0.163305
21
-0.563409
0
LINE
8
BLACK
6
CONTINUOUS
10
0.163305
20
-0.563409
11
0.162922
21
-0.564073
0
LINE
8
BLACK
6
CONTINUOUS
10
0.162922
20
-0.564073
11
0.162671
21
-0.564164
0
LINE
8
BLACK
6
CONTINUOUS
10
0.162671
20
-0.564164
11
0.1625
21
-0.564368
0
LINE
8
BLACK
6
CONTINUOUS
10
0.1625
20
-0.564368
11
0.161744
21
-0.564501
0
LINE
8
BLACK
6
CONTINUOUS
10
0.161744
20
-0.564501
11
0.161024
21
-0.564764
0
LINE
8
BLACK
6
CONTINUOUS
10
0.161024
20
-0.564764
11
0.0665354
21
-0.564764
0
LINE
8
BLACK
6
CONTINUOUS
10
0.0665354
20
-0.564764
11
0.0661519
21
-0.564696
0
LINE
8
BLACK
6
CONTINUOUS
10
0.0661519
20
-0.564696
11
0.0660227
21
-0.564719
0
LINE
8
BLACK
6
CONTINUOUS
10
0.0660227
20
-0.564719
11
0.0659091
21
-0.564653
0
LINE
8
BLACK
6
CONTINUOUS
10
0.0659091
20
-0.564653
11
0.0655255
21
-0.564586
0
LINE
8
BLACK
6
CONTINUOUS
10
0.0655255
20
-0.564586
11
0.0649378
21
-0.564093
0
LINE
8
BLACK
6
CONTINUOUS
10
0.0649378
20
-0.564093
11
0.0642735
21
-0.563709
0
LINE
8
BLACK
6
CONTINUOUS
10
0.0642735
20
-0.563709
11
0.0641824
21
-0.563459
0
LINE
8
BLACK
6
CONTINUOUS
10
0.0641824
20
-0.563459
11
0.0639783
21
-0.563287
0
LINE
8
BLACK
6
CONTINUOUS
10
0.0639783
20
-0.563287
11
0.063845
21
-0.562532
0
LINE
8
BLACK
6
CONTINUOUS
10
0.063845
20
-0.562532
11
0.0635827
21
-0.561811
0
LINE
8
BLACK
6
CONTINUOUS
10
0.0635827
20
-0.561811
11
0.0635827
21
-0.396457
0
LINE
8
BLACK
6
CONTINUOUS
10
0.0635827
20
-0.396457
11
0.0636503
21
-0.396073
0
LINE
8
BLACK
6
CONTINUOUS
10
0.0636503
20
-0.396073
11
0.0636275
21
-0.395944
0
LINE
8
BLACK
6
CONTINUOUS
10
0.0636275
20
-0.395944
11
0.0636931
21
-0.39583
0
LINE
8
BLACK
6
CONTINUOUS
10
0.0636931
20
-0.39583
11
0.0637607
21
-0.395447
0
LINE
8
BLACK
6
CONTINUOUS
10
0.0637607
20
-0.395447
11
0.0642539
21
-0.394859
0
LINE
8
BLACK
6
CONTINUOUS
10
0.0642539
20
-0.394859
11
0.0646374
21
-0.394195
0
LINE
8
BLACK
6
CONTINUOUS
10
0.0646374
20
-0.394195
11
0.0648878
21
-0.394104
0
LINE
8
BLACK
6
CONTINUOUS
10
0.0648878
20
-0.394104
11
0.0650591
21
-0.3939
0
LINE
8
BLACK
6
CONTINUOUS
10
0.0650591
20
-0.3939
11
0.0658146
21
-0.393766
0
LINE
8
BLACK
6
CONTINUOUS
10
0.0658146
20
-0.393766
11
0.0665354
21
-0.393504
0
LINE
8
BLACK
6
CONTINUOUS
10
0.0665354
20
-0.393504
11
0.161024
21
-0.393504
0
LINE
8
BLACK
6
CONTINUOUS
10
0.161024
20
-0.393504
11
0.161407
21
-0.393572
0
LINE
8
BLACK
6
CONTINUOUS
10
0.0694882
20
-0.399409
11
0.0694882
21
-0.558858
0
LINE
8
BLACK
6
CONTINUOUS
10
0.0694882
20
-0.558858
11
0.158071
21
-0.558858
0
LINE
8
BLACK
6
CONTINUOUS
10
0.158071
20
-0.558858
11
0.158071
21
-0.399409
0
LINE
8
BLACK
6
CONTINUOUS
10
0.158071
20
-0.399409
11
0.0694882
21
-0.399409
0
LINE
8
BLACK
6
CONTINUOUS
10
0.0449662
20
-0.471675
11
0.0459279
21
-0.473451
0
LINE
8
BLACK
6
CONTINUOUS
10
0.0459279
20
-0.473451
11
0.045523
21
-0.47543
0
LINE
8
BLACK
6
CONTINUOUS
10
0.045523
20
-0.47543
11
0.0439408
21
-0.476686
0
LINE
8
BLACK
6
CONTINUOUS
10
0.0439408
20
-0.476686
11
0.0347113
21
-0.479762
0
LINE
8
BLACK
6
CONTINUOUS
10
0.0347113
20
-0.479762
11
0.0347113
21
-0.494253
0
LINE
8
BLACK
6
CONTINUOUS
10
0.0347113
20
-0.494253
11
0.0439408
21
-0.49733
0
LINE
8
BLACK
6
CONTINUOUS
10
0.0439408
20
-0.49733
11
0.0448426
21
-0.497818
0
LINE
8
BLACK
6
CONTINUOUS
10
0.0448426
20
-0.497818
11
0.0458999
21
-0.499539
0
LINE
8
BLACK
6
CONTINUOUS
10
0.0458999
20
-0.499539
11
0.0456036
21
-0.501537
0
LINE
8
BLACK
6
CONTINUOUS
10
0.0456036
20
-0.501537
11
0.0440924
21
-0.502877
0
LINE
8
BLACK
6
CONTINUOUS
10
0.0440924
20
-0.502877
11
0.0420733
21
-0.502932
0
LINE
8
BLACK
6
CONTINUOUS
10
0.0420733
20
-0.502932
11
0.00270327
21
-0.489809
0
LINE
8
BLACK
6
CONTINUOUS
10
0.00270327
20
-0.489809
11
0.0018015
21
-0.489321
0
LINE
8
BLACK
6
CONTINUOUS
10
0.0018015
20
-0.489321
11
0.00175701
21
-0.489248
0
LINE
8
BLACK
6
CONTINUOUS
10
0.00175701
20
-0.489248
11
0.00167795
21
-0.489217
0
LINE
8
BLACK
6
CONTINUOUS
10
0.00167795
20
-0.489217
11
0.00123315
21
-0.488396
0
LINE
8
BLACK
6
CONTINUOUS
10
0.00123315
20
-0.488396
11
0.000744213
21
-0.4876
0
LINE
8
BLACK
6
CONTINUOUS
10
0.000744213
20
-0.4876
11
0.000756693
21
-0.487516
0
LINE
8
BLACK
6
CONTINUOUS
10
0.000756693
20
-0.487516
11
0.000716181
21
-0.487441
0
LINE
8
BLACK
6
CONTINUOUS
10
0.000716181
20
-0.487441
11
0.000903465
21
-0.486526
0
LINE
8
BLACK
6
CONTINUOUS
10
0.000903465
20
-0.486526
11
0.00104047
21
-0.485602
0
LINE
8
BLACK
6
CONTINUOUS
10
0.00104047
20
-0.485602
11
0.00110409
21
-0.485545
0
LINE
8
BLACK
6
CONTINUOUS
10
0.00110409
20
-0.485545
11
0.00112114
21
-0.485462
0
LINE
8
BLACK
6
CONTINUOUS
10
0.00112114
20
-0.485462
11
0.00185244
21
-0.484882
0
LINE
8
BLACK
6
CONTINUOUS
10
0.00185244
20
-0.484882
11
0.00255169
21
-0.484262
0
LINE
8
BLACK
6
CONTINUOUS
10
0.00255169
20
-0.484262
11
0.00263669
21
-0.484259
0
LINE
8
BLACK
6
CONTINUOUS
10
0.00263669
20
-0.484259
11
0.00270327
21
-0.484207
0
LINE
8
BLACK
6
CONTINUOUS
10
0.00270327
20
-0.484207
11
0.0420733
21
-0.471083
0
LINE
8
BLACK
6
CONTINUOUS
10
0.0420733
20
-0.471083
11
0.0430878
21
-0.470933
0
LINE
8
BLACK
6
CONTINUOUS
10
0.0430878
20
-0.470933
11
0.0449662
21
-0.471675
0
LINE
8
BLACK
6
CONTINUOUS
10
0.0129744
20
-0.487008
11
0.0288057
21
-0.492285
0
LINE
8
BLACK
6
CONTINUOUS
10
0.0288057
20
-0.492285
11
0.0288057
21
-0.481731
0
LINE
8
BLACK
6
CONTINUOUS
10
0.0288057
20
-0.481731
11
0.0129744
21
-0.487008
0
LINE
8
BLACK
6
CONTINUOUS
10
-0.0127755
20
-0.342619
11
-0.0127031
21
-0.342666
0
LINE
8
BLACK
6
CONTINUOUS
10
-0.0127031
20
-0.342666
11
-0.012617
21
-0.342669
0
LINE
8
BLACK
6
CONTINUOUS
10
-0.012617
20
-0.342669
11
-0.00699268
21
-0.344544
0
LINE
8
BLACK
6
CONTINUOUS
10
-0.00699268
20
-0.344544
11
-0.00573075
21
-0.345178
0
LINE
8
BLACK
6
CONTINUOUS
10
-0.00573075
20
-0.345178
11
-0.00545539
21
-0.345522
0
LINE
8
BLACK
6
CONTINUOUS
10
-0.00545539
20
-0.345522
11
-0.00506909
21
-0.345733
0
LINE
8
BLACK
6
CONTINUOUS
10
-0.00506909
20
-0.345733
11
-0.00131957
21
-0.349482
0
LINE
8
BLACK
6
CONTINUOUS
10
-0.00131957
20
-0.349482
11
-0.000474528
21
-0.350614
0
LINE
8
BLACK
6
CONTINUOUS
10
-0.000474528
20
-0.350614
11
-0.000456417
21
-0.350698
0
LINE
8
BLACK
6
CONTINUOUS
10
-0.000456417
20
-0.350698
11
-0.000397717
21
-0.350761
0
LINE
8
BLACK
6
CONTINUOUS
10
-0.000397717
20
-0.350761
11
0.00147705
21
-0.354511
0
LINE
8
BLACK
6
CONTINUOUS
10
0.00147705
20
-0.354511
11
0.00175965
21
-0.355365
0
LINE
8
BLACK
6
CONTINUOUS
10
0.00175965
20
-0.355365
11
0.00184969
21
-0.355518
0
LINE
8
BLACK
6
CONTINUOUS
10
0.00184969
20
-0.355518
11
0.00372445
21
-0.363017
0
LINE
8
BLACK
6
CONTINUOUS
10
0.00372445
20
-0.363017
11
0.00383165
21
-0.364075
0
LINE
8
BLACK
6
CONTINUOUS
10
0.00383165
20
-0.364075
11
0.00387138
21
-0.364211
0
LINE
8
BLACK
6
CONTINUOUS
10
0.00387138
20
-0.364211
11
0.00387138
21
-0.369835
0
LINE
8
BLACK
6
CONTINUOUS
10
0.00387138
20
-0.369835
11
0.00371874
21
-0.370888
0
LINE
8
BLACK
6
CONTINUOUS
10
0.00371874
20
-0.370888
11
0.00372445
21
-0.371029
0
LINE
8
BLACK
6
CONTINUOUS
10
0.00372445
20
-0.371029
11
0.00184969
21
-0.378528
0
LINE
8
BLACK
6
CONTINUOUS
10
0.00184969
20
-0.378528
11
0.00150862
21
-0.37936
0
LINE
8
BLACK
6
CONTINUOUS
10
0.00150862
20
-0.37936
11
0.00147705
21
-0.379535
0
LINE
8
BLACK
6
CONTINUOUS
10
0.00147705
20
-0.379535
11
-0.000397717
21
-0.383284
0
LINE
8
BLACK
6
CONTINUOUS
10
-0.000397717
20
-0.383284
11
-0.00120406
21
-0.384444
0
LINE
8
BLACK
6
CONTINUOUS
10
-0.00120406
20
-0.384444
11
-0.00127823
21
-0.384488
0
LINE
8
BLACK
6
CONTINUOUS
10
-0.00127823
20
-0.384488
11
-0.00131957
21
-0.384563
0
LINE
8
BLACK
6
CONTINUOUS
10
-0.00131957
20
-0.384563
11
-0.00506909
21
-0.388313
0
LINE
8
BLACK
6
CONTINUOUS
10
-0.00506909
20
-0.388313
11
-0.00620075
21
-0.389158
0
LINE
8
BLACK
6
CONTINUOUS
10
-0.00620075
20
-0.389158
11
-0.00663106
21
-0.389251
0
LINE
8
BLACK
6
CONTINUOUS
10
-0.00663106
20
-0.389251
11
-0.00699272
21
-0.389502
0
LINE
8
BLACK
6
CONTINUOUS
10
-0.00699272
20
-0.389502
11
-0.012617
21
-0.391377
0
LINE
8
BLACK
6
CONTINUOUS
10
-0.012617
20
-0.391377
11
-0.0140071
21
-0.391626
0
LINE
8
BLACK
6
CONTINUOUS
10
-0.0140071
20
-0.391626
11
-0.0140905
21
-0.391605
0
LINE
8
BLACK
6
CONTINUOUS
10
-0.0140905
20
-0.391605
11
-0.0141732
21
-0.391629
0
LINE
8
BLACK
6
CONTINUOUS
10
-0.0141732
20
-0.391629
11
-0.0179228
21
-0.391629
0
LINE
8
BLACK
6
CONTINUOUS
10
-0.0179228
20
-0.391629
11
-0.0193205
21
-0.391426
0
LINE
8
BLACK
6
CONTINUOUS
10
-0.0193205
20
-0.391426
11
-0.0193929
21
-0.39138
0
LINE
8
BLACK
6
CONTINUOUS
10
-0.0193929
20
-0.39138
11
-0.0194791
21
-0.391377
0
LINE
8
BLACK
6
CONTINUOUS
10
-0.0194791
20
-0.391377
11
-0.0251033
21
-0.389502
0
LINE
8
BLACK
6
CONTINUOUS
10
-0.0251033
20
-0.389502
11
-0.0263652
21
-0.388868
0
LINE
8
BLACK
6
CONTINUOUS
10
-0.0263652
20
-0.388868
11
-0.0266406
21
-0.388524
0
LINE
8
BLACK
6
CONTINUOUS
10
-0.0266406
20
-0.388524
11
-0.027027
21
-0.388313
0
LINE
8
BLACK
6
CONTINUOUS
10
-0.027027
20
-0.388313
11
-0.0289017
21
-0.386438
0
LINE
8
BLACK
6
CONTINUOUS
10
-0.0289017
20
-0.386438
11
-0.0294261
21
-0.385736
0
LINE
8
BLACK
6
CONTINUOUS
10
-0.0294261
20
-0.385736
11
-0.0295631
21
-0.385617
0
LINE
8
BLACK
6
CONTINUOUS
10
-0.0295631
20
-0.385617
11
-0.0295944
21
-0.385511
0
LINE
8
BLACK
6
CONTINUOUS
10
-0.0295944
20
-0.385511
11
-0.0297467
21
-0.385307
0
LINE
8
BLACK
6
CONTINUOUS
10
-0.0297467
20
-0.385307
11
-0.0300018
21
-0.384122
0
LINE
8
BLACK
6
CONTINUOUS
10
-0.0300018
20
-0.384122
11
-0.0303431
21
-0.382958
0
LINE
8
BLACK
6
CONTINUOUS
10
-0.0303431
20
-0.382958
11
-0.0303431
21
-0.369835
0
LINE
8
BLACK
6
CONTINUOUS
10
-0.0303431
20
-0.369835
11
-0.0301404
21
-0.368437
0
LINE
8
BLACK
6
CONTINUOUS
10
-0.0301404
20
-0.368437
11
-0.0299475
21
-0.368139
0
LINE
8
BLACK
6
CONTINUOUS
10
-0.0299475
20
-0.368139
11
-0.0298965
21
-0.367786
0
LINE
8
BLACK
6
CONTINUOUS
10
-0.0298965
20
-0.367786
11
-0.0292076
21
-0.366993
0
LINE
8
BLACK
6
CONTINUOUS
10
-0.0292076
20
-0.366993
11
-0.0286375
21
-0.36611
0
LINE
8
BLACK
6
CONTINUOUS
10
-0.0286375
20
-0.36611
11
-0.0283137
21
-0.365962
0
LINE
8
BLACK
6
CONTINUOUS
10
-0.0283137
20
-0.365962
11
-0.0280805
21
-0.365694
0
LINE
8
BLACK
6
CONTINUOUS
10
-0.0280805
20
-0.365694
11
-0.027072
21
-0.365398
0
LINE
8
BLACK
6
CONTINUOUS
10
-0.027072
20
-0.365398
11
-0.0261153
21
-0.364963
0
LINE
8
BLACK
6
CONTINUOUS
10
-0.0261153
20
-0.364963
11
-0.0257632
21
-0.365014
0
LINE
8
BLACK
6
CONTINUOUS
10
-0.0257632
20
-0.365014
11
-0.0254219
21
-0.364914
0
LINE
8
BLACK
6
CONTINUOUS
10
-0.0254219
20
-0.364914
11
-0.0179228
21
-0.364914
0
LINE
8
BLACK
6
CONTINUOUS
10
-0.0179228
20
-0.364914
11
-0.0165251
21
-0.365116
0
LINE
8
BLACK
6
CONTINUOUS
10
-0.0165251
20
-0.365116
11
-0.0141974
21
-0.366619
0
LINE
8
BLACK
6
CONTINUOUS
10
-0.0141974
20
-0.366619
11
-0.0130506
21
-0.369142
0
LINE
8
BLACK
6
CONTINUOUS
10
-0.0130506
20
-0.369142
11
-0.0134482
21
-0.371884
0
LINE
8
BLACK
6
CONTINUOUS
10
-0.0134482
20
-0.371884
11
-0.0152641
21
-0.373976
0
LINE
8
BLACK
6
CONTINUOUS
10
-0.0152641
20
-0.373976
11
-0.0179228
21
-0.374756
0
LINE
8
BLACK
6
CONTINUOUS
10
-0.0179228
20
-0.374756
11
-0.0205006
21
-0.374756
0
LINE
8
BLACK
6
CONTINUOUS
10
-0.0205006
20
-0.374756
11
-0.0205006
21
-0.380661
0
LINE
8
BLACK
6
CONTINUOUS
10
-0.0205006
20
-0.380661
11
-0.0171241
21
-0.381787
0
LINE
8
BLACK
6
CONTINUOUS
10
-0.0171241
20
-0.381787
11
-0.0149718
21
-0.381787
0
LINE
8
BLACK
6
CONTINUOUS
10
-0.0149718
20
-0.381787
11
-0.0112073
21
-0.380532
0
LINE
8
BLACK
6
CONTINUOUS
10
-0.0112073
20
-0.380532
11
-0.00884398
21
-0.378168
0
LINE
8
BLACK
6
CONTINUOUS
10
-0.00884398
20
-0.378168
11
-0.00756795
21
-0.375616
0
LINE
8
BLACK
6
CONTINUOUS
10
-0.00756795
20
-0.375616
11
-0.00597114
21
-0.369229
0
LINE
8
BLACK
6
CONTINUOUS
10
-0.00597114
20
-0.369229
11
-0.00597114
21
-0.364817
0
LINE
8
BLACK
6
CONTINUOUS
10
-0.00597114
20
-0.364817
11
-0.00756795
21
-0.358429
0
LINE
8
BLACK
6
CONTINUOUS
10
-0.00756795
20
-0.358429
11
-0.00884398
21
-0.355877
0
LINE
8
BLACK
6
CONTINUOUS
10
-0.00884398
20
-0.355877
11
-0.0112073
21
-0.353514
0
LINE
8
BLACK
6
CONTINUOUS
10
-0.0112073
20
-0.353514
11
-0.0149718
21
-0.352259
0
LINE
8
BLACK
6
CONTINUOUS
10
-0.0149718
20
-0.352259
11
-0.0186357
21
-0.352259
0
LINE
8
BLACK
6
CONTINUOUS
10
-0.0186357
20
-0.352259
11
-0.0213462
21
-0.353614
0
LINE
8
BLACK
6
CONTINUOUS
10
-0.0213462
20
-0.353614
11
-0.022687
21
-0.354058
0
LINE
8
BLACK
6
CONTINUOUS
10
-0.022687
20
-0.354058
11
-0.025441
21
-0.353755
0
LINE
8
BLACK
6
CONTINUOUS
10
-0.025441
20
-0.353755
11
-0.0275948
21
-0.352012
0
LINE
8
BLACK
6
CONTINUOUS
10
-0.0275948
20
-0.352012
11
-0.0284655
21
-0.349381
0
LINE
8
BLACK
6
CONTINUOUS
10
-0.0284655
20
-0.349381
11
-0.0277771
21
-0.346698
0
LINE
8
BLACK
6
CONTINUOUS
10
-0.0277771
20
-0.346698
11
-0.025748
21
-0.344811
0
LINE
8
BLACK
6
CONTINUOUS
10
-0.025748
20
-0.344811
11
-0.0219984
21
-0.342936
0
LINE
8
BLACK
6
CONTINUOUS
10
-0.0219984
20
-0.342936
11
-0.0206576
21
-0.342492
0
LINE
8
BLACK
6
CONTINUOUS
10
-0.0206576
20
-0.342492
11
-0.02022
21
-0.34254
0
LINE
8
BLACK
6
CONTINUOUS
10
-0.02022
20
-0.34254
11
-0.0197976
21
-0.342417
0
LINE
8
BLACK
6
CONTINUOUS
10
-0.0197976
20
-0.342417
11
-0.0141732
21
-0.342417
0
LINE
8
BLACK
6
CONTINUOUS
10
-0.0141732
20
-0.342417
11
-0.0127755
21
-0.342619
0
LINE
8
BLACK
6
CONTINUOUS
10
-0.0821419
20
-0.342619
11
-0.0818431
21
-0.342812
0
LINE
8
BLACK
6
CONTINUOUS
10
-0.0818431
20
-0.342812
11
-0.0814909
21
-0.342863
0
LINE
8
BLACK
6
CONTINUOUS
10
-0.0814909
20
-0.342863
11
-0.0806971
21
-0.343552
0
LINE
8
BLACK
6
CONTINUOUS
10
-0.0806971
20
-0.343552
11
-0.0798142
21
-0.344122
0
LINE
8
BLACK
6
CONTINUOUS
10
-0.0798142
20
-0.344122
11
-0.079667
21
-0.344446
0
LINE
8
BLACK
6
CONTINUOUS
10
-0.079667
20
-0.344446
11
-0.0793983
21
-0.344679
0
LINE
8
BLACK
6
CONTINUOUS
10
-0.0793983
20
-0.344679
11
-0.0791024
21
-0.345688
0
LINE
8
BLACK
6
CONTINUOUS
10
-0.0791024
20
-0.345688
11
-0.0786674
21
-0.346644
0
LINE
8
BLACK
6
CONTINUOUS
10
-0.0786674
20
-0.346644
11
-0.0787185
21
-0.346996
0
LINE
8
BLACK
6
CONTINUOUS
10
-0.0787185
20
-0.346996
11
-0.0786183
21
-0.347338
0
LINE
8
BLACK
6
CONTINUOUS
10
-0.0786183
20
-0.347338
11
-0.0786183
21
-0.386708
0
LINE
8
BLACK
6
CONTINUOUS
10
-0.0786183
20
-0.386708
11
-0.078821
21
-0.388106
0
LINE
8
BLACK
6
CONTINUOUS
10
-0.078821
20
-0.388106
11
-0.0790139
21
-0.388404
0
LINE
8
BLACK
6
CONTINUOUS
10
-0.0790139
20
-0.388404
11
-0.079065
21
-0.388756
0
LINE
8
BLACK
6
CONTINUOUS
10
-0.079065
20
-0.388756
11
-0.0797539
21
-0.38955
0
LINE
8
BLACK
6
CONTINUOUS
10
-0.0797539
20
-0.38955
11
-0.0803239
21
-0.390433
0
LINE
8
BLACK
6
CONTINUOUS
10
-0.0803239
20
-0.390433
11
-0.0806477
21
-0.39058
0
LINE
8
BLACK
6
CONTINUOUS
10
-0.0806477
20
-0.39058
11
-0.0808809
21
-0.390849
0
LINE
8
BLACK
6
CONTINUOUS
10
-0.0808809
20
-0.390849
11
-0.0818894
21
-0.391145
0
LINE
8
BLACK
6
CONTINUOUS
10
-0.0818894
20
-0.391145
11
-0.0828461
21
-0.39158
0
LINE
8
BLACK
6
CONTINUOUS
10
-0.0828461
20
-0.39158
11
-0.0831982
21
-0.391529
0
LINE
8
BLACK
6
CONTINUOUS
10
-0.0831982
20
-0.391529
11
-0.0835396
21
-0.391629
0
LINE
8
BLACK
6
CONTINUOUS
10
-0.0835396
20
-0.391629
11
-0.0929134
21
-0.391629
0
LINE
8
BLACK
6
CONTINUOUS
10
-0.0929134
20
-0.391629
11
-0.0943111
21
-0.391426
0
LINE
8
BLACK
6
CONTINUOUS
10
-0.0943111
20
-0.391426
11
-0.0943835
21
-0.39138
0
LINE
8
BLACK
6
CONTINUOUS
10
-0.0943835
20
-0.39138
11
-0.0944696
21
-0.391377
0
LINE
8
BLACK
6
CONTINUOUS
10
-0.0944696
20
-0.391377
11
-0.100094
21
-0.389502
0
LINE
8
BLACK
6
CONTINUOUS
10
-0.100094
20
-0.389502
11
-0.101356
21
-0.388868
0
LINE
8
BLACK
6
CONTINUOUS
10
-0.101356
20
-0.388868
11
-0.101631
21
-0.388524
0
LINE
8
BLACK
6
CONTINUOUS
10
-0.101631
20
-0.388524
11
-0.102018
21
-0.388313
0
LINE
8
BLACK
6
CONTINUOUS
10
-0.102018
20
-0.388313
11
-0.105767
21
-0.384563
0
LINE
8
BLACK
6
CONTINUOUS
10
-0.105767
20
-0.384563
11
-0.106612
21
-0.383432
0
LINE
8
BLACK
6
CONTINUOUS
10
-0.106612
20
-0.383432
11
-0.10663
21
-0.383348
0
LINE
8
BLACK
6
CONTINUOUS
10
-0.10663
20
-0.383348
11
-0.106689
21
-0.383284
0
LINE
8
BLACK
6
CONTINUOUS
10
-0.106689
20
-0.383284
11
-0.108564
21
-0.379535
0
LINE
8
BLACK
6
CONTINUOUS
10
-0.108564
20
-0.379535
11
-0.108846
21
-0.378681
0
LINE
8
BLACK
6
CONTINUOUS
10
-0.108846
20
-0.378681
11
-0.108936
21
-0.378528
0
LINE
8
BLACK
6
CONTINUOUS
10
-0.108936
20
-0.378528
11
-0.110811
21
-0.371029
0
LINE
8
BLACK
6
CONTINUOUS
10
-0.110811
20
-0.371029
11
-0.110918
21
-0.36997
0
LINE
8
BLACK
6
CONTINUOUS
10
-0.110918
20
-0.36997
11
-0.110958
21
-0.369835
0
LINE
8
BLACK
6
CONTINUOUS
10
-0.110958
20
-0.369835
11
-0.110958
21
-0.364211
0
LINE
8
BLACK
6
CONTINUOUS
10
-0.110958
20
-0.364211
11
-0.110805
21
-0.363158
0
LINE
8
BLACK
6
CONTINUOUS
10
-0.110805
20
-0.363158
11
-0.110811
21
-0.363017
0
LINE
8
BLACK
6
CONTINUOUS
10
-0.110811
20
-0.363017
11
-0.108936
21
-0.355518
0
LINE
8
BLACK
6
CONTINUOUS
10
-0.108936
20
-0.355518
11
-0.108595
21
-0.354686
0
LINE
8
BLACK
6
CONTINUOUS
10
-0.108595
20
-0.354686
11
-0.108564
21
-0.354511
0
LINE
8
BLACK
6
CONTINUOUS
10
-0.108564
20
-0.354511
11
-0.106689
21
-0.350761
0
LINE
8
BLACK
6
CONTINUOUS
10
-0.106689
20
-0.350761
11
-0.105883
21
-0.349602
0
LINE
8
BLACK
6
CONTINUOUS
10
-0.105883
20
-0.349602
11
-0.105808
21
-0.349558
0
LINE
8
BLACK
6
CONTINUOUS
10
-0.105808
20
-0.349558
11
-0.105767
21
-0.349482
0
LINE
8
BLACK
6
CONTINUOUS
10
-0.105767
20
-0.349482
11
-0.102018
21
-0.345733
0
LINE
8
BLACK
6
CONTINUOUS
10
-0.102018
20
-0.345733
11
-0.100886
21
-0.344888
0
LINE
8
BLACK
6
CONTINUOUS
10
-0.100886
20
-0.344888
11
-0.100456
21
-0.344795
0
LINE
8
BLACK
6
CONTINUOUS
10
-0.100456
20
-0.344795
11
-0.100094
21
-0.344544
0
LINE
8
BLACK
6
CONTINUOUS
10
-0.100094
20
-0.344544
11
-0.0944696
21
-0.342669
0
LINE
8
BLACK
6
CONTINUOUS
10
-0.0944696
20
-0.342669
11
-0.0930796
21
-0.342419
0
LINE
8
BLACK
6
CONTINUOUS
10
-0.0930796
20
-0.342419
11
-0.0929961
21
-0.342441
0
LINE
8
BLACK
6
CONTINUOUS
10
-0.0929961
20
-0.342441
11
-0.0929134
21
-0.342417
0
LINE
8
BLACK
6
CONTINUOUS
10
-0.0929134
20
-0.342417
11
-0.0835396
21
-0.342417
0
LINE
8
BLACK
6
CONTINUOUS
10
-0.0835396
20
-0.342417
11
-0.0821419
21
-0.342619
0
LINE
8
BLACK
6
CONTINUOUS
10
-0.0921148
20
-0.352259
11
-0.0958794
21
-0.353514
0
LINE
8
BLACK
6
CONTINUOUS
10
-0.0958794
20
-0.353514
11
-0.0982427
21
-0.355877
0
LINE
8
BLACK
6
CONTINUOUS
10
-0.0982427
20
-0.355877
11
-0.0995187
21
-0.358429
0
LINE
8
BLACK
6
CONTINUOUS
10
-0.0995187
20
-0.358429
11
-0.101116
21
-0.364817
0
LINE
8
BLACK
6
CONTINUOUS
10
-0.101116
20
-0.364817
11
-0.101116
21
-0.369229
0
LINE
8
BLACK
6
CONTINUOUS
10
-0.101116
20
-0.369229
11
-0.0995187
21
-0.375616
0
LINE
8
BLACK
6
CONTINUOUS
10
-0.0995187
20
-0.375616
11
-0.0982427
21
-0.378168
0
LINE
8
BLACK
6
CONTINUOUS
10
-0.0982427
20
-0.378168
11
-0.0958794
21
-0.380532
0
LINE
8
BLACK
6
CONTINUOUS
10
-0.0958794
20
-0.380532
11
-0.0921148
21
-0.381787
0
LINE
8
BLACK
6
CONTINUOUS
10
-0.0921148
20
-0.381787
11
-0.0884608
21
-0.381787
0
LINE
8
BLACK
6
CONTINUOUS
10
-0.0884608
20
-0.381787
11
-0.0884608
21
-0.352259
0
LINE
8
BLACK
6
CONTINUOUS
10
-0.0884608
20
-0.352259
11
-0.0921148
21
-0.352259
0
LINE
8
BLACK
6
CONTINUOUS
10
-0.0417373
20
-0.342647
11
-0.0404795
21
-0.342764
0
LINE
8
BLACK
6
CONTINUOUS
10
-0.0404795
20
-0.342764
11
-0.0403761
21
-0.342844
0
LINE
8
BLACK
6
CONTINUOUS
10
-0.0403761
20
-0.342844
11
-0.0402461
21
-0.342863
0
LINE
8
BLACK
6
CONTINUOUS
10
-0.0402461
20
-0.342863
11
-0.0392916
21
-0.343691
0
LINE
8
BLACK
6
CONTINUOUS
10
-0.0392916
20
-0.343691
11
-0.038296
21
-0.344469
0
LINE
8
BLACK
6
CONTINUOUS
10
-0.038296
20
-0.344469
11
-0.0382526
21
-0.344593
0
LINE
8
BLACK
6
CONTINUOUS
10
-0.0382526
20
-0.344593
11
-0.0381534
21
-0.344679
0
LINE
8
BLACK
6
CONTINUOUS
10
-0.0381534
20
-0.344679
11
-0.0377978
21
-0.345891
0
LINE
8
BLACK
6
CONTINUOUS
10
-0.0377978
20
-0.345891
11
-0.03738
21
-0.347084
0
LINE
8
BLACK
6
CONTINUOUS
10
-0.03738
20
-0.347084
11
-0.0374104
21
-0.347212
0
LINE
8
BLACK
6
CONTINUOUS
10
-0.0374104
20
-0.347212
11
-0.0373735
21
-0.347338
0
LINE
8
BLACK
6
CONTINUOUS
10
-0.0373735
20
-0.347338
11
-0.0373735
21
-0.386708
0
LINE
8
BLACK
6
CONTINUOUS
10
-0.0373735
20
-0.386708
11
-0.0375761
21
-0.388106
0
LINE
8
BLACK
6
CONTINUOUS
10
-0.0375761
20
-0.388106
11
-0.0390791
21
-0.390433
0
LINE
8
BLACK
6
CONTINUOUS
10
-0.0390791
20
-0.390433
11
-0.0416013
21
-0.39158
0
LINE
8
BLACK
6
CONTINUOUS
10
-0.0416013
20
-0.39158
11
-0.0443433
21
-0.391182
0
LINE
8
BLACK
6
CONTINUOUS
10
-0.0443433
20
-0.391182
11
-0.046436
21
-0.389367
0
LINE
8
BLACK
6
CONTINUOUS
10
-0.046436
20
-0.389367
11
-0.047216
21
-0.386708
0
LINE
8
BLACK
6
CONTINUOUS
10
-0.047216
20
-0.386708
11
-0.047216
21
-0.365869
0
LINE
8
BLACK
6
CONTINUOUS
10
-0.047216
20
-0.365869
11
-0.0605191
21
-0.389149
0
LINE
8
BLACK
6
CONTINUOUS
10
-0.0605191
20
-0.389149
11
-0.0613885
21
-0.390263
0
LINE
8
BLACK
6
CONTINUOUS
10
-0.0613885
20
-0.390263
11
-0.061505
21
-0.390323
0
LINE
8
BLACK
6
CONTINUOUS
10
-0.061505
20
-0.390323
11
-0.0615763
21
-0.390433
0
LINE
8
BLACK
6
CONTINUOUS
10
-0.0615763
20
-0.390433
11
-0.0627265
21
-0.390956
0
LINE
8
BLACK
6
CONTINUOUS
10
-0.0627265
20
-0.390956
11
-0.0638482
21
-0.391538
0
LINE
8
BLACK
6
CONTINUOUS
10
-0.0638482
20
-0.391538
11
-0.0639789
21
-0.391526
0
LINE
8
BLACK
6
CONTINUOUS
10
-0.0639789
20
-0.391526
11
-0.0640985
21
-0.39158
0
LINE
8
BLACK
6
CONTINUOUS
10
-0.0640985
20
-0.39158
11
-0.0653493
21
-0.391399
0
LINE
8
BLACK
6
CONTINUOUS
10
-0.0653493
20
-0.391399
11
-0.0666071
21
-0.391282
0
LINE
8
BLACK
6
CONTINUOUS
10
-0.0666071
20
-0.391282
11
-0.0667106
21
-0.391201
0
LINE
8
BLACK
6
CONTINUOUS
10
-0.0667106
20
-0.391201
11
-0.0668406
21
-0.391182
0
LINE
8
BLACK
6
CONTINUOUS
10
-0.0668406
20
-0.391182
11
-0.0677948
21
-0.390354
0
LINE
8
BLACK
6
CONTINUOUS
10
-0.0677948
20
-0.390354
11
-0.0687907
21
-0.389577
0
LINE
8
BLACK
6
CONTINUOUS
10
-0.0687907
20
-0.389577
11
-0.0688341
21
-0.389453
0
LINE
8
BLACK
6
CONTINUOUS
10
-0.0688341
20
-0.389453
11
-0.0689332
21
-0.389367
0
LINE
8
BLACK
6
CONTINUOUS
10
-0.0689332
20
-0.389367
11
-0.0692889
21
-0.388154
0
LINE
8
BLACK
6
CONTINUOUS
10
-0.0692889
20
-0.388154
11
-0.0697067
21
-0.386962
0
LINE
8
BLACK
6
CONTINUOUS
10
-0.0697067
20
-0.386962
11
-0.0696762
21
-0.386834
0
LINE
8
BLACK
6
CONTINUOUS
10
-0.0696762
20
-0.386834
11
-0.0697132
21
-0.386708
0
LINE
8
BLACK
6
CONTINUOUS
10
-0.0697132
20
-0.386708
11
-0.0697132
21
-0.347338
0
LINE
8
BLACK
6
CONTINUOUS
10
-0.0697132
20
-0.347338
11
-0.0695105
21
-0.34594
0
LINE
8
BLACK
6
CONTINUOUS
10
-0.0695105
20
-0.34594
11
-0.0680076
21
-0.343612
0
LINE
8
BLACK
6
CONTINUOUS
10
-0.0680076
20
-0.343612
11
-0.0654854
21
-0.342466
0
LINE
8
BLACK
6
CONTINUOUS
10
-0.0654854
20
-0.342466
11
-0.0627433
21
-0.342863
0
LINE
8
BLACK
6
CONTINUOUS
10
-0.0627433
20
-0.342863
11
-0.0606506
21
-0.344679
0
LINE
8
BLACK
6
CONTINUOUS
10
-0.0606506
20
-0.344679
11
-0.0598707
21
-0.347338
0
LINE
8
BLACK
6
CONTINUOUS
10
-0.0598707
20
-0.347338
11
-0.0598707
21
-0.368177
0
LINE
8
BLACK
6
CONTINUOUS
10
-0.0598707
20
-0.368177
11
-0.0465676
21
-0.344896
0
LINE
8
BLACK
6
CONTINUOUS
10
-0.0465676
20
-0.344896
11
-0.0456981
21
-0.343783
0
LINE
8
BLACK
6
CONTINUOUS
10
-0.0456981
20
-0.343783
11
-0.0455817
21
-0.343723
0
LINE
8
BLACK
6
CONTINUOUS
10
-0.0455817
20
-0.343723
11
-0.0455104
21
-0.343612
0
LINE
8
BLACK
6
CONTINUOUS
10
-0.0455104
20
-0.343612
11
-0.0443599
21
-0.343089
0
LINE
8
BLACK
6
CONTINUOUS
10
-0.0443599
20
-0.343089
11
-0.0432384
21
-0.342508
0
LINE
8
BLACK
6
CONTINUOUS
10
-0.0432384
20
-0.342508
11
-0.0431077
21
-0.34252
0
LINE
8
BLACK
6
CONTINUOUS
10
-0.0431077
20
-0.34252
11
-0.0429881
21
-0.342466
0
LINE
8
BLACK
6
CONTINUOUS
10
-0.0429881
20
-0.342466
11
-0.0417373
21
-0.342647
0
LINE
8
BLACK
6
CONTINUOUS
10
1.04052
20
0.0248444
11
1.03836
21
0.027006
0
LINE
8
BLACK
6
CONTINUOUS
10
1.03836
20
0.027006
11
1.03757
21
0.0299588
0
LINE
8
BLACK
6
CONTINUOUS
10
1.03757
20
0.0299588
11
1.03836
21
0.0329115
0
LINE
8
BLACK
6
CONTINUOUS
10
1.03836
20
0.0329115
11
1.04052
21
0.0350731
0
LINE
8
BLACK
6
CONTINUOUS
10
1.04052
20
0.0350731
11
1.04348
21
0.0358643
0
LINE
8
BLACK
6
CONTINUOUS
10
1.04348
20
0.0358643
11
1.06944
21
0.0358643
0
LINE
8
BLACK
6
CONTINUOUS
10
1.06944
20
0.0358643
11
1.06944
21
0.0968879
0
LINE
8
BLACK
6
CONTINUOUS
10
1.06944
20
0.0968879
11
1.07023
21
0.0998407
0
LINE
8
BLACK
6
CONTINUOUS
10
1.07023
20
0.0998407
11
1.07239
21
0.102002
0
LINE
8
BLACK
6
CONTINUOUS
10
1.07239
20
0.102002
11
1.07535
21
0.102793
0
LINE
8
BLACK
6
CONTINUOUS
10
1.07535
20
0.102793
11
1.0783
21
0.102002
0
LINE
8
BLACK
6
CONTINUOUS
10
1.0783
20
0.102002
11
1.08046
21
0.0998407
0
LINE
8
BLACK
6
CONTINUOUS
10
1.08046
20
0.0998407
11
1.08125
21
0.0968879
0
LINE
8
BLACK
6
CONTINUOUS
10
1.08125
20
0.0968879
11
1.08125
21
0.0299588
0
LINE
8
BLACK
6
CONTINUOUS
10
1.08125
20
0.0299588
11
1.08046
21
0.027006
0
LINE
8
BLACK
6
CONTINUOUS
10
1.08046
20
0.027006
11
1.0783
21
0.0248444
0
LINE
8
BLACK
6
CONTINUOUS
10
1.0783
20
0.0248444
11
1.07535
21
0.0240533
0
LINE
8
BLACK
6
CONTINUOUS
10
1.07535
20
0.0240533
11
1.04348
21
0.0240533
0
LINE
8
BLACK
6
CONTINUOUS
10
1.04348
20
0.0240533
11
1.04052
21
0.0248444
0
LINE
8
BLACK
6
CONTINUOUS
10
1.38745
20
0.102002
11
1.38961
21
0.0998407
0
LINE
8
BLACK
6
CONTINUOUS
10
1.38961
20
0.0998407
11
1.3904
21
0.0968879
0
LINE
8
BLACK
6
CONTINUOUS
10
1.3904
20
0.0968879
11
1.3904
21
0.0299588
0
LINE
8
BLACK
6
CONTINUOUS
10
1.3904
20
0.0299588
11
1.38961
21
0.027006
0
LINE
8
BLACK
6
CONTINUOUS
10
1.38961
20
0.027006
11
1.38745
21
0.0248444
0
LINE
8
BLACK
6
CONTINUOUS
10
1.38745
20
0.0248444
11
1.3845
21
0.0240533
0
LINE
8
BLACK
6
CONTINUOUS
10
1.3845
20
0.0240533
11
1.38154
21
0.0248444
0
LINE
8
BLACK
6
CONTINUOUS
10
1.38154
20
0.0248444
11
1.37938
21
0.027006
0
LINE
8
BLACK
6
CONTINUOUS
10
1.37938
20
0.027006
11
1.37859
21
0.0299588
0
LINE
8
BLACK
6
CONTINUOUS
10
1.37859
20
0.0299588
11
1.37859
21
0.0559243
0
LINE
8
BLACK
6
CONTINUOUS
10
1.37859
20
0.0559243
11
1.359
21
0.0559243
0
LINE
8
BLACK
6
CONTINUOUS
10
1.359
20
0.0559243
11
1.35769
21
0.0562756
0
LINE
8
BLACK
6
CONTINUOUS
10
1.35769
20
0.0562756
11
1.35636
21
0.0565478
0
LINE
8
BLACK
6
CONTINUOUS
10
1.35636
20
0.0565478
11
1.34998
21
0.0597348
0
LINE
8
BLACK
6
CONTINUOUS
10
1.34998
20
0.0597348
11
1.34927
21
0.0603657
0
LINE
8
BLACK
6
CONTINUOUS
10
1.34927
20
0.0603657
11
1.34845
21
0.0608411
0
LINE
8
BLACK
6
CONTINUOUS
10
1.34845
20
0.0608411
11
1.34526
21
0.0640281
0
LINE
8
BLACK
6
CONTINUOUS
10
1.34526
20
0.0640281
11
1.34479
21
0.0648515
0
LINE
8
BLACK
6
CONTINUOUS
10
1.34479
20
0.0648515
11
1.34416
21
0.0655629
0
LINE
8
BLACK
6
CONTINUOUS
10
1.34416
20
0.0655629
11
1.34097
21
0.0719372
0
LINE
8
BLACK
6
CONTINUOUS
10
1.34097
20
0.0719372
11
1.3407
21
0.0732671
0
LINE
8
BLACK
6
CONTINUOUS
10
1.3407
20
0.0732671
11
1.34034
21
0.0745782
0
LINE
8
BLACK
6
CONTINUOUS
10
1.34034
20
0.0745782
11
1.34034
21
0.0841395
0
LINE
8
BLACK
6
CONTINUOUS
10
1.34034
20
0.0841395
11
1.3407
21
0.0854506
0
LINE
8
BLACK
6
CONTINUOUS
10
1.3407
20
0.0854506
11
1.34097
21
0.0867805
0
LINE
8
BLACK
6
CONTINUOUS
10
1.34097
20
0.0867805
11
1.34416
21
0.0931548
0
LINE
8
BLACK
6
CONTINUOUS
10
1.34416
20
0.0931548
11
1.34479
21
0.0938662
0
LINE
8
BLACK
6
CONTINUOUS
10
1.34479
20
0.0938662
11
1.34526
21
0.0946895
0
LINE
8
BLACK
6
CONTINUOUS
10
1.34526
20
0.0946895
11
1.34845
21
0.0978766
0
LINE
8
BLACK
6
CONTINUOUS
10
1.34845
20
0.0978766
11
1.34927
21
0.098352
0
LINE
8
BLACK
6
CONTINUOUS
10
1.34927
20
0.098352
11
1.34998
21
0.0989828
0
LINE
8
BLACK
6
CONTINUOUS
10
1.34998
20
0.0989828
11
1.35636
21
0.10217
0
LINE
8
BLACK
6
CONTINUOUS
10
1.35636
20
0.10217
11
1.35769
21
0.102442
0
LINE
8
BLACK
6
CONTINUOUS
10
1.35769
20
0.102442
11
1.359
21
0.102793
0
LINE
8
BLACK
6
CONTINUOUS
10
1.359
20
0.102793
11
1.3845
21
0.102793
0
LINE
8
BLACK
6
CONTINUOUS
10
1.3845
20
0.102793
11
1.38745
21
0.102002
0
LINE
8
BLACK
6
CONTINUOUS
10
1.36039
20
0.0909824
11
1.35612
21
0.0888473
0
LINE
8
BLACK
6
CONTINUOUS
10
1.35612
20
0.0888473
11
1.35429
21
0.0870155
0
LINE
8
BLACK
6
CONTINUOUS
10
1.35429
20
0.0870155
11
1.35216
21
0.0827454
0
LINE
8
BLACK
6
CONTINUOUS
10
1.35216
20
0.0827454
11
1.35216
21
0.0759723
0
LINE
8
BLACK
6
CONTINUOUS
10
1.35216
20
0.0759723
11
1.35429
21
0.0717022
0
LINE
8
BLACK
6
CONTINUOUS
10
1.35429
20
0.0717022
11
1.35612
21
0.0698704
0
LINE
8
BLACK
6
CONTINUOUS
10
1.35612
20
0.0698704
11
1.36039
21
0.0677353
0
LINE
8
BLACK
6
CONTINUOUS
10
1.36039
20
0.0677353
11
1.37859
21
0.0677353
0
LINE
8
BLACK
6
CONTINUOUS
10
1.37859
20
0.0677353
11
1.37859
21
0.0909824
0
LINE
8
BLACK
6
CONTINUOUS
10
1.37859
20
0.0909824
11
1.36039
21
0.0909824
0
LINE
8
BLACK
6
CONTINUOUS
10
1.32052
20
0.102002
11
1.32268
21
0.0998407
0
LINE
8
BLACK
6
CONTINUOUS
10
1.32268
20
0.0998407
11
1.32347
21
0.0968879
0
LINE
8
BLACK
6
CONTINUOUS
10
1.32347
20
0.0968879
11
1.32347
21
0.0299588
0
LINE
8
BLACK
6
CONTINUOUS
10
1.32347
20
0.0299588
11
1.32268
21
0.027006
0
LINE
8
BLACK
6
CONTINUOUS
10
1.32268
20
0.027006
11
1.32052
21
0.0248444
0
LINE
8
BLACK
6
CONTINUOUS
10
1.32052
20
0.0248444
11
1.31757
21
0.0240533
0
LINE
8
BLACK
6
CONTINUOUS
10
1.31757
20
0.0240533
11
1.31461
21
0.0248444
0
LINE
8
BLACK
6
CONTINUOUS
10
1.31461
20
0.0248444
11
1.31245
21
0.027006
0
LINE
8
BLACK
6
CONTINUOUS
10
1.31245
20
0.027006
11
1.31166
21
0.0299588
0
LINE
8
BLACK
6
CONTINUOUS
10
1.31166
20
0.0299588
11
1.31166
21
0.0968879
0
LINE
8
BLACK
6
CONTINUOUS
10
1.31166
20
0.0968879
11
1.31245
21
0.0998407
0
LINE
8
BLACK
6
CONTINUOUS
10
1.31245
20
0.0998407
11
1.31461
21
0.102002
0
LINE
8
BLACK
6
CONTINUOUS
10
1.31461
20
0.102002
11
1.31757
21
0.102793
0
LINE
8
BLACK
6
CONTINUOUS
10
1.31757
20
0.102793
11
1.32052
21
0.102002
0
LINE
8
BLACK
6
CONTINUOUS
10
1.28716
20
0.102402
11
1.28863
21
0.102015
0
LINE
8
BLACK
6
CONTINUOUS
10
1.28863
20
0.102015
11
1.28864
21
0.102006
0
LINE
8
BLACK
6
CONTINUOUS
10
1.28864
20
0.102006
11
1.28865
21
0.102002
0
LINE
8
BLACK
6
CONTINUOUS
10
1.28865
20
0.102002
11
1.28972
21
0.100933
0
LINE
8
BLACK
6
CONTINUOUS
10
1.28972
20
0.100933
11
1.2908
21
0.0998634
0
LINE
8
BLACK
6
CONTINUOUS
10
1.2908
20
0.0998634
11
1.2908
21
0.0998503
0
LINE
8
BLACK
6
CONTINUOUS
10
1.2908
20
0.0998503
11
1.29081
21
0.0998407
0
LINE
8
BLACK
6
CONTINUOUS
10
1.29081
20
0.0998407
11
1.2912
21
0.09838
0
LINE
8
BLACK
6
CONTINUOUS
10
1.2912
20
0.09838
11
1.2916
21
0.0969142
0
LINE
8
BLACK
6
CONTINUOUS
10
1.2916
20
0.0969142
11
1.2916
21
0.096901
0
LINE
8
BLACK
6
CONTINUOUS
10
1.2916
20
0.096901
11
1.2916
21
0.0968879
0
LINE
8
BLACK
6
CONTINUOUS
10
1.2916
20
0.0968879
11
1.2916
21
0.0299588
0
LINE
8
BLACK
6
CONTINUOUS
10
1.2916
20
0.0299588
11
1.29081
21
0.027006
0
LINE
8
BLACK
6
CONTINUOUS
10
1.29081
20
0.027006
11
1.28865
21
0.0248444
0
LINE
8
BLACK
6
CONTINUOUS
10
1.28865
20
0.0248444
11
1.2857
21
0.0240533
0
LINE
8
BLACK
6
CONTINUOUS
10
1.2857
20
0.0240533
11
1.28274
21
0.0248444
0
LINE
8
BLACK
6
CONTINUOUS
10
1.28274
20
0.0248444
11
1.28058
21
0.027006
0
LINE
8
BLACK
6
CONTINUOUS
10
1.28058
20
0.027006
11
1.27979
21
0.0299588
0
LINE
8
BLACK
6
CONTINUOUS
10
1.27979
20
0.0299588
11
1.27979
21
0.0746503
0
LINE
8
BLACK
6
CONTINUOUS
10
1.27979
20
0.0746503
11
1.25258
21
0.0270288
0
LINE
8
BLACK
6
CONTINUOUS
10
1.25258
20
0.0270288
11
1.25257
21
0.0270192
0
LINE
8
BLACK
6
CONTINUOUS
10
1.25257
20
0.0270192
11
1.25256
21
0.027006
0
LINE
8
BLACK
6
CONTINUOUS
10
1.25256
20
0.027006
11
1.25149
21
0.0259344
0
LINE
8
BLACK
6
CONTINUOUS
10
1.25149
20
0.0259344
11
1.25043
21
0.0248576
0
LINE
8
BLACK
6
CONTINUOUS
10
1.25043
20
0.0248576
11
1.25041
21
0.0248541
0
LINE
8
BLACK
6
CONTINUOUS
10
1.25041
20
0.0248541
11
1.2504
21
0.0248444
0
LINE
8
BLACK
6
CONTINUOUS
10
1.2504
20
0.0248444
11
1.24894
21
0.0244531
0
LINE
8
BLACK
6
CONTINUOUS
10
1.24894
20
0.0244531
11
1.24748
21
0.0240533
0
LINE
8
BLACK
6
CONTINUOUS
10
1.24748
20
0.0240533
11
1.24746
21
0.0240568
0
LINE
8
BLACK
6
CONTINUOUS
10
1.24746
20
0.0240568
11
1.24745
21
0.0240533
0
LINE
8
BLACK
6
CONTINUOUS
10
1.24745
20
0.0240533
11
1.24599
21
0.0244457
0
LINE
8
BLACK
6
CONTINUOUS
10
1.24599
20
0.0244457
11
1.24452
21
0.0248314
0
LINE
8
BLACK
6
CONTINUOUS
10
1.24452
20
0.0248314
11
1.24451
21
0.0248409
0
LINE
8
BLACK
6
CONTINUOUS
10
1.24451
20
0.0248409
11
1.2445
21
0.0248444
0
LINE
8
BLACK
6
CONTINUOUS
10
1.2445
20
0.0248444
11
1.24343
21
0.0259161
0
LINE
8
BLACK
6
CONTINUOUS
10
1.24343
20
0.0259161
11
1.24235
21
0.0269833
0
LINE
8
BLACK
6
CONTINUOUS
10
1.24235
20
0.0269833
11
1.24235
21
0.0269964
0
LINE
8
BLACK
6
CONTINUOUS
10
1.24235
20
0.0269964
11
1.24234
21
0.027006
0
LINE
8
BLACK
6
CONTINUOUS
10
1.24234
20
0.027006
11
1.24194
21
0.0284667
0
LINE
8
BLACK
6
CONTINUOUS
10
1.24194
20
0.0284667
11
1.24154
21
0.0299325
0
LINE
8
BLACK
6
CONTINUOUS
10
1.24154
20
0.0299325
11
1.24155
21
0.0299457
0
LINE
8
BLACK
6
CONTINUOUS
10
1.24155
20
0.0299457
11
1.24154
21
0.0299588
0
LINE
8
BLACK
6
CONTINUOUS
10
1.24154
20
0.0299588
11
1.24154
21
0.0968879
0
LINE
8
BLACK
6
CONTINUOUS
10
1.24154
20
0.0968879
11
1.24234
21
0.0998407
0
LINE
8
BLACK
6
CONTINUOUS
10
1.24234
20
0.0998407
11
1.2445
21
0.102002
0
LINE
8
BLACK
6
CONTINUOUS
10
1.2445
20
0.102002
11
1.24745
21
0.102793
0
LINE
8
BLACK
6
CONTINUOUS
10
1.24745
20
0.102793
11
1.2504
21
0.102002
0
LINE
8
BLACK
6
CONTINUOUS
10
1.2504
20
0.102002
11
1.25256
21
0.0998407
0
LINE
8
BLACK
6
CONTINUOUS
10
1.25256
20
0.0998407
11
1.25336
21
0.0968879
0
LINE
8
BLACK
6
CONTINUOUS
10
1.25336
20
0.0968879
11
1.25336
21
0.0521963
0
LINE
8
BLACK
6
CONTINUOUS
10
1.25336
20
0.0521963
11
1.28057
21
0.0998179
0
LINE
8
BLACK
6
CONTINUOUS
10
1.28057
20
0.0998179
11
1.28058
21
0.0998275
0
LINE
8
BLACK
6
CONTINUOUS
10
1.28058
20
0.0998275
11
1.28058
21
0.0998407
0
LINE
8
BLACK
6
CONTINUOUS
10
1.28058
20
0.0998407
11
1.28165
21
0.100912
0
LINE
8
BLACK
6
CONTINUOUS
10
1.28165
20
0.100912
11
1.28272
21
0.101989
0
LINE
8
BLACK
6
CONTINUOUS
10
1.28272
20
0.101989
11
1.28273
21
0.101993
0
LINE
8
BLACK
6
CONTINUOUS
10
1.28273
20
0.101993
11
1.28274
21
0.102002
0
LINE
8
BLACK
6
CONTINUOUS
10
1.28274
20
0.102002
11
1.2842
21
0.102394
0
LINE
8
BLACK
6
CONTINUOUS
10
1.2842
20
0.102394
11
1.28567
21
0.102793
0
LINE
8
BLACK
6
CONTINUOUS
10
1.28567
20
0.102793
11
1.28568
21
0.10279
0
LINE
8
BLACK
6
CONTINUOUS
10
1.28568
20
0.10279
11
1.2857
21
0.102793
0
LINE
8
BLACK
6
CONTINUOUS
10
1.2857
20
0.102793
11
1.28716
21
0.102402
0
LINE
8
BLACK
6
CONTINUOUS
10
1.21853
20
0.102002
11
1.22069
21
0.0998407
0
LINE
8
BLACK
6
CONTINUOUS
10
1.22069
20
0.0998407
11
1.22148
21
0.0968879
0
LINE
8
BLACK
6
CONTINUOUS
10
1.22148
20
0.0968879
11
1.22148
21
0.0299588
0
LINE
8
BLACK
6
CONTINUOUS
10
1.22148
20
0.0299588
11
1.22069
21
0.027006
0
LINE
8
BLACK
6
CONTINUOUS
10
1.22069
20
0.027006
11
1.21853
21
0.0248444
0
LINE
8
BLACK
6
CONTINUOUS
10
1.21853
20
0.0248444
11
1.21558
21
0.0240533
0
LINE
8
BLACK
6
CONTINUOUS
10
1.21558
20
0.0240533
11
1.21263
21
0.0248444
0
LINE
8
BLACK
6
CONTINUOUS
10
1.21263
20
0.0248444
11
1.21046
21
0.027006
0
LINE
8
BLACK
6
CONTINUOUS
10
1.21046
20
0.027006
11
1.20967
21
0.0299588
0
LINE
8
BLACK
6
CONTINUOUS
10
1.20967
20
0.0299588
11
1.20967
21
0.0591114
0
LINE
8
BLACK
6
CONTINUOUS
10
1.20967
20
0.0591114
11
1.18324
21
0.0591114
0
LINE
8
BLACK
6
CONTINUOUS
10
1.18324
20
0.0591114
11
1.18324
21
0.0299588
0
LINE
8
BLACK
6
CONTINUOUS
10
1.18324
20
0.0299588
11
1.18245
21
0.027006
0
LINE
8
BLACK
6
CONTINUOUS
10
1.18245
20
0.027006
11
1.18029
21
0.0248444
0
LINE
8
BLACK
6
CONTINUOUS
10
1.18029
20
0.0248444
11
1.17733
21
0.0240533
0
LINE
8
BLACK
6
CONTINUOUS
10
1.17733
20
0.0240533
11
1.17438
21
0.0248444
0
LINE
8
BLACK
6
CONTINUOUS
10
1.17438
20
0.0248444
11
1.17222
21
0.027006
0
LINE
8
BLACK
6
CONTINUOUS
10
1.17222
20
0.027006
11
1.17143
21
0.0299588
0
LINE
8
BLACK
6
CONTINUOUS
10
1.17143
20
0.0299588
11
1.17143
21
0.0968879
0
LINE
8
BLACK
6
CONTINUOUS
10
1.17143
20
0.0968879
11
1.17222
21
0.0998407
0
LINE
8
BLACK
6
CONTINUOUS
10
1.17222
20
0.0998407
11
1.17438
21
0.102002
0
LINE
8
BLACK
6
CONTINUOUS
10
1.17438
20
0.102002
11
1.17733
21
0.102793
0
LINE
8
BLACK
6
CONTINUOUS
10
1.17733
20
0.102793
11
1.18029
21
0.102002
0
LINE
8
BLACK
6
CONTINUOUS
10
1.18029
20
0.102002
11
1.18245
21
0.0998407
0
LINE
8
BLACK
6
CONTINUOUS
10
1.18245
20
0.0998407
11
1.18324
21
0.0968879
0
LINE
8
BLACK
6
CONTINUOUS
10
1.18324
20
0.0968879
11
1.18324
21
0.0709224
0
LINE
8
BLACK
6
CONTINUOUS
10
1.18324
20
0.0709224
11
1.20967
21
0.0709224
0
LINE
8
BLACK
6
CONTINUOUS
10
1.20967
20
0.0709224
11
1.20967
21
0.0968879
0
LINE
8
BLACK
6
CONTINUOUS
10
1.20967
20
0.0968879
11
1.21046
21
0.0998407
0
LINE
8
BLACK
6
CONTINUOUS
10
1.21046
20
0.0998407
11
1.21263
21
0.102002
0
LINE
8
BLACK
6
CONTINUOUS
10
1.21263
20
0.102002
11
1.21558
21
0.102793
0
LINE
8
BLACK
6
CONTINUOUS
10
1.21558
20
0.102793
11
1.21853
21
0.102002
0
LINE
8
BLACK
6
CONTINUOUS
10
1.13403
20
0.102442
11
1.13536
21
0.10217
0
LINE
8
BLACK
6
CONTINUOUS
10
1.13536
20
0.10217
11
1.14173
21
0.0989828
0
LINE
8
BLACK
6
CONTINUOUS
10
1.14173
20
0.0989828
11
1.14244
21
0.098352
0
LINE
8
BLACK
6
CONTINUOUS
10
1.14244
20
0.098352
11
1.14326
21
0.0978766
0
LINE
8
BLACK
6
CONTINUOUS
10
1.14326
20
0.0978766
11
1.14964
21
0.0915024
0
LINE
8
BLACK
6
CONTINUOUS
10
1.14964
20
0.0915024
11
1.14966
21
0.091458
0
LINE
8
BLACK
6
CONTINUOUS
10
1.14966
20
0.091458
11
1.14971
21
0.0914316
0
LINE
8
BLACK
6
CONTINUOUS
10
1.14971
20
0.0914316
11
1.15043
21
0.0901374
0
LINE
8
BLACK
6
CONTINUOUS
10
1.15043
20
0.0901374
11
1.15117
21
0.0888551
0
LINE
8
BLACK
6
CONTINUOUS
10
1.15117
20
0.0888551
11
1.15117
21
0.0888037
0
LINE
8
BLACK
6
CONTINUOUS
10
1.15117
20
0.0888037
11
1.15119
21
0.0887589
0
LINE
8
BLACK
6
CONTINUOUS
10
1.15119
20
0.0887589
11
1.15438
21
0.0760105
0
LINE
8
BLACK
6
CONTINUOUS
10
1.15438
20
0.0760105
11
1.15437
21
0.075282
0
LINE
8
BLACK
6
CONTINUOUS
10
1.15437
20
0.075282
11
1.15456
21
0.0745782
0
LINE
8
BLACK
6
CONTINUOUS
10
1.15456
20
0.0745782
11
1.15456
21
0.0522685
0
LINE
8
BLACK
6
CONTINUOUS
10
1.15456
20
0.0522685
11
1.15437
21
0.0515647
0
LINE
8
BLACK
6
CONTINUOUS
10
1.15437
20
0.0515647
11
1.15438
21
0.0508362
0
LINE
8
BLACK
6
CONTINUOUS
10
1.15438
20
0.0508362
11
1.15119
21
0.0380878
0
LINE
8
BLACK
6
CONTINUOUS
10
1.15119
20
0.0380878
11
1.15117
21
0.038043
0
LINE
8
BLACK
6
CONTINUOUS
10
1.15117
20
0.038043
11
1.15117
21
0.0379917
0
LINE
8
BLACK
6
CONTINUOUS
10
1.15117
20
0.0379917
11
1.15043
21
0.0367094
0
LINE
8
BLACK
6
CONTINUOUS
10
1.15043
20
0.0367094
11
1.14971
21
0.0354151
0
LINE
8
BLACK
6
CONTINUOUS
10
1.14971
20
0.0354151
11
1.14966
21
0.0353887
0
LINE
8
BLACK
6
CONTINUOUS
10
1.14966
20
0.0353887
11
1.14964
21
0.0353443
0
LINE
8
BLACK
6
CONTINUOUS
10
1.14964
20
0.0353443
11
1.14326
21
0.02897
0
LINE
8
BLACK
6
CONTINUOUS
10
1.14326
20
0.02897
11
1.14244
21
0.0284946
0
LINE
8
BLACK
6
CONTINUOUS
10
1.14244
20
0.0284946
11
1.14173
21
0.0278638
0
LINE
8
BLACK
6
CONTINUOUS
10
1.14173
20
0.0278638
11
1.13536
21
0.0246767
0
LINE
8
BLACK
6
CONTINUOUS
10
1.13536
20
0.0246767
11
1.13403
21
0.0244046
0
LINE
8
BLACK
6
CONTINUOUS
10
1.13403
20
0.0244046
11
1.13271
21
0.0240533
0
LINE
8
BLACK
6
CONTINUOUS
10
1.13271
20
0.0240533
11
1.11997
21
0.0240533
0
LINE
8
BLACK
6
CONTINUOUS
10
1.11997
20
0.0240533
11
1.11866
21
0.0244046
0
LINE
8
BLACK
6
CONTINUOUS
10
1.11866
20
0.0244046
11
1.11733
21
0.0246767
0
LINE
8
BLACK
6
CONTINUOUS
10
1.11733
20
0.0246767
11
1.11095
21
0.0278638
0
LINE
8
BLACK
6
CONTINUOUS
10
1.11095
20
0.0278638
11
1.11024
21
0.0284946
0
LINE
8
BLACK
6
CONTINUOUS
10
1.11024
20
0.0284946
11
1.10942
21
0.02897
0
LINE
8
BLACK
6
CONTINUOUS
10
1.10942
20
0.02897
11
1.10304
21
0.0353443
0
LINE
8
BLACK
6
CONTINUOUS
10
1.10304
20
0.0353443
11
1.10302
21
0.0353887
0
LINE
8
BLACK
6
CONTINUOUS
10
1.10302
20
0.0353887
11
1.10297
21
0.0354151
0
LINE
8
BLACK
6
CONTINUOUS
10
1.10297
20
0.0354151
11
1.10225
21
0.0367093
0
LINE
8
BLACK
6
CONTINUOUS
10
1.10225
20
0.0367093
11
1.10151
21
0.0379916
0
LINE
8
BLACK
6
CONTINUOUS
10
1.10151
20
0.0379916
11
1.10151
21
0.038043
0
LINE
8
BLACK
6
CONTINUOUS
10
1.10151
20
0.038043
11
1.10149
21
0.0380878
0
LINE
8
BLACK
6
CONTINUOUS
10
1.10149
20
0.0380878
11
1.0983
21
0.0508362
0
LINE
8
BLACK
6
CONTINUOUS
10
1.0983
20
0.0508362
11
1.09831
21
0.0515647
0
LINE
8
BLACK
6
CONTINUOUS
10
1.09831
20
0.0515647
11
1.09813
21
0.0522685
0
LINE
8
BLACK
6
CONTINUOUS
10
1.09813
20
0.0522685
11
1.09813
21
0.0745782
0
LINE
8
BLACK
6
CONTINUOUS
10
1.09813
20
0.0745782
11
1.09831
21
0.075282
0
LINE
8
BLACK
6
CONTINUOUS
10
1.09831
20
0.075282
11
1.0983
21
0.0760105
0
LINE
8
BLACK
6
CONTINUOUS
10
1.0983
20
0.0760105
11
1.10149
21
0.0887589
0
LINE
8
BLACK
6
CONTINUOUS
10
1.10149
20
0.0887589
11
1.10151
21
0.0888037
0
LINE
8
BLACK
6
CONTINUOUS
10
1.10151
20
0.0888037
11
1.10151
21
0.0888551
0
LINE
8
BLACK
6
CONTINUOUS
10
1.10151
20
0.0888551
11
1.10225
21
0.0901374
0
LINE
8
BLACK
6
CONTINUOUS
10
1.10225
20
0.0901374
11
1.10297
21
0.0914316
0
LINE
8
BLACK
6
CONTINUOUS
10
1.10297
20
0.0914316
11
1.10302
21
0.091458
0
LINE
8
BLACK
6
CONTINUOUS
10
1.10302
20
0.091458
11
1.10304
21
0.0915024
0
LINE
8
BLACK
6
CONTINUOUS
10
1.10304
20
0.0915024
11
1.10942
21
0.0978767
0
LINE
8
BLACK
6
CONTINUOUS
10
1.10942
20
0.0978767
11
1.11024
21
0.098352
0
LINE
8
BLACK
6
CONTINUOUS
10
1.11024
20
0.098352
11
1.11095
21
0.0989828
0
LINE
8
BLACK
6
CONTINUOUS
10
1.11095
20
0.0989828
11
1.11733
21
0.10217
0
LINE
8
BLACK
6
CONTINUOUS
10
1.11733
20
0.10217
11
1.11866
21
0.102442
0
LINE
8
BLACK
6
CONTINUOUS
10
1.11866
20
0.102442
11
1.11997
21
0.102793
0
LINE
8
BLACK
6
CONTINUOUS
10
1.11997
20
0.102793
11
1.13271
21
0.102793
0
LINE
8
BLACK
6
CONTINUOUS
10
1.13271
20
0.102793
11
1.13403
21
0.102442
0
LINE
8
BLACK
6
CONTINUOUS
10
1.12136
20
0.0909824
11
1.11709
21
0.0888473
0
LINE
8
BLACK
6
CONTINUOUS
10
1.11709
20
0.0888473
11
1.11255
21
0.0843074
0
LINE
8
BLACK
6
CONTINUOUS
10
1.11255
20
0.0843074
11
1.10994
21
0.0738512
0
LINE
8
BLACK
6
CONTINUOUS
10
1.10994
20
0.0738512
11
1.10994
21
0.0529955
0
LINE
8
BLACK
6
CONTINUOUS
10
1.10994
20
0.0529955
11
1.11255
21
0.0425393
0
LINE
8
BLACK
6
CONTINUOUS
10
1.11255
20
0.0425393
11
1.11709
21
0.0379993
0
LINE
8
BLACK
6
CONTINUOUS
10
1.11709
20
0.0379993
11
1.12136
21
0.0358643
0
LINE
8
BLACK
6
CONTINUOUS
10
1.12136
20
0.0358643
11
1.13132
21
0.0358643
0
LINE
8
BLACK
6
CONTINUOUS
10
1.13132
20
0.0358643
11
1.13559
21
0.0379993
0
LINE
8
BLACK
6
CONTINUOUS
10
1.13559
20
0.0379993
11
1.14013
21
0.0425393
0
LINE
8
BLACK
6
CONTINUOUS
10
1.14013
20
0.0425393
11
1.14274
21
0.0529955
0
LINE
8
BLACK
6
CONTINUOUS
10
1.14274
20
0.0529955
11
1.14274
21
0.0738512
0
LINE
8
BLACK
6
CONTINUOUS
10
1.14274
20
0.0738512
11
1.14013
21
0.0843074
0
LINE
8
BLACK
6
CONTINUOUS
10
1.14013
20
0.0843074
11
1.13559
21
0.0888473
0
LINE
8
BLACK
6
CONTINUOUS
10
1.13559
20
0.0888473
11
1.13132
21
0.0909824
0
LINE
8
BLACK
6
CONTINUOUS
10
1.13132
20
0.0909824
11
1.12136
21
0.0909824
0
LINE
8
BLACK
6
CONTINUOUS
10
0.757948
20
0.102442
11
0.759278
21
0.10217
0
LINE
8
BLACK
6
CONTINUOUS
10
0.759278
20
0.10217
11
0.765652
21
0.0989828
0
LINE
8
BLACK
6
CONTINUOUS
10
0.765652
20
0.0989828
11
0.766363
21
0.098352
0
LINE
8
BLACK
6
CONTINUOUS
10
0.766363
20
0.098352
11
0.767187
21
0.0978766
0
LINE
8
BLACK
6
CONTINUOUS
10
0.767187
20
0.0978766
11
0.770374
21
0.0946895
0
LINE
8
BLACK
6
CONTINUOUS
10
0.770374
20
0.0946895
11
0.771902
21
0.0920422
0
LINE
8
BLACK
6
CONTINUOUS
10
0.771902
20
0.0920422
11
0.771902
21
0.0889852
0
LINE
8
BLACK
6
CONTINUOUS
10
0.771902
20
0.0889852
11
0.770374
21
0.0863379
0
LINE
8
BLACK
6
CONTINUOUS
10
0.770374
20
0.0863379
11
0.767726
21
0.0848094
0
LINE
8
BLACK
6
CONTINUOUS
10
0.767726
20
0.0848094
11
0.764669
21
0.0848094
0
LINE
8
BLACK
6
CONTINUOUS
10
0.764669
20
0.0848094
11
0.762022
21
0.0863379
0
LINE
8
BLACK
6
CONTINUOUS
10
0.762022
20
0.0863379
11
0.759513
21
0.0888473
0
LINE
8
BLACK
6
CONTINUOUS
10
0.759513
20
0.0888473
11
0.755243
21
0.0909824
0
LINE
8
BLACK
6
CONTINUOUS
10
0.755243
20
0.0909824
11
0.742095
21
0.0909824
0
LINE
8
BLACK
6
CONTINUOUS
10
0.742095
20
0.0909824
11
0.737825
21
0.0888473
0
LINE
8
BLACK
6
CONTINUOUS
10
0.737825
20
0.0888473
11
0.735993
21
0.0870155
0
LINE
8
BLACK
6
CONTINUOUS
10
0.735993
20
0.0870155
11
0.733858
21
0.0827454
0
LINE
8
BLACK
6
CONTINUOUS
10
0.733858
20
0.0827454
11
0.733858
21
0.0787237
0
LINE
8
BLACK
6
CONTINUOUS
10
0.733858
20
0.0787237
11
0.736301
21
0.071394
0
LINE
8
BLACK
6
CONTINUOUS
10
0.736301
20
0.071394
11
0.773561
21
0.0341346
0
LINE
8
BLACK
6
CONTINUOUS
10
0.773561
20
0.0341346
11
0.77395
21
0.0334613
0
LINE
8
BLACK
6
CONTINUOUS
10
0.77395
20
0.0334613
11
0.774499
21
0.0329115
0
LINE
8
BLACK
6
CONTINUOUS
10
0.774499
20
0.0329115
11
0.774701
21
0.0321606
0
LINE
8
BLACK
6
CONTINUOUS
10
0.774701
20
0.0321606
11
0.775089
21
0.0314872
0
LINE
8
BLACK
6
CONTINUOUS
10
0.775089
20
0.0314872
11
0.775089
21
0.0307098
0
LINE
8
BLACK
6
CONTINUOUS
10
0.775089
20
0.0307098
11
0.775291
21
0.0299588
0
LINE
8
BLACK
6
CONTINUOUS
10
0.775291
20
0.0299588
11
0.775089
21
0.0292078
0
LINE
8
BLACK
6
CONTINUOUS
10
0.775089
20
0.0292078
11
0.775089
21
0.0284303
0
LINE
8
BLACK
6
CONTINUOUS
10
0.775089
20
0.0284303
11
0.774701
21
0.027757
0
LINE
8
BLACK
6
CONTINUOUS
10
0.774701
20
0.027757
11
0.774499
21
0.027006
0
LINE
8
BLACK
6
CONTINUOUS
10
0.774499
20
0.027006
11
0.77395
21
0.0264563
0
LINE
8
BLACK
6
CONTINUOUS
10
0.77395
20
0.0264563
11
0.773561
21
0.025783
0
LINE
8
BLACK
6
CONTINUOUS
10
0.773561
20
0.025783
11
0.772888
21
0.0253942
0
LINE
8
BLACK
6
CONTINUOUS
10
0.772888
20
0.0253942
11
0.772338
21
0.0248444
0
LINE
8
BLACK
6
CONTINUOUS
10
0.772338
20
0.0248444
11
0.771587
21
0.0246432
0
LINE
8
BLACK
6
CONTINUOUS
10
0.771587
20
0.0246432
11
0.770914
21
0.0242545
0
LINE
8
BLACK
6
CONTINUOUS
10
0.770914
20
0.0242545
11
0.770136
21
0.0242545
0
LINE
8
BLACK
6
CONTINUOUS
10
0.770136
20
0.0242545
11
0.769385
21
0.0240533
0
LINE
8
BLACK
6
CONTINUOUS
10
0.769385
20
0.0240533
11
0.727953
21
0.0240533
0
LINE
8
BLACK
6
CONTINUOUS
10
0.727953
20
0.0240533
11
0.725
21
0.0248444
0
LINE
8
BLACK
6
CONTINUOUS
10
0.725
20
0.0248444
11
0.722838
21
0.027006
0
LINE
8
BLACK
6
CONTINUOUS
10
0.722838
20
0.027006
11
0.722047
21
0.0299588
0
LINE
8
BLACK
6
CONTINUOUS
10
0.722047
20
0.0299588
11
0.722838
21
0.0329115
0
LINE
8
BLACK
6
CONTINUOUS
10
0.722838
20
0.0329115
11
0.725
21
0.0350731
0
LINE
8
BLACK
6
CONTINUOUS
10
0.725
20
0.0350731
11
0.727953
21
0.0358643
0
LINE
8
BLACK
6
CONTINUOUS
10
0.727953
20
0.0358643
11
0.755128
21
0.0358643
0
LINE
8
BLACK
6
CONTINUOUS
10
0.755128
20
0.0358643
11
0.726964
21
0.0640281
0
LINE
8
BLACK
6
CONTINUOUS
10
0.726964
20
0.0640281
11
0.726285
21
0.0652037
0
LINE
8
BLACK
6
CONTINUOUS
10
0.726285
20
0.0652037
11
0.725537
21
0.0663365
0
LINE
8
BLACK
6
CONTINUOUS
10
0.725537
20
0.0663365
11
0.72235
21
0.0758978
0
LINE
8
BLACK
6
CONTINUOUS
10
0.72235
20
0.0758978
11
0.722293
21
0.076847
0
LINE
8
BLACK
6
CONTINUOUS
10
0.722293
20
0.076847
11
0.722047
21
0.0777653
0
LINE
8
BLACK
6
CONTINUOUS
10
0.722047
20
0.0777653
11
0.722047
21
0.0841395
0
LINE
8
BLACK
6
CONTINUOUS
10
0.722047
20
0.0841395
11
0.722399
21
0.0854506
0
LINE
8
BLACK
6
CONTINUOUS
10
0.722399
20
0.0854506
11
0.722671
21
0.0867805
0
LINE
8
BLACK
6
CONTINUOUS
10
0.722671
20
0.0867805
11
0.725858
21
0.0931547
0
LINE
8
BLACK
6
CONTINUOUS
10
0.725858
20
0.0931547
11
0.726489
21
0.0938661
0
LINE
8
BLACK
6
CONTINUOUS
10
0.726489
20
0.0938661
11
0.726964
21
0.0946895
0
LINE
8
BLACK
6
CONTINUOUS
10
0.726964
20
0.0946895
11
0.730151
21
0.0978766
0
LINE
8
BLACK
6
CONTINUOUS
10
0.730151
20
0.0978766
11
0.730975
21
0.098352
0
LINE
8
BLACK
6
CONTINUOUS
10
0.730975
20
0.098352
11
0.731686
21
0.0989828
0
LINE
8
BLACK
6
CONTINUOUS
10
0.731686
20
0.0989828
11
0.73806
21
0.10217
0
LINE
8
BLACK
6
CONTINUOUS
10
0.73806
20
0.10217
11
0.73939
21
0.102442
0
LINE
8
BLACK
6
CONTINUOUS
10
0.73939
20
0.102442
11
0.740701
21
0.102793
0
LINE
8
BLACK
6
CONTINUOUS
10
0.740701
20
0.102793
11
0.756637
21
0.102793
0
LINE
8
BLACK
6
CONTINUOUS
10
0.756637
20
0.102793
11
0.757948
21
0.102442
0
LINE
8
BLACK
6
CONTINUOUS
10
0.815316
20
0.102442
11
0.816646
21
0.10217
0
LINE
8
BLACK
6
CONTINUOUS
10
0.816646
20
0.10217
11
0.82302
21
0.0989828
0
LINE
8
BLACK
6
CONTINUOUS
10
0.82302
20
0.0989828
11
0.823731
21
0.098352
0
LINE
8
BLACK
6
CONTINUOUS
10
0.823731
20
0.098352
11
0.824555
21
0.0978766
0
LINE
8
BLACK
6
CONTINUOUS
10
0.824555
20
0.0978766
11
0.827742
21
0.0946895
0
LINE
8
BLACK
6
CONTINUOUS
10
0.827742
20
0.0946895
11
0.828217
21
0.0938661
0
LINE
8
BLACK
6
CONTINUOUS
10
0.828217
20
0.0938661
11
0.828848
21
0.0931547
0
LINE
8
BLACK
6
CONTINUOUS
10
0.828848
20
0.0931547
11
0.832035
21
0.0867805
0
LINE
8
BLACK
6
CONTINUOUS
10
0.832035
20
0.0867805
11
0.832166
21
0.0861418
0
LINE
8
BLACK
6
CONTINUOUS
10
0.832166
20
0.0861418
11
0.832482
21
0.0855718
0
LINE
8
BLACK
6
CONTINUOUS
10
0.832482
20
0.0855718
11
0.835669
21
0.0728234
0
LINE
8
BLACK
6
CONTINUOUS
10
0.835669
20
0.0728234
11
0.835657
21
0.0720949
0
LINE
8
BLACK
6
CONTINUOUS
10
0.835657
20
0.0720949
11
0.835846
21
0.0713911
0
LINE
8
BLACK
6
CONTINUOUS
10
0.835846
20
0.0713911
11
0.835846
21
0.0554556
0
LINE
8
BLACK
6
CONTINUOUS
10
0.835846
20
0.0554556
11
0.835657
21
0.0547518
0
LINE
8
BLACK
6
CONTINUOUS
10
0.835657
20
0.0547518
11
0.835669
21
0.0540233
0
LINE
8
BLACK
6
CONTINUOUS
10
0.835669
20
0.0540233
11
0.832482
21
0.0412748
0
LINE
8
BLACK
6
CONTINUOUS
10
0.832482
20
0.0412748
11
0.832166
21
0.0407049
0
LINE
8
BLACK
6
CONTINUOUS
10
0.832166
20
0.0407049
11
0.832035
21
0.0400661
0
LINE
8
BLACK
6
CONTINUOUS
10
0.832035
20
0.0400661
11
0.828848
21
0.033692
0
LINE
8
BLACK
6
CONTINUOUS
10
0.828848
20
0.033692
11
0.828217
21
0.0329806
0
LINE
8
BLACK
6
CONTINUOUS
10
0.828217
20
0.0329806
11
0.827742
21
0.0321572
0
LINE
8
BLACK
6
CONTINUOUS
10
0.827742
20
0.0321572
11
0.824555
21
0.0289701
0
LINE
8
BLACK
6
CONTINUOUS
10
0.824555
20
0.0289701
11
0.823731
21
0.0284946
0
LINE
8
BLACK
6
CONTINUOUS
10
0.823731
20
0.0284946
11
0.82302
21
0.0278638
0
LINE
8
BLACK
6
CONTINUOUS
10
0.82302
20
0.0278638
11
0.816646
21
0.0246767
0
LINE
8
BLACK
6
CONTINUOUS
10
0.816646
20
0.0246767
11
0.815316
21
0.0244046
0
LINE
8
BLACK
6
CONTINUOUS
10
0.815316
20
0.0244046
11
0.814004
21
0.0240533
0
LINE
8
BLACK
6
CONTINUOUS
10
0.814004
20
0.0240533
11
0.80763
21
0.0240533
0
LINE
8
BLACK
6
CONTINUOUS
10
0.80763
20
0.0240533
11
0.806319
21
0.0244046
0
LINE
8
BLACK
6
CONTINUOUS
10
0.806319
20
0.0244046
11
0.804989
21
0.0246767
0
LINE
8
BLACK
6
CONTINUOUS
10
0.804989
20
0.0246767
11
0.798615
21
0.0278638
0
LINE
8
BLACK
6
CONTINUOUS
10
0.798615
20
0.0278638
11
0.797904
21
0.0284946
0
LINE
8
BLACK
6
CONTINUOUS
10
0.797904
20
0.0284946
11
0.79708
21
0.0289701
0
LINE
8
BLACK
6
CONTINUOUS
10
0.79708
20
0.0289701
11
0.793893
21
0.0321572
0
LINE
8
BLACK
6
CONTINUOUS
10
0.793893
20
0.0321572
11
0.793418
21
0.0329806
0
LINE
8
BLACK
6
CONTINUOUS
10
0.793418
20
0.0329806
11
0.792787
21
0.033692
0
LINE
8
BLACK
6
CONTINUOUS
10
0.792787
20
0.033692
11
0.7896
21
0.0400661
0
LINE
8
BLACK
6
CONTINUOUS
10
0.7896
20
0.0400661
11
0.789469
21
0.0407049
0
LINE
8
BLACK
6
CONTINUOUS
10
0.789469
20
0.0407049
11
0.789153
21
0.0412748
0
LINE
8
BLACK
6
CONTINUOUS
10
0.789153
20
0.0412748
11
0.785966
21
0.0540233
0
LINE
8
BLACK
6
CONTINUOUS
10
0.785966
20
0.0540233
11
0.785978
21
0.0547518
0
LINE
8
BLACK
6
CONTINUOUS
10
0.785978
20
0.0547518
11
0.785789
21
0.0554556
0
LINE
8
BLACK
6
CONTINUOUS
10
0.785789
20
0.0554556
11
0.785789
21
0.0713911
0
LINE
8
BLACK
6
CONTINUOUS
10
0.785789
20
0.0713911
11
0.785978
21
0.0720949
0
LINE
8
BLACK
6
CONTINUOUS
10
0.785978
20
0.0720949
11
0.785966
21
0.0728234
0
LINE
8
BLACK
6
CONTINUOUS
10
0.785966
20
0.0728234
11
0.789153
21
0.0855718
0
LINE
8
BLACK
6
CONTINUOUS
10
0.789153
20
0.0855718
11
0.789469
21
0.0861418
0
LINE
8
BLACK
6
CONTINUOUS
10
0.789469
20
0.0861418
11
0.7896
21
0.0867805
0
LINE
8
BLACK
6
CONTINUOUS
10
0.7896
20
0.0867805
11
0.792787
21
0.0931547
0
LINE
8
BLACK
6
CONTINUOUS
10
0.792787
20
0.0931547
11
0.793418
21
0.0938661
0
LINE
8
BLACK
6
CONTINUOUS
10
0.793418
20
0.0938661
11
0.793893
21
0.0946895
0
LINE
8
BLACK
6
CONTINUOUS
10
0.793893
20
0.0946895
11
0.79708
21
0.0978766
0
LINE
8
BLACK
6
CONTINUOUS
10
0.79708
20
0.0978766
11
0.797904
21
0.098352
0
LINE
8
BLACK
6
CONTINUOUS
10
0.797904
20
0.098352
11
0.798615
21
0.0989828
0
LINE
8
BLACK
6
CONTINUOUS
10
0.798615
20
0.0989828
11
0.804989
21
0.10217
0
LINE
8
BLACK
6
CONTINUOUS
10
0.804989
20
0.10217
11
0.806319
21
0.102442
0
LINE
8
BLACK
6
CONTINUOUS
10
0.806319
20
0.102442
11
0.80763
21
0.102793
0
LINE
8
BLACK
6
CONTINUOUS
10
0.80763
20
0.102793
11
0.814004
21
0.102793
0
LINE
8
BLACK
6
CONTINUOUS
10
0.814004
20
0.102793
11
0.815316
21
0.102442
0
LINE
8
BLACK
6
CONTINUOUS
10
0.809024
20
0.0909824
11
0.804754
21
0.0888473
0
LINE
8
BLACK
6
CONTINUOUS
10
0.804754
20
0.0888473
11
0.802922
21
0.0870155
0
LINE
8
BLACK
6
CONTINUOUS
10
0.802922
20
0.0870155
11
0.800454
21
0.0820783
0
LINE
8
BLACK
6
CONTINUOUS
10
0.800454
20
0.0820783
11
0.7976
21
0.0706641
0
LINE
8
BLACK
6
CONTINUOUS
10
0.7976
20
0.0706641
11
0.7976
21
0.0561826
0
LINE
8
BLACK
6
CONTINUOUS
10
0.7976
20
0.0561826
11
0.800454
21
0.0447684
0
LINE
8
BLACK
6
CONTINUOUS
10
0.800454
20
0.0447684
11
0.802922
21
0.0398312
0
LINE
8
BLACK
6
CONTINUOUS
10
0.802922
20
0.0398312
11
0.804754
21
0.0379993
0
LINE
8
BLACK
6
CONTINUOUS
10
0.804754
20
0.0379993
11
0.809024
21
0.0358643
0
LINE
8
BLACK
6
CONTINUOUS
10
0.809024
20
0.0358643
11
0.81261
21
0.0358643
0
LINE
8
BLACK
6
CONTINUOUS
10
0.81261
20
0.0358643
11
0.816881
21
0.0379993
0
LINE
8
BLACK
6
CONTINUOUS
10
0.816881
20
0.0379993
11
0.818712
21
0.0398312
0
LINE
8
BLACK
6
CONTINUOUS
10
0.818712
20
0.0398312
11
0.821181
21
0.0447684
0
LINE
8
BLACK
6
CONTINUOUS
10
0.821181
20
0.0447684
11
0.824034
21
0.0561826
0
LINE
8
BLACK
6
CONTINUOUS
10
0.824034
20
0.0561826
11
0.824034
21
0.0706641
0
LINE
8
BLACK
6
CONTINUOUS
10
0.824034
20
0.0706641
11
0.821181
21
0.0820783
0
LINE
8
BLACK
6
CONTINUOUS
10
0.821181
20
0.0820783
11
0.818712
21
0.0870155
0
LINE
8
BLACK
6
CONTINUOUS
10
0.818712
20
0.0870155
11
0.816881
21
0.0888473
0
LINE
8
BLACK
6
CONTINUOUS
10
0.816881
20
0.0888473
11
0.81261
21
0.0909824
0
LINE
8
BLACK
6
CONTINUOUS
10
0.81261
20
0.0909824
11
0.809024
21
0.0909824
0
LINE
8
BLACK
6
CONTINUOUS
10
0.896635
20
0.102002
11
0.898796
21
0.0998407
0
LINE
8
BLACK
6
CONTINUOUS
10
0.898796
20
0.0998407
11
0.899588
21
0.0968879
0
LINE
8
BLACK
6
CONTINUOUS
10
0.899588
20
0.0968879
11
0.899588
21
0.0299588
0
LINE
8
BLACK
6
CONTINUOUS
10
0.899588
20
0.0299588
11
0.898796
21
0.027006
0
LINE
8
BLACK
6
CONTINUOUS
10
0.898796
20
0.027006
11
0.896635
21
0.0248444
0
LINE
8
BLACK
6
CONTINUOUS
10
0.896635
20
0.0248444
11
0.893682
21
0.0240533
0
LINE
8
BLACK
6
CONTINUOUS
10
0.893682
20
0.0240533
11
0.890729
21
0.0248444
0
LINE
8
BLACK
6
CONTINUOUS
10
0.890729
20
0.0248444
11
0.888568
21
0.027006
0
LINE
8
BLACK
6
CONTINUOUS
10
0.888568
20
0.027006
11
0.887776
21
0.0299588
0
LINE
8
BLACK
6
CONTINUOUS
10
0.887776
20
0.0299588
11
0.887776
21
0.0559243
0
LINE
8
BLACK
6
CONTINUOUS
10
0.887776
20
0.0559243
11
0.880821
21
0.0559243
0
LINE
8
BLACK
6
CONTINUOUS
10
0.880821
20
0.0559243
11
0.860275
21
0.0265722
0
LINE
8
BLACK
6
CONTINUOUS
10
0.860275
20
0.0265722
11
0.857933
21
0.0246069
0
LINE
8
BLACK
6
CONTINUOUS
10
0.857933
20
0.0246069
11
0.854923
21
0.0240757
0
LINE
8
BLACK
6
CONTINUOUS
10
0.854923
20
0.0240757
11
0.85205
21
0.0251208
0
LINE
8
BLACK
6
CONTINUOUS
10
0.85205
20
0.0251208
11
0.850085
21
0.0274622
0
LINE
8
BLACK
6
CONTINUOUS
10
0.850085
20
0.0274622
11
0.849554
21
0.0304727
0
LINE
8
BLACK
6
CONTINUOUS
10
0.849554
20
0.0304727
11
0.850599
21
0.0333454
0
LINE
8
BLACK
6
CONTINUOUS
10
0.850599
20
0.0333454
11
0.866678
21
0.0563157
0
LINE
8
BLACK
6
CONTINUOUS
10
0.866678
20
0.0563157
11
0.865544
21
0.0565478
0
LINE
8
BLACK
6
CONTINUOUS
10
0.865544
20
0.0565478
11
0.85917
21
0.0597348
0
LINE
8
BLACK
6
CONTINUOUS
10
0.85917
20
0.0597348
11
0.858459
21
0.0603657
0
LINE
8
BLACK
6
CONTINUOUS
10
0.858459
20
0.0603657
11
0.857635
21
0.060841
0
LINE
8
BLACK
6
CONTINUOUS
10
0.857635
20
0.060841
11
0.854448
21
0.0640281
0
LINE
8
BLACK
6
CONTINUOUS
10
0.854448
20
0.0640281
11
0.853973
21
0.0648515
0
LINE
8
BLACK
6
CONTINUOUS
10
0.853973
20
0.0648515
11
0.853342
21
0.065563
0
LINE
8
BLACK
6
CONTINUOUS
10
0.853342
20
0.065563
11
0.850155
21
0.0719372
0
LINE
8
BLACK
6
CONTINUOUS
10
0.850155
20
0.0719372
11
0.849883
21
0.073267
0
LINE
8
BLACK
6
CONTINUOUS
10
0.849883
20
0.073267
11
0.849531
21
0.0745782
0
LINE
8
BLACK
6
CONTINUOUS
10
0.849531
20
0.0745782
11
0.849531
21
0.0841395
0
LINE
8
BLACK
6
CONTINUOUS
10
0.849531
20
0.0841395
11
0.849883
21
0.0854506
0
LINE
8
BLACK
6
CONTINUOUS
10
0.849883
20
0.0854506
11
0.850155
21
0.0867805
0
LINE
8
BLACK
6
CONTINUOUS
10
0.850155
20
0.0867805
11
0.853342
21
0.0931547
0
LINE
8
BLACK
6
CONTINUOUS
10
0.853342
20
0.0931547
11
0.853973
21
0.0938661
0
LINE
8
BLACK
6
CONTINUOUS
10
0.853973
20
0.0938661
11
0.854448
21
0.0946896
0
LINE
8
BLACK
6
CONTINUOUS
10
0.854448
20
0.0946896
11
0.857635
21
0.0978767
0
LINE
8
BLACK
6
CONTINUOUS
10
0.857635
20
0.0978767
11
0.858459
21
0.098352
0
LINE
8
BLACK
6
CONTINUOUS
10
0.858459
20
0.098352
11
0.85917
21
0.0989828
0
LINE
8
BLACK
6
CONTINUOUS
10
0.85917
20
0.0989828
11
0.865544
21
0.10217
0
LINE
8
BLACK
6
CONTINUOUS
10
0.865544
20
0.10217
11
0.866874
21
0.102442
0
LINE
8
BLACK
6
CONTINUOUS
10
0.866874
20
0.102442
11
0.868185
21
0.102793
0
LINE
8
BLACK
6
CONTINUOUS
10
0.868185
20
0.102793
11
0.893682
21
0.102793
0
LINE
8
BLACK
6
CONTINUOUS
10
0.893682
20
0.102793
11
0.896635
21
0.102002
0
LINE
8
BLACK
6
CONTINUOUS
10
0.869579
20
0.0909824
11
0.865309
21
0.0888473
0
LINE
8
BLACK
6
CONTINUOUS
10
0.865309
20
0.0888473
11
0.863477
21
0.0870155
0
LINE
8
BLACK
6
CONTINUOUS
10
0.863477
20
0.0870155
11
0.861342
21
0.0827454
0
LINE
8
BLACK
6
CONTINUOUS
10
0.861342
20
0.0827454
11
0.861342
21
0.0759723
0
LINE
8
BLACK
6
CONTINUOUS
10
0.861342
20
0.0759723
11
0.863477
21
0.0717022
0
LINE
8
BLACK
6
CONTINUOUS
10
0.863477
20
0.0717022
11
0.865309
21
0.0698704
0
LINE
8
BLACK
6
CONTINUOUS
10
0.865309
20
0.0698704
11
0.869579
21
0.0677353
0
LINE
8
BLACK
6
CONTINUOUS
10
0.869579
20
0.0677353
11
0.887776
21
0.0677353
0
LINE
8
BLACK
6
CONTINUOUS
10
0.887776
20
0.0677353
11
0.887776
21
0.0909824
0
LINE
8
BLACK
6
CONTINUOUS
10
0.887776
20
0.0909824
11
0.869579
21
0.0909824
0
LINE
8
BLACK
6
CONTINUOUS
10
0.919413
20
0.0248444
11
0.917252
21
0.027006
0
LINE
8
BLACK
6
CONTINUOUS
10
0.917252
20
0.027006
11
0.91646
21
0.0299588
0
LINE
8
BLACK
6
CONTINUOUS
10
0.91646
20
0.0299588
11
0.917252
21
0.0329115
0
LINE
8
BLACK
6
CONTINUOUS
10
0.917252
20
0.0329115
11
0.919413
21
0.0350731
0
LINE
8
BLACK
6
CONTINUOUS
10
0.919413
20
0.0350731
11
0.922366
21
0.0358643
0
LINE
8
BLACK
6
CONTINUOUS
10
0.922366
20
0.0358643
11
0.948331
21
0.0358643
0
LINE
8
BLACK
6
CONTINUOUS
10
0.948331
20
0.0358643
11
0.948331
21
0.0591114
0
LINE
8
BLACK
6
CONTINUOUS
10
0.948331
20
0.0591114
11
0.931927
21
0.0591114
0
LINE
8
BLACK
6
CONTINUOUS
10
0.931927
20
0.0591114
11
0.928974
21
0.0599026
0
LINE
8
BLACK
6
CONTINUOUS
10
0.928974
20
0.0599026
11
0.926813
21
0.0620641
0
LINE
8
BLACK
6
CONTINUOUS
10
0.926813
20
0.0620641
11
0.926022
21
0.0650169
0
LINE
8
BLACK
6
CONTINUOUS
10
0.926022
20
0.0650169
11
0.926813
21
0.0679696
0
LINE
8
BLACK
6
CONTINUOUS
10
0.926813
20
0.0679696
11
0.928974
21
0.0701312
0
LINE
8
BLACK
6
CONTINUOUS
10
0.928974
20
0.0701312
11
0.931927
21
0.0709224
0
LINE
8
BLACK
6
CONTINUOUS
10
0.931927
20
0.0709224
11
0.948331
21
0.0709224
0
LINE
8
BLACK
6
CONTINUOUS
10
0.948331
20
0.0709224
11
0.948331
21
0.0909824
0
LINE
8
BLACK
6
CONTINUOUS
10
0.948331
20
0.0909824
11
0.922366
21
0.0909824
0
LINE
8
BLACK
6
CONTINUOUS
10
0.922366
20
0.0909824
11
0.919413
21
0.0917736
0
LINE
8
BLACK
6
CONTINUOUS
10
0.919413
20
0.0917736
11
0.917252
21
0.0939352
0
LINE
8
BLACK
6
CONTINUOUS
10
0.917252
20
0.0939352
11
0.91646
21
0.0968879
0
LINE
8
BLACK
6
CONTINUOUS
10
0.91646
20
0.0968879
11
0.917252
21
0.0998407
0
LINE
8
BLACK
6
CONTINUOUS
10
0.917252
20
0.0998407
11
0.919413
21
0.102002
0
LINE
8
BLACK
6
CONTINUOUS
10
0.919413
20
0.102002
11
0.922366
21
0.102793
0
LINE
8
BLACK
6
CONTINUOUS
10
0.922366
20
0.102793
11
0.954237
21
0.102793
0
LINE
8
BLACK
6
CONTINUOUS
10
0.954237
20
0.102793
11
0.95719
21
0.102002
0
LINE
8
BLACK
6
CONTINUOUS
10
0.95719
20
0.102002
11
0.959351
21
0.0998407
0
LINE
8
BLACK
6
CONTINUOUS
10
0.959351
20
0.0998407
11
0.960142
21
0.0968879
0
LINE
8
BLACK
6
CONTINUOUS
10
0.960142
20
0.0968879
11
0.960142
21
0.0299588
0
LINE
8
BLACK
6
CONTINUOUS
10
0.960142
20
0.0299588
11
0.959351
21
0.027006
0
LINE
8
BLACK
6
CONTINUOUS
10
0.959351
20
0.027006
11
0.95719
21
0.0248444
0
LINE
8
BLACK
6
CONTINUOUS
10
0.95719
20
0.0248444
11
0.954237
21
0.0240533
0
LINE
8
BLACK
6
CONTINUOUS
10
0.954237
20
0.0240533
11
0.922366
21
0.0240533
0
LINE
8
BLACK
6
CONTINUOUS
10
0.922366
20
0.0240533
11
0.919413
21
0.0248444
0
LINE
8
BLACK
6
CONTINUOUS
10
1.00431
20
0.0242993
11
1.00336
21
0.0243563
0
LINE
8
BLACK
6
CONTINUOUS
10
1.00336
20
0.0243563
11
0.993802
21
0.0275434
0
LINE
8
BLACK
6
CONTINUOUS
10
0.993802
20
0.0275434
11
0.992669
21
0.0282914
0
LINE
8
BLACK
6
CONTINUOUS
10
0.992669
20
0.0282914
11
0.991493
21
0.02897
0
LINE
8
BLACK
6
CONTINUOUS
10
0.991493
20
0.02897
11
0.985119
21
0.0353443
0
LINE
8
BLACK
6
CONTINUOUS
10
0.985119
20
0.0353443
11
0.984644
21
0.0361676
0
LINE
8
BLACK
6
CONTINUOUS
10
0.984644
20
0.0361676
11
0.984013
21
0.036879
0
LINE
8
BLACK
6
CONTINUOUS
10
0.984013
20
0.036879
11
0.980826
21
0.0432533
0
LINE
8
BLACK
6
CONTINUOUS
10
0.980826
20
0.0432533
11
0.980695
21
0.043892
0
LINE
8
BLACK
6
CONTINUOUS
10
0.980695
20
0.043892
11
0.980379
21
0.044462
0
LINE
8
BLACK
6
CONTINUOUS
10
0.980379
20
0.044462
11
0.977192
21
0.0572104
0
LINE
8
BLACK
6
CONTINUOUS
10
0.977192
20
0.0572104
11
0.977204
21
0.0579389
0
LINE
8
BLACK
6
CONTINUOUS
10
0.977204
20
0.0579389
11
0.977015
21
0.0586427
0
LINE
8
BLACK
6
CONTINUOUS
10
0.977015
20
0.0586427
11
0.977015
21
0.068204
0
LINE
8
BLACK
6
CONTINUOUS
10
0.977015
20
0.068204
11
0.977204
21
0.0689078
0
LINE
8
BLACK
6
CONTINUOUS
10
0.977204
20
0.0689078
11
0.977192
21
0.0696363
0
LINE
8
BLACK
6
CONTINUOUS
10
0.977192
20
0.0696363
11
0.980379
21
0.0823847
0
LINE
8
BLACK
6
CONTINUOUS
10
0.980379
20
0.0823847
11
0.980695
21
0.0829547
0
LINE
8
BLACK
6
CONTINUOUS
10
0.980695
20
0.0829547
11
0.980826
21
0.0835934
0
LINE
8
BLACK
6
CONTINUOUS
10
0.980826
20
0.0835934
11
0.984013
21
0.0899677
0
LINE
8
BLACK
6
CONTINUOUS
10
0.984013
20
0.0899677
11
0.984644
21
0.0906791
0
LINE
8
BLACK
6
CONTINUOUS
10
0.984644
20
0.0906791
11
0.985119
21
0.0915024
0
LINE
8
BLACK
6
CONTINUOUS
10
0.985119
20
0.0915024
11
0.991494
21
0.0978767
0
LINE
8
BLACK
6
CONTINUOUS
10
0.991494
20
0.0978767
11
0.992669
21
0.0985554
0
LINE
8
BLACK
6
CONTINUOUS
10
0.992669
20
0.0985554
11
0.993802
21
0.0993032
0
LINE
8
BLACK
6
CONTINUOUS
10
0.993802
20
0.0993032
11
1.00336
21
0.10249
0
LINE
8
BLACK
6
CONTINUOUS
10
1.00336
20
0.10249
11
1.00431
21
0.102547
0
LINE
8
BLACK
6
CONTINUOUS
10
1.00431
20
0.102547
11
1.00523
21
0.102793
0
LINE
8
BLACK
6
CONTINUOUS
10
1.00523
20
0.102793
11
1.02117
21
0.102793
0
LINE
8
BLACK
6
CONTINUOUS
10
1.02117
20
0.102793
11
1.02412
21
0.102002
0
LINE
8
BLACK
6
CONTINUOUS
10
1.02412
20
0.102002
11
1.02628
21
0.0998407
0
LINE
8
BLACK
6
CONTINUOUS
10
1.02628
20
0.0998407
11
1.02707
21
0.0968879
0
LINE
8
BLACK
6
CONTINUOUS
10
1.02707
20
0.0968879
11
1.02707
21
0.0299588
0
LINE
8
BLACK
6
CONTINUOUS
10
1.02707
20
0.0299588
11
1.02628
21
0.027006
0
LINE
8
BLACK
6
CONTINUOUS
10
1.02628
20
0.027006
11
1.02412
21
0.0248444
0
LINE
8
BLACK
6
CONTINUOUS
10
1.02412
20
0.0248444
11
1.02117
21
0.0240533
0
LINE
8
BLACK
6
CONTINUOUS
10
1.02117
20
0.0240533
11
1.00523
21
0.0240533
0
LINE
8
BLACK
6
CONTINUOUS
10
1.00523
20
0.0240533
11
1.00431
21
0.0242993
0
LINE
8
BLACK
6
CONTINUOUS
10
1.00619
20
0.0909824
11
0.998859
21
0.0885392
0
LINE
8
BLACK
6
CONTINUOUS
10
0.998859
20
0.0885392
11
0.994149
21
0.0838284
0
LINE
8
BLACK
6
CONTINUOUS
10
0.994149
20
0.0838284
11
0.99168
21
0.0788913
0
LINE
8
BLACK
6
CONTINUOUS
10
0.99168
20
0.0788913
11
0.988826
21
0.067477
0
LINE
8
BLACK
6
CONTINUOUS
10
0.988826
20
0.067477
11
0.988826
21
0.0593696
0
LINE
8
BLACK
6
CONTINUOUS
10
0.988826
20
0.0593696
11
0.99168
21
0.0479556
0
LINE
8
BLACK
6
CONTINUOUS
10
0.99168
20
0.0479556
11
0.994149
21
0.0430183
0
LINE
8
BLACK
6
CONTINUOUS
10
0.994149
20
0.0430183
11
0.998859
21
0.0383075
0
LINE
8
BLACK
6
CONTINUOUS
10
0.998859
20
0.0383075
11
1.00619
21
0.0358643
0
LINE
8
BLACK
6
CONTINUOUS
10
1.00619
20
0.0358643
11
1.01526
21
0.0358643
0
LINE
8
BLACK
6
CONTINUOUS
10
1.01526
20
0.0358643
11
1.01526
21
0.0909824
0
LINE
8
BLACK
6
CONTINUOUS
10
1.01526
20
0.0909824
11
1.00619
21
0.0909824
0
LINE
8
BLACK
6
CONTINUOUS
10
0.688027
20
0.102512
11
0.688388
21
0.10249
0
LINE
8
BLACK
6
CONTINUOUS
10
0.688388
20
0.10249
11
0.689378
21
0.101837
0
LINE
8
BLACK
6
CONTINUOUS
10
0.689378
20
0.101837
11
0.690439
21
0.101306
0
LINE
8
BLACK
6
CONTINUOUS
10
0.690439
20
0.101306
11
0.690638
21
0.101005
0
LINE
8
BLACK
6
CONTINUOUS
10
0.690638
20
0.101005
11
0.690939
21
0.100806
0
LINE
8
BLACK
6
CONTINUOUS
10
0.690939
20
0.100806
11
0.691469
21
0.0997454
0
LINE
8
BLACK
6
CONTINUOUS
10
0.691469
20
0.0997454
11
0.692123
21
0.0987554
0
LINE
8
BLACK
6
CONTINUOUS
10
0.692123
20
0.0987554
11
0.714433
21
0.0318263
0
LINE
8
BLACK
6
CONTINUOUS
10
0.714433
20
0.0318263
11
0.714616
21
0.0287748
0
LINE
8
BLACK
6
CONTINUOUS
10
0.714616
20
0.0287748
11
0.713249
21
0.0260406
0
LINE
8
BLACK
6
CONTINUOUS
10
0.713249
20
0.0260406
11
0.710698
21
0.0243563
0
LINE
8
BLACK
6
CONTINUOUS
10
0.710698
20
0.0243563
11
0.707646
21
0.0241731
0
LINE
8
BLACK
6
CONTINUOUS
10
0.707646
20
0.0241731
11
0.704912
21
0.0255403
0
LINE
8
BLACK
6
CONTINUOUS
10
0.704912
20
0.0255403
11
0.703228
21
0.0280913
0
LINE
8
BLACK
6
CONTINUOUS
10
0.703228
20
0.0280913
11
0.698199
21
0.0431759
0
LINE
8
BLACK
6
CONTINUOUS
10
0.698199
20
0.0431759
11
0.674841
21
0.0431759
0
LINE
8
BLACK
6
CONTINUOUS
10
0.674841
20
0.0431759
11
0.669813
21
0.0280913
0
LINE
8
BLACK
6
CONTINUOUS
10
0.669813
20
0.0280913
11
0.668129
21
0.0255402
0
LINE
8
BLACK
6
CONTINUOUS
10
0.668129
20
0.0255402
11
0.665395
21
0.0241731
0
LINE
8
BLACK
6
CONTINUOUS
10
0.665395
20
0.0241731
11
0.662343
21
0.0243563
0
LINE
8
BLACK
6
CONTINUOUS
10
0.662343
20
0.0243563
11
0.659792
21
0.0260406
0
LINE
8
BLACK
6
CONTINUOUS
10
0.659792
20
0.0260406
11
0.658425
21
0.0287748
0
LINE
8
BLACK
6
CONTINUOUS
10
0.658425
20
0.0287748
11
0.658608
21
0.0318263
0
LINE
8
BLACK
6
CONTINUOUS
10
0.658608
20
0.0318263
11
0.680918
21
0.0987554
0
LINE
8
BLACK
6
CONTINUOUS
10
0.680918
20
0.0987554
11
0.681572
21
0.0997453
0
LINE
8
BLACK
6
CONTINUOUS
10
0.681572
20
0.0997453
11
0.682102
21
0.100806
0
LINE
8
BLACK
6
CONTINUOUS
10
0.682102
20
0.100806
11
0.682403
21
0.101005
0
LINE
8
BLACK
6
CONTINUOUS
10
0.682403
20
0.101005
11
0.682602
21
0.101306
0
LINE
8
BLACK
6
CONTINUOUS
10
0.682602
20
0.101306
11
0.683663
21
0.101837
0
LINE
8
BLACK
6
CONTINUOUS
10
0.683663
20
0.101837
11
0.684653
21
0.10249
0
LINE
8
BLACK
6
CONTINUOUS
10
0.684653
20
0.10249
11
0.685014
21
0.102512
0
LINE
8
BLACK
6
CONTINUOUS
10
0.685014
20
0.102512
11
0.685336
21
0.102674
0
LINE
8
BLACK
6
CONTINUOUS
10
0.685336
20
0.102674
11
0.68652
21
0.102602
0
LINE
8
BLACK
6
CONTINUOUS
10
0.68652
20
0.102602
11
0.687704
21
0.102674
0
LINE
8
BLACK
6
CONTINUOUS
10
0.687704
20
0.102674
11
0.688027
21
0.102512
0
LINE
8
BLACK
6
CONTINUOUS
10
0.678778
20
0.0549869
11
0.694262
21
0.0549869
0
LINE
8
BLACK
6
CONTINUOUS
10
0.694262
20
0.0549869
11
0.68652
21
0.078213
0
LINE
8
BLACK
6
CONTINUOUS
10
0.68652
20
0.078213
11
0.678778
21
0.0549869
0
LINE
8
BLACK
6
CONTINUOUS
10
0.381974
20
0.0302304
11
0.380644
21
0.0305026
0
LINE
8
BLACK
6
CONTINUOUS
10
0.380644
20
0.0305026
11
0.375019
21
0.0333147
0
LINE
8
BLACK
6
CONTINUOUS
10
0.375019
20
0.0333147
11
0.374308
21
0.0339455
0
LINE
8
BLACK
6
CONTINUOUS
10
0.374308
20
0.0339455
11
0.373484
21
0.0344209
0
LINE
8
BLACK
6
CONTINUOUS
10
0.373484
20
0.0344209
11
0.370672
21
0.037233
0
LINE
8
BLACK
6
CONTINUOUS
10
0.370672
20
0.037233
11
0.370197
21
0.0380565
0
LINE
8
BLACK
6
CONTINUOUS
10
0.370197
20
0.0380565
11
0.369566
21
0.0387679
0
LINE
8
BLACK
6
CONTINUOUS
10
0.369566
20
0.0387679
11
0.366754
21
0.0443922
0
LINE
8
BLACK
6
CONTINUOUS
10
0.366754
20
0.0443922
11
0.366482
21
0.045722
0
LINE
8
BLACK
6
CONTINUOUS
10
0.366482
20
0.045722
11
0.36613
21
0.0470332
0
LINE
8
BLACK
6
CONTINUOUS
10
0.36613
20
0.0470332
11
0.36613
21
0.0554696
0
LINE
8
BLACK
6
CONTINUOUS
10
0.36613
20
0.0554696
11
0.366482
21
0.0567808
0
LINE
8
BLACK
6
CONTINUOUS
10
0.366482
20
0.0567808
11
0.366754
21
0.0581107
0
LINE
8
BLACK
6
CONTINUOUS
10
0.366754
20
0.0581107
11
0.369566
21
0.063735
0
LINE
8
BLACK
6
CONTINUOUS
10
0.369566
20
0.063735
11
0.370197
21
0.0644464
0
LINE
8
BLACK
6
CONTINUOUS
10
0.370197
20
0.0644464
11
0.370672
21
0.0652698
0
LINE
8
BLACK
6
CONTINUOUS
10
0.370672
20
0.0652698
11
0.373484
21
0.0680819
0
LINE
8
BLACK
6
CONTINUOUS
10
0.373484
20
0.0680819
11
0.373538
21
0.068113
0
LINE
8
BLACK
6
CONTINUOUS
10
0.373538
20
0.068113
11
0.373484
21
0.0681667
0
LINE
8
BLACK
6
CONTINUOUS
10
0.373484
20
0.0681667
11
0.373009
21
0.0689901
0
LINE
8
BLACK
6
CONTINUOUS
10
0.373009
20
0.0689901
11
0.372378
21
0.0697015
0
LINE
8
BLACK
6
CONTINUOUS
10
0.372378
20
0.0697015
11
0.369566
21
0.0753258
0
LINE
8
BLACK
6
CONTINUOUS
10
0.369566
20
0.0753258
11
0.369294
21
0.0766557
0
LINE
8
BLACK
6
CONTINUOUS
10
0.369294
20
0.0766557
11
0.368943
21
0.0779669
0
LINE
8
BLACK
6
CONTINUOUS
10
0.368943
20
0.0779669
11
0.368943
21
0.0835911
0
LINE
8
BLACK
6
CONTINUOUS
10
0.368943
20
0.0835911
11
0.369294
21
0.0849022
0
LINE
8
BLACK
6
CONTINUOUS
10
0.369294
20
0.0849022
11
0.369566
21
0.0862322
0
LINE
8
BLACK
6
CONTINUOUS
10
0.369566
20
0.0862322
11
0.372378
21
0.0918565
0
LINE
8
BLACK
6
CONTINUOUS
10
0.372378
20
0.0918565
11
0.373009
21
0.0925678
0
LINE
8
BLACK
6
CONTINUOUS
10
0.373009
20
0.0925678
11
0.373484
21
0.0933913
0
LINE
8
BLACK
6
CONTINUOUS
10
0.373484
20
0.0933913
11
0.376297
21
0.0962034
0
LINE
8
BLACK
6
CONTINUOUS
10
0.376297
20
0.0962034
11
0.37712
21
0.0966788
0
LINE
8
BLACK
6
CONTINUOUS
10
0.37712
20
0.0966788
11
0.377831
21
0.0973096
0
LINE
8
BLACK
6
CONTINUOUS
10
0.377831
20
0.0973096
11
0.383456
21
0.100122
0
LINE
8
BLACK
6
CONTINUOUS
10
0.383456
20
0.100122
11
0.384786
21
0.100394
0
LINE
8
BLACK
6
CONTINUOUS
10
0.384786
20
0.100394
11
0.386097
21
0.100745
0
LINE
8
BLACK
6
CONTINUOUS
10
0.386097
20
0.100745
11
0.405782
21
0.100745
0
LINE
8
BLACK
6
CONTINUOUS
10
0.405782
20
0.100745
11
0.408735
21
0.0999541
0
LINE
8
BLACK
6
CONTINUOUS
10
0.408735
20
0.0999541
11
0.410896
21
0.0977925
0
LINE
8
BLACK
6
CONTINUOUS
10
0.410896
20
0.0977925
11
0.411687
21
0.0948397
0
LINE
8
BLACK
6
CONTINUOUS
10
0.411687
20
0.0948397
11
0.411687
21
0.0357846
0
LINE
8
BLACK
6
CONTINUOUS
10
0.411687
20
0.0357846
11
0.410896
21
0.0328319
0
LINE
8
BLACK
6
CONTINUOUS
10
0.410896
20
0.0328319
11
0.408735
21
0.0306703
0
LINE
8
BLACK
6
CONTINUOUS
10
0.408735
20
0.0306703
11
0.405782
21
0.0298791
0
LINE
8
BLACK
6
CONTINUOUS
10
0.405782
20
0.0298791
11
0.383285
21
0.0298791
0
LINE
8
BLACK
6
CONTINUOUS
10
0.383285
20
0.0298791
11
0.381974
21
0.0302304
0
LINE
8
BLACK
6
CONTINUOUS
10
0.387055
20
0.0608127
11
0.38085
21
0.0587444
0
LINE
8
BLACK
6
CONTINUOUS
10
0.38085
20
0.0587444
11
0.379702
21
0.0575957
0
LINE
8
BLACK
6
CONTINUOUS
10
0.379702
20
0.0575957
11
0.377941
21
0.0540756
0
LINE
8
BLACK
6
CONTINUOUS
10
0.377941
20
0.0540756
11
0.377941
21
0.0484273
0
LINE
8
BLACK
6
CONTINUOUS
10
0.377941
20
0.0484273
11
0.379702
21
0.0449071
0
LINE
8
BLACK
6
CONTINUOUS
10
0.379702
20
0.0449071
11
0.381158
21
0.0434502
0
LINE
8
BLACK
6
CONTINUOUS
10
0.381158
20
0.0434502
11
0.384679
21
0.0416901
0
LINE
8
BLACK
6
CONTINUOUS
10
0.384679
20
0.0416901
11
0.399876
21
0.0416901
0
LINE
8
BLACK
6
CONTINUOUS
10
0.399876
20
0.0416901
11
0.399876
21
0.0608127
0
LINE
8
BLACK
6
CONTINUOUS
10
0.399876
20
0.0608127
11
0.387055
21
0.0608127
0
LINE
8
BLACK
6
CONTINUOUS
10
0.387491
20
0.0889342
11
0.383971
21
0.0871741
0
LINE
8
BLACK
6
CONTINUOUS
10
0.383971
20
0.0871741
11
0.382514
21
0.0857172
0
LINE
8
BLACK
6
CONTINUOUS
10
0.382514
20
0.0857172
11
0.380754
21
0.082197
0
LINE
8
BLACK
6
CONTINUOUS
10
0.380754
20
0.082197
11
0.380754
21
0.0793609
0
LINE
8
BLACK
6
CONTINUOUS
10
0.380754
20
0.0793609
11
0.382514
21
0.0758407
0
LINE
8
BLACK
6
CONTINUOUS
10
0.382514
20
0.0758407
11
0.383971
21
0.0743839
0
LINE
8
BLACK
6
CONTINUOUS
10
0.383971
20
0.0743839
11
0.387491
21
0.0726237
0
LINE
8
BLACK
6
CONTINUOUS
10
0.387491
20
0.0726237
11
0.399876
21
0.0726237
0
LINE
8
BLACK
6
CONTINUOUS
10
0.399876
20
0.0726237
11
0.399876
21
0.0889342
0
LINE
8
BLACK
6
CONTINUOUS
10
0.399876
20
0.0889342
11
0.387491
21
0.0889342
0
LINE
8
BLACK
6
CONTINUOUS
10
0.276564
20
0.080269
11
0.278725
21
0.0781074
0
LINE
8
BLACK
6
CONTINUOUS
10
0.278725
20
0.0781074
11
0.279516
21
0.0751547
0
LINE
8
BLACK
6
CONTINUOUS
10
0.279516
20
0.0751547
11
0.278725
21
0.0722019
0
LINE
8
BLACK
6
CONTINUOUS
10
0.278725
20
0.0722019
11
0.276564
21
0.0700404
0
LINE
8
BLACK
6
CONTINUOUS
10
0.276564
20
0.0700404
11
0.273611
21
0.0692492
0
LINE
8
BLACK
6
CONTINUOUS
10
0.273611
20
0.0692492
11
0.254828
21
0.0692492
0
LINE
8
BLACK
6
CONTINUOUS
10
0.254828
20
0.0692492
11
0.278254
21
0.0394332
0
LINE
8
BLACK
6
CONTINUOUS
10
0.278254
20
0.0394332
11
0.278423
21
0.0390398
0
LINE
8
BLACK
6
CONTINUOUS
10
0.278423
20
0.0390398
11
0.278725
21
0.0387374
0
LINE
8
BLACK
6
CONTINUOUS
10
0.278725
20
0.0387374
11
0.279015
21
0.0376539
0
LINE
8
BLACK
6
CONTINUOUS
10
0.279015
20
0.0376539
11
0.279457
21
0.0366226
0
LINE
8
BLACK
6
CONTINUOUS
10
0.279457
20
0.0366226
11
0.279406
21
0.0361978
0
LINE
8
BLACK
6
CONTINUOUS
10
0.279406
20
0.0361978
11
0.279516
21
0.0357846
0
LINE
8
BLACK
6
CONTINUOUS
10
0.279516
20
0.0357846
11
0.279226
21
0.034701
0
LINE
8
BLACK
6
CONTINUOUS
10
0.279226
20
0.034701
11
0.279092
21
0.0335874
0
LINE
8
BLACK
6
CONTINUOUS
10
0.279092
20
0.0335874
11
0.278836
21
0.0332451
0
LINE
8
BLACK
6
CONTINUOUS
10
0.278836
20
0.0332451
11
0.278725
21
0.0328319
0
LINE
8
BLACK
6
CONTINUOUS
10
0.278725
20
0.0328319
11
0.277932
21
0.0320385
0
LINE
8
BLACK
6
CONTINUOUS
10
0.277932
20
0.0320385
11
0.277259
21
0.031141
0
LINE
8
BLACK
6
CONTINUOUS
10
0.277259
20
0.031141
11
0.276866
21
0.0309728
0
LINE
8
BLACK
6
CONTINUOUS
10
0.276866
20
0.0309728
11
0.276564
21
0.0306703
0
LINE
8
BLACK
6
CONTINUOUS
10
0.276564
20
0.0306703
11
0.27548
21
0.0303799
0
LINE
8
BLACK
6
CONTINUOUS
10
0.27548
20
0.0303799
11
0.274449
21
0.0299389
0
LINE
8
BLACK
6
CONTINUOUS
10
0.274449
20
0.0299389
11
0.274024
21
0.0299898
0
LINE
8
BLACK
6
CONTINUOUS
10
0.274024
20
0.0299898
11
0.273611
21
0.0298791
0
LINE
8
BLACK
6
CONTINUOUS
10
0.273611
20
0.0298791
11
0.242677
21
0.0298791
0
LINE
8
BLACK
6
CONTINUOUS
10
0.242677
20
0.0298791
11
0.239724
21
0.0306703
0
LINE
8
BLACK
6
CONTINUOUS
10
0.239724
20
0.0306703
11
0.237563
21
0.0328319
0
LINE
8
BLACK
6
CONTINUOUS
10
0.237563
20
0.0328319
11
0.236772
21
0.0357846
0
LINE
8
BLACK
6
CONTINUOUS
10
0.236772
20
0.0357846
11
0.237563
21
0.0387374
0
LINE
8
BLACK
6
CONTINUOUS
10
0.237563
20
0.0387374
11
0.239724
21
0.0408989
0
LINE
8
BLACK
6
CONTINUOUS
10
0.239724
20
0.0408989
11
0.242677
21
0.0416901
0
LINE
8
BLACK
6
CONTINUOUS
10
0.242677
20
0.0416901
11
0.26146
21
0.0416901
0
LINE
8
BLACK
6
CONTINUOUS
10
0.26146
20
0.0416901
11
0.238034
21
0.0715061
0
LINE
8
BLACK
6
CONTINUOUS
10
0.238034
20
0.0715061
11
0.237865
21
0.0718994
0
LINE
8
BLACK
6
CONTINUOUS
10
0.237865
20
0.0718994
11
0.237563
21
0.0722019
0
LINE
8
BLACK
6
CONTINUOUS
10
0.237563
20
0.0722019
11
0.237273
21
0.0732853
0
LINE
8
BLACK
6
CONTINUOUS
10
0.237273
20
0.0732853
11
0.236831
21
0.0743167
0
LINE
8
BLACK
6
CONTINUOUS
10
0.236831
20
0.0743167
11
0.236882
21
0.0747415
0
LINE
8
BLACK
6
CONTINUOUS
10
0.236882
20
0.0747415
11
0.236772
21
0.0751547
0
LINE
8
BLACK
6
CONTINUOUS
10
0.236772
20
0.0751547
11
0.237062
21
0.0762382
0
LINE
8
BLACK
6
CONTINUOUS
10
0.237062
20
0.0762382
11
0.237196
21
0.0773519
0
LINE
8
BLACK
6
CONTINUOUS
10
0.237196
20
0.0773519
11
0.237452
21
0.0776942
0
LINE
8
BLACK
6
CONTINUOUS
10
0.237452
20
0.0776942
11
0.237563
21
0.0781074
0
LINE
8
BLACK
6
CONTINUOUS
10
0.237563
20
0.0781074
11
0.238356
21
0.0789007
0
LINE
8
BLACK
6
CONTINUOUS
10
0.238356
20
0.0789007
11
0.239029
21
0.0797983
0
LINE
8
BLACK
6
CONTINUOUS
10
0.239029
20
0.0797983
11
0.239422
21
0.0799665
0
LINE
8
BLACK
6
CONTINUOUS
10
0.239422
20
0.0799665
11
0.239724
21
0.080269
0
LINE
8
BLACK
6
CONTINUOUS
10
0.239724
20
0.080269
11
0.240808
21
0.0805593
0
LINE
8
BLACK
6
CONTINUOUS
10
0.240808
20
0.0805593
11
0.241839
21
0.0810005
0
LINE
8
BLACK
6
CONTINUOUS
10
0.241839
20
0.0810005
11
0.242264
21
0.0809495
0
LINE
8
BLACK
6
CONTINUOUS
10
0.242264
20
0.0809495
11
0.242677
21
0.0810602
0
LINE
8
BLACK
6
CONTINUOUS
10
0.242677
20
0.0810602
11
0.273611
21
0.0810602
0
LINE
8
BLACK
6
CONTINUOUS
10
0.273611
20
0.0810602
11
0.276564
21
0.080269
0
LINE
8
BLACK
6
CONTINUOUS
10
0.473133
20
0.0306703
11
0.470971
21
0.0328319
0
LINE
8
BLACK
6
CONTINUOUS
10
0.470971
20
0.0328319
11
0.470541
21
0.0344375
0
LINE
8
BLACK
6
CONTINUOUS
10
0.470541
20
0.0344375
11
0.469255
21
0.0318665
0
LINE
8
BLACK
6
CONTINUOUS
10
0.469255
20
0.0318665
11
0.466704
21
0.0301821
0
LINE
8
BLACK
6
CONTINUOUS
10
0.466704
20
0.0301821
11
0.463653
21
0.029999
0
LINE
8
BLACK
6
CONTINUOUS
10
0.463653
20
0.029999
11
0.460919
21
0.0313661
0
LINE
8
BLACK
6
CONTINUOUS
10
0.460919
20
0.0313661
11
0.459234
21
0.0339171
0
LINE
8
BLACK
6
CONTINUOUS
10
0.459234
20
0.0339171
11
0.454956
21
0.046752
0
LINE
8
BLACK
6
CONTINUOUS
10
0.454956
20
0.046752
11
0.435348
21
0.046752
0
LINE
8
BLACK
6
CONTINUOUS
10
0.435348
20
0.046752
11
0.431069
21
0.0339171
0
LINE
8
BLACK
6
CONTINUOUS
10
0.431069
20
0.0339171
11
0.429385
21
0.0313661
0
LINE
8
BLACK
6
CONTINUOUS
10
0.429385
20
0.0313661
11
0.426651
21
0.029999
0
LINE
8
BLACK
6
CONTINUOUS
10
0.426651
20
0.029999
11
0.423599
21
0.0301822
0
LINE
8
BLACK
6
CONTINUOUS
10
0.423599
20
0.0301822
11
0.421048
21
0.0318665
0
LINE
8
BLACK
6
CONTINUOUS
10
0.421048
20
0.0318665
11
0.419681
21
0.0346007
0
LINE
8
BLACK
6
CONTINUOUS
10
0.419681
20
0.0346007
11
0.419864
21
0.0376521
0
LINE
8
BLACK
6
CONTINUOUS
10
0.419864
20
0.0376521
11
0.439549
21
0.0967072
0
LINE
8
BLACK
6
CONTINUOUS
10
0.439549
20
0.0967072
11
0.440203
21
0.097697
0
LINE
8
BLACK
6
CONTINUOUS
10
0.440203
20
0.097697
11
0.440733
21
0.0987579
0
LINE
8
BLACK
6
CONTINUOUS
10
0.440733
20
0.0987579
11
0.441035
21
0.0989568
0
LINE
8
BLACK
6
CONTINUOUS
10
0.441035
20
0.0989568
11
0.441234
21
0.0992583
0
LINE
8
BLACK
6
CONTINUOUS
10
0.441234
20
0.0992583
11
0.442295
21
0.0997888
0
LINE
8
BLACK
6
CONTINUOUS
10
0.442295
20
0.0997888
11
0.443284
21
0.100442
0
LINE
8
BLACK
6
CONTINUOUS
10
0.443284
20
0.100442
11
0.443645
21
0.100464
0
LINE
8
BLACK
6
CONTINUOUS
10
0.443645
20
0.100464
11
0.443968
21
0.100625
0
LINE
8
BLACK
6
CONTINUOUS
10
0.443968
20
0.100625
11
0.445152
21
0.100554
0
LINE
8
BLACK
6
CONTINUOUS
10
0.445152
20
0.100554
11
0.446336
21
0.100625
0
LINE
8
BLACK
6
CONTINUOUS
10
0.446336
20
0.100625
11
0.446659
21
0.100464
0
LINE
8
BLACK
6
CONTINUOUS
10
0.446659
20
0.100464
11
0.447019
21
0.100442
0
LINE
8
BLACK
6
CONTINUOUS
10
0.447019
20
0.100442
11
0.448009
21
0.0997886
0
LINE
8
BLACK
6
CONTINUOUS
10
0.448009
20
0.0997886
11
0.44907
21
0.0992582
0
LINE
8
BLACK
6
CONTINUOUS
10
0.44907
20
0.0992582
11
0.449269
21
0.0989569
0
LINE
8
BLACK
6
CONTINUOUS
10
0.449269
20
0.0989569
11
0.44957
21
0.0987579
0
LINE
8
BLACK
6
CONTINUOUS
10
0.44957
20
0.0987579
11
0.450101
21
0.0976968
0
LINE
8
BLACK
6
CONTINUOUS
10
0.450101
20
0.0976968
11
0.450754
21
0.0967072
0
LINE
8
BLACK
6
CONTINUOUS
10
0.450754
20
0.0967072
11
0.470439
21
0.0376521
0
LINE
8
BLACK
6
CONTINUOUS
10
0.470439
20
0.0376521
11
0.470483
21
0.0369173
0
LINE
8
BLACK
6
CONTINUOUS
10
0.470483
20
0.0369173
11
0.470971
21
0.0387374
0
LINE
8
BLACK
6
CONTINUOUS
10
0.470971
20
0.0387374
11
0.473133
21
0.0408989
0
LINE
8
BLACK
6
CONTINUOUS
10
0.473133
20
0.0408989
11
0.476085
21
0.0416901
0
LINE
8
BLACK
6
CONTINUOUS
10
0.476085
20
0.0416901
11
0.498301
21
0.0416901
0
LINE
8
BLACK
6
CONTINUOUS
10
0.498301
20
0.0416901
11
0.498301
21
0.0948397
0
LINE
8
BLACK
6
CONTINUOUS
10
0.498301
20
0.0948397
11
0.499093
21
0.0977925
0
LINE
8
BLACK
6
CONTINUOUS
10
0.499093
20
0.0977925
11
0.501254
21
0.0999541
0
LINE
8
BLACK
6
CONTINUOUS
10
0.501254
20
0.0999541
11
0.504207
21
0.100745
0
LINE
8
BLACK
6
CONTINUOUS
10
0.504207
20
0.100745
11
0.50716
21
0.0999541
0
LINE
8
BLACK
6
CONTINUOUS
10
0.50716
20
0.0999541
11
0.509321
21
0.0977925
0
LINE
8
BLACK
6
CONTINUOUS
10
0.509321
20
0.0977925
11
0.510112
21
0.0948397
0
LINE
8
BLACK
6
CONTINUOUS
10
0.510112
20
0.0948397
11
0.510112
21
0.0357846
0
LINE
8
BLACK
6
CONTINUOUS
10
0.510112
20
0.0357846
11
0.509321
21
0.0328319
0
LINE
8
BLACK
6
CONTINUOUS
10
0.509321
20
0.0328319
11
0.50716
21
0.0306703
0
LINE
8
BLACK
6
CONTINUOUS
10
0.50716
20
0.0306703
11
0.504207
21
0.0298791
0
LINE
8
BLACK
6
CONTINUOUS
10
0.504207
20
0.0298791
11
0.476085
21
0.0298791
0
LINE
8
BLACK
6
CONTINUOUS
10
0.476085
20
0.0298791
11
0.473133
21
0.0306703
0
LINE
8
BLACK
6
CONTINUOUS
10
0.439285
20
0.058563
11
0.451019
21
0.058563
0
LINE
8
BLACK
6
CONTINUOUS
10
0.451019
20
0.058563
11
0.445152
21
0.0761649
0
LINE
8
BLACK
6
CONTINUOUS
10
0.445152
20
0.0761649
11
0.439285
21
0.058563
0
LINE
8
BLACK
6
CONTINUOUS
10
0.348928
20
0.0467244
11
0.349679
21
0.0465232
0
LINE
8
BLACK
6
CONTINUOUS
10
0.349679
20
0.0465232
11
0.350229
21
0.0459735
0
LINE
8
BLACK
6
CONTINUOUS
10
0.350229
20
0.0459735
11
0.350902
21
0.0455847
0
LINE
8
BLACK
6
CONTINUOUS
10
0.350902
20
0.0455847
11
0.353715
21
0.0427726
0
LINE
8
BLACK
6
CONTINUOUS
10
0.353715
20
0.0427726
11
0.354068
21
0.0421611
0
LINE
8
BLACK
6
CONTINUOUS
10
0.354068
20
0.0421611
11
0.355243
21
0.0401253
0
LINE
8
BLACK
6
CONTINUOUS
10
0.355243
20
0.0401253
11
0.355243
21
0.0370683
0
LINE
8
BLACK
6
CONTINUOUS
10
0.355243
20
0.0370683
11
0.355134
21
0.036879
0
LINE
8
BLACK
6
CONTINUOUS
10
0.355134
20
0.036879
11
0.353715
21
0.034421
0
LINE
8
BLACK
6
CONTINUOUS
10
0.353715
20
0.034421
11
0.350903
21
0.0316088
0
LINE
8
BLACK
6
CONTINUOUS
10
0.350903
20
0.0316088
11
0.350902
21
0.0316088
0
LINE
8
BLACK
6
CONTINUOUS
10
0.350902
20
0.0316088
11
0.350229
21
0.03122
0
LINE
8
BLACK
6
CONTINUOUS
10
0.350229
20
0.03122
11
0.349679
21
0.0306703
0
LINE
8
BLACK
6
CONTINUOUS
10
0.349679
20
0.0306703
11
0.348928
21
0.0304691
0
LINE
8
BLACK
6
CONTINUOUS
10
0.348928
20
0.0304691
11
0.348255
21
0.0300803
0
LINE
8
BLACK
6
CONTINUOUS
10
0.348255
20
0.0300803
11
0.347478
21
0.0300803
0
LINE
8
BLACK
6
CONTINUOUS
10
0.347478
20
0.0300803
11
0.346727
21
0.0298791
0
LINE
8
BLACK
6
CONTINUOUS
10
0.346727
20
0.0298791
11
0.345976
21
0.0300803
0
LINE
8
BLACK
6
CONTINUOUS
10
0.345976
20
0.0300803
11
0.345198
21
0.0300803
0
LINE
8
BLACK
6
CONTINUOUS
10
0.345198
20
0.0300803
11
0.344525
21
0.0304691
0
LINE
8
BLACK
6
CONTINUOUS
10
0.344525
20
0.0304691
11
0.343774
21
0.0306703
0
LINE
8
BLACK
6
CONTINUOUS
10
0.343774
20
0.0306703
11
0.343224
21
0.03122
0
LINE
8
BLACK
6
CONTINUOUS
10
0.343224
20
0.03122
11
0.342904
21
0.0314048
0
LINE
8
BLACK
6
CONTINUOUS
10
0.342904
20
0.0314048
11
0.342551
21
0.0316087
0
LINE
8
BLACK
6
CONTINUOUS
10
0.342551
20
0.0316087
11
0.339739
21
0.0344209
0
LINE
8
BLACK
6
CONTINUOUS
10
0.339739
20
0.0344209
11
0.339592
21
0.0346743
0
LINE
8
BLACK
6
CONTINUOUS
10
0.339592
20
0.0346743
11
0.338319
21
0.036879
0
LINE
8
BLACK
6
CONTINUOUS
10
0.338319
20
0.036879
11
0.33821
21
0.0370683
0
LINE
8
BLACK
6
CONTINUOUS
10
0.33821
20
0.0370683
11
0.33821
21
0.0401253
0
LINE
8
BLACK
6
CONTINUOUS
10
0.33821
20
0.0401253
11
0.339386
21
0.0421611
0
LINE
8
BLACK
6
CONTINUOUS
10
0.339386
20
0.0421611
11
0.339739
21
0.0427726
0
LINE
8
BLACK
6
CONTINUOUS
10
0.339739
20
0.0427726
11
0.339739
21
0.0427726
0
LINE
8
BLACK
6
CONTINUOUS
10
0.339739
20
0.0427726
11
0.339739
21
0.0427726
0
LINE
8
BLACK
6
CONTINUOUS
10
0.339739
20
0.0427726
11
0.342551
21
0.0455848
0
LINE
8
BLACK
6
CONTINUOUS
10
0.342551
20
0.0455848
11
0.343224
21
0.0459735
0
LINE
8
BLACK
6
CONTINUOUS
10
0.343224
20
0.0459735
11
0.343774
21
0.0465232
0
LINE
8
BLACK
6
CONTINUOUS
10
0.343774
20
0.0465232
11
0.344525
21
0.0467244
0
LINE
8
BLACK
6
CONTINUOUS
10
0.344525
20
0.0467244
11
0.345198
21
0.0471132
0
LINE
8
BLACK
6
CONTINUOUS
10
0.345198
20
0.0471132
11
0.345976
21
0.0471132
0
LINE
8
BLACK
6
CONTINUOUS
10
0.345976
20
0.0471132
11
0.346727
21
0.0473144
0
LINE
8
BLACK
6
CONTINUOUS
10
0.346727
20
0.0473144
11
0.347478
21
0.0471132
0
LINE
8
BLACK
6
CONTINUOUS
10
0.347478
20
0.0471132
11
0.348255
21
0.0471132
0
LINE
8
BLACK
6
CONTINUOUS
10
0.348255
20
0.0471132
11
0.348928
21
0.0467244
0
LINE
8
BLACK
6
CONTINUOUS
10
0.31148
20
0.0807089
11
0.31281
21
0.0804367
0
LINE
8
BLACK
6
CONTINUOUS
10
0.31281
20
0.0804367
11
0.318434
21
0.0776246
0
LINE
8
BLACK
6
CONTINUOUS
10
0.318434
20
0.0776246
11
0.319145
21
0.0769938
0
LINE
8
BLACK
6
CONTINUOUS
10
0.319145
20
0.0769938
11
0.319969
21
0.0765184
0
LINE
8
BLACK
6
CONTINUOUS
10
0.319969
20
0.0765184
11
0.322781
21
0.0737063
0
LINE
8
BLACK
6
CONTINUOUS
10
0.322781
20
0.0737063
11
0.323256
21
0.0728828
0
LINE
8
BLACK
6
CONTINUOUS
10
0.323256
20
0.0728828
11
0.323887
21
0.0721714
0
LINE
8
BLACK
6
CONTINUOUS
10
0.323887
20
0.0721714
11
0.326699
21
0.0665472
0
LINE
8
BLACK
6
CONTINUOUS
10
0.326699
20
0.0665472
11
0.326972
21
0.0652171
0
LINE
8
BLACK
6
CONTINUOUS
10
0.326972
20
0.0652171
11
0.327323
21
0.0639061
0
LINE
8
BLACK
6
CONTINUOUS
10
0.327323
20
0.0639061
11
0.327323
21
0.0470332
0
LINE
8
BLACK
6
CONTINUOUS
10
0.327323
20
0.0470332
11
0.326972
21
0.0457222
0
LINE
8
BLACK
6
CONTINUOUS
10
0.326972
20
0.0457222
11
0.326699
21
0.0443921
0
LINE
8
BLACK
6
CONTINUOUS
10
0.326699
20
0.0443921
11
0.323887
21
0.0387679
0
LINE
8
BLACK
6
CONTINUOUS
10
0.323887
20
0.0387679
11
0.323256
21
0.0380565
0
LINE
8
BLACK
6
CONTINUOUS
10
0.323256
20
0.0380565
11
0.322781
21
0.037233
0
LINE
8
BLACK
6
CONTINUOUS
10
0.322781
20
0.037233
11
0.319969
21
0.0344209
0
LINE
8
BLACK
6
CONTINUOUS
10
0.319969
20
0.0344209
11
0.319145
21
0.0339455
0
LINE
8
BLACK
6
CONTINUOUS
10
0.319145
20
0.0339455
11
0.318434
21
0.0333147
0
LINE
8
BLACK
6
CONTINUOUS
10
0.318434
20
0.0333147
11
0.31281
21
0.0305026
0
LINE
8
BLACK
6
CONTINUOUS
10
0.31281
20
0.0305026
11
0.31148
21
0.0302304
0
LINE
8
BLACK
6
CONTINUOUS
10
0.31148
20
0.0302304
11
0.310169
21
0.0298791
0
LINE
8
BLACK
6
CONTINUOUS
10
0.310169
20
0.0298791
11
0.29892
21
0.0298791
0
LINE
8
BLACK
6
CONTINUOUS
10
0.29892
20
0.0298791
11
0.297609
21
0.0302304
0
LINE
8
BLACK
6
CONTINUOUS
10
0.297609
20
0.0302304
11
0.296279
21
0.0305026
0
LINE
8
BLACK
6
CONTINUOUS
10
0.296279
20
0.0305026
11
0.290655
21
0.0333147
0
LINE
8
BLACK
6
CONTINUOUS
10
0.290655
20
0.0333147
11
0.288368
21
0.0353429
0
LINE
8
BLACK
6
CONTINUOUS
10
0.288368
20
0.0353429
11
0.287401
21
0.038243
0
LINE
8
BLACK
6
CONTINUOUS
10
0.287401
20
0.038243
11
0.288014
21
0.0412378
0
LINE
8
BLACK
6
CONTINUOUS
10
0.288014
20
0.0412378
11
0.290042
21
0.043525
0
LINE
8
BLACK
6
CONTINUOUS
10
0.290042
20
0.043525
11
0.292942
21
0.0444917
0
LINE
8
BLACK
6
CONTINUOUS
10
0.292942
20
0.0444917
11
0.295937
21
0.0438788
0
LINE
8
BLACK
6
CONTINUOUS
10
0.295937
20
0.0438788
11
0.300314
21
0.0416901
0
LINE
8
BLACK
6
CONTINUOUS
10
0.300314
20
0.0416901
11
0.308775
21
0.0416901
0
LINE
8
BLACK
6
CONTINUOUS
10
0.308775
20
0.0416901
11
0.312295
21
0.0434503
0
LINE
8
BLACK
6
CONTINUOUS
10
0.312295
20
0.0434503
11
0.313752
21
0.0449071
0
LINE
8
BLACK
6
CONTINUOUS
10
0.313752
20
0.0449071
11
0.315512
21
0.0484273
0
LINE
8
BLACK
6
CONTINUOUS
10
0.315512
20
0.0484273
11
0.315512
21
0.062512
0
LINE
8
BLACK
6
CONTINUOUS
10
0.315512
20
0.062512
11
0.313752
21
0.0660322
0
LINE
8
BLACK
6
CONTINUOUS
10
0.313752
20
0.0660322
11
0.312295
21
0.067489
0
LINE
8
BLACK
6
CONTINUOUS
10
0.312295
20
0.067489
11
0.308775
21
0.0692492
0
LINE
8
BLACK
6
CONTINUOUS
10
0.308775
20
0.0692492
11
0.300314
21
0.0692492
0
LINE
8
BLACK
6
CONTINUOUS
10
0.300314
20
0.0692492
11
0.295937
21
0.0670605
0
LINE
8
BLACK
6
CONTINUOUS
10
0.295937
20
0.0670605
11
0.292942
21
0.0664476
0
LINE
8
BLACK
6
CONTINUOUS
10
0.292942
20
0.0664476
11
0.290042
21
0.0674143
0
LINE
8
BLACK
6
CONTINUOUS
10
0.290042
20
0.0674143
11
0.288014
21
0.0697015
0
LINE
8
BLACK
6
CONTINUOUS
10
0.288014
20
0.0697015
11
0.287401
21
0.0726963
0
LINE
8
BLACK
6
CONTINUOUS
10
0.287401
20
0.0726963
11
0.288368
21
0.0755964
0
LINE
8
BLACK
6
CONTINUOUS
10
0.288368
20
0.0755964
11
0.290655
21
0.0776246
0
LINE
8
BLACK
6
CONTINUOUS
10
0.290655
20
0.0776246
11
0.296279
21
0.0804367
0
LINE
8
BLACK
6
CONTINUOUS
10
0.296279
20
0.0804367
11
0.297609
21
0.0807089
0
LINE
8
BLACK
6
CONTINUOUS
10
0.297609
20
0.0807089
11
0.29892
21
0.0810602
0
LINE
8
BLACK
6
CONTINUOUS
10
0.29892
20
0.0810602
11
0.310169
21
0.0810602
0
LINE
8
BLACK
6
CONTINUOUS
10
0.310169
20
0.0810602
11
0.31148
21
0.0807089
0
LINE
8
BLACK
6
CONTINUOUS
10
0.572935
20
0.100414
11
0.574196
21
0.100191
0
LINE
8
BLACK
6
CONTINUOUS
10
0.574196
20
0.100191
11
0.574397
21
0.100022
0
LINE
8
BLACK
6
CONTINUOUS
10
0.574397
20
0.100022
11
0.574651
21
0.0999541
0
LINE
8
BLACK
6
CONTINUOUS
10
0.574651
20
0.0999541
11
0.575556
21
0.0990489
0
LINE
8
BLACK
6
CONTINUOUS
10
0.575556
20
0.0990489
11
0.576537
21
0.0982256
0
LINE
8
BLACK
6
CONTINUOUS
10
0.576537
20
0.0982256
11
0.576627
21
0.0979784
0
LINE
8
BLACK
6
CONTINUOUS
10
0.576627
20
0.0979784
11
0.576813
21
0.0977925
0
LINE
8
BLACK
6
CONTINUOUS
10
0.576813
20
0.0977925
11
0.577144
21
0.0965559
0
LINE
8
BLACK
6
CONTINUOUS
10
0.577144
20
0.0965559
11
0.577582
21
0.0953527
0
LINE
8
BLACK
6
CONTINUOUS
10
0.577582
20
0.0953527
11
0.577536
21
0.0950937
0
LINE
8
BLACK
6
CONTINUOUS
10
0.577536
20
0.0950937
11
0.577604
21
0.0948397
0
LINE
8
BLACK
6
CONTINUOUS
10
0.577604
20
0.0948397
11
0.577604
21
0.0357846
0
LINE
8
BLACK
6
CONTINUOUS
10
0.577604
20
0.0357846
11
0.576813
21
0.0328319
0
LINE
8
BLACK
6
CONTINUOUS
10
0.576813
20
0.0328319
11
0.574651
21
0.0306703
0
LINE
8
BLACK
6
CONTINUOUS
10
0.574651
20
0.0306703
11
0.571699
21
0.0298791
0
LINE
8
BLACK
6
CONTINUOUS
10
0.571699
20
0.0298791
11
0.568746
21
0.0306703
0
LINE
8
BLACK
6
CONTINUOUS
10
0.568746
20
0.0306703
11
0.566584
21
0.0328319
0
LINE
8
BLACK
6
CONTINUOUS
10
0.566584
20
0.0328319
11
0.565793
21
0.0357846
0
LINE
8
BLACK
6
CONTINUOUS
10
0.565793
20
0.0357846
11
0.565793
21
0.0682203
0
LINE
8
BLACK
6
CONTINUOUS
10
0.565793
20
0.0682203
11
0.557365
21
0.0501601
0
LINE
8
BLACK
6
CONTINUOUS
10
0.557365
20
0.0501601
11
0.55703
21
0.0497612
0
LINE
8
BLACK
6
CONTINUOUS
10
0.55703
20
0.0497612
11
0.556852
21
0.0492716
0
LINE
8
BLACK
6
CONTINUOUS
10
0.556852
20
0.0492716
11
0.556062
21
0.0486085
0
LINE
8
BLACK
6
CONTINUOUS
10
0.556062
20
0.0486085
11
0.555399
21
0.047819
0
LINE
8
BLACK
6
CONTINUOUS
10
0.555399
20
0.047819
11
0.55491
21
0.047641
0
LINE
8
BLACK
6
CONTINUOUS
10
0.55491
20
0.047641
11
0.554511
21
0.047306
0
LINE
8
BLACK
6
CONTINUOUS
10
0.554511
20
0.047306
11
0.553495
21
0.0471266
0
LINE
8
BLACK
6
CONTINUOUS
10
0.553495
20
0.0471266
11
0.552526
21
0.0467743
0
LINE
8
BLACK
6
CONTINUOUS
10
0.552526
20
0.0467743
11
0.552014
21
0.0468649
0
LINE
8
BLACK
6
CONTINUOUS
10
0.552014
20
0.0468649
11
0.551501
21
0.0467743
0
LINE
8
BLACK
6
CONTINUOUS
10
0.551501
20
0.0467743
11
0.550531
21
0.0471267
0
LINE
8
BLACK
6
CONTINUOUS
10
0.550531
20
0.0471267
11
0.549516
21
0.047306
0
LINE
8
BLACK
6
CONTINUOUS
10
0.549516
20
0.047306
11
0.549117
21
0.0476409
0
LINE
8
BLACK
6
CONTINUOUS
10
0.549117
20
0.0476409
11
0.548628
21
0.0478189
0
LINE
8
BLACK
6
CONTINUOUS
10
0.548628
20
0.0478189
11
0.547965
21
0.0486087
0
LINE
8
BLACK
6
CONTINUOUS
10
0.547965
20
0.0486087
11
0.547175
21
0.0492717
0
LINE
8
BLACK
6
CONTINUOUS
10
0.547175
20
0.0492717
11
0.546997
21
0.0497612
0
LINE
8
BLACK
6
CONTINUOUS
10
0.546997
20
0.0497612
11
0.546662
21
0.0501601
0
LINE
8
BLACK
6
CONTINUOUS
10
0.546662
20
0.0501601
11
0.538234
21
0.0682203
0
LINE
8
BLACK
6
CONTINUOUS
10
0.538234
20
0.0682203
11
0.538234
21
0.0357846
0
LINE
8
BLACK
6
CONTINUOUS
10
0.538234
20
0.0357846
11
0.537443
21
0.0328319
0
LINE
8
BLACK
6
CONTINUOUS
10
0.537443
20
0.0328319
11
0.535281
21
0.0306703
0
LINE
8
BLACK
6
CONTINUOUS
10
0.535281
20
0.0306703
11
0.532328
21
0.0298791
0
LINE
8
BLACK
6
CONTINUOUS
10
0.532328
20
0.0298791
11
0.529376
21
0.0306703
0
LINE
8
BLACK
6
CONTINUOUS
10
0.529376
20
0.0306703
11
0.527214
21
0.0328319
0
LINE
8
BLACK
6
CONTINUOUS
10
0.527214
20
0.0328319
11
0.526423
21
0.0357846
0
LINE
8
BLACK
6
CONTINUOUS
10
0.526423
20
0.0357846
11
0.526423
21
0.0948397
0
LINE
8
BLACK
6
CONTINUOUS
10
0.526423
20
0.0948397
11
0.526491
21
0.0950937
0
LINE
8
BLACK
6
CONTINUOUS
10
0.526491
20
0.0950937
11
0.526445
21
0.0953527
0
LINE
8
BLACK
6
CONTINUOUS
10
0.526445
20
0.0953527
11
0.526883
21
0.0965557
0
LINE
8
BLACK
6
CONTINUOUS
10
0.526883
20
0.0965557
11
0.527214
21
0.0977925
0
LINE
8
BLACK
6
CONTINUOUS
10
0.527214
20
0.0977925
11
0.5274
21
0.0979785
0
LINE
8
BLACK
6
CONTINUOUS
10
0.5274
20
0.0979785
11
0.52749
21
0.0982256
0
LINE
8
BLACK
6
CONTINUOUS
10
0.52749
20
0.0982256
11
0.52847
21
0.0990487
0
LINE
8
BLACK
6
CONTINUOUS
10
0.52847
20
0.0990487
11
0.529376
21
0.0999541
0
LINE
8
BLACK
6
CONTINUOUS
10
0.529376
20
0.0999541
11
0.52963
21
0.100022
0
LINE
8
BLACK
6
CONTINUOUS
10
0.52963
20
0.100022
11
0.529831
21
0.100191
0
LINE
8
BLACK
6
CONTINUOUS
10
0.529831
20
0.100191
11
0.531092
21
0.100414
0
LINE
8
BLACK
6
CONTINUOUS
10
0.531092
20
0.100414
11
0.532328
21
0.100745
0
LINE
8
BLACK
6
CONTINUOUS
10
0.532328
20
0.100745
11
0.532582
21
0.100677
0
LINE
8
BLACK
6
CONTINUOUS
10
0.532582
20
0.100677
11
0.532841
21
0.100723
0
LINE
8
BLACK
6
CONTINUOUS
10
0.532841
20
0.100723
11
0.534044
21
0.100285
0
LINE
8
BLACK
6
CONTINUOUS
10
0.534044
20
0.100285
11
0.535281
21
0.0999541
0
LINE
8
BLACK
6
CONTINUOUS
10
0.535281
20
0.0999541
11
0.535467
21
0.0997681
0
LINE
8
BLACK
6
CONTINUOUS
10
0.535467
20
0.0997681
11
0.535714
21
0.0996782
0
LINE
8
BLACK
6
CONTINUOUS
10
0.535714
20
0.0996782
11
0.536537
21
0.0986979
0
LINE
8
BLACK
6
CONTINUOUS
10
0.536537
20
0.0986979
11
0.537443
21
0.0977925
0
LINE
8
BLACK
6
CONTINUOUS
10
0.537443
20
0.0977925
11
0.537511
21
0.0975384
0
LINE
8
BLACK
6
CONTINUOUS
10
0.537511
20
0.0975384
11
0.53768
21
0.0973371
0
LINE
8
BLACK
6
CONTINUOUS
10
0.53768
20
0.0973371
11
0.552013
21
0.0666223
0
LINE
8
BLACK
6
CONTINUOUS
10
0.552013
20
0.0666223
11
0.566347
21
0.0973371
0
LINE
8
BLACK
6
CONTINUOUS
10
0.566347
20
0.0973371
11
0.566516
21
0.0975384
0
LINE
8
BLACK
6
CONTINUOUS
10
0.566516
20
0.0975384
11
0.566584
21
0.0977925
0
LINE
8
BLACK
6
CONTINUOUS
10
0.566584
20
0.0977925
11
0.567489
21
0.0986978
0
LINE
8
BLACK
6
CONTINUOUS
10
0.567489
20
0.0986978
11
0.568313
21
0.0996783
0
LINE
8
BLACK
6
CONTINUOUS
10
0.568313
20
0.0996783
11
0.56856
21
0.0997681
0
LINE
8
BLACK
6
CONTINUOUS
10
0.56856
20
0.0997681
11
0.568746
21
0.0999541
0
LINE
8
BLACK
6
CONTINUOUS
10
0.568746
20
0.0999541
11
0.569982
21
0.100285
0
LINE
8
BLACK
6
CONTINUOUS
10
0.569982
20
0.100285
11
0.571186
21
0.100723
0
LINE
8
BLACK
6
CONTINUOUS
10
0.571186
20
0.100723
11
0.571445
21
0.100677
0
LINE
8
BLACK
6
CONTINUOUS
10
0.571445
20
0.100677
11
0.571699
21
0.100745
0
LINE
8
BLACK
6
CONTINUOUS
10
0.571699
20
0.100745
11
0.572935
21
0.100414
0
LINE
8
BLACK
6
CONTINUOUS
10
-0.0981895
20
-0.245632
11
-0.0945351
21
-0.237795
0
LINE
8
BLACK
6
CONTINUOUS
10
-0.0945351
20
-0.237795
11
-0.0895754
21
-0.230712
0
LINE
8
BLACK
6
CONTINUOUS
10
-0.0895754
20
-0.230712
11
-0.0834611
21
-0.224598
0
LINE
8
BLACK
6
CONTINUOUS
10
-0.0834611
20
-0.224598
11
-0.076378
21
-0.219638
0
LINE
8
BLACK
6
CONTINUOUS
10
-0.076378
20
-0.219638
11
-0.0685411
21
-0.215984
0
LINE
8
BLACK
6
CONTINUOUS
10
-0.0685411
20
-0.215984
11
-0.0601889
21
-0.213746
0
LINE
8
BLACK
6
CONTINUOUS
10
-0.0601889
20
-0.213746
11
-0.0515748
21
-0.212992
0
LINE
8
BLACK
6
CONTINUOUS
10
-0.0515748
20
-0.212992
11
-0.0429607
21
-0.213746
0
LINE
8
BLACK
6
CONTINUOUS
10
-0.0429607
20
-0.213746
11
-0.0346085
21
-0.215984
0
LINE
8
BLACK
6
CONTINUOUS
10
-0.0346085
20
-0.215984
11
-0.0267717
21
-0.219638
0
LINE
8
BLACK
6
CONTINUOUS
10
-0.0267717
20
-0.219638
11
-0.0196885
21
-0.224598
0
LINE
8
BLACK
6
CONTINUOUS
10
-0.0196885
20
-0.224598
11
-0.0135742
21
-0.230712
0
LINE
8
BLACK
6
CONTINUOUS
10
-0.0135742
20
-0.230712
11
-0.00861449
21
-0.237795
0
LINE
8
BLACK
6
CONTINUOUS
10
-0.00861449
20
-0.237795
11
-0.00496012
21
-0.245632
0
LINE
8
BLACK
6
CONTINUOUS
10
-0.00496012
20
-0.245632
11
-0.00272213
21
-0.253984
0
LINE
8
BLACK
6
CONTINUOUS
10
-0.00272213
20
-0.253984
11
-0.0019685
21
-0.262598
0
LINE
8
BLACK
6
CONTINUOUS
10
-0.0019685
20
-0.262598
11
-0.00272213
21
-0.271212
0
LINE
8
BLACK
6
CONTINUOUS
10
-0.00272213
20
-0.271212
11
-0.00496012
21
-0.279565
0
LINE
8
BLACK
6
CONTINUOUS
10
-0.00496012
20
-0.279565
11
-0.00861449
21
-0.287402
0
LINE
8
BLACK
6
CONTINUOUS
10
-0.00861449
20
-0.287402
11
-0.0135742
21
-0.294485
0
LINE
8
BLACK
6
CONTINUOUS
10
-0.0135742
20
-0.294485
11
-0.0196885
21
-0.300599
0
LINE
8
BLACK
6
CONTINUOUS
10
-0.0196885
20
-0.300599
11
-0.0267717
21
-0.305559
0
LINE
8
BLACK
6
CONTINUOUS
10
-0.0267717
20
-0.305559
11
-0.0346085
21
-0.309213
0
LINE
8
BLACK
6
CONTINUOUS
10
-0.0346085
20
-0.309213
11
-0.0429607
21
-0.311451
0
LINE
8
BLACK
6
CONTINUOUS
10
-0.0429607
20
-0.311451
11
-0.0515748
21
-0.312205
0
LINE
8
BLACK
6
CONTINUOUS
10
-0.0515748
20
-0.312205
11
-0.0601889
21
-0.311451
0
LINE
8
BLACK
6
CONTINUOUS
10
-0.0601889
20
-0.311451
11
-0.0685411
21
-0.309213
0
LINE
8
BLACK
6
CONTINUOUS
10
-0.0685411
20
-0.309213
11
-0.076378
21
-0.305559
0
LINE
8
BLACK
6
CONTINUOUS
10
-0.076378
20
-0.305559
11
-0.0834611
21
-0.300599
0
LINE
8
BLACK
6
CONTINUOUS
10
-0.0834611
20
-0.300599
11
-0.0895754
21
-0.294485
0
LINE
8
BLACK
6
CONTINUOUS
10
-0.0895754
20
-0.294485
11
-0.0945351
21
-0.287402
0
LINE
8
BLACK
6
CONTINUOUS
10
-0.0945351
20
-0.287402
11
-0.0981895
21
-0.279565
0
LINE
8
BLACK
6
CONTINUOUS
10
-0.0981895
20
-0.279565
11
-0.100427
21
-0.271212
0
LINE
8
BLACK
6
CONTINUOUS
10
-0.100427
20
-0.271212
11
-0.101181
21
-0.262598
0
LINE
8
BLACK
6
CONTINUOUS
10
-0.101181
20
-0.262598
11
-0.101078
21
-0.261419
0
LINE
8
BLACK
6
CONTINUOUS
10
-0.101078
20
-0.261419
11
-0.100427
21
-0.253984
0
LINE
8
BLACK
6
CONTINUOUS
10
-0.100427
20
-0.253984
11
-0.0981895
21
-0.245632
0
LINE
8
BLACK
6
CONTINUOUS
10
-0.0940636
20
-0.277644
11
-0.0906102
21
-0.285136
0
LINE
8
BLACK
6
CONTINUOUS
10
-0.0906102
20
-0.285136
11
-0.0858495
21
-0.291872
0
LINE
8
BLACK
6
CONTINUOUS
10
-0.0858495
20
-0.291872
11
-0.0799409
21
-0.297628
0
LINE
8
BLACK
6
CONTINUOUS
10
-0.0799409
20
-0.297628
11
-0.0730823
21
-0.30221
0
LINE
8
BLACK
6
CONTINUOUS
10
-0.0730823
20
-0.30221
11
-0.0655035
21
-0.305466
0
LINE
8
BLACK
6
CONTINUOUS
10
-0.0655035
20
-0.305466
11
-0.0574581
21
-0.307287
0
LINE
8
BLACK
6
CONTINUOUS
10
-0.0574581
20
-0.307287
11
-0.0492158
21
-0.307611
0
LINE
8
BLACK
6
CONTINUOUS
10
-0.0492158
20
-0.307611
11
-0.0410524
21
-0.306427
0
LINE
8
BLACK
6
CONTINUOUS
10
-0.0410524
20
-0.306427
11
-0.0332415
21
-0.303776
0
LINE
8
BLACK
6
CONTINUOUS
10
-0.0332415
20
-0.303776
11
-0.0260445
21
-0.299745
0
LINE
8
BLACK
6
CONTINUOUS
10
-0.0260445
20
-0.299745
11
-0.0197026
21
-0.294471
0
LINE
8
BLACK
6
CONTINUOUS
10
-0.0197026
20
-0.294471
11
-0.014428
21
-0.288129
0
LINE
8
BLACK
6
CONTINUOUS
10
-0.014428
20
-0.288129
11
-0.0103975
21
-0.280932
0
LINE
8
BLACK
6
CONTINUOUS
10
-0.0103975
20
-0.280932
11
-0.00774602
21
-0.273121
0
LINE
8
BLACK
6
CONTINUOUS
10
-0.00774602
20
-0.273121
11
-0.0065624
21
-0.264957
0
LINE
8
BLACK
6
CONTINUOUS
10
-0.0065624
20
-0.264957
11
-0.00650063
21
-0.262598
0
LINE
8
BLACK
6
CONTINUOUS
10
-0.00650063
20
-0.262598
11
-0.00725539
21
-0.254384
0
LINE
8
BLACK
6
CONTINUOUS
10
-0.00725539
20
-0.254384
11
-0.00949445
21
-0.246445
0
LINE
8
BLACK
6
CONTINUOUS
10
-0.00949445
20
-0.246445
11
-0.0131428
21
-0.239047
0
LINE
8
BLACK
6
CONTINUOUS
10
-0.0131428
20
-0.239047
11
-0.0180781
21
-0.232438
0
LINE
8
BLACK
6
CONTINUOUS
10
-0.0180781
20
-0.232438
11
-0.0241354
21
-0.226839
0
LINE
8
BLACK
6
CONTINUOUS
10
-0.0241354
20
-0.226839
11
-0.0311116
21
-0.222437
0
LINE
8
BLACK
6
CONTINUOUS
10
-0.0311116
20
-0.222437
11
-0.038773
21
-0.21938
0
LINE
8
BLACK
6
CONTINUOUS
10
-0.038773
20
-0.21938
11
-0.0468633
21
-0.217771
0
LINE
8
BLACK
6
CONTINUOUS
10
-0.0468633
20
-0.217771
11
-0.0551113
21
-0.217663
0
LINE
8
BLACK
6
CONTINUOUS
10
-0.0551113
20
-0.217663
11
-0.0632409
21
-0.21906
0
LINE
8
BLACK
6
CONTINUOUS
10
-0.0632409
20
-0.21906
11
-0.0709797
21
-0.221915
0
LINE
8
BLACK
6
CONTINUOUS
10
-0.0709797
20
-0.221915
11
-0.0780687
21
-0.226133
0
LINE
8
BLACK
6
CONTINUOUS
10
-0.0780687
20
-0.226133
11
-0.0842705
21
-0.231571
0
LINE
8
BLACK
6
CONTINUOUS
10
-0.0842705
20
-0.231571
11
-0.0893772
21
-0.238049
0
LINE
8
BLACK
6
CONTINUOUS
10
-0.0893772
20
-0.238049
11
-0.0932179
21
-0.245349
0
LINE
8
BLACK
6
CONTINUOUS
10
-0.0932179
20
-0.245349
11
-0.095664
21
-0.253227
0
LINE
8
BLACK
6
CONTINUOUS
10
-0.095664
20
-0.253227
11
-0.0966335
21
-0.261419
0
LINE
8
BLACK
6
CONTINUOUS
10
-0.0966335
20
-0.261419
11
-0.0960941
21
-0.26965
0
LINE
8
BLACK
6
CONTINUOUS
10
-0.0960941
20
-0.26965
11
-0.0940636
21
-0.277644
  0
ENDSEC
  0
EOF
