  0
SECTION
  2
HEADER
  9
$ANGBASE
  50
0.0
  9
$ANGDIR
  70
1
  9
$MEASUREMENT
  70
0
  0
ENDSEC
  0
SECTION
  2
TABLES
  0
TABLE
  2
LTYPE
  70
4
  0
LTYPE
  5
40F
  2
CONTINUOUS
  70
0
  3
Solid line
  72
65
  73
0
  40
0.0
  0
LTYPE
  5
410
  2
DASHDOT
 70
0
  3
Dash Dot ____ _ ____ _
 72
65
 73
4
 40
2.0
 49
1.25
 49
-0.25
 49
0.25
 49
-0.25
  0
LTYPE
  5
411
  2
DASHED
 70
0
  3
Dashed __ __ __ __ __
 72
65
 73
2
 40
0.75
 49
0.5
 49
-0.25
  0
LTYPE
  5
43B
  2
DOTTED
 70
0
  3
Dotted .  .  .  .
 72
65
 73
2
 40
0.2
 49
0.0
 49
-0.2
  0
ENDTAB
  0
TABLE
  2
STYLE
  70
4
  0
STYLE
  2
KICAD
  70
0
  40
0
  41
1
  42
1
  50
0
  71
0
  3
isocp.shx
  0
STYLE
  2
KICADB
  70
0
  40
0
  41
1
  42
1
  50
0
  71
0
  3
isocp.shx
  0
STYLE
  2
KICADI
  70
0
  40
0
  41
1
  42
1
  50
15
  71
0
  3
isocp.shx
  0
STYLE
  2
KICADBI
  70
0
  40
0
  41
1
  42
1
  50
15
  71
0
  3
isocp.shx
  0
ENDTAB
  0
TABLE
  2
LAYER
  70
1
  0
LAYER
  2
BLACK
  70
0
  62
7
  6
CONTINUOUS
  0
ENDTAB
  0
ENDSEC
  0
SECTION
  2
ENTITIES
0
LINE
8
BLACK
6
CONTINUOUS
10
0.133848
20
-0.401446
11
0.133977
21
-0.401423
0
LINE
8
BLACK
6
CONTINUOUS
10
0.133977
20
-0.401423
11
0.134091
21
-0.401488
0
LINE
8
BLACK
6
CONTINUOUS
10
0.134091
20
-0.401488
11
0.134474
21
-0.401556
0
LINE
8
BLACK
6
CONTINUOUS
10
0.134474
20
-0.401556
11
0.135062
21
-0.402049
0
LINE
8
BLACK
6
CONTINUOUS
10
0.135062
20
-0.402049
11
0.135726
21
-0.402433
0
LINE
8
BLACK
6
CONTINUOUS
10
0.135726
20
-0.402433
11
0.135818
21
-0.402683
0
LINE
8
BLACK
6
CONTINUOUS
10
0.135818
20
-0.402683
11
0.136022
21
-0.402854
0
LINE
8
BLACK
6
CONTINUOUS
10
0.136022
20
-0.402854
11
0.136155
21
-0.40361
0
LINE
8
BLACK
6
CONTINUOUS
10
0.136155
20
-0.40361
11
0.136417
21
-0.404331
0
LINE
8
BLACK
6
CONTINUOUS
10
0.136417
20
-0.404331
11
0.136417
21
-0.426969
0
LINE
8
BLACK
6
CONTINUOUS
10
0.136417
20
-0.426969
11
0.15315
21
-0.426969
0
LINE
8
BLACK
6
CONTINUOUS
10
0.15315
20
-0.426969
11
0.153533
21
-0.427036
0
LINE
8
BLACK
6
CONTINUOUS
10
0.153533
20
-0.427036
11
0.153662
21
-0.427013
0
LINE
8
BLACK
6
CONTINUOUS
10
0.153662
20
-0.427013
11
0.153776
21
-0.427079
0
LINE
8
BLACK
6
CONTINUOUS
10
0.153776
20
-0.427079
11
0.15416
21
-0.427147
0
LINE
8
BLACK
6
CONTINUOUS
10
0.15416
20
-0.427147
11
0.154747
21
-0.42764
0
LINE
8
BLACK
6
CONTINUOUS
10
0.154747
20
-0.42764
11
0.155412
21
-0.428023
0
LINE
8
BLACK
6
CONTINUOUS
10
0.155412
20
-0.428023
11
0.155503
21
-0.428274
0
LINE
8
BLACK
6
CONTINUOUS
10
0.155503
20
-0.428274
11
0.155707
21
-0.428445
0
LINE
8
BLACK
6
CONTINUOUS
10
0.155707
20
-0.428445
11
0.15584
21
-0.4292
0
LINE
8
BLACK
6
CONTINUOUS
10
0.15584
20
-0.4292
11
0.156102
21
-0.429921
0
LINE
8
BLACK
6
CONTINUOUS
10
0.156102
20
-0.429921
11
0.156102
21
-0.528346
0
LINE
8
BLACK
6
CONTINUOUS
10
0.156102
20
-0.528346
11
0.156035
21
-0.52873
0
LINE
8
BLACK
6
CONTINUOUS
10
0.156035
20
-0.52873
11
0.156058
21
-0.528859
0
LINE
8
BLACK
6
CONTINUOUS
10
0.156058
20
-0.528859
11
0.155992
21
-0.528973
0
LINE
8
BLACK
6
CONTINUOUS
10
0.155992
20
-0.528973
11
0.155924
21
-0.529356
0
LINE
8
BLACK
6
CONTINUOUS
10
0.155924
20
-0.529356
11
0.155431
21
-0.529944
0
LINE
8
BLACK
6
CONTINUOUS
10
0.155431
20
-0.529944
11
0.155048
21
-0.530608
0
LINE
8
BLACK
6
CONTINUOUS
10
0.155048
20
-0.530608
11
0.154797
21
-0.530699
0
LINE
8
BLACK
6
CONTINUOUS
10
0.154797
20
-0.530699
11
0.154626
21
-0.530904
0
LINE
8
BLACK
6
CONTINUOUS
10
0.154626
20
-0.530904
11
0.15387
21
-0.531037
0
LINE
8
BLACK
6
CONTINUOUS
10
0.15387
20
-0.531037
11
0.15315
21
-0.531299
0
LINE
8
BLACK
6
CONTINUOUS
10
0.15315
20
-0.531299
11
0.136417
21
-0.531299
0
LINE
8
BLACK
6
CONTINUOUS
10
0.136417
20
-0.531299
11
0.136417
21
-0.553937
0
LINE
8
BLACK
6
CONTINUOUS
10
0.136417
20
-0.553937
11
0.13635
21
-0.554321
0
LINE
8
BLACK
6
CONTINUOUS
10
0.13635
20
-0.554321
11
0.136372
21
-0.55445
0
LINE
8
BLACK
6
CONTINUOUS
10
0.136372
20
-0.55445
11
0.136307
21
-0.554563
0
LINE
8
BLACK
6
CONTINUOUS
10
0.136307
20
-0.554563
11
0.136239
21
-0.554947
0
LINE
8
BLACK
6
CONTINUOUS
10
0.136239
20
-0.554947
11
0.135746
21
-0.555535
0
LINE
8
BLACK
6
CONTINUOUS
10
0.135746
20
-0.555535
11
0.135363
21
-0.556199
0
LINE
8
BLACK
6
CONTINUOUS
10
0.135363
20
-0.556199
11
0.135112
21
-0.55629
0
LINE
8
BLACK
6
CONTINUOUS
10
0.135112
20
-0.55629
11
0.134941
21
-0.556494
0
LINE
8
BLACK
6
CONTINUOUS
10
0.134941
20
-0.556494
11
0.134185
21
-0.556627
0
LINE
8
BLACK
6
CONTINUOUS
10
0.134185
20
-0.556627
11
0.133465
21
-0.55689
0
LINE
8
BLACK
6
CONTINUOUS
10
0.133465
20
-0.55689
11
0.0940945
21
-0.55689
0
LINE
8
BLACK
6
CONTINUOUS
10
0.0940945
20
-0.55689
11
0.0937109
21
-0.556822
0
LINE
8
BLACK
6
CONTINUOUS
10
0.0937109
20
-0.556822
11
0.0935817
21
-0.556845
0
LINE
8
BLACK
6
CONTINUOUS
10
0.0935817
20
-0.556845
11
0.0934681
21
-0.556779
0
LINE
8
BLACK
6
CONTINUOUS
10
0.0934681
20
-0.556779
11
0.0930846
21
-0.556712
0
LINE
8
BLACK
6
CONTINUOUS
10
0.0930846
20
-0.556712
11
0.0924969
21
-0.556219
0
LINE
8
BLACK
6
CONTINUOUS
10
0.0924969
20
-0.556219
11
0.0918326
21
-0.555835
0
LINE
8
BLACK
6
CONTINUOUS
10
0.0918326
20
-0.555835
11
0.0917415
21
-0.555585
0
LINE
8
BLACK
6
CONTINUOUS
10
0.0917415
20
-0.555585
11
0.0915373
21
-0.555413
0
LINE
8
BLACK
6
CONTINUOUS
10
0.0915373
20
-0.555413
11
0.0914041
21
-0.554658
0
LINE
8
BLACK
6
CONTINUOUS
10
0.0914041
20
-0.554658
11
0.0911417
21
-0.553937
0
LINE
8
BLACK
6
CONTINUOUS
10
0.0911417
20
-0.553937
11
0.0911417
21
-0.531299
0
LINE
8
BLACK
6
CONTINUOUS
10
0.0911417
20
-0.531299
11
0.0744094
21
-0.531299
0
LINE
8
BLACK
6
CONTINUOUS
10
0.0744094
20
-0.531299
11
0.0740259
21
-0.531232
0
LINE
8
BLACK
6
CONTINUOUS
10
0.0740259
20
-0.531232
11
0.0738967
21
-0.531254
0
LINE
8
BLACK
6
CONTINUOUS
10
0.0738967
20
-0.531254
11
0.0737831
21
-0.531189
0
LINE
8
BLACK
6
CONTINUOUS
10
0.0737831
20
-0.531189
11
0.0733995
21
-0.531121
0
LINE
8
BLACK
6
CONTINUOUS
10
0.0733995
20
-0.531121
11
0.0728119
21
-0.530628
0
LINE
8
BLACK
6
CONTINUOUS
10
0.0728119
20
-0.530628
11
0.0721475
21
-0.530244
0
LINE
8
BLACK
6
CONTINUOUS
10
0.0721475
20
-0.530244
11
0.0720564
21
-0.529994
0
LINE
8
BLACK
6
CONTINUOUS
10
0.0720564
20
-0.529994
11
0.0718523
21
-0.529823
0
LINE
8
BLACK
6
CONTINUOUS
10
0.0718523
20
-0.529823
11
0.0717191
21
-0.529067
0
LINE
8
BLACK
6
CONTINUOUS
10
0.0717191
20
-0.529067
11
0.0714567
21
-0.528346
0
LINE
8
BLACK
6
CONTINUOUS
10
0.0714567
20
-0.528346
11
0.0714567
21
-0.429921
0
LINE
8
BLACK
6
CONTINUOUS
10
0.0714567
20
-0.429921
11
0.0715243
21
-0.429538
0
LINE
8
BLACK
6
CONTINUOUS
10
0.0715243
20
-0.429538
11
0.0715015
21
-0.429409
0
LINE
8
BLACK
6
CONTINUOUS
10
0.0715015
20
-0.429409
11
0.0715671
21
-0.429295
0
LINE
8
BLACK
6
CONTINUOUS
10
0.0715671
20
-0.429295
11
0.0716348
21
-0.428911
0
LINE
8
BLACK
6
CONTINUOUS
10
0.0716348
20
-0.428911
11
0.0721279
21
-0.428324
0
LINE
8
BLACK
6
CONTINUOUS
10
0.0721279
20
-0.428324
11
0.0725115
21
-0.427659
0
LINE
8
BLACK
6
CONTINUOUS
10
0.0725115
20
-0.427659
11
0.0727618
21
-0.427568
0
LINE
8
BLACK
6
CONTINUOUS
10
0.0727618
20
-0.427568
11
0.0729331
21
-0.427364
0
LINE
8
BLACK
6
CONTINUOUS
10
0.0729331
20
-0.427364
11
0.0736886
21
-0.427231
0
LINE
8
BLACK
6
CONTINUOUS
10
0.0736886
20
-0.427231
11
0.0744094
21
-0.426969
0
LINE
8
BLACK
6
CONTINUOUS
10
0.0744094
20
-0.426969
11
0.0911417
21
-0.426969
0
LINE
8
BLACK
6
CONTINUOUS
10
0.0911417
20
-0.426969
11
0.0911417
21
-0.404331
0
LINE
8
BLACK
6
CONTINUOUS
10
0.0911417
20
-0.404331
11
0.0912094
21
-0.403947
0
LINE
8
BLACK
6
CONTINUOUS
10
0.0912094
20
-0.403947
11
0.0911866
21
-0.403818
0
LINE
8
BLACK
6
CONTINUOUS
10
0.0911866
20
-0.403818
11
0.0912522
21
-0.403704
0
LINE
8
BLACK
6
CONTINUOUS
10
0.0912522
20
-0.403704
11
0.0913198
21
-0.403321
0
LINE
8
BLACK
6
CONTINUOUS
10
0.0913198
20
-0.403321
11
0.091813
21
-0.402733
0
LINE
8
BLACK
6
CONTINUOUS
10
0.091813
20
-0.402733
11
0.0921965
21
-0.402069
0
LINE
8
BLACK
6
CONTINUOUS
10
0.0921965
20
-0.402069
11
0.0924469
21
-0.401978
0
LINE
8
BLACK
6
CONTINUOUS
10
0.0924469
20
-0.401978
11
0.0926181
21
-0.401774
0
LINE
8
BLACK
6
CONTINUOUS
10
0.0926181
20
-0.401774
11
0.0933737
21
-0.40164
0
LINE
8
BLACK
6
CONTINUOUS
10
0.0933737
20
-0.40164
11
0.0940945
21
-0.401378
0
LINE
8
BLACK
6
CONTINUOUS
10
0.0940945
20
-0.401378
11
0.133465
21
-0.401378
0
LINE
8
BLACK
6
CONTINUOUS
10
0.133465
20
-0.401378
11
0.133848
21
-0.401446
0
LINE
8
BLACK
6
CONTINUOUS
10
0.11144
20
-0.520664
11
0.110869
21
-0.520901
0
LINE
8
BLACK
6
CONTINUOUS
10
0.110869
20
-0.520901
11
0.110402
21
-0.521306
0
LINE
8
BLACK
6
CONTINUOUS
10
0.110402
20
-0.521306
11
0.10534
21
-0.522994
0
LINE
8
BLACK
6
CONTINUOUS
10
0.10534
20
-0.522994
11
0.104904
21
-0.522963
0
LINE
8
BLACK
6
CONTINUOUS
10
0.104904
20
-0.522963
11
0.104499
21
-0.52313
0
LINE
8
BLACK
6
CONTINUOUS
10
0.104499
20
-0.52313
11
0.101125
21
-0.52313
0
LINE
8
BLACK
6
CONTINUOUS
10
0.101125
20
-0.52313
11
0.100553
21
-0.522893
0
LINE
8
BLACK
6
CONTINUOUS
10
0.100553
20
-0.522893
11
0.0999364
21
-0.522849
0
LINE
8
BLACK
6
CONTINUOUS
10
0.0999364
20
-0.522849
11
0.0970472
21
-0.521405
0
LINE
8
BLACK
6
CONTINUOUS
10
0.0970472
20
-0.521405
11
0.0970472
21
-0.550984
0
LINE
8
BLACK
6
CONTINUOUS
10
0.0970472
20
-0.550984
11
0.130512
21
-0.550984
0
LINE
8
BLACK
6
CONTINUOUS
10
0.130512
20
-0.550984
11
0.130512
21
-0.522839
0
LINE
8
BLACK
6
CONTINUOUS
10
0.130512
20
-0.522839
11
0.129809
21
-0.52313
0
LINE
8
BLACK
6
CONTINUOUS
10
0.129809
20
-0.52313
11
0.12793
21
-0.522352
0
LINE
8
BLACK
6
CONTINUOUS
10
0.12793
20
-0.522352
11
0.127151
21
-0.520472
0
LINE
8
BLACK
6
CONTINUOUS
10
0.127151
20
-0.520472
11
0.127151
21
-0.504953
0
LINE
8
BLACK
6
CONTINUOUS
10
0.127151
20
-0.504953
11
0.11144
21
-0.520664
0
LINE
8
BLACK
6
CONTINUOUS
10
0.136417
20
-0.482087
11
0.136417
21
-0.525394
0
LINE
8
BLACK
6
CONTINUOUS
10
0.136417
20
-0.525394
11
0.150197
21
-0.525394
0
LINE
8
BLACK
6
CONTINUOUS
10
0.150197
20
-0.525394
11
0.150197
21
-0.482087
0
LINE
8
BLACK
6
CONTINUOUS
10
0.150197
20
-0.482087
11
0.136417
21
-0.482087
0
LINE
8
BLACK
6
CONTINUOUS
10
0.0773622
20
-0.482087
11
0.0773622
21
-0.525394
0
LINE
8
BLACK
6
CONTINUOUS
10
0.0773622
20
-0.525394
11
0.0911417
21
-0.525394
0
LINE
8
BLACK
6
CONTINUOUS
10
0.0911417
20
-0.525394
11
0.0911417
21
-0.482087
0
LINE
8
BLACK
6
CONTINUOUS
10
0.0911417
20
-0.482087
11
0.0773622
21
-0.482087
0
LINE
8
BLACK
6
CONTINUOUS
10
0.129809
20
-0.469137
11
0.115593
21
-0.469137
0
LINE
8
BLACK
6
CONTINUOUS
10
0.115593
20
-0.469137
11
0.115593
21
-0.479977
0
LINE
8
BLACK
6
CONTINUOUS
10
0.115593
20
-0.479977
11
0.115357
21
-0.480549
0
LINE
8
BLACK
6
CONTINUOUS
10
0.115357
20
-0.480549
11
0.115313
21
-0.481166
0
LINE
8
BLACK
6
CONTINUOUS
10
0.115313
20
-0.481166
11
0.113626
21
-0.484541
0
LINE
8
BLACK
6
CONTINUOUS
10
0.113626
20
-0.484541
11
0.113295
21
-0.484827
0
LINE
8
BLACK
6
CONTINUOUS
10
0.113295
20
-0.484827
11
0.113128
21
-0.485231
0
LINE
8
BLACK
6
CONTINUOUS
10
0.113128
20
-0.485231
11
0.11144
21
-0.486918
0
LINE
8
BLACK
6
CONTINUOUS
10
0.11144
20
-0.486918
11
0.111036
21
-0.487086
0
LINE
8
BLACK
6
CONTINUOUS
10
0.111036
20
-0.487086
11
0.11075
21
-0.487416
0
LINE
8
BLACK
6
CONTINUOUS
10
0.11075
20
-0.487416
11
0.107375
21
-0.489104
0
LINE
8
BLACK
6
CONTINUOUS
10
0.107375
20
-0.489104
11
0.106758
21
-0.489147
0
LINE
8
BLACK
6
CONTINUOUS
10
0.106758
20
-0.489147
11
0.106187
21
-0.489384
0
LINE
8
BLACK
6
CONTINUOUS
10
0.106187
20
-0.489384
11
0.101125
21
-0.489384
0
LINE
8
BLACK
6
CONTINUOUS
10
0.101125
20
-0.489384
11
0.100553
21
-0.489147
0
LINE
8
BLACK
6
CONTINUOUS
10
0.100553
20
-0.489147
11
0.0999364
21
-0.489104
0
LINE
8
BLACK
6
CONTINUOUS
10
0.0999364
20
-0.489104
11
0.0970472
21
-0.487659
0
LINE
8
BLACK
6
CONTINUOUS
10
0.0970472
20
-0.487659
11
0.0970472
21
-0.497859
0
LINE
8
BLACK
6
CONTINUOUS
10
0.0970472
20
-0.497859
11
0.0977503
21
-0.497567
0
LINE
8
BLACK
6
CONTINUOUS
10
0.0977503
20
-0.497567
11
0.0996294
21
-0.498346
0
LINE
8
BLACK
6
CONTINUOUS
10
0.0996294
20
-0.498346
11
0.100408
21
-0.500225
0
LINE
8
BLACK
6
CONTINUOUS
10
0.100408
20
-0.500225
11
0.0996294
21
-0.502104
0
LINE
8
BLACK
6
CONTINUOUS
10
0.0996294
20
-0.502104
11
0.098247
21
-0.503486
0
LINE
8
BLACK
6
CONTINUOUS
10
0.098247
20
-0.503486
11
0.0970472
21
-0.505886
0
LINE
8
BLACK
6
CONTINUOUS
10
0.0970472
20
-0.505886
11
0.0970472
21
-0.513124
0
LINE
8
BLACK
6
CONTINUOUS
10
0.0970472
20
-0.513124
11
0.098247
21
-0.515524
0
LINE
8
BLACK
6
CONTINUOUS
10
0.098247
20
-0.515524
11
0.0993245
21
-0.516601
0
LINE
8
BLACK
6
CONTINUOUS
10
0.0993245
20
-0.516601
11
0.101752
21
-0.517815
0
LINE
8
BLACK
6
CONTINUOUS
10
0.101752
20
-0.517815
11
0.104068
21
-0.517815
0
LINE
8
BLACK
6
CONTINUOUS
10
0.104068
20
-0.517815
11
0.108126
21
-0.516462
0
LINE
8
BLACK
6
CONTINUOUS
10
0.108126
20
-0.516462
11
0.12793
21
-0.496659
0
LINE
8
BLACK
6
CONTINUOUS
10
0.12793
20
-0.496659
11
0.129809
21
-0.49588
0
LINE
8
BLACK
6
CONTINUOUS
10
0.129809
20
-0.49588
11
0.130512
21
-0.496171
0
LINE
8
BLACK
6
CONTINUOUS
10
0.130512
20
-0.496171
11
0.130512
21
-0.468845
0
LINE
8
BLACK
6
CONTINUOUS
10
0.130512
20
-0.468845
11
0.129809
21
-0.469137
0
LINE
8
BLACK
6
CONTINUOUS
10
0.0970472
20
-0.469137
11
0.0970472
21
-0.479378
0
LINE
8
BLACK
6
CONTINUOUS
10
0.0970472
20
-0.479378
11
0.0982471
21
-0.481778
0
LINE
8
BLACK
6
CONTINUOUS
10
0.0982471
20
-0.481778
11
0.0993245
21
-0.482855
0
LINE
8
BLACK
6
CONTINUOUS
10
0.0993245
20
-0.482855
11
0.101752
21
-0.484069
0
LINE
8
BLACK
6
CONTINUOUS
10
0.101752
20
-0.484069
11
0.105559
21
-0.484069
0
LINE
8
BLACK
6
CONTINUOUS
10
0.105559
20
-0.484069
11
0.107987
21
-0.482855
0
LINE
8
BLACK
6
CONTINUOUS
10
0.107987
20
-0.482855
11
0.109064
21
-0.481778
0
LINE
8
BLACK
6
CONTINUOUS
10
0.109064
20
-0.481778
11
0.110278
21
-0.47935
0
LINE
8
BLACK
6
CONTINUOUS
10
0.110278
20
-0.47935
11
0.110278
21
-0.469137
0
LINE
8
BLACK
6
CONTINUOUS
10
0.110278
20
-0.469137
11
0.0970472
21
-0.469137
0
LINE
8
BLACK
6
CONTINUOUS
10
0.136417
20
-0.432874
11
0.136417
21
-0.476181
0
LINE
8
BLACK
6
CONTINUOUS
10
0.136417
20
-0.476181
11
0.150197
21
-0.476181
0
LINE
8
BLACK
6
CONTINUOUS
10
0.150197
20
-0.476181
11
0.150197
21
-0.432874
0
LINE
8
BLACK
6
CONTINUOUS
10
0.150197
20
-0.432874
11
0.136417
21
-0.432874
0
LINE
8
BLACK
6
CONTINUOUS
10
0.0773622
20
-0.432874
11
0.0773622
21
-0.476181
0
LINE
8
BLACK
6
CONTINUOUS
10
0.0773622
20
-0.476181
11
0.0911417
21
-0.476181
0
LINE
8
BLACK
6
CONTINUOUS
10
0.0911417
20
-0.476181
11
0.0911417
21
-0.432874
0
LINE
8
BLACK
6
CONTINUOUS
10
0.0911417
20
-0.432874
11
0.0773622
21
-0.432874
0
LINE
8
BLACK
6
CONTINUOUS
10
0.129809
20
-0.447202
11
0.0970472
21
-0.447202
0
LINE
8
BLACK
6
CONTINUOUS
10
0.0970472
20
-0.447202
11
0.0970472
21
-0.463822
0
LINE
8
BLACK
6
CONTINUOUS
10
0.0970472
20
-0.463822
11
0.129809
21
-0.463822
0
LINE
8
BLACK
6
CONTINUOUS
10
0.129809
20
-0.463822
11
0.130512
21
-0.464113
0
LINE
8
BLACK
6
CONTINUOUS
10
0.130512
20
-0.464113
11
0.130512
21
-0.446911
0
LINE
8
BLACK
6
CONTINUOUS
10
0.130512
20
-0.446911
11
0.129809
21
-0.447202
0
LINE
8
BLACK
6
CONTINUOUS
10
0.0970472
20
-0.407283
11
0.0970472
21
-0.441887
0
LINE
8
BLACK
6
CONTINUOUS
10
0.0970472
20
-0.441887
11
0.129809
21
-0.441887
0
LINE
8
BLACK
6
CONTINUOUS
10
0.129809
20
-0.441887
11
0.130512
21
-0.442178
0
LINE
8
BLACK
6
CONTINUOUS
10
0.130512
20
-0.442178
11
0.130512
21
-0.407283
0
LINE
8
BLACK
6
CONTINUOUS
10
0.130512
20
-0.407283
11
0.0970472
21
-0.407283
0
LINE
8
BLACK
6
CONTINUOUS
10
0.0412986
20
-0.332096
11
0.0414339
21
-0.332209
0
LINE
8
BLACK
6
CONTINUOUS
10
0.0414339
20
-0.332209
11
0.0416092
21
-0.33223
0
LINE
8
BLACK
6
CONTINUOUS
10
0.0416092
20
-0.33223
11
0.0453587
21
-0.334104
0
LINE
8
BLACK
6
CONTINUOUS
10
0.0453587
20
-0.334104
11
0.0461824
21
-0.334715
0
LINE
8
BLACK
6
CONTINUOUS
10
0.0461824
20
-0.334715
11
0.0463582
21
-0.335121
0
LINE
8
BLACK
6
CONTINUOUS
10
0.0463582
20
-0.335121
11
0.0466793
21
-0.335425
0
LINE
8
BLACK
6
CONTINUOUS
10
0.0466793
20
-0.335425
11
0.048554
21
-0.339174
0
LINE
8
BLACK
6
CONTINUOUS
10
0.048554
20
-0.339174
11
0.0488464
21
-0.340157
0
LINE
8
BLACK
6
CONTINUOUS
10
0.0488464
20
-0.340157
11
0.0488054
21
-0.340329
0
LINE
8
BLACK
6
CONTINUOUS
10
0.0488054
20
-0.340329
11
0.0488657
21
-0.340495
0
LINE
8
BLACK
6
CONTINUOUS
10
0.0488657
20
-0.340495
11
0.0488657
21
-0.355493
0
LINE
8
BLACK
6
CONTINUOUS
10
0.0488657
20
-0.355493
11
0.0486877
21
-0.356503
0
LINE
8
BLACK
6
CONTINUOUS
10
0.0486877
20
-0.356503
11
0.0485742
21
-0.356638
0
LINE
8
BLACK
6
CONTINUOUS
10
0.0485742
20
-0.356638
11
0.048554
21
-0.356814
0
LINE
8
BLACK
6
CONTINUOUS
10
0.048554
20
-0.356814
11
0.0466793
21
-0.360563
0
LINE
8
BLACK
6
CONTINUOUS
10
0.0466793
20
-0.360563
11
0.0460683
21
-0.361387
0
LINE
8
BLACK
6
CONTINUOUS
10
0.0460683
20
-0.361387
11
0.0456627
21
-0.361563
0
LINE
8
BLACK
6
CONTINUOUS
10
0.0456627
20
-0.361563
11
0.0453587
21
-0.361884
0
LINE
8
BLACK
6
CONTINUOUS
10
0.0453587
20
-0.361884
11
0.0416092
21
-0.363758
0
LINE
8
BLACK
6
CONTINUOUS
10
0.0416092
20
-0.363758
11
0.0406263
21
-0.364051
0
LINE
8
BLACK
6
CONTINUOUS
10
0.0406263
20
-0.364051
11
0.0404546
21
-0.36401
0
LINE
8
BLACK
6
CONTINUOUS
10
0.0404546
20
-0.36401
11
0.0402887
21
-0.36407
0
LINE
8
BLACK
6
CONTINUOUS
10
0.0402887
20
-0.36407
11
0.0327896
21
-0.36407
0
LINE
8
BLACK
6
CONTINUOUS
10
0.0327896
20
-0.36407
11
0.0317797
21
-0.363892
0
LINE
8
BLACK
6
CONTINUOUS
10
0.0317797
20
-0.363892
11
0.0316445
21
-0.363779
0
LINE
8
BLACK
6
CONTINUOUS
10
0.0316445
20
-0.363779
11
0.0314691
21
-0.363758
0
LINE
8
BLACK
6
CONTINUOUS
10
0.0314691
20
-0.363758
11
0.0277196
21
-0.361884
0
LINE
8
BLACK
6
CONTINUOUS
10
0.0277196
20
-0.361884
11
0.0268959
21
-0.361273
0
LINE
8
BLACK
6
CONTINUOUS
10
0.0268959
20
-0.361273
11
0.0260927
21
-0.359419
0
LINE
8
BLACK
6
CONTINUOUS
10
0.0260927
20
-0.359419
11
0.0266685
21
-0.357483
0
LINE
8
BLACK
6
CONTINUOUS
10
0.0266685
20
-0.357483
11
0.0283541
21
-0.356371
0
LINE
8
BLACK
6
CONTINUOUS
10
0.0283541
20
-0.356371
11
0.0303606
21
-0.356602
0
LINE
8
BLACK
6
CONTINUOUS
10
0.0303606
20
-0.356602
11
0.0334867
21
-0.358165
0
LINE
8
BLACK
6
CONTINUOUS
10
0.0334867
20
-0.358165
11
0.0395917
21
-0.358165
0
LINE
8
BLACK
6
CONTINUOUS
10
0.0395917
20
-0.358165
11
0.0418374
21
-0.357042
0
LINE
8
BLACK
6
CONTINUOUS
10
0.0418374
20
-0.357042
11
0.0429602
21
-0.354796
0
LINE
8
BLACK
6
CONTINUOUS
10
0.0429602
20
-0.354796
11
0.0429602
21
-0.350415
0
LINE
8
BLACK
6
CONTINUOUS
10
0.0429602
20
-0.350415
11
0.0265863
21
-0.34714
0
LINE
8
BLACK
6
CONTINUOUS
10
0.0265863
20
-0.34714
11
0.0256309
21
-0.346767
0
LINE
8
BLACK
6
CONTINUOUS
10
0.0256309
20
-0.346767
11
0.0253259
21
-0.346386
0
LINE
8
BLACK
6
CONTINUOUS
10
0.0253259
20
-0.346386
11
0.0249034
21
-0.346142
0
LINE
8
BLACK
6
CONTINUOUS
10
0.0249034
20
-0.346142
11
0.0247142
21
-0.345623
0
LINE
8
BLACK
6
CONTINUOUS
10
0.0247142
20
-0.345623
11
0.0243683
21
-0.345191
0
LINE
8
BLACK
6
CONTINUOUS
10
0.0243683
20
-0.345191
11
0.0243794
21
-0.344703
0
LINE
8
BLACK
6
CONTINUOUS
10
0.0243794
20
-0.344703
11
0.0242126
21
-0.344244
0
LINE
8
BLACK
6
CONTINUOUS
10
0.0242126
20
-0.344244
11
0.0242126
21
-0.340495
0
LINE
8
BLACK
6
CONTINUOUS
10
0.0242126
20
-0.340495
11
0.0243907
21
-0.339485
0
LINE
8
BLACK
6
CONTINUOUS
10
0.0243907
20
-0.339485
11
0.0245041
21
-0.33935
0
LINE
8
BLACK
6
CONTINUOUS
10
0.0245041
20
-0.33935
11
0.0245243
21
-0.339174
0
LINE
8
BLACK
6
CONTINUOUS
10
0.0245243
20
-0.339174
11
0.0263991
21
-0.335425
0
LINE
8
BLACK
6
CONTINUOUS
10
0.0263991
20
-0.335425
11
0.02701
21
-0.334601
0
LINE
8
BLACK
6
CONTINUOUS
10
0.02701
20
-0.334601
11
0.0274157
21
-0.334425
0
LINE
8
BLACK
6
CONTINUOUS
10
0.0274157
20
-0.334425
11
0.0277196
21
-0.334104
0
LINE
8
BLACK
6
CONTINUOUS
10
0.0277196
20
-0.334104
11
0.0314691
21
-0.33223
0
LINE
8
BLACK
6
CONTINUOUS
10
0.0314691
20
-0.33223
11
0.032452
21
-0.331937
0
LINE
8
BLACK
6
CONTINUOUS
10
0.032452
20
-0.331937
11
0.0326237
21
-0.331978
0
LINE
8
BLACK
6
CONTINUOUS
10
0.0326237
20
-0.331978
11
0.0327896
21
-0.331918
0
LINE
8
BLACK
6
CONTINUOUS
10
0.0327896
20
-0.331918
11
0.0402887
21
-0.331918
0
LINE
8
BLACK
6
CONTINUOUS
10
0.0402887
20
-0.331918
11
0.0412986
21
-0.332096
0
LINE
8
BLACK
6
CONTINUOUS
10
0.0334867
20
-0.337823
11
0.031241
21
-0.338946
0
LINE
8
BLACK
6
CONTINUOUS
10
0.031241
20
-0.338946
11
0.0301181
21
-0.341192
0
LINE
8
BLACK
6
CONTINUOUS
10
0.0301181
20
-0.341192
11
0.0301181
21
-0.341824
0
LINE
8
BLACK
6
CONTINUOUS
10
0.0301181
20
-0.341824
11
0.0429602
21
-0.344392
0
LINE
8
BLACK
6
CONTINUOUS
10
0.0429602
20
-0.344392
11
0.0429602
21
-0.341192
0
LINE
8
BLACK
6
CONTINUOUS
10
0.0429602
20
-0.341192
11
0.0418374
21
-0.338946
0
LINE
8
BLACK
6
CONTINUOUS
10
0.0418374
20
-0.338946
11
0.0395917
21
-0.337823
0
LINE
8
BLACK
6
CONTINUOUS
10
0.0395917
20
-0.337823
11
0.0334867
21
-0.337823
0
LINE
8
BLACK
6
CONTINUOUS
10
0.00755283
20
-0.332096
11
0.00768807
21
-0.332209
0
LINE
8
BLACK
6
CONTINUOUS
10
0.00768807
20
-0.332209
11
0.00786343
21
-0.33223
0
LINE
8
BLACK
6
CONTINUOUS
10
0.00786343
20
-0.33223
11
0.011613
21
-0.334104
0
LINE
8
BLACK
6
CONTINUOUS
10
0.011613
20
-0.334104
11
0.0124366
21
-0.334715
0
LINE
8
BLACK
6
CONTINUOUS
10
0.0124366
20
-0.334715
11
0.0126124
21
-0.335121
0
LINE
8
BLACK
6
CONTINUOUS
10
0.0126124
20
-0.335121
11
0.0129335
21
-0.335425
0
LINE
8
BLACK
6
CONTINUOUS
10
0.0129335
20
-0.335425
11
0.0148082
21
-0.339174
0
LINE
8
BLACK
6
CONTINUOUS
10
0.0148082
20
-0.339174
11
0.0151006
21
-0.340157
0
LINE
8
BLACK
6
CONTINUOUS
10
0.0151006
20
-0.340157
11
0.0150596
21
-0.340329
0
LINE
8
BLACK
6
CONTINUOUS
10
0.0150596
20
-0.340329
11
0.01512
21
-0.340495
0
LINE
8
BLACK
6
CONTINUOUS
10
0.01512
20
-0.340495
11
0.01512
21
-0.34237
0
LINE
8
BLACK
6
CONTINUOUS
10
0.01512
20
-0.34237
11
0.0149419
21
-0.34338
0
LINE
8
BLACK
6
CONTINUOUS
10
0.0149419
20
-0.34338
11
0.0148284
21
-0.343515
0
LINE
8
BLACK
6
CONTINUOUS
10
0.0148284
20
-0.343515
11
0.0148082
21
-0.34369
0
LINE
8
BLACK
6
CONTINUOUS
10
0.0148082
20
-0.34369
11
0.0129335
21
-0.34744
0
LINE
8
BLACK
6
CONTINUOUS
10
0.0129335
20
-0.34744
11
0.0123226
21
-0.348263
0
LINE
8
BLACK
6
CONTINUOUS
10
0.0123226
20
-0.348263
11
0.0119169
21
-0.348439
0
LINE
8
BLACK
6
CONTINUOUS
10
0.0119169
20
-0.348439
11
0.011613
21
-0.34876
0
LINE
8
BLACK
6
CONTINUOUS
10
0.011613
20
-0.34876
11
0.00786343
21
-0.350635
0
LINE
8
BLACK
6
CONTINUOUS
10
0.00786343
20
-0.350635
11
0.00688047
21
-0.350927
0
LINE
8
BLACK
6
CONTINUOUS
10
0.00688047
20
-0.350927
11
0.00670882
21
-0.350886
0
LINE
8
BLACK
6
CONTINUOUS
10
0.00670882
20
-0.350886
11
0.00654291
21
-0.350947
0
LINE
8
BLACK
6
CONTINUOUS
10
0.00654291
20
-0.350947
11
0.00161567
21
-0.350947
0
LINE
8
BLACK
6
CONTINUOUS
10
0.00161567
20
-0.350947
11
-0.000630039
21
-0.35207
0
LINE
8
BLACK
6
CONTINUOUS
10
-0.000630039
20
-0.35207
11
-0.00175291
21
-0.354315
0
LINE
8
BLACK
6
CONTINUOUS
10
-0.00175291
20
-0.354315
11
-0.00175291
21
-0.354796
0
LINE
8
BLACK
6
CONTINUOUS
10
-0.00175291
20
-0.354796
11
-0.000630039
21
-0.357042
0
LINE
8
BLACK
6
CONTINUOUS
10
-0.000630039
20
-0.357042
11
0.00161567
21
-0.358165
0
LINE
8
BLACK
6
CONTINUOUS
10
0.00161567
20
-0.358165
11
0.00772063
21
-0.358165
0
LINE
8
BLACK
6
CONTINUOUS
10
0.00772063
20
-0.358165
11
0.0108467
21
-0.356602
0
LINE
8
BLACK
6
CONTINUOUS
10
0.0108467
20
-0.356602
11
0.0118296
21
-0.356309
0
LINE
8
BLACK
6
CONTINUOUS
10
0.0118296
20
-0.356309
11
0.0137941
21
-0.356778
0
LINE
8
BLACK
6
CONTINUOUS
10
0.0137941
20
-0.356778
11
0.0149974
21
-0.358401
0
LINE
8
BLACK
6
CONTINUOUS
10
0.0149974
20
-0.358401
11
0.0148764
21
-0.360417
0
LINE
8
BLACK
6
CONTINUOUS
10
0.0148764
20
-0.360417
11
0.0134877
21
-0.361884
0
LINE
8
BLACK
6
CONTINUOUS
10
0.0134877
20
-0.361884
11
0.00973819
21
-0.363758
0
LINE
8
BLACK
6
CONTINUOUS
10
0.00973819
20
-0.363758
11
0.00875524
21
-0.364051
0
LINE
8
BLACK
6
CONTINUOUS
10
0.00875524
20
-0.364051
11
0.00858358
21
-0.36401
0
LINE
8
BLACK
6
CONTINUOUS
10
0.00858358
20
-0.36401
11
0.00841768
21
-0.36407
0
LINE
8
BLACK
6
CONTINUOUS
10
0.00841768
20
-0.36407
11
0.000918622
21
-0.36407
0
LINE
8
BLACK
6
CONTINUOUS
10
0.000918622
20
-0.36407
11
-9.12992e-05
21
-0.363892
0
LINE
8
BLACK
6
CONTINUOUS
10
-9.12992e-05
20
-0.363892
11
-0.000226535
21
-0.363779
0
LINE
8
BLACK
6
CONTINUOUS
10
-0.000226535
20
-0.363779
11
-0.00040189
21
-0.363758
0
LINE
8
BLACK
6
CONTINUOUS
10
-0.00040189
20
-0.363758
11
-0.00415142
21
-0.361884
0
LINE
8
BLACK
6
CONTINUOUS
10
-0.00415142
20
-0.361884
11
-0.00497508
21
-0.361273
0
LINE
8
BLACK
6
CONTINUOUS
10
-0.00497508
20
-0.361273
11
-0.00515091
21
-0.360867
0
LINE
8
BLACK
6
CONTINUOUS
10
-0.00515091
20
-0.360867
11
-0.00547193
21
-0.360563
0
LINE
8
BLACK
6
CONTINUOUS
10
-0.00547193
20
-0.360563
11
-0.00734669
21
-0.356814
0
LINE
8
BLACK
6
CONTINUOUS
10
-0.00734669
20
-0.356814
11
-0.00763906
21
-0.355831
0
LINE
8
BLACK
6
CONTINUOUS
10
-0.00763906
20
-0.355831
11
-0.00759803
21
-0.355659
0
LINE
8
BLACK
6
CONTINUOUS
10
-0.00759803
20
-0.355659
11
-0.00765843
21
-0.355493
0
LINE
8
BLACK
6
CONTINUOUS
10
-0.00765843
20
-0.355493
11
-0.00765843
21
-0.353618
0
LINE
8
BLACK
6
CONTINUOUS
10
-0.00765843
20
-0.353618
11
-0.00748035
21
-0.352608
0
LINE
8
BLACK
6
CONTINUOUS
10
-0.00748035
20
-0.352608
11
-0.00736689
21
-0.352473
0
LINE
8
BLACK
6
CONTINUOUS
10
-0.00736689
20
-0.352473
11
-0.00734669
21
-0.352298
0
LINE
8
BLACK
6
CONTINUOUS
10
-0.00734669
20
-0.352298
11
-0.00547193
21
-0.348548
0
LINE
8
BLACK
6
CONTINUOUS
10
-0.00547193
20
-0.348548
11
-0.00486102
21
-0.347725
0
LINE
8
BLACK
6
CONTINUOUS
10
-0.00486102
20
-0.347725
11
-0.00445535
21
-0.347549
0
LINE
8
BLACK
6
CONTINUOUS
10
-0.00445535
20
-0.347549
11
-0.00415142
21
-0.347228
0
LINE
8
BLACK
6
CONTINUOUS
10
-0.00415142
20
-0.347228
11
-0.00040189
21
-0.345353
0
LINE
8
BLACK
6
CONTINUOUS
10
-0.00040189
20
-0.345353
11
0.000581024
21
-0.345061
0
LINE
8
BLACK
6
CONTINUOUS
10
0.000581024
20
-0.345061
11
0.000752717
21
-0.345102
0
LINE
8
BLACK
6
CONTINUOUS
10
0.000752717
20
-0.345102
11
0.000918622
21
-0.345041
0
LINE
8
BLACK
6
CONTINUOUS
10
0.000918622
20
-0.345041
11
0.00584587
21
-0.345041
0
LINE
8
BLACK
6
CONTINUOUS
10
0.00584587
20
-0.345041
11
0.00809157
21
-0.343918
0
LINE
8
BLACK
6
CONTINUOUS
10
0.00809157
20
-0.343918
11
0.00921445
21
-0.341673
0
LINE
8
BLACK
6
CONTINUOUS
10
0.00921445
20
-0.341673
11
0.00921445
21
-0.341192
0
LINE
8
BLACK
6
CONTINUOUS
10
0.00921445
20
-0.341192
11
0.00809157
21
-0.338946
0
LINE
8
BLACK
6
CONTINUOUS
10
0.00809157
20
-0.338946
11
0.00584587
21
-0.337823
0
LINE
8
BLACK
6
CONTINUOUS
10
0.00584587
20
-0.337823
11
0.00161567
21
-0.337823
0
LINE
8
BLACK
6
CONTINUOUS
10
0.00161567
20
-0.337823
11
-0.00151039
21
-0.339386
0
LINE
8
BLACK
6
CONTINUOUS
10
-0.00151039
20
-0.339386
11
-0.00249335
21
-0.339679
0
LINE
8
BLACK
6
CONTINUOUS
10
-0.00249335
20
-0.339679
11
-0.00445783
21
-0.339209
0
LINE
8
BLACK
6
CONTINUOUS
10
-0.00445783
20
-0.339209
11
-0.00566114
21
-0.337587
0
LINE
8
BLACK
6
CONTINUOUS
10
-0.00566114
20
-0.337587
11
-0.00554008
21
-0.335571
0
LINE
8
BLACK
6
CONTINUOUS
10
-0.00554008
20
-0.335571
11
-0.00415142
21
-0.334104
0
LINE
8
BLACK
6
CONTINUOUS
10
-0.00415142
20
-0.334104
11
-0.00040189
21
-0.33223
0
LINE
8
BLACK
6
CONTINUOUS
10
-0.00040189
20
-0.33223
11
0.000581024
21
-0.331937
0
LINE
8
BLACK
6
CONTINUOUS
10
0.000581024
20
-0.331937
11
0.000752717
21
-0.331978
0
LINE
8
BLACK
6
CONTINUOUS
10
0.000752717
20
-0.331978
11
0.000918622
21
-0.331918
0
LINE
8
BLACK
6
CONTINUOUS
10
0.000918622
20
-0.331918
11
0.00654291
21
-0.331918
0
LINE
8
BLACK
6
CONTINUOUS
10
0.00654291
20
-0.331918
11
0.00755283
21
-0.332096
0
LINE
8
BLACK
6
CONTINUOUS
10
-0.171173
20
-0.319849
11
-0.170482
21
-0.321747
0
LINE
8
BLACK
6
CONTINUOUS
10
-0.170482
20
-0.321747
11
-0.170482
21
-0.331918
0
LINE
8
BLACK
6
CONTINUOUS
10
-0.170482
20
-0.331918
11
-0.16781
21
-0.331918
0
LINE
8
BLACK
6
CONTINUOUS
10
-0.16781
20
-0.331918
11
-0.1668
21
-0.332096
0
LINE
8
BLACK
6
CONTINUOUS
10
-0.1668
20
-0.332096
11
-0.165253
21
-0.333394
0
LINE
8
BLACK
6
CONTINUOUS
10
-0.165253
20
-0.333394
11
-0.164902
21
-0.335383
0
LINE
8
BLACK
6
CONTINUOUS
10
-0.164902
20
-0.335383
11
-0.165912
21
-0.337133
0
LINE
8
BLACK
6
CONTINUOUS
10
-0.165912
20
-0.337133
11
-0.16781
21
-0.337823
0
LINE
8
BLACK
6
CONTINUOUS
10
-0.16781
20
-0.337823
11
-0.170482
21
-0.337823
0
LINE
8
BLACK
6
CONTINUOUS
10
-0.170482
20
-0.337823
11
-0.170482
21
-0.355493
0
LINE
8
BLACK
6
CONTINUOUS
10
-0.170482
20
-0.355493
11
-0.17066
21
-0.356503
0
LINE
8
BLACK
6
CONTINUOUS
10
-0.17066
20
-0.356503
11
-0.170773
21
-0.356638
0
LINE
8
BLACK
6
CONTINUOUS
10
-0.170773
20
-0.356638
11
-0.170794
21
-0.356814
0
LINE
8
BLACK
6
CONTINUOUS
10
-0.170794
20
-0.356814
11
-0.172668
21
-0.360563
0
LINE
8
BLACK
6
CONTINUOUS
10
-0.172668
20
-0.360563
11
-0.173279
21
-0.361387
0
LINE
8
BLACK
6
CONTINUOUS
10
-0.173279
20
-0.361387
11
-0.173685
21
-0.361563
0
LINE
8
BLACK
6
CONTINUOUS
10
-0.173685
20
-0.361563
11
-0.173989
21
-0.361884
0
LINE
8
BLACK
6
CONTINUOUS
10
-0.173989
20
-0.361884
11
-0.177738
21
-0.363758
0
LINE
8
BLACK
6
CONTINUOUS
10
-0.177738
20
-0.363758
11
-0.178721
21
-0.364051
0
LINE
8
BLACK
6
CONTINUOUS
10
-0.178721
20
-0.364051
11
-0.178893
21
-0.36401
0
LINE
8
BLACK
6
CONTINUOUS
10
-0.178893
20
-0.36401
11
-0.179059
21
-0.36407
0
LINE
8
BLACK
6
CONTINUOUS
10
-0.179059
20
-0.36407
11
-0.182808
21
-0.36407
0
LINE
8
BLACK
6
CONTINUOUS
10
-0.182808
20
-0.36407
11
-0.183818
21
-0.363892
0
LINE
8
BLACK
6
CONTINUOUS
10
-0.183818
20
-0.363892
11
-0.185366
21
-0.362594
0
LINE
8
BLACK
6
CONTINUOUS
10
-0.185366
20
-0.362594
11
-0.185716
21
-0.360605
0
LINE
8
BLACK
6
CONTINUOUS
10
-0.185716
20
-0.360605
11
-0.184706
21
-0.358855
0
LINE
8
BLACK
6
CONTINUOUS
10
-0.184706
20
-0.358855
11
-0.182808
21
-0.358165
0
LINE
8
BLACK
6
CONTINUOUS
10
-0.182808
20
-0.358165
11
-0.179756
21
-0.358165
0
LINE
8
BLACK
6
CONTINUOUS
10
-0.179756
20
-0.358165
11
-0.17751
21
-0.357042
0
LINE
8
BLACK
6
CONTINUOUS
10
-0.17751
20
-0.357042
11
-0.176387
21
-0.354796
0
LINE
8
BLACK
6
CONTINUOUS
10
-0.176387
20
-0.354796
11
-0.176387
21
-0.337823
0
LINE
8
BLACK
6
CONTINUOUS
10
-0.176387
20
-0.337823
11
-0.182808
21
-0.337823
0
LINE
8
BLACK
6
CONTINUOUS
10
-0.182808
20
-0.337823
11
-0.183818
21
-0.337645
0
LINE
8
BLACK
6
CONTINUOUS
10
-0.183818
20
-0.337645
11
-0.185366
21
-0.336347
0
LINE
8
BLACK
6
CONTINUOUS
10
-0.185366
20
-0.336347
11
-0.185716
21
-0.334358
0
LINE
8
BLACK
6
CONTINUOUS
10
-0.185716
20
-0.334358
11
-0.184706
21
-0.332609
0
LINE
8
BLACK
6
CONTINUOUS
10
-0.184706
20
-0.332609
11
-0.182808
21
-0.331918
0
LINE
8
BLACK
6
CONTINUOUS
10
-0.182808
20
-0.331918
11
-0.176387
21
-0.331918
0
LINE
8
BLACK
6
CONTINUOUS
10
-0.176387
20
-0.331918
11
-0.176387
21
-0.321747
0
LINE
8
BLACK
6
CONTINUOUS
10
-0.176387
20
-0.321747
11
-0.176209
21
-0.320737
0
LINE
8
BLACK
6
CONTINUOUS
10
-0.176209
20
-0.320737
11
-0.174911
21
-0.31919
0
LINE
8
BLACK
6
CONTINUOUS
10
-0.174911
20
-0.31919
11
-0.172922
21
-0.318839
0
LINE
8
BLACK
6
CONTINUOUS
10
-0.172922
20
-0.318839
11
-0.171173
21
-0.319849
0
LINE
8
BLACK
6
CONTINUOUS
10
-0.0880602
20
-0.332096
11
-0.087925
21
-0.332209
0
LINE
8
BLACK
6
CONTINUOUS
10
-0.087925
20
-0.332209
11
-0.0877496
21
-0.33223
0
LINE
8
BLACK
6
CONTINUOUS
10
-0.0877496
20
-0.33223
11
-0.0840001
21
-0.334104
0
LINE
8
BLACK
6
CONTINUOUS
10
-0.0840001
20
-0.334104
11
-0.083291
21
-0.33463
0
LINE
8
BLACK
6
CONTINUOUS
10
-0.083291
20
-0.33463
11
-0.0832327
21
-0.334657
0
LINE
8
BLACK
6
CONTINUOUS
10
-0.0832327
20
-0.334657
11
-0.0813579
21
-0.336532
0
LINE
8
BLACK
6
CONTINUOUS
10
-0.0813579
20
-0.336532
11
-0.0808516
21
-0.337255
0
LINE
8
BLACK
6
CONTINUOUS
10
-0.0808516
20
-0.337255
11
-0.0808048
21
-0.3373
0
LINE
8
BLACK
6
CONTINUOUS
10
-0.0808048
20
-0.3373
11
-0.07893
21
-0.341049
0
LINE
8
BLACK
6
CONTINUOUS
10
-0.07893
20
-0.341049
11
-0.0786377
21
-0.342032
0
LINE
8
BLACK
6
CONTINUOUS
10
-0.0786377
20
-0.342032
11
-0.0786787
21
-0.342204
0
LINE
8
BLACK
6
CONTINUOUS
10
-0.0786787
20
-0.342204
11
-0.0786183
21
-0.34237
0
LINE
8
BLACK
6
CONTINUOUS
10
-0.0786183
20
-0.34237
11
-0.0786183
21
-0.353618
0
LINE
8
BLACK
6
CONTINUOUS
10
-0.0786183
20
-0.353618
11
-0.0787964
21
-0.354628
0
LINE
8
BLACK
6
CONTINUOUS
10
-0.0787964
20
-0.354628
11
-0.0789098
21
-0.354763
0
LINE
8
BLACK
6
CONTINUOUS
10
-0.0789098
20
-0.354763
11
-0.07893
21
-0.354939
0
LINE
8
BLACK
6
CONTINUOUS
10
-0.07893
20
-0.354939
11
-0.0808048
21
-0.358688
0
LINE
8
BLACK
6
CONTINUOUS
10
-0.0808048
20
-0.358688
11
-0.0813307
21
-0.359397
0
LINE
8
BLACK
6
CONTINUOUS
10
-0.0813307
20
-0.359397
11
-0.0813579
21
-0.359456
0
LINE
8
BLACK
6
CONTINUOUS
10
-0.0813579
20
-0.359456
11
-0.0832327
21
-0.36133
0
LINE
8
BLACK
6
CONTINUOUS
10
-0.0832327
20
-0.36133
11
-0.0839557
21
-0.361837
0
LINE
8
BLACK
6
CONTINUOUS
10
-0.0839557
20
-0.361837
11
-0.0840001
21
-0.361884
0
LINE
8
BLACK
6
CONTINUOUS
10
-0.0840001
20
-0.361884
11
-0.0877496
21
-0.363758
0
LINE
8
BLACK
6
CONTINUOUS
10
-0.0877496
20
-0.363758
11
-0.0887326
21
-0.364051
0
LINE
8
BLACK
6
CONTINUOUS
10
-0.0887326
20
-0.364051
11
-0.0889042
21
-0.36401
0
LINE
8
BLACK
6
CONTINUOUS
10
-0.0889042
20
-0.36401
11
-0.0890701
21
-0.36407
0
LINE
8
BLACK
6
CONTINUOUS
10
-0.0890701
20
-0.36407
11
-0.0946944
21
-0.36407
0
LINE
8
BLACK
6
CONTINUOUS
10
-0.0946944
20
-0.36407
11
-0.0957044
21
-0.363892
0
LINE
8
BLACK
6
CONTINUOUS
10
-0.0957044
20
-0.363892
11
-0.0958396
21
-0.363779
0
LINE
8
BLACK
6
CONTINUOUS
10
-0.0958396
20
-0.363779
11
-0.096015
21
-0.363758
0
LINE
8
BLACK
6
CONTINUOUS
10
-0.096015
20
-0.363758
11
-0.0997645
21
-0.361884
0
LINE
8
BLACK
6
CONTINUOUS
10
-0.0997645
20
-0.361884
11
-0.100474
21
-0.361358
0
LINE
8
BLACK
6
CONTINUOUS
10
-0.100474
20
-0.361358
11
-0.100532
21
-0.36133
0
LINE
8
BLACK
6
CONTINUOUS
10
-0.100532
20
-0.36133
11
-0.102407
21
-0.359456
0
LINE
8
BLACK
6
CONTINUOUS
10
-0.102407
20
-0.359456
11
-0.102913
21
-0.358733
0
LINE
8
BLACK
6
CONTINUOUS
10
-0.102913
20
-0.358733
11
-0.10296
21
-0.358688
0
LINE
8
BLACK
6
CONTINUOUS
10
-0.10296
20
-0.358688
11
-0.104835
21
-0.354939
0
LINE
8
BLACK
6
CONTINUOUS
10
-0.104835
20
-0.354939
11
-0.105127
21
-0.353956
0
LINE
8
BLACK
6
CONTINUOUS
10
-0.105127
20
-0.353956
11
-0.105086
21
-0.353784
0
LINE
8
BLACK
6
CONTINUOUS
10
-0.105086
20
-0.353784
11
-0.105146
21
-0.353618
0
LINE
8
BLACK
6
CONTINUOUS
10
-0.105146
20
-0.353618
11
-0.105146
21
-0.34237
0
LINE
8
BLACK
6
CONTINUOUS
10
-0.105146
20
-0.34237
11
-0.104968
21
-0.34136
0
LINE
8
BLACK
6
CONTINUOUS
10
-0.104968
20
-0.34136
11
-0.104855
21
-0.341225
0
LINE
8
BLACK
6
CONTINUOUS
10
-0.104855
20
-0.341225
11
-0.104835
21
-0.341049
0
LINE
8
BLACK
6
CONTINUOUS
10
-0.104835
20
-0.341049
11
-0.10296
21
-0.3373
0
LINE
8
BLACK
6
CONTINUOUS
10
-0.10296
20
-0.3373
11
-0.102434
21
-0.336591
0
LINE
8
BLACK
6
CONTINUOUS
10
-0.102434
20
-0.336591
11
-0.102407
21
-0.336532
0
LINE
8
BLACK
6
CONTINUOUS
10
-0.102407
20
-0.336532
11
-0.100532
21
-0.334657
0
LINE
8
BLACK
6
CONTINUOUS
10
-0.100532
20
-0.334657
11
-0.0998088
21
-0.334151
0
LINE
8
BLACK
6
CONTINUOUS
10
-0.0998088
20
-0.334151
11
-0.0997645
21
-0.334104
0
LINE
8
BLACK
6
CONTINUOUS
10
-0.0997645
20
-0.334104
11
-0.096015
21
-0.33223
0
LINE
8
BLACK
6
CONTINUOUS
10
-0.096015
20
-0.33223
11
-0.095032
21
-0.331937
0
LINE
8
BLACK
6
CONTINUOUS
10
-0.095032
20
-0.331937
11
-0.0948604
21
-0.331978
0
LINE
8
BLACK
6
CONTINUOUS
10
-0.0948604
20
-0.331978
11
-0.0946944
21
-0.331918
0
LINE
8
BLACK
6
CONTINUOUS
10
-0.0946944
20
-0.331918
11
-0.0890701
21
-0.331918
0
LINE
8
BLACK
6
CONTINUOUS
10
-0.0890701
20
-0.331918
11
-0.0880602
21
-0.332096
0
LINE
8
BLACK
6
CONTINUOUS
10
-0.0939974
20
-0.337823
11
-0.0966949
21
-0.339172
0
LINE
8
BLACK
6
CONTINUOUS
10
-0.0966949
20
-0.339172
11
-0.097892
21
-0.340369
0
LINE
8
BLACK
6
CONTINUOUS
10
-0.097892
20
-0.340369
11
-0.0992407
21
-0.343067
0
LINE
8
BLACK
6
CONTINUOUS
10
-0.0992407
20
-0.343067
11
-0.0992407
21
-0.352921
0
LINE
8
BLACK
6
CONTINUOUS
10
-0.0992407
20
-0.352921
11
-0.097892
21
-0.355619
0
LINE
8
BLACK
6
CONTINUOUS
10
-0.097892
20
-0.355619
11
-0.0966949
21
-0.356816
0
LINE
8
BLACK
6
CONTINUOUS
10
-0.0966949
20
-0.356816
11
-0.0939974
21
-0.358165
0
LINE
8
BLACK
6
CONTINUOUS
10
-0.0939974
20
-0.358165
11
-0.0897672
21
-0.358165
0
LINE
8
BLACK
6
CONTINUOUS
10
-0.0897672
20
-0.358165
11
-0.0870697
21
-0.356816
0
LINE
8
BLACK
6
CONTINUOUS
10
-0.0870697
20
-0.356816
11
-0.0858726
21
-0.355619
0
LINE
8
BLACK
6
CONTINUOUS
10
-0.0858726
20
-0.355619
11
-0.0845238
21
-0.352921
0
LINE
8
BLACK
6
CONTINUOUS
10
-0.0845238
20
-0.352921
11
-0.0845238
21
-0.343067
0
LINE
8
BLACK
6
CONTINUOUS
10
-0.0845238
20
-0.343067
11
-0.0858726
21
-0.340369
0
LINE
8
BLACK
6
CONTINUOUS
10
-0.0858726
20
-0.340369
11
-0.0870697
21
-0.339172
0
LINE
8
BLACK
6
CONTINUOUS
10
-0.0870697
20
-0.339172
11
-0.0897672
21
-0.337823
0
LINE
8
BLACK
6
CONTINUOUS
10
-0.0897672
20
-0.337823
11
-0.0939974
21
-0.337823
0
LINE
8
BLACK
6
CONTINUOUS
10
-0.0193167
20
-0.319849
11
-0.0186258
21
-0.321747
0
LINE
8
BLACK
6
CONTINUOUS
10
-0.0186258
20
-0.321747
11
-0.0186258
21
-0.331918
0
LINE
8
BLACK
6
CONTINUOUS
10
-0.0186258
20
-0.331918
11
-0.0159543
21
-0.331918
0
LINE
8
BLACK
6
CONTINUOUS
10
-0.0159543
20
-0.331918
11
-0.0149444
21
-0.332096
0
LINE
8
BLACK
6
CONTINUOUS
10
-0.0149444
20
-0.332096
11
-0.0133971
21
-0.333394
0
LINE
8
BLACK
6
CONTINUOUS
10
-0.0133971
20
-0.333394
11
-0.0130464
21
-0.335383
0
LINE
8
BLACK
6
CONTINUOUS
10
-0.0130464
20
-0.335383
11
-0.0140563
21
-0.337133
0
LINE
8
BLACK
6
CONTINUOUS
10
-0.0140563
20
-0.337133
11
-0.0159543
21
-0.337823
0
LINE
8
BLACK
6
CONTINUOUS
10
-0.0159543
20
-0.337823
11
-0.0186258
21
-0.337823
0
LINE
8
BLACK
6
CONTINUOUS
10
-0.0186258
20
-0.337823
11
-0.0186258
21
-0.355493
0
LINE
8
BLACK
6
CONTINUOUS
10
-0.0186258
20
-0.355493
11
-0.0188039
21
-0.356503
0
LINE
8
BLACK
6
CONTINUOUS
10
-0.0188039
20
-0.356503
11
-0.0189174
21
-0.356638
0
LINE
8
BLACK
6
CONTINUOUS
10
-0.0189174
20
-0.356638
11
-0.0189376
21
-0.356814
0
LINE
8
BLACK
6
CONTINUOUS
10
-0.0189376
20
-0.356814
11
-0.0208123
21
-0.360563
0
LINE
8
BLACK
6
CONTINUOUS
10
-0.0208123
20
-0.360563
11
-0.0214232
21
-0.361387
0
LINE
8
BLACK
6
CONTINUOUS
10
-0.0214232
20
-0.361387
11
-0.0218289
21
-0.361563
0
LINE
8
BLACK
6
CONTINUOUS
10
-0.0218289
20
-0.361563
11
-0.0221328
21
-0.361884
0
LINE
8
BLACK
6
CONTINUOUS
10
-0.0221328
20
-0.361884
11
-0.0258824
21
-0.363758
0
LINE
8
BLACK
6
CONTINUOUS
10
-0.0258824
20
-0.363758
11
-0.0268653
21
-0.364051
0
LINE
8
BLACK
6
CONTINUOUS
10
-0.0268653
20
-0.364051
11
-0.027037
21
-0.36401
0
LINE
8
BLACK
6
CONTINUOUS
10
-0.027037
20
-0.36401
11
-0.0272029
21
-0.36407
0
LINE
8
BLACK
6
CONTINUOUS
10
-0.0272029
20
-0.36407
11
-0.0309524
21
-0.36407
0
LINE
8
BLACK
6
CONTINUOUS
10
-0.0309524
20
-0.36407
11
-0.0319623
21
-0.363892
0
LINE
8
BLACK
6
CONTINUOUS
10
-0.0319623
20
-0.363892
11
-0.0335096
21
-0.362594
0
LINE
8
BLACK
6
CONTINUOUS
10
-0.0335096
20
-0.362594
11
-0.0338603
21
-0.360605
0
LINE
8
BLACK
6
CONTINUOUS
10
-0.0338603
20
-0.360605
11
-0.0328504
21
-0.358855
0
LINE
8
BLACK
6
CONTINUOUS
10
-0.0328504
20
-0.358855
11
-0.0309524
21
-0.358165
0
LINE
8
BLACK
6
CONTINUOUS
10
-0.0309524
20
-0.358165
11
-0.0278999
21
-0.358165
0
LINE
8
BLACK
6
CONTINUOUS
10
-0.0278999
20
-0.358165
11
-0.0256542
21
-0.357042
0
LINE
8
BLACK
6
CONTINUOUS
10
-0.0256542
20
-0.357042
11
-0.0245313
21
-0.354796
0
LINE
8
BLACK
6
CONTINUOUS
10
-0.0245313
20
-0.354796
11
-0.0245313
21
-0.337823
0
LINE
8
BLACK
6
CONTINUOUS
10
-0.0245313
20
-0.337823
11
-0.0309524
21
-0.337823
0
LINE
8
BLACK
6
CONTINUOUS
10
-0.0309524
20
-0.337823
11
-0.0319623
21
-0.337645
0
LINE
8
BLACK
6
CONTINUOUS
10
-0.0319623
20
-0.337645
11
-0.0335096
21
-0.336347
0
LINE
8
BLACK
6
CONTINUOUS
10
-0.0335096
20
-0.336347
11
-0.0338603
21
-0.334358
0
LINE
8
BLACK
6
CONTINUOUS
10
-0.0338603
20
-0.334358
11
-0.0328504
21
-0.332609
0
LINE
8
BLACK
6
CONTINUOUS
10
-0.0328504
20
-0.332609
11
-0.0309524
21
-0.331918
0
LINE
8
BLACK
6
CONTINUOUS
10
-0.0309524
20
-0.331918
11
-0.0245313
21
-0.331918
0
LINE
8
BLACK
6
CONTINUOUS
10
-0.0245313
20
-0.331918
11
-0.0245313
21
-0.321747
0
LINE
8
BLACK
6
CONTINUOUS
10
-0.0245313
20
-0.321747
11
-0.0243533
21
-0.320737
0
LINE
8
BLACK
6
CONTINUOUS
10
-0.0243533
20
-0.320737
11
-0.023055
21
-0.31919
0
LINE
8
BLACK
6
CONTINUOUS
10
-0.023055
20
-0.31919
11
-0.0210658
21
-0.318839
0
LINE
8
BLACK
6
CONTINUOUS
10
-0.0210658
20
-0.318839
11
-0.0193167
21
-0.319849
0
LINE
8
BLACK
6
CONTINUOUS
10
-0.142428
20
-0.332096
11
-0.142293
21
-0.332209
0
LINE
8
BLACK
6
CONTINUOUS
10
-0.142293
20
-0.332209
11
-0.142118
21
-0.33223
0
LINE
8
BLACK
6
CONTINUOUS
10
-0.142118
20
-0.33223
11
-0.140076
21
-0.33325
0
LINE
8
BLACK
6
CONTINUOUS
10
-0.140076
20
-0.33325
11
-0.13929
21
-0.332313
0
LINE
8
BLACK
6
CONTINUOUS
10
-0.13929
20
-0.332313
11
-0.137301
21
-0.331963
0
LINE
8
BLACK
6
CONTINUOUS
10
-0.137301
20
-0.331963
11
-0.135552
21
-0.332973
0
LINE
8
BLACK
6
CONTINUOUS
10
-0.135552
20
-0.332973
11
-0.134861
21
-0.334871
0
LINE
8
BLACK
6
CONTINUOUS
10
-0.134861
20
-0.334871
11
-0.134861
21
-0.361117
0
LINE
8
BLACK
6
CONTINUOUS
10
-0.134861
20
-0.361117
11
-0.135039
21
-0.362127
0
LINE
8
BLACK
6
CONTINUOUS
10
-0.135039
20
-0.362127
11
-0.136338
21
-0.363674
0
LINE
8
BLACK
6
CONTINUOUS
10
-0.136338
20
-0.363674
11
-0.138327
21
-0.364025
0
LINE
8
BLACK
6
CONTINUOUS
10
-0.138327
20
-0.364025
11
-0.140076
21
-0.363015
0
LINE
8
BLACK
6
CONTINUOUS
10
-0.140076
20
-0.363015
11
-0.140767
21
-0.361117
0
LINE
8
BLACK
6
CONTINUOUS
10
-0.140767
20
-0.361117
11
-0.140767
21
-0.339843
0
LINE
8
BLACK
6
CONTINUOUS
10
-0.140767
20
-0.339843
11
-0.141438
21
-0.339172
0
LINE
8
BLACK
6
CONTINUOUS
10
-0.141438
20
-0.339172
11
-0.144135
21
-0.337823
0
LINE
8
BLACK
6
CONTINUOUS
10
-0.144135
20
-0.337823
11
-0.148366
21
-0.337823
0
LINE
8
BLACK
6
CONTINUOUS
10
-0.148366
20
-0.337823
11
-0.150611
21
-0.338946
0
LINE
8
BLACK
6
CONTINUOUS
10
-0.150611
20
-0.338946
11
-0.151734
21
-0.341192
0
LINE
8
BLACK
6
CONTINUOUS
10
-0.151734
20
-0.341192
11
-0.151734
21
-0.361117
0
LINE
8
BLACK
6
CONTINUOUS
10
-0.151734
20
-0.361117
11
-0.151912
21
-0.362127
0
LINE
8
BLACK
6
CONTINUOUS
10
-0.151912
20
-0.362127
11
-0.153211
21
-0.363674
0
LINE
8
BLACK
6
CONTINUOUS
10
-0.153211
20
-0.363674
11
-0.1552
21
-0.364025
0
LINE
8
BLACK
6
CONTINUOUS
10
-0.1552
20
-0.364025
11
-0.156949
21
-0.363015
0
LINE
8
BLACK
6
CONTINUOUS
10
-0.156949
20
-0.363015
11
-0.15764
21
-0.361117
0
LINE
8
BLACK
6
CONTINUOUS
10
-0.15764
20
-0.361117
11
-0.15764
21
-0.340495
0
LINE
8
BLACK
6
CONTINUOUS
10
-0.15764
20
-0.340495
11
-0.157462
21
-0.339485
0
LINE
8
BLACK
6
CONTINUOUS
10
-0.157462
20
-0.339485
11
-0.157348
21
-0.33935
0
LINE
8
BLACK
6
CONTINUOUS
10
-0.157348
20
-0.33935
11
-0.157328
21
-0.339174
0
LINE
8
BLACK
6
CONTINUOUS
10
-0.157328
20
-0.339174
11
-0.155453
21
-0.335425
0
LINE
8
BLACK
6
CONTINUOUS
10
-0.155453
20
-0.335425
11
-0.154842
21
-0.334601
0
LINE
8
BLACK
6
CONTINUOUS
10
-0.154842
20
-0.334601
11
-0.154437
21
-0.334425
0
LINE
8
BLACK
6
CONTINUOUS
10
-0.154437
20
-0.334425
11
-0.154133
21
-0.334104
0
LINE
8
BLACK
6
CONTINUOUS
10
-0.154133
20
-0.334104
11
-0.150383
21
-0.33223
0
LINE
8
BLACK
6
CONTINUOUS
10
-0.150383
20
-0.33223
11
-0.1494
21
-0.331937
0
LINE
8
BLACK
6
CONTINUOUS
10
-0.1494
20
-0.331937
11
-0.149229
21
-0.331978
0
LINE
8
BLACK
6
CONTINUOUS
10
-0.149229
20
-0.331978
11
-0.149063
21
-0.331918
0
LINE
8
BLACK
6
CONTINUOUS
10
-0.149063
20
-0.331918
11
-0.143438
21
-0.331918
0
LINE
8
BLACK
6
CONTINUOUS
10
-0.143438
20
-0.331918
11
-0.142428
21
-0.332096
0
LINE
8
BLACK
6
CONTINUOUS
10
-0.116804
20
-0.332973
11
-0.116114
21
-0.334871
0
LINE
8
BLACK
6
CONTINUOUS
10
-0.116114
20
-0.334871
11
-0.116114
21
-0.361117
0
LINE
8
BLACK
6
CONTINUOUS
10
-0.116114
20
-0.361117
11
-0.116292
21
-0.362127
0
LINE
8
BLACK
6
CONTINUOUS
10
-0.116292
20
-0.362127
11
-0.11759
21
-0.363674
0
LINE
8
BLACK
6
CONTINUOUS
10
-0.11759
20
-0.363674
11
-0.119579
21
-0.364025
0
LINE
8
BLACK
6
CONTINUOUS
10
-0.119579
20
-0.364025
11
-0.121328
21
-0.363015
0
LINE
8
BLACK
6
CONTINUOUS
10
-0.121328
20
-0.363015
11
-0.122019
21
-0.361117
0
LINE
8
BLACK
6
CONTINUOUS
10
-0.122019
20
-0.361117
11
-0.122019
21
-0.334871
0
LINE
8
BLACK
6
CONTINUOUS
10
-0.122019
20
-0.334871
11
-0.121841
21
-0.333861
0
LINE
8
BLACK
6
CONTINUOUS
10
-0.121841
20
-0.333861
11
-0.120543
21
-0.332313
0
LINE
8
BLACK
6
CONTINUOUS
10
-0.120543
20
-0.332313
11
-0.118554
21
-0.331963
0
LINE
8
BLACK
6
CONTINUOUS
10
-0.118554
20
-0.331963
11
-0.116804
21
-0.332973
0
LINE
8
BLACK
6
CONTINUOUS
10
0.0806687
20
-0.318973
11
0.0822159
21
-0.320271
0
LINE
8
BLACK
6
CONTINUOUS
10
0.0822159
20
-0.320271
11
0.0825667
21
-0.32226
0
LINE
8
BLACK
6
CONTINUOUS
10
0.0825667
20
-0.32226
11
0.0815568
21
-0.324009
0
LINE
8
BLACK
6
CONTINUOUS
10
0.0815568
20
-0.324009
11
0.0796588
21
-0.3247
0
LINE
8
BLACK
6
CONTINUOUS
10
0.0796588
20
-0.3247
11
0.071363
21
-0.3247
0
LINE
8
BLACK
6
CONTINUOUS
10
0.071363
20
-0.3247
11
0.071363
21
-0.361117
0
LINE
8
BLACK
6
CONTINUOUS
10
0.071363
20
-0.361117
11
0.0711849
21
-0.362127
0
LINE
8
BLACK
6
CONTINUOUS
10
0.0711849
20
-0.362127
11
0.0698866
21
-0.363674
0
LINE
8
BLACK
6
CONTINUOUS
10
0.0698866
20
-0.363674
11
0.0678974
21
-0.364025
0
LINE
8
BLACK
6
CONTINUOUS
10
0.0678974
20
-0.364025
11
0.0661483
21
-0.363015
0
LINE
8
BLACK
6
CONTINUOUS
10
0.0661483
20
-0.363015
11
0.0654574
21
-0.361117
0
LINE
8
BLACK
6
CONTINUOUS
10
0.0654574
20
-0.361117
11
0.0654574
21
-0.3247
0
LINE
8
BLACK
6
CONTINUOUS
10
0.0654574
20
-0.3247
11
0.0571616
21
-0.3247
0
LINE
8
BLACK
6
CONTINUOUS
10
0.0571616
20
-0.3247
11
0.0561517
21
-0.324522
0
LINE
8
BLACK
6
CONTINUOUS
10
0.0561517
20
-0.324522
11
0.0546044
21
-0.323224
0
LINE
8
BLACK
6
CONTINUOUS
10
0.0546044
20
-0.323224
11
0.0542537
21
-0.321234
0
LINE
8
BLACK
6
CONTINUOUS
10
0.0542537
20
-0.321234
11
0.0552636
21
-0.319485
0
LINE
8
BLACK
6
CONTINUOUS
10
0.0552636
20
-0.319485
11
0.0571616
21
-0.318794
0
LINE
8
BLACK
6
CONTINUOUS
10
0.0571616
20
-0.318794
11
0.0796588
21
-0.318794
0
LINE
8
BLACK
6
CONTINUOUS
10
0.0796588
20
-0.318794
11
0.0806687
21
-0.318973
0
LINE
8
BLACK
6
CONTINUOUS
10
-0.0436922
20
-0.318862
11
-0.043563
21
-0.318839
0
LINE
8
BLACK
6
CONTINUOUS
10
-0.043563
20
-0.318839
11
-0.0434494
21
-0.318905
0
LINE
8
BLACK
6
CONTINUOUS
10
-0.0434494
20
-0.318905
11
-0.0430658
21
-0.318973
0
LINE
8
BLACK
6
CONTINUOUS
10
-0.0430658
20
-0.318973
11
-0.0424781
21
-0.319466
0
LINE
8
BLACK
6
CONTINUOUS
10
-0.0424781
20
-0.319466
11
-0.0418138
21
-0.319849
0
LINE
8
BLACK
6
CONTINUOUS
10
-0.0418138
20
-0.319849
11
-0.0417227
21
-0.3201
0
LINE
8
BLACK
6
CONTINUOUS
10
-0.0417227
20
-0.3201
11
-0.0415186
21
-0.320271
0
LINE
8
BLACK
6
CONTINUOUS
10
-0.0415186
20
-0.320271
11
-0.0413854
21
-0.321026
0
LINE
8
BLACK
6
CONTINUOUS
10
-0.0413854
20
-0.321026
11
-0.041123
21
-0.321747
0
LINE
8
BLACK
6
CONTINUOUS
10
-0.041123
20
-0.321747
11
-0.041123
21
-0.361117
0
LINE
8
BLACK
6
CONTINUOUS
10
-0.041123
20
-0.361117
11
-0.0413011
21
-0.362127
0
LINE
8
BLACK
6
CONTINUOUS
10
-0.0413011
20
-0.362127
11
-0.0425994
21
-0.363674
0
LINE
8
BLACK
6
CONTINUOUS
10
-0.0425994
20
-0.363674
11
-0.0445885
21
-0.364025
0
LINE
8
BLACK
6
CONTINUOUS
10
-0.0445885
20
-0.364025
11
-0.0463377
21
-0.363015
0
LINE
8
BLACK
6
CONTINUOUS
10
-0.0463377
20
-0.363015
11
-0.0470285
21
-0.361117
0
LINE
8
BLACK
6
CONTINUOUS
10
-0.0470285
20
-0.361117
11
-0.0470285
21
-0.345322
0
LINE
8
BLACK
6
CONTINUOUS
10
-0.0470285
20
-0.345322
11
-0.0590739
21
-0.345322
0
LINE
8
BLACK
6
CONTINUOUS
10
-0.0590739
20
-0.345322
11
-0.0600838
21
-0.345144
0
LINE
8
BLACK
6
CONTINUOUS
10
-0.0600838
20
-0.345144
11
-0.0602191
21
-0.345031
0
LINE
8
BLACK
6
CONTINUOUS
10
-0.0602191
20
-0.345031
11
-0.0603944
21
-0.345011
0
LINE
8
BLACK
6
CONTINUOUS
10
-0.0603944
20
-0.345011
11
-0.0641439
21
-0.343136
0
LINE
8
BLACK
6
CONTINUOUS
10
-0.0641439
20
-0.343136
11
-0.064853
21
-0.34261
0
LINE
8
BLACK
6
CONTINUOUS
10
-0.064853
20
-0.34261
11
-0.0649113
21
-0.342583
0
LINE
8
BLACK
6
CONTINUOUS
10
-0.0649113
20
-0.342583
11
-0.0667861
21
-0.340708
0
LINE
8
BLACK
6
CONTINUOUS
10
-0.0667861
20
-0.340708
11
-0.0672924
21
-0.339985
0
LINE
8
BLACK
6
CONTINUOUS
10
-0.0672924
20
-0.339985
11
-0.0673392
21
-0.339941
0
LINE
8
BLACK
6
CONTINUOUS
10
-0.0673392
20
-0.339941
11
-0.069214
21
-0.336191
0
LINE
8
BLACK
6
CONTINUOUS
10
-0.069214
20
-0.336191
11
-0.0695063
21
-0.335208
0
LINE
8
BLACK
6
CONTINUOUS
10
-0.0695063
20
-0.335208
11
-0.0694653
21
-0.335037
0
LINE
8
BLACK
6
CONTINUOUS
10
-0.0694653
20
-0.335037
11
-0.0695257
21
-0.334871
0
LINE
8
BLACK
6
CONTINUOUS
10
-0.0695257
20
-0.334871
11
-0.0695257
21
-0.329246
0
LINE
8
BLACK
6
CONTINUOUS
10
-0.0695257
20
-0.329246
11
-0.0693476
21
-0.328236
0
LINE
8
BLACK
6
CONTINUOUS
10
-0.0693476
20
-0.328236
11
-0.0692342
21
-0.328101
0
LINE
8
BLACK
6
CONTINUOUS
10
-0.0692342
20
-0.328101
11
-0.069214
21
-0.327926
0
LINE
8
BLACK
6
CONTINUOUS
10
-0.069214
20
-0.327926
11
-0.0673392
21
-0.324176
0
LINE
8
BLACK
6
CONTINUOUS
10
-0.0673392
20
-0.324176
11
-0.0668133
21
-0.323467
0
LINE
8
BLACK
6
CONTINUOUS
10
-0.0668133
20
-0.323467
11
-0.0667861
21
-0.323409
0
LINE
8
BLACK
6
CONTINUOUS
10
-0.0667861
20
-0.323409
11
-0.0649113
21
-0.321534
0
LINE
8
BLACK
6
CONTINUOUS
10
-0.0649113
20
-0.321534
11
-0.0641884
21
-0.321028
0
LINE
8
BLACK
6
CONTINUOUS
10
-0.0641884
20
-0.321028
11
-0.064144
21
-0.320981
0
LINE
8
BLACK
6
CONTINUOUS
10
-0.064144
20
-0.320981
11
-0.0603944
21
-0.319106
0
LINE
8
BLACK
6
CONTINUOUS
10
-0.0603944
20
-0.319106
11
-0.0594115
21
-0.318814
0
LINE
8
BLACK
6
CONTINUOUS
10
-0.0594115
20
-0.318814
11
-0.0592398
21
-0.318855
0
LINE
8
BLACK
6
CONTINUOUS
10
-0.0592398
20
-0.318855
11
-0.0590739
21
-0.318794
0
LINE
8
BLACK
6
CONTINUOUS
10
-0.0590739
20
-0.318794
11
-0.0440757
21
-0.318794
0
LINE
8
BLACK
6
CONTINUOUS
10
-0.0440757
20
-0.318794
11
-0.0436922
21
-0.318862
0
LINE
8
BLACK
6
CONTINUOUS
10
-0.0583768
20
-0.3247
11
-0.0610744
21
-0.326049
0
LINE
8
BLACK
6
CONTINUOUS
10
-0.0610744
20
-0.326049
11
-0.0622715
21
-0.327246
0
LINE
8
BLACK
6
CONTINUOUS
10
-0.0622715
20
-0.327246
11
-0.0636202
21
-0.329943
0
LINE
8
BLACK
6
CONTINUOUS
10
-0.0636202
20
-0.329943
11
-0.0636202
21
-0.334174
0
LINE
8
BLACK
6
CONTINUOUS
10
-0.0636202
20
-0.334174
11
-0.0622715
21
-0.336871
0
LINE
8
BLACK
6
CONTINUOUS
10
-0.0622715
20
-0.336871
11
-0.0610743
21
-0.338068
0
LINE
8
BLACK
6
CONTINUOUS
10
-0.0610743
20
-0.338068
11
-0.0583769
21
-0.339417
0
LINE
8
BLACK
6
CONTINUOUS
10
-0.0583769
20
-0.339417
11
-0.0470285
21
-0.339417
0
LINE
8
BLACK
6
CONTINUOUS
10
-0.0470285
20
-0.339417
11
-0.0470285
21
-0.3247
0
LINE
8
BLACK
6
CONTINUOUS
10
-0.0470285
20
-0.3247
11
-0.0583768
21
-0.3247
0
LINE
8
BLACK
6
CONTINUOUS
10
-0.118687
20
-0.318863
11
-0.118554
21
-0.318839
0
LINE
8
BLACK
6
CONTINUOUS
10
-0.118554
20
-0.318839
11
-0.118437
21
-0.318907
0
LINE
8
BLACK
6
CONTINUOUS
10
-0.118437
20
-0.318907
11
-0.118302
21
-0.318895
0
LINE
8
BLACK
6
CONTINUOUS
10
-0.118302
20
-0.318895
11
-0.117674
21
-0.319335
0
LINE
8
BLACK
6
CONTINUOUS
10
-0.117674
20
-0.319335
11
-0.116978
21
-0.319659
0
LINE
8
BLACK
6
CONTINUOUS
10
-0.116978
20
-0.319659
11
-0.115104
21
-0.321534
0
LINE
8
BLACK
6
CONTINUOUS
10
-0.115104
20
-0.321534
11
-0.11488
21
-0.321853
0
LINE
8
BLACK
6
CONTINUOUS
10
-0.11488
20
-0.321853
11
-0.114773
21
-0.321928
0
LINE
8
BLACK
6
CONTINUOUS
10
-0.114773
20
-0.321928
11
-0.114739
21
-0.322055
0
LINE
8
BLACK
6
CONTINUOUS
10
-0.114739
20
-0.322055
11
-0.114515
21
-0.322374
0
LINE
8
BLACK
6
CONTINUOUS
10
-0.114515
20
-0.322374
11
-0.114449
21
-0.323139
0
LINE
8
BLACK
6
CONTINUOUS
10
-0.114449
20
-0.323139
11
-0.11425
21
-0.323879
0
LINE
8
BLACK
6
CONTINUOUS
10
-0.11425
20
-0.323879
11
-0.114363
21
-0.324121
0
LINE
8
BLACK
6
CONTINUOUS
10
-0.114363
20
-0.324121
11
-0.114339
21
-0.324386
0
LINE
8
BLACK
6
CONTINUOUS
10
-0.114339
20
-0.324386
11
-0.11478
21
-0.325015
0
LINE
8
BLACK
6
CONTINUOUS
10
-0.11478
20
-0.325015
11
-0.115104
21
-0.32571
0
LINE
8
BLACK
6
CONTINUOUS
10
-0.115104
20
-0.32571
11
-0.116978
21
-0.327585
0
LINE
8
BLACK
6
CONTINUOUS
10
-0.116978
20
-0.327585
11
-0.117297
21
-0.327808
0
LINE
8
BLACK
6
CONTINUOUS
10
-0.117297
20
-0.327808
11
-0.117373
21
-0.327916
0
LINE
8
BLACK
6
CONTINUOUS
10
-0.117373
20
-0.327916
11
-0.117499
21
-0.32795
0
LINE
8
BLACK
6
CONTINUOUS
10
-0.117499
20
-0.32795
11
-0.117506
21
-0.327954
0
LINE
8
BLACK
6
CONTINUOUS
10
-0.117506
20
-0.327954
11
-0.11759
21
-0.328054
0
LINE
8
BLACK
6
CONTINUOUS
10
-0.11759
20
-0.328054
11
-0.117668
21
-0.328068
0
LINE
8
BLACK
6
CONTINUOUS
10
-0.117668
20
-0.328068
11
-0.117819
21
-0.328173
0
LINE
8
BLACK
6
CONTINUOUS
10
-0.117819
20
-0.328173
11
-0.118583
21
-0.32824
0
LINE
8
BLACK
6
CONTINUOUS
10
-0.118583
20
-0.32824
11
-0.119324
21
-0.328438
0
LINE
8
BLACK
6
CONTINUOUS
10
-0.119324
20
-0.328438
11
-0.119446
21
-0.328381
0
LINE
8
BLACK
6
CONTINUOUS
10
-0.119446
20
-0.328381
11
-0.119579
21
-0.328405
0
LINE
8
BLACK
6
CONTINUOUS
10
-0.119579
20
-0.328405
11
-0.119696
21
-0.328337
0
LINE
8
BLACK
6
CONTINUOUS
10
-0.119696
20
-0.328337
11
-0.119831
21
-0.328349
0
LINE
8
BLACK
6
CONTINUOUS
10
-0.119831
20
-0.328349
11
-0.120459
21
-0.327909
0
LINE
8
BLACK
6
CONTINUOUS
10
-0.120459
20
-0.327909
11
-0.121154
21
-0.327585
0
LINE
8
BLACK
6
CONTINUOUS
10
-0.121154
20
-0.327585
11
-0.123029
21
-0.32571
0
LINE
8
BLACK
6
CONTINUOUS
10
-0.123029
20
-0.32571
11
-0.123252
21
-0.325391
0
LINE
8
BLACK
6
CONTINUOUS
10
-0.123252
20
-0.325391
11
-0.12336
21
-0.325316
0
LINE
8
BLACK
6
CONTINUOUS
10
-0.12336
20
-0.325316
11
-0.123394
21
-0.325189
0
LINE
8
BLACK
6
CONTINUOUS
10
-0.123394
20
-0.325189
11
-0.123617
21
-0.32487
0
LINE
8
BLACK
6
CONTINUOUS
10
-0.123617
20
-0.32487
11
-0.123684
21
-0.324106
0
LINE
8
BLACK
6
CONTINUOUS
10
-0.123684
20
-0.324106
11
-0.123883
21
-0.323365
0
LINE
8
BLACK
6
CONTINUOUS
10
-0.123883
20
-0.323365
11
-0.12377
21
-0.323123
0
LINE
8
BLACK
6
CONTINUOUS
10
-0.12377
20
-0.323123
11
-0.123793
21
-0.322858
0
LINE
8
BLACK
6
CONTINUOUS
10
-0.123793
20
-0.322858
11
-0.123353
21
-0.322229
0
LINE
8
BLACK
6
CONTINUOUS
10
-0.123353
20
-0.322229
11
-0.123029
21
-0.321534
0
LINE
8
BLACK
6
CONTINUOUS
10
-0.123029
20
-0.321534
11
-0.121154
21
-0.319659
0
LINE
8
BLACK
6
CONTINUOUS
10
-0.121154
20
-0.319659
11
-0.120835
21
-0.319436
0
LINE
8
BLACK
6
CONTINUOUS
10
-0.120835
20
-0.319436
11
-0.12076
21
-0.319328
0
LINE
8
BLACK
6
CONTINUOUS
10
-0.12076
20
-0.319328
11
-0.120633
21
-0.319295
0
LINE
8
BLACK
6
CONTINUOUS
10
-0.120633
20
-0.319295
11
-0.120626
21
-0.31929
0
LINE
8
BLACK
6
CONTINUOUS
10
-0.120626
20
-0.31929
11
-0.120543
21
-0.31919
0
LINE
8
BLACK
6
CONTINUOUS
10
-0.120543
20
-0.31919
11
-0.120464
21
-0.319176
0
LINE
8
BLACK
6
CONTINUOUS
10
-0.120464
20
-0.319176
11
-0.120314
21
-0.319071
0
LINE
8
BLACK
6
CONTINUOUS
10
-0.120314
20
-0.319071
11
-0.11955
21
-0.319004
0
LINE
8
BLACK
6
CONTINUOUS
10
-0.11955
20
-0.319004
11
-0.118809
21
-0.318806
0
LINE
8
BLACK
6
CONTINUOUS
10
-0.118809
20
-0.318806
11
-0.118687
21
-0.318863
0
LINE
8
BLACK
6
CONTINUOUS
10
-0.0721247
20
-0.159524
11
-0.0705775
21
-0.160822
0
LINE
8
BLACK
6
CONTINUOUS
10
-0.0705775
20
-0.160822
11
-0.0702267
21
-0.162811
0
LINE
8
BLACK
6
CONTINUOUS
10
-0.0702267
20
-0.162811
11
-0.0712367
21
-0.16456
0
LINE
8
BLACK
6
CONTINUOUS
10
-0.0712367
20
-0.16456
11
-0.0731346
21
-0.165251
0
LINE
8
BLACK
6
CONTINUOUS
10
-0.0731346
20
-0.165251
11
-0.0909994
21
-0.165251
0
LINE
8
BLACK
6
CONTINUOUS
10
-0.0909994
20
-0.165251
11
-0.082161
21
-0.175352
0
LINE
8
BLACK
6
CONTINUOUS
10
-0.082161
20
-0.175352
11
-0.0819311
21
-0.175732
0
LINE
8
BLACK
6
CONTINUOUS
10
-0.0819311
20
-0.175732
11
-0.0818261
21
-0.17582
0
LINE
8
BLACK
6
CONTINUOUS
10
-0.0818261
20
-0.17582
11
-0.0818048
21
-0.175941
0
LINE
8
BLACK
6
CONTINUOUS
10
-0.0818048
20
-0.175941
11
-0.08163
21
-0.176229
0
LINE
8
BLACK
6
CONTINUOUS
10
-0.08163
20
-0.176229
11
-0.0816135
21
-0.177025
0
LINE
8
BLACK
6
CONTINUOUS
10
-0.0816135
20
-0.177025
11
-0.0814753
21
-0.177809
0
LINE
8
BLACK
6
CONTINUOUS
10
-0.0814753
20
-0.177809
11
-0.0815931
21
-0.178013
0
LINE
8
BLACK
6
CONTINUOUS
10
-0.0815931
20
-0.178013
11
-0.0815882
21
-0.178249
0
LINE
8
BLACK
6
CONTINUOUS
10
-0.0815882
20
-0.178249
11
-0.0820872
21
-0.178869
0
LINE
8
BLACK
6
CONTINUOUS
10
-0.0820872
20
-0.178869
11
-0.0824852
21
-0.179559
0
LINE
8
BLACK
6
CONTINUOUS
10
-0.0824852
20
-0.179559
11
-0.0827065
21
-0.179639
0
LINE
8
BLACK
6
CONTINUOUS
10
-0.0827065
20
-0.179639
11
-0.0828543
21
-0.179823
0
LINE
8
BLACK
6
CONTINUOUS
10
-0.0828543
20
-0.179823
11
-0.0836354
21
-0.179977
0
LINE
8
BLACK
6
CONTINUOUS
10
-0.0836354
20
-0.179977
11
-0.0843832
21
-0.180249
0
LINE
8
BLACK
6
CONTINUOUS
10
-0.0843832
20
-0.180249
11
-0.0893105
21
-0.180249
0
LINE
8
BLACK
6
CONTINUOUS
10
-0.0893105
20
-0.180249
11
-0.092008
21
-0.181598
0
LINE
8
BLACK
6
CONTINUOUS
10
-0.092008
20
-0.181598
11
-0.0932051
21
-0.182795
0
LINE
8
BLACK
6
CONTINUOUS
10
-0.0932051
20
-0.182795
11
-0.0945538
21
-0.185493
0
LINE
8
BLACK
6
CONTINUOUS
10
-0.0945538
20
-0.185493
11
-0.0945538
21
-0.193472
0
LINE
8
BLACK
6
CONTINUOUS
10
-0.0945538
20
-0.193472
11
-0.0932051
21
-0.19617
0
LINE
8
BLACK
6
CONTINUOUS
10
-0.0932051
20
-0.19617
11
-0.092008
21
-0.197367
0
LINE
8
BLACK
6
CONTINUOUS
10
-0.092008
20
-0.197367
11
-0.0893105
21
-0.198716
0
LINE
8
BLACK
6
CONTINUOUS
10
-0.0893105
20
-0.198716
11
-0.079456
21
-0.198716
0
LINE
8
BLACK
6
CONTINUOUS
10
-0.079456
20
-0.198716
11
-0.0767585
21
-0.197367
0
LINE
8
BLACK
6
CONTINUOUS
10
-0.0767585
20
-0.197367
11
-0.0752226
21
-0.195831
0
LINE
8
BLACK
6
CONTINUOUS
10
-0.0752226
20
-0.195831
11
-0.0743825
21
-0.195243
0
LINE
8
BLACK
6
CONTINUOUS
10
-0.0743825
20
-0.195243
11
-0.0723704
21
-0.195067
0
LINE
8
BLACK
6
CONTINUOUS
10
-0.0723704
20
-0.195067
11
-0.0707159
21
-0.196225
0
LINE
8
BLACK
6
CONTINUOUS
10
-0.0707159
20
-0.196225
11
-0.0701931
21
-0.198176
0
LINE
8
BLACK
6
CONTINUOUS
10
-0.0701931
20
-0.198176
11
-0.0710467
21
-0.200007
0
LINE
8
BLACK
6
CONTINUOUS
10
-0.0710467
20
-0.200007
11
-0.0729215
21
-0.201882
0
LINE
8
BLACK
6
CONTINUOUS
10
-0.0729215
20
-0.201882
11
-0.0736446
21
-0.202388
0
LINE
8
BLACK
6
CONTINUOUS
10
-0.0736446
20
-0.202388
11
-0.0736889
21
-0.202435
0
LINE
8
BLACK
6
CONTINUOUS
10
-0.0736889
20
-0.202435
11
-0.0774384
21
-0.20431
0
LINE
8
BLACK
6
CONTINUOUS
10
-0.0774384
20
-0.20431
11
-0.0784214
21
-0.204602
0
LINE
8
BLACK
6
CONTINUOUS
10
-0.0784214
20
-0.204602
11
-0.078593
21
-0.204561
0
LINE
8
BLACK
6
CONTINUOUS
10
-0.078593
20
-0.204561
11
-0.0787589
21
-0.204621
0
LINE
8
BLACK
6
CONTINUOUS
10
-0.0787589
20
-0.204621
11
-0.0900075
21
-0.204621
0
LINE
8
BLACK
6
CONTINUOUS
10
-0.0900075
20
-0.204621
11
-0.0910174
21
-0.204443
0
LINE
8
BLACK
6
CONTINUOUS
10
-0.0910174
20
-0.204443
11
-0.0911527
21
-0.20433
0
LINE
8
BLACK
6
CONTINUOUS
10
-0.0911527
20
-0.20433
11
-0.091328
21
-0.20431
0
LINE
8
BLACK
6
CONTINUOUS
10
-0.091328
20
-0.20431
11
-0.0950776
21
-0.202435
0
LINE
8
BLACK
6
CONTINUOUS
10
-0.0950776
20
-0.202435
11
-0.0957866
21
-0.201909
0
LINE
8
BLACK
6
CONTINUOUS
10
-0.0957866
20
-0.201909
11
-0.095845
21
-0.201882
0
LINE
8
BLACK
6
CONTINUOUS
10
-0.095845
20
-0.201882
11
-0.0977197
21
-0.200007
0
LINE
8
BLACK
6
CONTINUOUS
10
-0.0977197
20
-0.200007
11
-0.098226
21
-0.199284
0
LINE
8
BLACK
6
CONTINUOUS
10
-0.098226
20
-0.199284
11
-0.0982728
21
-0.199239
0
LINE
8
BLACK
6
CONTINUOUS
10
-0.0982728
20
-0.199239
11
-0.100148
21
-0.19549
0
LINE
8
BLACK
6
CONTINUOUS
10
-0.100148
20
-0.19549
11
-0.10044
21
-0.194507
0
LINE
8
BLACK
6
CONTINUOUS
10
-0.10044
20
-0.194507
11
-0.100399
21
-0.194335
0
LINE
8
BLACK
6
CONTINUOUS
10
-0.100399
20
-0.194335
11
-0.100459
21
-0.194169
0
LINE
8
BLACK
6
CONTINUOUS
10
-0.100459
20
-0.194169
11
-0.100459
21
-0.184796
0
LINE
8
BLACK
6
CONTINUOUS
10
-0.100459
20
-0.184796
11
-0.100281
21
-0.183786
0
LINE
8
BLACK
6
CONTINUOUS
10
-0.100281
20
-0.183786
11
-0.100168
21
-0.18365
0
LINE
8
BLACK
6
CONTINUOUS
10
-0.100168
20
-0.18365
11
-0.100148
21
-0.183475
0
LINE
8
BLACK
6
CONTINUOUS
10
-0.100148
20
-0.183475
11
-0.0982728
21
-0.179726
0
LINE
8
BLACK
6
CONTINUOUS
10
-0.0982728
20
-0.179726
11
-0.0977469
21
-0.179017
0
LINE
8
BLACK
6
CONTINUOUS
10
-0.0977469
20
-0.179017
11
-0.0977197
21
-0.178958
0
LINE
8
BLACK
6
CONTINUOUS
10
-0.0977197
20
-0.178958
11
-0.095845
21
-0.177083
0
LINE
8
BLACK
6
CONTINUOUS
10
-0.095845
20
-0.177083
11
-0.0951219
21
-0.176577
0
LINE
8
BLACK
6
CONTINUOUS
10
-0.0951219
20
-0.176577
11
-0.0950776
21
-0.17653
0
LINE
8
BLACK
6
CONTINUOUS
10
-0.0950776
20
-0.17653
11
-0.091328
21
-0.174656
0
LINE
8
BLACK
6
CONTINUOUS
10
-0.091328
20
-0.174656
11
-0.0907643
21
-0.174488
0
LINE
8
BLACK
6
CONTINUOUS
10
-0.0907643
20
-0.174488
11
-0.0997287
21
-0.164243
0
LINE
8
BLACK
6
CONTINUOUS
10
-0.0997287
20
-0.164243
11
-0.0999587
21
-0.163863
0
LINE
8
BLACK
6
CONTINUOUS
10
-0.0999587
20
-0.163863
11
-0.100064
21
-0.163775
0
LINE
8
BLACK
6
CONTINUOUS
10
-0.100064
20
-0.163775
11
-0.100085
21
-0.163654
0
LINE
8
BLACK
6
CONTINUOUS
10
-0.100085
20
-0.163654
11
-0.10026
21
-0.163366
0
LINE
8
BLACK
6
CONTINUOUS
10
-0.10026
20
-0.163366
11
-0.100276
21
-0.16257
0
LINE
8
BLACK
6
CONTINUOUS
10
-0.100276
20
-0.16257
11
-0.100414
21
-0.161786
0
LINE
8
BLACK
6
CONTINUOUS
10
-0.100414
20
-0.161786
11
-0.100297
21
-0.161582
0
LINE
8
BLACK
6
CONTINUOUS
10
-0.100297
20
-0.161582
11
-0.100302
21
-0.161346
0
LINE
8
BLACK
6
CONTINUOUS
10
-0.100302
20
-0.161346
11
-0.0998026
21
-0.160726
0
LINE
8
BLACK
6
CONTINUOUS
10
-0.0998026
20
-0.160726
11
-0.0994046
21
-0.160036
0
LINE
8
BLACK
6
CONTINUOUS
10
-0.0994046
20
-0.160036
11
-0.0991832
21
-0.159956
0
LINE
8
BLACK
6
CONTINUOUS
10
-0.0991832
20
-0.159956
11
-0.0990356
21
-0.159772
0
LINE
8
BLACK
6
CONTINUOUS
10
-0.0990356
20
-0.159772
11
-0.0982546
21
-0.159618
0
LINE
8
BLACK
6
CONTINUOUS
10
-0.0982546
20
-0.159618
11
-0.0975066
21
-0.159346
0
LINE
8
BLACK
6
CONTINUOUS
10
-0.0975066
20
-0.159346
11
-0.0731346
21
-0.159346
0
LINE
8
BLACK
6
CONTINUOUS
10
-0.0731346
20
-0.159346
11
-0.0721247
21
-0.159524
0
LINE
8
BLACK
6
CONTINUOUS
10
-0.000883622
20
-0.159524
11
0.000663622
21
-0.160822
0
LINE
8
BLACK
6
CONTINUOUS
10
0.000663622
20
-0.160822
11
0.00101437
21
-0.162811
0
LINE
8
BLACK
6
CONTINUOUS
10
0.00101437
20
-0.162811
11
4.44882e-06
21
-0.16456
0
LINE
8
BLACK
6
CONTINUOUS
10
4.44882e-06
20
-0.16456
11
-0.00189354
21
-0.165251
0
LINE
8
BLACK
6
CONTINUOUS
10
-0.00189354
20
-0.165251
11
-0.0101894
21
-0.165251
0
LINE
8
BLACK
6
CONTINUOUS
10
-0.0101894
20
-0.165251
11
-0.0101894
21
-0.201669
0
LINE
8
BLACK
6
CONTINUOUS
10
-0.0101894
20
-0.201669
11
-0.0103674
21
-0.202678
0
LINE
8
BLACK
6
CONTINUOUS
10
-0.0103674
20
-0.202678
11
-0.0116657
21
-0.204226
0
LINE
8
BLACK
6
CONTINUOUS
10
-0.0116657
20
-0.204226
11
-0.0136549
21
-0.204576
0
LINE
8
BLACK
6
CONTINUOUS
10
-0.0136549
20
-0.204576
11
-0.0154041
21
-0.203566
0
LINE
8
BLACK
6
CONTINUOUS
10
-0.0154041
20
-0.203566
11
-0.0160949
21
-0.201669
0
LINE
8
BLACK
6
CONTINUOUS
10
-0.0160949
20
-0.201669
11
-0.0160949
21
-0.165251
0
LINE
8
BLACK
6
CONTINUOUS
10
-0.0160949
20
-0.165251
11
-0.0243907
21
-0.165251
0
LINE
8
BLACK
6
CONTINUOUS
10
-0.0243907
20
-0.165251
11
-0.0254006
21
-0.165073
0
LINE
8
BLACK
6
CONTINUOUS
10
-0.0254006
20
-0.165073
11
-0.0269479
21
-0.163775
0
LINE
8
BLACK
6
CONTINUOUS
10
-0.0269479
20
-0.163775
11
-0.0272986
21
-0.161786
0
LINE
8
BLACK
6
CONTINUOUS
10
-0.0272986
20
-0.161786
11
-0.0262887
21
-0.160036
0
LINE
8
BLACK
6
CONTINUOUS
10
-0.0262887
20
-0.160036
11
-0.0243907
21
-0.159346
0
LINE
8
BLACK
6
CONTINUOUS
10
-0.0243907
20
-0.159346
11
-0.00189354
21
-0.159346
0
LINE
8
BLACK
6
CONTINUOUS
10
-0.00189354
20
-0.159346
11
-0.000883622
21
-0.159524
0
LINE
8
BLACK
6
CONTINUOUS
10
-0.0371306
20
-0.159413
11
-0.0370013
21
-0.159391
0
LINE
8
BLACK
6
CONTINUOUS
10
-0.0370013
20
-0.159391
11
-0.0368877
21
-0.159456
0
LINE
8
BLACK
6
CONTINUOUS
10
-0.0368877
20
-0.159456
11
-0.0365042
21
-0.159524
0
LINE
8
BLACK
6
CONTINUOUS
10
-0.0365042
20
-0.159524
11
-0.0359165
21
-0.160017
0
LINE
8
BLACK
6
CONTINUOUS
10
-0.0359165
20
-0.160017
11
-0.0352522
21
-0.1604
0
LINE
8
BLACK
6
CONTINUOUS
10
-0.0352522
20
-0.1604
11
-0.0351611
21
-0.160651
0
LINE
8
BLACK
6
CONTINUOUS
10
-0.0351611
20
-0.160651
11
-0.0349569
21
-0.160822
0
LINE
8
BLACK
6
CONTINUOUS
10
-0.0349569
20
-0.160822
11
-0.0348237
21
-0.161578
0
LINE
8
BLACK
6
CONTINUOUS
10
-0.0348237
20
-0.161578
11
-0.0345613
21
-0.162298
0
LINE
8
BLACK
6
CONTINUOUS
10
-0.0345613
20
-0.162298
11
-0.0345613
21
-0.201669
0
LINE
8
BLACK
6
CONTINUOUS
10
-0.0345613
20
-0.201669
11
-0.0347394
21
-0.202678
0
LINE
8
BLACK
6
CONTINUOUS
10
-0.0347394
20
-0.202678
11
-0.0360377
21
-0.204226
0
LINE
8
BLACK
6
CONTINUOUS
10
-0.0360377
20
-0.204226
11
-0.0380269
21
-0.204576
0
LINE
8
BLACK
6
CONTINUOUS
10
-0.0380269
20
-0.204576
11
-0.039776
21
-0.203566
0
LINE
8
BLACK
6
CONTINUOUS
10
-0.039776
20
-0.203566
11
-0.0404669
21
-0.201669
0
LINE
8
BLACK
6
CONTINUOUS
10
-0.0404669
20
-0.201669
11
-0.0404669
21
-0.185874
0
LINE
8
BLACK
6
CONTINUOUS
10
-0.0404669
20
-0.185874
11
-0.0525122
21
-0.185874
0
LINE
8
BLACK
6
CONTINUOUS
10
-0.0525122
20
-0.185874
11
-0.0535221
21
-0.185696
0
LINE
8
BLACK
6
CONTINUOUS
10
-0.0535221
20
-0.185696
11
-0.0536574
21
-0.185582
0
LINE
8
BLACK
6
CONTINUOUS
10
-0.0536574
20
-0.185582
11
-0.0538327
21
-0.185562
0
LINE
8
BLACK
6
CONTINUOUS
10
-0.0538327
20
-0.185562
11
-0.0575822
21
-0.183687
0
LINE
8
BLACK
6
CONTINUOUS
10
-0.0575822
20
-0.183687
11
-0.0582913
21
-0.183161
0
LINE
8
BLACK
6
CONTINUOUS
10
-0.0582913
20
-0.183161
11
-0.0583496
21
-0.183134
0
LINE
8
BLACK
6
CONTINUOUS
10
-0.0583496
20
-0.183134
11
-0.0602244
21
-0.181259
0
LINE
8
BLACK
6
CONTINUOUS
10
-0.0602244
20
-0.181259
11
-0.0607307
21
-0.180536
0
LINE
8
BLACK
6
CONTINUOUS
10
-0.0607307
20
-0.180536
11
-0.0607775
21
-0.180492
0
LINE
8
BLACK
6
CONTINUOUS
10
-0.0607775
20
-0.180492
11
-0.0626523
21
-0.176742
0
LINE
8
BLACK
6
CONTINUOUS
10
-0.0626523
20
-0.176742
11
-0.0629446
21
-0.175759
0
LINE
8
BLACK
6
CONTINUOUS
10
-0.0629446
20
-0.175759
11
-0.0629036
21
-0.175588
0
LINE
8
BLACK
6
CONTINUOUS
10
-0.0629036
20
-0.175588
11
-0.062964
21
-0.175422
0
LINE
8
BLACK
6
CONTINUOUS
10
-0.062964
20
-0.175422
11
-0.062964
21
-0.169798
0
LINE
8
BLACK
6
CONTINUOUS
10
-0.062964
20
-0.169798
11
-0.0627859
21
-0.168788
0
LINE
8
BLACK
6
CONTINUOUS
10
-0.0627859
20
-0.168788
11
-0.0626725
21
-0.168652
0
LINE
8
BLACK
6
CONTINUOUS
10
-0.0626725
20
-0.168652
11
-0.0626523
21
-0.168477
0
LINE
8
BLACK
6
CONTINUOUS
10
-0.0626523
20
-0.168477
11
-0.0607775
21
-0.164727
0
LINE
8
BLACK
6
CONTINUOUS
10
-0.0607775
20
-0.164727
11
-0.0602516
21
-0.164018
0
LINE
8
BLACK
6
CONTINUOUS
10
-0.0602516
20
-0.164018
11
-0.0602244
21
-0.16396
0
LINE
8
BLACK
6
CONTINUOUS
10
-0.0602244
20
-0.16396
11
-0.0583496
21
-0.162085
0
LINE
8
BLACK
6
CONTINUOUS
10
-0.0583496
20
-0.162085
11
-0.0576267
21
-0.161579
0
LINE
8
BLACK
6
CONTINUOUS
10
-0.0576267
20
-0.161579
11
-0.0575823
21
-0.161532
0
LINE
8
BLACK
6
CONTINUOUS
10
-0.0575823
20
-0.161532
11
-0.0538327
21
-0.159657
0
LINE
8
BLACK
6
CONTINUOUS
10
-0.0538327
20
-0.159657
11
-0.0528498
21
-0.159365
0
LINE
8
BLACK
6
CONTINUOUS
10
-0.0528498
20
-0.159365
11
-0.0526781
21
-0.159406
0
LINE
8
BLACK
6
CONTINUOUS
10
-0.0526781
20
-0.159406
11
-0.0525122
21
-0.159346
0
LINE
8
BLACK
6
CONTINUOUS
10
-0.0525122
20
-0.159346
11
-0.0375141
21
-0.159346
0
LINE
8
BLACK
6
CONTINUOUS
10
-0.0375141
20
-0.159346
11
-0.0371306
21
-0.159413
0
LINE
8
BLACK
6
CONTINUOUS
10
-0.0518151
20
-0.165251
11
-0.0545127
21
-0.1666
0
LINE
8
BLACK
6
CONTINUOUS
10
-0.0545127
20
-0.1666
11
-0.0557098
21
-0.167797
0
LINE
8
BLACK
6
CONTINUOUS
10
-0.0557098
20
-0.167797
11
-0.0570585
21
-0.170495
0
LINE
8
BLACK
6
CONTINUOUS
10
-0.0570585
20
-0.170495
11
-0.0570585
21
-0.174725
0
LINE
8
BLACK
6
CONTINUOUS
10
-0.0570585
20
-0.174725
11
-0.0557098
21
-0.177422
0
LINE
8
BLACK
6
CONTINUOUS
10
-0.0557098
20
-0.177422
11
-0.0545126
21
-0.178619
0
LINE
8
BLACK
6
CONTINUOUS
10
-0.0545126
20
-0.178619
11
-0.0518152
21
-0.179968
0
LINE
8
BLACK
6
CONTINUOUS
10
-0.0518152
20
-0.179968
11
-0.0404669
21
-0.179968
0
LINE
8
BLACK
6
CONTINUOUS
10
-0.0404669
20
-0.179968
11
-0.0404669
21
-0.165251
0
LINE
8
BLACK
6
CONTINUOUS
10
-0.0404669
20
-0.165251
11
-0.0518151
21
-0.165251
  0
ENDSEC
  0
EOF
