  0
SECTION
  2
HEADER
  9
$ANGBASE
  50
0.0
  9
$ANGDIR
  70
1
  9
$MEASUREMENT
  70
0
  0
ENDSEC
  0
SECTION
  2
TABLES
  0
TABLE
  2
LTYPE
  70
4
  0
LTYPE
  5
40F
  2
CONTINUOUS
  70
0
  3
Solid line
  72
65
  73
0
  40
0.0
  0
LTYPE
  5
410
  2
DASHDOT
 70
0
  3
Dash Dot ____ _ ____ _
 72
65
 73
4
 40
2.0
 49
1.25
 49
-0.25
 49
0.25
 49
-0.25
  0
LTYPE
  5
411
  2
DASHED
 70
0
  3
Dashed __ __ __ __ __
 72
65
 73
2
 40
0.75
 49
0.5
 49
-0.25
  0
LTYPE
  5
43B
  2
DOTTED
 70
0
  3
Dotted .  .  .  .
 72
65
 73
2
 40
0.2
 49
0.0
 49
-0.2
  0
ENDTAB
  0
TABLE
  2
STYLE
  70
4
  0
STYLE
  2
KICAD
  70
0
  40
0
  41
1
  42
1
  50
0
  71
0
  3
isocp.shx
  0
STYLE
  2
KICADB
  70
0
  40
0
  41
1
  42
1
  50
0
  71
0
  3
isocp.shx
  0
STYLE
  2
KICADI
  70
0
  40
0
  41
1
  42
1
  50
15
  71
0
  3
isocp.shx
  0
STYLE
  2
KICADBI
  70
0
  40
0
  41
1
  42
1
  50
15
  71
0
  3
isocp.shx
  0
ENDTAB
  0
TABLE
  2
LAYER
  70
1
  0
LAYER
  2
BLACK
  70
0
  62
7
  6
CONTINUOUS
  0
ENDTAB
  0
ENDSEC
  0
SECTION
  2
ENTITIES
0
LINE
8
BLACK
6
CONTINUOUS
10
0.161407
20
-0.393572
11
0.161536
21
-0.393549
0
LINE
8
BLACK
6
CONTINUOUS
10
0.161536
20
-0.393549
11
0.16165
21
-0.393614
0
LINE
8
BLACK
6
CONTINUOUS
10
0.16165
20
-0.393614
11
0.162034
21
-0.393682
0
LINE
8
BLACK
6
CONTINUOUS
10
0.162034
20
-0.393682
11
0.162621
21
-0.394175
0
LINE
8
BLACK
6
CONTINUOUS
10
0.162621
20
-0.394175
11
0.163286
21
-0.394559
0
LINE
8
BLACK
6
CONTINUOUS
10
0.163286
20
-0.394559
11
0.163377
21
-0.394809
0
LINE
8
BLACK
6
CONTINUOUS
10
0.163377
20
-0.394809
11
0.163581
21
-0.39498
0
LINE
8
BLACK
6
CONTINUOUS
10
0.163581
20
-0.39498
11
0.163714
21
-0.395736
0
LINE
8
BLACK
6
CONTINUOUS
10
0.163714
20
-0.395736
11
0.163976
21
-0.396457
0
LINE
8
BLACK
6
CONTINUOUS
10
0.163976
20
-0.396457
11
0.163976
21
-0.561811
0
LINE
8
BLACK
6
CONTINUOUS
10
0.163976
20
-0.561811
11
0.163909
21
-0.562195
0
LINE
8
BLACK
6
CONTINUOUS
10
0.163909
20
-0.562195
11
0.163932
21
-0.562324
0
LINE
8
BLACK
6
CONTINUOUS
10
0.163932
20
-0.562324
11
0.163866
21
-0.562437
0
LINE
8
BLACK
6
CONTINUOUS
10
0.163866
20
-0.562437
11
0.163798
21
-0.562821
0
LINE
8
BLACK
6
CONTINUOUS
10
0.163798
20
-0.562821
11
0.163305
21
-0.563409
0
LINE
8
BLACK
6
CONTINUOUS
10
0.163305
20
-0.563409
11
0.162922
21
-0.564073
0
LINE
8
BLACK
6
CONTINUOUS
10
0.162922
20
-0.564073
11
0.162671
21
-0.564164
0
LINE
8
BLACK
6
CONTINUOUS
10
0.162671
20
-0.564164
11
0.1625
21
-0.564368
0
LINE
8
BLACK
6
CONTINUOUS
10
0.1625
20
-0.564368
11
0.161744
21
-0.564501
0
LINE
8
BLACK
6
CONTINUOUS
10
0.161744
20
-0.564501
11
0.161024
21
-0.564764
0
LINE
8
BLACK
6
CONTINUOUS
10
0.161024
20
-0.564764
11
0.0665354
21
-0.564764
0
LINE
8
BLACK
6
CONTINUOUS
10
0.0665354
20
-0.564764
11
0.0661519
21
-0.564696
0
LINE
8
BLACK
6
CONTINUOUS
10
0.0661519
20
-0.564696
11
0.0660227
21
-0.564719
0
LINE
8
BLACK
6
CONTINUOUS
10
0.0660227
20
-0.564719
11
0.0659091
21
-0.564653
0
LINE
8
BLACK
6
CONTINUOUS
10
0.0659091
20
-0.564653
11
0.0655255
21
-0.564586
0
LINE
8
BLACK
6
CONTINUOUS
10
0.0655255
20
-0.564586
11
0.0649378
21
-0.564093
0
LINE
8
BLACK
6
CONTINUOUS
10
0.0649378
20
-0.564093
11
0.0642735
21
-0.563709
0
LINE
8
BLACK
6
CONTINUOUS
10
0.0642735
20
-0.563709
11
0.0641824
21
-0.563459
0
LINE
8
BLACK
6
CONTINUOUS
10
0.0641824
20
-0.563459
11
0.0639783
21
-0.563287
0
LINE
8
BLACK
6
CONTINUOUS
10
0.0639783
20
-0.563287
11
0.063845
21
-0.562532
0
LINE
8
BLACK
6
CONTINUOUS
10
0.063845
20
-0.562532
11
0.0635827
21
-0.561811
0
LINE
8
BLACK
6
CONTINUOUS
10
0.0635827
20
-0.561811
11
0.0635827
21
-0.396457
0
LINE
8
BLACK
6
CONTINUOUS
10
0.0635827
20
-0.396457
11
0.0636503
21
-0.396073
0
LINE
8
BLACK
6
CONTINUOUS
10
0.0636503
20
-0.396073
11
0.0636275
21
-0.395944
0
LINE
8
BLACK
6
CONTINUOUS
10
0.0636275
20
-0.395944
11
0.0636931
21
-0.39583
0
LINE
8
BLACK
6
CONTINUOUS
10
0.0636931
20
-0.39583
11
0.0637607
21
-0.395447
0
LINE
8
BLACK
6
CONTINUOUS
10
0.0637607
20
-0.395447
11
0.0642539
21
-0.394859
0
LINE
8
BLACK
6
CONTINUOUS
10
0.0642539
20
-0.394859
11
0.0646374
21
-0.394195
0
LINE
8
BLACK
6
CONTINUOUS
10
0.0646374
20
-0.394195
11
0.0648878
21
-0.394104
0
LINE
8
BLACK
6
CONTINUOUS
10
0.0648878
20
-0.394104
11
0.0650591
21
-0.3939
0
LINE
8
BLACK
6
CONTINUOUS
10
0.0650591
20
-0.3939
11
0.0658146
21
-0.393766
0
LINE
8
BLACK
6
CONTINUOUS
10
0.0658146
20
-0.393766
11
0.0665354
21
-0.393504
0
LINE
8
BLACK
6
CONTINUOUS
10
0.0665354
20
-0.393504
11
0.161024
21
-0.393504
0
LINE
8
BLACK
6
CONTINUOUS
10
0.161024
20
-0.393504
11
0.161407
21
-0.393572
0
LINE
8
BLACK
6
CONTINUOUS
10
0.0694882
20
-0.399409
11
0.0694882
21
-0.558858
0
LINE
8
BLACK
6
CONTINUOUS
10
0.0694882
20
-0.558858
11
0.158071
21
-0.558858
0
LINE
8
BLACK
6
CONTINUOUS
10
0.158071
20
-0.558858
11
0.158071
21
-0.399409
0
LINE
8
BLACK
6
CONTINUOUS
10
0.158071
20
-0.399409
11
0.0694882
21
-0.399409
0
LINE
8
BLACK
6
CONTINUOUS
10
0.0450622
20
-0.471675
11
0.0460239
21
-0.473451
0
LINE
8
BLACK
6
CONTINUOUS
10
0.0460239
20
-0.473451
11
0.045619
21
-0.47543
0
LINE
8
BLACK
6
CONTINUOUS
10
0.045619
20
-0.47543
11
0.0440369
21
-0.476686
0
LINE
8
BLACK
6
CONTINUOUS
10
0.0440369
20
-0.476686
11
0.0348072
21
-0.479762
0
LINE
8
BLACK
6
CONTINUOUS
10
0.0348072
20
-0.479762
11
0.0348072
21
-0.494253
0
LINE
8
BLACK
6
CONTINUOUS
10
0.0348072
20
-0.494253
11
0.0440369
21
-0.49733
0
LINE
8
BLACK
6
CONTINUOUS
10
0.0440369
20
-0.49733
11
0.0449386
21
-0.497818
0
LINE
8
BLACK
6
CONTINUOUS
10
0.0449386
20
-0.497818
11
0.0459959
21
-0.499539
0
LINE
8
BLACK
6
CONTINUOUS
10
0.0459959
20
-0.499539
11
0.0456996
21
-0.501537
0
LINE
8
BLACK
6
CONTINUOUS
10
0.0456996
20
-0.501537
11
0.0441884
21
-0.502877
0
LINE
8
BLACK
6
CONTINUOUS
10
0.0441884
20
-0.502877
11
0.0421694
21
-0.502932
0
LINE
8
BLACK
6
CONTINUOUS
10
0.0421694
20
-0.502932
11
0.00279929
21
-0.489809
0
LINE
8
BLACK
6
CONTINUOUS
10
0.00279929
20
-0.489809
11
0.00189752
21
-0.489321
0
LINE
8
BLACK
6
CONTINUOUS
10
0.00189752
20
-0.489321
11
0.00185299
21
-0.489248
0
LINE
8
BLACK
6
CONTINUOUS
10
0.00185299
20
-0.489248
11
0.00177398
21
-0.489217
0
LINE
8
BLACK
6
CONTINUOUS
10
0.00177398
20
-0.489217
11
0.00132913
21
-0.488396
0
LINE
8
BLACK
6
CONTINUOUS
10
0.00132913
20
-0.488396
11
0.000840236
21
-0.4876
0
LINE
8
BLACK
6
CONTINUOUS
10
0.000840236
20
-0.4876
11
0.000852677
21
-0.487516
0
LINE
8
BLACK
6
CONTINUOUS
10
0.000852677
20
-0.487516
11
0.000812205
21
-0.487441
0
LINE
8
BLACK
6
CONTINUOUS
10
0.000812205
20
-0.487441
11
0.000999449
21
-0.486526
0
LINE
8
BLACK
6
CONTINUOUS
10
0.000999449
20
-0.486526
11
0.0011365
21
-0.485602
0
LINE
8
BLACK
6
CONTINUOUS
10
0.0011365
20
-0.485602
11
0.00120012
21
-0.485545
0
LINE
8
BLACK
6
CONTINUOUS
10
0.00120012
20
-0.485545
11
0.00121717
21
-0.485462
0
LINE
8
BLACK
6
CONTINUOUS
10
0.00121717
20
-0.485462
11
0.00194843
21
-0.484882
0
LINE
8
BLACK
6
CONTINUOUS
10
0.00194843
20
-0.484882
11
0.00264772
21
-0.484262
0
LINE
8
BLACK
6
CONTINUOUS
10
0.00264772
20
-0.484262
11
0.00273268
21
-0.484259
0
LINE
8
BLACK
6
CONTINUOUS
10
0.00273268
20
-0.484259
11
0.00279929
21
-0.484207
0
LINE
8
BLACK
6
CONTINUOUS
10
0.00279929
20
-0.484207
11
0.0421694
21
-0.471083
0
LINE
8
BLACK
6
CONTINUOUS
10
0.0421694
20
-0.471083
11
0.0431837
21
-0.470933
0
LINE
8
BLACK
6
CONTINUOUS
10
0.0431837
20
-0.470933
11
0.0450622
21
-0.471675
0
LINE
8
BLACK
6
CONTINUOUS
10
0.0130704
20
-0.487008
11
0.0289017
21
-0.492285
0
LINE
8
BLACK
6
CONTINUOUS
10
0.0289017
20
-0.492285
11
0.0289017
21
-0.481731
0
LINE
8
BLACK
6
CONTINUOUS
10
0.0289017
20
-0.481731
11
0.0130704
21
-0.487008
0
LINE
8
BLACK
6
CONTINUOUS
10
-0.0821531
20
-0.342507
11
-0.0818509
21
-0.342701
0
LINE
8
BLACK
6
CONTINUOUS
10
-0.0818509
20
-0.342701
11
-0.0814952
21
-0.342753
0
LINE
8
BLACK
6
CONTINUOUS
10
-0.0814952
20
-0.342753
11
-0.0807028
21
-0.343439
0
LINE
8
BLACK
6
CONTINUOUS
10
-0.0807028
20
-0.343439
11
-0.0798204
21
-0.344006
0
LINE
8
BLACK
6
CONTINUOUS
10
-0.0798204
20
-0.344006
11
-0.0796711
21
-0.344333
0
LINE
8
BLACK
6
CONTINUOUS
10
-0.0796711
20
-0.344333
11
-0.0793996
21
-0.344568
0
LINE
8
BLACK
6
CONTINUOUS
10
-0.0793996
20
-0.344568
11
-0.0791041
21
-0.345575
0
LINE
8
BLACK
6
CONTINUOUS
10
-0.0791041
20
-0.345575
11
-0.0786684
21
-0.346529
0
LINE
8
BLACK
6
CONTINUOUS
10
-0.0786684
20
-0.346529
11
-0.0787196
21
-0.346884
0
LINE
8
BLACK
6
CONTINUOUS
10
-0.0787196
20
-0.346884
11
-0.0786183
21
-0.347229
0
LINE
8
BLACK
6
CONTINUOUS
10
-0.0786183
20
-0.347229
11
-0.0786183
21
-0.386599
0
LINE
8
BLACK
6
CONTINUOUS
10
-0.0786183
20
-0.386599
11
-0.0788177
21
-0.387986
0
LINE
8
BLACK
6
CONTINUOUS
10
-0.0788177
20
-0.387986
11
-0.079012
21
-0.388288
0
LINE
8
BLACK
6
CONTINUOUS
10
-0.079012
20
-0.388288
11
-0.0790631
21
-0.388644
0
LINE
8
BLACK
6
CONTINUOUS
10
-0.0790631
20
-0.388644
11
-0.0797498
21
-0.389436
0
LINE
8
BLACK
6
CONTINUOUS
10
-0.0797498
20
-0.389436
11
-0.0803169
21
-0.390318
0
LINE
8
BLACK
6
CONTINUOUS
10
-0.0803169
20
-0.390318
11
-0.0806437
21
-0.390468
0
LINE
8
BLACK
6
CONTINUOUS
10
-0.0806437
20
-0.390468
11
-0.080879
21
-0.390739
0
LINE
8
BLACK
6
CONTINUOUS
10
-0.080879
20
-0.390739
11
-0.0818852
21
-0.391035
0
LINE
8
BLACK
6
CONTINUOUS
10
-0.0818852
20
-0.391035
11
-0.0828393
21
-0.39147
0
LINE
8
BLACK
6
CONTINUOUS
10
-0.0828393
20
-0.39147
11
-0.0831949
21
-0.391419
0
LINE
8
BLACK
6
CONTINUOUS
10
-0.0831949
20
-0.391419
11
-0.0835396
21
-0.39152
0
LINE
8
BLACK
6
CONTINUOUS
10
-0.0835396
20
-0.39152
11
-0.0929134
21
-0.39152
0
LINE
8
BLACK
6
CONTINUOUS
10
-0.0929134
20
-0.39152
11
-0.0942999
21
-0.391321
0
LINE
8
BLACK
6
CONTINUOUS
10
-0.0942999
20
-0.391321
11
-0.0943776
21
-0.391271
0
LINE
8
BLACK
6
CONTINUOUS
10
-0.0943776
20
-0.391271
11
-0.0944697
21
-0.391268
0
LINE
8
BLACK
6
CONTINUOUS
10
-0.0944697
20
-0.391268
11
-0.100094
21
-0.389393
0
LINE
8
BLACK
6
CONTINUOUS
10
-0.100094
20
-0.389393
11
-0.101346
21
-0.388766
0
LINE
8
BLACK
6
CONTINUOUS
10
-0.101346
20
-0.388766
11
-0.101626
21
-0.388418
0
LINE
8
BLACK
6
CONTINUOUS
10
-0.101626
20
-0.388418
11
-0.102018
21
-0.388204
0
LINE
8
BLACK
6
CONTINUOUS
10
-0.102018
20
-0.388204
11
-0.105767
21
-0.384455
0
LINE
8
BLACK
6
CONTINUOUS
10
-0.105767
20
-0.384455
11
-0.106607
21
-0.383333
0
LINE
8
BLACK
6
CONTINUOUS
10
-0.106607
20
-0.383333
11
-0.106626
21
-0.383243
0
LINE
8
BLACK
6
CONTINUOUS
10
-0.106626
20
-0.383243
11
-0.106689
21
-0.383176
0
LINE
8
BLACK
6
CONTINUOUS
10
-0.106689
20
-0.383176
11
-0.108564
21
-0.379426
0
LINE
8
BLACK
6
CONTINUOUS
10
-0.108564
20
-0.379426
11
-0.108849
21
-0.378568
0
LINE
8
BLACK
6
CONTINUOUS
10
-0.108849
20
-0.378568
11
-0.108936
21
-0.378419
0
LINE
8
BLACK
6
CONTINUOUS
10
-0.108936
20
-0.378419
11
-0.110811
21
-0.37092
0
LINE
8
BLACK
6
CONTINUOUS
10
-0.110811
20
-0.37092
11
-0.11092
21
-0.369855
0
LINE
8
BLACK
6
CONTINUOUS
10
-0.11092
20
-0.369855
11
-0.110958
21
-0.369726
0
LINE
8
BLACK
6
CONTINUOUS
10
-0.110958
20
-0.369726
11
-0.110958
21
-0.364102
0
LINE
8
BLACK
6
CONTINUOUS
10
-0.110958
20
-0.364102
11
-0.110806
21
-0.363042
0
LINE
8
BLACK
6
CONTINUOUS
10
-0.110806
20
-0.363042
11
-0.110811
21
-0.362908
0
LINE
8
BLACK
6
CONTINUOUS
10
-0.110811
20
-0.362908
11
-0.108936
21
-0.355409
0
LINE
8
BLACK
6
CONTINUOUS
10
-0.108936
20
-0.355409
11
-0.108594
21
-0.354572
0
LINE
8
BLACK
6
CONTINUOUS
10
-0.108594
20
-0.354572
11
-0.108564
21
-0.354402
0
LINE
8
BLACK
6
CONTINUOUS
10
-0.108564
20
-0.354402
11
-0.106689
21
-0.350653
0
LINE
8
BLACK
6
CONTINUOUS
10
-0.106689
20
-0.350653
11
-0.105891
21
-0.349502
0
LINE
8
BLACK
6
CONTINUOUS
10
-0.105891
20
-0.349502
11
-0.105811
21
-0.349454
0
LINE
8
BLACK
6
CONTINUOUS
10
-0.105811
20
-0.349454
11
-0.105767
21
-0.349374
0
LINE
8
BLACK
6
CONTINUOUS
10
-0.105767
20
-0.349374
11
-0.102018
21
-0.345624
0
LINE
8
BLACK
6
CONTINUOUS
10
-0.102018
20
-0.345624
11
-0.100896
21
-0.344785
0
LINE
8
BLACK
6
CONTINUOUS
10
-0.100896
20
-0.344785
11
-0.10046
21
-0.34469
0
LINE
8
BLACK
6
CONTINUOUS
10
-0.10046
20
-0.34469
11
-0.100094
21
-0.344435
0
LINE
8
BLACK
6
CONTINUOUS
10
-0.100094
20
-0.344435
11
-0.0944697
21
-0.34256
0
LINE
8
BLACK
6
CONTINUOUS
10
-0.0944697
20
-0.34256
11
-0.0930913
21
-0.342311
0
LINE
8
BLACK
6
CONTINUOUS
10
-0.0930913
20
-0.342311
11
-0.0930019
21
-0.342334
0
LINE
8
BLACK
6
CONTINUOUS
10
-0.0930019
20
-0.342334
11
-0.0929134
21
-0.342308
0
LINE
8
BLACK
6
CONTINUOUS
10
-0.0929134
20
-0.342308
11
-0.0835396
21
-0.342308
0
LINE
8
BLACK
6
CONTINUOUS
10
-0.0835396
20
-0.342308
11
-0.0821531
21
-0.342507
0
LINE
8
BLACK
6
CONTINUOUS
10
-0.0958794
20
-0.353405
11
-0.0982427
21
-0.355768
0
LINE
8
BLACK
6
CONTINUOUS
10
-0.0982427
20
-0.355768
11
-0.0995187
21
-0.358321
0
LINE
8
BLACK
6
CONTINUOUS
10
-0.0995187
20
-0.358321
11
-0.101116
21
-0.364708
0
LINE
8
BLACK
6
CONTINUOUS
10
-0.101116
20
-0.364708
11
-0.101116
21
-0.36912
0
LINE
8
BLACK
6
CONTINUOUS
10
-0.101116
20
-0.36912
11
-0.0995187
21
-0.375508
0
LINE
8
BLACK
6
CONTINUOUS
10
-0.0995187
20
-0.375508
11
-0.0982427
21
-0.37806
0
LINE
8
BLACK
6
CONTINUOUS
10
-0.0982427
20
-0.37806
11
-0.0958793
21
-0.380423
0
LINE
8
BLACK
6
CONTINUOUS
10
-0.0958793
20
-0.380423
11
-0.0921148
21
-0.381678
0
LINE
8
BLACK
6
CONTINUOUS
10
-0.0921148
20
-0.381678
11
-0.0884609
21
-0.381678
0
LINE
8
BLACK
6
CONTINUOUS
10
-0.0884609
20
-0.381678
11
-0.0884609
21
-0.35215
0
LINE
8
BLACK
6
CONTINUOUS
10
-0.0884609
20
-0.35215
11
-0.0921148
21
-0.35215
0
LINE
8
BLACK
6
CONTINUOUS
10
-0.0921148
20
-0.35215
11
-0.0958794
21
-0.353405
0
LINE
8
BLACK
6
CONTINUOUS
10
-0.0127868
20
-0.342507
11
-0.0127091
21
-0.342557
0
LINE
8
BLACK
6
CONTINUOUS
10
-0.0127091
20
-0.342557
11
-0.012617
21
-0.34256
0
LINE
8
BLACK
6
CONTINUOUS
10
-0.012617
20
-0.34256
11
-0.00699276
21
-0.344435
0
LINE
8
BLACK
6
CONTINUOUS
10
-0.00699276
20
-0.344435
11
-0.00574043
21
-0.345063
0
LINE
8
BLACK
6
CONTINUOUS
10
-0.00574043
20
-0.345063
11
-0.00546063
21
-0.34541
0
LINE
8
BLACK
6
CONTINUOUS
10
-0.00546063
20
-0.34541
11
-0.00506913
21
-0.345624
0
LINE
8
BLACK
6
CONTINUOUS
10
-0.00506913
20
-0.345624
11
-0.00131961
21
-0.349374
0
LINE
8
BLACK
6
CONTINUOUS
10
-0.00131961
20
-0.349374
11
-0.000480118
21
-0.350495
0
LINE
8
BLACK
6
CONTINUOUS
10
-0.000480118
20
-0.350495
11
-0.000460512
21
-0.350585
0
LINE
8
BLACK
6
CONTINUOUS
10
-0.000460512
20
-0.350585
11
-0.000397756
21
-0.350653
0
LINE
8
BLACK
6
CONTINUOUS
10
-0.000397756
20
-0.350653
11
0.00147701
21
-0.354402
0
LINE
8
BLACK
6
CONTINUOUS
10
0.00147701
20
-0.354402
11
0.00176228
21
-0.35526
0
LINE
8
BLACK
6
CONTINUOUS
10
0.00176228
20
-0.35526
11
0.00184965
21
-0.355409
0
LINE
8
BLACK
6
CONTINUOUS
10
0.00184965
20
-0.355409
11
0.00372441
21
-0.362908
0
LINE
8
BLACK
6
CONTINUOUS
10
0.00372441
20
-0.362908
11
0.00383358
21
-0.363974
0
LINE
8
BLACK
6
CONTINUOUS
10
0.00383358
20
-0.363974
11
0.00387134
21
-0.364102
0
LINE
8
BLACK
6
CONTINUOUS
10
0.00387134
20
-0.364102
11
0.00387134
21
-0.369726
0
LINE
8
BLACK
6
CONTINUOUS
10
0.00387134
20
-0.369726
11
0.00371894
21
-0.370786
0
LINE
8
BLACK
6
CONTINUOUS
10
0.00371894
20
-0.370786
11
0.00372441
21
-0.37092
0
LINE
8
BLACK
6
CONTINUOUS
10
0.00372441
20
-0.37092
11
0.00184965
21
-0.378419
0
LINE
8
BLACK
6
CONTINUOUS
10
0.00184965
20
-0.378419
11
0.00150752
21
-0.379256
0
LINE
8
BLACK
6
CONTINUOUS
10
0.00150752
20
-0.379256
11
0.00147701
21
-0.379426
0
LINE
8
BLACK
6
CONTINUOUS
10
0.00147701
20
-0.379426
11
-0.000397756
21
-0.383176
0
LINE
8
BLACK
6
CONTINUOUS
10
-0.000397756
20
-0.383176
11
-0.0011961
21
-0.384327
0
LINE
8
BLACK
6
CONTINUOUS
10
-0.0011961
20
-0.384327
11
-0.00127539
21
-0.384374
0
LINE
8
BLACK
6
CONTINUOUS
10
-0.00127539
20
-0.384374
11
-0.00131957
21
-0.384455
0
LINE
8
BLACK
6
CONTINUOUS
10
-0.00131957
20
-0.384455
11
-0.00506909
21
-0.388204
0
LINE
8
BLACK
6
CONTINUOUS
10
-0.00506909
20
-0.388204
11
-0.00619043
21
-0.389044
0
LINE
8
BLACK
6
CONTINUOUS
10
-0.00619043
20
-0.389044
11
-0.00662642
21
-0.389139
0
LINE
8
BLACK
6
CONTINUOUS
10
-0.00662642
20
-0.389139
11
-0.00699276
21
-0.389393
0
LINE
8
BLACK
6
CONTINUOUS
10
-0.00699276
20
-0.389393
11
-0.012617
21
-0.391268
0
LINE
8
BLACK
6
CONTINUOUS
10
-0.012617
20
-0.391268
11
-0.0139954
21
-0.391517
0
LINE
8
BLACK
6
CONTINUOUS
10
-0.0139954
20
-0.391517
11
-0.0140848
21
-0.391494
0
LINE
8
BLACK
6
CONTINUOUS
10
-0.0140848
20
-0.391494
11
-0.0141733
21
-0.39152
0
LINE
8
BLACK
6
CONTINUOUS
10
-0.0141733
20
-0.39152
11
-0.0179228
21
-0.39152
0
LINE
8
BLACK
6
CONTINUOUS
10
-0.0179228
20
-0.39152
11
-0.0193093
21
-0.391321
0
LINE
8
BLACK
6
CONTINUOUS
10
-0.0193093
20
-0.391321
11
-0.019387
21
-0.391271
0
LINE
8
BLACK
6
CONTINUOUS
10
-0.019387
20
-0.391271
11
-0.0194791
21
-0.391268
0
LINE
8
BLACK
6
CONTINUOUS
10
-0.0194791
20
-0.391268
11
-0.0251033
21
-0.389393
0
LINE
8
BLACK
6
CONTINUOUS
10
-0.0251033
20
-0.389393
11
-0.0263556
21
-0.388766
0
LINE
8
BLACK
6
CONTINUOUS
10
-0.0263556
20
-0.388766
11
-0.0266355
21
-0.388418
0
LINE
8
BLACK
6
CONTINUOUS
10
-0.0266355
20
-0.388418
11
-0.027027
21
-0.388204
0
LINE
8
BLACK
6
CONTINUOUS
10
-0.027027
20
-0.388204
11
-0.0289017
21
-0.386329
0
LINE
8
BLACK
6
CONTINUOUS
10
-0.0289017
20
-0.386329
11
-0.0294284
21
-0.385626
0
LINE
8
BLACK
6
CONTINUOUS
10
-0.0294284
20
-0.385626
11
-0.0295619
21
-0.38551
0
LINE
8
BLACK
6
CONTINUOUS
10
-0.0295619
20
-0.38551
11
-0.0295922
21
-0.385407
0
LINE
8
BLACK
6
CONTINUOUS
10
-0.0295922
20
-0.385407
11
-0.0297412
21
-0.385208
0
LINE
8
BLACK
6
CONTINUOUS
10
-0.0297412
20
-0.385208
11
-0.0300001
21
-0.384018
0
LINE
8
BLACK
6
CONTINUOUS
10
-0.0300001
20
-0.384018
11
-0.0303431
21
-0.38285
0
LINE
8
BLACK
6
CONTINUOUS
10
-0.0303431
20
-0.38285
11
-0.0303431
21
-0.369726
0
LINE
8
BLACK
6
CONTINUOUS
10
-0.0303431
20
-0.369726
11
-0.0301438
21
-0.36834
0
LINE
8
BLACK
6
CONTINUOUS
10
-0.0301438
20
-0.36834
11
-0.0299495
21
-0.368037
0
LINE
8
BLACK
6
CONTINUOUS
10
-0.0299495
20
-0.368037
11
-0.0298984
21
-0.367682
0
LINE
8
BLACK
6
CONTINUOUS
10
-0.0298984
20
-0.367682
11
-0.0292117
21
-0.366889
0
LINE
8
BLACK
6
CONTINUOUS
10
-0.0292117
20
-0.366889
11
-0.0286446
21
-0.366007
0
LINE
8
BLACK
6
CONTINUOUS
10
-0.0286446
20
-0.366007
11
-0.0283178
21
-0.365858
0
LINE
8
BLACK
6
CONTINUOUS
10
-0.0283178
20
-0.365858
11
-0.0280825
21
-0.365586
0
LINE
8
BLACK
6
CONTINUOUS
10
-0.0280825
20
-0.365586
11
-0.0270763
21
-0.365291
0
LINE
8
BLACK
6
CONTINUOUS
10
-0.0270763
20
-0.365291
11
-0.0261222
21
-0.364855
0
LINE
8
BLACK
6
CONTINUOUS
10
-0.0261222
20
-0.364855
11
-0.0257666
21
-0.364906
0
LINE
8
BLACK
6
CONTINUOUS
10
-0.0257666
20
-0.364906
11
-0.0254219
21
-0.364805
0
LINE
8
BLACK
6
CONTINUOUS
10
-0.0254219
20
-0.364805
11
-0.0179228
21
-0.364805
0
LINE
8
BLACK
6
CONTINUOUS
10
-0.0179228
20
-0.364805
11
-0.0165363
21
-0.365004
0
LINE
8
BLACK
6
CONTINUOUS
10
-0.0165363
20
-0.365004
11
-0.0142035
21
-0.366504
0
LINE
8
BLACK
6
CONTINUOUS
10
-0.0142035
20
-0.366504
11
-0.0130516
21
-0.369026
0
LINE
8
BLACK
6
CONTINUOUS
10
-0.0130516
20
-0.369026
11
-0.0134463
21
-0.371771
0
LINE
8
BLACK
6
CONTINUOUS
10
-0.0134463
20
-0.371771
11
-0.0152622
21
-0.373866
0
LINE
8
BLACK
6
CONTINUOUS
10
-0.0152622
20
-0.373866
11
-0.0179228
21
-0.374648
0
LINE
8
BLACK
6
CONTINUOUS
10
-0.0179228
20
-0.374648
11
-0.0205006
21
-0.374648
0
LINE
8
BLACK
6
CONTINUOUS
10
-0.0205006
20
-0.374648
11
-0.0205006
21
-0.380552
0
LINE
8
BLACK
6
CONTINUOUS
10
-0.0205006
20
-0.380552
11
-0.0171241
21
-0.381678
0
LINE
8
BLACK
6
CONTINUOUS
10
-0.0171241
20
-0.381678
11
-0.0149718
21
-0.381678
0
LINE
8
BLACK
6
CONTINUOUS
10
-0.0149718
20
-0.381678
11
-0.0112074
21
-0.380423
0
LINE
8
BLACK
6
CONTINUOUS
10
-0.0112074
20
-0.380423
11
-0.00884402
21
-0.37806
0
LINE
8
BLACK
6
CONTINUOUS
10
-0.00884402
20
-0.37806
11
-0.00756803
21
-0.375508
0
LINE
8
BLACK
6
CONTINUOUS
10
-0.00756803
20
-0.375508
11
-0.00597118
21
-0.36912
0
LINE
8
BLACK
6
CONTINUOUS
10
-0.00597118
20
-0.36912
11
-0.00597118
21
-0.364708
0
LINE
8
BLACK
6
CONTINUOUS
10
-0.00597118
20
-0.364708
11
-0.00756803
21
-0.358321
0
LINE
8
BLACK
6
CONTINUOUS
10
-0.00756803
20
-0.358321
11
-0.00884406
21
-0.355768
0
LINE
8
BLACK
6
CONTINUOUS
10
-0.00884406
20
-0.355768
11
-0.0112074
21
-0.353405
0
LINE
8
BLACK
6
CONTINUOUS
10
-0.0112074
20
-0.353405
11
-0.0149718
21
-0.35215
0
LINE
8
BLACK
6
CONTINUOUS
10
-0.0149718
20
-0.35215
11
-0.0186358
21
-0.35215
0
LINE
8
BLACK
6
CONTINUOUS
10
-0.0186358
20
-0.35215
11
-0.0213462
21
-0.353506
0
LINE
8
BLACK
6
CONTINUOUS
10
-0.0213462
20
-0.353506
11
-0.0226755
21
-0.353947
0
LINE
8
BLACK
6
CONTINUOUS
10
-0.0226755
20
-0.353947
11
-0.0254324
21
-0.35365
0
LINE
8
BLACK
6
CONTINUOUS
10
-0.0254324
20
-0.35365
11
-0.0275908
21
-0.351909
0
LINE
8
BLACK
6
CONTINUOUS
10
-0.0275908
20
-0.351909
11
-0.0284653
21
-0.349277
0
LINE
8
BLACK
6
CONTINUOUS
10
-0.0284653
20
-0.349277
11
-0.0277783
21
-0.346591
0
LINE
8
BLACK
6
CONTINUOUS
10
-0.0277783
20
-0.346591
11
-0.025748
21
-0.344702
0
LINE
8
BLACK
6
CONTINUOUS
10
-0.025748
20
-0.344702
11
-0.0219984
21
-0.342827
0
LINE
8
BLACK
6
CONTINUOUS
10
-0.0219984
20
-0.342827
11
-0.0206692
21
-0.342386
0
LINE
8
BLACK
6
CONTINUOUS
10
-0.0206692
20
-0.342386
11
-0.0202256
21
-0.342434
0
LINE
8
BLACK
6
CONTINUOUS
10
-0.0202256
20
-0.342434
11
-0.0197976
21
-0.342308
0
LINE
8
BLACK
6
CONTINUOUS
10
-0.0197976
20
-0.342308
11
-0.0141733
21
-0.342308
0
LINE
8
BLACK
6
CONTINUOUS
10
-0.0141733
20
-0.342308
11
-0.0127868
21
-0.342507
0
LINE
8
BLACK
6
CONTINUOUS
10
-0.0417446
20
-0.342538
11
-0.0404861
21
-0.342652
0
LINE
8
BLACK
6
CONTINUOUS
10
-0.0404861
20
-0.342652
11
-0.0403815
21
-0.342734
0
LINE
8
BLACK
6
CONTINUOUS
10
-0.0403815
20
-0.342734
11
-0.0402504
21
-0.342753
0
LINE
8
BLACK
6
CONTINUOUS
10
-0.0402504
20
-0.342753
11
-0.0392956
21
-0.34358
0
LINE
8
BLACK
6
CONTINUOUS
10
-0.0392956
20
-0.34358
11
-0.0382988
21
-0.344357
0
LINE
8
BLACK
6
CONTINUOUS
10
-0.0382988
20
-0.344357
11
-0.0382549
21
-0.344482
0
LINE
8
BLACK
6
CONTINUOUS
10
-0.0382549
20
-0.344482
11
-0.0381547
21
-0.344568
0
LINE
8
BLACK
6
CONTINUOUS
10
-0.0381547
20
-0.344568
11
-0.0377988
21
-0.345781
0
LINE
8
BLACK
6
CONTINUOUS
10
-0.0377988
20
-0.345781
11
-0.0373802
21
-0.346973
0
LINE
8
BLACK
6
CONTINUOUS
10
-0.0373802
20
-0.346973
11
-0.0374109
21
-0.347102
0
LINE
8
BLACK
6
CONTINUOUS
10
-0.0374109
20
-0.347102
11
-0.0373735
21
-0.347229
0
LINE
8
BLACK
6
CONTINUOUS
10
-0.0373735
20
-0.347229
11
-0.0373735
21
-0.386599
0
LINE
8
BLACK
6
CONTINUOUS
10
-0.0373735
20
-0.386599
11
-0.0375728
21
-0.387986
0
LINE
8
BLACK
6
CONTINUOUS
10
-0.0375728
20
-0.387986
11
-0.039072
21
-0.390318
0
LINE
8
BLACK
6
CONTINUOUS
10
-0.039072
20
-0.390318
11
-0.0415944
21
-0.39147
0
LINE
8
BLACK
6
CONTINUOUS
10
-0.0415944
20
-0.39147
11
-0.0443391
21
-0.391076
0
LINE
8
BLACK
6
CONTINUOUS
10
-0.0443391
20
-0.391076
11
-0.0464348
21
-0.38926
0
LINE
8
BLACK
6
CONTINUOUS
10
-0.0464348
20
-0.38926
11
-0.047216
21
-0.386599
0
LINE
8
BLACK
6
CONTINUOUS
10
-0.047216
20
-0.386599
11
-0.047216
21
-0.36576
0
LINE
8
BLACK
6
CONTINUOUS
10
-0.047216
20
-0.36576
11
-0.0605191
21
-0.389041
0
LINE
8
BLACK
6
CONTINUOUS
10
-0.0605191
20
-0.389041
11
-0.06138
21
-0.390146
0
LINE
8
BLACK
6
CONTINUOUS
10
-0.06138
20
-0.390146
11
-0.0614976
21
-0.390207
0
LINE
8
BLACK
6
CONTINUOUS
10
-0.0614976
20
-0.390207
11
-0.0615692
21
-0.390318
0
LINE
8
BLACK
6
CONTINUOUS
10
-0.0615692
20
-0.390318
11
-0.0627185
21
-0.390843
0
LINE
8
BLACK
6
CONTINUOUS
10
-0.0627185
20
-0.390843
11
-0.0638391
21
-0.391427
0
LINE
8
BLACK
6
CONTINUOUS
10
-0.0638391
20
-0.391427
11
-0.0639711
21
-0.391415
0
LINE
8
BLACK
6
CONTINUOUS
10
-0.0639711
20
-0.391415
11
-0.0640916
21
-0.39147
0
LINE
8
BLACK
6
CONTINUOUS
10
-0.0640916
20
-0.39147
11
-0.0653422
21
-0.391291
0
LINE
8
BLACK
6
CONTINUOUS
10
-0.0653422
20
-0.391291
11
-0.0666006
21
-0.391176
0
LINE
8
BLACK
6
CONTINUOUS
10
-0.0666006
20
-0.391176
11
-0.0667052
21
-0.391095
0
LINE
8
BLACK
6
CONTINUOUS
10
-0.0667052
20
-0.391095
11
-0.0668363
21
-0.391076
0
LINE
8
BLACK
6
CONTINUOUS
10
-0.0668363
20
-0.391076
11
-0.0677911
21
-0.390248
0
LINE
8
BLACK
6
CONTINUOUS
10
-0.0677911
20
-0.390248
11
-0.0687879
21
-0.389472
0
LINE
8
BLACK
6
CONTINUOUS
10
-0.0687879
20
-0.389472
11
-0.0688318
21
-0.389347
0
LINE
8
BLACK
6
CONTINUOUS
10
-0.0688318
20
-0.389347
11
-0.068932
21
-0.38926
0
LINE
8
BLACK
6
CONTINUOUS
10
-0.068932
20
-0.38926
11
-0.069288
21
-0.388047
0
LINE
8
BLACK
6
CONTINUOUS
10
-0.069288
20
-0.388047
11
-0.0697065
21
-0.386855
0
LINE
8
BLACK
6
CONTINUOUS
10
-0.0697065
20
-0.386855
11
-0.0696759
21
-0.386726
0
LINE
8
BLACK
6
CONTINUOUS
10
-0.0696759
20
-0.386726
11
-0.0697132
21
-0.386599
0
LINE
8
BLACK
6
CONTINUOUS
10
-0.0697132
20
-0.386599
11
-0.0697132
21
-0.347229
0
LINE
8
BLACK
6
CONTINUOUS
10
-0.0697132
20
-0.347229
11
-0.0695139
21
-0.345843
0
LINE
8
BLACK
6
CONTINUOUS
10
-0.0695139
20
-0.345843
11
-0.0680147
21
-0.34351
0
LINE
8
BLACK
6
CONTINUOUS
10
-0.0680147
20
-0.34351
11
-0.0654923
21
-0.342358
0
LINE
8
BLACK
6
CONTINUOUS
10
-0.0654923
20
-0.342358
11
-0.0627476
21
-0.342753
0
LINE
8
BLACK
6
CONTINUOUS
10
-0.0627476
20
-0.342753
11
-0.0606519
21
-0.344568
0
LINE
8
BLACK
6
CONTINUOUS
10
-0.0606519
20
-0.344568
11
-0.0598707
21
-0.347229
0
LINE
8
BLACK
6
CONTINUOUS
10
-0.0598707
20
-0.347229
11
-0.0598707
21
-0.368068
0
LINE
8
BLACK
6
CONTINUOUS
10
-0.0598707
20
-0.368068
11
-0.0465676
21
-0.344787
0
LINE
8
BLACK
6
CONTINUOUS
10
-0.0465676
20
-0.344787
11
-0.0457067
21
-0.343683
0
LINE
8
BLACK
6
CONTINUOUS
10
-0.0457067
20
-0.343683
11
-0.0455892
21
-0.343621
0
LINE
8
BLACK
6
CONTINUOUS
10
-0.0455892
20
-0.343621
11
-0.0455175
21
-0.34351
0
LINE
8
BLACK
6
CONTINUOUS
10
-0.0455175
20
-0.34351
11
-0.0443682
21
-0.342985
0
LINE
8
BLACK
6
CONTINUOUS
10
-0.0443682
20
-0.342985
11
-0.0432476
21
-0.342401
0
LINE
8
BLACK
6
CONTINUOUS
10
-0.0432476
20
-0.342401
11
-0.0431157
21
-0.342413
0
LINE
8
BLACK
6
CONTINUOUS
10
-0.0431157
20
-0.342413
11
-0.0429951
21
-0.342358
0
LINE
8
BLACK
6
CONTINUOUS
10
-0.0429951
20
-0.342358
11
-0.0417446
21
-0.342538
0
LINE
8
BLACK
6
CONTINUOUS
10
-0.0429607
20
-0.213746
11
-0.0346085
21
-0.215984
0
LINE
8
BLACK
6
CONTINUOUS
10
-0.0346085
20
-0.215984
11
-0.0267717
21
-0.219638
0
LINE
8
BLACK
6
CONTINUOUS
10
-0.0267717
20
-0.219638
11
-0.0196885
21
-0.224598
0
LINE
8
BLACK
6
CONTINUOUS
10
-0.0196885
20
-0.224598
11
-0.0135742
21
-0.230712
0
LINE
8
BLACK
6
CONTINUOUS
10
-0.0135742
20
-0.230712
11
-0.00861449
21
-0.237795
0
LINE
8
BLACK
6
CONTINUOUS
10
-0.00861449
20
-0.237795
11
-0.00496012
21
-0.245632
0
LINE
8
BLACK
6
CONTINUOUS
10
-0.00496012
20
-0.245632
11
-0.00272213
21
-0.253984
0
LINE
8
BLACK
6
CONTINUOUS
10
-0.00272213
20
-0.253984
11
-0.0019685
21
-0.262598
0
LINE
8
BLACK
6
CONTINUOUS
10
-0.0019685
20
-0.262598
11
-0.00272213
21
-0.271212
0
LINE
8
BLACK
6
CONTINUOUS
10
-0.00272213
20
-0.271212
11
-0.00496012
21
-0.279565
0
LINE
8
BLACK
6
CONTINUOUS
10
-0.00496012
20
-0.279565
11
-0.00861449
21
-0.287402
0
LINE
8
BLACK
6
CONTINUOUS
10
-0.00861449
20
-0.287402
11
-0.0135742
21
-0.294485
0
LINE
8
BLACK
6
CONTINUOUS
10
-0.0135742
20
-0.294485
11
-0.0196885
21
-0.300599
0
LINE
8
BLACK
6
CONTINUOUS
10
-0.0196885
20
-0.300599
11
-0.0267717
21
-0.305559
0
LINE
8
BLACK
6
CONTINUOUS
10
-0.0267717
20
-0.305559
11
-0.0346085
21
-0.309213
0
LINE
8
BLACK
6
CONTINUOUS
10
-0.0346085
20
-0.309213
11
-0.0429607
21
-0.311451
0
LINE
8
BLACK
6
CONTINUOUS
10
-0.0429607
20
-0.311451
11
-0.0515748
21
-0.312205
0
LINE
8
BLACK
6
CONTINUOUS
10
-0.0515748
20
-0.312205
11
-0.0601889
21
-0.311451
0
LINE
8
BLACK
6
CONTINUOUS
10
-0.0601889
20
-0.311451
11
-0.0685411
21
-0.309213
0
LINE
8
BLACK
6
CONTINUOUS
10
-0.0685411
20
-0.309213
11
-0.076378
21
-0.305559
0
LINE
8
BLACK
6
CONTINUOUS
10
-0.076378
20
-0.305559
11
-0.0834611
21
-0.300599
0
LINE
8
BLACK
6
CONTINUOUS
10
-0.0834611
20
-0.300599
11
-0.0895754
21
-0.294485
0
LINE
8
BLACK
6
CONTINUOUS
10
-0.0895754
20
-0.294485
11
-0.0945351
21
-0.287402
0
LINE
8
BLACK
6
CONTINUOUS
10
-0.0945351
20
-0.287402
11
-0.0981895
21
-0.279565
0
LINE
8
BLACK
6
CONTINUOUS
10
-0.0981895
20
-0.279565
11
-0.100427
21
-0.271212
0
LINE
8
BLACK
6
CONTINUOUS
10
-0.100427
20
-0.271212
11
-0.101181
21
-0.262598
0
LINE
8
BLACK
6
CONTINUOUS
10
-0.101181
20
-0.262598
11
-0.100427
21
-0.253984
0
LINE
8
BLACK
6
CONTINUOUS
10
-0.100427
20
-0.253984
11
-0.0981895
21
-0.245632
0
LINE
8
BLACK
6
CONTINUOUS
10
-0.0981895
20
-0.245632
11
-0.0945351
21
-0.237795
0
LINE
8
BLACK
6
CONTINUOUS
10
-0.0945351
20
-0.237795
11
-0.0895754
21
-0.230712
0
LINE
8
BLACK
6
CONTINUOUS
10
-0.0895754
20
-0.230712
11
-0.0834611
21
-0.224598
0
LINE
8
BLACK
6
CONTINUOUS
10
-0.0834611
20
-0.224598
11
-0.076378
21
-0.219638
0
LINE
8
BLACK
6
CONTINUOUS
10
-0.076378
20
-0.219638
11
-0.0685411
21
-0.215984
0
LINE
8
BLACK
6
CONTINUOUS
10
-0.0685411
20
-0.215984
11
-0.0601889
21
-0.213746
0
LINE
8
BLACK
6
CONTINUOUS
10
-0.0601889
20
-0.213746
11
-0.0515748
21
-0.212992
0
LINE
8
BLACK
6
CONTINUOUS
10
-0.0515748
20
-0.212992
11
-0.0429607
21
-0.213746
0
LINE
8
BLACK
6
CONTINUOUS
10
-0.0958815
20
-0.270881
11
-0.0936052
21
-0.278881
0
LINE
8
BLACK
6
CONTINUOUS
10
-0.0936052
20
-0.278881
11
-0.0898976
21
-0.286327
0
LINE
8
BLACK
6
CONTINUOUS
10
-0.0898976
20
-0.286327
11
-0.084885
21
-0.292965
0
LINE
8
BLACK
6
CONTINUOUS
10
-0.084885
20
-0.292965
11
-0.0787381
21
-0.298568
0
LINE
8
BLACK
6
CONTINUOUS
10
-0.0787381
20
-0.298568
11
-0.0716661
21
-0.302947
0
LINE
8
BLACK
6
CONTINUOUS
10
-0.0716661
20
-0.302947
11
-0.0639099
21
-0.305952
0
LINE
8
BLACK
6
CONTINUOUS
10
-0.0639099
20
-0.305952
11
-0.0557337
21
-0.30748
0
LINE
8
BLACK
6
CONTINUOUS
10
-0.0557337
20
-0.30748
11
-0.0474159
21
-0.30748
0
LINE
8
BLACK
6
CONTINUOUS
10
-0.0474159
20
-0.30748
11
-0.0392397
21
-0.305952
0
LINE
8
BLACK
6
CONTINUOUS
10
-0.0392397
20
-0.305952
11
-0.0314835
21
-0.302947
0
LINE
8
BLACK
6
CONTINUOUS
10
-0.0314835
20
-0.302947
11
-0.0244115
21
-0.298568
0
LINE
8
BLACK
6
CONTINUOUS
10
-0.0244115
20
-0.298568
11
-0.0182646
21
-0.292965
0
LINE
8
BLACK
6
CONTINUOUS
10
-0.0182646
20
-0.292965
11
-0.013252
21
-0.286327
0
LINE
8
BLACK
6
CONTINUOUS
10
-0.013252
20
-0.286327
11
-0.00954437
21
-0.278881
0
LINE
8
BLACK
6
CONTINUOUS
10
-0.00954437
20
-0.278881
11
-0.00726811
21
-0.270881
0
LINE
8
BLACK
6
CONTINUOUS
10
-0.00726811
20
-0.270881
11
-0.00650063
21
-0.262598
0
LINE
8
BLACK
6
CONTINUOUS
10
-0.00650063
20
-0.262598
11
-0.00726811
21
-0.254316
0
LINE
8
BLACK
6
CONTINUOUS
10
-0.00726811
20
-0.254316
11
-0.00954437
21
-0.246316
0
LINE
8
BLACK
6
CONTINUOUS
10
-0.00954437
20
-0.246316
11
-0.013252
21
-0.23887
0
LINE
8
BLACK
6
CONTINUOUS
10
-0.013252
20
-0.23887
11
-0.0182646
21
-0.232232
0
LINE
8
BLACK
6
CONTINUOUS
10
-0.0182646
20
-0.232232
11
-0.0244115
21
-0.226628
0
LINE
8
BLACK
6
CONTINUOUS
10
-0.0244115
20
-0.226628
11
-0.0314835
21
-0.22225
0
LINE
8
BLACK
6
CONTINUOUS
10
-0.0314835
20
-0.22225
11
-0.0392397
21
-0.219245
0
LINE
8
BLACK
6
CONTINUOUS
10
-0.0392397
20
-0.219245
11
-0.0474159
21
-0.217717
0
LINE
8
BLACK
6
CONTINUOUS
10
-0.0474159
20
-0.217717
11
-0.0557337
21
-0.217717
0
LINE
8
BLACK
6
CONTINUOUS
10
-0.0557337
20
-0.217717
11
-0.0639099
21
-0.219245
0
LINE
8
BLACK
6
CONTINUOUS
10
-0.0639099
20
-0.219245
11
-0.0716661
21
-0.22225
0
LINE
8
BLACK
6
CONTINUOUS
10
-0.0716661
20
-0.22225
11
-0.0787381
21
-0.226628
0
LINE
8
BLACK
6
CONTINUOUS
10
-0.0787381
20
-0.226628
11
-0.084885
21
-0.232232
0
LINE
8
BLACK
6
CONTINUOUS
10
-0.084885
20
-0.232232
11
-0.0898976
21
-0.23887
0
LINE
8
BLACK
6
CONTINUOUS
10
-0.0898976
20
-0.23887
11
-0.0936052
21
-0.246316
0
LINE
8
BLACK
6
CONTINUOUS
10
-0.0936052
20
-0.246316
11
-0.0958815
21
-0.254316
0
LINE
8
BLACK
6
CONTINUOUS
10
-0.0958815
20
-0.254316
11
-0.096649
21
-0.262598
0
LINE
8
BLACK
6
CONTINUOUS
10
-0.096649
20
-0.262598
11
-0.0958815
21
-0.270881
0
LINE
8
BLACK
6
CONTINUOUS
10
0.757948
20
0.102371
11
0.759278
21
0.102099
0
LINE
8
BLACK
6
CONTINUOUS
10
0.759278
20
0.102099
11
0.765652
21
0.0989118
0
LINE
8
BLACK
6
CONTINUOUS
10
0.765652
20
0.0989118
11
0.766363
21
0.0982809
0
LINE
8
BLACK
6
CONTINUOUS
10
0.766363
20
0.0982809
11
0.767187
21
0.0978055
0
LINE
8
BLACK
6
CONTINUOUS
10
0.767187
20
0.0978055
11
0.770374
21
0.0946184
0
LINE
8
BLACK
6
CONTINUOUS
10
0.770374
20
0.0946184
11
0.771902
21
0.091971
0
LINE
8
BLACK
6
CONTINUOUS
10
0.771902
20
0.091971
11
0.771902
21
0.0889141
0
LINE
8
BLACK
6
CONTINUOUS
10
0.771902
20
0.0889141
11
0.770374
21
0.0862667
0
LINE
8
BLACK
6
CONTINUOUS
10
0.770374
20
0.0862667
11
0.767726
21
0.0847383
0
LINE
8
BLACK
6
CONTINUOUS
10
0.767726
20
0.0847383
11
0.764669
21
0.0847383
0
LINE
8
BLACK
6
CONTINUOUS
10
0.764669
20
0.0847383
11
0.762022
21
0.0862668
0
LINE
8
BLACK
6
CONTINUOUS
10
0.762022
20
0.0862668
11
0.759513
21
0.0887763
0
LINE
8
BLACK
6
CONTINUOUS
10
0.759513
20
0.0887763
11
0.755243
21
0.0909113
0
LINE
8
BLACK
6
CONTINUOUS
10
0.755243
20
0.0909113
11
0.742095
21
0.0909113
0
LINE
8
BLACK
6
CONTINUOUS
10
0.742095
20
0.0909113
11
0.737825
21
0.0887763
0
LINE
8
BLACK
6
CONTINUOUS
10
0.737825
20
0.0887763
11
0.735993
21
0.0869444
0
LINE
8
BLACK
6
CONTINUOUS
10
0.735993
20
0.0869444
11
0.733858
21
0.0826743
0
LINE
8
BLACK
6
CONTINUOUS
10
0.733858
20
0.0826743
11
0.733858
21
0.0786526
0
LINE
8
BLACK
6
CONTINUOUS
10
0.733858
20
0.0786526
11
0.736301
21
0.071323
0
LINE
8
BLACK
6
CONTINUOUS
10
0.736301
20
0.071323
11
0.773561
21
0.0340635
0
LINE
8
BLACK
6
CONTINUOUS
10
0.773561
20
0.0340635
11
0.77395
21
0.0333902
0
LINE
8
BLACK
6
CONTINUOUS
10
0.77395
20
0.0333902
11
0.774499
21
0.0328404
0
LINE
8
BLACK
6
CONTINUOUS
10
0.774499
20
0.0328404
11
0.774701
21
0.0320895
0
LINE
8
BLACK
6
CONTINUOUS
10
0.774701
20
0.0320895
11
0.775089
21
0.0314161
0
LINE
8
BLACK
6
CONTINUOUS
10
0.775089
20
0.0314161
11
0.775089
21
0.0306387
0
LINE
8
BLACK
6
CONTINUOUS
10
0.775089
20
0.0306387
11
0.775291
21
0.0298877
0
LINE
8
BLACK
6
CONTINUOUS
10
0.775291
20
0.0298877
11
0.775089
21
0.0291367
0
LINE
8
BLACK
6
CONTINUOUS
10
0.775089
20
0.0291367
11
0.775089
21
0.0283592
0
LINE
8
BLACK
6
CONTINUOUS
10
0.775089
20
0.0283592
11
0.774701
21
0.0276859
0
LINE
8
BLACK
6
CONTINUOUS
10
0.774701
20
0.0276859
11
0.774499
21
0.0269349
0
LINE
8
BLACK
6
CONTINUOUS
10
0.774499
20
0.0269349
11
0.77395
21
0.0263852
0
LINE
8
BLACK
6
CONTINUOUS
10
0.77395
20
0.0263852
11
0.773561
21
0.0257119
0
LINE
8
BLACK
6
CONTINUOUS
10
0.773561
20
0.0257119
11
0.772888
21
0.0253231
0
LINE
8
BLACK
6
CONTINUOUS
10
0.772888
20
0.0253231
11
0.772338
21
0.0247733
0
LINE
8
BLACK
6
CONTINUOUS
10
0.772338
20
0.0247733
11
0.771587
21
0.0245721
0
LINE
8
BLACK
6
CONTINUOUS
10
0.771587
20
0.0245721
11
0.770914
21
0.0241834
0
LINE
8
BLACK
6
CONTINUOUS
10
0.770914
20
0.0241834
11
0.770136
21
0.0241834
0
LINE
8
BLACK
6
CONTINUOUS
10
0.770136
20
0.0241834
11
0.769385
21
0.0239822
0
LINE
8
BLACK
6
CONTINUOUS
10
0.769385
20
0.0239822
11
0.727953
21
0.0239822
0
LINE
8
BLACK
6
CONTINUOUS
10
0.727953
20
0.0239822
11
0.725
21
0.0247733
0
LINE
8
BLACK
6
CONTINUOUS
10
0.725
20
0.0247733
11
0.722838
21
0.0269349
0
LINE
8
BLACK
6
CONTINUOUS
10
0.722838
20
0.0269349
11
0.722047
21
0.0298877
0
LINE
8
BLACK
6
CONTINUOUS
10
0.722047
20
0.0298877
11
0.722838
21
0.0328404
0
LINE
8
BLACK
6
CONTINUOUS
10
0.722838
20
0.0328404
11
0.725
21
0.035002
0
LINE
8
BLACK
6
CONTINUOUS
10
0.725
20
0.035002
11
0.727953
21
0.0357932
0
LINE
8
BLACK
6
CONTINUOUS
10
0.727953
20
0.0357932
11
0.755128
21
0.0357932
0
LINE
8
BLACK
6
CONTINUOUS
10
0.755128
20
0.0357932
11
0.726964
21
0.0639571
0
LINE
8
BLACK
6
CONTINUOUS
10
0.726964
20
0.0639571
11
0.726285
21
0.0651327
0
LINE
8
BLACK
6
CONTINUOUS
10
0.726285
20
0.0651327
11
0.725537
21
0.0662654
0
LINE
8
BLACK
6
CONTINUOUS
10
0.725537
20
0.0662654
11
0.72235
21
0.0758267
0
LINE
8
BLACK
6
CONTINUOUS
10
0.72235
20
0.0758267
11
0.722293
21
0.0767758
0
LINE
8
BLACK
6
CONTINUOUS
10
0.722293
20
0.0767758
11
0.722047
21
0.0776942
0
LINE
8
BLACK
6
CONTINUOUS
10
0.722047
20
0.0776942
11
0.722047
21
0.0840684
0
LINE
8
BLACK
6
CONTINUOUS
10
0.722047
20
0.0840684
11
0.722399
21
0.0853794
0
LINE
8
BLACK
6
CONTINUOUS
10
0.722399
20
0.0853794
11
0.722671
21
0.0867095
0
LINE
8
BLACK
6
CONTINUOUS
10
0.722671
20
0.0867095
11
0.725858
21
0.0930837
0
LINE
8
BLACK
6
CONTINUOUS
10
0.725858
20
0.0930837
11
0.726489
21
0.0937951
0
LINE
8
BLACK
6
CONTINUOUS
10
0.726489
20
0.0937951
11
0.726964
21
0.0946184
0
LINE
8
BLACK
6
CONTINUOUS
10
0.726964
20
0.0946184
11
0.730151
21
0.0978055
0
LINE
8
BLACK
6
CONTINUOUS
10
0.730151
20
0.0978055
11
0.730975
21
0.0982809
0
LINE
8
BLACK
6
CONTINUOUS
10
0.730975
20
0.0982809
11
0.731686
21
0.0989118
0
LINE
8
BLACK
6
CONTINUOUS
10
0.731686
20
0.0989118
11
0.73806
21
0.102099
0
LINE
8
BLACK
6
CONTINUOUS
10
0.73806
20
0.102099
11
0.73939
21
0.102371
0
LINE
8
BLACK
6
CONTINUOUS
10
0.73939
20
0.102371
11
0.740701
21
0.102722
0
LINE
8
BLACK
6
CONTINUOUS
10
0.740701
20
0.102722
11
0.756637
21
0.102722
0
LINE
8
BLACK
6
CONTINUOUS
10
0.756637
20
0.102722
11
0.757948
21
0.102371
0
LINE
8
BLACK
6
CONTINUOUS
10
0.815316
20
0.102371
11
0.816646
21
0.102099
0
LINE
8
BLACK
6
CONTINUOUS
10
0.816646
20
0.102099
11
0.82302
21
0.0989118
0
LINE
8
BLACK
6
CONTINUOUS
10
0.82302
20
0.0989118
11
0.823731
21
0.0982809
0
LINE
8
BLACK
6
CONTINUOUS
10
0.823731
20
0.0982809
11
0.824555
21
0.0978055
0
LINE
8
BLACK
6
CONTINUOUS
10
0.824555
20
0.0978055
11
0.827742
21
0.0946184
0
LINE
8
BLACK
6
CONTINUOUS
10
0.827742
20
0.0946184
11
0.828217
21
0.0937951
0
LINE
8
BLACK
6
CONTINUOUS
10
0.828217
20
0.0937951
11
0.828848
21
0.0930837
0
LINE
8
BLACK
6
CONTINUOUS
10
0.828848
20
0.0930837
11
0.832035
21
0.0867094
0
LINE
8
BLACK
6
CONTINUOUS
10
0.832035
20
0.0867094
11
0.832166
21
0.0860707
0
LINE
8
BLACK
6
CONTINUOUS
10
0.832166
20
0.0860707
11
0.832482
21
0.0855007
0
LINE
8
BLACK
6
CONTINUOUS
10
0.832482
20
0.0855007
11
0.835669
21
0.0727523
0
LINE
8
BLACK
6
CONTINUOUS
10
0.835669
20
0.0727523
11
0.835657
21
0.0720237
0
LINE
8
BLACK
6
CONTINUOUS
10
0.835657
20
0.0720237
11
0.835846
21
0.07132
0
LINE
8
BLACK
6
CONTINUOUS
10
0.835846
20
0.07132
11
0.835846
21
0.0553845
0
LINE
8
BLACK
6
CONTINUOUS
10
0.835846
20
0.0553845
11
0.835657
21
0.0546807
0
LINE
8
BLACK
6
CONTINUOUS
10
0.835657
20
0.0546807
11
0.835669
21
0.0539522
0
LINE
8
BLACK
6
CONTINUOUS
10
0.835669
20
0.0539522
11
0.832482
21
0.0412038
0
LINE
8
BLACK
6
CONTINUOUS
10
0.832482
20
0.0412038
11
0.832166
21
0.0406339
0
LINE
8
BLACK
6
CONTINUOUS
10
0.832166
20
0.0406339
11
0.832035
21
0.0399951
0
LINE
8
BLACK
6
CONTINUOUS
10
0.832035
20
0.0399951
11
0.828848
21
0.0336209
0
LINE
8
BLACK
6
CONTINUOUS
10
0.828848
20
0.0336209
11
0.828217
21
0.0329095
0
LINE
8
BLACK
6
CONTINUOUS
10
0.828217
20
0.0329095
11
0.827742
21
0.0320861
0
LINE
8
BLACK
6
CONTINUOUS
10
0.827742
20
0.0320861
11
0.824555
21
0.028899
0
LINE
8
BLACK
6
CONTINUOUS
10
0.824555
20
0.028899
11
0.823731
21
0.0284236
0
LINE
8
BLACK
6
CONTINUOUS
10
0.823731
20
0.0284236
11
0.82302
21
0.0277927
0
LINE
8
BLACK
6
CONTINUOUS
10
0.82302
20
0.0277927
11
0.816646
21
0.0246056
0
LINE
8
BLACK
6
CONTINUOUS
10
0.816646
20
0.0246056
11
0.815316
21
0.0243335
0
LINE
8
BLACK
6
CONTINUOUS
10
0.815316
20
0.0243335
11
0.814005
21
0.0239822
0
LINE
8
BLACK
6
CONTINUOUS
10
0.814005
20
0.0239822
11
0.80763
21
0.0239822
0
LINE
8
BLACK
6
CONTINUOUS
10
0.80763
20
0.0239822
11
0.806319
21
0.0243335
0
LINE
8
BLACK
6
CONTINUOUS
10
0.806319
20
0.0243335
11
0.804989
21
0.0246056
0
LINE
8
BLACK
6
CONTINUOUS
10
0.804989
20
0.0246056
11
0.798615
21
0.0277927
0
LINE
8
BLACK
6
CONTINUOUS
10
0.798615
20
0.0277927
11
0.797904
21
0.0284236
0
LINE
8
BLACK
6
CONTINUOUS
10
0.797904
20
0.0284236
11
0.79708
21
0.0288989
0
LINE
8
BLACK
6
CONTINUOUS
10
0.79708
20
0.0288989
11
0.793893
21
0.0320861
0
LINE
8
BLACK
6
CONTINUOUS
10
0.793893
20
0.0320861
11
0.793418
21
0.0329095
0
LINE
8
BLACK
6
CONTINUOUS
10
0.793418
20
0.0329095
11
0.792787
21
0.0336209
0
LINE
8
BLACK
6
CONTINUOUS
10
0.792787
20
0.0336209
11
0.7896
21
0.0399951
0
LINE
8
BLACK
6
CONTINUOUS
10
0.7896
20
0.0399951
11
0.789469
21
0.0406338
0
LINE
8
BLACK
6
CONTINUOUS
10
0.789469
20
0.0406338
11
0.789153
21
0.0412038
0
LINE
8
BLACK
6
CONTINUOUS
10
0.789153
20
0.0412038
11
0.785966
21
0.0539522
0
LINE
8
BLACK
6
CONTINUOUS
10
0.785966
20
0.0539522
11
0.785978
21
0.0546807
0
LINE
8
BLACK
6
CONTINUOUS
10
0.785978
20
0.0546807
11
0.785789
21
0.0553845
0
LINE
8
BLACK
6
CONTINUOUS
10
0.785789
20
0.0553845
11
0.785789
21
0.07132
0
LINE
8
BLACK
6
CONTINUOUS
10
0.785789
20
0.07132
11
0.785978
21
0.0720238
0
LINE
8
BLACK
6
CONTINUOUS
10
0.785978
20
0.0720238
11
0.785966
21
0.0727523
0
LINE
8
BLACK
6
CONTINUOUS
10
0.785966
20
0.0727523
11
0.789153
21
0.0855007
0
LINE
8
BLACK
6
CONTINUOUS
10
0.789153
20
0.0855007
11
0.789469
21
0.0860707
0
LINE
8
BLACK
6
CONTINUOUS
10
0.789469
20
0.0860707
11
0.7896
21
0.0867094
0
LINE
8
BLACK
6
CONTINUOUS
10
0.7896
20
0.0867094
11
0.792787
21
0.0930836
0
LINE
8
BLACK
6
CONTINUOUS
10
0.792787
20
0.0930836
11
0.793418
21
0.093795
0
LINE
8
BLACK
6
CONTINUOUS
10
0.793418
20
0.093795
11
0.793893
21
0.0946184
0
LINE
8
BLACK
6
CONTINUOUS
10
0.793893
20
0.0946184
11
0.79708
21
0.0978056
0
LINE
8
BLACK
6
CONTINUOUS
10
0.79708
20
0.0978056
11
0.797904
21
0.0982809
0
LINE
8
BLACK
6
CONTINUOUS
10
0.797904
20
0.0982809
11
0.798615
21
0.0989118
0
LINE
8
BLACK
6
CONTINUOUS
10
0.798615
20
0.0989118
11
0.804989
21
0.102099
0
LINE
8
BLACK
6
CONTINUOUS
10
0.804989
20
0.102099
11
0.806319
21
0.102371
0
LINE
8
BLACK
6
CONTINUOUS
10
0.806319
20
0.102371
11
0.80763
21
0.102722
0
LINE
8
BLACK
6
CONTINUOUS
10
0.80763
20
0.102722
11
0.814005
21
0.102722
0
LINE
8
BLACK
6
CONTINUOUS
10
0.814005
20
0.102722
11
0.815316
21
0.102371
0
LINE
8
BLACK
6
CONTINUOUS
10
0.804754
20
0.0887763
11
0.802922
21
0.0869444
0
LINE
8
BLACK
6
CONTINUOUS
10
0.802922
20
0.0869444
11
0.800454
21
0.0820072
0
LINE
8
BLACK
6
CONTINUOUS
10
0.800454
20
0.0820072
11
0.7976
21
0.070593
0
LINE
8
BLACK
6
CONTINUOUS
10
0.7976
20
0.070593
11
0.7976
21
0.0561115
0
LINE
8
BLACK
6
CONTINUOUS
10
0.7976
20
0.0561115
11
0.800454
21
0.0446973
0
LINE
8
BLACK
6
CONTINUOUS
10
0.800454
20
0.0446973
11
0.802922
21
0.0397601
0
LINE
8
BLACK
6
CONTINUOUS
10
0.802922
20
0.0397601
11
0.804754
21
0.0379283
0
LINE
8
BLACK
6
CONTINUOUS
10
0.804754
20
0.0379283
11
0.809024
21
0.0357932
0
LINE
8
BLACK
6
CONTINUOUS
10
0.809024
20
0.0357932
11
0.81261
21
0.0357932
0
LINE
8
BLACK
6
CONTINUOUS
10
0.81261
20
0.0357932
11
0.816881
21
0.0379282
0
LINE
8
BLACK
6
CONTINUOUS
10
0.816881
20
0.0379282
11
0.818712
21
0.0397601
0
LINE
8
BLACK
6
CONTINUOUS
10
0.818712
20
0.0397601
11
0.821181
21
0.0446974
0
LINE
8
BLACK
6
CONTINUOUS
10
0.821181
20
0.0446974
11
0.824035
21
0.0561115
0
LINE
8
BLACK
6
CONTINUOUS
10
0.824035
20
0.0561115
11
0.824035
21
0.0705931
0
LINE
8
BLACK
6
CONTINUOUS
10
0.824035
20
0.0705931
11
0.821181
21
0.0820071
0
LINE
8
BLACK
6
CONTINUOUS
10
0.821181
20
0.0820071
11
0.818712
21
0.0869445
0
LINE
8
BLACK
6
CONTINUOUS
10
0.818712
20
0.0869445
11
0.816881
21
0.0887763
0
LINE
8
BLACK
6
CONTINUOUS
10
0.816881
20
0.0887763
11
0.81261
21
0.0909113
0
LINE
8
BLACK
6
CONTINUOUS
10
0.81261
20
0.0909113
11
0.809024
21
0.0909113
0
LINE
8
BLACK
6
CONTINUOUS
10
0.809024
20
0.0909113
11
0.804754
21
0.0887763
0
LINE
8
BLACK
6
CONTINUOUS
10
0.896635
20
0.101931
11
0.898796
21
0.0997696
0
LINE
8
BLACK
6
CONTINUOUS
10
0.898796
20
0.0997696
11
0.899588
21
0.0968168
0
LINE
8
BLACK
6
CONTINUOUS
10
0.899588
20
0.0968168
11
0.899588
21
0.0298877
0
LINE
8
BLACK
6
CONTINUOUS
10
0.899588
20
0.0298877
11
0.898796
21
0.0269349
0
LINE
8
BLACK
6
CONTINUOUS
10
0.898796
20
0.0269349
11
0.896635
21
0.0247733
0
LINE
8
BLACK
6
CONTINUOUS
10
0.896635
20
0.0247733
11
0.893682
21
0.0239822
0
LINE
8
BLACK
6
CONTINUOUS
10
0.893682
20
0.0239822
11
0.890729
21
0.0247733
0
LINE
8
BLACK
6
CONTINUOUS
10
0.890729
20
0.0247733
11
0.888568
21
0.0269349
0
LINE
8
BLACK
6
CONTINUOUS
10
0.888568
20
0.0269349
11
0.887777
21
0.0298877
0
LINE
8
BLACK
6
CONTINUOUS
10
0.887777
20
0.0298877
11
0.887777
21
0.0558532
0
LINE
8
BLACK
6
CONTINUOUS
10
0.887777
20
0.0558532
11
0.880821
21
0.0558532
0
LINE
8
BLACK
6
CONTINUOUS
10
0.880821
20
0.0558532
11
0.860275
21
0.0265011
0
LINE
8
BLACK
6
CONTINUOUS
10
0.860275
20
0.0265011
11
0.857933
21
0.0245358
0
LINE
8
BLACK
6
CONTINUOUS
10
0.857933
20
0.0245358
11
0.854923
21
0.0240046
0
LINE
8
BLACK
6
CONTINUOUS
10
0.854923
20
0.0240046
11
0.85205
21
0.0250497
0
LINE
8
BLACK
6
CONTINUOUS
10
0.85205
20
0.0250497
11
0.850085
21
0.0273911
0
LINE
8
BLACK
6
CONTINUOUS
10
0.850085
20
0.0273911
11
0.849554
21
0.0304016
0
LINE
8
BLACK
6
CONTINUOUS
10
0.849554
20
0.0304016
11
0.850599
21
0.0332743
0
LINE
8
BLACK
6
CONTINUOUS
10
0.850599
20
0.0332743
11
0.866678
21
0.0562446
0
LINE
8
BLACK
6
CONTINUOUS
10
0.866678
20
0.0562446
11
0.865544
21
0.0564767
0
LINE
8
BLACK
6
CONTINUOUS
10
0.865544
20
0.0564767
11
0.85917
21
0.0596637
0
LINE
8
BLACK
6
CONTINUOUS
10
0.85917
20
0.0596637
11
0.858459
21
0.0602946
0
LINE
8
BLACK
6
CONTINUOUS
10
0.858459
20
0.0602946
11
0.857635
21
0.06077
0
LINE
8
BLACK
6
CONTINUOUS
10
0.857635
20
0.06077
11
0.854448
21
0.0639571
0
LINE
8
BLACK
6
CONTINUOUS
10
0.854448
20
0.0639571
11
0.853973
21
0.0647805
0
LINE
8
BLACK
6
CONTINUOUS
10
0.853973
20
0.0647805
11
0.853342
21
0.0654919
0
LINE
8
BLACK
6
CONTINUOUS
10
0.853342
20
0.0654919
11
0.850155
21
0.0718661
0
LINE
8
BLACK
6
CONTINUOUS
10
0.850155
20
0.0718661
11
0.849883
21
0.073196
0
LINE
8
BLACK
6
CONTINUOUS
10
0.849883
20
0.073196
11
0.849531
21
0.0745071
0
LINE
8
BLACK
6
CONTINUOUS
10
0.849531
20
0.0745071
11
0.849531
21
0.0840684
0
LINE
8
BLACK
6
CONTINUOUS
10
0.849531
20
0.0840684
11
0.849883
21
0.0853795
0
LINE
8
BLACK
6
CONTINUOUS
10
0.849883
20
0.0853795
11
0.850155
21
0.0867094
0
LINE
8
BLACK
6
CONTINUOUS
10
0.850155
20
0.0867094
11
0.853342
21
0.0930836
0
LINE
8
BLACK
6
CONTINUOUS
10
0.853342
20
0.0930836
11
0.853973
21
0.093795
0
LINE
8
BLACK
6
CONTINUOUS
10
0.853973
20
0.093795
11
0.854448
21
0.0946184
0
LINE
8
BLACK
6
CONTINUOUS
10
0.854448
20
0.0946184
11
0.857635
21
0.0978056
0
LINE
8
BLACK
6
CONTINUOUS
10
0.857635
20
0.0978056
11
0.858459
21
0.0982809
0
LINE
8
BLACK
6
CONTINUOUS
10
0.858459
20
0.0982809
11
0.85917
21
0.0989118
0
LINE
8
BLACK
6
CONTINUOUS
10
0.85917
20
0.0989118
11
0.865544
21
0.102099
0
LINE
8
BLACK
6
CONTINUOUS
10
0.865544
20
0.102099
11
0.866874
21
0.102371
0
LINE
8
BLACK
6
CONTINUOUS
10
0.866874
20
0.102371
11
0.868185
21
0.102722
0
LINE
8
BLACK
6
CONTINUOUS
10
0.868185
20
0.102722
11
0.893682
21
0.102722
0
LINE
8
BLACK
6
CONTINUOUS
10
0.893682
20
0.102722
11
0.896635
21
0.101931
0
LINE
8
BLACK
6
CONTINUOUS
10
0.865309
20
0.0887763
11
0.863477
21
0.0869444
0
LINE
8
BLACK
6
CONTINUOUS
10
0.863477
20
0.0869444
11
0.861342
21
0.0826743
0
LINE
8
BLACK
6
CONTINUOUS
10
0.861342
20
0.0826743
11
0.861342
21
0.0759012
0
LINE
8
BLACK
6
CONTINUOUS
10
0.861342
20
0.0759012
11
0.863477
21
0.0716311
0
LINE
8
BLACK
6
CONTINUOUS
10
0.863477
20
0.0716311
11
0.865309
21
0.0697993
0
LINE
8
BLACK
6
CONTINUOUS
10
0.865309
20
0.0697993
11
0.869579
21
0.0676642
0
LINE
8
BLACK
6
CONTINUOUS
10
0.869579
20
0.0676642
11
0.887777
21
0.0676642
0
LINE
8
BLACK
6
CONTINUOUS
10
0.887777
20
0.0676642
11
0.887777
21
0.0909113
0
LINE
8
BLACK
6
CONTINUOUS
10
0.887777
20
0.0909113
11
0.869579
21
0.0909113
0
LINE
8
BLACK
6
CONTINUOUS
10
0.869579
20
0.0909113
11
0.865309
21
0.0887763
0
LINE
8
BLACK
6
CONTINUOUS
10
0.95719
20
0.101931
11
0.959351
21
0.0997696
0
LINE
8
BLACK
6
CONTINUOUS
10
0.959351
20
0.0997696
11
0.960143
21
0.0968168
0
LINE
8
BLACK
6
CONTINUOUS
10
0.960143
20
0.0968168
11
0.960143
21
0.0298877
0
LINE
8
BLACK
6
CONTINUOUS
10
0.960143
20
0.0298877
11
0.959351
21
0.0269349
0
LINE
8
BLACK
6
CONTINUOUS
10
0.959351
20
0.0269349
11
0.95719
21
0.0247733
0
LINE
8
BLACK
6
CONTINUOUS
10
0.95719
20
0.0247733
11
0.954237
21
0.0239822
0
LINE
8
BLACK
6
CONTINUOUS
10
0.954237
20
0.0239822
11
0.922366
21
0.0239822
0
LINE
8
BLACK
6
CONTINUOUS
10
0.922366
20
0.0239822
11
0.919413
21
0.0247733
0
LINE
8
BLACK
6
CONTINUOUS
10
0.919413
20
0.0247733
11
0.917252
21
0.0269349
0
LINE
8
BLACK
6
CONTINUOUS
10
0.917252
20
0.0269349
11
0.91646
21
0.0298877
0
LINE
8
BLACK
6
CONTINUOUS
10
0.91646
20
0.0298877
11
0.917252
21
0.0328404
0
LINE
8
BLACK
6
CONTINUOUS
10
0.917252
20
0.0328404
11
0.919413
21
0.035002
0
LINE
8
BLACK
6
CONTINUOUS
10
0.919413
20
0.035002
11
0.922366
21
0.0357932
0
LINE
8
BLACK
6
CONTINUOUS
10
0.922366
20
0.0357932
11
0.948331
21
0.0357932
0
LINE
8
BLACK
6
CONTINUOUS
10
0.948331
20
0.0357932
11
0.948331
21
0.0590403
0
LINE
8
BLACK
6
CONTINUOUS
10
0.948331
20
0.0590403
11
0.931927
21
0.0590403
0
LINE
8
BLACK
6
CONTINUOUS
10
0.931927
20
0.0590403
11
0.928975
21
0.0598315
0
LINE
8
BLACK
6
CONTINUOUS
10
0.928975
20
0.0598315
11
0.926813
21
0.061993
0
LINE
8
BLACK
6
CONTINUOUS
10
0.926813
20
0.061993
11
0.926022
21
0.0649458
0
LINE
8
BLACK
6
CONTINUOUS
10
0.926022
20
0.0649458
11
0.926813
21
0.0678985
0
LINE
8
BLACK
6
CONTINUOUS
10
0.926813
20
0.0678985
11
0.928975
21
0.0700601
0
LINE
8
BLACK
6
CONTINUOUS
10
0.928975
20
0.0700601
11
0.931927
21
0.0708513
0
LINE
8
BLACK
6
CONTINUOUS
10
0.931927
20
0.0708513
11
0.948331
21
0.0708513
0
LINE
8
BLACK
6
CONTINUOUS
10
0.948331
20
0.0708513
11
0.948331
21
0.0909113
0
LINE
8
BLACK
6
CONTINUOUS
10
0.948331
20
0.0909113
11
0.922366
21
0.0909113
0
LINE
8
BLACK
6
CONTINUOUS
10
0.922366
20
0.0909113
11
0.919413
21
0.0917025
0
LINE
8
BLACK
6
CONTINUOUS
10
0.919413
20
0.0917025
11
0.917252
21
0.0938641
0
LINE
8
BLACK
6
CONTINUOUS
10
0.917252
20
0.0938641
11
0.91646
21
0.0968168
0
LINE
8
BLACK
6
CONTINUOUS
10
0.91646
20
0.0968168
11
0.917252
21
0.0997696
0
LINE
8
BLACK
6
CONTINUOUS
10
0.917252
20
0.0997696
11
0.919413
21
0.101931
0
LINE
8
BLACK
6
CONTINUOUS
10
0.919413
20
0.101931
11
0.922366
21
0.102722
0
LINE
8
BLACK
6
CONTINUOUS
10
0.922366
20
0.102722
11
0.954237
21
0.102722
0
LINE
8
BLACK
6
CONTINUOUS
10
0.954237
20
0.102722
11
0.95719
21
0.101931
0
LINE
8
BLACK
6
CONTINUOUS
10
1.02412
20
0.101931
11
1.02628
21
0.0997696
0
LINE
8
BLACK
6
CONTINUOUS
10
1.02628
20
0.0997696
11
1.02707
21
0.0968168
0
LINE
8
BLACK
6
CONTINUOUS
10
1.02707
20
0.0968168
11
1.02707
21
0.0298877
0
LINE
8
BLACK
6
CONTINUOUS
10
1.02707
20
0.0298877
11
1.02628
21
0.0269349
0
LINE
8
BLACK
6
CONTINUOUS
10
1.02628
20
0.0269349
11
1.02412
21
0.0247733
0
LINE
8
BLACK
6
CONTINUOUS
10
1.02412
20
0.0247733
11
1.02117
21
0.0239822
0
LINE
8
BLACK
6
CONTINUOUS
10
1.02117
20
0.0239822
11
1.00523
21
0.0239822
0
LINE
8
BLACK
6
CONTINUOUS
10
1.00523
20
0.0239822
11
1.00431
21
0.0242283
0
LINE
8
BLACK
6
CONTINUOUS
10
1.00431
20
0.0242283
11
1.00336
21
0.0242852
0
LINE
8
BLACK
6
CONTINUOUS
10
1.00336
20
0.0242852
11
0.993802
21
0.0274723
0
LINE
8
BLACK
6
CONTINUOUS
10
0.993802
20
0.0274723
11
0.992669
21
0.0282203
0
LINE
8
BLACK
6
CONTINUOUS
10
0.992669
20
0.0282203
11
0.991494
21
0.0288989
0
LINE
8
BLACK
6
CONTINUOUS
10
0.991494
20
0.0288989
11
0.985119
21
0.0352731
0
LINE
8
BLACK
6
CONTINUOUS
10
0.985119
20
0.0352731
11
0.984644
21
0.0360965
0
LINE
8
BLACK
6
CONTINUOUS
10
0.984644
20
0.0360965
11
0.984013
21
0.0368079
0
LINE
8
BLACK
6
CONTINUOUS
10
0.984013
20
0.0368079
11
0.980826
21
0.0431822
0
LINE
8
BLACK
6
CONTINUOUS
10
0.980826
20
0.0431822
11
0.980695
21
0.0438209
0
LINE
8
BLACK
6
CONTINUOUS
10
0.980695
20
0.0438209
11
0.980379
21
0.0443909
0
LINE
8
BLACK
6
CONTINUOUS
10
0.980379
20
0.0443909
11
0.977192
21
0.0571393
0
LINE
8
BLACK
6
CONTINUOUS
10
0.977192
20
0.0571393
11
0.977204
21
0.0578678
0
LINE
8
BLACK
6
CONTINUOUS
10
0.977204
20
0.0578678
11
0.977015
21
0.0585716
0
LINE
8
BLACK
6
CONTINUOUS
10
0.977015
20
0.0585716
11
0.977015
21
0.0681329
0
LINE
8
BLACK
6
CONTINUOUS
10
0.977015
20
0.0681329
11
0.977204
21
0.0688367
0
LINE
8
BLACK
6
CONTINUOUS
10
0.977204
20
0.0688367
11
0.977192
21
0.0695652
0
LINE
8
BLACK
6
CONTINUOUS
10
0.977192
20
0.0695652
11
0.980379
21
0.0823136
0
LINE
8
BLACK
6
CONTINUOUS
10
0.980379
20
0.0823136
11
0.980695
21
0.0828836
0
LINE
8
BLACK
6
CONTINUOUS
10
0.980695
20
0.0828836
11
0.980826
21
0.0835223
0
LINE
8
BLACK
6
CONTINUOUS
10
0.980826
20
0.0835223
11
0.984013
21
0.0898966
0
LINE
8
BLACK
6
CONTINUOUS
10
0.984013
20
0.0898966
11
0.984644
21
0.090608
0
LINE
8
BLACK
6
CONTINUOUS
10
0.984644
20
0.090608
11
0.985119
21
0.0914313
0
LINE
8
BLACK
6
CONTINUOUS
10
0.985119
20
0.0914313
11
0.991494
21
0.0978056
0
LINE
8
BLACK
6
CONTINUOUS
10
0.991494
20
0.0978056
11
0.992669
21
0.0984842
0
LINE
8
BLACK
6
CONTINUOUS
10
0.992669
20
0.0984842
11
0.993802
21
0.0992322
0
LINE
8
BLACK
6
CONTINUOUS
10
0.993802
20
0.0992322
11
1.00336
21
0.102419
0
LINE
8
BLACK
6
CONTINUOUS
10
1.00336
20
0.102419
11
1.00431
21
0.102476
0
LINE
8
BLACK
6
CONTINUOUS
10
1.00431
20
0.102476
11
1.00523
21
0.102722
0
LINE
8
BLACK
6
CONTINUOUS
10
1.00523
20
0.102722
11
1.02117
21
0.102722
0
LINE
8
BLACK
6
CONTINUOUS
10
1.02117
20
0.102722
11
1.02412
21
0.101931
0
LINE
8
BLACK
6
CONTINUOUS
10
0.998859
20
0.0884681
11
0.994149
21
0.0837573
0
LINE
8
BLACK
6
CONTINUOUS
10
0.994149
20
0.0837573
11
0.99168
21
0.07882
0
LINE
8
BLACK
6
CONTINUOUS
10
0.99168
20
0.07882
11
0.988826
21
0.067406
0
LINE
8
BLACK
6
CONTINUOUS
10
0.988826
20
0.067406
11
0.988826
21
0.0592986
0
LINE
8
BLACK
6
CONTINUOUS
10
0.988826
20
0.0592986
11
0.99168
21
0.0478843
0
LINE
8
BLACK
6
CONTINUOUS
10
0.99168
20
0.0478843
11
0.994149
21
0.0429472
0
LINE
8
BLACK
6
CONTINUOUS
10
0.994149
20
0.0429472
11
0.998859
21
0.0382364
0
LINE
8
BLACK
6
CONTINUOUS
10
0.998859
20
0.0382364
11
1.00619
21
0.0357932
0
LINE
8
BLACK
6
CONTINUOUS
10
1.00619
20
0.0357932
11
1.01526
21
0.0357932
0
LINE
8
BLACK
6
CONTINUOUS
10
1.01526
20
0.0357932
11
1.01526
21
0.0909113
0
LINE
8
BLACK
6
CONTINUOUS
10
1.01526
20
0.0909113
11
1.00619
21
0.0909113
0
LINE
8
BLACK
6
CONTINUOUS
10
1.00619
20
0.0909113
11
0.998859
21
0.0884681
0
LINE
8
BLACK
6
CONTINUOUS
10
1.0783
20
0.101931
11
1.08046
21
0.0997696
0
LINE
8
BLACK
6
CONTINUOUS
10
1.08046
20
0.0997696
11
1.08125
21
0.0968168
0
LINE
8
BLACK
6
CONTINUOUS
10
1.08125
20
0.0968168
11
1.08125
21
0.0298877
0
LINE
8
BLACK
6
CONTINUOUS
10
1.08125
20
0.0298877
11
1.08046
21
0.0269349
0
LINE
8
BLACK
6
CONTINUOUS
10
1.08046
20
0.0269349
11
1.0783
21
0.0247733
0
LINE
8
BLACK
6
CONTINUOUS
10
1.0783
20
0.0247733
11
1.07535
21
0.0239822
0
LINE
8
BLACK
6
CONTINUOUS
10
1.07535
20
0.0239822
11
1.04348
21
0.0239822
0
LINE
8
BLACK
6
CONTINUOUS
10
1.04348
20
0.0239822
11
1.04052
21
0.0247733
0
LINE
8
BLACK
6
CONTINUOUS
10
1.04052
20
0.0247733
11
1.03836
21
0.0269349
0
LINE
8
BLACK
6
CONTINUOUS
10
1.03836
20
0.0269349
11
1.03757
21
0.0298877
0
LINE
8
BLACK
6
CONTINUOUS
10
1.03757
20
0.0298877
11
1.03836
21
0.0328404
0
LINE
8
BLACK
6
CONTINUOUS
10
1.03836
20
0.0328404
11
1.04052
21
0.035002
0
LINE
8
BLACK
6
CONTINUOUS
10
1.04052
20
0.035002
11
1.04348
21
0.0357932
0
LINE
8
BLACK
6
CONTINUOUS
10
1.04348
20
0.0357932
11
1.06944
21
0.0357932
0
LINE
8
BLACK
6
CONTINUOUS
10
1.06944
20
0.0357932
11
1.06944
21
0.0968168
0
LINE
8
BLACK
6
CONTINUOUS
10
1.06944
20
0.0968168
11
1.07023
21
0.0997696
0
LINE
8
BLACK
6
CONTINUOUS
10
1.07023
20
0.0997696
11
1.07239
21
0.101931
0
LINE
8
BLACK
6
CONTINUOUS
10
1.07239
20
0.101931
11
1.07535
21
0.102722
0
LINE
8
BLACK
6
CONTINUOUS
10
1.07535
20
0.102722
11
1.0783
21
0.101931
0
LINE
8
BLACK
6
CONTINUOUS
10
1.13403
20
0.102371
11
1.13536
21
0.102099
0
LINE
8
BLACK
6
CONTINUOUS
10
1.13536
20
0.102099
11
1.14173
21
0.0989118
0
LINE
8
BLACK
6
CONTINUOUS
10
1.14173
20
0.0989118
11
1.14244
21
0.0982809
0
LINE
8
BLACK
6
CONTINUOUS
10
1.14244
20
0.0982809
11
1.14326
21
0.0978056
0
LINE
8
BLACK
6
CONTINUOUS
10
1.14326
20
0.0978056
11
1.14964
21
0.0914313
0
LINE
8
BLACK
6
CONTINUOUS
10
1.14964
20
0.0914313
11
1.14966
21
0.0913869
0
LINE
8
BLACK
6
CONTINUOUS
10
1.14966
20
0.0913869
11
1.14971
21
0.0913605
0
LINE
8
BLACK
6
CONTINUOUS
10
1.14971
20
0.0913605
11
1.15043
21
0.0900668
0
LINE
8
BLACK
6
CONTINUOUS
10
1.15043
20
0.0900668
11
1.15117
21
0.088784
0
LINE
8
BLACK
6
CONTINUOUS
10
1.15117
20
0.088784
11
1.15117
21
0.0887326
0
LINE
8
BLACK
6
CONTINUOUS
10
1.15117
20
0.0887326
11
1.15119
21
0.0886878
0
LINE
8
BLACK
6
CONTINUOUS
10
1.15119
20
0.0886878
11
1.15438
21
0.0759394
0
LINE
8
BLACK
6
CONTINUOUS
10
1.15438
20
0.0759394
11
1.15437
21
0.0752108
0
LINE
8
BLACK
6
CONTINUOUS
10
1.15437
20
0.0752108
11
1.15456
21
0.0745071
0
LINE
8
BLACK
6
CONTINUOUS
10
1.15456
20
0.0745071
11
1.15456
21
0.0521974
0
LINE
8
BLACK
6
CONTINUOUS
10
1.15456
20
0.0521974
11
1.15437
21
0.0514937
0
LINE
8
BLACK
6
CONTINUOUS
10
1.15437
20
0.0514937
11
1.15438
21
0.0507651
0
LINE
8
BLACK
6
CONTINUOUS
10
1.15438
20
0.0507651
11
1.15119
21
0.0380167
0
LINE
8
BLACK
6
CONTINUOUS
10
1.15119
20
0.0380167
11
1.15117
21
0.0379719
0
LINE
8
BLACK
6
CONTINUOUS
10
1.15117
20
0.0379719
11
1.15117
21
0.0379205
0
LINE
8
BLACK
6
CONTINUOUS
10
1.15117
20
0.0379205
11
1.15043
21
0.0366377
0
LINE
8
BLACK
6
CONTINUOUS
10
1.15043
20
0.0366377
11
1.14971
21
0.035344
0
LINE
8
BLACK
6
CONTINUOUS
10
1.14971
20
0.035344
11
1.14966
21
0.0353176
0
LINE
8
BLACK
6
CONTINUOUS
10
1.14966
20
0.0353176
11
1.14964
21
0.0352731
0
LINE
8
BLACK
6
CONTINUOUS
10
1.14964
20
0.0352731
11
1.14326
21
0.0288989
0
LINE
8
BLACK
6
CONTINUOUS
10
1.14326
20
0.0288989
11
1.14244
21
0.0284236
0
LINE
8
BLACK
6
CONTINUOUS
10
1.14244
20
0.0284236
11
1.14173
21
0.0277927
0
LINE
8
BLACK
6
CONTINUOUS
10
1.14173
20
0.0277927
11
1.13536
21
0.0246056
0
LINE
8
BLACK
6
CONTINUOUS
10
1.13536
20
0.0246056
11
1.13403
21
0.0243335
0
LINE
8
BLACK
6
CONTINUOUS
10
1.13403
20
0.0243335
11
1.13271
21
0.0239822
0
LINE
8
BLACK
6
CONTINUOUS
10
1.13271
20
0.0239822
11
1.11997
21
0.0239822
0
LINE
8
BLACK
6
CONTINUOUS
10
1.11997
20
0.0239822
11
1.11866
21
0.0243335
0
LINE
8
BLACK
6
CONTINUOUS
10
1.11866
20
0.0243335
11
1.11733
21
0.0246056
0
LINE
8
BLACK
6
CONTINUOUS
10
1.11733
20
0.0246056
11
1.11095
21
0.0277927
0
LINE
8
BLACK
6
CONTINUOUS
10
1.11095
20
0.0277927
11
1.11024
21
0.0284236
0
LINE
8
BLACK
6
CONTINUOUS
10
1.11024
20
0.0284236
11
1.10942
21
0.0288989
0
LINE
8
BLACK
6
CONTINUOUS
10
1.10942
20
0.0288989
11
1.10304
21
0.0352731
0
LINE
8
BLACK
6
CONTINUOUS
10
1.10304
20
0.0352731
11
1.10302
21
0.0353176
0
LINE
8
BLACK
6
CONTINUOUS
10
1.10302
20
0.0353176
11
1.10297
21
0.035344
0
LINE
8
BLACK
6
CONTINUOUS
10
1.10297
20
0.035344
11
1.10225
21
0.0366382
0
LINE
8
BLACK
6
CONTINUOUS
10
1.10225
20
0.0366382
11
1.10151
21
0.0379205
0
LINE
8
BLACK
6
CONTINUOUS
10
1.10151
20
0.0379205
11
1.10151
21
0.0379719
0
LINE
8
BLACK
6
CONTINUOUS
10
1.10151
20
0.0379719
11
1.10149
21
0.0380167
0
LINE
8
BLACK
6
CONTINUOUS
10
1.10149
20
0.0380167
11
1.0983
21
0.0507651
0
LINE
8
BLACK
6
CONTINUOUS
10
1.0983
20
0.0507651
11
1.09831
21
0.0514936
0
LINE
8
BLACK
6
CONTINUOUS
10
1.09831
20
0.0514936
11
1.09813
21
0.0521974
0
LINE
8
BLACK
6
CONTINUOUS
10
1.09813
20
0.0521974
11
1.09813
21
0.0745071
0
LINE
8
BLACK
6
CONTINUOUS
10
1.09813
20
0.0745071
11
1.09831
21
0.0752109
0
LINE
8
BLACK
6
CONTINUOUS
10
1.09831
20
0.0752109
11
1.0983
21
0.0759394
0
LINE
8
BLACK
6
CONTINUOUS
10
1.0983
20
0.0759394
11
1.10149
21
0.0886878
0
LINE
8
BLACK
6
CONTINUOUS
10
1.10149
20
0.0886878
11
1.10151
21
0.0887327
0
LINE
8
BLACK
6
CONTINUOUS
10
1.10151
20
0.0887327
11
1.10151
21
0.088784
0
LINE
8
BLACK
6
CONTINUOUS
10
1.10151
20
0.088784
11
1.10225
21
0.0900663
0
LINE
8
BLACK
6
CONTINUOUS
10
1.10225
20
0.0900663
11
1.10297
21
0.0913605
0
LINE
8
BLACK
6
CONTINUOUS
10
1.10297
20
0.0913605
11
1.10302
21
0.0913869
0
LINE
8
BLACK
6
CONTINUOUS
10
1.10302
20
0.0913869
11
1.10304
21
0.0914313
0
LINE
8
BLACK
6
CONTINUOUS
10
1.10304
20
0.0914313
11
1.10942
21
0.0978056
0
LINE
8
BLACK
6
CONTINUOUS
10
1.10942
20
0.0978056
11
1.11024
21
0.0982809
0
LINE
8
BLACK
6
CONTINUOUS
10
1.11024
20
0.0982809
11
1.11095
21
0.0989118
0
LINE
8
BLACK
6
CONTINUOUS
10
1.11095
20
0.0989118
11
1.11733
21
0.102099
0
LINE
8
BLACK
6
CONTINUOUS
10
1.11733
20
0.102099
11
1.11866
21
0.102371
0
LINE
8
BLACK
6
CONTINUOUS
10
1.11866
20
0.102371
11
1.11997
21
0.102722
0
LINE
8
BLACK
6
CONTINUOUS
10
1.11997
20
0.102722
11
1.13271
21
0.102722
0
LINE
8
BLACK
6
CONTINUOUS
10
1.13271
20
0.102722
11
1.13403
21
0.102371
0
LINE
8
BLACK
6
CONTINUOUS
10
1.11709
20
0.0887763
11
1.11255
21
0.0842364
0
LINE
8
BLACK
6
CONTINUOUS
10
1.11255
20
0.0842364
11
1.10994
21
0.0737802
0
LINE
8
BLACK
6
CONTINUOUS
10
1.10994
20
0.0737802
11
1.10994
21
0.0529244
0
LINE
8
BLACK
6
CONTINUOUS
10
1.10994
20
0.0529244
11
1.11255
21
0.0424681
0
LINE
8
BLACK
6
CONTINUOUS
10
1.11255
20
0.0424681
11
1.11709
21
0.0379283
0
LINE
8
BLACK
6
CONTINUOUS
10
1.11709
20
0.0379283
11
1.12136
21
0.0357932
0
LINE
8
BLACK
6
CONTINUOUS
10
1.12136
20
0.0357932
11
1.13132
21
0.0357932
0
LINE
8
BLACK
6
CONTINUOUS
10
1.13132
20
0.0357932
11
1.13559
21
0.0379283
0
LINE
8
BLACK
6
CONTINUOUS
10
1.13559
20
0.0379283
11
1.14013
21
0.0424682
0
LINE
8
BLACK
6
CONTINUOUS
10
1.14013
20
0.0424682
11
1.14274
21
0.0529244
0
LINE
8
BLACK
6
CONTINUOUS
10
1.14274
20
0.0529244
11
1.14274
21
0.0737802
0
LINE
8
BLACK
6
CONTINUOUS
10
1.14274
20
0.0737802
11
1.14013
21
0.0842363
0
LINE
8
BLACK
6
CONTINUOUS
10
1.14013
20
0.0842363
11
1.13559
21
0.0887763
0
LINE
8
BLACK
6
CONTINUOUS
10
1.13559
20
0.0887763
11
1.13132
21
0.0909113
0
LINE
8
BLACK
6
CONTINUOUS
10
1.13132
20
0.0909113
11
1.12136
21
0.0909113
0
LINE
8
BLACK
6
CONTINUOUS
10
1.12136
20
0.0909113
11
1.11709
21
0.0887763
0
LINE
8
BLACK
6
CONTINUOUS
10
1.21853
20
0.101931
11
1.22069
21
0.0997696
0
LINE
8
BLACK
6
CONTINUOUS
10
1.22069
20
0.0997696
11
1.22148
21
0.0968168
0
LINE
8
BLACK
6
CONTINUOUS
10
1.22148
20
0.0968168
11
1.22148
21
0.0298877
0
LINE
8
BLACK
6
CONTINUOUS
10
1.22148
20
0.0298877
11
1.22069
21
0.0269349
0
LINE
8
BLACK
6
CONTINUOUS
10
1.22069
20
0.0269349
11
1.21853
21
0.0247733
0
LINE
8
BLACK
6
CONTINUOUS
10
1.21853
20
0.0247733
11
1.21558
21
0.0239822
0
LINE
8
BLACK
6
CONTINUOUS
10
1.21558
20
0.0239822
11
1.21263
21
0.0247733
0
LINE
8
BLACK
6
CONTINUOUS
10
1.21263
20
0.0247733
11
1.21046
21
0.0269349
0
LINE
8
BLACK
6
CONTINUOUS
10
1.21046
20
0.0269349
11
1.20967
21
0.0298877
0
LINE
8
BLACK
6
CONTINUOUS
10
1.20967
20
0.0298877
11
1.20967
21
0.0590403
0
LINE
8
BLACK
6
CONTINUOUS
10
1.20967
20
0.0590403
11
1.18324
21
0.0590403
0
LINE
8
BLACK
6
CONTINUOUS
10
1.18324
20
0.0590403
11
1.18324
21
0.0298877
0
LINE
8
BLACK
6
CONTINUOUS
10
1.18324
20
0.0298877
11
1.18245
21
0.0269349
0
LINE
8
BLACK
6
CONTINUOUS
10
1.18245
20
0.0269349
11
1.18029
21
0.0247733
0
LINE
8
BLACK
6
CONTINUOUS
10
1.18029
20
0.0247733
11
1.17733
21
0.0239822
0
LINE
8
BLACK
6
CONTINUOUS
10
1.17733
20
0.0239822
11
1.17438
21
0.0247733
0
LINE
8
BLACK
6
CONTINUOUS
10
1.17438
20
0.0247733
11
1.17222
21
0.0269349
0
LINE
8
BLACK
6
CONTINUOUS
10
1.17222
20
0.0269349
11
1.17143
21
0.0298877
0
LINE
8
BLACK
6
CONTINUOUS
10
1.17143
20
0.0298877
11
1.17143
21
0.0968168
0
LINE
8
BLACK
6
CONTINUOUS
10
1.17143
20
0.0968168
11
1.17222
21
0.0997696
0
LINE
8
BLACK
6
CONTINUOUS
10
1.17222
20
0.0997696
11
1.17438
21
0.101931
0
LINE
8
BLACK
6
CONTINUOUS
10
1.17438
20
0.101931
11
1.17733
21
0.102722
0
LINE
8
BLACK
6
CONTINUOUS
10
1.17733
20
0.102722
11
1.18029
21
0.101931
0
LINE
8
BLACK
6
CONTINUOUS
10
1.18029
20
0.101931
11
1.18245
21
0.0997696
0
LINE
8
BLACK
6
CONTINUOUS
10
1.18245
20
0.0997696
11
1.18324
21
0.0968168
0
LINE
8
BLACK
6
CONTINUOUS
10
1.18324
20
0.0968168
11
1.18324
21
0.0708513
0
LINE
8
BLACK
6
CONTINUOUS
10
1.18324
20
0.0708513
11
1.20967
21
0.0708513
0
LINE
8
BLACK
6
CONTINUOUS
10
1.20967
20
0.0708513
11
1.20967
21
0.0968168
0
LINE
8
BLACK
6
CONTINUOUS
10
1.20967
20
0.0968168
11
1.21046
21
0.0997696
0
LINE
8
BLACK
6
CONTINUOUS
10
1.21046
20
0.0997696
11
1.21263
21
0.101931
0
LINE
8
BLACK
6
CONTINUOUS
10
1.21263
20
0.101931
11
1.21558
21
0.102722
0
LINE
8
BLACK
6
CONTINUOUS
10
1.21558
20
0.102722
11
1.21853
21
0.101931
0
LINE
8
BLACK
6
CONTINUOUS
10
1.28716
20
0.10233
11
1.28863
21
0.101944
0
LINE
8
BLACK
6
CONTINUOUS
10
1.28863
20
0.101944
11
1.28864
21
0.101935
0
LINE
8
BLACK
6
CONTINUOUS
10
1.28864
20
0.101935
11
1.28865
21
0.101931
0
LINE
8
BLACK
6
CONTINUOUS
10
1.28865
20
0.101931
11
1.28972
21
0.100859
0
LINE
8
BLACK
6
CONTINUOUS
10
1.28972
20
0.100859
11
1.2908
21
0.0997923
0
LINE
8
BLACK
6
CONTINUOUS
10
1.2908
20
0.0997923
11
1.2908
21
0.0997792
0
LINE
8
BLACK
6
CONTINUOUS
10
1.2908
20
0.0997792
11
1.29081
21
0.0997696
0
LINE
8
BLACK
6
CONTINUOUS
10
1.29081
20
0.0997696
11
1.2912
21
0.0983089
0
LINE
8
BLACK
6
CONTINUOUS
10
1.2912
20
0.0983089
11
1.2916
21
0.0968431
0
LINE
8
BLACK
6
CONTINUOUS
10
1.2916
20
0.0968431
11
1.2916
21
0.0968299
0
LINE
8
BLACK
6
CONTINUOUS
10
1.2916
20
0.0968299
11
1.2916
21
0.0968168
0
LINE
8
BLACK
6
CONTINUOUS
10
1.2916
20
0.0968168
11
1.2916
21
0.0298877
0
LINE
8
BLACK
6
CONTINUOUS
10
1.2916
20
0.0298877
11
1.29081
21
0.0269349
0
LINE
8
BLACK
6
CONTINUOUS
10
1.29081
20
0.0269349
11
1.28865
21
0.0247733
0
LINE
8
BLACK
6
CONTINUOUS
10
1.28865
20
0.0247733
11
1.2857
21
0.0239822
0
LINE
8
BLACK
6
CONTINUOUS
10
1.2857
20
0.0239822
11
1.28274
21
0.0247733
0
LINE
8
BLACK
6
CONTINUOUS
10
1.28274
20
0.0247733
11
1.28058
21
0.0269349
0
LINE
8
BLACK
6
CONTINUOUS
10
1.28058
20
0.0269349
11
1.27979
21
0.0298877
0
LINE
8
BLACK
6
CONTINUOUS
10
1.27979
20
0.0298877
11
1.27979
21
0.0745793
0
LINE
8
BLACK
6
CONTINUOUS
10
1.27979
20
0.0745793
11
1.25258
21
0.0269577
0
LINE
8
BLACK
6
CONTINUOUS
10
1.25258
20
0.0269577
11
1.25257
21
0.0269481
0
LINE
8
BLACK
6
CONTINUOUS
10
1.25257
20
0.0269481
11
1.25256
21
0.0269349
0
LINE
8
BLACK
6
CONTINUOUS
10
1.25256
20
0.0269349
11
1.25149
21
0.0258633
0
LINE
8
BLACK
6
CONTINUOUS
10
1.25149
20
0.0258633
11
1.25043
21
0.0247865
0
LINE
8
BLACK
6
CONTINUOUS
10
1.25043
20
0.0247865
11
1.25041
21
0.024783
0
LINE
8
BLACK
6
CONTINUOUS
10
1.25041
20
0.024783
11
1.2504
21
0.0247733
0
LINE
8
BLACK
6
CONTINUOUS
10
1.2504
20
0.0247733
11
1.24894
21
0.024382
0
LINE
8
BLACK
6
CONTINUOUS
10
1.24894
20
0.024382
11
1.24748
21
0.0239822
0
LINE
8
BLACK
6
CONTINUOUS
10
1.24748
20
0.0239822
11
1.24746
21
0.0239857
0
LINE
8
BLACK
6
CONTINUOUS
10
1.24746
20
0.0239857
11
1.24745
21
0.0239822
0
LINE
8
BLACK
6
CONTINUOUS
10
1.24745
20
0.0239822
11
1.24599
21
0.0243747
0
LINE
8
BLACK
6
CONTINUOUS
10
1.24599
20
0.0243747
11
1.24452
21
0.0247603
0
LINE
8
BLACK
6
CONTINUOUS
10
1.24452
20
0.0247603
11
1.24451
21
0.0247698
0
LINE
8
BLACK
6
CONTINUOUS
10
1.24451
20
0.0247698
11
1.2445
21
0.0247733
0
LINE
8
BLACK
6
CONTINUOUS
10
1.2445
20
0.0247733
11
1.24343
21
0.025845
0
LINE
8
BLACK
6
CONTINUOUS
10
1.24343
20
0.025845
11
1.24235
21
0.0269122
0
LINE
8
BLACK
6
CONTINUOUS
10
1.24235
20
0.0269122
11
1.24235
21
0.0269254
0
LINE
8
BLACK
6
CONTINUOUS
10
1.24235
20
0.0269254
11
1.24234
21
0.0269349
0
LINE
8
BLACK
6
CONTINUOUS
10
1.24234
20
0.0269349
11
1.24194
21
0.0283956
0
LINE
8
BLACK
6
CONTINUOUS
10
1.24194
20
0.0283956
11
1.24154
21
0.0298614
0
LINE
8
BLACK
6
CONTINUOUS
10
1.24154
20
0.0298614
11
1.24155
21
0.0298746
0
LINE
8
BLACK
6
CONTINUOUS
10
1.24155
20
0.0298746
11
1.24154
21
0.0298877
0
LINE
8
BLACK
6
CONTINUOUS
10
1.24154
20
0.0298877
11
1.24154
21
0.0968168
0
LINE
8
BLACK
6
CONTINUOUS
10
1.24154
20
0.0968168
11
1.24234
21
0.0997696
0
LINE
8
BLACK
6
CONTINUOUS
10
1.24234
20
0.0997696
11
1.2445
21
0.101931
0
LINE
8
BLACK
6
CONTINUOUS
10
1.2445
20
0.101931
11
1.24745
21
0.102722
0
LINE
8
BLACK
6
CONTINUOUS
10
1.24745
20
0.102722
11
1.2504
21
0.101931
0
LINE
8
BLACK
6
CONTINUOUS
10
1.2504
20
0.101931
11
1.25256
21
0.0997696
0
LINE
8
BLACK
6
CONTINUOUS
10
1.25256
20
0.0997696
11
1.25336
21
0.0968168
0
LINE
8
BLACK
6
CONTINUOUS
10
1.25336
20
0.0968168
11
1.25336
21
0.0521253
0
LINE
8
BLACK
6
CONTINUOUS
10
1.25336
20
0.0521253
11
1.28057
21
0.0997468
0
LINE
8
BLACK
6
CONTINUOUS
10
1.28057
20
0.0997468
11
1.28058
21
0.0997565
0
LINE
8
BLACK
6
CONTINUOUS
10
1.28058
20
0.0997565
11
1.28058
21
0.0997696
0
LINE
8
BLACK
6
CONTINUOUS
10
1.28058
20
0.0997696
11
1.28165
21
0.100839
0
LINE
8
BLACK
6
CONTINUOUS
10
1.28165
20
0.100839
11
1.28272
21
0.101918
0
LINE
8
BLACK
6
CONTINUOUS
10
1.28272
20
0.101918
11
1.28273
21
0.101922
0
LINE
8
BLACK
6
CONTINUOUS
10
1.28273
20
0.101922
11
1.28274
21
0.101931
0
LINE
8
BLACK
6
CONTINUOUS
10
1.28274
20
0.101931
11
1.2842
21
0.102323
0
LINE
8
BLACK
6
CONTINUOUS
10
1.2842
20
0.102323
11
1.28567
21
0.102722
0
LINE
8
BLACK
6
CONTINUOUS
10
1.28567
20
0.102722
11
1.28568
21
0.102719
0
LINE
8
BLACK
6
CONTINUOUS
10
1.28568
20
0.102719
11
1.2857
21
0.102722
0
LINE
8
BLACK
6
CONTINUOUS
10
1.2857
20
0.102722
11
1.28716
21
0.10233
0
LINE
8
BLACK
6
CONTINUOUS
10
1.32052
20
0.101931
11
1.32268
21
0.0997696
0
LINE
8
BLACK
6
CONTINUOUS
10
1.32268
20
0.0997696
11
1.32347
21
0.0968168
0
LINE
8
BLACK
6
CONTINUOUS
10
1.32347
20
0.0968168
11
1.32347
21
0.0298877
0
LINE
8
BLACK
6
CONTINUOUS
10
1.32347
20
0.0298877
11
1.32268
21
0.0269349
0
LINE
8
BLACK
6
CONTINUOUS
10
1.32268
20
0.0269349
11
1.32052
21
0.0247733
0
LINE
8
BLACK
6
CONTINUOUS
10
1.32052
20
0.0247733
11
1.31757
21
0.0239822
0
LINE
8
BLACK
6
CONTINUOUS
10
1.31757
20
0.0239822
11
1.31461
21
0.0247733
0
LINE
8
BLACK
6
CONTINUOUS
10
1.31461
20
0.0247733
11
1.31245
21
0.0269349
0
LINE
8
BLACK
6
CONTINUOUS
10
1.31245
20
0.0269349
11
1.31166
21
0.0298877
0
LINE
8
BLACK
6
CONTINUOUS
10
1.31166
20
0.0298877
11
1.31166
21
0.0968168
0
LINE
8
BLACK
6
CONTINUOUS
10
1.31166
20
0.0968168
11
1.31245
21
0.0997696
0
LINE
8
BLACK
6
CONTINUOUS
10
1.31245
20
0.0997696
11
1.31461
21
0.101931
0
LINE
8
BLACK
6
CONTINUOUS
10
1.31461
20
0.101931
11
1.31757
21
0.102722
0
LINE
8
BLACK
6
CONTINUOUS
10
1.31757
20
0.102722
11
1.32052
21
0.101931
0
LINE
8
BLACK
6
CONTINUOUS
10
1.38745
20
0.101931
11
1.38961
21
0.0997696
0
LINE
8
BLACK
6
CONTINUOUS
10
1.38961
20
0.0997696
11
1.3904
21
0.0968168
0
LINE
8
BLACK
6
CONTINUOUS
10
1.3904
20
0.0968168
11
1.3904
21
0.0298877
0
LINE
8
BLACK
6
CONTINUOUS
10
1.3904
20
0.0298877
11
1.38961
21
0.0269349
0
LINE
8
BLACK
6
CONTINUOUS
10
1.38961
20
0.0269349
11
1.38745
21
0.0247733
0
LINE
8
BLACK
6
CONTINUOUS
10
1.38745
20
0.0247733
11
1.3845
21
0.0239822
0
LINE
8
BLACK
6
CONTINUOUS
10
1.3845
20
0.0239822
11
1.38154
21
0.0247733
0
LINE
8
BLACK
6
CONTINUOUS
10
1.38154
20
0.0247733
11
1.37938
21
0.0269349
0
LINE
8
BLACK
6
CONTINUOUS
10
1.37938
20
0.0269349
11
1.37859
21
0.0298877
0
LINE
8
BLACK
6
CONTINUOUS
10
1.37859
20
0.0298877
11
1.37859
21
0.0558532
0
LINE
8
BLACK
6
CONTINUOUS
10
1.37859
20
0.0558532
11
1.359
21
0.0558532
0
LINE
8
BLACK
6
CONTINUOUS
10
1.359
20
0.0558532
11
1.35769
21
0.0562045
0
LINE
8
BLACK
6
CONTINUOUS
10
1.35769
20
0.0562045
11
1.35636
21
0.0564767
0
LINE
8
BLACK
6
CONTINUOUS
10
1.35636
20
0.0564767
11
1.34998
21
0.0596637
0
LINE
8
BLACK
6
CONTINUOUS
10
1.34998
20
0.0596637
11
1.34927
21
0.0602946
0
LINE
8
BLACK
6
CONTINUOUS
10
1.34927
20
0.0602946
11
1.34845
21
0.06077
0
LINE
8
BLACK
6
CONTINUOUS
10
1.34845
20
0.06077
11
1.34526
21
0.0639571
0
LINE
8
BLACK
6
CONTINUOUS
10
1.34526
20
0.0639571
11
1.34479
21
0.0647805
0
LINE
8
BLACK
6
CONTINUOUS
10
1.34479
20
0.0647805
11
1.34416
21
0.0654919
0
LINE
8
BLACK
6
CONTINUOUS
10
1.34416
20
0.0654919
11
1.34097
21
0.0718661
0
LINE
8
BLACK
6
CONTINUOUS
10
1.34097
20
0.0718661
11
1.3407
21
0.073196
0
LINE
8
BLACK
6
CONTINUOUS
10
1.3407
20
0.073196
11
1.34034
21
0.0745071
0
LINE
8
BLACK
6
CONTINUOUS
10
1.34034
20
0.0745071
11
1.34034
21
0.0840684
0
LINE
8
BLACK
6
CONTINUOUS
10
1.34034
20
0.0840684
11
1.3407
21
0.0853795
0
LINE
8
BLACK
6
CONTINUOUS
10
1.3407
20
0.0853795
11
1.34097
21
0.0867094
0
LINE
8
BLACK
6
CONTINUOUS
10
1.34097
20
0.0867094
11
1.34416
21
0.0930836
0
LINE
8
BLACK
6
CONTINUOUS
10
1.34416
20
0.0930836
11
1.34479
21
0.093795
0
LINE
8
BLACK
6
CONTINUOUS
10
1.34479
20
0.093795
11
1.34526
21
0.0946184
0
LINE
8
BLACK
6
CONTINUOUS
10
1.34526
20
0.0946184
11
1.34845
21
0.0978056
0
LINE
8
BLACK
6
CONTINUOUS
10
1.34845
20
0.0978056
11
1.34927
21
0.0982809
0
LINE
8
BLACK
6
CONTINUOUS
10
1.34927
20
0.0982809
11
1.34998
21
0.0989118
0
LINE
8
BLACK
6
CONTINUOUS
10
1.34998
20
0.0989118
11
1.35636
21
0.102099
0
LINE
8
BLACK
6
CONTINUOUS
10
1.35636
20
0.102099
11
1.35769
21
0.102371
0
LINE
8
BLACK
6
CONTINUOUS
10
1.35769
20
0.102371
11
1.359
21
0.102722
0
LINE
8
BLACK
6
CONTINUOUS
10
1.359
20
0.102722
11
1.3845
21
0.102722
0
LINE
8
BLACK
6
CONTINUOUS
10
1.3845
20
0.102722
11
1.38745
21
0.101931
0
LINE
8
BLACK
6
CONTINUOUS
10
1.35612
20
0.0887763
11
1.35429
21
0.0869444
0
LINE
8
BLACK
6
CONTINUOUS
10
1.35429
20
0.0869444
11
1.35216
21
0.0826743
0
LINE
8
BLACK
6
CONTINUOUS
10
1.35216
20
0.0826743
11
1.35216
21
0.0759012
0
LINE
8
BLACK
6
CONTINUOUS
10
1.35216
20
0.0759012
11
1.35429
21
0.0716311
0
LINE
8
BLACK
6
CONTINUOUS
10
1.35429
20
0.0716311
11
1.35612
21
0.0697993
0
LINE
8
BLACK
6
CONTINUOUS
10
1.35612
20
0.0697993
11
1.36039
21
0.0676642
0
LINE
8
BLACK
6
CONTINUOUS
10
1.36039
20
0.0676642
11
1.37859
21
0.0676642
0
LINE
8
BLACK
6
CONTINUOUS
10
1.37859
20
0.0676642
11
1.37859
21
0.0909113
0
LINE
8
BLACK
6
CONTINUOUS
10
1.37859
20
0.0909113
11
1.36039
21
0.0909113
0
LINE
8
BLACK
6
CONTINUOUS
10
1.36039
20
0.0909113
11
1.35612
21
0.0887763
0
LINE
8
BLACK
6
CONTINUOUS
10
0.688027
20
0.102441
11
0.688388
21
0.102419
0
LINE
8
BLACK
6
CONTINUOUS
10
0.688388
20
0.102419
11
0.689377
21
0.101766
0
LINE
8
BLACK
6
CONTINUOUS
10
0.689377
20
0.101766
11
0.690439
21
0.101235
0
LINE
8
BLACK
6
CONTINUOUS
10
0.690439
20
0.101235
11
0.690638
21
0.100934
0
LINE
8
BLACK
6
CONTINUOUS
10
0.690638
20
0.100934
11
0.690939
21
0.100735
0
LINE
8
BLACK
6
CONTINUOUS
10
0.690939
20
0.100735
11
0.691469
21
0.0996742
0
LINE
8
BLACK
6
CONTINUOUS
10
0.691469
20
0.0996742
11
0.692123
21
0.0986843
0
LINE
8
BLACK
6
CONTINUOUS
10
0.692123
20
0.0986843
11
0.714433
21
0.0317552
0
LINE
8
BLACK
6
CONTINUOUS
10
0.714433
20
0.0317552
11
0.714616
21
0.0287037
0
LINE
8
BLACK
6
CONTINUOUS
10
0.714616
20
0.0287037
11
0.713249
21
0.0259696
0
LINE
8
BLACK
6
CONTINUOUS
10
0.713249
20
0.0259696
11
0.710698
21
0.0242852
0
LINE
8
BLACK
6
CONTINUOUS
10
0.710698
20
0.0242852
11
0.707646
21
0.0241021
0
LINE
8
BLACK
6
CONTINUOUS
10
0.707646
20
0.0241021
11
0.704912
21
0.0254692
0
LINE
8
BLACK
6
CONTINUOUS
10
0.704912
20
0.0254692
11
0.703228
21
0.0280202
0
LINE
8
BLACK
6
CONTINUOUS
10
0.703228
20
0.0280202
11
0.698199
21
0.0431048
0
LINE
8
BLACK
6
CONTINUOUS
10
0.698199
20
0.0431048
11
0.674841
21
0.0431048
0
LINE
8
BLACK
6
CONTINUOUS
10
0.674841
20
0.0431048
11
0.669813
21
0.0280202
0
LINE
8
BLACK
6
CONTINUOUS
10
0.669813
20
0.0280202
11
0.668129
21
0.0254691
0
LINE
8
BLACK
6
CONTINUOUS
10
0.668129
20
0.0254691
11
0.665395
21
0.024102
0
LINE
8
BLACK
6
CONTINUOUS
10
0.665395
20
0.024102
11
0.662343
21
0.0242852
0
LINE
8
BLACK
6
CONTINUOUS
10
0.662343
20
0.0242852
11
0.659792
21
0.0259695
0
LINE
8
BLACK
6
CONTINUOUS
10
0.659792
20
0.0259695
11
0.658425
21
0.0287037
0
LINE
8
BLACK
6
CONTINUOUS
10
0.658425
20
0.0287037
11
0.658608
21
0.0317552
0
LINE
8
BLACK
6
CONTINUOUS
10
0.658608
20
0.0317552
11
0.680918
21
0.0986843
0
LINE
8
BLACK
6
CONTINUOUS
10
0.680918
20
0.0986843
11
0.681571
21
0.099674
0
LINE
8
BLACK
6
CONTINUOUS
10
0.681571
20
0.099674
11
0.682102
21
0.100735
0
LINE
8
BLACK
6
CONTINUOUS
10
0.682102
20
0.100735
11
0.682403
21
0.100934
0
LINE
8
BLACK
6
CONTINUOUS
10
0.682403
20
0.100934
11
0.682602
21
0.101235
0
LINE
8
BLACK
6
CONTINUOUS
10
0.682602
20
0.101235
11
0.683663
21
0.101766
0
LINE
8
BLACK
6
CONTINUOUS
10
0.683663
20
0.101766
11
0.684653
21
0.102419
0
LINE
8
BLACK
6
CONTINUOUS
10
0.684653
20
0.102419
11
0.685013
21
0.102441
0
LINE
8
BLACK
6
CONTINUOUS
10
0.685013
20
0.102441
11
0.685336
21
0.102602
0
LINE
8
BLACK
6
CONTINUOUS
10
0.685336
20
0.102602
11
0.68652
21
0.102531
0
LINE
8
BLACK
6
CONTINUOUS
10
0.68652
20
0.102531
11
0.687704
21
0.102602
0
LINE
8
BLACK
6
CONTINUOUS
10
0.687704
20
0.102602
11
0.688027
21
0.102441
0
LINE
8
BLACK
6
CONTINUOUS
10
0.678778
20
0.0549158
11
0.694262
21
0.0549158
0
LINE
8
BLACK
6
CONTINUOUS
10
0.694262
20
0.0549158
11
0.68652
21
0.078142
0
LINE
8
BLACK
6
CONTINUOUS
10
0.68652
20
0.078142
11
0.678778
21
0.0549158
0
LINE
8
BLACK
6
CONTINUOUS
10
0.276564
20
0.0802786
11
0.278725
21
0.078117
0
LINE
8
BLACK
6
CONTINUOUS
10
0.278725
20
0.078117
11
0.279516
21
0.0751643
0
LINE
8
BLACK
6
CONTINUOUS
10
0.279516
20
0.0751643
11
0.278725
21
0.0722115
0
LINE
8
BLACK
6
CONTINUOUS
10
0.278725
20
0.0722115
11
0.276564
21
0.0700499
0
LINE
8
BLACK
6
CONTINUOUS
10
0.276564
20
0.0700499
11
0.273611
21
0.0692587
0
LINE
8
BLACK
6
CONTINUOUS
10
0.273611
20
0.0692587
11
0.254828
21
0.0692587
0
LINE
8
BLACK
6
CONTINUOUS
10
0.254828
20
0.0692587
11
0.278254
21
0.0394428
0
LINE
8
BLACK
6
CONTINUOUS
10
0.278254
20
0.0394428
11
0.278423
21
0.0390494
0
LINE
8
BLACK
6
CONTINUOUS
10
0.278423
20
0.0390494
11
0.278725
21
0.0387469
0
LINE
8
BLACK
6
CONTINUOUS
10
0.278725
20
0.0387469
11
0.279015
21
0.0376635
0
LINE
8
BLACK
6
CONTINUOUS
10
0.279015
20
0.0376635
11
0.279457
21
0.0366321
0
LINE
8
BLACK
6
CONTINUOUS
10
0.279457
20
0.0366321
11
0.279406
21
0.0362074
0
LINE
8
BLACK
6
CONTINUOUS
10
0.279406
20
0.0362074
11
0.279516
21
0.0357942
0
LINE
8
BLACK
6
CONTINUOUS
10
0.279516
20
0.0357942
11
0.279226
21
0.0347106
0
LINE
8
BLACK
6
CONTINUOUS
10
0.279226
20
0.0347106
11
0.279092
21
0.033597
0
LINE
8
BLACK
6
CONTINUOUS
10
0.279092
20
0.033597
11
0.278836
21
0.0332547
0
LINE
8
BLACK
6
CONTINUOUS
10
0.278836
20
0.0332547
11
0.278725
21
0.0328414
0
LINE
8
BLACK
6
CONTINUOUS
10
0.278725
20
0.0328414
11
0.277932
21
0.0320481
0
LINE
8
BLACK
6
CONTINUOUS
10
0.277932
20
0.0320481
11
0.277259
21
0.0311506
0
LINE
8
BLACK
6
CONTINUOUS
10
0.277259
20
0.0311506
11
0.276866
21
0.0309824
0
LINE
8
BLACK
6
CONTINUOUS
10
0.276866
20
0.0309824
11
0.276564
21
0.0306798
0
LINE
8
BLACK
6
CONTINUOUS
10
0.276564
20
0.0306798
11
0.27548
21
0.0303895
0
LINE
8
BLACK
6
CONTINUOUS
10
0.27548
20
0.0303895
11
0.274449
21
0.0299484
0
LINE
8
BLACK
6
CONTINUOUS
10
0.274449
20
0.0299484
11
0.274024
21
0.0299994
0
LINE
8
BLACK
6
CONTINUOUS
10
0.274024
20
0.0299994
11
0.273611
21
0.0298887
0
LINE
8
BLACK
6
CONTINUOUS
10
0.273611
20
0.0298887
11
0.242677
21
0.0298887
0
LINE
8
BLACK
6
CONTINUOUS
10
0.242677
20
0.0298887
11
0.239724
21
0.0306798
0
LINE
8
BLACK
6
CONTINUOUS
10
0.239724
20
0.0306798
11
0.237563
21
0.0328414
0
LINE
8
BLACK
6
CONTINUOUS
10
0.237563
20
0.0328414
11
0.236772
21
0.0357942
0
LINE
8
BLACK
6
CONTINUOUS
10
0.236772
20
0.0357942
11
0.237563
21
0.0387469
0
LINE
8
BLACK
6
CONTINUOUS
10
0.237563
20
0.0387469
11
0.239724
21
0.0409085
0
LINE
8
BLACK
6
CONTINUOUS
10
0.239724
20
0.0409085
11
0.242677
21
0.0416997
0
LINE
8
BLACK
6
CONTINUOUS
10
0.242677
20
0.0416997
11
0.26146
21
0.0416997
0
LINE
8
BLACK
6
CONTINUOUS
10
0.26146
20
0.0416997
11
0.238034
21
0.0715157
0
LINE
8
BLACK
6
CONTINUOUS
10
0.238034
20
0.0715157
11
0.237865
21
0.071909
0
LINE
8
BLACK
6
CONTINUOUS
10
0.237865
20
0.071909
11
0.237563
21
0.0722115
0
LINE
8
BLACK
6
CONTINUOUS
10
0.237563
20
0.0722115
11
0.237273
21
0.0732949
0
LINE
8
BLACK
6
CONTINUOUS
10
0.237273
20
0.0732949
11
0.236831
21
0.0743263
0
LINE
8
BLACK
6
CONTINUOUS
10
0.236831
20
0.0743263
11
0.236882
21
0.0747511
0
LINE
8
BLACK
6
CONTINUOUS
10
0.236882
20
0.0747511
11
0.236772
21
0.0751643
0
LINE
8
BLACK
6
CONTINUOUS
10
0.236772
20
0.0751643
11
0.237062
21
0.0762478
0
LINE
8
BLACK
6
CONTINUOUS
10
0.237062
20
0.0762478
11
0.237196
21
0.0773615
0
LINE
8
BLACK
6
CONTINUOUS
10
0.237196
20
0.0773615
11
0.237452
21
0.0777038
0
LINE
8
BLACK
6
CONTINUOUS
10
0.237452
20
0.0777038
11
0.237563
21
0.078117
0
LINE
8
BLACK
6
CONTINUOUS
10
0.237563
20
0.078117
11
0.238356
21
0.0789102
0
LINE
8
BLACK
6
CONTINUOUS
10
0.238356
20
0.0789102
11
0.239029
21
0.0798079
0
LINE
8
BLACK
6
CONTINUOUS
10
0.239029
20
0.0798079
11
0.239422
21
0.0799761
0
LINE
8
BLACK
6
CONTINUOUS
10
0.239422
20
0.0799761
11
0.239724
21
0.0802786
0
LINE
8
BLACK
6
CONTINUOUS
10
0.239724
20
0.0802786
11
0.240808
21
0.0805689
0
LINE
8
BLACK
6
CONTINUOUS
10
0.240808
20
0.0805689
11
0.241839
21
0.08101
0
LINE
8
BLACK
6
CONTINUOUS
10
0.241839
20
0.08101
11
0.242264
21
0.0809591
0
LINE
8
BLACK
6
CONTINUOUS
10
0.242264
20
0.0809591
11
0.242677
21
0.0810698
0
LINE
8
BLACK
6
CONTINUOUS
10
0.242677
20
0.0810698
11
0.273611
21
0.0810698
0
LINE
8
BLACK
6
CONTINUOUS
10
0.273611
20
0.0810698
11
0.276564
21
0.0802786
0
LINE
8
BLACK
6
CONTINUOUS
10
0.31148
20
0.0807185
11
0.31281
21
0.0804463
0
LINE
8
BLACK
6
CONTINUOUS
10
0.31281
20
0.0804463
11
0.318434
21
0.0776341
0
LINE
8
BLACK
6
CONTINUOUS
10
0.318434
20
0.0776341
11
0.319145
21
0.0770033
0
LINE
8
BLACK
6
CONTINUOUS
10
0.319145
20
0.0770033
11
0.319969
21
0.076528
0
LINE
8
BLACK
6
CONTINUOUS
10
0.319969
20
0.076528
11
0.322781
21
0.0737158
0
LINE
8
BLACK
6
CONTINUOUS
10
0.322781
20
0.0737158
11
0.323256
21
0.0728924
0
LINE
8
BLACK
6
CONTINUOUS
10
0.323256
20
0.0728924
11
0.323887
21
0.072181
0
LINE
8
BLACK
6
CONTINUOUS
10
0.323887
20
0.072181
11
0.326699
21
0.0665567
0
LINE
8
BLACK
6
CONTINUOUS
10
0.326699
20
0.0665567
11
0.326971
21
0.0652269
0
LINE
8
BLACK
6
CONTINUOUS
10
0.326971
20
0.0652269
11
0.327323
21
0.0639157
0
LINE
8
BLACK
6
CONTINUOUS
10
0.327323
20
0.0639157
11
0.327323
21
0.0470428
0
LINE
8
BLACK
6
CONTINUOUS
10
0.327323
20
0.0470428
11
0.326971
21
0.0457315
0
LINE
8
BLACK
6
CONTINUOUS
10
0.326971
20
0.0457315
11
0.326699
21
0.0444018
0
LINE
8
BLACK
6
CONTINUOUS
10
0.326699
20
0.0444018
11
0.323887
21
0.0387774
0
LINE
8
BLACK
6
CONTINUOUS
10
0.323887
20
0.0387774
11
0.323256
21
0.0380661
0
LINE
8
BLACK
6
CONTINUOUS
10
0.323256
20
0.0380661
11
0.322781
21
0.0372426
0
LINE
8
BLACK
6
CONTINUOUS
10
0.322781
20
0.0372426
11
0.319969
21
0.0344305
0
LINE
8
BLACK
6
CONTINUOUS
10
0.319969
20
0.0344305
11
0.319145
21
0.0339551
0
LINE
8
BLACK
6
CONTINUOUS
10
0.319145
20
0.0339551
11
0.318434
21
0.0333243
0
LINE
8
BLACK
6
CONTINUOUS
10
0.318434
20
0.0333243
11
0.31281
21
0.0305121
0
LINE
8
BLACK
6
CONTINUOUS
10
0.31281
20
0.0305121
11
0.31148
21
0.03024
0
LINE
8
BLACK
6
CONTINUOUS
10
0.31148
20
0.03024
11
0.310169
21
0.0298887
0
LINE
8
BLACK
6
CONTINUOUS
10
0.310169
20
0.0298887
11
0.29892
21
0.0298887
0
LINE
8
BLACK
6
CONTINUOUS
10
0.29892
20
0.0298887
11
0.297609
21
0.03024
0
LINE
8
BLACK
6
CONTINUOUS
10
0.297609
20
0.03024
11
0.296279
21
0.0305121
0
LINE
8
BLACK
6
CONTINUOUS
10
0.296279
20
0.0305121
11
0.290655
21
0.0333243
0
LINE
8
BLACK
6
CONTINUOUS
10
0.290655
20
0.0333243
11
0.288368
21
0.0353524
0
LINE
8
BLACK
6
CONTINUOUS
10
0.288368
20
0.0353524
11
0.287401
21
0.0382524
0
LINE
8
BLACK
6
CONTINUOUS
10
0.287401
20
0.0382524
11
0.288014
21
0.0412473
0
LINE
8
BLACK
6
CONTINUOUS
10
0.288014
20
0.0412473
11
0.290042
21
0.0435345
0
LINE
8
BLACK
6
CONTINUOUS
10
0.290042
20
0.0435345
11
0.292942
21
0.0445012
0
LINE
8
BLACK
6
CONTINUOUS
10
0.292942
20
0.0445012
11
0.295937
21
0.0438883
0
LINE
8
BLACK
6
CONTINUOUS
10
0.295937
20
0.0438883
11
0.300314
21
0.0416997
0
LINE
8
BLACK
6
CONTINUOUS
10
0.300314
20
0.0416997
11
0.308775
21
0.0416997
0
LINE
8
BLACK
6
CONTINUOUS
10
0.308775
20
0.0416997
11
0.312295
21
0.0434598
0
LINE
8
BLACK
6
CONTINUOUS
10
0.312295
20
0.0434598
11
0.313752
21
0.0449167
0
LINE
8
BLACK
6
CONTINUOUS
10
0.313752
20
0.0449167
11
0.315512
21
0.0484369
0
LINE
8
BLACK
6
CONTINUOUS
10
0.315512
20
0.0484369
11
0.315512
21
0.0625216
0
LINE
8
BLACK
6
CONTINUOUS
10
0.315512
20
0.0625216
11
0.313752
21
0.0660418
0
LINE
8
BLACK
6
CONTINUOUS
10
0.313752
20
0.0660418
11
0.312295
21
0.0674986
0
LINE
8
BLACK
6
CONTINUOUS
10
0.312295
20
0.0674986
11
0.308775
21
0.0692587
0
LINE
8
BLACK
6
CONTINUOUS
10
0.308775
20
0.0692587
11
0.300314
21
0.0692587
0
LINE
8
BLACK
6
CONTINUOUS
10
0.300314
20
0.0692587
11
0.295937
21
0.06707
0
LINE
8
BLACK
6
CONTINUOUS
10
0.295937
20
0.06707
11
0.292942
21
0.0664572
0
LINE
8
BLACK
6
CONTINUOUS
10
0.292942
20
0.0664572
11
0.290042
21
0.0674239
0
LINE
8
BLACK
6
CONTINUOUS
10
0.290042
20
0.0674239
11
0.288014
21
0.0697111
0
LINE
8
BLACK
6
CONTINUOUS
10
0.288014
20
0.0697111
11
0.287401
21
0.0727059
0
LINE
8
BLACK
6
CONTINUOUS
10
0.287401
20
0.0727059
11
0.288368
21
0.0756059
0
LINE
8
BLACK
6
CONTINUOUS
10
0.288368
20
0.0756059
11
0.290655
21
0.0776341
0
LINE
8
BLACK
6
CONTINUOUS
10
0.290655
20
0.0776341
11
0.296279
21
0.0804463
0
LINE
8
BLACK
6
CONTINUOUS
10
0.296279
20
0.0804463
11
0.297609
21
0.0807185
0
LINE
8
BLACK
6
CONTINUOUS
10
0.297609
20
0.0807185
11
0.29892
21
0.0810698
0
LINE
8
BLACK
6
CONTINUOUS
10
0.29892
20
0.0810698
11
0.310169
21
0.0810698
0
LINE
8
BLACK
6
CONTINUOUS
10
0.310169
20
0.0810698
11
0.31148
21
0.0807185
0
LINE
8
BLACK
6
CONTINUOUS
10
0.347478
20
0.0471228
11
0.348255
21
0.0471228
0
LINE
8
BLACK
6
CONTINUOUS
10
0.348255
20
0.0471228
11
0.348255
21
0.0471228
0
LINE
8
BLACK
6
CONTINUOUS
10
0.348255
20
0.0471228
11
0.348928
21
0.046734
0
LINE
8
BLACK
6
CONTINUOUS
10
0.348928
20
0.046734
11
0.349679
21
0.0465328
0
LINE
8
BLACK
6
CONTINUOUS
10
0.349679
20
0.0465328
11
0.350229
21
0.045983
0
LINE
8
BLACK
6
CONTINUOUS
10
0.350229
20
0.045983
11
0.350902
21
0.0455943
0
LINE
8
BLACK
6
CONTINUOUS
10
0.350902
20
0.0455943
11
0.350903
21
0.0455943
0
LINE
8
BLACK
6
CONTINUOUS
10
0.350903
20
0.0455943
11
0.353715
21
0.0427821
0
LINE
8
BLACK
6
CONTINUOUS
10
0.353715
20
0.0427821
11
0.355243
21
0.0401348
0
LINE
8
BLACK
6
CONTINUOUS
10
0.355243
20
0.0401348
11
0.355243
21
0.0401347
0
LINE
8
BLACK
6
CONTINUOUS
10
0.355243
20
0.0401347
11
0.355243
21
0.0370778
0
LINE
8
BLACK
6
CONTINUOUS
10
0.355243
20
0.0370778
11
0.354502
21
0.0357942
0
LINE
8
BLACK
6
CONTINUOUS
10
0.354502
20
0.0357942
11
0.353715
21
0.0344305
0
LINE
8
BLACK
6
CONTINUOUS
10
0.353715
20
0.0344305
11
0.350902
21
0.0316183
0
LINE
8
BLACK
6
CONTINUOUS
10
0.350902
20
0.0316183
11
0.350229
21
0.0312296
0
LINE
8
BLACK
6
CONTINUOUS
10
0.350229
20
0.0312296
11
0.349679
21
0.0306798
0
LINE
8
BLACK
6
CONTINUOUS
10
0.349679
20
0.0306798
11
0.348928
21
0.0304787
0
LINE
8
BLACK
6
CONTINUOUS
10
0.348928
20
0.0304787
11
0.348255
21
0.0300899
0
LINE
8
BLACK
6
CONTINUOUS
10
0.348255
20
0.0300899
11
0.347478
21
0.0300899
0
LINE
8
BLACK
6
CONTINUOUS
10
0.347478
20
0.0300899
11
0.346727
21
0.0298887
0
LINE
8
BLACK
6
CONTINUOUS
10
0.346727
20
0.0298887
11
0.345976
21
0.0300899
0
LINE
8
BLACK
6
CONTINUOUS
10
0.345976
20
0.0300899
11
0.345198
21
0.0300899
0
LINE
8
BLACK
6
CONTINUOUS
10
0.345198
20
0.0300899
11
0.345198
21
0.0300899
0
LINE
8
BLACK
6
CONTINUOUS
10
0.345198
20
0.0300899
11
0.344525
21
0.0304786
0
LINE
8
BLACK
6
CONTINUOUS
10
0.344525
20
0.0304786
11
0.343774
21
0.0306798
0
LINE
8
BLACK
6
CONTINUOUS
10
0.343774
20
0.0306798
11
0.343224
21
0.0312296
0
LINE
8
BLACK
6
CONTINUOUS
10
0.343224
20
0.0312296
11
0.342971
21
0.0313757
0
LINE
8
BLACK
6
CONTINUOUS
10
0.342971
20
0.0313757
11
0.342551
21
0.0316183
0
LINE
8
BLACK
6
CONTINUOUS
10
0.342551
20
0.0316183
11
0.339739
21
0.0344304
0
LINE
8
BLACK
6
CONTINUOUS
10
0.339739
20
0.0344304
11
0.339739
21
0.0344305
0
LINE
8
BLACK
6
CONTINUOUS
10
0.339739
20
0.0344305
11
0.338951
21
0.0357942
0
LINE
8
BLACK
6
CONTINUOUS
10
0.338951
20
0.0357942
11
0.33821
21
0.0370778
0
LINE
8
BLACK
6
CONTINUOUS
10
0.33821
20
0.0370778
11
0.33821
21
0.0401347
0
LINE
8
BLACK
6
CONTINUOUS
10
0.33821
20
0.0401347
11
0.33821
21
0.0401348
0
LINE
8
BLACK
6
CONTINUOUS
10
0.33821
20
0.0401348
11
0.339739
21
0.0427821
0
LINE
8
BLACK
6
CONTINUOUS
10
0.339739
20
0.0427821
11
0.342551
21
0.0455943
0
LINE
8
BLACK
6
CONTINUOUS
10
0.342551
20
0.0455943
11
0.342551
21
0.0455943
0
LINE
8
BLACK
6
CONTINUOUS
10
0.342551
20
0.0455943
11
0.342551
21
0.0455943
0
LINE
8
BLACK
6
CONTINUOUS
10
0.342551
20
0.0455943
11
0.343224
21
0.0459831
0
LINE
8
BLACK
6
CONTINUOUS
10
0.343224
20
0.0459831
11
0.343774
21
0.0465328
0
LINE
8
BLACK
6
CONTINUOUS
10
0.343774
20
0.0465328
11
0.344525
21
0.0467341
0
LINE
8
BLACK
6
CONTINUOUS
10
0.344525
20
0.0467341
11
0.345198
21
0.0471228
0
LINE
8
BLACK
6
CONTINUOUS
10
0.345198
20
0.0471228
11
0.345976
21
0.0471228
0
LINE
8
BLACK
6
CONTINUOUS
10
0.345976
20
0.0471228
11
0.346727
21
0.047324
0
LINE
8
BLACK
6
CONTINUOUS
10
0.346727
20
0.047324
11
0.347478
21
0.0471228
0
LINE
8
BLACK
6
CONTINUOUS
10
0.408735
20
0.0999636
11
0.410896
21
0.097802
0
LINE
8
BLACK
6
CONTINUOUS
10
0.410896
20
0.097802
11
0.411687
21
0.0948493
0
LINE
8
BLACK
6
CONTINUOUS
10
0.411687
20
0.0948493
11
0.411687
21
0.0357942
0
LINE
8
BLACK
6
CONTINUOUS
10
0.411687
20
0.0357942
11
0.410896
21
0.0328414
0
LINE
8
BLACK
6
CONTINUOUS
10
0.410896
20
0.0328414
11
0.408735
21
0.0306798
0
LINE
8
BLACK
6
CONTINUOUS
10
0.408735
20
0.0306798
11
0.405782
21
0.0298887
0
LINE
8
BLACK
6
CONTINUOUS
10
0.405782
20
0.0298887
11
0.383285
21
0.0298887
0
LINE
8
BLACK
6
CONTINUOUS
10
0.383285
20
0.0298887
11
0.381973
21
0.03024
0
LINE
8
BLACK
6
CONTINUOUS
10
0.381973
20
0.03024
11
0.380644
21
0.0305121
0
LINE
8
BLACK
6
CONTINUOUS
10
0.380644
20
0.0305121
11
0.375019
21
0.0333243
0
LINE
8
BLACK
6
CONTINUOUS
10
0.375019
20
0.0333243
11
0.374308
21
0.0339551
0
LINE
8
BLACK
6
CONTINUOUS
10
0.374308
20
0.0339551
11
0.373484
21
0.0344305
0
LINE
8
BLACK
6
CONTINUOUS
10
0.373484
20
0.0344305
11
0.370672
21
0.0372426
0
LINE
8
BLACK
6
CONTINUOUS
10
0.370672
20
0.0372426
11
0.370197
21
0.0380661
0
LINE
8
BLACK
6
CONTINUOUS
10
0.370197
20
0.0380661
11
0.369566
21
0.0387774
0
LINE
8
BLACK
6
CONTINUOUS
10
0.369566
20
0.0387774
11
0.366754
21
0.0444017
0
LINE
8
BLACK
6
CONTINUOUS
10
0.366754
20
0.0444017
11
0.366482
21
0.0457316
0
LINE
8
BLACK
6
CONTINUOUS
10
0.366482
20
0.0457316
11
0.36613
21
0.0470428
0
LINE
8
BLACK
6
CONTINUOUS
10
0.36613
20
0.0470428
11
0.36613
21
0.0554792
0
LINE
8
BLACK
6
CONTINUOUS
10
0.36613
20
0.0554792
11
0.366482
21
0.0567904
0
LINE
8
BLACK
6
CONTINUOUS
10
0.366482
20
0.0567904
11
0.366754
21
0.0581202
0
LINE
8
BLACK
6
CONTINUOUS
10
0.366754
20
0.0581202
11
0.369566
21
0.0637445
0
LINE
8
BLACK
6
CONTINUOUS
10
0.369566
20
0.0637445
11
0.370197
21
0.0644559
0
LINE
8
BLACK
6
CONTINUOUS
10
0.370197
20
0.0644559
11
0.370672
21
0.0652793
0
LINE
8
BLACK
6
CONTINUOUS
10
0.370672
20
0.0652793
11
0.373484
21
0.0680915
0
LINE
8
BLACK
6
CONTINUOUS
10
0.373484
20
0.0680915
11
0.373538
21
0.0681226
0
LINE
8
BLACK
6
CONTINUOUS
10
0.373538
20
0.0681226
11
0.373484
21
0.0681762
0
LINE
8
BLACK
6
CONTINUOUS
10
0.373484
20
0.0681762
11
0.373009
21
0.0689997
0
LINE
8
BLACK
6
CONTINUOUS
10
0.373009
20
0.0689997
11
0.372378
21
0.0697111
0
LINE
8
BLACK
6
CONTINUOUS
10
0.372378
20
0.0697111
11
0.369566
21
0.0753354
0
LINE
8
BLACK
6
CONTINUOUS
10
0.369566
20
0.0753354
11
0.369294
21
0.0766653
0
LINE
8
BLACK
6
CONTINUOUS
10
0.369294
20
0.0766653
11
0.368943
21
0.0779764
0
LINE
8
BLACK
6
CONTINUOUS
10
0.368943
20
0.0779764
11
0.368943
21
0.0836007
0
LINE
8
BLACK
6
CONTINUOUS
10
0.368943
20
0.0836007
11
0.369294
21
0.0849118
0
LINE
8
BLACK
6
CONTINUOUS
10
0.369294
20
0.0849118
11
0.369566
21
0.0862417
0
LINE
8
BLACK
6
CONTINUOUS
10
0.369566
20
0.0862417
11
0.372378
21
0.091866
0
LINE
8
BLACK
6
CONTINUOUS
10
0.372378
20
0.091866
11
0.373009
21
0.0925774
0
LINE
8
BLACK
6
CONTINUOUS
10
0.373009
20
0.0925774
11
0.373484
21
0.0934009
0
LINE
8
BLACK
6
CONTINUOUS
10
0.373484
20
0.0934009
11
0.376297
21
0.096213
0
LINE
8
BLACK
6
CONTINUOUS
10
0.376297
20
0.096213
11
0.37712
21
0.0966884
0
LINE
8
BLACK
6
CONTINUOUS
10
0.37712
20
0.0966884
11
0.377831
21
0.0973192
0
LINE
8
BLACK
6
CONTINUOUS
10
0.377831
20
0.0973192
11
0.383456
21
0.100131
0
LINE
8
BLACK
6
CONTINUOUS
10
0.383456
20
0.100131
11
0.384786
21
0.100404
0
LINE
8
BLACK
6
CONTINUOUS
10
0.384786
20
0.100404
11
0.386097
21
0.100755
0
LINE
8
BLACK
6
CONTINUOUS
10
0.386097
20
0.100755
11
0.405782
21
0.100755
0
LINE
8
BLACK
6
CONTINUOUS
10
0.405782
20
0.100755
11
0.408735
21
0.0999636
0
LINE
8
BLACK
6
CONTINUOUS
10
0.38085
20
0.0587541
11
0.379702
21
0.0576053
0
LINE
8
BLACK
6
CONTINUOUS
10
0.379702
20
0.0576053
11
0.377941
21
0.0540852
0
LINE
8
BLACK
6
CONTINUOUS
10
0.377941
20
0.0540852
11
0.377941
21
0.0484369
0
LINE
8
BLACK
6
CONTINUOUS
10
0.377941
20
0.0484369
11
0.379702
21
0.0449167
0
LINE
8
BLACK
6
CONTINUOUS
10
0.379702
20
0.0449167
11
0.381158
21
0.0434598
0
LINE
8
BLACK
6
CONTINUOUS
10
0.381158
20
0.0434598
11
0.384679
21
0.0416997
0
LINE
8
BLACK
6
CONTINUOUS
10
0.384679
20
0.0416997
11
0.399876
21
0.0416997
0
LINE
8
BLACK
6
CONTINUOUS
10
0.399876
20
0.0416997
11
0.399876
21
0.0608223
0
LINE
8
BLACK
6
CONTINUOUS
10
0.399876
20
0.0608223
11
0.387055
21
0.0608223
0
LINE
8
BLACK
6
CONTINUOUS
10
0.387055
20
0.0608223
11
0.38085
21
0.0587541
0
LINE
8
BLACK
6
CONTINUOUS
10
0.383971
20
0.0871837
11
0.382514
21
0.0857269
0
LINE
8
BLACK
6
CONTINUOUS
10
0.382514
20
0.0857269
11
0.380754
21
0.0822066
0
LINE
8
BLACK
6
CONTINUOUS
10
0.380754
20
0.0822066
11
0.380754
21
0.0793705
0
LINE
8
BLACK
6
CONTINUOUS
10
0.380754
20
0.0793705
11
0.382514
21
0.0758503
0
LINE
8
BLACK
6
CONTINUOUS
10
0.382514
20
0.0758503
11
0.383971
21
0.0743935
0
LINE
8
BLACK
6
CONTINUOUS
10
0.383971
20
0.0743935
11
0.387491
21
0.0726333
0
LINE
8
BLACK
6
CONTINUOUS
10
0.387491
20
0.0726333
11
0.399876
21
0.0726333
0
LINE
8
BLACK
6
CONTINUOUS
10
0.399876
20
0.0726333
11
0.399876
21
0.0889438
0
LINE
8
BLACK
6
CONTINUOUS
10
0.399876
20
0.0889438
11
0.387491
21
0.0889438
0
LINE
8
BLACK
6
CONTINUOUS
10
0.387491
20
0.0889438
11
0.383971
21
0.0871837
0
LINE
8
BLACK
6
CONTINUOUS
10
0.50716
20
0.0999636
11
0.509321
21
0.097802
0
LINE
8
BLACK
6
CONTINUOUS
10
0.509321
20
0.097802
11
0.510112
21
0.0948493
0
LINE
8
BLACK
6
CONTINUOUS
10
0.510112
20
0.0948493
11
0.510112
21
0.0357942
0
LINE
8
BLACK
6
CONTINUOUS
10
0.510112
20
0.0357942
11
0.509321
21
0.0328414
0
LINE
8
BLACK
6
CONTINUOUS
10
0.509321
20
0.0328414
11
0.50716
21
0.0306798
0
LINE
8
BLACK
6
CONTINUOUS
10
0.50716
20
0.0306798
11
0.504207
21
0.0298887
0
LINE
8
BLACK
6
CONTINUOUS
10
0.504207
20
0.0298887
11
0.476085
21
0.0298887
0
LINE
8
BLACK
6
CONTINUOUS
10
0.476085
20
0.0298887
11
0.473133
21
0.0306798
0
LINE
8
BLACK
6
CONTINUOUS
10
0.473133
20
0.0306798
11
0.470971
21
0.0328414
0
LINE
8
BLACK
6
CONTINUOUS
10
0.470971
20
0.0328414
11
0.470541
21
0.0344471
0
LINE
8
BLACK
6
CONTINUOUS
10
0.470541
20
0.0344471
11
0.469255
21
0.031876
0
LINE
8
BLACK
6
CONTINUOUS
10
0.469255
20
0.031876
11
0.466704
21
0.0301917
0
LINE
8
BLACK
6
CONTINUOUS
10
0.466704
20
0.0301917
11
0.463653
21
0.0300085
0
LINE
8
BLACK
6
CONTINUOUS
10
0.463653
20
0.0300085
11
0.460919
21
0.0313756
0
LINE
8
BLACK
6
CONTINUOUS
10
0.460919
20
0.0313756
11
0.459234
21
0.0339267
0
LINE
8
BLACK
6
CONTINUOUS
10
0.459234
20
0.0339267
11
0.454956
21
0.0467615
0
LINE
8
BLACK
6
CONTINUOUS
10
0.454956
20
0.0467615
11
0.435348
21
0.0467615
0
LINE
8
BLACK
6
CONTINUOUS
10
0.435348
20
0.0467615
11
0.431069
21
0.0339267
0
LINE
8
BLACK
6
CONTINUOUS
10
0.431069
20
0.0339267
11
0.429385
21
0.0313757
0
LINE
8
BLACK
6
CONTINUOUS
10
0.429385
20
0.0313757
11
0.426651
21
0.0300085
0
LINE
8
BLACK
6
CONTINUOUS
10
0.426651
20
0.0300085
11
0.423599
21
0.0301917
0
LINE
8
BLACK
6
CONTINUOUS
10
0.423599
20
0.0301917
11
0.421048
21
0.031876
0
LINE
8
BLACK
6
CONTINUOUS
10
0.421048
20
0.031876
11
0.419681
21
0.0346102
0
LINE
8
BLACK
6
CONTINUOUS
10
0.419681
20
0.0346102
11
0.419864
21
0.0376617
0
LINE
8
BLACK
6
CONTINUOUS
10
0.419864
20
0.0376617
11
0.439549
21
0.0967168
0
LINE
8
BLACK
6
CONTINUOUS
10
0.439549
20
0.0967168
11
0.440203
21
0.0977066
0
LINE
8
BLACK
6
CONTINUOUS
10
0.440203
20
0.0977066
11
0.440733
21
0.0987674
0
LINE
8
BLACK
6
CONTINUOUS
10
0.440733
20
0.0987674
11
0.441035
21
0.0989664
0
LINE
8
BLACK
6
CONTINUOUS
10
0.441035
20
0.0989664
11
0.441234
21
0.0992678
0
LINE
8
BLACK
6
CONTINUOUS
10
0.441234
20
0.0992678
11
0.442295
21
0.0997984
0
LINE
8
BLACK
6
CONTINUOUS
10
0.442295
20
0.0997984
11
0.443284
21
0.100452
0
LINE
8
BLACK
6
CONTINUOUS
10
0.443284
20
0.100452
11
0.443645
21
0.100473
0
LINE
8
BLACK
6
CONTINUOUS
10
0.443645
20
0.100473
11
0.443968
21
0.100635
0
LINE
8
BLACK
6
CONTINUOUS
10
0.443968
20
0.100635
11
0.445152
21
0.100564
0
LINE
8
BLACK
6
CONTINUOUS
10
0.445152
20
0.100564
11
0.446336
21
0.100635
0
LINE
8
BLACK
6
CONTINUOUS
10
0.446336
20
0.100635
11
0.446659
21
0.100473
0
LINE
8
BLACK
6
CONTINUOUS
10
0.446659
20
0.100473
11
0.447019
21
0.100452
0
LINE
8
BLACK
6
CONTINUOUS
10
0.447019
20
0.100452
11
0.448009
21
0.0997982
0
LINE
8
BLACK
6
CONTINUOUS
10
0.448009
20
0.0997982
11
0.44907
21
0.0992678
0
LINE
8
BLACK
6
CONTINUOUS
10
0.44907
20
0.0992678
11
0.449269
21
0.0989665
0
LINE
8
BLACK
6
CONTINUOUS
10
0.449269
20
0.0989665
11
0.44957
21
0.0987674
0
LINE
8
BLACK
6
CONTINUOUS
10
0.44957
20
0.0987674
11
0.450101
21
0.0977064
0
LINE
8
BLACK
6
CONTINUOUS
10
0.450101
20
0.0977064
11
0.450754
21
0.0967168
0
LINE
8
BLACK
6
CONTINUOUS
10
0.450754
20
0.0967168
11
0.470439
21
0.0376617
0
LINE
8
BLACK
6
CONTINUOUS
10
0.470439
20
0.0376617
11
0.470483
21
0.0369268
0
LINE
8
BLACK
6
CONTINUOUS
10
0.470483
20
0.0369268
11
0.470971
21
0.0387469
0
LINE
8
BLACK
6
CONTINUOUS
10
0.470971
20
0.0387469
11
0.473133
21
0.0409085
0
LINE
8
BLACK
6
CONTINUOUS
10
0.473133
20
0.0409085
11
0.476085
21
0.0416997
0
LINE
8
BLACK
6
CONTINUOUS
10
0.476085
20
0.0416997
11
0.498301
21
0.0416997
0
LINE
8
BLACK
6
CONTINUOUS
10
0.498301
20
0.0416997
11
0.498301
21
0.0948493
0
LINE
8
BLACK
6
CONTINUOUS
10
0.498301
20
0.0948493
11
0.499093
21
0.097802
0
LINE
8
BLACK
6
CONTINUOUS
10
0.499093
20
0.097802
11
0.501254
21
0.0999636
0
LINE
8
BLACK
6
CONTINUOUS
10
0.501254
20
0.0999636
11
0.504207
21
0.100755
0
LINE
8
BLACK
6
CONTINUOUS
10
0.504207
20
0.100755
11
0.50716
21
0.0999636
0
LINE
8
BLACK
6
CONTINUOUS
10
0.439285
20
0.0585726
11
0.451019
21
0.0585726
0
LINE
8
BLACK
6
CONTINUOUS
10
0.451019
20
0.0585726
11
0.445152
21
0.0761744
0
LINE
8
BLACK
6
CONTINUOUS
10
0.445152
20
0.0761744
11
0.439285
21
0.0585726
0
LINE
8
BLACK
6
CONTINUOUS
10
0.572935
20
0.100424
11
0.574196
21
0.100201
0
LINE
8
BLACK
6
CONTINUOUS
10
0.574196
20
0.100201
11
0.574397
21
0.100032
0
LINE
8
BLACK
6
CONTINUOUS
10
0.574397
20
0.100032
11
0.574651
21
0.0999636
0
LINE
8
BLACK
6
CONTINUOUS
10
0.574651
20
0.0999636
11
0.575556
21
0.0990585
0
LINE
8
BLACK
6
CONTINUOUS
10
0.575556
20
0.0990585
11
0.576537
21
0.0982352
0
LINE
8
BLACK
6
CONTINUOUS
10
0.576537
20
0.0982352
11
0.576627
21
0.097988
0
LINE
8
BLACK
6
CONTINUOUS
10
0.576627
20
0.097988
11
0.576813
21
0.097802
0
LINE
8
BLACK
6
CONTINUOUS
10
0.576813
20
0.097802
11
0.577144
21
0.0965655
0
LINE
8
BLACK
6
CONTINUOUS
10
0.577144
20
0.0965655
11
0.577582
21
0.0953623
0
LINE
8
BLACK
6
CONTINUOUS
10
0.577582
20
0.0953623
11
0.577536
21
0.0951033
0
LINE
8
BLACK
6
CONTINUOUS
10
0.577536
20
0.0951033
11
0.577604
21
0.0948493
0
LINE
8
BLACK
6
CONTINUOUS
10
0.577604
20
0.0948493
11
0.577604
21
0.0357942
0
LINE
8
BLACK
6
CONTINUOUS
10
0.577604
20
0.0357942
11
0.576813
21
0.0328414
0
LINE
8
BLACK
6
CONTINUOUS
10
0.576813
20
0.0328414
11
0.574651
21
0.0306798
0
LINE
8
BLACK
6
CONTINUOUS
10
0.574651
20
0.0306798
11
0.571699
21
0.0298887
0
LINE
8
BLACK
6
CONTINUOUS
10
0.571699
20
0.0298887
11
0.568746
21
0.0306798
0
LINE
8
BLACK
6
CONTINUOUS
10
0.568746
20
0.0306798
11
0.566584
21
0.0328414
0
LINE
8
BLACK
6
CONTINUOUS
10
0.566584
20
0.0328414
11
0.565793
21
0.0357942
0
LINE
8
BLACK
6
CONTINUOUS
10
0.565793
20
0.0357942
11
0.565793
21
0.0682298
0
LINE
8
BLACK
6
CONTINUOUS
10
0.565793
20
0.0682298
11
0.557365
21
0.0501697
0
LINE
8
BLACK
6
CONTINUOUS
10
0.557365
20
0.0501697
11
0.55703
21
0.0497708
0
LINE
8
BLACK
6
CONTINUOUS
10
0.55703
20
0.0497708
11
0.556852
21
0.0492812
0
LINE
8
BLACK
6
CONTINUOUS
10
0.556852
20
0.0492812
11
0.556062
21
0.0486181
0
LINE
8
BLACK
6
CONTINUOUS
10
0.556062
20
0.0486181
11
0.555399
21
0.0478285
0
LINE
8
BLACK
6
CONTINUOUS
10
0.555399
20
0.0478285
11
0.55491
21
0.0476506
0
LINE
8
BLACK
6
CONTINUOUS
10
0.55491
20
0.0476506
11
0.554511
21
0.0473156
0
LINE
8
BLACK
6
CONTINUOUS
10
0.554511
20
0.0473156
11
0.553495
21
0.0471362
0
LINE
8
BLACK
6
CONTINUOUS
10
0.553495
20
0.0471362
11
0.552526
21
0.0467839
0
LINE
8
BLACK
6
CONTINUOUS
10
0.552526
20
0.0467839
11
0.552014
21
0.0468744
0
LINE
8
BLACK
6
CONTINUOUS
10
0.552014
20
0.0468744
11
0.551501
21
0.0467838
0
LINE
8
BLACK
6
CONTINUOUS
10
0.551501
20
0.0467838
11
0.550531
21
0.0471363
0
LINE
8
BLACK
6
CONTINUOUS
10
0.550531
20
0.0471363
11
0.549516
21
0.0473156
0
LINE
8
BLACK
6
CONTINUOUS
10
0.549516
20
0.0473156
11
0.549117
21
0.0476505
0
LINE
8
BLACK
6
CONTINUOUS
10
0.549117
20
0.0476505
11
0.548628
21
0.0478285
0
LINE
8
BLACK
6
CONTINUOUS
10
0.548628
20
0.0478285
11
0.547965
21
0.0486183
0
LINE
8
BLACK
6
CONTINUOUS
10
0.547965
20
0.0486183
11
0.547175
21
0.0492812
0
LINE
8
BLACK
6
CONTINUOUS
10
0.547175
20
0.0492812
11
0.546997
21
0.0497708
0
LINE
8
BLACK
6
CONTINUOUS
10
0.546997
20
0.0497708
11
0.546662
21
0.0501697
0
LINE
8
BLACK
6
CONTINUOUS
10
0.546662
20
0.0501697
11
0.538234
21
0.0682299
0
LINE
8
BLACK
6
CONTINUOUS
10
0.538234
20
0.0682299
11
0.538234
21
0.0357942
0
LINE
8
BLACK
6
CONTINUOUS
10
0.538234
20
0.0357942
11
0.537443
21
0.0328414
0
LINE
8
BLACK
6
CONTINUOUS
10
0.537443
20
0.0328414
11
0.535281
21
0.0306798
0
LINE
8
BLACK
6
CONTINUOUS
10
0.535281
20
0.0306798
11
0.532328
21
0.0298887
0
LINE
8
BLACK
6
CONTINUOUS
10
0.532328
20
0.0298887
11
0.529376
21
0.0306798
0
LINE
8
BLACK
6
CONTINUOUS
10
0.529376
20
0.0306798
11
0.527214
21
0.0328414
0
LINE
8
BLACK
6
CONTINUOUS
10
0.527214
20
0.0328414
11
0.526423
21
0.0357942
0
LINE
8
BLACK
6
CONTINUOUS
10
0.526423
20
0.0357942
11
0.526423
21
0.0948493
0
LINE
8
BLACK
6
CONTINUOUS
10
0.526423
20
0.0948493
11
0.526491
21
0.0951033
0
LINE
8
BLACK
6
CONTINUOUS
10
0.526491
20
0.0951033
11
0.526445
21
0.0953622
0
LINE
8
BLACK
6
CONTINUOUS
10
0.526445
20
0.0953622
11
0.526883
21
0.0965653
0
LINE
8
BLACK
6
CONTINUOUS
10
0.526883
20
0.0965653
11
0.527214
21
0.097802
0
LINE
8
BLACK
6
CONTINUOUS
10
0.527214
20
0.097802
11
0.5274
21
0.097988
0
LINE
8
BLACK
6
CONTINUOUS
10
0.5274
20
0.097988
11
0.52749
21
0.0982351
0
LINE
8
BLACK
6
CONTINUOUS
10
0.52749
20
0.0982351
11
0.52847
21
0.0990582
0
LINE
8
BLACK
6
CONTINUOUS
10
0.52847
20
0.0990582
11
0.529376
21
0.0999636
0
LINE
8
BLACK
6
CONTINUOUS
10
0.529376
20
0.0999636
11
0.52963
21
0.100032
0
LINE
8
BLACK
6
CONTINUOUS
10
0.52963
20
0.100032
11
0.529831
21
0.100201
0
LINE
8
BLACK
6
CONTINUOUS
10
0.529831
20
0.100201
11
0.531092
21
0.100423
0
LINE
8
BLACK
6
CONTINUOUS
10
0.531092
20
0.100423
11
0.532328
21
0.100755
0
LINE
8
BLACK
6
CONTINUOUS
10
0.532328
20
0.100755
11
0.532582
21
0.100687
0
LINE
8
BLACK
6
CONTINUOUS
10
0.532582
20
0.100687
11
0.532841
21
0.100732
0
LINE
8
BLACK
6
CONTINUOUS
10
0.532841
20
0.100732
11
0.534044
21
0.100295
0
LINE
8
BLACK
6
CONTINUOUS
10
0.534044
20
0.100295
11
0.535281
21
0.0999636
0
LINE
8
BLACK
6
CONTINUOUS
10
0.535281
20
0.0999636
11
0.535467
21
0.0997777
0
LINE
8
BLACK
6
CONTINUOUS
10
0.535467
20
0.0997777
11
0.535714
21
0.0996878
0
LINE
8
BLACK
6
CONTINUOUS
10
0.535714
20
0.0996878
11
0.536537
21
0.0987075
0
LINE
8
BLACK
6
CONTINUOUS
10
0.536537
20
0.0987075
11
0.537443
21
0.097802
0
LINE
8
BLACK
6
CONTINUOUS
10
0.537443
20
0.097802
11
0.537511
21
0.097548
0
LINE
8
BLACK
6
CONTINUOUS
10
0.537511
20
0.097548
11
0.53768
21
0.0973467
0
LINE
8
BLACK
6
CONTINUOUS
10
0.53768
20
0.0973467
11
0.552014
21
0.0666319
0
LINE
8
BLACK
6
CONTINUOUS
10
0.552014
20
0.0666319
11
0.566347
21
0.0973467
0
LINE
8
BLACK
6
CONTINUOUS
10
0.566347
20
0.0973467
11
0.566516
21
0.097548
0
LINE
8
BLACK
6
CONTINUOUS
10
0.566516
20
0.097548
11
0.566584
21
0.097802
0
LINE
8
BLACK
6
CONTINUOUS
10
0.566584
20
0.097802
11
0.567489
21
0.0987074
0
LINE
8
BLACK
6
CONTINUOUS
10
0.567489
20
0.0987074
11
0.568313
21
0.0996878
0
LINE
8
BLACK
6
CONTINUOUS
10
0.568313
20
0.0996878
11
0.56856
21
0.0997777
0
LINE
8
BLACK
6
CONTINUOUS
10
0.56856
20
0.0997777
11
0.568746
21
0.0999636
0
LINE
8
BLACK
6
CONTINUOUS
10
0.568746
20
0.0999636
11
0.569982
21
0.100295
0
LINE
8
BLACK
6
CONTINUOUS
10
0.569982
20
0.100295
11
0.571186
21
0.100733
0
LINE
8
BLACK
6
CONTINUOUS
10
0.571186
20
0.100733
11
0.571445
21
0.100687
0
LINE
8
BLACK
6
CONTINUOUS
10
0.571445
20
0.100687
11
0.571699
21
0.100755
0
LINE
8
BLACK
6
CONTINUOUS
10
0.571699
20
0.100755
11
0.572935
21
0.100424
0
CIRCLE
8
BLACK
10
0
20
0
40
0.00688976
0
CIRCLE
8
BLACK
10
1.6
20
0
40
0.00688976
0
CIRCLE
8
BLACK
10
0
20
-0.8
40
0.00688976
  0
ENDSEC
  0
EOF
