  0
SECTION
  2
HEADER
  9
$ANGBASE
  50
0.0
  9
$ANGDIR
  70
1
  9
$MEASUREMENT
  70
0
  0
ENDSEC
  0
SECTION
  2
TABLES
  0
TABLE
  2
LTYPE
  70
4
  0
LTYPE
  5
40F
  2
CONTINUOUS
  70
0
  3
Solid line
  72
65
  73
0
  40
0.0
  0
LTYPE
  5
410
  2
DASHDOT
 70
0
  3
Dash Dot ____ _ ____ _
 72
65
 73
4
 40
2.0
 49
1.25
 49
-0.25
 49
0.25
 49
-0.25
  0
LTYPE
  5
411
  2
DASHED
 70
0
  3
Dashed __ __ __ __ __
 72
65
 73
2
 40
0.75
 49
0.5
 49
-0.25
  0
LTYPE
  5
43B
  2
DOTTED
 70
0
  3
Dotted .  .  .  .
 72
65
 73
2
 40
0.2
 49
0.0
 49
-0.2
  0
ENDTAB
  0
TABLE
  2
STYLE
  70
4
  0
STYLE
  2
KICAD
  70
0
  40
0
  41
1
  42
1
  50
0
  71
0
  3
isocp.shx
  0
STYLE
  2
KICADB
  70
0
  40
0
  41
1
  42
1
  50
0
  71
0
  3
isocp.shx
  0
STYLE
  2
KICADI
  70
0
  40
0
  41
1
  42
1
  50
15
  71
0
  3
isocp.shx
  0
STYLE
  2
KICADBI
  70
0
  40
0
  41
1
  42
1
  50
15
  71
0
  3
isocp.shx
  0
ENDTAB
  0
TABLE
  2
LAYER
  70
1
  0
LAYER
  2
BLACK
  70
0
  62
7
  6
CONTINUOUS
  0
ENDTAB
  0
ENDSEC
  0
SECTION
  2
ENTITIES
0
LINE
8
BLACK
6
CONTINUOUS
10
-0.107442
20
-2.15117
11
-0.108772
21
-2.1509
0
LINE
8
BLACK
6
CONTINUOUS
10
-0.108772
20
-2.1509
11
-0.114396
21
-2.14808
0
LINE
8
BLACK
6
CONTINUOUS
10
-0.114396
20
-2.14808
11
-0.115107
21
-2.14745
0
LINE
8
BLACK
6
CONTINUOUS
10
-0.115107
20
-2.14745
11
-0.115931
21
-2.14698
0
LINE
8
BLACK
6
CONTINUOUS
10
-0.115931
20
-2.14698
11
-0.118743
21
-2.14416
0
LINE
8
BLACK
6
CONTINUOUS
10
-0.118743
20
-2.14416
11
-0.119218
21
-2.14334
0
LINE
8
BLACK
6
CONTINUOUS
10
-0.119218
20
-2.14334
11
-0.119849
21
-2.14263
0
LINE
8
BLACK
6
CONTINUOUS
10
-0.119849
20
-2.14263
11
-0.122661
21
-2.13701
0
LINE
8
BLACK
6
CONTINUOUS
10
-0.122661
20
-2.13701
11
-0.122933
21
-2.13568
0
LINE
8
BLACK
6
CONTINUOUS
10
-0.122933
20
-2.13568
11
-0.123285
21
-2.13436
0
LINE
8
BLACK
6
CONTINUOUS
10
-0.123285
20
-2.13436
11
-0.123285
21
-2.12593
0
LINE
8
BLACK
6
CONTINUOUS
10
-0.123285
20
-2.12593
11
-0.122933
21
-2.12462
0
LINE
8
BLACK
6
CONTINUOUS
10
-0.122933
20
-2.12462
11
-0.122661
21
-2.12329
0
LINE
8
BLACK
6
CONTINUOUS
10
-0.122661
20
-2.12329
11
-0.119849
21
-2.11766
0
LINE
8
BLACK
6
CONTINUOUS
10
-0.119849
20
-2.11766
11
-0.119218
21
-2.11695
0
LINE
8
BLACK
6
CONTINUOUS
10
-0.119218
20
-2.11695
11
-0.118743
21
-2.11613
0
LINE
8
BLACK
6
CONTINUOUS
10
-0.118743
20
-2.11613
11
-0.115931
21
-2.11332
0
LINE
8
BLACK
6
CONTINUOUS
10
-0.115931
20
-2.11332
11
-0.115877
21
-2.11328
0
LINE
8
BLACK
6
CONTINUOUS
10
-0.115877
20
-2.11328
11
-0.115931
21
-2.11323
0
LINE
8
BLACK
6
CONTINUOUS
10
-0.115931
20
-2.11323
11
-0.116406
21
-2.11241
0
LINE
8
BLACK
6
CONTINUOUS
10
-0.116406
20
-2.11241
11
-0.117037
21
-2.1117
0
LINE
8
BLACK
6
CONTINUOUS
10
-0.117037
20
-2.1117
11
-0.119849
21
-2.10607
0
LINE
8
BLACK
6
CONTINUOUS
10
-0.119849
20
-2.10607
11
-0.120121
21
-2.10474
0
LINE
8
BLACK
6
CONTINUOUS
10
-0.120121
20
-2.10474
11
-0.120472
21
-2.10343
0
LINE
8
BLACK
6
CONTINUOUS
10
-0.120472
20
-2.10343
11
-0.120472
21
-2.09781
0
LINE
8
BLACK
6
CONTINUOUS
10
-0.120472
20
-2.09781
11
-0.120121
21
-2.0965
0
LINE
8
BLACK
6
CONTINUOUS
10
-0.120121
20
-2.0965
11
-0.119849
21
-2.09517
0
LINE
8
BLACK
6
CONTINUOUS
10
-0.119849
20
-2.09517
11
-0.117037
21
-2.08954
0
LINE
8
BLACK
6
CONTINUOUS
10
-0.117037
20
-2.08954
11
-0.116406
21
-2.08883
0
LINE
8
BLACK
6
CONTINUOUS
10
-0.116406
20
-2.08883
11
-0.115931
21
-2.08801
0
LINE
8
BLACK
6
CONTINUOUS
10
-0.115931
20
-2.08801
11
-0.113118
21
-2.08519
0
LINE
8
BLACK
6
CONTINUOUS
10
-0.113118
20
-2.08519
11
-0.112295
21
-2.08472
0
LINE
8
BLACK
6
CONTINUOUS
10
-0.112295
20
-2.08472
11
-0.111584
21
-2.08409
0
LINE
8
BLACK
6
CONTINUOUS
10
-0.111584
20
-2.08409
11
-0.105959
21
-2.08128
0
LINE
8
BLACK
6
CONTINUOUS
10
-0.105959
20
-2.08128
11
-0.104629
21
-2.081
0
LINE
8
BLACK
6
CONTINUOUS
10
-0.104629
20
-2.081
11
-0.103318
21
-2.08065
0
LINE
8
BLACK
6
CONTINUOUS
10
-0.103318
20
-2.08065
11
-0.0836333
21
-2.08065
0
LINE
8
BLACK
6
CONTINUOUS
10
-0.0836333
20
-2.08065
11
-0.0806806
21
-2.08144
0
LINE
8
BLACK
6
CONTINUOUS
10
-0.0806806
20
-2.08144
11
-0.078519
21
-2.08361
0
LINE
8
BLACK
6
CONTINUOUS
10
-0.078519
20
-2.08361
11
-0.0777278
21
-2.08656
0
LINE
8
BLACK
6
CONTINUOUS
10
-0.0777278
20
-2.08656
11
-0.0777278
21
-2.14561
0
LINE
8
BLACK
6
CONTINUOUS
10
-0.0777278
20
-2.14561
11
-0.078519
21
-2.14857
0
LINE
8
BLACK
6
CONTINUOUS
10
-0.078519
20
-2.14857
11
-0.0806806
21
-2.15073
0
LINE
8
BLACK
6
CONTINUOUS
10
-0.0806806
20
-2.15073
11
-0.0836333
21
-2.15152
0
LINE
8
BLACK
6
CONTINUOUS
10
-0.0836333
20
-2.15152
11
-0.106131
21
-2.15152
0
LINE
8
BLACK
6
CONTINUOUS
10
-0.106131
20
-2.15152
11
-0.107442
21
-2.15117
0
LINE
8
BLACK
6
CONTINUOUS
10
-0.10236
20
-2.12058
11
-0.108565
21
-2.12265
0
LINE
8
BLACK
6
CONTINUOUS
10
-0.108565
20
-2.12265
11
-0.109713
21
-2.1238
0
LINE
8
BLACK
6
CONTINUOUS
10
-0.109713
20
-2.1238
11
-0.111474
21
-2.12732
0
LINE
8
BLACK
6
CONTINUOUS
10
-0.111474
20
-2.12732
11
-0.111474
21
-2.13297
0
LINE
8
BLACK
6
CONTINUOUS
10
-0.111474
20
-2.13297
11
-0.109713
21
-2.13649
0
LINE
8
BLACK
6
CONTINUOUS
10
-0.109713
20
-2.13649
11
-0.108257
21
-2.13795
0
LINE
8
BLACK
6
CONTINUOUS
10
-0.108257
20
-2.13795
11
-0.104736
21
-2.13971
0
LINE
8
BLACK
6
CONTINUOUS
10
-0.104736
20
-2.13971
11
-0.0895388
21
-2.13971
0
LINE
8
BLACK
6
CONTINUOUS
10
-0.0895388
20
-2.13971
11
-0.0895388
21
-2.12058
0
LINE
8
BLACK
6
CONTINUOUS
10
-0.0895388
20
-2.12058
11
-0.10236
21
-2.12058
0
LINE
8
BLACK
6
CONTINUOUS
10
-0.101924
20
-2.09246
11
-0.105444
21
-2.09422
0
LINE
8
BLACK
6
CONTINUOUS
10
-0.105444
20
-2.09422
11
-0.106901
21
-2.09568
0
LINE
8
BLACK
6
CONTINUOUS
10
-0.106901
20
-2.09568
11
-0.108661
21
-2.0992
0
LINE
8
BLACK
6
CONTINUOUS
10
-0.108661
20
-2.0992
11
-0.108661
21
-2.10204
0
LINE
8
BLACK
6
CONTINUOUS
10
-0.108661
20
-2.10204
11
-0.106901
21
-2.10556
0
LINE
8
BLACK
6
CONTINUOUS
10
-0.106901
20
-2.10556
11
-0.105444
21
-2.10701
0
LINE
8
BLACK
6
CONTINUOUS
10
-0.105444
20
-2.10701
11
-0.101924
21
-2.10877
0
LINE
8
BLACK
6
CONTINUOUS
10
-0.101924
20
-2.10877
11
-0.0895388
21
-2.10877
0
LINE
8
BLACK
6
CONTINUOUS
10
-0.0895388
20
-2.10877
11
-0.0895388
21
-2.09246
0
LINE
8
BLACK
6
CONTINUOUS
10
-0.0895388
20
-2.09246
11
-0.101924
21
-2.09246
0
LINE
8
BLACK
6
CONTINUOUS
10
-0.0162824
20
-2.15073
11
-0.0184439
21
-2.14857
0
LINE
8
BLACK
6
CONTINUOUS
10
-0.0184439
20
-2.14857
11
-0.0188742
21
-2.14696
0
LINE
8
BLACK
6
CONTINUOUS
10
-0.0188742
20
-2.14696
11
-0.0201596
21
-2.14953
0
LINE
8
BLACK
6
CONTINUOUS
10
-0.0201596
20
-2.14953
11
-0.0227107
21
-2.15122
0
LINE
8
BLACK
6
CONTINUOUS
10
-0.0227107
20
-2.15122
11
-0.0257621
21
-2.1514
0
LINE
8
BLACK
6
CONTINUOUS
10
-0.0257621
20
-2.1514
11
-0.0284963
21
-2.15003
0
LINE
8
BLACK
6
CONTINUOUS
10
-0.0284963
20
-2.15003
11
-0.0301806
21
-2.14748
0
LINE
8
BLACK
6
CONTINUOUS
10
-0.0301806
20
-2.14748
11
-0.0344589
21
-2.13465
0
LINE
8
BLACK
6
CONTINUOUS
10
-0.0344589
20
-2.13465
11
-0.0540675
21
-2.13465
0
LINE
8
BLACK
6
CONTINUOUS
10
-0.0540675
20
-2.13465
11
-0.0583458
21
-2.14748
0
LINE
8
BLACK
6
CONTINUOUS
10
-0.0583458
20
-2.14748
11
-0.0600301
21
-2.15003
0
LINE
8
BLACK
6
CONTINUOUS
10
-0.0600301
20
-2.15003
11
-0.0627643
21
-2.1514
0
LINE
8
BLACK
6
CONTINUOUS
10
-0.0627643
20
-2.1514
11
-0.0658157
21
-2.15122
0
LINE
8
BLACK
6
CONTINUOUS
10
-0.0658157
20
-2.15122
11
-0.0683668
21
-2.14953
0
LINE
8
BLACK
6
CONTINUOUS
10
-0.0683668
20
-2.14953
11
-0.0697339
21
-2.1468
0
LINE
8
BLACK
6
CONTINUOUS
10
-0.0697339
20
-2.1468
11
-0.0695507
21
-2.14375
0
LINE
8
BLACK
6
CONTINUOUS
10
-0.0695507
20
-2.14375
11
-0.0498657
21
-2.08469
0
LINE
8
BLACK
6
CONTINUOUS
10
-0.0498657
20
-2.08469
11
-0.0492122
21
-2.0837
0
LINE
8
BLACK
6
CONTINUOUS
10
-0.0492122
20
-2.0837
11
-0.0486817
21
-2.08264
0
LINE
8
BLACK
6
CONTINUOUS
10
-0.0486817
20
-2.08264
11
-0.0483804
21
-2.08244
0
LINE
8
BLACK
6
CONTINUOUS
10
-0.0483804
20
-2.08244
11
-0.0481814
21
-2.08214
0
LINE
8
BLACK
6
CONTINUOUS
10
-0.0481814
20
-2.08214
11
-0.0471203
21
-2.08161
0
LINE
8
BLACK
6
CONTINUOUS
10
-0.0471203
20
-2.08161
11
-0.0461307
21
-2.08096
0
LINE
8
BLACK
6
CONTINUOUS
10
-0.0461307
20
-2.08096
11
-0.0457703
21
-2.08093
0
LINE
8
BLACK
6
CONTINUOUS
10
-0.0457703
20
-2.08093
11
-0.0454472
21
-2.08077
0
LINE
8
BLACK
6
CONTINUOUS
10
-0.0454472
20
-2.08077
11
-0.0442631
21
-2.08084
0
LINE
8
BLACK
6
CONTINUOUS
10
-0.0442631
20
-2.08084
11
-0.0430793
21
-2.08077
0
LINE
8
BLACK
6
CONTINUOUS
10
-0.0430793
20
-2.08077
11
-0.0427563
21
-2.08093
0
LINE
8
BLACK
6
CONTINUOUS
10
-0.0427563
20
-2.08093
11
-0.0423957
21
-2.08096
0
LINE
8
BLACK
6
CONTINUOUS
10
-0.0423957
20
-2.08096
11
-0.0414058
21
-2.08161
0
LINE
8
BLACK
6
CONTINUOUS
10
-0.0414058
20
-2.08161
11
-0.0403451
21
-2.08214
0
LINE
8
BLACK
6
CONTINUOUS
10
-0.0403451
20
-2.08214
11
-0.0401461
21
-2.08244
0
LINE
8
BLACK
6
CONTINUOUS
10
-0.0401461
20
-2.08244
11
-0.0398447
21
-2.08264
0
LINE
8
BLACK
6
CONTINUOUS
10
-0.0398447
20
-2.08264
11
-0.0393141
21
-2.0837
0
LINE
8
BLACK
6
CONTINUOUS
10
-0.0393141
20
-2.0837
11
-0.0386608
21
-2.08469
0
LINE
8
BLACK
6
CONTINUOUS
10
-0.0386608
20
-2.08469
11
-0.0189757
21
-2.14375
0
LINE
8
BLACK
6
CONTINUOUS
10
-0.0189757
20
-2.14375
11
-0.0189316
21
-2.14448
0
LINE
8
BLACK
6
CONTINUOUS
10
-0.0189316
20
-2.14448
11
-0.0184439
21
-2.14266
0
LINE
8
BLACK
6
CONTINUOUS
10
-0.0184439
20
-2.14266
11
-0.0162824
21
-2.1405
0
LINE
8
BLACK
6
CONTINUOUS
10
-0.0162824
20
-2.1405
11
-0.0133296
21
-2.13971
0
LINE
8
BLACK
6
CONTINUOUS
10
-0.0133296
20
-2.13971
11
0.00888638
21
-2.13971
0
LINE
8
BLACK
6
CONTINUOUS
10
0.00888638
20
-2.13971
11
0.00888638
21
-2.08656
0
LINE
8
BLACK
6
CONTINUOUS
10
0.00888638
20
-2.08656
11
0.00967756
21
-2.08361
0
LINE
8
BLACK
6
CONTINUOUS
10
0.00967756
20
-2.08361
11
0.0118391
21
-2.08144
0
LINE
8
BLACK
6
CONTINUOUS
10
0.0118391
20
-2.08144
11
0.0147919
21
-2.08065
0
LINE
8
BLACK
6
CONTINUOUS
10
0.0147919
20
-2.08065
11
0.0177446
21
-2.08144
0
LINE
8
BLACK
6
CONTINUOUS
10
0.0177446
20
-2.08144
11
0.0199062
21
-2.08361
0
LINE
8
BLACK
6
CONTINUOUS
10
0.0199062
20
-2.08361
11
0.0206974
21
-2.08656
0
LINE
8
BLACK
6
CONTINUOUS
10
0.0206974
20
-2.08656
11
0.0206974
21
-2.14561
0
LINE
8
BLACK
6
CONTINUOUS
10
0.0206974
20
-2.14561
11
0.0199062
21
-2.14857
0
LINE
8
BLACK
6
CONTINUOUS
10
0.0199062
20
-2.14857
11
0.0177446
21
-2.15073
0
LINE
8
BLACK
6
CONTINUOUS
10
0.0177446
20
-2.15073
11
0.0147919
21
-2.15152
0
LINE
8
BLACK
6
CONTINUOUS
10
0.0147919
20
-2.15152
11
-0.0133296
21
-2.15152
0
LINE
8
BLACK
6
CONTINUOUS
10
-0.0133296
20
-2.15152
11
-0.0162824
21
-2.15073
0
LINE
8
BLACK
6
CONTINUOUS
10
-0.0501305
20
-2.12283
11
-0.0383959
21
-2.12283
0
LINE
8
BLACK
6
CONTINUOUS
10
-0.0383959
20
-2.12283
11
-0.0442632
21
-2.10523
0
LINE
8
BLACK
6
CONTINUOUS
10
-0.0442632
20
-2.10523
11
-0.0501305
21
-2.12283
0
LINE
8
BLACK
6
CONTINUOUS
10
0.0835198
20
-2.08098
11
0.0847808
21
-2.08121
0
LINE
8
BLACK
6
CONTINUOUS
10
0.0847808
20
-2.08121
11
0.0849822
21
-2.08138
0
LINE
8
BLACK
6
CONTINUOUS
10
0.0849822
20
-2.08138
11
0.0852362
21
-2.08144
0
LINE
8
BLACK
6
CONTINUOUS
10
0.0852362
20
-2.08144
11
0.0861414
21
-2.08235
0
LINE
8
BLACK
6
CONTINUOUS
10
0.0861414
20
-2.08235
11
0.087122
21
-2.08317
0
LINE
8
BLACK
6
CONTINUOUS
10
0.087122
20
-2.08317
11
0.0872119
21
-2.08342
0
LINE
8
BLACK
6
CONTINUOUS
10
0.0872119
20
-2.08342
11
0.0873978
21
-2.08361
0
LINE
8
BLACK
6
CONTINUOUS
10
0.0873978
20
-2.08361
11
0.0877291
21
-2.08484
0
LINE
8
BLACK
6
CONTINUOUS
10
0.0877291
20
-2.08484
11
0.0881667
21
-2.08604
0
LINE
8
BLACK
6
CONTINUOUS
10
0.0881667
20
-2.08604
11
0.0881209
21
-2.0863
0
LINE
8
BLACK
6
CONTINUOUS
10
0.0881209
20
-2.0863
11
0.088189
21
-2.08656
0
LINE
8
BLACK
6
CONTINUOUS
10
0.088189
20
-2.08656
11
0.088189
21
-2.14561
0
LINE
8
BLACK
6
CONTINUOUS
10
0.088189
20
-2.14561
11
0.0873978
21
-2.14857
0
LINE
8
BLACK
6
CONTINUOUS
10
0.0873978
20
-2.14857
11
0.0852362
21
-2.15073
0
LINE
8
BLACK
6
CONTINUOUS
10
0.0852362
20
-2.15073
11
0.0822835
21
-2.15152
0
LINE
8
BLACK
6
CONTINUOUS
10
0.0822835
20
-2.15152
11
0.0793307
21
-2.15073
0
LINE
8
BLACK
6
CONTINUOUS
10
0.0793307
20
-2.15073
11
0.0771691
21
-2.14857
0
LINE
8
BLACK
6
CONTINUOUS
10
0.0771691
20
-2.14857
11
0.076378
21
-2.14561
0
LINE
8
BLACK
6
CONTINUOUS
10
0.076378
20
-2.14561
11
0.076378
21
-2.11318
0
LINE
8
BLACK
6
CONTINUOUS
10
0.076378
20
-2.11318
11
0.0679499
21
-2.13124
0
LINE
8
BLACK
6
CONTINUOUS
10
0.0679499
20
-2.13124
11
0.067615
21
-2.13164
0
LINE
8
BLACK
6
CONTINUOUS
10
0.067615
20
-2.13164
11
0.0674369
21
-2.13213
0
LINE
8
BLACK
6
CONTINUOUS
10
0.0674369
20
-2.13213
11
0.0666472
21
-2.13279
0
LINE
8
BLACK
6
CONTINUOUS
10
0.0666472
20
-2.13279
11
0.0659843
21
-2.13358
0
LINE
8
BLACK
6
CONTINUOUS
10
0.0659843
20
-2.13358
11
0.0654948
21
-2.13376
0
LINE
8
BLACK
6
CONTINUOUS
10
0.0654948
20
-2.13376
11
0.0650958
21
-2.13409
0
LINE
8
BLACK
6
CONTINUOUS
10
0.0650958
20
-2.13409
11
0.0640802
21
-2.13427
0
LINE
8
BLACK
6
CONTINUOUS
10
0.0640802
20
-2.13427
11
0.0631114
21
-2.13462
0
LINE
8
BLACK
6
CONTINUOUS
10
0.0631114
20
-2.13462
11
0.0625985
21
-2.13453
0
LINE
8
BLACK
6
CONTINUOUS
10
0.0625985
20
-2.13453
11
0.0620855
21
-2.13462
0
LINE
8
BLACK
6
CONTINUOUS
10
0.0620855
20
-2.13462
11
0.0611162
21
-2.13427
0
LINE
8
BLACK
6
CONTINUOUS
10
0.0611162
20
-2.13427
11
0.0601011
21
-2.13409
0
LINE
8
BLACK
6
CONTINUOUS
10
0.0601011
20
-2.13409
11
0.0597022
21
-2.13376
0
LINE
8
BLACK
6
CONTINUOUS
10
0.0597022
20
-2.13376
11
0.0592126
21
-2.13358
0
LINE
8
BLACK
6
CONTINUOUS
10
0.0592126
20
-2.13358
11
0.0585495
21
-2.13279
0
LINE
8
BLACK
6
CONTINUOUS
10
0.0585495
20
-2.13279
11
0.0577599
21
-2.13213
0
LINE
8
BLACK
6
CONTINUOUS
10
0.0577599
20
-2.13213
11
0.0575819
21
-2.13164
0
LINE
8
BLACK
6
CONTINUOUS
10
0.0575819
20
-2.13164
11
0.057247
21
-2.13124
0
LINE
8
BLACK
6
CONTINUOUS
10
0.057247
20
-2.13124
11
0.0488189
21
-2.11318
0
LINE
8
BLACK
6
CONTINUOUS
10
0.0488189
20
-2.11318
11
0.0488189
21
-2.14561
0
LINE
8
BLACK
6
CONTINUOUS
10
0.0488189
20
-2.14561
11
0.0480277
21
-2.14857
0
LINE
8
BLACK
6
CONTINUOUS
10
0.0480277
20
-2.14857
11
0.0458661
21
-2.15073
0
LINE
8
BLACK
6
CONTINUOUS
10
0.0458661
20
-2.15073
11
0.0429134
21
-2.15152
0
LINE
8
BLACK
6
CONTINUOUS
10
0.0429134
20
-2.15152
11
0.0399606
21
-2.15073
0
LINE
8
BLACK
6
CONTINUOUS
10
0.0399606
20
-2.15073
11
0.0377991
21
-2.14857
0
LINE
8
BLACK
6
CONTINUOUS
10
0.0377991
20
-2.14857
11
0.0370079
21
-2.14561
0
LINE
8
BLACK
6
CONTINUOUS
10
0.0370079
20
-2.14561
11
0.0370079
21
-2.08656
0
LINE
8
BLACK
6
CONTINUOUS
10
0.0370079
20
-2.08656
11
0.0370759
21
-2.0863
0
LINE
8
BLACK
6
CONTINUOUS
10
0.0370759
20
-2.0863
11
0.0370302
21
-2.08604
0
LINE
8
BLACK
6
CONTINUOUS
10
0.0370302
20
-2.08604
11
0.0374677
21
-2.08484
0
LINE
8
BLACK
6
CONTINUOUS
10
0.0374677
20
-2.08484
11
0.0377991
21
-2.08361
0
LINE
8
BLACK
6
CONTINUOUS
10
0.0377991
20
-2.08361
11
0.037985
21
-2.08342
0
LINE
8
BLACK
6
CONTINUOUS
10
0.037985
20
-2.08342
11
0.0380749
21
-2.08317
0
LINE
8
BLACK
6
CONTINUOUS
10
0.0380749
20
-2.08317
11
0.0390552
21
-2.08235
0
LINE
8
BLACK
6
CONTINUOUS
10
0.0390552
20
-2.08235
11
0.0399606
21
-2.08144
0
LINE
8
BLACK
6
CONTINUOUS
10
0.0399606
20
-2.08144
11
0.0402147
21
-2.08138
0
LINE
8
BLACK
6
CONTINUOUS
10
0.0402147
20
-2.08138
11
0.040416
21
-2.08121
0
LINE
8
BLACK
6
CONTINUOUS
10
0.040416
20
-2.08121
11
0.0416766
21
-2.08098
0
LINE
8
BLACK
6
CONTINUOUS
10
0.0416766
20
-2.08098
11
0.0429134
21
-2.08065
0
LINE
8
BLACK
6
CONTINUOUS
10
0.0429134
20
-2.08065
11
0.0431674
21
-2.08072
0
LINE
8
BLACK
6
CONTINUOUS
10
0.0431674
20
-2.08072
11
0.0434263
21
-2.08067
0
LINE
8
BLACK
6
CONTINUOUS
10
0.0434263
20
-2.08067
11
0.0446294
21
-2.08111
0
LINE
8
BLACK
6
CONTINUOUS
10
0.0446294
20
-2.08111
11
0.0458661
21
-2.08144
0
LINE
8
BLACK
6
CONTINUOUS
10
0.0458661
20
-2.08144
11
0.0460521
21
-2.08163
0
LINE
8
BLACK
6
CONTINUOUS
10
0.0460521
20
-2.08163
11
0.0462992
21
-2.08172
0
LINE
8
BLACK
6
CONTINUOUS
10
0.0462992
20
-2.08172
11
0.0471223
21
-2.0827
0
LINE
8
BLACK
6
CONTINUOUS
10
0.0471223
20
-2.0827
11
0.0480277
21
-2.08361
0
LINE
8
BLACK
6
CONTINUOUS
10
0.0480277
20
-2.08361
11
0.0480958
21
-2.08386
0
LINE
8
BLACK
6
CONTINUOUS
10
0.0480958
20
-2.08386
11
0.0482648
21
-2.08406
0
LINE
8
BLACK
6
CONTINUOUS
10
0.0482648
20
-2.08406
11
0.0625984
21
-2.11478
0
LINE
8
BLACK
6
CONTINUOUS
10
0.0625984
20
-2.11478
11
0.076932
21
-2.08406
0
LINE
8
BLACK
6
CONTINUOUS
10
0.076932
20
-2.08406
11
0.0771011
21
-2.08386
0
LINE
8
BLACK
6
CONTINUOUS
10
0.0771011
20
-2.08386
11
0.0771691
21
-2.08361
0
LINE
8
BLACK
6
CONTINUOUS
10
0.0771691
20
-2.08361
11
0.0780744
21
-2.0827
0
LINE
8
BLACK
6
CONTINUOUS
10
0.0780744
20
-2.0827
11
0.0788976
21
-2.08172
0
LINE
8
BLACK
6
CONTINUOUS
10
0.0788976
20
-2.08172
11
0.0791448
21
-2.08163
0
LINE
8
BLACK
6
CONTINUOUS
10
0.0791448
20
-2.08163
11
0.0793307
21
-2.08144
0
LINE
8
BLACK
6
CONTINUOUS
10
0.0793307
20
-2.08144
11
0.080567
21
-2.08111
0
LINE
8
BLACK
6
CONTINUOUS
10
0.080567
20
-2.08111
11
0.0817705
21
-2.08067
0
LINE
8
BLACK
6
CONTINUOUS
10
0.0817705
20
-2.08067
11
0.0820295
21
-2.08072
0
LINE
8
BLACK
6
CONTINUOUS
10
0.0820295
20
-2.08072
11
0.0822835
21
-2.08065
0
LINE
8
BLACK
6
CONTINUOUS
10
0.0822835
20
-2.08065
11
0.0835198
21
-2.08098
0
LINE
8
BLACK
6
CONTINUOUS
10
1.47764
20
-0.44252
11
1.47947
21
-0.444632
0
LINE
8
BLACK
6
CONTINUOUS
10
1.47947
20
-0.444632
11
1.47992
21
-0.446693
0
LINE
8
BLACK
6
CONTINUOUS
10
1.47992
20
-0.446693
11
1.47992
21
-1.11787
0
LINE
8
BLACK
6
CONTINUOUS
10
1.47992
20
-1.11787
11
1.47913
21
-1.12056
0
LINE
8
BLACK
6
CONTINUOUS
10
1.47913
20
-1.12056
11
1.47702
21
-1.12239
0
LINE
8
BLACK
6
CONTINUOUS
10
1.47702
20
-1.12239
11
1.47496
21
-1.12283
0
LINE
8
BLACK
6
CONTINUOUS
10
1.47496
20
-1.12283
11
0.693543
21
-1.12283
0
LINE
8
BLACK
6
CONTINUOUS
10
0.693543
20
-1.12283
11
0.690861
21
-1.12205
0
LINE
8
BLACK
6
CONTINUOUS
10
0.690861
20
-1.12205
11
0.689031
21
-1.11993
0
LINE
8
BLACK
6
CONTINUOUS
10
0.689031
20
-1.11993
11
0.688583
21
-1.11787
0
LINE
8
BLACK
6
CONTINUOUS
10
0.688583
20
-1.11787
11
0.688583
21
-0.446693
0
LINE
8
BLACK
6
CONTINUOUS
10
0.688583
20
-0.446693
11
0.68937
21
-0.444011
0
LINE
8
BLACK
6
CONTINUOUS
10
0.68937
20
-0.444011
11
0.691483
21
-0.442181
0
LINE
8
BLACK
6
CONTINUOUS
10
0.691483
20
-0.442181
11
0.693543
21
-0.441732
0
LINE
8
BLACK
6
CONTINUOUS
10
0.693543
20
-0.441732
11
1.47496
21
-0.441732
0
LINE
8
BLACK
6
CONTINUOUS
10
1.47496
20
-0.441732
11
1.47764
21
-0.44252
0
LINE
8
BLACK
6
CONTINUOUS
10
0.0086502
20
-0.682207
11
0.0221317
21
-0.683982
0
LINE
8
BLACK
6
CONTINUOUS
10
0.0221317
20
-0.683982
11
0.0353198
21
-0.687294
0
LINE
8
BLACK
6
CONTINUOUS
10
0.0353198
20
-0.687294
11
0.0480398
21
-0.692101
0
LINE
8
BLACK
6
CONTINUOUS
10
0.0480398
20
-0.692101
11
0.060123
21
-0.698338
0
LINE
8
BLACK
6
CONTINUOUS
10
0.060123
20
-0.698338
11
0.0714093
21
-0.705922
0
LINE
8
BLACK
6
CONTINUOUS
10
0.0714093
20
-0.705922
11
0.0817492
21
-0.714753
0
LINE
8
BLACK
6
CONTINUOUS
10
0.0817492
20
-0.714753
11
0.0910055
21
-0.724714
0
LINE
8
BLACK
6
CONTINUOUS
10
0.0910055
20
-0.724714
11
0.0990556
21
-0.735673
0
LINE
8
BLACK
6
CONTINUOUS
10
0.0990556
20
-0.735673
11
0.105793
21
-0.747484
0
LINE
8
BLACK
6
CONTINUOUS
10
0.105793
20
-0.747484
11
0.111128
21
-0.759992
0
LINE
8
BLACK
6
CONTINUOUS
10
0.111128
20
-0.759992
11
0.11499
21
-0.773029
0
LINE
8
BLACK
6
CONTINUOUS
10
0.11499
20
-0.773029
11
0.117327
21
-0.786425
0
LINE
8
BLACK
6
CONTINUOUS
10
0.117327
20
-0.786425
11
0.11811
21
-0.8
0
LINE
8
BLACK
6
CONTINUOUS
10
0.11811
20
-0.8
11
0.117877
21
-0.807416
0
LINE
8
BLACK
6
CONTINUOUS
10
0.117877
20
-0.807416
11
0.116244
21
-0.820916
0
LINE
8
BLACK
6
CONTINUOUS
10
0.116244
20
-0.820916
11
0.113069
21
-0.834138
0
LINE
8
BLACK
6
CONTINUOUS
10
0.113069
20
-0.834138
11
0.108396
21
-0.846907
0
LINE
8
BLACK
6
CONTINUOUS
10
0.108396
20
-0.846907
11
0.102286
21
-0.859055
0
LINE
8
BLACK
6
CONTINUOUS
10
0.102286
20
-0.859055
11
0.0948209
21
-0.87042
0
LINE
8
BLACK
6
CONTINUOUS
10
0.0948209
20
-0.87042
11
0.0860987
21
-0.880852
0
LINE
8
BLACK
6
CONTINUOUS
10
0.0860987
20
-0.880852
11
0.0762352
21
-0.890212
0
LINE
8
BLACK
6
CONTINUOUS
10
0.0762352
20
-0.890212
11
0.0653612
21
-0.898377
0
LINE
8
BLACK
6
CONTINUOUS
10
0.0653612
20
-0.898377
11
0.0536209
21
-0.905237
0
LINE
8
BLACK
6
CONTINUOUS
10
0.0536209
20
-0.905237
11
0.0411699
21
-0.910703
0
LINE
8
BLACK
6
CONTINUOUS
10
0.0411699
20
-0.910703
11
0.0281732
21
-0.914701
0
LINE
8
BLACK
6
CONTINUOUS
10
0.0281732
20
-0.914701
11
0.0148031
21
-0.917179
0
LINE
8
BLACK
6
CONTINUOUS
10
0.0148031
20
-0.917179
11
0.00123681
21
-0.918104
0
LINE
8
BLACK
6
CONTINUOUS
10
0.00123681
20
-0.918104
11
-0.0123459
21
-0.917463
0
LINE
8
BLACK
6
CONTINUOUS
10
-0.0123459
20
-0.917463
11
-0.025765
21
-0.915266
0
LINE
8
BLACK
6
CONTINUOUS
10
-0.025765
20
-0.915266
11
-0.0388425
21
-0.911541
0
LINE
8
BLACK
6
CONTINUOUS
10
-0.0388425
20
-0.911541
11
-0.0514052
21
-0.906337
0
LINE
8
BLACK
6
CONTINUOUS
10
-0.0514052
20
-0.906337
11
-0.0632866
21
-0.899724
0
LINE
8
BLACK
6
CONTINUOUS
10
-0.0632866
20
-0.899724
11
-0.0743292
21
-0.891789
0
LINE
8
BLACK
6
CONTINUOUS
10
-0.0743292
20
-0.891789
11
-0.0843865
21
-0.882637
0
LINE
8
BLACK
6
CONTINUOUS
10
-0.0843865
20
-0.882637
11
-0.0933254
21
-0.872391
0
LINE
8
BLACK
6
CONTINUOUS
10
-0.0933254
20
-0.872391
11
-0.101027
21
-0.861184
0
LINE
8
BLACK
6
CONTINUOUS
10
-0.101027
20
-0.861184
11
-0.10739
21
-0.849167
0
LINE
8
BLACK
6
CONTINUOUS
10
-0.10739
20
-0.849167
11
-0.11233
21
-0.836498
0
LINE
8
BLACK
6
CONTINUOUS
10
-0.11233
20
-0.836498
11
-0.11578
21
-0.823345
0
LINE
8
BLACK
6
CONTINUOUS
10
-0.11578
20
-0.823345
11
-0.117696
21
-0.809883
0
LINE
8
BLACK
6
CONTINUOUS
10
-0.117696
20
-0.809883
11
-0.118052
21
-0.79629
0
LINE
8
BLACK
6
CONTINUOUS
10
-0.118052
20
-0.79629
11
-0.116843
21
-0.782746
0
LINE
8
BLACK
6
CONTINUOUS
10
-0.116843
20
-0.782746
11
-0.114086
21
-0.769431
0
LINE
8
BLACK
6
CONTINUOUS
10
-0.114086
20
-0.769431
11
-0.109816
21
-0.756521
0
LINE
8
BLACK
6
CONTINUOUS
10
-0.109816
20
-0.756521
11
-0.104091
21
-0.744187
0
LINE
8
BLACK
6
CONTINUOUS
10
-0.104091
20
-0.744187
11
-0.0969861
21
-0.732593
0
LINE
8
BLACK
6
CONTINUOUS
10
-0.0969861
20
-0.732593
11
-0.0885958
21
-0.721892
0
LINE
8
BLACK
6
CONTINUOUS
10
-0.0885958
20
-0.721892
11
-0.0790312
21
-0.712227
0
LINE
8
BLACK
6
CONTINUOUS
10
-0.0790312
20
-0.712227
11
-0.0684191
21
-0.703725
0
LINE
8
BLACK
6
CONTINUOUS
10
-0.0684191
20
-0.703725
11
-0.0569
21
-0.696499
0
LINE
8
BLACK
6
CONTINUOUS
10
-0.0569
20
-0.696499
11
-0.0446269
21
-0.690645
0
LINE
8
BLACK
6
CONTINUOUS
10
-0.0446269
20
-0.690645
11
-0.0317622
21
-0.686241
0
LINE
8
BLACK
6
CONTINUOUS
10
-0.0317622
20
-0.686241
11
-0.0184765
21
-0.683344
0
LINE
8
BLACK
6
CONTINUOUS
10
-0.0184765
20
-0.683344
11
-0.00494594
21
-0.681993
0
LINE
8
BLACK
6
CONTINUOUS
10
-0.00494594
20
-0.681993
11
0.0086502
21
-0.682207
0
LINE
8
BLACK
6
CONTINUOUS
10
0.138331
20
-0.403133
11
0.140682
21
-0.404331
0
LINE
8
BLACK
6
CONTINUOUS
10
0.140682
20
-0.404331
11
0.15315
21
-0.404331
0
LINE
8
BLACK
6
CONTINUOUS
10
0.15315
20
-0.404331
11
0.15315
21
-0.553937
0
LINE
8
BLACK
6
CONTINUOUS
10
0.15315
20
-0.553937
11
0.0744094
21
-0.553937
0
LINE
8
BLACK
6
CONTINUOUS
10
0.0744094
20
-0.553937
11
0.0744094
21
-0.404331
0
LINE
8
BLACK
6
CONTINUOUS
10
0.0744094
20
-0.404331
11
0.126247
21
-0.404331
0
LINE
8
BLACK
6
CONTINUOUS
10
0.126247
20
-0.404331
11
0.128598
21
-0.403133
0
LINE
8
BLACK
6
CONTINUOUS
10
0.128598
20
-0.403133
11
0.133465
21
-0.402362
0
LINE
8
BLACK
6
CONTINUOUS
10
0.133465
20
-0.402362
11
0.138331
21
-0.403133
0
LINE
8
BLACK
6
CONTINUOUS
10
-0.0436583
20
-0.224032
11
-0.0363183
21
-0.226305
0
LINE
8
BLACK
6
CONTINUOUS
10
-0.0363183
20
-0.226305
11
-0.0295593
21
-0.229959
0
LINE
8
BLACK
6
CONTINUOUS
10
-0.0295593
20
-0.229959
11
-0.0236389
21
-0.234857
0
LINE
8
BLACK
6
CONTINUOUS
10
-0.0236389
20
-0.234857
11
-0.0187826
21
-0.240811
0
LINE
8
BLACK
6
CONTINUOUS
10
-0.0187826
20
-0.240811
11
-0.0151754
21
-0.247596
0
LINE
8
BLACK
6
CONTINUOUS
10
-0.0151754
20
-0.247596
11
-0.0129545
21
-0.254951
0
LINE
8
BLACK
6
CONTINUOUS
10
-0.0129545
20
-0.254951
11
-0.0122047
21
-0.262598
0
LINE
8
BLACK
6
CONTINUOUS
10
-0.0122047
20
-0.262598
11
-0.0122201
21
-0.263698
0
LINE
8
BLACK
6
CONTINUOUS
10
-0.0122201
20
-0.263698
11
-0.0131831
21
-0.271321
0
LINE
8
BLACK
6
CONTINUOUS
10
-0.0131831
20
-0.271321
11
-0.0156085
21
-0.278612
0
LINE
8
BLACK
6
CONTINUOUS
10
-0.0156085
20
-0.278612
11
-0.0194037
21
-0.285293
0
LINE
8
BLACK
6
CONTINUOUS
10
-0.0194037
20
-0.285293
11
-0.0244244
21
-0.291109
0
LINE
8
BLACK
6
CONTINUOUS
10
-0.0244244
20
-0.291109
11
-0.0304793
21
-0.29584
0
LINE
8
BLACK
6
CONTINUOUS
10
-0.0304793
20
-0.29584
11
-0.0373376
21
-0.299304
0
LINE
8
BLACK
6
CONTINUOUS
10
-0.0373376
20
-0.299304
11
-0.0447383
21
-0.30137
0
LINE
8
BLACK
6
CONTINUOUS
10
-0.0447383
20
-0.30137
11
-0.0523993
21
-0.30196
0
LINE
8
BLACK
6
CONTINUOUS
10
-0.0523993
20
-0.30196
11
-0.0600289
21
-0.30105
0
LINE
8
BLACK
6
CONTINUOUS
10
-0.0600289
20
-0.30105
11
-0.0673366
21
-0.298676
0
LINE
8
BLACK
6
CONTINUOUS
10
-0.0673366
20
-0.298676
11
-0.0740439
21
-0.294927
0
LINE
8
BLACK
6
CONTINUOUS
10
-0.0740439
20
-0.294927
11
-0.0798953
21
-0.289947
0
LINE
8
BLACK
6
CONTINUOUS
10
-0.0798953
20
-0.289947
11
-0.084668
21
-0.283926
0
LINE
8
BLACK
6
CONTINUOUS
10
-0.084668
20
-0.283926
11
-0.0881802
21
-0.277092
0
LINE
8
BLACK
6
CONTINUOUS
10
-0.0881802
20
-0.277092
11
-0.0902981
21
-0.269705
0
LINE
8
BLACK
6
CONTINUOUS
10
-0.0902981
20
-0.269705
11
-0.0904816
21
-0.26752
0
LINE
8
BLACK
6
CONTINUOUS
10
-0.0904816
20
-0.26752
11
-0.0914126
21
-0.26752
0
LINE
8
BLACK
6
CONTINUOUS
10
-0.0914126
20
-0.26752
11
-0.0917156
21
-0.269433
0
LINE
8
BLACK
6
CONTINUOUS
10
-0.0917156
20
-0.269433
11
-0.0939525
21
-0.273823
0
LINE
8
BLACK
6
CONTINUOUS
10
-0.0939525
20
-0.273823
11
-0.0974365
21
-0.277307
0
LINE
8
BLACK
6
CONTINUOUS
10
-0.0974365
20
-0.277307
11
-0.101826
21
-0.279544
0
LINE
8
BLACK
6
CONTINUOUS
10
-0.101826
20
-0.279544
11
-0.106693
21
-0.280315
0
LINE
8
BLACK
6
CONTINUOUS
10
-0.106693
20
-0.280315
11
-0.111559
21
-0.279544
0
LINE
8
BLACK
6
CONTINUOUS
10
-0.111559
20
-0.279544
11
-0.115949
21
-0.277307
0
LINE
8
BLACK
6
CONTINUOUS
10
-0.115949
20
-0.277307
11
-0.119433
21
-0.273823
0
LINE
8
BLACK
6
CONTINUOUS
10
-0.119433
20
-0.273823
11
-0.12167
21
-0.269433
0
LINE
8
BLACK
6
CONTINUOUS
10
-0.12167
20
-0.269433
11
-0.122441
21
-0.264567
0
LINE
8
BLACK
6
CONTINUOUS
10
-0.122441
20
-0.264567
11
-0.12167
21
-0.259701
0
LINE
8
BLACK
6
CONTINUOUS
10
-0.12167
20
-0.259701
11
-0.119433
21
-0.25531
0
LINE
8
BLACK
6
CONTINUOUS
10
-0.119433
20
-0.25531
11
-0.115949
21
-0.251826
0
LINE
8
BLACK
6
CONTINUOUS
10
-0.115949
20
-0.251826
11
-0.111559
21
-0.24959
0
LINE
8
BLACK
6
CONTINUOUS
10
-0.111559
20
-0.24959
11
-0.106693
21
-0.248819
0
LINE
8
BLACK
6
CONTINUOUS
10
-0.106693
20
-0.248819
11
-0.101826
21
-0.24959
0
LINE
8
BLACK
6
CONTINUOUS
10
-0.101826
20
-0.24959
11
-0.0974365
21
-0.251826
0
LINE
8
BLACK
6
CONTINUOUS
10
-0.0974365
20
-0.251826
11
-0.0939525
21
-0.25531
0
LINE
8
BLACK
6
CONTINUOUS
10
-0.0939525
20
-0.25531
11
-0.0927466
21
-0.257677
0
LINE
8
BLACK
6
CONTINUOUS
10
-0.0927466
20
-0.257677
11
-0.0904507
21
-0.257677
0
LINE
8
BLACK
6
CONTINUOUS
10
-0.0904507
20
-0.257677
11
-0.0900846
21
-0.254413
0
LINE
8
BLACK
6
CONTINUOUS
10
-0.0900846
20
-0.254413
11
-0.0877612
21
-0.247089
0
LINE
8
BLACK
6
CONTINUOUS
10
-0.0877612
20
-0.247089
11
-0.0840596
21
-0.240356
0
LINE
8
BLACK
6
CONTINUOUS
10
-0.0840596
20
-0.240356
11
-0.0791206
21
-0.23447
0
LINE
8
BLACK
6
CONTINUOUS
10
-0.0791206
20
-0.23447
11
-0.0731324
21
-0.229655
0
LINE
8
BLACK
6
CONTINUOUS
10
-0.0731324
20
-0.229655
11
-0.0663231
21
-0.226095
0
LINE
8
BLACK
6
CONTINUOUS
10
-0.0663231
20
-0.226095
11
-0.058952
21
-0.223926
0
LINE
8
BLACK
6
CONTINUOUS
10
-0.058952
20
-0.223926
11
-0.0513
21
-0.223229
0
LINE
8
BLACK
6
CONTINUOUS
10
-0.0513
20
-0.223229
11
-0.0436583
21
-0.224032
0
LINE
8
BLACK
6
CONTINUOUS
10
0.0086502
20
0.117793
11
0.0221317
21
0.116018
0
LINE
8
BLACK
6
CONTINUOUS
10
0.0221317
20
0.116018
11
0.0353198
21
0.112706
0
LINE
8
BLACK
6
CONTINUOUS
10
0.0353198
20
0.112706
11
0.0480398
21
0.107899
0
LINE
8
BLACK
6
CONTINUOUS
10
0.0480398
20
0.107899
11
0.060123
21
0.101662
0
LINE
8
BLACK
6
CONTINUOUS
10
0.060123
20
0.101662
11
0.0714093
21
0.0940783
0
LINE
8
BLACK
6
CONTINUOUS
10
0.0714093
20
0.0940783
11
0.0817492
21
0.0852473
0
LINE
8
BLACK
6
CONTINUOUS
10
0.0817492
20
0.0852473
11
0.0910055
21
0.0752863
0
LINE
8
BLACK
6
CONTINUOUS
10
0.0910055
20
0.0752863
11
0.0990556
21
0.0643274
0
LINE
8
BLACK
6
CONTINUOUS
10
0.0990556
20
0.0643274
11
0.105793
21
0.052516
0
LINE
8
BLACK
6
CONTINUOUS
10
0.105793
20
0.052516
11
0.111128
21
0.0400084
0
LINE
8
BLACK
6
CONTINUOUS
10
0.111128
20
0.0400084
11
0.11499
21
0.0269706
0
LINE
8
BLACK
6
CONTINUOUS
10
0.11499
20
0.0269706
11
0.117327
21
0.0135752
0
LINE
8
BLACK
6
CONTINUOUS
10
0.117327
20
0.0135752
11
0.11811
21
0
0
LINE
8
BLACK
6
CONTINUOUS
10
0.11811
20
0
11
0.117877
21
-0.00741622
0
LINE
8
BLACK
6
CONTINUOUS
10
0.117877
20
-0.00741622
11
0.116244
21
-0.0209155
0
LINE
8
BLACK
6
CONTINUOUS
10
0.116244
20
-0.0209155
11
0.113069
21
-0.0341376
0
LINE
8
BLACK
6
CONTINUOUS
10
0.113069
20
-0.0341376
11
0.108396
21
-0.0469072
0
LINE
8
BLACK
6
CONTINUOUS
10
0.108396
20
-0.0469072
11
0.102286
21
-0.0590551
0
LINE
8
BLACK
6
CONTINUOUS
10
0.102286
20
-0.0590551
11
0.0948209
21
-0.0704203
0
LINE
8
BLACK
6
CONTINUOUS
10
0.0948209
20
-0.0704203
11
0.0860987
21
-0.080852
0
LINE
8
BLACK
6
CONTINUOUS
10
0.0860987
20
-0.080852
11
0.0762352
21
-0.0902121
0
LINE
8
BLACK
6
CONTINUOUS
10
0.0762352
20
-0.0902121
11
0.0653612
21
-0.0983765
0
LINE
8
BLACK
6
CONTINUOUS
10
0.0653612
20
-0.0983765
11
0.0536209
21
-0.105237
0
LINE
8
BLACK
6
CONTINUOUS
10
0.0536209
20
-0.105237
11
0.0411699
21
-0.110703
0
LINE
8
BLACK
6
CONTINUOUS
10
0.0411699
20
-0.110703
11
0.0281732
21
-0.114701
0
LINE
8
BLACK
6
CONTINUOUS
10
0.0281732
20
-0.114701
11
0.0148031
21
-0.117179
0
LINE
8
BLACK
6
CONTINUOUS
10
0.0148031
20
-0.117179
11
0.00123681
21
-0.118104
0
LINE
8
BLACK
6
CONTINUOUS
10
0.00123681
20
-0.118104
11
-0.0123459
21
-0.117463
0
LINE
8
BLACK
6
CONTINUOUS
10
-0.0123459
20
-0.117463
11
-0.025765
21
-0.115266
0
LINE
8
BLACK
6
CONTINUOUS
10
-0.025765
20
-0.115266
11
-0.0388425
21
-0.111541
0
LINE
8
BLACK
6
CONTINUOUS
10
-0.0388425
20
-0.111541
11
-0.0514052
21
-0.106337
0
LINE
8
BLACK
6
CONTINUOUS
10
-0.0514052
20
-0.106337
11
-0.0632866
21
-0.0997238
0
LINE
8
BLACK
6
CONTINUOUS
10
-0.0632866
20
-0.0997238
11
-0.0743292
21
-0.0917889
0
LINE
8
BLACK
6
CONTINUOUS
10
-0.0743292
20
-0.0917889
11
-0.0843865
21
-0.0826374
0
LINE
8
BLACK
6
CONTINUOUS
10
-0.0843865
20
-0.0826374
11
-0.0933254
21
-0.0723906
0
LINE
8
BLACK
6
CONTINUOUS
10
-0.0933254
20
-0.0723906
11
-0.101027
21
-0.0611843
0
LINE
8
BLACK
6
CONTINUOUS
10
-0.101027
20
-0.0611843
11
-0.10739
21
-0.049167
0
LINE
8
BLACK
6
CONTINUOUS
10
-0.10739
20
-0.049167
11
-0.11233
21
-0.0364981
0
LINE
8
BLACK
6
CONTINUOUS
10
-0.11233
20
-0.0364981
11
-0.11578
21
-0.0233454
0
LINE
8
BLACK
6
CONTINUOUS
10
-0.11578
20
-0.0233454
11
-0.117696
21
-0.00988323
0
LINE
8
BLACK
6
CONTINUOUS
10
-0.117696
20
-0.00988323
11
-0.118052
21
0.00370992
0
LINE
8
BLACK
6
CONTINUOUS
10
-0.118052
20
0.00370992
11
-0.116843
21
0.0172539
0
LINE
8
BLACK
6
CONTINUOUS
10
-0.116843
20
0.0172539
11
-0.114086
21
0.0305692
0
LINE
8
BLACK
6
CONTINUOUS
10
-0.114086
20
0.0305692
11
-0.109816
21
0.0434793
0
LINE
8
BLACK
6
CONTINUOUS
10
-0.109816
20
0.0434793
11
-0.104091
21
0.0558131
0
LINE
8
BLACK
6
CONTINUOUS
10
-0.104091
20
0.0558131
11
-0.0969861
21
0.0674071
0
LINE
8
BLACK
6
CONTINUOUS
10
-0.0969861
20
0.0674071
11
-0.0885958
21
0.0781077
0
LINE
8
BLACK
6
CONTINUOUS
10
-0.0885958
20
0.0781077
11
-0.0790312
21
0.087773
0
LINE
8
BLACK
6
CONTINUOUS
10
-0.0790312
20
0.087773
11
-0.0684191
21
0.0962749
0
LINE
8
BLACK
6
CONTINUOUS
10
-0.0684191
20
0.0962749
11
-0.0569
21
0.103501
0
LINE
8
BLACK
6
CONTINUOUS
10
-0.0569
20
0.103501
11
-0.0446269
21
0.109355
0
LINE
8
BLACK
6
CONTINUOUS
10
-0.0446269
20
0.109355
11
-0.0317622
21
0.113759
0
LINE
8
BLACK
6
CONTINUOUS
10
-0.0317622
20
0.113759
11
-0.0184765
21
0.116656
0
LINE
8
BLACK
6
CONTINUOUS
10
-0.0184765
20
0.116656
11
-0.00494594
21
0.118007
0
LINE
8
BLACK
6
CONTINUOUS
10
-0.00494594
20
0.118007
11
0.0086502
21
0.117793
0
LINE
8
BLACK
6
CONTINUOUS
10
1.60865
20
0.117793
11
1.62213
21
0.116018
0
LINE
8
BLACK
6
CONTINUOUS
10
1.62213
20
0.116018
11
1.63532
21
0.112706
0
LINE
8
BLACK
6
CONTINUOUS
10
1.63532
20
0.112706
11
1.64804
21
0.107899
0
LINE
8
BLACK
6
CONTINUOUS
10
1.64804
20
0.107899
11
1.66012
21
0.101662
0
LINE
8
BLACK
6
CONTINUOUS
10
1.66012
20
0.101662
11
1.67141
21
0.0940783
0
LINE
8
BLACK
6
CONTINUOUS
10
1.67141
20
0.0940783
11
1.68175
21
0.0852473
0
LINE
8
BLACK
6
CONTINUOUS
10
1.68175
20
0.0852473
11
1.69101
21
0.0752863
0
LINE
8
BLACK
6
CONTINUOUS
10
1.69101
20
0.0752863
11
1.69906
21
0.0643274
0
LINE
8
BLACK
6
CONTINUOUS
10
1.69906
20
0.0643274
11
1.70579
21
0.052516
0
LINE
8
BLACK
6
CONTINUOUS
10
1.70579
20
0.052516
11
1.71113
21
0.0400084
0
LINE
8
BLACK
6
CONTINUOUS
10
1.71113
20
0.0400084
11
1.71499
21
0.0269706
0
LINE
8
BLACK
6
CONTINUOUS
10
1.71499
20
0.0269706
11
1.71733
21
0.0135752
0
LINE
8
BLACK
6
CONTINUOUS
10
1.71733
20
0.0135752
11
1.71811
21
0
0
LINE
8
BLACK
6
CONTINUOUS
10
1.71811
20
0
11
1.71788
21
-0.00741622
0
LINE
8
BLACK
6
CONTINUOUS
10
1.71788
20
-0.00741622
11
1.71624
21
-0.0209155
0
LINE
8
BLACK
6
CONTINUOUS
10
1.71624
20
-0.0209155
11
1.71307
21
-0.0341376
0
LINE
8
BLACK
6
CONTINUOUS
10
1.71307
20
-0.0341376
11
1.7084
21
-0.0469072
0
LINE
8
BLACK
6
CONTINUOUS
10
1.7084
20
-0.0469072
11
1.70229
21
-0.0590551
0
LINE
8
BLACK
6
CONTINUOUS
10
1.70229
20
-0.0590551
11
1.69482
21
-0.0704203
0
LINE
8
BLACK
6
CONTINUOUS
10
1.69482
20
-0.0704203
11
1.6861
21
-0.080852
0
LINE
8
BLACK
6
CONTINUOUS
10
1.6861
20
-0.080852
11
1.67624
21
-0.0902121
0
LINE
8
BLACK
6
CONTINUOUS
10
1.67624
20
-0.0902121
11
1.66536
21
-0.0983765
0
LINE
8
BLACK
6
CONTINUOUS
10
1.66536
20
-0.0983765
11
1.65362
21
-0.105237
0
LINE
8
BLACK
6
CONTINUOUS
10
1.65362
20
-0.105237
11
1.64117
21
-0.110703
0
LINE
8
BLACK
6
CONTINUOUS
10
1.64117
20
-0.110703
11
1.62817
21
-0.114701
0
LINE
8
BLACK
6
CONTINUOUS
10
1.62817
20
-0.114701
11
1.6148
21
-0.117179
0
LINE
8
BLACK
6
CONTINUOUS
10
1.6148
20
-0.117179
11
1.60124
21
-0.118104
0
LINE
8
BLACK
6
CONTINUOUS
10
1.60124
20
-0.118104
11
1.58765
21
-0.117463
0
LINE
8
BLACK
6
CONTINUOUS
10
1.58765
20
-0.117463
11
1.57424
21
-0.115266
0
LINE
8
BLACK
6
CONTINUOUS
10
1.57424
20
-0.115266
11
1.56116
21
-0.111541
0
LINE
8
BLACK
6
CONTINUOUS
10
1.56116
20
-0.111541
11
1.54859
21
-0.106337
0
LINE
8
BLACK
6
CONTINUOUS
10
1.54859
20
-0.106337
11
1.53671
21
-0.0997238
0
LINE
8
BLACK
6
CONTINUOUS
10
1.53671
20
-0.0997238
11
1.52567
21
-0.0917889
0
LINE
8
BLACK
6
CONTINUOUS
10
1.52567
20
-0.0917889
11
1.51561
21
-0.0826374
0
LINE
8
BLACK
6
CONTINUOUS
10
1.51561
20
-0.0826374
11
1.50667
21
-0.0723906
0
LINE
8
BLACK
6
CONTINUOUS
10
1.50667
20
-0.0723906
11
1.49897
21
-0.0611843
0
LINE
8
BLACK
6
CONTINUOUS
10
1.49897
20
-0.0611843
11
1.49261
21
-0.049167
0
LINE
8
BLACK
6
CONTINUOUS
10
1.49261
20
-0.049167
11
1.48767
21
-0.0364981
0
LINE
8
BLACK
6
CONTINUOUS
10
1.48767
20
-0.0364981
11
1.48422
21
-0.0233454
0
LINE
8
BLACK
6
CONTINUOUS
10
1.48422
20
-0.0233454
11
1.4823
21
-0.00988323
0
LINE
8
BLACK
6
CONTINUOUS
10
1.4823
20
-0.00988323
11
1.48195
21
0.00370992
0
LINE
8
BLACK
6
CONTINUOUS
10
1.48195
20
0.00370992
11
1.48316
21
0.0172539
0
LINE
8
BLACK
6
CONTINUOUS
10
1.48316
20
0.0172539
11
1.48591
21
0.0305692
0
LINE
8
BLACK
6
CONTINUOUS
10
1.48591
20
0.0305692
11
1.49018
21
0.0434793
0
LINE
8
BLACK
6
CONTINUOUS
10
1.49018
20
0.0434793
11
1.49591
21
0.0558131
0
LINE
8
BLACK
6
CONTINUOUS
10
1.49591
20
0.0558131
11
1.50301
21
0.0674071
0
LINE
8
BLACK
6
CONTINUOUS
10
1.50301
20
0.0674071
11
1.5114
21
0.0781077
0
LINE
8
BLACK
6
CONTINUOUS
10
1.5114
20
0.0781077
11
1.52097
21
0.087773
0
LINE
8
BLACK
6
CONTINUOUS
10
1.52097
20
0.087773
11
1.53158
21
0.0962749
0
LINE
8
BLACK
6
CONTINUOUS
10
1.53158
20
0.0962749
11
1.5431
21
0.103501
0
LINE
8
BLACK
6
CONTINUOUS
10
1.5431
20
0.103501
11
1.55537
21
0.109355
0
LINE
8
BLACK
6
CONTINUOUS
10
1.55537
20
0.109355
11
1.56824
21
0.113759
0
LINE
8
BLACK
6
CONTINUOUS
10
1.56824
20
0.113759
11
1.58152
21
0.116656
0
LINE
8
BLACK
6
CONTINUOUS
10
1.58152
20
0.116656
11
1.59505
21
0.118007
0
LINE
8
BLACK
6
CONTINUOUS
10
1.59505
20
0.118007
11
1.60865
21
0.117793
0
CIRCLE
8
BLACK
10
0.710236
20
-0.60315
40
0.00787402
0
CIRCLE
8
BLACK
10
-0.106693
20
-0.264567
40
0.00787402
0
CIRCLE
8
BLACK
10
0.133465
20
-0.41811
40
0.00787402
  0
ENDSEC
  0
EOF
