  0
SECTION
  2
HEADER
  9
$ANGBASE
  50
0.0
  9
$ANGDIR
  70
1
  9
$MEASUREMENT
  70
0
  0
ENDSEC
  0
SECTION
  2
TABLES
  0
TABLE
  2
LTYPE
  70
4
  0
LTYPE
  5
40F
  2
CONTINUOUS
  70
0
  3
Solid line
  72
65
  73
0
  40
0.0
  0
LTYPE
  5
410
  2
DASHDOT
 70
0
  3
Dash Dot ____ _ ____ _
 72
65
 73
4
 40
2.0
 49
1.25
 49
-0.25
 49
0.25
 49
-0.25
  0
LTYPE
  5
411
  2
DASHED
 70
0
  3
Dashed __ __ __ __ __
 72
65
 73
2
 40
0.75
 49
0.5
 49
-0.25
  0
LTYPE
  5
43B
  2
DOTTED
 70
0
  3
Dotted .  .  .  .
 72
65
 73
2
 40
0.2
 49
0.0
 49
-0.2
  0
ENDTAB
  0
TABLE
  2
STYLE
  70
4
  0
STYLE
  2
KICAD
  70
0
  40
0
  41
1
  42
1
  50
0
  71
0
  3
isocp.shx
  0
STYLE
  2
KICADB
  70
0
  40
0
  41
1
  42
1
  50
0
  71
0
  3
isocp.shx
  0
STYLE
  2
KICADI
  70
0
  40
0
  41
1
  42
1
  50
15
  71
0
  3
isocp.shx
  0
STYLE
  2
KICADBI
  70
0
  40
0
  41
1
  42
1
  50
15
  71
0
  3
isocp.shx
  0
ENDTAB
  0
TABLE
  2
LAYER
  70
1
  0
LAYER
  2
BLACK
  70
0
  62
7
  6
CONTINUOUS
  0
ENDTAB
  0
ENDSEC
  0
SECTION
  2
ENTITIES
0
LINE
8
BLACK
6
CONTINUOUS
10
0.170866
20
-0.38563
11
0.171562
21
-0.385918
0
LINE
8
BLACK
6
CONTINUOUS
10
0.171562
20
-0.385918
11
0.17185
21
-0.386614
0
LINE
8
BLACK
6
CONTINUOUS
10
0.17185
20
-0.386614
11
0.17185
21
-0.571654
0
LINE
8
BLACK
6
CONTINUOUS
10
0.17185
20
-0.571654
11
0.171562
21
-0.57235
0
LINE
8
BLACK
6
CONTINUOUS
10
0.171562
20
-0.57235
11
0.170866
21
-0.572638
0
LINE
8
BLACK
6
CONTINUOUS
10
0.170866
20
-0.572638
11
0.0566929
21
-0.572638
0
LINE
8
BLACK
6
CONTINUOUS
10
0.0566929
20
-0.572638
11
0.0559969
21
-0.57235
0
LINE
8
BLACK
6
CONTINUOUS
10
0.0559969
20
-0.57235
11
0.0557087
21
-0.571654
0
LINE
8
BLACK
6
CONTINUOUS
10
0.0557087
20
-0.571654
11
0.0557087
21
-0.386614
0
LINE
8
BLACK
6
CONTINUOUS
10
0.0557087
20
-0.386614
11
0.0559969
21
-0.385918
0
LINE
8
BLACK
6
CONTINUOUS
10
0.0559969
20
-0.385918
11
0.0566929
21
-0.38563
0
LINE
8
BLACK
6
CONTINUOUS
10
0.0566929
20
-0.38563
11
0.170866
21
-0.38563
0
LINE
8
BLACK
6
CONTINUOUS
10
0.0576772
20
-0.387598
11
0.0576772
21
-0.570669
0
LINE
8
BLACK
6
CONTINUOUS
10
0.0576772
20
-0.570669
11
0.169882
21
-0.570669
0
LINE
8
BLACK
6
CONTINUOUS
10
0.169882
20
-0.570669
11
0.169882
21
-0.387598
0
LINE
8
BLACK
6
CONTINUOUS
10
0.169882
20
-0.387598
11
0.0576772
21
-0.387598
0
LINE
8
BLACK
6
CONTINUOUS
10
-0.0421826
20
-0.203298
11
-0.0330216
21
-0.205498
0
LINE
8
BLACK
6
CONTINUOUS
10
-0.0330216
20
-0.205498
11
-0.0243175
21
-0.209103
0
LINE
8
BLACK
6
CONTINUOUS
10
-0.0243175
20
-0.209103
11
-0.0162845
21
-0.214026
0
LINE
8
BLACK
6
CONTINUOUS
10
-0.0162845
20
-0.214026
11
-0.00912055
21
-0.220144
0
LINE
8
BLACK
6
CONTINUOUS
10
-0.00912055
20
-0.220144
11
-0.00300193
21
-0.227308
0
LINE
8
BLACK
6
CONTINUOUS
10
-0.00300193
20
-0.227308
11
0.00192067
21
-0.235341
0
LINE
8
BLACK
6
CONTINUOUS
10
0.00192067
20
-0.235341
11
0.00552602
21
-0.244045
0
LINE
8
BLACK
6
CONTINUOUS
10
0.00552602
20
-0.244045
11
0.00772539
21
-0.253206
0
LINE
8
BLACK
6
CONTINUOUS
10
0.00772539
20
-0.253206
11
0.00846457
21
-0.262598
0
LINE
8
BLACK
6
CONTINUOUS
10
0.00846457
20
-0.262598
11
0.00772539
21
-0.271991
0
LINE
8
BLACK
6
CONTINUOUS
10
0.00772539
20
-0.271991
11
0.00552602
21
-0.281152
0
LINE
8
BLACK
6
CONTINUOUS
10
0.00552602
20
-0.281152
11
0.00192067
21
-0.289856
0
LINE
8
BLACK
6
CONTINUOUS
10
0.00192067
20
-0.289856
11
-0.00300193
21
-0.297889
0
LINE
8
BLACK
6
CONTINUOUS
10
-0.00300193
20
-0.297889
11
-0.00912055
21
-0.305053
0
LINE
8
BLACK
6
CONTINUOUS
10
-0.00912055
20
-0.305053
11
-0.0162845
21
-0.311171
0
LINE
8
BLACK
6
CONTINUOUS
10
-0.0162845
20
-0.311171
11
-0.0243175
21
-0.316094
0
LINE
8
BLACK
6
CONTINUOUS
10
-0.0243175
20
-0.316094
11
-0.0330216
21
-0.319699
0
LINE
8
BLACK
6
CONTINUOUS
10
-0.0330216
20
-0.319699
11
-0.0421826
21
-0.321899
0
LINE
8
BLACK
6
CONTINUOUS
10
-0.0421826
20
-0.321899
11
-0.0515748
21
-0.322638
0
LINE
8
BLACK
6
CONTINUOUS
10
-0.0515748
20
-0.322638
11
-0.060967
21
-0.321899
0
LINE
8
BLACK
6
CONTINUOUS
10
-0.060967
20
-0.321899
11
-0.070128
21
-0.319699
0
LINE
8
BLACK
6
CONTINUOUS
10
-0.070128
20
-0.319699
11
-0.0788321
21
-0.316094
0
LINE
8
BLACK
6
CONTINUOUS
10
-0.0788321
20
-0.316094
11
-0.0868651
21
-0.311171
0
LINE
8
BLACK
6
CONTINUOUS
10
-0.0868651
20
-0.311171
11
-0.0940291
21
-0.305053
0
LINE
8
BLACK
6
CONTINUOUS
10
-0.0940291
20
-0.305053
11
-0.100148
21
-0.297889
0
LINE
8
BLACK
6
CONTINUOUS
10
-0.100148
20
-0.297889
11
-0.10507
21
-0.289856
0
LINE
8
BLACK
6
CONTINUOUS
10
-0.10507
20
-0.289856
11
-0.108676
21
-0.281152
0
LINE
8
BLACK
6
CONTINUOUS
10
-0.108676
20
-0.281152
11
-0.110875
21
-0.271991
0
LINE
8
BLACK
6
CONTINUOUS
10
-0.110875
20
-0.271991
11
-0.111614
21
-0.262598
0
LINE
8
BLACK
6
CONTINUOUS
10
-0.111614
20
-0.262598
11
-0.110875
21
-0.253206
0
LINE
8
BLACK
6
CONTINUOUS
10
-0.110875
20
-0.253206
11
-0.108676
21
-0.244045
0
LINE
8
BLACK
6
CONTINUOUS
10
-0.108676
20
-0.244045
11
-0.10507
21
-0.235341
0
LINE
8
BLACK
6
CONTINUOUS
10
-0.10507
20
-0.235341
11
-0.100148
21
-0.227308
0
LINE
8
BLACK
6
CONTINUOUS
10
-0.100148
20
-0.227308
11
-0.0940291
21
-0.220144
0
LINE
8
BLACK
6
CONTINUOUS
10
-0.0940291
20
-0.220144
11
-0.0868651
21
-0.214026
0
LINE
8
BLACK
6
CONTINUOUS
10
-0.0868651
20
-0.214026
11
-0.0788321
21
-0.209103
0
LINE
8
BLACK
6
CONTINUOUS
10
-0.0788321
20
-0.209103
11
-0.070128
21
-0.205498
0
LINE
8
BLACK
6
CONTINUOUS
10
-0.070128
20
-0.205498
11
-0.060967
21
-0.203298
0
LINE
8
BLACK
6
CONTINUOUS
10
-0.060967
20
-0.203298
11
-0.0515748
21
-0.202559
0
LINE
8
BLACK
6
CONTINUOUS
10
-0.0515748
20
-0.202559
11
-0.0421826
21
-0.203298
0
LINE
8
BLACK
6
CONTINUOUS
10
-0.10905
20
-0.272189
11
-0.106687
21
-0.281519
0
LINE
8
BLACK
6
CONTINUOUS
10
-0.106687
20
-0.281519
11
-0.102822
21
-0.290332
0
LINE
8
BLACK
6
CONTINUOUS
10
-0.102822
20
-0.290332
11
-0.0975579
21
-0.298389
0
LINE
8
BLACK
6
CONTINUOUS
10
-0.0975579
20
-0.298389
11
-0.0910399
21
-0.305469
0
LINE
8
BLACK
6
CONTINUOUS
10
-0.0910399
20
-0.305469
11
-0.0834454
21
-0.31138
0
LINE
8
BLACK
6
CONTINUOUS
10
-0.0834454
20
-0.31138
11
-0.0749815
21
-0.31596
0
LINE
8
BLACK
6
CONTINUOUS
10
-0.0749815
20
-0.31596
11
-0.0658792
21
-0.319085
0
LINE
8
BLACK
6
CONTINUOUS
10
-0.0658792
20
-0.319085
11
-0.0563867
21
-0.320669
0
LINE
8
BLACK
6
CONTINUOUS
10
-0.0563867
20
-0.320669
11
-0.0467629
21
-0.320669
0
LINE
8
BLACK
6
CONTINUOUS
10
-0.0467629
20
-0.320669
11
-0.0372704
21
-0.319085
0
LINE
8
BLACK
6
CONTINUOUS
10
-0.0372704
20
-0.319085
11
-0.0281681
21
-0.31596
0
LINE
8
BLACK
6
CONTINUOUS
10
-0.0281681
20
-0.31596
11
-0.0197042
21
-0.31138
0
LINE
8
BLACK
6
CONTINUOUS
10
-0.0197042
20
-0.31138
11
-0.0121097
21
-0.305469
0
LINE
8
BLACK
6
CONTINUOUS
10
-0.0121097
20
-0.305469
11
-0.00559169
21
-0.298389
0
LINE
8
BLACK
6
CONTINUOUS
10
-0.00559169
20
-0.298389
11
-0.000327953
21
-0.290332
0
LINE
8
BLACK
6
CONTINUOUS
10
-0.000327953
20
-0.290332
11
0.00353787
21
-0.281519
0
LINE
8
BLACK
6
CONTINUOUS
10
0.00353787
20
-0.281519
11
0.00590035
21
-0.272189
0
LINE
8
BLACK
6
CONTINUOUS
10
0.00590035
20
-0.272189
11
0.00669508
21
-0.262598
0
LINE
8
BLACK
6
CONTINUOUS
10
0.00669508
20
-0.262598
11
0.00590035
21
-0.253008
0
LINE
8
BLACK
6
CONTINUOUS
10
0.00590035
20
-0.253008
11
0.00353787
21
-0.243678
0
LINE
8
BLACK
6
CONTINUOUS
10
0.00353787
20
-0.243678
11
-0.000327953
21
-0.234865
0
LINE
8
BLACK
6
CONTINUOUS
10
-0.000327953
20
-0.234865
11
-0.00559169
21
-0.226808
0
LINE
8
BLACK
6
CONTINUOUS
10
-0.00559169
20
-0.226808
11
-0.0121097
21
-0.219728
0
LINE
8
BLACK
6
CONTINUOUS
10
-0.0121097
20
-0.219728
11
-0.0197042
21
-0.213817
0
LINE
8
BLACK
6
CONTINUOUS
10
-0.0197042
20
-0.213817
11
-0.0281681
21
-0.209236
0
LINE
8
BLACK
6
CONTINUOUS
10
-0.0281681
20
-0.209236
11
-0.0372704
21
-0.206112
0
LINE
8
BLACK
6
CONTINUOUS
10
-0.0372704
20
-0.206112
11
-0.0467629
21
-0.204528
0
LINE
8
BLACK
6
CONTINUOUS
10
-0.0467629
20
-0.204528
11
-0.0563867
21
-0.204528
0
LINE
8
BLACK
6
CONTINUOUS
10
-0.0563867
20
-0.204528
11
-0.0658792
21
-0.206112
0
LINE
8
BLACK
6
CONTINUOUS
10
-0.0658792
20
-0.206112
11
-0.0749815
21
-0.209236
0
LINE
8
BLACK
6
CONTINUOUS
10
-0.0749815
20
-0.209236
11
-0.0834454
21
-0.213817
0
LINE
8
BLACK
6
CONTINUOUS
10
-0.0834454
20
-0.213817
11
-0.0910399
21
-0.219728
0
LINE
8
BLACK
6
CONTINUOUS
10
-0.0910399
20
-0.219728
11
-0.0975579
21
-0.226808
0
LINE
8
BLACK
6
CONTINUOUS
10
-0.0975579
20
-0.226808
11
-0.102822
21
-0.234865
0
LINE
8
BLACK
6
CONTINUOUS
10
-0.102822
20
-0.234865
11
-0.106687
21
-0.243678
0
LINE
8
BLACK
6
CONTINUOUS
10
-0.106687
20
-0.243678
11
-0.10905
21
-0.253008
0
LINE
8
BLACK
6
CONTINUOUS
10
-0.10905
20
-0.253008
11
-0.109845
21
-0.262598
0
LINE
8
BLACK
6
CONTINUOUS
10
-0.109845
20
-0.262598
11
-0.10905
21
-0.272189
  0
ENDSEC
  0
EOF
