<!DOCTYPE svg PUBLIC "-//W3C//DTD SVG 1.1//EN" "http://www.w3.org/Graphics/SVG/1.1/DTD/svg11.dtd">
<svg xmlns="http://www.w3.org/2000/svg" version="1.1" width="70.552mm" height="70.552mm" viewBox="-2102860.0 666040.0 705520.0 705520.0">
            <title>Picture generated by PcbDraw </title>
            <desc>Picture generated by PcbDraw</desc>
        <defs><clipPath id="cut-off"><path d=" M 2052360.0 1321060.0 L 2052360.0 716540.0 L 1447840.0 716540.0 L 1447840.0 1321060.0 L 2052360.0 1321060.0 " style="fill-rule: evenodd;"/></clipPath><mask id="pads-mask"><g style="fill:#ffffff; fill-opacity:0.0;  stroke:#ffffff; stroke-width:0.000000; stroke-opacity:1;  stroke-linecap:round; stroke-linejoin:round;">
<g style="fill:#ffffff; fill-opacity:1.0;  stroke:#ffffff; stroke-width:0.010000; stroke-opacity:1;  stroke-linecap:round; stroke-linejoin:round;">
<circle cx="1496100.000000" cy="764800.000000" r="32000.000000"/> 
</g>
<g style="fill:#ffffff; fill-opacity:1.0;  stroke:#ffffff; stroke-width:0.010000; stroke-opacity:1;  stroke-linecap:round; stroke-linejoin:round;">
<circle cx="1902500.000000" cy="764800.000000" r="32000.000000"/> 
</g>
<g style="fill:#ffffff; fill-opacity:1.0;  stroke:#ffffff; stroke-width:0.010000; stroke-opacity:1;  stroke-linecap:round; stroke-linejoin:round;">
<circle cx="1496100.000000" cy="968000.000000" r="32000.000000"/> 
</g>
<g style="fill:#ffffff; fill-opacity:1.0;  stroke:#ffffff; stroke-width:0.010000; stroke-opacity:1;  stroke-linecap:round; stroke-linejoin:round;">
<circle cx="1483000.000000" cy="831500.000000" r="12000.000000"/> 
</g>
<g style="fill:#ffffff; fill-opacity:1.0;  stroke:#ffffff; stroke-width:0.010000; stroke-opacity:1;  stroke-linecap:round; stroke-linejoin:round;">
<circle cx="1677500.000000" cy="886000.000000" r="4549.500000"/> 
</g>
<g style="fill:#ffffff; fill-opacity:1.0;  stroke:#ffffff; stroke-width:0.010000; stroke-opacity:1;  stroke-linecap:round; stroke-linejoin:round;">
<path style="fill:#ffffff; fill-opacity:1.0;  stroke:#ffffff; stroke-width:0.010000; stroke-opacity:1;  stroke-linecap:round; stroke-linejoin:round;fill-rule:evenodd;" d="M 1515000.000000,907500.000000 1514234.630000,907347.760000 1513585.790000,906914.210000 1513152.240000,906265.370000 1513000.000000,905500.000000 1513000.000000,867500.000000 1513152.240000,866734.630000 1513585.790000,866085.790000 1514234.630000,865652.240000 1515000.000000,865500.000000 1535000.000000,865500.000000 1535765.370000,865652.240000 1536414.210000,866085.790000 1536847.760000,866734.630000 1537000.000000,867500.000000 1537000.000000,905500.000000 1536847.760000,906265.370000 1536414.210000,906914.210000 1535765.370000,907347.760000 1535000.000000,907500.000000 Z"/> 
</g>
<g style="fill:#ffffff; fill-opacity:1.0;  stroke:#ffffff; stroke-width:0.010000; stroke-opacity:1;  stroke-linecap:round; stroke-linejoin:round;">
<g>
<path style="fill:#ffffff; fill-opacity:1.0;  stroke:#ffffff; stroke-width:0.010000; stroke-opacity:1;  stroke-linecap:round; stroke-linejoin:round;fill-rule:evenodd;" d="M 2052215.020000,716684.980000 2052360.000000,717035.000000 2052360.000000,1320565.000000 2052215.020000,1320915.020000 2051865.000000,1321060.000000 1448335.000000,1321060.000000 1447984.980000,1320915.020000 1447840.000000,1320565.000000 1447840.000000,717035.000000 1447984.980000,716684.980000 1448335.000000,716540.000000 2051865.000000,716540.000000 Z"/> 
</g>
</g>
</g> 
</mask><mask id="pads-mask-silkscreen"><rect x="1447340.0" y="716040.0" width="605520.0" height="605520.0" fill="white"/><g style="fill:#000000; fill-opacity:0.0;  stroke:#000000; stroke-width:0.000000; stroke-opacity:1;  stroke-linecap:round; stroke-linejoin:round;">
<g style="fill:#000000; fill-opacity:1.0;  stroke:#000000; stroke-width:0.010000; stroke-opacity:1;  stroke-linecap:round; stroke-linejoin:round;">
<circle cx="1496100.000000" cy="764800.000000" r="32000.000000"/> 
</g>
<g style="fill:#000000; fill-opacity:1.0;  stroke:#000000; stroke-width:0.010000; stroke-opacity:1;  stroke-linecap:round; stroke-linejoin:round;">
<circle cx="1902500.000000" cy="764800.000000" r="32000.000000"/> 
</g>
<g style="fill:#000000; fill-opacity:1.0;  stroke:#000000; stroke-width:0.010000; stroke-opacity:1;  stroke-linecap:round; stroke-linejoin:round;">
<circle cx="1496100.000000" cy="968000.000000" r="32000.000000"/> 
</g>
<g style="fill:#000000; fill-opacity:1.0;  stroke:#000000; stroke-width:0.010000; stroke-opacity:1;  stroke-linecap:round; stroke-linejoin:round;">
<circle cx="1483000.000000" cy="831500.000000" r="12000.000000"/> 
</g>
<g style="fill:#000000; fill-opacity:1.0;  stroke:#000000; stroke-width:0.010000; stroke-opacity:1;  stroke-linecap:round; stroke-linejoin:round;">
<circle cx="1677500.000000" cy="886000.000000" r="4549.500000"/> 
</g>
<g style="fill:#000000; fill-opacity:1.0;  stroke:#000000; stroke-width:0.010000; stroke-opacity:1;  stroke-linecap:round; stroke-linejoin:round;">
<path style="fill:#000000; fill-opacity:1.0;  stroke:#000000; stroke-width:0.010000; stroke-opacity:1;  stroke-linecap:round; stroke-linejoin:round;fill-rule:evenodd;" d="M 1515000.000000,907500.000000 1514234.630000,907347.760000 1513585.790000,906914.210000 1513152.240000,906265.370000 1513000.000000,905500.000000 1513000.000000,867500.000000 1513152.240000,866734.630000 1513585.790000,866085.790000 1514234.630000,865652.240000 1515000.000000,865500.000000 1535000.000000,865500.000000 1535765.370000,865652.240000 1536414.210000,866085.790000 1536847.760000,866734.630000 1537000.000000,867500.000000 1537000.000000,905500.000000 1536847.760000,906265.370000 1536414.210000,906914.210000 1535765.370000,907347.760000 1535000.000000,907500.000000 Z"/> 
</g>
<g style="fill:#000000; fill-opacity:1.0;  stroke:#000000; stroke-width:0.010000; stroke-opacity:1;  stroke-linecap:round; stroke-linejoin:round;">
<g>
<path style="fill:#000000; fill-opacity:1.0;  stroke:#000000; stroke-width:0.010000; stroke-opacity:1;  stroke-linecap:round; stroke-linejoin:round;fill-rule:evenodd;" d="M 2052215.020000,716684.980000 2052360.000000,717035.000000 2052360.000000,1320565.000000 2052215.020000,1320915.020000 2051865.000000,1321060.000000 1448335.000000,1321060.000000 1447984.980000,1320915.020000 1447840.000000,1320565.000000 1447840.000000,717035.000000 1447984.980000,716684.980000 1448335.000000,716540.000000 2051865.000000,716540.000000 Z"/> 
</g>
</g>
</g> 
</mask><mask id="hole-mask"><g><rect x="1447340.0" y="716040.0" fill="white" width="605520.0" height="605520.0"/><polyline stroke-linecap="round" stroke="black" stroke-width="30000.0" points="-0.0 0 0.0 0" transform="translate(1496100.0 764800.0) rotate(-0.0)"/><polyline stroke-linecap="round" stroke="black" stroke-width="30000.0" points="-0.0 0 0.0 0" transform="translate(1902500.0 764800.0) rotate(-0.0)"/><polyline stroke-linecap="round" stroke="black" stroke-width="30000.0" points="-0.0 0 0.0 0" transform="translate(1496100.0 968000.0) rotate(-0.0)"/><polyline stroke-linecap="round" stroke="black" stroke-width="4000.0" points="-0.0 0 0.0 0" transform="translate(1676500.0 918000.0) rotate(0)"/><polyline stroke-linecap="round" stroke="black" stroke-width="4000.0" points="-0.0 0 0.0 0" transform="translate(1469000.0 832000.0) rotate(0)"/><polyline stroke-linecap="round" stroke="black" stroke-width="4000.0" points="-0.0 0 0.0 0" transform="translate(1530000.0 871000.0) rotate(0)"/></g></mask></defs><g transform="scale(-1,1)" id="boardContainer"><g id="substrate" clip-path="url(#cut-off)" mask="url(#hole-mask)"><g id="substrate-board" style="fill:#f1f4f3; stroke:#f1f4f3;"><path d=" M 2052360.0 1321060.0 L 2052360.0 716540.0 L 1447840.0 716540.0 L 1447840.0 1321060.0 L 2052360.0 1321060.0 " style="fill-rule: evenodd;"/><g style="fill-opacity: 0.0;stroke-width: 1000.000000;stroke-opacity: 1;stroke-linecap: round;stroke-linejoin: round">
<path d="M1447840 1321060 L2052360 1321060 "/>
<path d="M1447840 716540 L2052360 716540 "/>
<path d="M2052360 716540 L2052360 1321060 "/>
<path d="M1447840 1321060 L1447840 716540 "/>
</g> 
</g><g id="substrate-clad" style="fill:#72786c; stroke:#72786c;"><g style="fill-opacity: 0.0;stroke-width: 0.000000;stroke-opacity: 1;stroke-linecap: round;stroke-linejoin: round">
<g style="fill-opacity: 1.0;stroke-width: 0.010000;stroke-opacity: 1;stroke-linecap: round;stroke-linejoin: round">
<circle cx="1496100.000000" cy="764800.000000" r="32000.000000"/> 
</g>
<g style="fill-opacity: 1.0;stroke-width: 0.010000;stroke-opacity: 1;stroke-linecap: round;stroke-linejoin: round">
<circle cx="1902500.000000" cy="764800.000000" r="32000.000000"/> 
</g>
<g style="fill-opacity: 1.0;stroke-width: 0.010000;stroke-opacity: 1;stroke-linecap: round;stroke-linejoin: round">
<circle cx="1496100.000000" cy="968000.000000" r="32000.000000"/> 
</g>
<g style="fill-opacity: 1.0;stroke-width: 0.010000;stroke-opacity: 1;stroke-linecap: round;stroke-linejoin: round">
<circle cx="1483000.000000" cy="831500.000000" r="12000.000000"/> 
</g>
<g style="fill-opacity: 1.0;stroke-width: 0.010000;stroke-opacity: 1;stroke-linecap: round;stroke-linejoin: round">
<circle cx="1677500.000000" cy="886000.000000" r="4549.500000"/> 
</g>
<g style="fill-opacity: 1.0;stroke-width: 0.010000;stroke-opacity: 1;stroke-linecap: round;stroke-linejoin: round">
<path style="fill-opacity: 1.0;stroke-width: 0.010000;stroke-opacity: 1;stroke-linecap: round;stroke-linejoin: round;fill-rule: evenodd" d="M 1515000.000000,907500.000000 1514234.630000,907347.760000 1513585.790000,906914.210000 1513152.240000,906265.370000 1513000.000000,905500.000000 1513000.000000,867500.000000 1513152.240000,866734.630000 1513585.790000,866085.790000 1514234.630000,865652.240000 1515000.000000,865500.000000 1535000.000000,865500.000000 1535765.370000,865652.240000 1536414.210000,866085.790000 1536847.760000,866734.630000 1537000.000000,867500.000000 1537000.000000,905500.000000 1536847.760000,906265.370000 1536414.210000,906914.210000 1535765.370000,907347.760000 1535000.000000,907500.000000 Z"/> 
</g>
<g style="fill-opacity: 1.0;stroke-width: 0.010000;stroke-opacity: 1;stroke-linecap: round;stroke-linejoin: round">
<g>
<path style="fill-opacity: 1.0;stroke-width: 0.010000;stroke-opacity: 1;stroke-linecap: round;stroke-linejoin: round;fill-rule: evenodd" d="M 2052215.020000,716684.980000 2052360.000000,717035.000000 2052360.000000,1320565.000000 2052215.020000,1320915.020000 2051865.000000,1321060.000000 1448335.000000,1321060.000000 1447984.980000,1320915.020000 1447840.000000,1320565.000000 1447840.000000,717035.000000 1447984.980000,716684.980000 1448335.000000,716540.000000 2051865.000000,716540.000000 Z"/> 
</g>
</g>
</g> 
</g><g id="substrate-copper" style="fill:#f8f8f7; stroke:#f8f8f7;"><g style="fill-opacity: 0.0;stroke-width: 3000.000000;stroke-opacity: 1;stroke-linecap: round;stroke-linejoin: round">
<text x="1492000.000000" y="1310500.000000" transform="scale(-1 1) translate(-2984000.000000 0)" textLength="55192.860000" font-size="20000.000000" lengthAdjust="spacingAndGlyphs" text-anchor="middle" opacity="0">MLAB</text>
<g class="stroked-text"><desc>MLAB</desc>
<path d="M1517000 1309785 L1517000 1294785 L1512000 1305500 L1507000 1294785 L1507000 1309785 "/>
<path d="M1492714 1309785 L1499857 1309785 L1499857 1294785 "/>
<path d="M1488428 1305500 L1481285 1305500 "/>
<path d="M1489857 1309785 L1484857 1294785 L1479857 1309785 "/>
<path d="M1469857 1301928 L1467714 1302642 L1467000 1303357 L1466285 1304785 L1466285 1306928 L1467000 1308357 L1467714 1309071 L1469142 1309785 L1474857 1309785 L1474857 1294785 L1469857 1294785 L1468428 1295500 L1467714 1296214 L1467000 1297642 L1467000 1299071 L1467714 1300500 L1468428 1301214 L1469857 1301928 L1474857 1301928 "/>
</g><g style="fill-opacity: 1.0;stroke-width: 0.010000;stroke-opacity: 1;stroke-linecap: round;stroke-linejoin: round">
<circle cx="1496100.000000" cy="764800.000000" r="30000.000000"/> 
</g>
<g style="fill-opacity: 1.0;stroke-width: 0.010000;stroke-opacity: 1;stroke-linecap: round;stroke-linejoin: round">
<circle cx="1902500.000000" cy="764800.000000" r="30000.000000"/> 
</g>
<g style="fill-opacity: 1.0;stroke-width: 0.010000;stroke-opacity: 1;stroke-linecap: round;stroke-linejoin: round">
<circle cx="1496100.000000" cy="968000.000000" r="30000.000000"/> 
</g>
<g style="fill-opacity: 1.0;stroke-width: 0.010000;stroke-opacity: 1;stroke-linecap: round;stroke-linejoin: round">
<circle cx="1483000.000000" cy="831500.000000" r="10000.000000"/> 
</g>
<g style="fill-opacity: 1.0;stroke-width: 0.010000;stroke-opacity: 1;stroke-linecap: round;stroke-linejoin: round">
<circle cx="1677500.000000" cy="886000.000000" r="2549.500000"/> 
</g>
<g style="fill-opacity: 1.0;stroke-width: 0.010000;stroke-opacity: 1;stroke-linecap: round;stroke-linejoin: round">
<path style="fill-opacity: 1.0;stroke-width: 0.010000;stroke-opacity: 1;stroke-linecap: round;stroke-linejoin: round;fill-rule: evenodd" d="M 1535000.000000,905500.000000 1515000.000000,905500.000000 1515000.000000,867500.000000 1535000.000000,867500.000000 Z"/> 
</g>
<g style="fill-opacity: 1.0;stroke-width: 0.010000;stroke-opacity: 1;stroke-linecap: round;stroke-linejoin: round">
<circle cx="1676500.000000" cy="918000.000000" r="4000.000000"/> 
</g>
<g style="fill-opacity: 1.0;stroke-width: 0.010000;stroke-opacity: 1;stroke-linecap: round;stroke-linejoin: round">
<circle cx="1469000.000000" cy="832000.000000" r="4000.000000"/> 
</g>
<g style="fill-opacity: 1.0;stroke-width: 0.010000;stroke-opacity: 1;stroke-linecap: round;stroke-linejoin: round">
<circle cx="1530000.000000" cy="871000.000000" r="4000.000000"/> 
</g>
<g style="fill-opacity: 0.0;stroke-width: 2500.000000;stroke-opacity: 1;stroke-linecap: round;stroke-linejoin: round">
<path d="M1469000 832000 L1469500 831500 "/>
<path d="M1469500 831500 L1483000 831500 "/>
</g>
<g style="fill-opacity: 0.0;stroke-width: 2500.000000;stroke-opacity: 1;stroke-linecap: round;stroke-linejoin: round">
<g style="fill-opacity: 1.0;stroke-width: 0.010000;stroke-opacity: 1;stroke-linecap: round;stroke-linejoin: round">
<path style="fill-opacity: 1.0;stroke-width: 0.010000;stroke-opacity: 1;stroke-linecap: round;stroke-linejoin: round;fill-rule: evenodd" d="M 1871421.210000,877200.020000 1871886.140000,877736.580000 1872000.000000,878260.000000 1872000.000000,1048740.000000 1871799.980000,1049421.210000 1871263.420000,1049886.140000 1870740.000000,1050000.000000 1672260.000000,1050000.000000 1671578.790000,1049799.980000 1671113.860000,1049263.420000 1671000.000000,1048740.000000 1671000.000000,878260.000000 1671200.020000,877578.790000 1671736.580000,877113.860000 1672260.000000,877000.000000 1870740.000000,877000.000000 Z"/> 
</g>
</g>
</g> 
</g><g id="substrate-pads" style="fill:#c4c1ba; stroke:#c4c1ba;" mask="url(#pads-mask)"><g style="fill-opacity: 0.0;stroke-width: 3000.000000;stroke-opacity: 1;stroke-linecap: round;stroke-linejoin: round">
<text x="1492000.000000" y="1310500.000000" transform="scale(-1 1) translate(-2984000.000000 0)" textLength="53242.860000" font-size="20000.000000" lengthAdjust="spacingAndGlyphs" text-anchor="middle" opacity="0">MLAB</text>
<g class="stroked-text"><desc>MLAB</desc>
<path d="M1517000 1309785 L1517000 1294785 L1512000 1305500 L1507000 1294785 L1507000 1309785 "/>
<path d="M1492714 1309785 L1499857 1309785 L1499857 1294785 "/>
<path d="M1488428 1305500 L1481285 1305500 "/>
<path d="M1489857 1309785 L1484857 1294785 L1479857 1309785 "/>
<path d="M1469857 1301928 L1467714 1302642 L1467000 1303357 L1466285 1304785 L1466285 1306928 L1467000 1308357 L1467714 1309071 L1469142 1309785 L1474857 1309785 L1474857 1294785 L1469857 1294785 L1468428 1295500 L1467714 1296214 L1467000 1297642 L1467000 1299071 L1467714 1300500 L1468428 1301214 L1469857 1301928 L1474857 1301928 "/>
</g><g style="fill-opacity: 1.0;stroke-width: 0.010000;stroke-opacity: 1;stroke-linecap: round;stroke-linejoin: round">
<circle cx="1496100.000000" cy="764800.000000" r="30000.000000"/> 
</g>
<g style="fill-opacity: 1.0;stroke-width: 0.010000;stroke-opacity: 1;stroke-linecap: round;stroke-linejoin: round">
<circle cx="1902500.000000" cy="764800.000000" r="30000.000000"/> 
</g>
<g style="fill-opacity: 1.0;stroke-width: 0.010000;stroke-opacity: 1;stroke-linecap: round;stroke-linejoin: round">
<circle cx="1496100.000000" cy="968000.000000" r="30000.000000"/> 
</g>
<g style="fill-opacity: 1.0;stroke-width: 0.010000;stroke-opacity: 1;stroke-linecap: round;stroke-linejoin: round">
<circle cx="1483000.000000" cy="831500.000000" r="10000.000000"/> 
</g>
<g style="fill-opacity: 1.0;stroke-width: 0.010000;stroke-opacity: 1;stroke-linecap: round;stroke-linejoin: round">
<circle cx="1677500.000000" cy="886000.000000" r="2549.500000"/> 
</g>
<g style="fill-opacity: 1.0;stroke-width: 0.010000;stroke-opacity: 1;stroke-linecap: round;stroke-linejoin: round">
<path style="fill-opacity: 1.0;stroke-width: 0.010000;stroke-opacity: 1;stroke-linecap: round;stroke-linejoin: round;fill-rule: evenodd" d="M 1535000.000000,905500.000000 1515000.000000,905500.000000 1515000.000000,867500.000000 1535000.000000,867500.000000 Z"/> 
</g>
<g style="fill-opacity: 1.0;stroke-width: 0.010000;stroke-opacity: 1;stroke-linecap: round;stroke-linejoin: round">
<circle cx="1676500.000000" cy="918000.000000" r="4000.000000"/> 
</g>
<g style="fill-opacity: 1.0;stroke-width: 0.010000;stroke-opacity: 1;stroke-linecap: round;stroke-linejoin: round">
<circle cx="1469000.000000" cy="832000.000000" r="4000.000000"/> 
</g>
<g style="fill-opacity: 1.0;stroke-width: 0.010000;stroke-opacity: 1;stroke-linecap: round;stroke-linejoin: round">
<circle cx="1530000.000000" cy="871000.000000" r="4000.000000"/> 
</g>
<g style="fill-opacity: 0.0;stroke-width: 2500.000000;stroke-opacity: 1;stroke-linecap: round;stroke-linejoin: round">
<path d="M1469000 832000 L1469500 831500 "/>
<path d="M1469500 831500 L1483000 831500 "/>
</g>
<g style="fill-opacity: 0.0;stroke-width: 2500.000000;stroke-opacity: 1;stroke-linecap: round;stroke-linejoin: round">
<g style="fill-opacity: 1.0;stroke-width: 0.010000;stroke-opacity: 1;stroke-linecap: round;stroke-linejoin: round">
<path style="fill-opacity: 1.0;stroke-width: 0.010000;stroke-opacity: 1;stroke-linecap: round;stroke-linejoin: round;fill-rule: evenodd" d="M 1871421.210000,877200.020000 1871886.140000,877736.580000 1872000.000000,878260.000000 1872000.000000,1048740.000000 1871799.980000,1049421.210000 1871263.420000,1049886.140000 1870740.000000,1050000.000000 1672260.000000,1050000.000000 1671578.790000,1049799.980000 1671113.860000,1049263.420000 1671000.000000,1048740.000000 1671000.000000,878260.000000 1671200.020000,877578.790000 1671736.580000,877113.860000 1672260.000000,877000.000000 1870740.000000,877000.000000 Z"/> 
</g>
</g>
</g> 
</g><g id="substrate-silk" style="fill:#0b1013; stroke:#0b1013;" mask="url(#pads-mask-silkscreen)"><g style="fill-opacity: 0.0;stroke-width: 3000.000000;stroke-opacity: 1;stroke-linecap: round;stroke-linejoin: round">
<text x="1757500.000000" y="758000.000000" transform="scale(-1 1) translate(-3515000.000000 0)" textLength="184719.050000" font-size="22666.660000" lengthAdjust="spacingAndGlyphs" text-anchor="middle" opacity="0">PINHOLDER02A</text>
<g class="stroked-text"><desc>PINHOLDER02A</desc>
<path d="M1847761 757190 L1847761 740190 L1841285 740190 L1839666 741000 L1838857 741809 L1838047 743428 L1838047 745857 L1838857 747476 L1839666 748285 L1841285 749095 L1847761 749095 "/>
<path d="M1830761 757190 L1830761 740190 "/>
<path d="M1822666 757190 L1822666 740190 L1812952 757190 L1812952 740190 "/>
<path d="M1804857 757190 L1804857 740190 "/>
<path d="M1804857 748285 L1795142 748285 "/>
<path d="M1795142 757190 L1795142 740190 "/>
<path d="M1783809 740190 L1780571 740190 L1778952 741000 L1777333 742619 L1776523 745857 L1776523 751523 L1777333 754761 L1778952 756380 L1780571 757190 L1783809 757190 L1785428 756380 L1787047 754761 L1787857 751523 L1787857 745857 L1787047 742619 L1785428 741000 L1783809 740190 "/>
<path d="M1761142 757190 L1769238 757190 L1769238 740190 "/>
<path d="M1755476 757190 L1755476 740190 L1751428 740190 L1749000 741000 L1747380 742619 L1746571 744238 L1745761 747476 L1745761 749904 L1746571 753142 L1747380 754761 L1749000 756380 L1751428 757190 L1755476 757190 "/>
<path d="M1738476 748285 L1732809 748285 "/>
<path d="M1730380 757190 L1738476 757190 L1738476 740190 L1730380 740190 "/>
<path d="M1713380 757190 L1719047 749095 "/>
<path d="M1723095 757190 L1723095 740190 L1716619 740190 L1715000 741000 L1714190 741809 L1713380 743428 L1713380 745857 L1714190 747476 L1715000 748285 L1716619 749095 L1723095 749095 "/>
<path d="M1702857 740190 L1701238 740190 L1699619 741000 L1698809 741809 L1698000 743428 L1697190 746666 L1697190 750714 L1698000 753952 L1698809 755571 L1699619 756380 L1701238 757190 L1702857 757190 L1704476 756380 L1705285 755571 L1706095 753952 L1706904 750714 L1706904 746666 L1706095 743428 L1705285 741809 L1704476 741000 L1702857 740190 "/>
<path d="M1690714 741809 L1689904 741000 L1688285 740190 L1684238 740190 L1682619 741000 L1681809 741809 L1681000 743428 L1681000 745047 L1681809 747476 L1691523 757190 L1681000 757190 "/>
<path d="M1674523 752333 L1666428 752333 "/>
<path d="M1676142 757190 L1670476 740190 L1664809 757190 "/>
</g></g>
<g style="fill-opacity: 0.0;stroke-width: 2500.000000;stroke-opacity: 1;stroke-linecap: round;stroke-linejoin: round">
<text x="1482500.000000" y="863500.000000" transform="scale(-1 1) translate(-2965000.000000 0)" textLength="26576.190000" font-size="13333.330000" lengthAdjust="spacingAndGlyphs" text-anchor="middle" opacity="0">GND</text>
<g class="stroked-text"><desc>GND</desc>
<path d="M1490119 853500 L1491071 853023 L1492500 853023 L1493928 853500 L1494880 854452 L1495357 855404 L1495833 857309 L1495833 858738 L1495357 860642 L1494880 861595 L1493928 862547 L1492500 863023 L1491547 863023 L1490119 862547 L1489642 862071 L1489642 858738 L1491547 858738 "/>
<path d="M1485357 863023 L1485357 853023 L1479642 863023 L1479642 853023 "/>
<path d="M1474880 863023 L1474880 853023 L1472500 853023 L1471071 853500 L1470119 854452 L1469642 855404 L1469166 857309 L1469166 858738 L1469642 860642 L1470119 861595 L1471071 862547 L1472500 863023 L1474880 863023 "/>
</g></g>
<g style="fill-opacity: 0.0;stroke-width: 3000.000000;stroke-opacity: 1;stroke-linecap: round;stroke-linejoin: round">
<text x="1600240.000000" y="756425.000000" transform="scale(-1 1) translate(-3200480.000000 0)" textLength="86035.710000" font-size="20000.000000" lengthAdjust="spacingAndGlyphs" text-anchor="middle" opacity="0">MLAB.cz</text>
<g class="stroked-text"><desc>MLAB.cz</desc>
<path d="M1641311 755710 L1641311 740710 L1636311 751425 L1631311 740710 L1631311 755710 "/>
<path d="M1617025 755710 L1624168 755710 L1624168 740710 "/>
<path d="M1612740 751425 L1605597 751425 "/>
<path d="M1614168 755710 L1609168 740710 L1604168 755710 "/>
<path d="M1594168 747853 L1592025 748567 L1591311 749282 L1590597 750710 L1590597 752853 L1591311 754282 L1592025 754996 L1593454 755710 L1599168 755710 L1599168 740710 L1594168 740710 L1592740 741425 L1592025 742139 L1591311 743567 L1591311 744996 L1592025 746425 L1592740 747139 L1594168 747853 L1599168 747853 "/>
<path d="M1584168 754282 L1583454 754996 L1584168 755710 L1584882 754996 L1584168 754282 L1584168 755710 "/>
<path d="M1570597 754996 L1572025 755710 L1574882 755710 L1576311 754996 L1577025 754282 L1577740 752853 L1577740 748567 L1577025 747139 L1576311 746425 L1574882 745710 L1572025 745710 L1570597 746425 "/>
<path d="M1565597 745710 L1557740 745710 L1565597 755710 L1557740 755710 "/>
</g></g>
<g style="fill-opacity: 0.0;stroke-width: 1500.000000;stroke-opacity: 1;stroke-linecap: round;stroke-linejoin: round">
<g transform="rotate(-90.000000 1502500.000000 888500.000000)">
<text x="1502500.000000" y="893500.000000" transform="scale(-1 1) translate(-3005000.000000 0)" textLength="4671.430000" font-size="13333.330000" lengthAdjust="spacingAndGlyphs" text-anchor="middle" opacity="0">A</text>
</g>
<g class="stroked-text"><desc>A</desc>
<path d="M1504166 886119 L1504166 890880 "/>
<path d="M1507023 885166 L1497023 888500 L1507023 891833 "/>
</g></g>
<g style="fill-opacity: 0.0;stroke-width: 1200.000000;stroke-opacity: 1;stroke-linecap: round;stroke-linejoin: round">
<circle cx="1483000.000000" cy="831500.000000" r="12000.000000"/> 
</g>
<g style="fill-opacity: 0.0;stroke-width: 1500.000000;stroke-opacity: 1;stroke-linecap: round;stroke-linejoin: round">
<path d="M1537000 907500 L1537000 865500 "/>
<path d="M1513000 907500 L1537000 907500 "/>
<path d="M1537000 865500 L1513000 865500 "/>
<path d="M1513000 865500 L1513000 907500 "/>
</g> 
</g><g id="substrate-outline" style="fill:#000000; stroke:#000000; stroke-width: 1500.0"><g style="fill-opacity: 0.0;stroke-opacity: 1;stroke-linecap: round;stroke-linejoin: round">
<path d="M1447840 1321060 L2052360 1321060 "/>
<path d="M1447840 716540 L2052360 716540 "/>
<path d="M2052360 716540 L2052360 1321060 "/>
<path d="M1447840 1321060 L1447840 716540 "/>
</g> 
<path d="M -15000.0 0.0 A 15000.0 15000.0 0 1 1 15000.0 0.0 L 15000.0 -0.0 A 15000.0 15000.0 0 1 1 -15000.0 -0.0 Z" transform="translate(1496100.0 764800.0) rotate(-0.0)"/><path d="M -15000.0 0.0 A 15000.0 15000.0 0 1 1 15000.0 0.0 L 15000.0 -0.0 A 15000.0 15000.0 0 1 1 -15000.0 -0.0 Z" transform="translate(1902500.0 764800.0) rotate(-0.0)"/><path d="M -15000.0 0.0 A 15000.0 15000.0 0 1 1 15000.0 0.0 L 15000.0 -0.0 A 15000.0 15000.0 0 1 1 -15000.0 -0.0 Z" transform="translate(1496100.0 968000.0) rotate(-0.0)"/><path d="M -2000.0 0.0 A 2000.0 2000.0 0 1 1 2000.0 0.0 L 2000.0 -0.0 A 2000.0 2000.0 0 1 1 -2000.0 -0.0 Z" transform="translate(1676500.0 918000.0) rotate(0)"/><path d="M -2000.0 0.0 A 2000.0 2000.0 0 1 1 2000.0 0.0 L 2000.0 -0.0 A 2000.0 2000.0 0 1 1 -2000.0 -0.0 Z" transform="translate(1469000.0 832000.0) rotate(0)"/><path d="M -2000.0 0.0 A 2000.0 2000.0 0 1 1 2000.0 0.0 L 2000.0 -0.0 A 2000.0 2000.0 0 1 1 -2000.0 -0.0 Z" transform="translate(1530000.0 871000.0) rotate(0)"/></g></g><g id="substrate-paste" style="fill:#8a8a8a; stroke:#8a8a8a;"><g style="fill-opacity: 0.0;stroke-width: 0.000000;stroke-opacity: 1;stroke-linecap: round;stroke-linejoin: round">
<g style="fill-opacity: 1.0;stroke-width: 0.010000;stroke-opacity: 1;stroke-linecap: round;stroke-linejoin: round">
<path style="fill-opacity: 1.0;stroke-width: 0.010000;stroke-opacity: 1;stroke-linecap: round;stroke-linejoin: round;fill-rule: evenodd" d="M 1535000.000000,905500.000000 1515000.000000,905500.000000 1515000.000000,867500.000000 1535000.000000,867500.000000 Z"/> 
</g>
</g> 
</g></g></svg>