<!DOCTYPE svg PUBLIC "-//W3C//DTD SVG 1.1//EN" "http://www.w3.org/Graphics/SVG/1.1/DTD/svg11.dtd">
<svg xmlns="http://www.w3.org/2000/svg" version="1.1" width="70.551999mm" height="70.552mm" viewBox="-210.286 66.604 70.55199999999999 70.552">
            <title>Picture generated by PcbDraw </title>
            <desc>Picture generated by PcbDraw</desc>
        <defs><clipPath id="cut-off"><path d=" M 205.236 132.106 L 205.236 71.654 L 144.784 71.654 L 144.784 132.106 L 205.236 132.106 " style="fill-rule: evenodd;"/></clipPath><mask id="pads-mask"><g style="fill:#ffffff; fill-opacity:0.0;  stroke:#ffffff; stroke-width:0.0000; stroke-opacity:1;  stroke-linecap:round; stroke-linejoin:round;">
<g style="fill:#ffffff; fill-opacity:1.0000;  stroke:#ffffff; stroke-width:0.0000; stroke-opacity:1;  stroke-linecap:round; stroke-linejoin:round;">
<circle cx="149.6100" cy="76.4800" r="3.2000"/> 
</g>
<g style="fill:#ffffff; fill-opacity:1.0000;  stroke:#ffffff; stroke-width:0.0000; stroke-opacity:1;  stroke-linecap:round; stroke-linejoin:round;">
<circle cx="190.2500" cy="76.4800" r="3.2000"/> 
</g>
<g style="fill:#ffffff; fill-opacity:1.0000;  stroke:#ffffff; stroke-width:0.0000; stroke-opacity:1;  stroke-linecap:round; stroke-linejoin:round;">
<circle cx="149.6100" cy="96.8000" r="3.2000"/> 
</g>
<g style="fill:#ffffff; fill-opacity:1.0000;  stroke:#ffffff; stroke-width:0.0000; stroke-opacity:1;  stroke-linecap:round; stroke-linejoin:round;">
<circle cx="148.3000" cy="83.1500" r="1.2000"/> 
</g>
<g style="fill:#ffffff; fill-opacity:1.0000;  stroke:#ffffff; stroke-width:0.0000; stroke-opacity:1;  stroke-linecap:round; stroke-linejoin:round;">
<circle cx="167.7500" cy="88.6000" r="0.4549"/> 
</g>
<g style="fill:#ffffff; fill-opacity:1.0000;  stroke:#ffffff; stroke-width:0.0000; stroke-opacity:1;  stroke-linecap:round; stroke-linejoin:round;">
<path style="fill:#ffffff; fill-opacity:1.0000;  stroke:#ffffff; stroke-width:0.0000; stroke-opacity:1;  stroke-linecap:round; stroke-linejoin:round;fill-rule:evenodd;" d="M 151.5000,90.7500 151.4235,90.7348 151.3586,90.6914 151.3152,90.6265 151.3000,90.5500 151.3000,86.7500 151.3152,86.6735 151.3586,86.6086 151.4235,86.5652 151.5000,86.5500 153.5000,86.5500 153.5765,86.5652 153.6414,86.6086 153.6848,86.6735 153.7000,86.7500 153.7000,90.5500 153.6848,90.6265 153.6414,90.6914 153.5765,90.7348 153.5000,90.7500 Z"/> 
</g>
<g style="fill:#ffffff; fill-opacity:1.0000;  stroke:#ffffff; stroke-width:0.0000; stroke-opacity:1;  stroke-linecap:round; stroke-linejoin:round;">
<g>
<path style="fill:#ffffff; fill-opacity:1.0000;  stroke:#ffffff; stroke-width:0.0000; stroke-opacity:1;  stroke-linecap:round; stroke-linejoin:round;fill-rule:evenodd;" d="M 205.2215,71.6685 205.2360,71.7035 205.2360,132.0565 205.2215,132.0915 205.1865,132.1060 144.8335,132.1060 144.7985,132.0915 144.7840,132.0565 144.7840,71.7035 144.7985,71.6685 144.8335,71.6540 205.1865,71.6540 Z"/> 
</g>
</g>
</g> 
</mask><mask id="pads-mask-silkscreen"><rect x="144.734" y="71.604" width="60.552" height="60.552" fill="white"/><g style="fill:#000000; fill-opacity:0.0;  stroke:#000000; stroke-width:0.0000; stroke-opacity:1;  stroke-linecap:round; stroke-linejoin:round;">
<g style="fill:#000000; fill-opacity:1.0000;  stroke:#000000; stroke-width:0.0000; stroke-opacity:1;  stroke-linecap:round; stroke-linejoin:round;">
<circle cx="149.6100" cy="76.4800" r="3.2000"/> 
</g>
<g style="fill:#000000; fill-opacity:1.0000;  stroke:#000000; stroke-width:0.0000; stroke-opacity:1;  stroke-linecap:round; stroke-linejoin:round;">
<circle cx="190.2500" cy="76.4800" r="3.2000"/> 
</g>
<g style="fill:#000000; fill-opacity:1.0000;  stroke:#000000; stroke-width:0.0000; stroke-opacity:1;  stroke-linecap:round; stroke-linejoin:round;">
<circle cx="149.6100" cy="96.8000" r="3.2000"/> 
</g>
<g style="fill:#000000; fill-opacity:1.0000;  stroke:#000000; stroke-width:0.0000; stroke-opacity:1;  stroke-linecap:round; stroke-linejoin:round;">
<circle cx="148.3000" cy="83.1500" r="1.2000"/> 
</g>
<g style="fill:#000000; fill-opacity:1.0000;  stroke:#000000; stroke-width:0.0000; stroke-opacity:1;  stroke-linecap:round; stroke-linejoin:round;">
<circle cx="167.7500" cy="88.6000" r="0.4549"/> 
</g>
<g style="fill:#000000; fill-opacity:1.0000;  stroke:#000000; stroke-width:0.0000; stroke-opacity:1;  stroke-linecap:round; stroke-linejoin:round;">
<path style="fill:#000000; fill-opacity:1.0000;  stroke:#000000; stroke-width:0.0000; stroke-opacity:1;  stroke-linecap:round; stroke-linejoin:round;fill-rule:evenodd;" d="M 151.5000,90.7500 151.4235,90.7348 151.3586,90.6914 151.3152,90.6265 151.3000,90.5500 151.3000,86.7500 151.3152,86.6735 151.3586,86.6086 151.4235,86.5652 151.5000,86.5500 153.5000,86.5500 153.5765,86.5652 153.6414,86.6086 153.6848,86.6735 153.7000,86.7500 153.7000,90.5500 153.6848,90.6265 153.6414,90.6914 153.5765,90.7348 153.5000,90.7500 Z"/> 
</g>
<g style="fill:#000000; fill-opacity:1.0000;  stroke:#000000; stroke-width:0.0000; stroke-opacity:1;  stroke-linecap:round; stroke-linejoin:round;">
<g>
<path style="fill:#000000; fill-opacity:1.0000;  stroke:#000000; stroke-width:0.0000; stroke-opacity:1;  stroke-linecap:round; stroke-linejoin:round;fill-rule:evenodd;" d="M 205.2215,71.6685 205.2360,71.7035 205.2360,132.0565 205.2215,132.0915 205.1865,132.1060 144.8335,132.1060 144.7985,132.0915 144.7840,132.0565 144.7840,71.7035 144.7985,71.6685 144.8335,71.6540 205.1865,71.6540 Z"/> 
</g>
</g>
</g> 
</mask><mask id="hole-mask"><g><rect x="144.734" y="71.604" fill="white" width="60.552" height="60.552"/><polyline stroke-linecap="round" stroke="black" stroke-width="3.0" points="-0.0 0 0.0 0" transform="translate(149.61 76.48) rotate(-0.0)"/><polyline stroke-linecap="round" stroke="black" stroke-width="3.0" points="-0.0 0 0.0 0" transform="translate(190.25 76.48) rotate(-0.0)"/><polyline stroke-linecap="round" stroke="black" stroke-width="3.0" points="-0.0 0 0.0 0" transform="translate(149.61 96.8) rotate(-0.0)"/><polyline stroke-linecap="round" stroke="black" stroke-width="0.4" points="-0.0 0 0.0 0" transform="translate(167.65 91.8) rotate(-0.0)"/><polyline stroke-linecap="round" stroke="black" stroke-width="0.4" points="-0.0 0 0.0 0" transform="translate(146.9 83.2) rotate(-0.0)"/><polyline stroke-linecap="round" stroke="black" stroke-width="0.4" points="-0.0 0 0.0 0" transform="translate(153.0 87.1) rotate(-0.0)"/></g></mask></defs><g transform="scale(-1,1)" id="boardContainer"><g id="substrate" clip-path="url(#cut-off)" mask="url(#hole-mask)"><g id="substrate-board" style="fill:#f1f4f3; stroke:#f1f4f3;"><path d=" M 205.236 132.106 L 205.236 71.654 L 144.784 71.654 L 144.784 132.106 L 205.236 132.106 " style="fill-rule: evenodd;"/><g style="fill-opacity: 0.0;stroke-width: 0.1000;stroke-opacity: 1;stroke-linecap: round;stroke-linejoin: round">
<path d="M144.7840 132.1060 L205.2360 132.1060 "/>
<path d="M144.7840 71.6540 L205.2360 71.6540 "/>
<path d="M205.2360 71.6540 L205.2360 132.1060 "/>
<path d="M144.7840 132.1060 L144.7840 71.6540 "/>
</g> 
</g><g id="substrate-clad" style="fill:#72786c; stroke:#72786c;"><g style="fill-opacity: 0.0;stroke-width: 0.0000;stroke-opacity: 1;stroke-linecap: round;stroke-linejoin: round">
<g style="fill-opacity: 1.0000;stroke-width: 0.0000;stroke-opacity: 1;stroke-linecap: round;stroke-linejoin: round">
<circle cx="149.6100" cy="76.4800" r="3.2000"/> 
</g>
<g style="fill-opacity: 1.0000;stroke-width: 0.0000;stroke-opacity: 1;stroke-linecap: round;stroke-linejoin: round">
<circle cx="190.2500" cy="76.4800" r="3.2000"/> 
</g>
<g style="fill-opacity: 1.0000;stroke-width: 0.0000;stroke-opacity: 1;stroke-linecap: round;stroke-linejoin: round">
<circle cx="149.6100" cy="96.8000" r="3.2000"/> 
</g>
<g style="fill-opacity: 1.0000;stroke-width: 0.0000;stroke-opacity: 1;stroke-linecap: round;stroke-linejoin: round">
<circle cx="148.3000" cy="83.1500" r="1.2000"/> 
</g>
<g style="fill-opacity: 1.0000;stroke-width: 0.0000;stroke-opacity: 1;stroke-linecap: round;stroke-linejoin: round">
<circle cx="167.7500" cy="88.6000" r="0.4549"/> 
</g>
<g style="fill-opacity: 1.0000;stroke-width: 0.0000;stroke-opacity: 1;stroke-linecap: round;stroke-linejoin: round">
<path style="fill-opacity: 1.0000;stroke-width: 0.0000;stroke-opacity: 1;stroke-linecap: round;stroke-linejoin: round;fill-rule: evenodd" d="M 151.5000,90.7500 151.4235,90.7348 151.3586,90.6914 151.3152,90.6265 151.3000,90.5500 151.3000,86.7500 151.3152,86.6735 151.3586,86.6086 151.4235,86.5652 151.5000,86.5500 153.5000,86.5500 153.5765,86.5652 153.6414,86.6086 153.6848,86.6735 153.7000,86.7500 153.7000,90.5500 153.6848,90.6265 153.6414,90.6914 153.5765,90.7348 153.5000,90.7500 Z"/> 
</g>
<g style="fill-opacity: 1.0000;stroke-width: 0.0000;stroke-opacity: 1;stroke-linecap: round;stroke-linejoin: round">
<g>
<path style="fill-opacity: 1.0000;stroke-width: 0.0000;stroke-opacity: 1;stroke-linecap: round;stroke-linejoin: round;fill-rule: evenodd" d="M 205.2215,71.6685 205.2360,71.7035 205.2360,132.0565 205.2215,132.0915 205.1865,132.1060 144.8335,132.1060 144.7985,132.0915 144.7840,132.0565 144.7840,71.7035 144.7985,71.6685 144.8335,71.6540 205.1865,71.6540 Z"/> 
</g>
</g>
</g> 
</g><g id="substrate-copper" style="fill:#f8f8f7; stroke:#f8f8f7;"><g style="fill-opacity: 0.0;stroke-width: 0.3000;stroke-opacity: 1;stroke-linecap: round;stroke-linejoin: round">
<text x="149.2000" y="131.0500" transform="scale(-1 1) translate(-298.400000 0)" textLength="6.1643" font-size="2.0000" lengthAdjust="spacingAndGlyphs" text-anchor="middle" opacity="0">MLAB</text>
<g class="stroked-text"><desc>MLAB</desc>
<path d="M151.7000 130.9783 L151.7000 129.4783 "/>
<path d="M151.7000 129.4783 L151.2000 130.5498 "/>
<path d="M151.2000 130.5498 L150.7000 129.4783 "/>
<path d="M150.7000 129.4783 L150.7000 130.9783 "/>
<path d="M149.2714 130.9783 L149.9857 130.9783 "/>
<path d="M149.9857 130.9783 L149.9857 129.4783 "/>
<path d="M148.8429 130.5498 L148.1286 130.5498 "/>
<path d="M148.9857 130.9783 L148.4857 129.4783 "/>
<path d="M148.4857 129.4783 L147.9857 130.9783 "/>
<path d="M146.9857 130.1926 L146.7714 130.2640 "/>
<path d="M146.7714 130.2640 L146.7000 130.3355 "/>
<path d="M146.7000 130.3355 L146.6286 130.4783 "/>
<path d="M146.6286 130.4783 L146.6286 130.6926 "/>
<path d="M146.6286 130.6926 L146.7000 130.8355 "/>
<path d="M146.7000 130.8355 L146.7714 130.9069 "/>
<path d="M146.7714 130.9069 L146.9143 130.9783 "/>
<path d="M146.9143 130.9783 L147.4857 130.9783 "/>
<path d="M147.4857 130.9783 L147.4857 129.4783 "/>
<path d="M147.4857 129.4783 L146.9857 129.4783 "/>
<path d="M146.9857 129.4783 L146.8429 129.5498 "/>
<path d="M146.8429 129.5498 L146.7714 129.6212 "/>
<path d="M146.7714 129.6212 L146.7000 129.7640 "/>
<path d="M146.7000 129.7640 L146.7000 129.9069 "/>
<path d="M146.7000 129.9069 L146.7714 130.0498 "/>
<path d="M146.7714 130.0498 L146.8429 130.1212 "/>
<path d="M146.8429 130.1212 L146.9857 130.1926 "/>
<path d="M146.9857 130.1926 L147.4857 130.1926 "/>
</g><g style="fill-opacity: 1.0000;stroke-width: 0.0000;stroke-opacity: 1;stroke-linecap: round;stroke-linejoin: round">
<circle cx="149.6100" cy="76.4800" r="3.0000"/> 
</g>
<g style="fill-opacity: 1.0000;stroke-width: 0.0000;stroke-opacity: 1;stroke-linecap: round;stroke-linejoin: round">
<circle cx="190.2500" cy="76.4800" r="3.0000"/> 
</g>
<g style="fill-opacity: 1.0000;stroke-width: 0.0000;stroke-opacity: 1;stroke-linecap: round;stroke-linejoin: round">
<circle cx="149.6100" cy="96.8000" r="3.0000"/> 
</g>
<g style="fill-opacity: 1.0000;stroke-width: 0.0000;stroke-opacity: 1;stroke-linecap: round;stroke-linejoin: round">
<circle cx="148.3000" cy="83.1500" r="1.0000"/> 
</g>
<g style="fill-opacity: 1.0000;stroke-width: 0.0000;stroke-opacity: 1;stroke-linecap: round;stroke-linejoin: round">
<circle cx="167.7500" cy="88.6000" r="0.2550"/> 
</g>
<g style="fill-opacity: 1.0000;stroke-width: 0.0000;stroke-opacity: 1;stroke-linecap: round;stroke-linejoin: round">
<path style="fill-opacity: 1.0000;stroke-width: 0.0000;stroke-opacity: 1;stroke-linecap: round;stroke-linejoin: round;fill-rule: evenodd" d="M 153.5000,90.5500 151.5000,90.5500 151.5000,86.7500 153.5000,86.7500 Z"/> 
</g>
<g style="fill-opacity: 1.0000;stroke-width: 0.0000;stroke-opacity: 1;stroke-linecap: round;stroke-linejoin: round">
<circle cx="167.6500" cy="91.8000" r="0.4000"/> 
</g>
<g style="fill-opacity: 1.0000;stroke-width: 0.0000;stroke-opacity: 1;stroke-linecap: round;stroke-linejoin: round">
<circle cx="146.9000" cy="83.2000" r="0.4000"/> 
</g>
<g style="fill-opacity: 1.0000;stroke-width: 0.0000;stroke-opacity: 1;stroke-linecap: round;stroke-linejoin: round">
<circle cx="153.0000" cy="87.1000" r="0.4000"/> 
</g>
<g style="fill-opacity: 0.0;stroke-width: 0.2500;stroke-opacity: 1;stroke-linecap: round;stroke-linejoin: round">
<path d="M146.9000 83.2000 L146.9500 83.1500 "/>
<path d="M146.9500 83.1500 L148.3000 83.1500 "/>
</g>
<g style="fill-opacity: 0.0;stroke-width: 0.2500;stroke-opacity: 1;stroke-linecap: round;stroke-linejoin: round">
<g style="fill-opacity: 1.0000;stroke-width: 0.0000;stroke-opacity: 1;stroke-linecap: round;stroke-linejoin: round">
<path style="fill-opacity: 1.0000;stroke-width: 0.0000;stroke-opacity: 1;stroke-linecap: round;stroke-linejoin: round;fill-rule: evenodd" d="M 187.1421,87.7200 187.1886,87.7737 187.2000,87.8260 187.2000,104.8740 187.1800,104.9421 187.1263,104.9886 187.0740,105.0000 167.2260,105.0000 167.1579,104.9800 167.1114,104.9263 167.1000,104.8740 167.1000,87.8260 167.1200,87.7579 167.1737,87.7114 167.2260,87.7000 187.0740,87.7000 Z"/> 
</g>
</g>
</g> 
</g><g id="substrate-pads" style="fill:#c4c1ba; stroke:#c4c1ba;" mask="url(#pads-mask)"><g style="fill-opacity: 0.0;stroke-width: 0.3000;stroke-opacity: 1;stroke-linecap: round;stroke-linejoin: round">
<text x="149.2000" y="131.0500" transform="scale(-1 1) translate(-298.400000 0)" textLength="6.1643" font-size="2.0000" lengthAdjust="spacingAndGlyphs" text-anchor="middle" opacity="0">MLAB</text>
<g class="stroked-text"><desc>MLAB</desc>
<path d="M151.7000 130.9783 L151.7000 129.4783 "/>
<path d="M151.7000 129.4783 L151.2000 130.5498 "/>
<path d="M151.2000 130.5498 L150.7000 129.4783 "/>
<path d="M150.7000 129.4783 L150.7000 130.9783 "/>
<path d="M149.2714 130.9783 L149.9857 130.9783 "/>
<path d="M149.9857 130.9783 L149.9857 129.4783 "/>
<path d="M148.8429 130.5498 L148.1286 130.5498 "/>
<path d="M148.9857 130.9783 L148.4857 129.4783 "/>
<path d="M148.4857 129.4783 L147.9857 130.9783 "/>
<path d="M146.9857 130.1926 L146.7714 130.2640 "/>
<path d="M146.7714 130.2640 L146.7000 130.3355 "/>
<path d="M146.7000 130.3355 L146.6286 130.4783 "/>
<path d="M146.6286 130.4783 L146.6286 130.6926 "/>
<path d="M146.6286 130.6926 L146.7000 130.8355 "/>
<path d="M146.7000 130.8355 L146.7714 130.9069 "/>
<path d="M146.7714 130.9069 L146.9143 130.9783 "/>
<path d="M146.9143 130.9783 L147.4857 130.9783 "/>
<path d="M147.4857 130.9783 L147.4857 129.4783 "/>
<path d="M147.4857 129.4783 L146.9857 129.4783 "/>
<path d="M146.9857 129.4783 L146.8429 129.5498 "/>
<path d="M146.8429 129.5498 L146.7714 129.6212 "/>
<path d="M146.7714 129.6212 L146.7000 129.7640 "/>
<path d="M146.7000 129.7640 L146.7000 129.9069 "/>
<path d="M146.7000 129.9069 L146.7714 130.0498 "/>
<path d="M146.7714 130.0498 L146.8429 130.1212 "/>
<path d="M146.8429 130.1212 L146.9857 130.1926 "/>
<path d="M146.9857 130.1926 L147.4857 130.1926 "/>
</g><g style="fill-opacity: 1.0000;stroke-width: 0.0000;stroke-opacity: 1;stroke-linecap: round;stroke-linejoin: round">
<circle cx="149.6100" cy="76.4800" r="3.0000"/> 
</g>
<g style="fill-opacity: 1.0000;stroke-width: 0.0000;stroke-opacity: 1;stroke-linecap: round;stroke-linejoin: round">
<circle cx="190.2500" cy="76.4800" r="3.0000"/> 
</g>
<g style="fill-opacity: 1.0000;stroke-width: 0.0000;stroke-opacity: 1;stroke-linecap: round;stroke-linejoin: round">
<circle cx="149.6100" cy="96.8000" r="3.0000"/> 
</g>
<g style="fill-opacity: 1.0000;stroke-width: 0.0000;stroke-opacity: 1;stroke-linecap: round;stroke-linejoin: round">
<circle cx="148.3000" cy="83.1500" r="1.0000"/> 
</g>
<g style="fill-opacity: 1.0000;stroke-width: 0.0000;stroke-opacity: 1;stroke-linecap: round;stroke-linejoin: round">
<circle cx="167.7500" cy="88.6000" r="0.2550"/> 
</g>
<g style="fill-opacity: 1.0000;stroke-width: 0.0000;stroke-opacity: 1;stroke-linecap: round;stroke-linejoin: round">
<path style="fill-opacity: 1.0000;stroke-width: 0.0000;stroke-opacity: 1;stroke-linecap: round;stroke-linejoin: round;fill-rule: evenodd" d="M 153.5000,90.5500 151.5000,90.5500 151.5000,86.7500 153.5000,86.7500 Z"/> 
</g>
<g style="fill-opacity: 1.0000;stroke-width: 0.0000;stroke-opacity: 1;stroke-linecap: round;stroke-linejoin: round">
<circle cx="167.6500" cy="91.8000" r="0.4000"/> 
</g>
<g style="fill-opacity: 1.0000;stroke-width: 0.0000;stroke-opacity: 1;stroke-linecap: round;stroke-linejoin: round">
<circle cx="146.9000" cy="83.2000" r="0.4000"/> 
</g>
<g style="fill-opacity: 1.0000;stroke-width: 0.0000;stroke-opacity: 1;stroke-linecap: round;stroke-linejoin: round">
<circle cx="153.0000" cy="87.1000" r="0.4000"/> 
</g>
<g style="fill-opacity: 0.0;stroke-width: 0.2500;stroke-opacity: 1;stroke-linecap: round;stroke-linejoin: round">
<path d="M146.9000 83.2000 L146.9500 83.1500 "/>
<path d="M146.9500 83.1500 L148.3000 83.1500 "/>
</g>
<g style="fill-opacity: 0.0;stroke-width: 0.2500;stroke-opacity: 1;stroke-linecap: round;stroke-linejoin: round">
<g style="fill-opacity: 1.0000;stroke-width: 0.0000;stroke-opacity: 1;stroke-linecap: round;stroke-linejoin: round">
<path style="fill-opacity: 1.0000;stroke-width: 0.0000;stroke-opacity: 1;stroke-linecap: round;stroke-linejoin: round;fill-rule: evenodd" d="M 187.1421,87.7200 187.1886,87.7737 187.2000,87.8260 187.2000,104.8740 187.1800,104.9421 187.1263,104.9886 187.0740,105.0000 167.2260,105.0000 167.1579,104.9800 167.1114,104.9263 167.1000,104.8740 167.1000,87.8260 167.1200,87.7579 167.1737,87.7114 167.2260,87.7000 187.0740,87.7000 Z"/> 
</g>
</g>
</g> 
</g><g id="substrate-silk" style="fill:#0b1013; stroke:#0b1013;" mask="url(#pads-mask-silkscreen)"><g style="fill-opacity: 0.0;stroke-width: 0.3000;stroke-opacity: 1;stroke-linecap: round;stroke-linejoin: round">
<text x="175.7500" y="75.8000" transform="scale(-1 1) translate(-351.500000 0)" textLength="19.2719" font-size="2.2667" lengthAdjust="spacingAndGlyphs" text-anchor="middle" opacity="0">PINHOLDER02A</text>
<g class="stroked-text"><desc>PINHOLDER02A</desc>
<path d="M184.7762 75.7209 L184.7762 74.0209 "/>
<path d="M184.7762 74.0209 L184.1286 74.0209 "/>
<path d="M184.1286 74.0209 L183.9667 74.1018 "/>
<path d="M183.9667 74.1018 L183.8857 74.1828 "/>
<path d="M183.8857 74.1828 L183.8048 74.3447 "/>
<path d="M183.8048 74.3447 L183.8048 74.5875 "/>
<path d="M183.8048 74.5875 L183.8857 74.7494 "/>
<path d="M183.8857 74.7494 L183.9667 74.8304 "/>
<path d="M183.9667 74.8304 L184.1286 74.9113 "/>
<path d="M184.1286 74.9113 L184.7762 74.9113 "/>
<path d="M183.0762 75.7209 L183.0762 74.0209 "/>
<path d="M182.2667 75.7209 L182.2667 74.0209 "/>
<path d="M182.2667 74.0209 L181.2952 75.7209 "/>
<path d="M181.2952 75.7209 L181.2952 74.0209 "/>
<path d="M180.4857 75.7209 L180.4857 74.0209 "/>
<path d="M180.4857 74.8304 L179.5143 74.8304 "/>
<path d="M179.5143 75.7209 L179.5143 74.0209 "/>
<path d="M178.3810 74.0209 L178.0571 74.0209 "/>
<path d="M178.0571 74.0209 L177.8952 74.1018 "/>
<path d="M177.8952 74.1018 L177.7333 74.2637 "/>
<path d="M177.7333 74.2637 L177.6524 74.5875 "/>
<path d="M177.6524 74.5875 L177.6524 75.1542 "/>
<path d="M177.6524 75.1542 L177.7333 75.4780 "/>
<path d="M177.7333 75.4780 L177.8952 75.6399 "/>
<path d="M177.8952 75.6399 L178.0571 75.7209 "/>
<path d="M178.0571 75.7209 L178.3810 75.7209 "/>
<path d="M178.3810 75.7209 L178.5429 75.6399 "/>
<path d="M178.5429 75.6399 L178.7048 75.4780 "/>
<path d="M178.7048 75.4780 L178.7857 75.1542 "/>
<path d="M178.7857 75.1542 L178.7857 74.5875 "/>
<path d="M178.7857 74.5875 L178.7048 74.2637 "/>
<path d="M178.7048 74.2637 L178.5429 74.1018 "/>
<path d="M178.5429 74.1018 L178.3810 74.0209 "/>
<path d="M176.1143 75.7209 L176.9238 75.7209 "/>
<path d="M176.9238 75.7209 L176.9238 74.0209 "/>
<path d="M175.5476 75.7209 L175.5476 74.0209 "/>
<path d="M175.5476 74.0209 L175.1429 74.0209 "/>
<path d="M175.1429 74.0209 L174.9000 74.1018 "/>
<path d="M174.9000 74.1018 L174.7381 74.2637 "/>
<path d="M174.7381 74.2637 L174.6571 74.4256 "/>
<path d="M174.6571 74.4256 L174.5762 74.7494 "/>
<path d="M174.5762 74.7494 L174.5762 74.9923 "/>
<path d="M174.5762 74.9923 L174.6571 75.3161 "/>
<path d="M174.6571 75.3161 L174.7381 75.4780 "/>
<path d="M174.7381 75.4780 L174.9000 75.6399 "/>
<path d="M174.9000 75.6399 L175.1429 75.7209 "/>
<path d="M175.1429 75.7209 L175.5476 75.7209 "/>
<path d="M173.8476 74.8304 L173.2810 74.8304 "/>
<path d="M173.0381 75.7209 L173.8476 75.7209 "/>
<path d="M173.8476 75.7209 L173.8476 74.0209 "/>
<path d="M173.8476 74.0209 L173.0381 74.0209 "/>
<path d="M171.3381 75.7209 L171.9048 74.9113 "/>
<path d="M172.3095 75.7209 L172.3095 74.0209 "/>
<path d="M172.3095 74.0209 L171.6619 74.0209 "/>
<path d="M171.6619 74.0209 L171.5000 74.1018 "/>
<path d="M171.5000 74.1018 L171.4190 74.1828 "/>
<path d="M171.4190 74.1828 L171.3381 74.3447 "/>
<path d="M171.3381 74.3447 L171.3381 74.5875 "/>
<path d="M171.3381 74.5875 L171.4190 74.7494 "/>
<path d="M171.4190 74.7494 L171.5000 74.8304 "/>
<path d="M171.5000 74.8304 L171.6619 74.9113 "/>
<path d="M171.6619 74.9113 L172.3095 74.9113 "/>
<path d="M170.2857 74.0209 L170.1238 74.0209 "/>
<path d="M170.1238 74.0209 L169.9619 74.1018 "/>
<path d="M169.9619 74.1018 L169.8810 74.1828 "/>
<path d="M169.8810 74.1828 L169.8000 74.3447 "/>
<path d="M169.8000 74.3447 L169.7190 74.6685 "/>
<path d="M169.7190 74.6685 L169.7190 75.0732 "/>
<path d="M169.7190 75.0732 L169.8000 75.3970 "/>
<path d="M169.8000 75.3970 L169.8810 75.5589 "/>
<path d="M169.8810 75.5589 L169.9619 75.6399 "/>
<path d="M169.9619 75.6399 L170.1238 75.7209 "/>
<path d="M170.1238 75.7209 L170.2857 75.7209 "/>
<path d="M170.2857 75.7209 L170.4476 75.6399 "/>
<path d="M170.4476 75.6399 L170.5286 75.5589 "/>
<path d="M170.5286 75.5589 L170.6095 75.3970 "/>
<path d="M170.6095 75.3970 L170.6905 75.0732 "/>
<path d="M170.6905 75.0732 L170.6905 74.6685 "/>
<path d="M170.6905 74.6685 L170.6095 74.3447 "/>
<path d="M170.6095 74.3447 L170.5286 74.1828 "/>
<path d="M170.5286 74.1828 L170.4476 74.1018 "/>
<path d="M170.4476 74.1018 L170.2857 74.0209 "/>
<path d="M169.0714 74.1828 L168.9905 74.1018 "/>
<path d="M168.9905 74.1018 L168.8286 74.0209 "/>
<path d="M168.8286 74.0209 L168.4238 74.0209 "/>
<path d="M168.4238 74.0209 L168.2619 74.1018 "/>
<path d="M168.2619 74.1018 L168.1810 74.1828 "/>
<path d="M168.1810 74.1828 L168.1000 74.3447 "/>
<path d="M168.1000 74.3447 L168.1000 74.5066 "/>
<path d="M168.1000 74.5066 L168.1810 74.7494 "/>
<path d="M168.1810 74.7494 L169.1524 75.7209 "/>
<path d="M169.1524 75.7209 L168.1000 75.7209 "/>
<path d="M167.4524 75.2351 L166.6429 75.2351 "/>
<path d="M167.6143 75.7209 L167.0476 74.0209 "/>
<path d="M167.0476 74.0209 L166.4810 75.7209 "/>
</g></g>
<g style="fill-opacity: 0.0;stroke-width: 0.2500;stroke-opacity: 1;stroke-linecap: round;stroke-linejoin: round">
<text x="148.2500" y="86.3500" transform="scale(-1 1) translate(-296.500000 0)" textLength="3.4726" font-size="1.3333" lengthAdjust="spacingAndGlyphs" text-anchor="middle" opacity="0">GND</text>
<g class="stroked-text"><desc>GND</desc>
<path d="M149.0119 85.3472 L149.1071 85.2996 "/>
<path d="M149.1071 85.2996 L149.2500 85.2996 "/>
<path d="M149.2500 85.2996 L149.3929 85.3472 "/>
<path d="M149.3929 85.3472 L149.4881 85.4425 "/>
<path d="M149.4881 85.4425 L149.5357 85.5377 "/>
<path d="M149.5357 85.5377 L149.5833 85.7282 "/>
<path d="M149.5833 85.7282 L149.5833 85.8710 "/>
<path d="M149.5833 85.8710 L149.5357 86.0615 "/>
<path d="M149.5357 86.0615 L149.4881 86.1568 "/>
<path d="M149.4881 86.1568 L149.3929 86.2520 "/>
<path d="M149.3929 86.2520 L149.2500 86.2996 "/>
<path d="M149.2500 86.2996 L149.1548 86.2996 "/>
<path d="M149.1548 86.2996 L149.0119 86.2520 "/>
<path d="M149.0119 86.2520 L148.9643 86.2044 "/>
<path d="M148.9643 86.2044 L148.9643 85.8710 "/>
<path d="M148.9643 85.8710 L149.1548 85.8710 "/>
<path d="M148.5357 86.2996 L148.5357 85.2996 "/>
<path d="M148.5357 85.2996 L147.9643 86.2996 "/>
<path d="M147.9643 86.2996 L147.9643 85.2996 "/>
<path d="M147.4881 86.2996 L147.4881 85.2996 "/>
<path d="M147.4881 85.2996 L147.2500 85.2996 "/>
<path d="M147.2500 85.2996 L147.1071 85.3472 "/>
<path d="M147.1071 85.3472 L147.0119 85.4425 "/>
<path d="M147.0119 85.4425 L146.9643 85.5377 "/>
<path d="M146.9643 85.5377 L146.9167 85.7282 "/>
<path d="M146.9167 85.7282 L146.9167 85.8710 "/>
<path d="M146.9167 85.8710 L146.9643 86.0615 "/>
<path d="M146.9643 86.0615 L147.0119 86.1568 "/>
<path d="M147.0119 86.1568 L147.1071 86.2520 "/>
<path d="M147.1071 86.2520 L147.2500 86.2996 "/>
<path d="M147.2500 86.2996 L147.4881 86.2996 "/>
</g></g>
<g style="fill-opacity: 0.0;stroke-width: 0.3000;stroke-opacity: 1;stroke-linecap: round;stroke-linejoin: round">
<text x="160.0240" y="75.6425" transform="scale(-1 1) translate(-320.048000 0)" textLength="9.3786" font-size="2.0000" lengthAdjust="spacingAndGlyphs" text-anchor="middle" opacity="0">MLAB.cz</text>
<g class="stroked-text"><desc>MLAB.cz</desc>
<path d="M164.1311 75.5708 L164.1311 74.0708 "/>
<path d="M164.1311 74.0708 L163.6311 75.1423 "/>
<path d="M163.6311 75.1423 L163.1311 74.0708 "/>
<path d="M163.1311 74.0708 L163.1311 75.5708 "/>
<path d="M161.7026 75.5708 L162.4169 75.5708 "/>
<path d="M162.4169 75.5708 L162.4169 74.0708 "/>
<path d="M161.2740 75.1423 L160.5597 75.1423 "/>
<path d="M161.4169 75.5708 L160.9169 74.0708 "/>
<path d="M160.9169 74.0708 L160.4169 75.5708 "/>
<path d="M159.4169 74.7851 L159.2026 74.8565 "/>
<path d="M159.2026 74.8565 L159.1311 74.9280 "/>
<path d="M159.1311 74.9280 L159.0597 75.0708 "/>
<path d="M159.0597 75.0708 L159.0597 75.2851 "/>
<path d="M159.0597 75.2851 L159.1311 75.4280 "/>
<path d="M159.1311 75.4280 L159.2026 75.4994 "/>
<path d="M159.2026 75.4994 L159.3454 75.5708 "/>
<path d="M159.3454 75.5708 L159.9169 75.5708 "/>
<path d="M159.9169 75.5708 L159.9169 74.0708 "/>
<path d="M159.9169 74.0708 L159.4169 74.0708 "/>
<path d="M159.4169 74.0708 L159.2740 74.1423 "/>
<path d="M159.2740 74.1423 L159.2026 74.2137 "/>
<path d="M159.2026 74.2137 L159.1311 74.3565 "/>
<path d="M159.1311 74.3565 L159.1311 74.4994 "/>
<path d="M159.1311 74.4994 L159.2026 74.6423 "/>
<path d="M159.2026 74.6423 L159.2740 74.7137 "/>
<path d="M159.2740 74.7137 L159.4169 74.7851 "/>
<path d="M159.4169 74.7851 L159.9169 74.7851 "/>
<path d="M158.4169 75.4280 L158.3454 75.4994 "/>
<path d="M158.3454 75.4994 L158.4169 75.5708 "/>
<path d="M158.4169 75.5708 L158.4883 75.4994 "/>
<path d="M158.4883 75.4994 L158.4169 75.4280 "/>
<path d="M158.4169 75.4280 L158.4169 75.5708 "/>
<path d="M157.0597 75.4994 L157.2026 75.5708 "/>
<path d="M157.2026 75.5708 L157.4883 75.5708 "/>
<path d="M157.4883 75.5708 L157.6311 75.4994 "/>
<path d="M157.6311 75.4994 L157.7026 75.4280 "/>
<path d="M157.7026 75.4280 L157.7740 75.2851 "/>
<path d="M157.7740 75.2851 L157.7740 74.8565 "/>
<path d="M157.7740 74.8565 L157.7026 74.7137 "/>
<path d="M157.7026 74.7137 L157.6311 74.6423 "/>
<path d="M157.6311 74.6423 L157.4883 74.5708 "/>
<path d="M157.4883 74.5708 L157.2026 74.5708 "/>
<path d="M157.2026 74.5708 L157.0597 74.6423 "/>
<path d="M156.5597 74.5708 L155.7740 74.5708 "/>
<path d="M155.7740 74.5708 L156.5597 75.5708 "/>
<path d="M156.5597 75.5708 L155.7740 75.5708 "/>
</g></g>
<g style="fill-opacity: 0.0;stroke-width: 0.1500;stroke-opacity: 1;stroke-linecap: round;stroke-linejoin: round">
<g transform="rotate(-90.000000 150.2500 88.8500)">
<text x="150.2500" y="89.3500" transform="scale(-1 1) translate(-300.500000 0)" textLength="1.0321" font-size="1.3333" lengthAdjust="spacingAndGlyphs" text-anchor="middle" opacity="0">A</text>
</g>
<g class="stroked-text"><desc>A</desc>
<path d="M150.4191 88.6119 L150.4191 89.0881 "/>
<path d="M150.7048 88.5167 L149.7048 88.8500 "/>
<path d="M149.7048 88.8500 L150.7048 89.1833 "/>
</g></g>
<g style="fill-opacity: 0.0;stroke-width: 0.1200;stroke-opacity: 1;stroke-linecap: round;stroke-linejoin: round">
<circle cx="148.3000" cy="83.1500" r="1.2000"/> 
</g>
<g style="fill-opacity: 0.0;stroke-width: 0.1500;stroke-opacity: 1;stroke-linecap: round;stroke-linejoin: round">
<path d="M153.7000 90.7500 L153.7000 86.5500 "/>
<path d="M151.3000 90.7500 L153.7000 90.7500 "/>
<path d="M153.7000 86.5500 L151.3000 86.5500 "/>
<path d="M151.3000 86.5500 L151.3000 90.7500 "/>
</g> 
</g><g id="substrate-outline" style="fill:#000000; stroke:#000000; stroke-width: 0.15"><g style="fill-opacity: 0.0;stroke-opacity: 1;stroke-linecap: round;stroke-linejoin: round">
<path d="M144.7840 132.1060 L205.2360 132.1060 "/>
<path d="M144.7840 71.6540 L205.2360 71.6540 "/>
<path d="M205.2360 71.6540 L205.2360 132.1060 "/>
<path d="M144.7840 132.1060 L144.7840 71.6540 "/>
</g> 
<path d="M -1.5 0.0 A 1.5 1.5 0 1 1 1.5 0.0 L 1.5 -0.0 A 1.5 1.5 0 1 1 -1.5 -0.0 Z" transform="translate(149.61 76.48) rotate(-0.0)"/><path d="M -1.5 0.0 A 1.5 1.5 0 1 1 1.5 0.0 L 1.5 -0.0 A 1.5 1.5 0 1 1 -1.5 -0.0 Z" transform="translate(190.25 76.48) rotate(-0.0)"/><path d="M -1.5 0.0 A 1.5 1.5 0 1 1 1.5 0.0 L 1.5 -0.0 A 1.5 1.5 0 1 1 -1.5 -0.0 Z" transform="translate(149.61 96.8) rotate(-0.0)"/><path d="M -0.2 0.0 A 0.2 0.2 0 1 1 0.2 0.0 L 0.2 -0.0 A 0.2 0.2 0 1 1 -0.2 -0.0 Z" transform="translate(167.65 91.8) rotate(-0.0)"/><path d="M -0.2 0.0 A 0.2 0.2 0 1 1 0.2 0.0 L 0.2 -0.0 A 0.2 0.2 0 1 1 -0.2 -0.0 Z" transform="translate(146.9 83.2) rotate(-0.0)"/><path d="M -0.2 0.0 A 0.2 0.2 0 1 1 0.2 0.0 L 0.2 -0.0 A 0.2 0.2 0 1 1 -0.2 -0.0 Z" transform="translate(153.0 87.1) rotate(-0.0)"/></g></g><g id="substrate-paste" style="fill:#8a8a8a; stroke:#8a8a8a;"><g style="fill-opacity: 0.0;stroke-width: 0.0000;stroke-opacity: 1;stroke-linecap: round;stroke-linejoin: round">
<g style="fill-opacity: 1.0000;stroke-width: 0.0000;stroke-opacity: 1;stroke-linecap: round;stroke-linejoin: round">
<path style="fill-opacity: 1.0000;stroke-width: 0.0000;stroke-opacity: 1;stroke-linecap: round;stroke-linejoin: round;fill-rule: evenodd" d="M 153.5000,90.5500 151.5000,90.5500 151.5000,86.7500 153.5000,86.7500 Z"/> 
</g>
</g> 
</g></g><g transform="scale(-1,1)" id="componentContainer"><!--Mlab_Mechanical:MountingHole_3mm.back:M3--><g transform="translate(149.61 76.48) scale(1.0, 1.0) rotate(-0.0) translate(-0.75 -0.75)"><g id="pref_12_Mlab_Mechanical__MountingHole_3mmback_HOLE"><defs xmlns:xlink="http://www.w3.org/1999/xlink" id="pref_13defs13">
    <linearGradient id="pref_13linearGradient3674">
      <stop style="stop-color:#2b2b2b;stop-opacity:1" offset="0" id="pref_13stop3666"/>
      <stop style="stop-color:#5e5e5e;stop-opacity:0.78431374" offset="0.48605427" id="pref_13stop4288"/>
      <stop style="stop-color:#838383;stop-opacity:0" offset="0.53796667" id="pref_13stop3668"/>
      <stop style="stop-color:#dcdcdc;stop-opacity:0" offset="0.76845002" id="pref_13stop3670"/>
      <stop style="stop-color:#e4e4e4;stop-opacity:0.88235301" offset="1" id="pref_13stop3672"/>
    </linearGradient>
    <linearGradient id="pref_13linearGradient2885">
      <stop style="stop-color:#8f8f8f;stop-opacity:1" offset="0" id="pref_13stop2881"/>
      <stop style="stop-color:#e5e5e5;stop-opacity:1" offset="1" id="pref_13stop2883"/>
    </linearGradient>
    <linearGradient id="pref_13linearGradient1894">
      <stop style="stop-color:#b2b2b2;stop-opacity:1" offset="0" id="pref_13stop1890"/>
      <stop style="stop-color:#838383;stop-opacity:1" offset="0.3359659" id="pref_13stop2785"/>
      <stop style="stop-color:#dcdcdc;stop-opacity:1" offset="0.76141548" id="pref_13stop2655"/>
      <stop style="stop-color:#bebebe;stop-opacity:1" offset="1" id="pref_13stop1892"/>
    </linearGradient>
    <linearGradient id="pref_13linearGradient3692-7">
      <stop style="stop-color:#d3d3d3;stop-opacity:1;" offset="0" id="pref_13stop3688"/>
      <stop style="stop-color:#b2b2b2;stop-opacity:1" offset="0.81006318" id="pref_13stop5318"/>
      <stop style="stop-color:#c8c8c8;stop-opacity:1" offset="0.87439835" id="pref_13stop4242"/>
      <stop style="stop-color:#b8b8b8;stop-opacity:1;" offset="0.94349736" id="pref_13stop4310"/>
      <stop style="stop-color:#aeaeae;stop-opacity:1" offset="1" id="pref_13stop3690"/>
    </linearGradient>
    <radialGradient xlink:href="#pref_13linearGradient3692-7" id="pref_13radialGradient1176" cx="0.75" cy="0.75" fx="0.75" fy="0.75" r="1.5" gradientUnits="userSpaceOnUse"/>
    <linearGradient xlink:href="#pref_13linearGradient1894" id="pref_13linearGradient1902" x1="-0.24704969" y1="-10.608996" x2="8.4657993" y2="-5.57863" gradientUnits="userSpaceOnUse"/>
    <linearGradient xlink:href="#pref_13linearGradient2885" id="pref_13linearGradient2887" x1="-0.24704971" y1="-8.0938129" x2="8.4657997" y2="-8.0938129" gradientUnits="userSpaceOnUse"/>
    <radialGradient xlink:href="#pref_13linearGradient3674" id="pref_13radialGradient3506" cx="4.109375" cy="-8.0938129" fx="4.109375" fy="-8.0938129" r="4.3564248" gradientTransform="matrix(1.1330715,0.01077876,-0.01098402,1.1546483,-0.63574335,1.2074004)" gradientUnits="userSpaceOnUse"/>
    <linearGradient xlink:href="#pref_13linearGradient1894" id="pref_13linearGradient1902-1" x1="-0.24704969" y1="-10.608996" x2="8.4657993" y2="-5.57863" gradientUnits="userSpaceOnUse"/>
    <linearGradient xlink:href="#pref_13linearGradient2885" id="pref_13linearGradient2887-3" x1="-0.2470497" y1="-8.0938129" x2="8.4657993" y2="-8.0938129" gradientUnits="userSpaceOnUse"/>
    <radialGradient xlink:href="#pref_13linearGradient3674" id="pref_13radialGradient3506-6" cx="4.109375" cy="-8.0938129" fx="4.109375" fy="-8.0938129" r="4.3564248" gradientTransform="matrix(1.1330715,0.01077876,-0.01098402,1.1546483,-0.63574335,1.2074004)" gradientUnits="userSpaceOnUse"/>
    <linearGradient xlink:href="#pref_13linearGradient3692" id="pref_13linearGradient6924" gradientUnits="userSpaceOnUse" x1="1.4987922" y1="4.3924975" x2="-1.0811033" y2="-3.0084407"/>
    <linearGradient id="pref_13linearGradient3692">
      <stop style="stop-color:#e4e4e4;stop-opacity:1" offset="0" id="pref_13stop6926"/>
      <stop style="stop-color:#e5e5e5;stop-opacity:1" offset="0.1656336" id="pref_13stop6928"/>
      <stop style="stop-color:#f5f5f5;stop-opacity:1" offset="0.29162589" id="pref_13stop6930"/>
      <stop style="stop-color:#c6c6c6;stop-opacity:1;" offset="0.38067153" id="pref_13stop6932"/>
      <stop style="stop-color:#dddddd;stop-opacity:1" offset="0.57577699" id="pref_13stop6934"/>
      <stop style="stop-color:#f2f2f2;stop-opacity:1" offset="0.66836077" id="pref_13stop6936"/>
      <stop style="stop-color:#ebebeb;stop-opacity:1" offset="0.79280978" id="pref_13stop6938"/>
      <stop style="stop-color:#efefef;stop-opacity:1" offset="1" id="pref_13stop6940"/>
    </linearGradient>
  </defs>
  <circle style="fill:url(#pref_13linearGradient6924);fill-opacity:1;stroke:#cecece;stroke-width:0.05;stroke-miterlimit:4;stroke-dasharray:none;stroke-opacity:1" id="pref_13path6642" cx="0.75" cy="0.75" r="3.5"/>
  <g xmlns:sodipodi="http://sodipodi.sourceforge.net/DTD/sodipodi-0.dtd" id="pref_13g5432-9" transform="rotate(16.945707,0.75000009,0.75000001)">
    <path sodipodi:type="star" style="opacity:1;fill:url(#pref_13linearGradient1902-1);fill-opacity:1;stroke:url(#pref_13linearGradient2887-3);stroke-width:0.0984229;stroke-linecap:round;stroke-linejoin:round;stroke-miterlimit:4;stroke-dasharray:none" id="pref_13path1634-2" sodipodi:sides="6" sodipodi:cx="4.109375" sodipodi:cy="-8.0938129" sodipodi:r1="5.0303659" sodipodi:r2="4.3564248" sodipodi:arg1="0.52359878" sodipodi:arg2="1.0471976" transform="matrix(0.47378978,0.39955401,-0.39955401,0.47378978,-4.4308952,2.9428486)" d="m 8.4657997,-5.57863 -4.3564247,2.515183 -4.35642471,-2.515183 2e-8,-5.030366 4.35642469,-2.515183 4.3564247,2.515183 z"/>
    <path sodipodi:type="star" style="opacity:1;fill:url(#pref_13radialGradient3506-6);fill-opacity:1;stroke:none;stroke-width:0.0984229;stroke-linecap:round;stroke-linejoin:round;stroke-miterlimit:4;stroke-dasharray:none" id="pref_13path1634-9-0" sodipodi:sides="6" sodipodi:cx="4.109375" sodipodi:cy="-8.0938129" sodipodi:r1="5.0303659" sodipodi:r2="4.3564248" sodipodi:arg1="0.52359878" sodipodi:arg2="1.0471976" transform="matrix(0.47378978,0.39955401,-0.39955401,0.47378978,-4.4308952,2.9428486)" d="m 8.4657997,-5.57863 -4.3564247,2.515183 -4.35642471,-2.515183 2e-8,-5.030366 4.35642469,-2.515183 4.3564247,2.515183 z"/>
  </g>
  <g xmlns:sodipodi="http://sodipodi.sourceforge.net/DTD/sodipodi-0.dtd" id="pref_13g5432">
    <path sodipodi:type="star" style="opacity:1;fill:url(#pref_13linearGradient1902);fill-opacity:1;stroke:url(#pref_13linearGradient2887);stroke-width:0.0984229;stroke-linecap:round;stroke-linejoin:round;stroke-miterlimit:4;stroke-dasharray:none" id="pref_13path1634" sodipodi:sides="6" sodipodi:cx="4.109375" sodipodi:cy="-8.0938129" sodipodi:r1="5.0303659" sodipodi:r2="4.3564248" sodipodi:arg1="0.52359878" sodipodi:arg2="1.0471976" d="m 8.4657997,-5.57863 -4.3564247,2.515183 -4.35642471,-2.515183 2e-8,-5.030366 4.35642469,-2.515183 4.3564247,2.515183 z" transform="matrix(0.47378978,0.39955401,-0.39955401,0.47378978,-4.4308952,2.9428486)"/>
    <path sodipodi:type="star" style="opacity:1;fill:url(#pref_13radialGradient3506);fill-opacity:1;stroke:none;stroke-width:0.0984229;stroke-linecap:round;stroke-linejoin:round;stroke-miterlimit:4;stroke-dasharray:none" id="pref_13path1634-9" sodipodi:sides="6" sodipodi:cx="4.109375" sodipodi:cy="-8.0938129" sodipodi:r1="5.0303659" sodipodi:r2="4.3564248" sodipodi:arg1="0.52359878" sodipodi:arg2="1.0471976" transform="matrix(0.47378978,0.39955401,-0.39955401,0.47378978,-4.4308952,2.9428486)" d="m 8.4657997,-5.57863 -4.3564247,2.515183 -4.35642471,-2.515183 2e-8,-5.030366 4.35642469,-2.515183 4.3564247,2.515183 z"/>
  </g>
  <circle style="opacity:1;fill:url(#pref_13radialGradient1176);fill-opacity:1;stroke-width:0.0202753;stroke:#848484;stroke-opacity:1" id="pref_13path1030" cx="0.75" cy="0.75" r="1.5"/>
</g></g><!--Mlab_Mechanical:MountingHole_3mm.back:M2--><g transform="translate(190.25 76.48) scale(1.0, 1.0) rotate(-0.0) translate(-0.75 -0.75)"><use xmlns:xlink="http://www.w3.org/1999/xlink" xlink:href="#pref_12_Mlab_Mechanical__MountingHole_3mmback_HOLE"/></g><!--Mlab_Mechanical:MountingHole_3mm.back:M4--><g transform="translate(149.61 96.8) scale(1.0, 1.0) rotate(-0.0) translate(-0.75 -0.75)"><use xmlns:xlink="http://www.w3.org/1999/xlink" xlink:href="#pref_12_Mlab_Mechanical__MountingHole_3mmback_HOLE"/></g></g></svg>