<!DOCTYPE svg PUBLIC "-//W3C//DTD SVG 1.1//EN" "http://www.w3.org/Graphics/SVG/1.1/DTD/svg11.dtd">
<svg xmlns="http://www.w3.org/2000/svg" version="1.1" width="70.551999mm" height="70.552mm" viewBox="139.734 66.604 70.55199999999999 70.552">
            <title>Picture generated by PcbDraw </title>
            <desc>Picture generated by PcbDraw</desc>
        <defs><clipPath id="cut-off"><path d=" M 205.236 132.106 L 205.236 71.654 L 144.784 71.654 L 144.784 132.106 L 205.236 132.106 " style="fill-rule: evenodd;"/></clipPath><mask id="pads-mask"><g style="fill:#ffffff; fill-opacity:0.0;  stroke:#ffffff; stroke-width:0.0000; stroke-opacity:1;  stroke-linecap:round; stroke-linejoin:round;">
<g style="fill:#ffffff; fill-opacity:1.0000;  stroke:#ffffff; stroke-width:0.0000; stroke-opacity:1;  stroke-linecap:round; stroke-linejoin:round;">
<circle cx="149.6100" cy="76.4800" r="3.2000"/> 
</g>
<g style="fill:#ffffff; fill-opacity:1.0000;  stroke:#ffffff; stroke-width:0.0000; stroke-opacity:1;  stroke-linecap:round; stroke-linejoin:round;">
<circle cx="190.2500" cy="76.4800" r="3.2000"/> 
</g>
<g style="fill:#ffffff; fill-opacity:1.0000;  stroke:#ffffff; stroke-width:0.0000; stroke-opacity:1;  stroke-linecap:round; stroke-linejoin:round;">
<path style="fill:#ffffff; fill-opacity:1.0000;  stroke:#ffffff; stroke-width:0.0000; stroke-opacity:1;  stroke-linecap:round; stroke-linejoin:round;fill-rule:evenodd;" d="M 158.6340,90.3840 158.5575,90.3688 158.4926,90.3254 158.4492,90.2605 158.4340,90.1840 158.4340,87.6740 158.4492,87.5975 158.4926,87.5326 158.5575,87.4892 158.6340,87.4740 159.6340,87.4740 159.7105,87.4892 159.7754,87.5326 159.8188,87.5975 159.8340,87.6740 159.8340,90.1840 159.8188,90.2605 159.7754,90.3254 159.7105,90.3688 159.6340,90.3840 Z"/> 
<path style="fill:#ffffff; fill-opacity:1.0000;  stroke:#ffffff; stroke-width:0.0000; stroke-opacity:1;  stroke-linecap:round; stroke-linejoin:round;fill-rule:evenodd;" d="M 161.1740,87.0740 161.0975,87.0588 161.0326,87.0154 160.9892,86.9505 160.9740,86.8740 160.9740,84.3640 160.9892,84.2875 161.0326,84.2226 161.0975,84.1792 161.1740,84.1640 162.1740,84.1640 162.2505,84.1792 162.3154,84.2226 162.3588,84.2875 162.3740,84.3640 162.3740,86.8740 162.3588,86.9505 162.3154,87.0154 162.2505,87.0588 162.1740,87.0740 Z"/> 
<path style="fill:#ffffff; fill-opacity:1.0000;  stroke:#ffffff; stroke-width:0.0000; stroke-opacity:1;  stroke-linecap:round; stroke-linejoin:round;fill-rule:evenodd;" d="M 163.7140,90.3840 163.6375,90.3688 163.5726,90.3254 163.5292,90.2605 163.5140,90.1840 163.5140,87.6740 163.5292,87.5975 163.5726,87.5326 163.6375,87.4892 163.7140,87.4740 164.7140,87.4740 164.7905,87.4892 164.8554,87.5326 164.8988,87.5975 164.9140,87.6740 164.9140,90.1840 164.8988,90.2605 164.8554,90.3254 164.7905,90.3688 164.7140,90.3840 Z"/> 
</g>
<g style="fill:#ffffff; fill-opacity:1.0000;  stroke:#ffffff; stroke-width:0.0000; stroke-opacity:1;  stroke-linecap:round; stroke-linejoin:round;">
<circle cx="149.6100" cy="96.8000" r="3.2000"/> 
</g>
</g> 
</mask><mask id="pads-mask-silkscreen"><rect x="144.734" y="71.604" width="60.552" height="60.552" fill="white"/><g style="fill:#000000; fill-opacity:0.0;  stroke:#000000; stroke-width:0.0000; stroke-opacity:1;  stroke-linecap:round; stroke-linejoin:round;">
<g style="fill:#000000; fill-opacity:1.0000;  stroke:#000000; stroke-width:0.0000; stroke-opacity:1;  stroke-linecap:round; stroke-linejoin:round;">
<circle cx="149.6100" cy="76.4800" r="3.2000"/> 
</g>
<g style="fill:#000000; fill-opacity:1.0000;  stroke:#000000; stroke-width:0.0000; stroke-opacity:1;  stroke-linecap:round; stroke-linejoin:round;">
<circle cx="190.2500" cy="76.4800" r="3.2000"/> 
</g>
<g style="fill:#000000; fill-opacity:1.0000;  stroke:#000000; stroke-width:0.0000; stroke-opacity:1;  stroke-linecap:round; stroke-linejoin:round;">
<path style="fill:#000000; fill-opacity:1.0000;  stroke:#000000; stroke-width:0.0000; stroke-opacity:1;  stroke-linecap:round; stroke-linejoin:round;fill-rule:evenodd;" d="M 158.6340,90.3840 158.5575,90.3688 158.4926,90.3254 158.4492,90.2605 158.4340,90.1840 158.4340,87.6740 158.4492,87.5975 158.4926,87.5326 158.5575,87.4892 158.6340,87.4740 159.6340,87.4740 159.7105,87.4892 159.7754,87.5326 159.8188,87.5975 159.8340,87.6740 159.8340,90.1840 159.8188,90.2605 159.7754,90.3254 159.7105,90.3688 159.6340,90.3840 Z"/> 
<path style="fill:#000000; fill-opacity:1.0000;  stroke:#000000; stroke-width:0.0000; stroke-opacity:1;  stroke-linecap:round; stroke-linejoin:round;fill-rule:evenodd;" d="M 161.1740,87.0740 161.0975,87.0588 161.0326,87.0154 160.9892,86.9505 160.9740,86.8740 160.9740,84.3640 160.9892,84.2875 161.0326,84.2226 161.0975,84.1792 161.1740,84.1640 162.1740,84.1640 162.2505,84.1792 162.3154,84.2226 162.3588,84.2875 162.3740,84.3640 162.3740,86.8740 162.3588,86.9505 162.3154,87.0154 162.2505,87.0588 162.1740,87.0740 Z"/> 
<path style="fill:#000000; fill-opacity:1.0000;  stroke:#000000; stroke-width:0.0000; stroke-opacity:1;  stroke-linecap:round; stroke-linejoin:round;fill-rule:evenodd;" d="M 163.7140,90.3840 163.6375,90.3688 163.5726,90.3254 163.5292,90.2605 163.5140,90.1840 163.5140,87.6740 163.5292,87.5975 163.5726,87.5326 163.6375,87.4892 163.7140,87.4740 164.7140,87.4740 164.7905,87.4892 164.8554,87.5326 164.8988,87.5975 164.9140,87.6740 164.9140,90.1840 164.8988,90.2605 164.8554,90.3254 164.7905,90.3688 164.7140,90.3840 Z"/> 
</g>
<g style="fill:#000000; fill-opacity:1.0000;  stroke:#000000; stroke-width:0.0000; stroke-opacity:1;  stroke-linecap:round; stroke-linejoin:round;">
<circle cx="149.6100" cy="96.8000" r="3.2000"/> 
</g>
</g> 
</mask><mask id="hole-mask"><g><rect x="144.734" y="71.604" fill="white" width="60.552" height="60.552"/><polyline stroke-linecap="round" stroke="black" stroke-width="3.0" points="-0.0 0 0.0 0" transform="translate(149.61 76.48) rotate(-0.0)"/><polyline stroke-linecap="round" stroke="black" stroke-width="3.0" points="-0.0 0 0.0 0" transform="translate(190.25 76.48) rotate(-0.0)"/><polyline stroke-linecap="round" stroke="black" stroke-width="3.0" points="-0.0 0 0.0 0" transform="translate(149.61 96.8) rotate(-0.0)"/><polyline stroke-linecap="round" stroke="black" stroke-width="0.4" points="-0.0 0 0.0 0" transform="translate(167.65 91.8) rotate(-0.0)"/><polyline stroke-linecap="round" stroke="black" stroke-width="0.4" points="-0.0 0 0.0 0" transform="translate(146.9 83.2) rotate(-0.0)"/><polyline stroke-linecap="round" stroke="black" stroke-width="0.4" points="-0.0 0 0.0 0" transform="translate(153.0 87.1) rotate(-0.0)"/></g></mask></defs><g transform="" id="boardContainer"><g id="substrate" clip-path="url(#cut-off)" mask="url(#hole-mask)"><g id="substrate-board" style="fill:#f1f4f3; stroke:#f1f4f3;"><path d=" M 205.236 132.106 L 205.236 71.654 L 144.784 71.654 L 144.784 132.106 L 205.236 132.106 " style="fill-rule: evenodd;"/><g style="fill-opacity: 0.0;stroke-width: 0.1000;stroke-opacity: 1;stroke-linecap: round;stroke-linejoin: round">
<path d="M144.7840 132.1060 L205.2360 132.1060 "/>
<path d="M144.7840 71.6540 L205.2360 71.6540 "/>
<path d="M205.2360 71.6540 L205.2360 132.1060 "/>
<path d="M144.7840 132.1060 L144.7840 71.6540 "/>
</g> 
</g><g id="substrate-clad" style="fill:#72786c; stroke:#72786c;"><g style="fill-opacity: 0.0;stroke-width: 0.0000;stroke-opacity: 1;stroke-linecap: round;stroke-linejoin: round">
<g style="fill-opacity: 1.0000;stroke-width: 0.0000;stroke-opacity: 1;stroke-linecap: round;stroke-linejoin: round">
<circle cx="149.6100" cy="76.4800" r="3.2000"/> 
</g>
<g style="fill-opacity: 1.0000;stroke-width: 0.0000;stroke-opacity: 1;stroke-linecap: round;stroke-linejoin: round">
<circle cx="190.2500" cy="76.4800" r="3.2000"/> 
</g>
<g style="fill-opacity: 1.0000;stroke-width: 0.0000;stroke-opacity: 1;stroke-linecap: round;stroke-linejoin: round">
<path style="fill-opacity: 1.0000;stroke-width: 0.0000;stroke-opacity: 1;stroke-linecap: round;stroke-linejoin: round;fill-rule: evenodd" d="M 158.6340,90.3840 158.5575,90.3688 158.4926,90.3254 158.4492,90.2605 158.4340,90.1840 158.4340,87.6740 158.4492,87.5975 158.4926,87.5326 158.5575,87.4892 158.6340,87.4740 159.6340,87.4740 159.7105,87.4892 159.7754,87.5326 159.8188,87.5975 159.8340,87.6740 159.8340,90.1840 159.8188,90.2605 159.7754,90.3254 159.7105,90.3688 159.6340,90.3840 Z"/> 
<path style="fill-opacity: 1.0000;stroke-width: 0.0000;stroke-opacity: 1;stroke-linecap: round;stroke-linejoin: round;fill-rule: evenodd" d="M 161.1740,87.0740 161.0975,87.0588 161.0326,87.0154 160.9892,86.9505 160.9740,86.8740 160.9740,84.3640 160.9892,84.2875 161.0326,84.2226 161.0975,84.1792 161.1740,84.1640 162.1740,84.1640 162.2505,84.1792 162.3154,84.2226 162.3588,84.2875 162.3740,84.3640 162.3740,86.8740 162.3588,86.9505 162.3154,87.0154 162.2505,87.0588 162.1740,87.0740 Z"/> 
<path style="fill-opacity: 1.0000;stroke-width: 0.0000;stroke-opacity: 1;stroke-linecap: round;stroke-linejoin: round;fill-rule: evenodd" d="M 163.7140,90.3840 163.6375,90.3688 163.5726,90.3254 163.5292,90.2605 163.5140,90.1840 163.5140,87.6740 163.5292,87.5975 163.5726,87.5326 163.6375,87.4892 163.7140,87.4740 164.7140,87.4740 164.7905,87.4892 164.8554,87.5326 164.8988,87.5975 164.9140,87.6740 164.9140,90.1840 164.8988,90.2605 164.8554,90.3254 164.7905,90.3688 164.7140,90.3840 Z"/> 
</g>
<g style="fill-opacity: 1.0000;stroke-width: 0.0000;stroke-opacity: 1;stroke-linecap: round;stroke-linejoin: round">
<circle cx="149.6100" cy="96.8000" r="3.2000"/> 
</g>
</g> 
</g><g id="substrate-copper" style="fill:#f8f8f7; stroke:#f8f8f7;"><g style="fill-opacity: 0.0;stroke-width: 0.3000;stroke-opacity: 1;stroke-linecap: round;stroke-linejoin: round">
<text x="149.2000" y="131.0500" textLength="6.1643" font-size="2.0000" lengthAdjust="spacingAndGlyphs" text-anchor="middle" opacity="0">MLAB</text>
<g class="stroked-text"><desc>MLAB</desc>
<path d="M146.7000 130.9783 L146.7000 129.4783 "/>
<path d="M146.7000 129.4783 L147.2000 130.5498 "/>
<path d="M147.2000 130.5498 L147.7000 129.4783 "/>
<path d="M147.7000 129.4783 L147.7000 130.9783 "/>
<path d="M149.1286 130.9783 L148.4143 130.9783 "/>
<path d="M148.4143 130.9783 L148.4143 129.4783 "/>
<path d="M149.5571 130.5498 L150.2714 130.5498 "/>
<path d="M149.4143 130.9783 L149.9143 129.4783 "/>
<path d="M149.9143 129.4783 L150.4143 130.9783 "/>
<path d="M151.4143 130.1926 L151.6286 130.2640 "/>
<path d="M151.6286 130.2640 L151.7000 130.3355 "/>
<path d="M151.7000 130.3355 L151.7714 130.4783 "/>
<path d="M151.7714 130.4783 L151.7714 130.6926 "/>
<path d="M151.7714 130.6926 L151.7000 130.8355 "/>
<path d="M151.7000 130.8355 L151.6286 130.9069 "/>
<path d="M151.6286 130.9069 L151.4857 130.9783 "/>
<path d="M151.4857 130.9783 L150.9143 130.9783 "/>
<path d="M150.9143 130.9783 L150.9143 129.4783 "/>
<path d="M150.9143 129.4783 L151.4143 129.4783 "/>
<path d="M151.4143 129.4783 L151.5571 129.5498 "/>
<path d="M151.5571 129.5498 L151.6286 129.6212 "/>
<path d="M151.6286 129.6212 L151.7000 129.7640 "/>
<path d="M151.7000 129.7640 L151.7000 129.9069 "/>
<path d="M151.7000 129.9069 L151.6286 130.0498 "/>
<path d="M151.6286 130.0498 L151.5571 130.1212 "/>
<path d="M151.5571 130.1212 L151.4143 130.1926 "/>
<path d="M151.4143 130.1926 L150.9143 130.1926 "/>
</g><g style="fill-opacity: 1.0000;stroke-width: 0.0000;stroke-opacity: 1;stroke-linecap: round;stroke-linejoin: round">
<circle cx="149.6100" cy="76.4800" r="3.0000"/> 
</g>
<g style="fill-opacity: 1.0000;stroke-width: 0.0000;stroke-opacity: 1;stroke-linecap: round;stroke-linejoin: round">
<circle cx="190.2500" cy="76.4800" r="3.0000"/> 
</g>
<g style="fill-opacity: 1.0000;stroke-width: 0.0000;stroke-opacity: 1;stroke-linecap: round;stroke-linejoin: round">
<path style="fill-opacity: 1.0000;stroke-width: 0.0000;stroke-opacity: 1;stroke-linecap: round;stroke-linejoin: round;fill-rule: evenodd" d="M 159.6340,90.1840 158.6340,90.1840 158.6340,87.6740 159.6340,87.6740 Z"/> 
<path style="fill-opacity: 1.0000;stroke-width: 0.0000;stroke-opacity: 1;stroke-linecap: round;stroke-linejoin: round;fill-rule: evenodd" d="M 162.1740,86.8740 161.1740,86.8740 161.1740,84.3640 162.1740,84.3640 Z"/> 
<path style="fill-opacity: 1.0000;stroke-width: 0.0000;stroke-opacity: 1;stroke-linecap: round;stroke-linejoin: round;fill-rule: evenodd" d="M 164.7140,90.1840 163.7140,90.1840 163.7140,87.6740 164.7140,87.6740 Z"/> 
</g>
<g style="fill-opacity: 1.0000;stroke-width: 0.0000;stroke-opacity: 1;stroke-linecap: round;stroke-linejoin: round">
<circle cx="149.6100" cy="96.8000" r="3.0000"/> 
</g>
<g style="fill-opacity: 1.0000;stroke-width: 0.0000;stroke-opacity: 1;stroke-linecap: round;stroke-linejoin: round">
<circle cx="167.6500" cy="91.8000" r="0.4000"/> 
</g>
<g style="fill-opacity: 1.0000;stroke-width: 0.0000;stroke-opacity: 1;stroke-linecap: round;stroke-linejoin: round">
<circle cx="146.9000" cy="83.2000" r="0.4000"/> 
</g>
<g style="fill-opacity: 1.0000;stroke-width: 0.0000;stroke-opacity: 1;stroke-linecap: round;stroke-linejoin: round">
<circle cx="153.0000" cy="87.1000" r="0.4000"/> 
</g>
<g style="fill-opacity: 0.0;stroke-width: 0.4000;stroke-opacity: 1;stroke-linecap: round;stroke-linejoin: round">
<path d="M167.6500 91.8000 L160.4500 91.8000 "/>
<path d="M160.4500 91.8000 L159.1340 90.4840 "/>
<path d="M159.1340 88.9290 L158.9050 88.7000 "/>
<path d="M159.1340 90.4840 L159.1340 88.9290 "/>
<path d="M153.0000 87.1000 L153.0000 84.3000 "/>
<path d="M155.1500 82.1500 L162.2000 82.1500 "/>
<path d="M164.2140 84.1640 L164.2140 88.9290 "/>
<path d="M162.2000 82.1500 L164.2140 84.1640 "/>
<path d="M153.0000 84.3000 L155.1500 82.1500 "/>
</g>
<g style="fill-opacity: 0.0;stroke-width: 0.4000;stroke-opacity: 1;stroke-linecap: round;stroke-linejoin: round">
<g style="fill-opacity: 1.0000;stroke-width: 0.0000;stroke-opacity: 1;stroke-linecap: round;stroke-linejoin: round">
<path style="fill-opacity: 1.0000;stroke-width: 0.0000;stroke-opacity: 1;stroke-linecap: round;stroke-linejoin: round;fill-rule: evenodd" d="M 205.1228,71.6742 205.1921,71.7294 205.2305,71.8092 205.2355,71.8535 205.2355,131.9065 205.2158,131.9928 205.1606,132.0621 205.0808,132.1005 205.0365,132.1055 153.0959,132.1055 153.0096,132.0858 152.9403,132.0306 152.9019,131.9508 152.8969,131.9065 152.8969,128.5602 145.5031,128.5602 145.5031,131.9065 145.4834,131.9928 145.4281,132.0621 145.3484,132.1005 145.3041,132.1055 144.9835,132.1055 144.8972,132.0858 144.8279,132.0306 144.7895,131.9508 144.7845,131.9065 144.7845,90.2155 158.2335,90.2155 158.2463,90.2965 158.2484,90.3093 158.2484,90.3093 158.2484,90.3093 158.3060,90.4223 158.3957,90.5121 158.4570,90.5433 158.5250,90.6001 158.5505,90.6444 158.6095,90.7868 158.6095,90.7868 158.7057,90.9123 158.7057,90.9123 158.7320,90.9325 158.7418,90.9411 159.9929,92.1922 160.0015,92.2020 160.0180,92.2234 160.0217,92.2283 160.1181,92.3023 160.1181,92.3023 160.1472,92.3245 160.1472,92.3245 160.1988,92.3459 160.2932,92.3850 160.4500,92.4057 160.4714,92.4029 160.4829,92.4014 160.4959,92.4005 167.0438,92.4005 167.1301,92.4202 167.1496,92.4310 167.3005,92.5258 167.4707,92.5854 167.6500,92.6056 167.8293,92.5854 167.9995,92.5258 168.1523,92.4298 168.2798,92.3023 168.3758,92.1495 168.4354,91.9793 168.4556,91.8000 168.4354,91.6207 168.3758,91.4505 168.2798,91.2977 168.2798,91.2977 168.2798,91.2977 168.1523,91.1702 168.1523,91.1702 168.1523,91.1702 167.9995,91.0742 167.9995,91.0742 167.9995,91.0742 167.8293,91.0146 167.8293,91.0146 167.8293,91.0146 167.6500,90.9944 167.6500,90.9944 167.6195,90.9979 167.4707,91.0146 167.4707,91.0146 167.4707,91.0146 167.3005,91.0742 167.3005,91.0742 167.1496,91.1690 167.0660,91.1982 167.0438,91.1995 160.7812,91.1995 160.6948,91.1798 160.6404,91.1412 160.0506,90.5514 160.0035,90.4764 159.9936,90.3884 160.0140,90.3203 160.0196,90.3093 160.0345,90.2155 160.0345,87.6425 160.0196,87.5487 159.9621,87.4357 159.9620,87.4357 159.9620,87.4357 159.8723,87.3459 159.7593,87.2884 159.7593,87.2884 159.7593,87.2884 159.7593,87.2884 159.6938,87.2780 159.6655,87.2735 159.6655,87.2735 158.6025,87.2735 158.5087,87.2884 158.5087,87.2884 158.3957,87.3460 158.3059,87.4357 158.2484,87.5487 158.2484,87.5487 158.2335,87.6425 158.2335,90.2155 144.7845,90.2155 144.7845,87.1000 152.1944,87.1000 152.2146,87.2793 152.2146,87.2793 152.2146,87.2793 152.2742,87.4495 152.2742,87.4495 152.3702,87.6023 152.4977,87.7298 152.4977,87.7298 152.4977,87.7298 152.6505,87.8258 152.8207,87.8854 153.0000,87.9056 153.1793,87.8854 153.3495,87.8258 153.5023,87.7298 153.6298,87.6023 153.7258,87.4495 153.7854,87.2793 153.8056,87.1000 153.7854,86.9207 153.7258,86.7505 153.6310,86.5996 153.6018,86.5160 153.6005,86.4938 153.6005,85.8730 160.6440,85.8730 160.6440,86.9155 160.6542,87.0007 160.7077,87.1362 160.7077,87.1362 160.7957,87.2523 160.7957,87.2523 160.9118,87.3403 160.9118,87.3403 161.0473,87.3938 161.1325,87.4040 161.4200,87.4040 161.4200,85.8730 161.9280,85.8730 161.9280,87.4040 162.2155,87.4040 162.3007,87.3938 162.4362,87.3403 162.4362,87.3403 162.5523,87.2523 162.5523,87.2523 162.6403,87.1362 162.6403,87.1362 162.6938,87.0007 162.7040,86.9155 162.7040,85.8730 161.9280,85.8730 161.4200,85.8730 160.6440,85.8730 153.6005,85.8730 153.6005,85.3650 160.6440,85.3650 161.4200,85.3650 161.4200,83.8340 161.9280,83.8340 161.9280,85.3650 162.7040,85.3650 162.7040,84.3225 162.6938,84.2373 162.6403,84.1018 162.6403,84.1018 162.5523,83.9857 162.5523,83.9857 162.4362,83.8977 162.4362,83.8977 162.3007,83.8442 162.2155,83.8340 161.9280,83.8340 161.4200,83.8340 161.1325,83.8340 161.0473,83.8442 160.9118,83.8977 160.9118,83.8977 160.7957,83.9857 160.7957,83.9857 160.7077,84.1018 160.7077,84.1018 160.6542,84.2373 160.6440,84.3225 160.6440,85.3650 153.6005,85.3650 153.6005,84.6312 153.6202,84.5448 153.6588,84.4904 155.3404,82.8088 155.4154,82.7617 155.4812,82.7505 161.8688,82.7505 161.9552,82.7702 162.0096,82.8088 163.5552,84.3544 163.6023,84.4294 163.6135,84.4952 163.6135,87.1538 163.5938,87.2401 163.5386,87.3094 163.5048,87.3311 163.4757,87.3459 163.4757,87.3460 163.3859,87.4357 163.3284,87.5487 163.3284,87.5487 163.3135,87.6425 163.3135,90.2155 163.3263,90.2965 163.3284,90.3093 163.3284,90.3093 163.3284,90.3093 163.3860,90.4223 163.4757,90.5121 163.5887,90.5696 163.5887,90.5696 163.6825,90.5845 164.7455,90.5845 164.8393,90.5696 164.9523,90.5121 165.0420,90.4223 165.0996,90.3093 165.1145,90.2155 165.1145,87.6425 165.0996,87.5487 165.0420,87.4357 165.0420,87.4357 165.0420,87.4357 164.9523,87.3460 164.9523,87.3459 164.9232,87.3311 164.8552,87.2743 164.8185,87.1937 164.8145,87.1538 164.8145,84.2099 164.8154,84.1969 164.8169,84.1854 164.8197,84.1640 164.7990,84.0072 164.7429,83.8717 164.7385,83.8612 164.6664,83.7672 164.6423,83.7357 164.6294,83.7258 164.6160,83.7155 164.6062,83.7069 162.6571,81.7578 162.6485,81.7480 162.6283,81.7217 162.6283,81.7217 162.5028,81.6255 162.5028,81.6255 162.3568,81.5650 162.3568,81.5650 162.3568,81.5650 162.3568,81.5650 162.3568,81.5650 162.2394,81.5495 162.2394,81.5495 162.2131,81.5460 162.2000,81.5443 162.2000,81.5443 162.1671,81.5486 162.1541,81.5495 155.1959,81.5495 155.1829,81.5486 155.1500,81.5443 155.1106,81.5495 155.1106,81.5495 154.9932,81.5650 154.9932,81.5650 154.8472,81.6255 154.8472,81.6255 154.7217,81.7217 154.7015,81.7480 154.6929,81.7578 152.6078,83.8429 152.5980,83.8515 152.5717,83.8717 152.5476,83.9032 152.4755,83.9972 152.4755,83.9972 152.4150,84.1432 152.4150,84.1432 152.3943,84.3000 152.3986,84.3329 152.3995,84.3459 152.3995,86.4938 152.3798,86.5801 152.3690,86.5996 152.2742,86.7505 152.2742,86.7505 152.2165,86.9155 152.2146,86.9207 152.1944,87.1000 144.7845,87.1000 144.7845,71.8535 144.8042,71.7672 144.8594,71.6979 144.9392,71.6595 144.9835,71.6545 205.0365,71.6545 Z"/> 
</g>
</g>
</g> 
</g><g id="substrate-pads" style="fill:#c4c1ba; stroke:#c4c1ba;" mask="url(#pads-mask)"><g style="fill-opacity: 0.0;stroke-width: 0.3000;stroke-opacity: 1;stroke-linecap: round;stroke-linejoin: round">
<text x="149.2000" y="131.0500" textLength="6.1643" font-size="2.0000" lengthAdjust="spacingAndGlyphs" text-anchor="middle" opacity="0">MLAB</text>
<g class="stroked-text"><desc>MLAB</desc>
<path d="M146.7000 130.9783 L146.7000 129.4783 "/>
<path d="M146.7000 129.4783 L147.2000 130.5498 "/>
<path d="M147.2000 130.5498 L147.7000 129.4783 "/>
<path d="M147.7000 129.4783 L147.7000 130.9783 "/>
<path d="M149.1286 130.9783 L148.4143 130.9783 "/>
<path d="M148.4143 130.9783 L148.4143 129.4783 "/>
<path d="M149.5571 130.5498 L150.2714 130.5498 "/>
<path d="M149.4143 130.9783 L149.9143 129.4783 "/>
<path d="M149.9143 129.4783 L150.4143 130.9783 "/>
<path d="M151.4143 130.1926 L151.6286 130.2640 "/>
<path d="M151.6286 130.2640 L151.7000 130.3355 "/>
<path d="M151.7000 130.3355 L151.7714 130.4783 "/>
<path d="M151.7714 130.4783 L151.7714 130.6926 "/>
<path d="M151.7714 130.6926 L151.7000 130.8355 "/>
<path d="M151.7000 130.8355 L151.6286 130.9069 "/>
<path d="M151.6286 130.9069 L151.4857 130.9783 "/>
<path d="M151.4857 130.9783 L150.9143 130.9783 "/>
<path d="M150.9143 130.9783 L150.9143 129.4783 "/>
<path d="M150.9143 129.4783 L151.4143 129.4783 "/>
<path d="M151.4143 129.4783 L151.5571 129.5498 "/>
<path d="M151.5571 129.5498 L151.6286 129.6212 "/>
<path d="M151.6286 129.6212 L151.7000 129.7640 "/>
<path d="M151.7000 129.7640 L151.7000 129.9069 "/>
<path d="M151.7000 129.9069 L151.6286 130.0498 "/>
<path d="M151.6286 130.0498 L151.5571 130.1212 "/>
<path d="M151.5571 130.1212 L151.4143 130.1926 "/>
<path d="M151.4143 130.1926 L150.9143 130.1926 "/>
</g><g style="fill-opacity: 1.0000;stroke-width: 0.0000;stroke-opacity: 1;stroke-linecap: round;stroke-linejoin: round">
<circle cx="149.6100" cy="76.4800" r="3.0000"/> 
</g>
<g style="fill-opacity: 1.0000;stroke-width: 0.0000;stroke-opacity: 1;stroke-linecap: round;stroke-linejoin: round">
<circle cx="190.2500" cy="76.4800" r="3.0000"/> 
</g>
<g style="fill-opacity: 1.0000;stroke-width: 0.0000;stroke-opacity: 1;stroke-linecap: round;stroke-linejoin: round">
<path style="fill-opacity: 1.0000;stroke-width: 0.0000;stroke-opacity: 1;stroke-linecap: round;stroke-linejoin: round;fill-rule: evenodd" d="M 159.6340,90.1840 158.6340,90.1840 158.6340,87.6740 159.6340,87.6740 Z"/> 
<path style="fill-opacity: 1.0000;stroke-width: 0.0000;stroke-opacity: 1;stroke-linecap: round;stroke-linejoin: round;fill-rule: evenodd" d="M 162.1740,86.8740 161.1740,86.8740 161.1740,84.3640 162.1740,84.3640 Z"/> 
<path style="fill-opacity: 1.0000;stroke-width: 0.0000;stroke-opacity: 1;stroke-linecap: round;stroke-linejoin: round;fill-rule: evenodd" d="M 164.7140,90.1840 163.7140,90.1840 163.7140,87.6740 164.7140,87.6740 Z"/> 
</g>
<g style="fill-opacity: 1.0000;stroke-width: 0.0000;stroke-opacity: 1;stroke-linecap: round;stroke-linejoin: round">
<circle cx="149.6100" cy="96.8000" r="3.0000"/> 
</g>
<g style="fill-opacity: 1.0000;stroke-width: 0.0000;stroke-opacity: 1;stroke-linecap: round;stroke-linejoin: round">
<circle cx="167.6500" cy="91.8000" r="0.4000"/> 
</g>
<g style="fill-opacity: 1.0000;stroke-width: 0.0000;stroke-opacity: 1;stroke-linecap: round;stroke-linejoin: round">
<circle cx="146.9000" cy="83.2000" r="0.4000"/> 
</g>
<g style="fill-opacity: 1.0000;stroke-width: 0.0000;stroke-opacity: 1;stroke-linecap: round;stroke-linejoin: round">
<circle cx="153.0000" cy="87.1000" r="0.4000"/> 
</g>
<g style="fill-opacity: 0.0;stroke-width: 0.4000;stroke-opacity: 1;stroke-linecap: round;stroke-linejoin: round">
<path d="M167.6500 91.8000 L160.4500 91.8000 "/>
<path d="M160.4500 91.8000 L159.1340 90.4840 "/>
<path d="M159.1340 88.9290 L158.9050 88.7000 "/>
<path d="M159.1340 90.4840 L159.1340 88.9290 "/>
<path d="M153.0000 87.1000 L153.0000 84.3000 "/>
<path d="M155.1500 82.1500 L162.2000 82.1500 "/>
<path d="M164.2140 84.1640 L164.2140 88.9290 "/>
<path d="M162.2000 82.1500 L164.2140 84.1640 "/>
<path d="M153.0000 84.3000 L155.1500 82.1500 "/>
</g>
<g style="fill-opacity: 0.0;stroke-width: 0.4000;stroke-opacity: 1;stroke-linecap: round;stroke-linejoin: round">
<g style="fill-opacity: 1.0000;stroke-width: 0.0000;stroke-opacity: 1;stroke-linecap: round;stroke-linejoin: round">
<path style="fill-opacity: 1.0000;stroke-width: 0.0000;stroke-opacity: 1;stroke-linecap: round;stroke-linejoin: round;fill-rule: evenodd" d="M 205.1228,71.6742 205.1921,71.7294 205.2305,71.8092 205.2355,71.8535 205.2355,131.9065 205.2158,131.9928 205.1606,132.0621 205.0808,132.1005 205.0365,132.1055 153.0959,132.1055 153.0096,132.0858 152.9403,132.0306 152.9019,131.9508 152.8969,131.9065 152.8969,128.5602 145.5031,128.5602 145.5031,131.9065 145.4834,131.9928 145.4281,132.0621 145.3484,132.1005 145.3041,132.1055 144.9835,132.1055 144.8972,132.0858 144.8279,132.0306 144.7895,131.9508 144.7845,131.9065 144.7845,90.2155 158.2335,90.2155 158.2463,90.2965 158.2484,90.3093 158.2484,90.3093 158.2484,90.3093 158.3060,90.4223 158.3957,90.5121 158.4570,90.5433 158.5250,90.6001 158.5505,90.6444 158.6095,90.7868 158.6095,90.7868 158.7057,90.9123 158.7057,90.9123 158.7320,90.9325 158.7418,90.9411 159.9929,92.1922 160.0015,92.2020 160.0180,92.2234 160.0217,92.2283 160.1181,92.3023 160.1181,92.3023 160.1472,92.3245 160.1472,92.3245 160.1988,92.3459 160.2932,92.3850 160.4500,92.4057 160.4714,92.4029 160.4829,92.4014 160.4959,92.4005 167.0438,92.4005 167.1301,92.4202 167.1496,92.4310 167.3005,92.5258 167.4707,92.5854 167.6500,92.6056 167.8293,92.5854 167.9995,92.5258 168.1523,92.4298 168.2798,92.3023 168.3758,92.1495 168.4354,91.9793 168.4556,91.8000 168.4354,91.6207 168.3758,91.4505 168.2798,91.2977 168.2798,91.2977 168.2798,91.2977 168.1523,91.1702 168.1523,91.1702 168.1523,91.1702 167.9995,91.0742 167.9995,91.0742 167.9995,91.0742 167.8293,91.0146 167.8293,91.0146 167.8293,91.0146 167.6500,90.9944 167.6500,90.9944 167.6195,90.9979 167.4707,91.0146 167.4707,91.0146 167.4707,91.0146 167.3005,91.0742 167.3005,91.0742 167.1496,91.1690 167.0660,91.1982 167.0438,91.1995 160.7812,91.1995 160.6948,91.1798 160.6404,91.1412 160.0506,90.5514 160.0035,90.4764 159.9936,90.3884 160.0140,90.3203 160.0196,90.3093 160.0345,90.2155 160.0345,87.6425 160.0196,87.5487 159.9621,87.4357 159.9620,87.4357 159.9620,87.4357 159.8723,87.3459 159.7593,87.2884 159.7593,87.2884 159.7593,87.2884 159.7593,87.2884 159.6938,87.2780 159.6655,87.2735 159.6655,87.2735 158.6025,87.2735 158.5087,87.2884 158.5087,87.2884 158.3957,87.3460 158.3059,87.4357 158.2484,87.5487 158.2484,87.5487 158.2335,87.6425 158.2335,90.2155 144.7845,90.2155 144.7845,87.1000 152.1944,87.1000 152.2146,87.2793 152.2146,87.2793 152.2146,87.2793 152.2742,87.4495 152.2742,87.4495 152.3702,87.6023 152.4977,87.7298 152.4977,87.7298 152.4977,87.7298 152.6505,87.8258 152.8207,87.8854 153.0000,87.9056 153.1793,87.8854 153.3495,87.8258 153.5023,87.7298 153.6298,87.6023 153.7258,87.4495 153.7854,87.2793 153.8056,87.1000 153.7854,86.9207 153.7258,86.7505 153.6310,86.5996 153.6018,86.5160 153.6005,86.4938 153.6005,85.8730 160.6440,85.8730 160.6440,86.9155 160.6542,87.0007 160.7077,87.1362 160.7077,87.1362 160.7957,87.2523 160.7957,87.2523 160.9118,87.3403 160.9118,87.3403 161.0473,87.3938 161.1325,87.4040 161.4200,87.4040 161.4200,85.8730 161.9280,85.8730 161.9280,87.4040 162.2155,87.4040 162.3007,87.3938 162.4362,87.3403 162.4362,87.3403 162.5523,87.2523 162.5523,87.2523 162.6403,87.1362 162.6403,87.1362 162.6938,87.0007 162.7040,86.9155 162.7040,85.8730 161.9280,85.8730 161.4200,85.8730 160.6440,85.8730 153.6005,85.8730 153.6005,85.3650 160.6440,85.3650 161.4200,85.3650 161.4200,83.8340 161.9280,83.8340 161.9280,85.3650 162.7040,85.3650 162.7040,84.3225 162.6938,84.2373 162.6403,84.1018 162.6403,84.1018 162.5523,83.9857 162.5523,83.9857 162.4362,83.8977 162.4362,83.8977 162.3007,83.8442 162.2155,83.8340 161.9280,83.8340 161.4200,83.8340 161.1325,83.8340 161.0473,83.8442 160.9118,83.8977 160.9118,83.8977 160.7957,83.9857 160.7957,83.9857 160.7077,84.1018 160.7077,84.1018 160.6542,84.2373 160.6440,84.3225 160.6440,85.3650 153.6005,85.3650 153.6005,84.6312 153.6202,84.5448 153.6588,84.4904 155.3404,82.8088 155.4154,82.7617 155.4812,82.7505 161.8688,82.7505 161.9552,82.7702 162.0096,82.8088 163.5552,84.3544 163.6023,84.4294 163.6135,84.4952 163.6135,87.1538 163.5938,87.2401 163.5386,87.3094 163.5048,87.3311 163.4757,87.3459 163.4757,87.3460 163.3859,87.4357 163.3284,87.5487 163.3284,87.5487 163.3135,87.6425 163.3135,90.2155 163.3263,90.2965 163.3284,90.3093 163.3284,90.3093 163.3284,90.3093 163.3860,90.4223 163.4757,90.5121 163.5887,90.5696 163.5887,90.5696 163.6825,90.5845 164.7455,90.5845 164.8393,90.5696 164.9523,90.5121 165.0420,90.4223 165.0996,90.3093 165.1145,90.2155 165.1145,87.6425 165.0996,87.5487 165.0420,87.4357 165.0420,87.4357 165.0420,87.4357 164.9523,87.3460 164.9523,87.3459 164.9232,87.3311 164.8552,87.2743 164.8185,87.1937 164.8145,87.1538 164.8145,84.2099 164.8154,84.1969 164.8169,84.1854 164.8197,84.1640 164.7990,84.0072 164.7429,83.8717 164.7385,83.8612 164.6664,83.7672 164.6423,83.7357 164.6294,83.7258 164.6160,83.7155 164.6062,83.7069 162.6571,81.7578 162.6485,81.7480 162.6283,81.7217 162.6283,81.7217 162.5028,81.6255 162.5028,81.6255 162.3568,81.5650 162.3568,81.5650 162.3568,81.5650 162.3568,81.5650 162.3568,81.5650 162.2394,81.5495 162.2394,81.5495 162.2131,81.5460 162.2000,81.5443 162.2000,81.5443 162.1671,81.5486 162.1541,81.5495 155.1959,81.5495 155.1829,81.5486 155.1500,81.5443 155.1106,81.5495 155.1106,81.5495 154.9932,81.5650 154.9932,81.5650 154.8472,81.6255 154.8472,81.6255 154.7217,81.7217 154.7015,81.7480 154.6929,81.7578 152.6078,83.8429 152.5980,83.8515 152.5717,83.8717 152.5476,83.9032 152.4755,83.9972 152.4755,83.9972 152.4150,84.1432 152.4150,84.1432 152.3943,84.3000 152.3986,84.3329 152.3995,84.3459 152.3995,86.4938 152.3798,86.5801 152.3690,86.5996 152.2742,86.7505 152.2742,86.7505 152.2165,86.9155 152.2146,86.9207 152.1944,87.1000 144.7845,87.1000 144.7845,71.8535 144.8042,71.7672 144.8594,71.6979 144.9392,71.6595 144.9835,71.6545 205.0365,71.6545 Z"/> 
</g>
</g>
</g> 
</g><g id="substrate-silk" style="fill:#0b1013; stroke:#0b1013;" mask="url(#pads-mask-silkscreen)"><g style="fill-opacity: 0.0;stroke-width: 0.3000;stroke-opacity: 1;stroke-linecap: round;stroke-linejoin: round">
<text x="175.5000" y="75.6500" textLength="19.2719" font-size="2.2667" lengthAdjust="spacingAndGlyphs" text-anchor="middle" opacity="0">PINHOLDER02A</text>
<g class="stroked-text"><desc>PINHOLDER02A</desc>
<path d="M166.4738 75.5709 L166.4738 73.8709 "/>
<path d="M166.4738 73.8709 L167.1214 73.8709 "/>
<path d="M167.1214 73.8709 L167.2833 73.9518 "/>
<path d="M167.2833 73.9518 L167.3643 74.0328 "/>
<path d="M167.3643 74.0328 L167.4452 74.1947 "/>
<path d="M167.4452 74.1947 L167.4452 74.4375 "/>
<path d="M167.4452 74.4375 L167.3643 74.5994 "/>
<path d="M167.3643 74.5994 L167.2833 74.6804 "/>
<path d="M167.2833 74.6804 L167.1214 74.7613 "/>
<path d="M167.1214 74.7613 L166.4738 74.7613 "/>
<path d="M168.1738 75.5709 L168.1738 73.8709 "/>
<path d="M168.9833 75.5709 L168.9833 73.8709 "/>
<path d="M168.9833 73.8709 L169.9548 75.5709 "/>
<path d="M169.9548 75.5709 L169.9548 73.8709 "/>
<path d="M170.7643 75.5709 L170.7643 73.8709 "/>
<path d="M170.7643 74.6804 L171.7357 74.6804 "/>
<path d="M171.7357 75.5709 L171.7357 73.8709 "/>
<path d="M172.8690 73.8709 L173.1929 73.8709 "/>
<path d="M173.1929 73.8709 L173.3548 73.9518 "/>
<path d="M173.3548 73.9518 L173.5167 74.1137 "/>
<path d="M173.5167 74.1137 L173.5976 74.4375 "/>
<path d="M173.5976 74.4375 L173.5976 75.0042 "/>
<path d="M173.5976 75.0042 L173.5167 75.3280 "/>
<path d="M173.5167 75.3280 L173.3548 75.4899 "/>
<path d="M173.3548 75.4899 L173.1929 75.5709 "/>
<path d="M173.1929 75.5709 L172.8690 75.5709 "/>
<path d="M172.8690 75.5709 L172.7071 75.4899 "/>
<path d="M172.7071 75.4899 L172.5452 75.3280 "/>
<path d="M172.5452 75.3280 L172.4643 75.0042 "/>
<path d="M172.4643 75.0042 L172.4643 74.4375 "/>
<path d="M172.4643 74.4375 L172.5452 74.1137 "/>
<path d="M172.5452 74.1137 L172.7071 73.9518 "/>
<path d="M172.7071 73.9518 L172.8690 73.8709 "/>
<path d="M175.1357 75.5709 L174.3262 75.5709 "/>
<path d="M174.3262 75.5709 L174.3262 73.8709 "/>
<path d="M175.7024 75.5709 L175.7024 73.8709 "/>
<path d="M175.7024 73.8709 L176.1071 73.8709 "/>
<path d="M176.1071 73.8709 L176.3500 73.9518 "/>
<path d="M176.3500 73.9518 L176.5119 74.1137 "/>
<path d="M176.5119 74.1137 L176.5929 74.2756 "/>
<path d="M176.5929 74.2756 L176.6738 74.5994 "/>
<path d="M176.6738 74.5994 L176.6738 74.8423 "/>
<path d="M176.6738 74.8423 L176.5929 75.1661 "/>
<path d="M176.5929 75.1661 L176.5119 75.3280 "/>
<path d="M176.5119 75.3280 L176.3500 75.4899 "/>
<path d="M176.3500 75.4899 L176.1071 75.5709 "/>
<path d="M176.1071 75.5709 L175.7024 75.5709 "/>
<path d="M177.4024 74.6804 L177.9690 74.6804 "/>
<path d="M178.2119 75.5709 L177.4024 75.5709 "/>
<path d="M177.4024 75.5709 L177.4024 73.8709 "/>
<path d="M177.4024 73.8709 L178.2119 73.8709 "/>
<path d="M179.9119 75.5709 L179.3452 74.7613 "/>
<path d="M178.9405 75.5709 L178.9405 73.8709 "/>
<path d="M178.9405 73.8709 L179.5881 73.8709 "/>
<path d="M179.5881 73.8709 L179.7500 73.9518 "/>
<path d="M179.7500 73.9518 L179.8310 74.0328 "/>
<path d="M179.8310 74.0328 L179.9119 74.1947 "/>
<path d="M179.9119 74.1947 L179.9119 74.4375 "/>
<path d="M179.9119 74.4375 L179.8310 74.5994 "/>
<path d="M179.8310 74.5994 L179.7500 74.6804 "/>
<path d="M179.7500 74.6804 L179.5881 74.7613 "/>
<path d="M179.5881 74.7613 L178.9405 74.7613 "/>
<path d="M180.9643 73.8709 L181.1262 73.8709 "/>
<path d="M181.1262 73.8709 L181.2881 73.9518 "/>
<path d="M181.2881 73.9518 L181.3690 74.0328 "/>
<path d="M181.3690 74.0328 L181.4500 74.1947 "/>
<path d="M181.4500 74.1947 L181.5310 74.5185 "/>
<path d="M181.5310 74.5185 L181.5310 74.9232 "/>
<path d="M181.5310 74.9232 L181.4500 75.2470 "/>
<path d="M181.4500 75.2470 L181.3690 75.4089 "/>
<path d="M181.3690 75.4089 L181.2881 75.4899 "/>
<path d="M181.2881 75.4899 L181.1262 75.5709 "/>
<path d="M181.1262 75.5709 L180.9643 75.5709 "/>
<path d="M180.9643 75.5709 L180.8024 75.4899 "/>
<path d="M180.8024 75.4899 L180.7214 75.4089 "/>
<path d="M180.7214 75.4089 L180.6405 75.2470 "/>
<path d="M180.6405 75.2470 L180.5595 74.9232 "/>
<path d="M180.5595 74.9232 L180.5595 74.5185 "/>
<path d="M180.5595 74.5185 L180.6405 74.1947 "/>
<path d="M180.6405 74.1947 L180.7214 74.0328 "/>
<path d="M180.7214 74.0328 L180.8024 73.9518 "/>
<path d="M180.8024 73.9518 L180.9643 73.8709 "/>
<path d="M182.1786 74.0328 L182.2595 73.9518 "/>
<path d="M182.2595 73.9518 L182.4214 73.8709 "/>
<path d="M182.4214 73.8709 L182.8262 73.8709 "/>
<path d="M182.8262 73.8709 L182.9881 73.9518 "/>
<path d="M182.9881 73.9518 L183.0690 74.0328 "/>
<path d="M183.0690 74.0328 L183.1500 74.1947 "/>
<path d="M183.1500 74.1947 L183.1500 74.3566 "/>
<path d="M183.1500 74.3566 L183.0690 74.5994 "/>
<path d="M183.0690 74.5994 L182.0976 75.5709 "/>
<path d="M182.0976 75.5709 L183.1500 75.5709 "/>
<path d="M183.7976 75.0851 L184.6071 75.0851 "/>
<path d="M183.6357 75.5709 L184.2024 73.8709 "/>
<path d="M184.2024 73.8709 L184.7690 75.5709 "/>
</g><text x="159.8000" y="75.5500" textLength="9.3786" font-size="2.0000" lengthAdjust="spacingAndGlyphs" text-anchor="middle" opacity="0">MLAB.cz</text>
<g class="stroked-text"><desc>MLAB.cz</desc>
<path d="M155.6929 75.4783 L155.6929 73.9783 "/>
<path d="M155.6929 73.9783 L156.1929 75.0498 "/>
<path d="M156.1929 75.0498 L156.6929 73.9783 "/>
<path d="M156.6929 73.9783 L156.6929 75.4783 "/>
<path d="M158.1214 75.4783 L157.4071 75.4783 "/>
<path d="M157.4071 75.4783 L157.4071 73.9783 "/>
<path d="M158.5500 75.0498 L159.2643 75.0498 "/>
<path d="M158.4071 75.4783 L158.9071 73.9783 "/>
<path d="M158.9071 73.9783 L159.4071 75.4783 "/>
<path d="M160.4071 74.6926 L160.6214 74.7640 "/>
<path d="M160.6214 74.7640 L160.6929 74.8355 "/>
<path d="M160.6929 74.8355 L160.7643 74.9783 "/>
<path d="M160.7643 74.9783 L160.7643 75.1926 "/>
<path d="M160.7643 75.1926 L160.6929 75.3355 "/>
<path d="M160.6929 75.3355 L160.6214 75.4069 "/>
<path d="M160.6214 75.4069 L160.4786 75.4783 "/>
<path d="M160.4786 75.4783 L159.9071 75.4783 "/>
<path d="M159.9071 75.4783 L159.9071 73.9783 "/>
<path d="M159.9071 73.9783 L160.4071 73.9783 "/>
<path d="M160.4071 73.9783 L160.5500 74.0498 "/>
<path d="M160.5500 74.0498 L160.6214 74.1212 "/>
<path d="M160.6214 74.1212 L160.6929 74.2640 "/>
<path d="M160.6929 74.2640 L160.6929 74.4069 "/>
<path d="M160.6929 74.4069 L160.6214 74.5498 "/>
<path d="M160.6214 74.5498 L160.5500 74.6212 "/>
<path d="M160.5500 74.6212 L160.4071 74.6926 "/>
<path d="M160.4071 74.6926 L159.9071 74.6926 "/>
<path d="M161.4071 75.3355 L161.4786 75.4069 "/>
<path d="M161.4786 75.4069 L161.4071 75.4783 "/>
<path d="M161.4071 75.4783 L161.3357 75.4069 "/>
<path d="M161.3357 75.4069 L161.4071 75.3355 "/>
<path d="M161.4071 75.3355 L161.4071 75.4783 "/>
<path d="M162.7643 75.4069 L162.6214 75.4783 "/>
<path d="M162.6214 75.4783 L162.3357 75.4783 "/>
<path d="M162.3357 75.4783 L162.1929 75.4069 "/>
<path d="M162.1929 75.4069 L162.1214 75.3355 "/>
<path d="M162.1214 75.3355 L162.0500 75.1926 "/>
<path d="M162.0500 75.1926 L162.0500 74.7640 "/>
<path d="M162.0500 74.7640 L162.1214 74.6212 "/>
<path d="M162.1214 74.6212 L162.1929 74.5498 "/>
<path d="M162.1929 74.5498 L162.3357 74.4783 "/>
<path d="M162.3357 74.4783 L162.6214 74.4783 "/>
<path d="M162.6214 74.4783 L162.7643 74.5498 "/>
<path d="M163.2643 74.4783 L164.0500 74.4783 "/>
<path d="M164.0500 74.4783 L163.2643 75.4783 "/>
<path d="M163.2643 75.4783 L164.0500 75.4783 "/>
</g></g>
<g style="fill-opacity: 0.0;stroke-width: 0.1500;stroke-opacity: 1;stroke-linecap: round;stroke-linejoin: round">
<text x="161.7000" y="92.1000" textLength="6.6036" font-size="1.3333" lengthAdjust="spacingAndGlyphs" text-anchor="middle" opacity="0">K GND A</text>
<g class="stroked-text"><desc>K GND A</desc>
<path d="M158.7238 92.0548 L158.7238 91.0548 "/>
<path d="M159.2952 92.0548 L158.8667 91.4834 "/>
<path d="M159.2952 91.0548 L158.7238 91.6262 "/>
<path d="M161.0095 91.1024 L160.9143 91.0548 "/>
<path d="M160.9143 91.0548 L160.7714 91.0548 "/>
<path d="M160.7714 91.0548 L160.6286 91.1024 "/>
<path d="M160.6286 91.1024 L160.5333 91.1977 "/>
<path d="M160.5333 91.1977 L160.4857 91.2929 "/>
<path d="M160.4857 91.2929 L160.4381 91.4834 "/>
<path d="M160.4381 91.4834 L160.4381 91.6262 "/>
<path d="M160.4381 91.6262 L160.4857 91.8167 "/>
<path d="M160.4857 91.8167 L160.5333 91.9120 "/>
<path d="M160.5333 91.9120 L160.6286 92.0072 "/>
<path d="M160.6286 92.0072 L160.7714 92.0548 "/>
<path d="M160.7714 92.0548 L160.8667 92.0548 "/>
<path d="M160.8667 92.0548 L161.0095 92.0072 "/>
<path d="M161.0095 92.0072 L161.0571 91.9596 "/>
<path d="M161.0571 91.9596 L161.0571 91.6262 "/>
<path d="M161.0571 91.6262 L160.8667 91.6262 "/>
<path d="M161.4857 92.0548 L161.4857 91.0548 "/>
<path d="M161.4857 91.0548 L162.0571 92.0548 "/>
<path d="M162.0571 92.0548 L162.0571 91.0548 "/>
<path d="M162.5333 92.0548 L162.5333 91.0548 "/>
<path d="M162.5333 91.0548 L162.7714 91.0548 "/>
<path d="M162.7714 91.0548 L162.9143 91.1024 "/>
<path d="M162.9143 91.1024 L163.0095 91.1977 "/>
<path d="M163.0095 91.1977 L163.0571 91.2929 "/>
<path d="M163.0571 91.2929 L163.1048 91.4834 "/>
<path d="M163.1048 91.4834 L163.1048 91.6262 "/>
<path d="M163.1048 91.6262 L163.0571 91.8167 "/>
<path d="M163.0571 91.8167 L163.0095 91.9120 "/>
<path d="M163.0095 91.9120 L162.9143 92.0072 "/>
<path d="M162.9143 92.0072 L162.7714 92.0548 "/>
<path d="M162.7714 92.0548 L162.5333 92.0548 "/>
<path d="M164.2476 91.7691 L164.7238 91.7691 "/>
<path d="M164.1524 92.0548 L164.4857 91.0548 "/>
<path d="M164.4857 91.0548 L164.8190 92.0548 "/>
</g><g transform="rotate(-90.000000 156.8040 87.2740)">
<text x="156.8040" y="87.7740" textLength="1.8893" font-size="1.3333" lengthAdjust="spacingAndGlyphs" text-anchor="middle" opacity="0">J1</text>
</g>
<g class="stroked-text"><desc>J1</desc>
<path d="M156.2588 87.6073 L156.9731 87.6073 "/>
<path d="M156.9731 87.6073 L157.1160 87.6550 "/>
<path d="M157.1160 87.6550 L157.2112 87.7502 "/>
<path d="M157.2112 87.7502 L157.2588 87.8930 "/>
<path d="M157.2588 87.8930 L157.2588 87.9883 "/>
<path d="M157.2588 86.6073 L157.2588 87.1788 "/>
<path d="M157.2588 86.8930 L156.2588 86.8930 "/>
<path d="M156.2588 86.8930 L156.4017 86.9883 "/>
<path d="M156.4017 86.9883 L156.4969 87.0835 "/>
<path d="M156.4969 87.0835 L156.5445 87.1788 "/>
</g></g>
<g style="fill-opacity: 0.0;stroke-width: 0.1200;stroke-opacity: 1;stroke-linecap: round;stroke-linejoin: round">
<path d="M165.5440 88.6040 L165.5440 85.9440 "/>
<path d="M159.8940 88.6040 L163.4540 88.6040 "/>
<path d="M157.8040 88.6040 L157.8040 85.9440 "/>
<path d="M157.8040 88.6040 L158.3740 88.6040 "/>
<path d="M162.4340 85.9440 L165.5440 85.9440 "/>
<path d="M164.9740 85.9440 L165.5440 85.9440 "/>
<path d="M158.3740 88.6040 L158.3740 90.1240 "/>
<path d="M157.8040 85.9440 L160.9140 85.9440 "/>
</g> 
</g><g id="substrate-outline" style="fill:#000000; stroke:#000000; stroke-width: 0.15"><g style="fill-opacity: 0.0;stroke-opacity: 1;stroke-linecap: round;stroke-linejoin: round">
<path d="M144.7840 132.1060 L205.2360 132.1060 "/>
<path d="M144.7840 71.6540 L205.2360 71.6540 "/>
<path d="M205.2360 71.6540 L205.2360 132.1060 "/>
<path d="M144.7840 132.1060 L144.7840 71.6540 "/>
</g> 
<path d="M -1.5 0.0 A 1.5 1.5 0 1 1 1.5 0.0 L 1.5 -0.0 A 1.5 1.5 0 1 1 -1.5 -0.0 Z" transform="translate(149.61 76.48) rotate(-0.0)"/><path d="M -1.5 0.0 A 1.5 1.5 0 1 1 1.5 0.0 L 1.5 -0.0 A 1.5 1.5 0 1 1 -1.5 -0.0 Z" transform="translate(190.25 76.48) rotate(-0.0)"/><path d="M -1.5 0.0 A 1.5 1.5 0 1 1 1.5 0.0 L 1.5 -0.0 A 1.5 1.5 0 1 1 -1.5 -0.0 Z" transform="translate(149.61 96.8) rotate(-0.0)"/><path d="M -0.2 0.0 A 0.2 0.2 0 1 1 0.2 0.0 L 0.2 -0.0 A 0.2 0.2 0 1 1 -0.2 -0.0 Z" transform="translate(167.65 91.8) rotate(-0.0)"/><path d="M -0.2 0.0 A 0.2 0.2 0 1 1 0.2 0.0 L 0.2 -0.0 A 0.2 0.2 0 1 1 -0.2 -0.0 Z" transform="translate(146.9 83.2) rotate(-0.0)"/><path d="M -0.2 0.0 A 0.2 0.2 0 1 1 0.2 0.0 L 0.2 -0.0 A 0.2 0.2 0 1 1 -0.2 -0.0 Z" transform="translate(153.0 87.1) rotate(-0.0)"/></g></g><g id="substrate-paste" style="fill:#8a8a8a; stroke:#8a8a8a;"><g style="fill-opacity: 0.0;stroke-width: 0.0000;stroke-opacity: 1;stroke-linecap: round;stroke-linejoin: round">
<g style="fill-opacity: 1.0000;stroke-width: 0.0000;stroke-opacity: 1;stroke-linecap: round;stroke-linejoin: round">
<path style="fill-opacity: 1.0000;stroke-width: 0.0000;stroke-opacity: 1;stroke-linecap: round;stroke-linejoin: round;fill-rule: evenodd" d="M 159.6340,90.1840 158.6340,90.1840 158.6340,87.6740 159.6340,87.6740 Z"/> 
<path style="fill-opacity: 1.0000;stroke-width: 0.0000;stroke-opacity: 1;stroke-linecap: round;stroke-linejoin: round;fill-rule: evenodd" d="M 162.1740,86.8740 161.1740,86.8740 161.1740,84.3640 162.1740,84.3640 Z"/> 
<path style="fill-opacity: 1.0000;stroke-width: 0.0000;stroke-opacity: 1;stroke-linecap: round;stroke-linejoin: round;fill-rule: evenodd" d="M 164.7140,90.1840 163.7140,90.1840 163.7140,87.6740 164.7140,87.6740 Z"/> 
</g>
</g> 
</g></g><g transform="" id="componentContainer"><!--Mlab_Mechanical:MountingHole_3mm:M3--><g transform="translate(149.61 76.48) scale(1.0, 1.0) rotate(-0.0) translate(-0.75 -0.75)"><g id="pref_12_Mlab_Mechanical__MountingHole_3mm_HOLE"><defs xmlns:xlink="http://www.w3.org/1999/xlink" id="pref_13defs13">
    <linearGradient id="pref_13linearGradient13300">
      <stop style="stop-color:#e5e5e5;stop-opacity:1;" offset="0" id="pref_13stop13298"/>
    </linearGradient>
    <linearGradient id="pref_13linearGradient10336">
      <stop style="stop-color:#cfcfcf;stop-opacity:1" offset="0" id="pref_13stop10332"/>
      <stop style="stop-color:#cdcdcd;stop-opacity:0" offset="1" id="pref_13stop10334"/>
    </linearGradient>
    <linearGradient id="pref_13linearGradient9067">
      <stop style="stop-color:#d3d3d3;stop-opacity:1;" offset="0" id="pref_13stop9051"/>
      <stop style="stop-color:#c8c8c8;stop-opacity:1;" offset="0.1656336" id="pref_13stop9053"/>
      <stop style="stop-color:#d8d8d8;stop-opacity:0.52030832" offset="0.29162589" id="pref_13stop9055"/>
      <stop style="stop-color:#c6c6c6;stop-opacity:0.51711833" offset="0.38067153" id="pref_13stop9057"/>
      <stop style="stop-color:#bbbbbb;stop-opacity:0.45933419" offset="0.51505035" id="pref_13stop9059"/>
      <stop style="stop-color:#8e8e8e;stop-opacity:0.47450981" offset="0.5970481" id="pref_13stop9061"/>
      <stop style="stop-color:#656565;stop-opacity:0.56470591" offset="0.7681157" id="pref_13stop9063"/>
      <stop style="stop-color:#606060;stop-opacity:0.28235294;" offset="0.95913506" id="pref_13stop9743"/>
      <stop style="stop-color:#b5b5b5;stop-opacity:0.21568628" offset="1" id="pref_13stop9065"/>
    </linearGradient>
    <linearGradient id="pref_13linearGradient3692">
      <stop style="stop-color:#e4e4e4;stop-opacity:1" offset="0" id="pref_13stop6926"/>
      <stop style="stop-color:#e5e5e5;stop-opacity:1" offset="0.1656336" id="pref_13stop6928"/>
      <stop style="stop-color:#f5f5f5;stop-opacity:1" offset="0.29162589" id="pref_13stop6930"/>
      <stop style="stop-color:#c6c6c6;stop-opacity:1;" offset="0.38067153" id="pref_13stop6932"/>
      <stop style="stop-color:#dddddd;stop-opacity:1" offset="0.57577699" id="pref_13stop6934"/>
      <stop style="stop-color:#f2f2f2;stop-opacity:1" offset="0.66836077" id="pref_13stop6936"/>
      <stop style="stop-color:#ebebeb;stop-opacity:1" offset="0.79280978" id="pref_13stop6938"/>
      <stop style="stop-color:#efefef;stop-opacity:1" offset="1" id="pref_13stop6940"/>
    </linearGradient>
    <linearGradient id="pref_13linearGradient5758">
      <stop style="stop-color:#f6f6f6;stop-opacity:0.89019608" offset="0" id="pref_13stop5754"/>
      <stop style="stop-color:#646464;stop-opacity:0.9921568" offset="1" id="pref_13stop5756"/>
    </linearGradient>
    <linearGradient id="pref_13linearGradient3692-7">
      <stop style="stop-color:#d3d3d3;stop-opacity:1;" offset="0" id="pref_13stop3688"/>
      <stop style="stop-color:#c8c8c8;stop-opacity:1;" offset="0.1656336" id="pref_13stop4378"/>
      <stop style="stop-color:#ededed;stop-opacity:1" offset="0.29162589" id="pref_13stop4444"/>
      <stop style="stop-color:#c6c6c6;stop-opacity:1;" offset="0.38067153" id="pref_13stop4376"/>
      <stop style="stop-color:#dbdbdb;stop-opacity:1" offset="0.57577699" id="pref_13stop4308"/>
      <stop style="stop-color:#c8c8c8;stop-opacity:1" offset="0.66836077" id="pref_13stop4242"/>
      <stop style="stop-color:#b8b8b8;stop-opacity:1;" offset="0.79280978" id="pref_13stop4310"/>
      <stop style="stop-color:#aeaeae;stop-opacity:1" offset="1" id="pref_13stop3690"/>
    </linearGradient>
    <linearGradient id="pref_13linearGradient3156">
      <stop style="stop-color:#d3d3d3;stop-opacity:1;" offset="0" id="pref_13stop3152"/>
      <stop style="stop-color:#d3d3d3;stop-opacity:0.89019608;" offset="0.93029171" id="pref_13stop3290"/>
      <stop style="stop-color:#757575;stop-opacity:1" offset="1" id="pref_13stop3154"/>
    </linearGradient>
    <radialGradient xlink:href="#pref_13linearGradient3156" id="pref_13radialGradient3160" cx="0.75" cy="0.75" fx="0.75" fy="0.75" r="2.75" gradientUnits="userSpaceOnUse" gradientTransform="matrix(0.96363636,0,0,0.96363636,0.02727275,0.02727275)"/>
    <linearGradient xlink:href="#pref_13linearGradient3692-7" id="pref_13linearGradient3694" x1="-0.69187778" y1="-1.1810942" x2="2.8737183" y2="2.1900826" gradientUnits="userSpaceOnUse" gradientTransform="matrix(0.92592591,0,0,0.92592591,0.05555555,0.05555555)"/>
    <linearGradient xlink:href="#pref_13linearGradient5758" id="pref_13linearGradient5760" x1="-15.456677" y1="-15.474042" x2="-4.6413889" y2="-6.7602329" gradientUnits="userSpaceOnUse"/>
    <linearGradient xlink:href="#pref_13linearGradient3692" id="pref_13linearGradient6924" gradientUnits="userSpaceOnUse" x1="1.4987922" y1="4.3924975" x2="-1.0811033" y2="-3.0084407"/>
    <radialGradient xlink:href="#pref_13linearGradient9067" id="pref_13radialGradient8763" cx="0.75" cy="0.75" fx="0.75" fy="0.75" r="2.5" gradientUnits="userSpaceOnUse"/>
    <radialGradient xlink:href="#pref_13linearGradient10336" id="pref_13radialGradient10338" cx="-9.3072596" cy="-12.247526" fx="-9.3072596" fy="-12.247526" r="5.7490053" gradientTransform="matrix(0.25618062,-0.83918687,0.82829029,0.2528542,1.5718983,-16.37084)" gradientUnits="userSpaceOnUse"/>
  </defs>
  <circle style="opacity:1;fill:url(#pref_13linearGradient6924);fill-opacity:1;stroke:#cecece;stroke-width:0.05;stroke-miterlimit:4;stroke-dasharray:none;stroke-opacity:1" id="pref_13path6642" cx="0.75" cy="0.75" r="3.5"/>
  <circle style="fill:url(#pref_13radialGradient3160);fill-opacity:1;stroke-width:0.0358194" id="pref_13path1030-6" cx="0.75" cy="0.75" r="2.6500001"/>
  <circle style="opacity:1;fill:url(#pref_13linearGradient3694);fill-opacity:1;stroke-width:0.033792" id="pref_13path1030" cx="0.75" cy="0.75" r="2.5"/>
  <circle style="fill:url(#pref_13radialGradient8763);fill-opacity:1;stroke-width:0.034;stroke-miterlimit:4;stroke-dasharray:none" id="pref_13path1030-7" cx="0.75" cy="0.75" r="2.5"/>
  <path xmlns:sodipodi="http://sodipodi.sourceforge.net/DTD/sodipodi-0.dtd" sodipodi:type="star" style="opacity:1;fill:#b6b6b6;fill-opacity:1;stroke:url(#pref_13linearGradient5760);stroke-width:0.398303;stroke-miterlimit:4;stroke-dasharray:none;stroke-opacity:1" id="pref_13path1288-3" sodipodi:sides="6" sodipodi:cx="-9.9017067" sodipodi:cy="-10.789671" sodipodi:r1="5.7490053" sodipodi:r2="4.9787846" sodipodi:arg1="1.0471976" sodipodi:arg2="1.5707963" transform="matrix(0.24392497,0.05945068,-0.05945068,0.24392497,2.5238203,3.9705334)" d="m -7.0272043,-5.8108862 -5.7490057,-2e-7 -2.874502,-4.9787846 2.874503,-4.978785 5.7490052,1e-6 2.8745024,4.978784 z"/>
  <path xmlns:sodipodi="http://sodipodi.sourceforge.net/DTD/sodipodi-0.dtd" sodipodi:type="star" style="opacity:1;fill:url(#pref_13radialGradient10338);fill-opacity:1;stroke:none;stroke-width:0.398303;stroke-miterlimit:4;stroke-dasharray:none;stroke-opacity:1" id="pref_13path1288-3-6" sodipodi:sides="6" sodipodi:cx="-9.9017067" sodipodi:cy="-10.789671" sodipodi:r1="5.7490053" sodipodi:r2="4.9787846" sodipodi:arg1="1.0471976" sodipodi:arg2="1.5707963" transform="matrix(0.24487282,0.0596817,-0.0596817,0.24487282,2.5307131,3.9830479)" d="m -7.0272043,-5.8108862 -5.7490057,-2e-7 -2.874502,-4.9787846 2.874503,-4.978785 5.7490052,1e-6 2.8745024,4.978784 z"/>
</g></g><!--Mlab_Mechanical:MountingHole_3mm:M2--><g transform="translate(190.25 76.48) scale(1.0, 1.0) rotate(-0.0) translate(-0.75 -0.75)"><use xmlns:xlink="http://www.w3.org/1999/xlink" xlink:href="#pref_12_Mlab_Mechanical__MountingHole_3mm_HOLE"/></g><!--Mlab_Mechanical:MountingHole_3mm:M4--><g transform="translate(149.61 96.8) scale(1.0, 1.0) rotate(-0.0) translate(-0.75 -0.75)"><use xmlns:xlink="http://www.w3.org/1999/xlink" xlink:href="#pref_12_Mlab_Mechanical__MountingHole_3mm_HOLE"/></g></g></svg>