<!DOCTYPE svg PUBLIC "-//W3C//DTD SVG 1.1//EN" "http://www.w3.org/Graphics/SVG/1.1/DTD/svg11.dtd">
<svg xmlns="http://www.w3.org/2000/svg" version="1.1" width="70.552mm" height="70.552mm" viewBox="1397340.0 666040.0 705520.0 705520.0">
            <title>Picture generated by PcbDraw </title>
            <desc>Picture generated by PcbDraw</desc>
        <defs><clipPath id="cut-off"><path d=" M 2052360.0 1321060.0 L 2052360.0 716540.0 L 1447840.0 716540.0 L 1447840.0 1321060.0 L 2052360.0 1321060.0 " style="fill-rule: evenodd;"/></clipPath><mask id="pads-mask"><g style="fill:#ffffff; fill-opacity:0.0;  stroke:#ffffff; stroke-width:0.000000; stroke-opacity:1;  stroke-linecap:round; stroke-linejoin:round;">
<g style="fill:#ffffff; fill-opacity:1.0;  stroke:#ffffff; stroke-width:0.010000; stroke-opacity:1;  stroke-linecap:round; stroke-linejoin:round;">
<circle cx="1496100.000000" cy="764800.000000" r="32000.000000"/> 
</g>
<g style="fill:#ffffff; fill-opacity:1.0;  stroke:#ffffff; stroke-width:0.010000; stroke-opacity:1;  stroke-linecap:round; stroke-linejoin:round;">
<circle cx="1902500.000000" cy="764800.000000" r="32000.000000"/> 
</g>
<g style="fill:#ffffff; fill-opacity:1.0;  stroke:#ffffff; stroke-width:0.010000; stroke-opacity:1;  stroke-linecap:round; stroke-linejoin:round;">
<path style="fill:#ffffff; fill-opacity:1.0;  stroke:#ffffff; stroke-width:0.010000; stroke-opacity:1;  stroke-linecap:round; stroke-linejoin:round;fill-rule:evenodd;" d="M 1586340.000000,903840.000000 1585574.630000,903687.760000 1584925.790000,903254.210000 1584492.240000,902605.370000 1584340.000000,901840.000000 1584340.000000,876740.000000 1584492.240000,875974.630000 1584925.790000,875325.790000 1585574.630000,874892.240000 1586340.000000,874740.000000 1596340.000000,874740.000000 1597105.370000,874892.240000 1597754.210000,875325.790000 1598187.760000,875974.630000 1598340.000000,876740.000000 1598340.000000,901840.000000 1598187.760000,902605.370000 1597754.210000,903254.210000 1597105.370000,903687.760000 1596340.000000,903840.000000 Z"/> 
<path style="fill:#ffffff; fill-opacity:1.0;  stroke:#ffffff; stroke-width:0.010000; stroke-opacity:1;  stroke-linecap:round; stroke-linejoin:round;fill-rule:evenodd;" d="M 1611740.000000,870740.000000 1610974.630000,870587.760000 1610325.790000,870154.210000 1609892.240000,869505.370000 1609740.000000,868740.000000 1609740.000000,843640.000000 1609892.240000,842874.630000 1610325.790000,842225.790000 1610974.630000,841792.240000 1611740.000000,841640.000000 1621740.000000,841640.000000 1622505.370000,841792.240000 1623154.210000,842225.790000 1623587.760000,842874.630000 1623740.000000,843640.000000 1623740.000000,868740.000000 1623587.760000,869505.370000 1623154.210000,870154.210000 1622505.370000,870587.760000 1621740.000000,870740.000000 Z"/> 
<path style="fill:#ffffff; fill-opacity:1.0;  stroke:#ffffff; stroke-width:0.010000; stroke-opacity:1;  stroke-linecap:round; stroke-linejoin:round;fill-rule:evenodd;" d="M 1637140.000000,903840.000000 1636374.630000,903687.760000 1635725.790000,903254.210000 1635292.240000,902605.370000 1635140.000000,901840.000000 1635140.000000,876740.000000 1635292.240000,875974.630000 1635725.790000,875325.790000 1636374.630000,874892.240000 1637140.000000,874740.000000 1647140.000000,874740.000000 1647905.370000,874892.240000 1648554.210000,875325.790000 1648987.760000,875974.630000 1649140.000000,876740.000000 1649140.000000,901840.000000 1648987.760000,902605.370000 1648554.210000,903254.210000 1647905.370000,903687.760000 1647140.000000,903840.000000 Z"/> 
</g>
<g style="fill:#ffffff; fill-opacity:1.0;  stroke:#ffffff; stroke-width:0.010000; stroke-opacity:1;  stroke-linecap:round; stroke-linejoin:round;">
<circle cx="1496100.000000" cy="968000.000000" r="32000.000000"/> 
</g>
</g> 
</mask><mask id="pads-mask-silkscreen"><rect x="1447340.0" y="716040.0" width="605520.0" height="605520.0" fill="white"/><g style="fill:#000000; fill-opacity:0.0;  stroke:#000000; stroke-width:0.000000; stroke-opacity:1;  stroke-linecap:round; stroke-linejoin:round;">
<g style="fill:#000000; fill-opacity:1.0;  stroke:#000000; stroke-width:0.010000; stroke-opacity:1;  stroke-linecap:round; stroke-linejoin:round;">
<circle cx="1496100.000000" cy="764800.000000" r="32000.000000"/> 
</g>
<g style="fill:#000000; fill-opacity:1.0;  stroke:#000000; stroke-width:0.010000; stroke-opacity:1;  stroke-linecap:round; stroke-linejoin:round;">
<circle cx="1902500.000000" cy="764800.000000" r="32000.000000"/> 
</g>
<g style="fill:#000000; fill-opacity:1.0;  stroke:#000000; stroke-width:0.010000; stroke-opacity:1;  stroke-linecap:round; stroke-linejoin:round;">
<path style="fill:#000000; fill-opacity:1.0;  stroke:#000000; stroke-width:0.010000; stroke-opacity:1;  stroke-linecap:round; stroke-linejoin:round;fill-rule:evenodd;" d="M 1586340.000000,903840.000000 1585574.630000,903687.760000 1584925.790000,903254.210000 1584492.240000,902605.370000 1584340.000000,901840.000000 1584340.000000,876740.000000 1584492.240000,875974.630000 1584925.790000,875325.790000 1585574.630000,874892.240000 1586340.000000,874740.000000 1596340.000000,874740.000000 1597105.370000,874892.240000 1597754.210000,875325.790000 1598187.760000,875974.630000 1598340.000000,876740.000000 1598340.000000,901840.000000 1598187.760000,902605.370000 1597754.210000,903254.210000 1597105.370000,903687.760000 1596340.000000,903840.000000 Z"/> 
<path style="fill:#000000; fill-opacity:1.0;  stroke:#000000; stroke-width:0.010000; stroke-opacity:1;  stroke-linecap:round; stroke-linejoin:round;fill-rule:evenodd;" d="M 1611740.000000,870740.000000 1610974.630000,870587.760000 1610325.790000,870154.210000 1609892.240000,869505.370000 1609740.000000,868740.000000 1609740.000000,843640.000000 1609892.240000,842874.630000 1610325.790000,842225.790000 1610974.630000,841792.240000 1611740.000000,841640.000000 1621740.000000,841640.000000 1622505.370000,841792.240000 1623154.210000,842225.790000 1623587.760000,842874.630000 1623740.000000,843640.000000 1623740.000000,868740.000000 1623587.760000,869505.370000 1623154.210000,870154.210000 1622505.370000,870587.760000 1621740.000000,870740.000000 Z"/> 
<path style="fill:#000000; fill-opacity:1.0;  stroke:#000000; stroke-width:0.010000; stroke-opacity:1;  stroke-linecap:round; stroke-linejoin:round;fill-rule:evenodd;" d="M 1637140.000000,903840.000000 1636374.630000,903687.760000 1635725.790000,903254.210000 1635292.240000,902605.370000 1635140.000000,901840.000000 1635140.000000,876740.000000 1635292.240000,875974.630000 1635725.790000,875325.790000 1636374.630000,874892.240000 1637140.000000,874740.000000 1647140.000000,874740.000000 1647905.370000,874892.240000 1648554.210000,875325.790000 1648987.760000,875974.630000 1649140.000000,876740.000000 1649140.000000,901840.000000 1648987.760000,902605.370000 1648554.210000,903254.210000 1647905.370000,903687.760000 1647140.000000,903840.000000 Z"/> 
</g>
<g style="fill:#000000; fill-opacity:1.0;  stroke:#000000; stroke-width:0.010000; stroke-opacity:1;  stroke-linecap:round; stroke-linejoin:round;">
<circle cx="1496100.000000" cy="968000.000000" r="32000.000000"/> 
</g>
</g> 
</mask><mask id="hole-mask"><g><rect x="1447340.0" y="716040.0" fill="white" width="605520.0" height="605520.0"/><polyline stroke-linecap="round" stroke="black" stroke-width="30000.0" points="-0.0 0 0.0 0" transform="translate(1496100.0 764800.0) rotate(-0.0)"/><polyline stroke-linecap="round" stroke="black" stroke-width="30000.0" points="-0.0 0 0.0 0" transform="translate(1902500.0 764800.0) rotate(-0.0)"/><polyline stroke-linecap="round" stroke="black" stroke-width="30000.0" points="-0.0 0 0.0 0" transform="translate(1496100.0 968000.0) rotate(-0.0)"/><polyline stroke-linecap="round" stroke="black" stroke-width="4000.0" points="-0.0 0 0.0 0" transform="translate(1676500.0 918000.0) rotate(0)"/><polyline stroke-linecap="round" stroke="black" stroke-width="4000.0" points="-0.0 0 0.0 0" transform="translate(1469000.0 832000.0) rotate(0)"/><polyline stroke-linecap="round" stroke="black" stroke-width="4000.0" points="-0.0 0 0.0 0" transform="translate(1530000.0 871000.0) rotate(0)"/></g></mask></defs><g transform="" id="boardContainer"><g id="substrate" clip-path="url(#cut-off)" mask="url(#hole-mask)"><g id="substrate-board" style="fill:#f1f4f3; stroke:#f1f4f3;"><path d=" M 2052360.0 1321060.0 L 2052360.0 716540.0 L 1447840.0 716540.0 L 1447840.0 1321060.0 L 2052360.0 1321060.0 " style="fill-rule: evenodd;"/><g style="fill-opacity: 0.0;stroke-width: 1000.000000;stroke-opacity: 1;stroke-linecap: round;stroke-linejoin: round">
<path d="M1447840 1321060 L2052360 1321060 "/>
<path d="M1447840 716540 L2052360 716540 "/>
<path d="M2052360 716540 L2052360 1321060 "/>
<path d="M1447840 1321060 L1447840 716540 "/>
</g> 
</g><g id="substrate-clad" style="fill:#72786c; stroke:#72786c;"><g style="fill-opacity: 0.0;stroke-width: 0.000000;stroke-opacity: 1;stroke-linecap: round;stroke-linejoin: round">
<g style="fill-opacity: 1.0;stroke-width: 0.010000;stroke-opacity: 1;stroke-linecap: round;stroke-linejoin: round">
<circle cx="1496100.000000" cy="764800.000000" r="32000.000000"/> 
</g>
<g style="fill-opacity: 1.0;stroke-width: 0.010000;stroke-opacity: 1;stroke-linecap: round;stroke-linejoin: round">
<circle cx="1902500.000000" cy="764800.000000" r="32000.000000"/> 
</g>
<g style="fill-opacity: 1.0;stroke-width: 0.010000;stroke-opacity: 1;stroke-linecap: round;stroke-linejoin: round">
<path style="fill-opacity: 1.0;stroke-width: 0.010000;stroke-opacity: 1;stroke-linecap: round;stroke-linejoin: round;fill-rule: evenodd" d="M 1586340.000000,903840.000000 1585574.630000,903687.760000 1584925.790000,903254.210000 1584492.240000,902605.370000 1584340.000000,901840.000000 1584340.000000,876740.000000 1584492.240000,875974.630000 1584925.790000,875325.790000 1585574.630000,874892.240000 1586340.000000,874740.000000 1596340.000000,874740.000000 1597105.370000,874892.240000 1597754.210000,875325.790000 1598187.760000,875974.630000 1598340.000000,876740.000000 1598340.000000,901840.000000 1598187.760000,902605.370000 1597754.210000,903254.210000 1597105.370000,903687.760000 1596340.000000,903840.000000 Z"/> 
<path style="fill-opacity: 1.0;stroke-width: 0.010000;stroke-opacity: 1;stroke-linecap: round;stroke-linejoin: round;fill-rule: evenodd" d="M 1611740.000000,870740.000000 1610974.630000,870587.760000 1610325.790000,870154.210000 1609892.240000,869505.370000 1609740.000000,868740.000000 1609740.000000,843640.000000 1609892.240000,842874.630000 1610325.790000,842225.790000 1610974.630000,841792.240000 1611740.000000,841640.000000 1621740.000000,841640.000000 1622505.370000,841792.240000 1623154.210000,842225.790000 1623587.760000,842874.630000 1623740.000000,843640.000000 1623740.000000,868740.000000 1623587.760000,869505.370000 1623154.210000,870154.210000 1622505.370000,870587.760000 1621740.000000,870740.000000 Z"/> 
<path style="fill-opacity: 1.0;stroke-width: 0.010000;stroke-opacity: 1;stroke-linecap: round;stroke-linejoin: round;fill-rule: evenodd" d="M 1637140.000000,903840.000000 1636374.630000,903687.760000 1635725.790000,903254.210000 1635292.240000,902605.370000 1635140.000000,901840.000000 1635140.000000,876740.000000 1635292.240000,875974.630000 1635725.790000,875325.790000 1636374.630000,874892.240000 1637140.000000,874740.000000 1647140.000000,874740.000000 1647905.370000,874892.240000 1648554.210000,875325.790000 1648987.760000,875974.630000 1649140.000000,876740.000000 1649140.000000,901840.000000 1648987.760000,902605.370000 1648554.210000,903254.210000 1647905.370000,903687.760000 1647140.000000,903840.000000 Z"/> 
</g>
<g style="fill-opacity: 1.0;stroke-width: 0.010000;stroke-opacity: 1;stroke-linecap: round;stroke-linejoin: round">
<circle cx="1496100.000000" cy="968000.000000" r="32000.000000"/> 
</g>
</g> 
</g><g id="substrate-copper" style="fill:#f8f8f7; stroke:#f8f8f7;"><g style="fill-opacity: 0.0;stroke-width: 3000.000000;stroke-opacity: 1;stroke-linecap: round;stroke-linejoin: round">
<text x="1492000.000000" y="1310500.000000" textLength="59092.860000" font-size="20000.000000" lengthAdjust="spacingAndGlyphs" text-anchor="middle" opacity="0">MLAB</text>
<g class="stroked-text"><desc>MLAB</desc>
<path d="M1467000 1309785 L1467000 1294785 L1472000 1305500 L1477000 1294785 L1477000 1309785 "/>
<path d="M1491285 1309785 L1484142 1309785 L1484142 1294785 "/>
<path d="M1495571 1305500 L1502714 1305500 "/>
<path d="M1494142 1309785 L1499142 1294785 L1504142 1309785 "/>
<path d="M1514142 1301928 L1516285 1302642 L1517000 1303357 L1517714 1304785 L1517714 1306928 L1517000 1308357 L1516285 1309071 L1514857 1309785 L1509142 1309785 L1509142 1294785 L1514142 1294785 L1515571 1295500 L1516285 1296214 L1517000 1297642 L1517000 1299071 L1516285 1300500 L1515571 1301214 L1514142 1301928 L1509142 1301928 "/>
</g><g style="fill-opacity: 1.0;stroke-width: 0.010000;stroke-opacity: 1;stroke-linecap: round;stroke-linejoin: round">
<circle cx="1496100.000000" cy="764800.000000" r="30000.000000"/> 
</g>
<g style="fill-opacity: 1.0;stroke-width: 0.010000;stroke-opacity: 1;stroke-linecap: round;stroke-linejoin: round">
<circle cx="1902500.000000" cy="764800.000000" r="30000.000000"/> 
</g>
<g style="fill-opacity: 1.0;stroke-width: 0.010000;stroke-opacity: 1;stroke-linecap: round;stroke-linejoin: round">
<path style="fill-opacity: 1.0;stroke-width: 0.010000;stroke-opacity: 1;stroke-linecap: round;stroke-linejoin: round;fill-rule: evenodd" d="M 1596340.000000,901840.000000 1586340.000000,901840.000000 1586340.000000,876740.000000 1596340.000000,876740.000000 Z"/> 
<path style="fill-opacity: 1.0;stroke-width: 0.010000;stroke-opacity: 1;stroke-linecap: round;stroke-linejoin: round;fill-rule: evenodd" d="M 1621740.000000,868740.000000 1611740.000000,868740.000000 1611740.000000,843640.000000 1621740.000000,843640.000000 Z"/> 
<path style="fill-opacity: 1.0;stroke-width: 0.010000;stroke-opacity: 1;stroke-linecap: round;stroke-linejoin: round;fill-rule: evenodd" d="M 1647140.000000,901840.000000 1637140.000000,901840.000000 1637140.000000,876740.000000 1647140.000000,876740.000000 Z"/> 
</g>
<g style="fill-opacity: 1.0;stroke-width: 0.010000;stroke-opacity: 1;stroke-linecap: round;stroke-linejoin: round">
<circle cx="1496100.000000" cy="968000.000000" r="30000.000000"/> 
</g>
<g style="fill-opacity: 1.0;stroke-width: 0.010000;stroke-opacity: 1;stroke-linecap: round;stroke-linejoin: round">
<circle cx="1676500.000000" cy="918000.000000" r="4000.000000"/> 
</g>
<g style="fill-opacity: 1.0;stroke-width: 0.010000;stroke-opacity: 1;stroke-linecap: round;stroke-linejoin: round">
<circle cx="1469000.000000" cy="832000.000000" r="4000.000000"/> 
</g>
<g style="fill-opacity: 1.0;stroke-width: 0.010000;stroke-opacity: 1;stroke-linecap: round;stroke-linejoin: round">
<circle cx="1530000.000000" cy="871000.000000" r="4000.000000"/> 
</g>
<g style="fill-opacity: 0.0;stroke-width: 4000.000000;stroke-opacity: 1;stroke-linecap: round;stroke-linejoin: round">
<path d="M1676500 918000 L1604500 918000 "/>
<path d="M1604500 918000 L1591340 904840 "/>
<path d="M1591340 889290 L1589050 887000 "/>
<path d="M1591340 904840 L1591340 889290 "/>
<path d="M1530000 871000 L1530000 843000 "/>
<path d="M1551500 821500 L1622000 821500 "/>
<path d="M1642140 841640 L1642140 889290 "/>
<path d="M1622000 821500 L1642140 841640 "/>
<path d="M1530000 843000 L1551500 821500 "/>
</g>
<g style="fill-opacity: 0.0;stroke-width: 4000.000000;stroke-opacity: 1;stroke-linecap: round;stroke-linejoin: round">
<g style="fill-opacity: 1.0;stroke-width: 0.010000;stroke-opacity: 1;stroke-linecap: round;stroke-linejoin: round">
<path style="fill-opacity: 1.0;stroke-width: 0.010000;stroke-opacity: 1;stroke-linecap: round;stroke-linejoin: round;fill-rule: evenodd" d="M 2047228.430000,720742.070000 2047920.840000,721294.260000 2048305.110000,722092.180000 2048355.000000,722535.000000 2048355.000000,1315065.000000 2048157.930000,1315928.430000 2047605.740000,1316620.840000 2046807.820000,1317005.110000 2046365.000000,1317055.000000 1528066.430000,1317055.000000 1527203.000000,1316857.930000 1526510.590000,1316305.740000 1526126.320000,1315507.820000 1526076.430000,1315065.000000 1526076.430000,1284670.000000 1457923.570000,1284670.000000 1457923.570000,1315065.000000 1457726.500000,1315928.430000 1457174.310000,1316620.840000 1456376.390000,1317005.110000 1455933.570000,1317055.000000 1453835.000000,1317055.000000 1452971.570000,1316857.930000 1452279.160000,1316305.740000 1451894.890000,1315507.820000 1451845.000000,1315065.000000 1451845.000000,870887.530000 1521945.140000,870887.530000 1521956.000000,870998.290000 1521956.000000,870998.300000 1521972.100000,871162.440000 1522120.390000,872674.860000 1522687.260000,874378.960000 1523617.590000,875915.120000 1524865.140000,877206.990000 1526367.890000,878190.360000 1526472.140000,878229.130000 1527946.850000,878777.570000 1527946.870000,878777.570000 1528051.160000,878816.360000 1528161.430000,878831.070000 1528161.460000,878831.080000 1529344.860000,878988.980000 1529831.300000,879053.880000 1529942.070000,879043.800000 1531508.960000,878901.210000 1531508.980000,878901.210000 1531619.810000,878891.120000 1532473.810000,878613.640000 1533221.960000,878370.550000 1533221.990000,878370.540000 1533327.820000,878336.150000 1533572.390000,878190.360000 1534774.890000,877473.530000 1534774.900000,877473.520000 1534870.440000,877416.570000 1535829.730000,876503.050000 1535911.890000,876424.810000 1582335.000000,876424.810000 1582335.010000,902155.180000 1582347.230000,902232.310000 1582347.230000,902232.370000 1582459.030000,902938.310000 1582459.040000,902938.340000 1582483.540000,903093.040000 1582554.650000,903232.600000 1582554.660000,903232.630000 1582988.400000,904083.880000 1583059.500000,904223.420000 1583956.580000,905120.500000 1584569.760000,905432.930000 1585249.610000,906000.520000 1585504.830000,906444.490000 1586094.640000,907868.410000 1587057.180000,909122.820000 1587268.750000,909285.170000 1587464.390000,909456.740000 1599883.260000,921875.610000 1600054.830000,922071.250000 1600217.180000,922282.820000 1601041.210000,922915.120000 1601471.590000,923245.360000 1602932.380000,923850.440000 1604500.000000,924056.820000 1604629.280000,924039.800000 1604629.350000,924039.800000 1604764.330000,924022.030000 1605024.080000,924005.000000 1670463.220000,924005.000000 1671326.650000,924202.070000 1671552.870000,924329.840000 1672675.630000,925064.550000 1672867.890000,925190.360000 1672972.140000,925229.130000 1674446.850000,925777.570000 1674446.870000,925777.570000 1674551.160000,925816.360000 1674661.430000,925831.070000 1674661.460000,925831.080000 1675844.860000,925988.980000 1676331.300000,926053.880000 1676442.070000,926043.800000 1678008.960000,925901.210000 1678008.980000,925901.210000 1678119.810000,925891.120000 1678973.810000,925613.640000 1679721.960000,925370.550000 1679721.990000,925370.540000 1679827.820000,925336.150000 1680072.390000,925190.360000 1681274.890000,924473.530000 1681274.900000,924473.520000 1681370.440000,924416.570000 1682670.990000,923178.070000 1682845.700000,922915.120000 1683603.250000,921774.900000 1683664.830000,921682.220000 1684302.570000,920003.360000 1684552.510000,918224.930000 1684555.650000,918000.000000 1684355.460000,916215.280000 1683764.850000,914519.270000 1682813.160000,912996.250000 1681547.700000,911721.930000 1680031.360000,910759.630000 1679141.090000,910442.620000 1678444.360000,910194.520000 1678444.320000,910194.510000 1678339.510000,910157.190000 1678229.040000,910144.020000 1678229.010000,910144.010000 1676666.710000,909957.720000 1676666.690000,909957.720000 1676556.240000,909944.550000 1674770.170000,910132.270000 1674664.820000,910168.130000 1674664.790000,910168.140000 1673880.350000,910435.190000 1673070.070000,910711.030000 1671540.450000,911652.060000 1671529.920000,911634.940000 1670859.940000,911949.410000 1670436.440000,911995.000000 1607811.630000,911995.000000 1606948.200000,911797.930000 1606404.490000,911412.140000 1600506.240000,905513.890000 1600035.050000,904764.010000 1599935.890000,903883.940000 1600085.880000,903384.430000 1600076.960000,903381.530000 1600125.350000,903232.600000 1600196.460000,903093.040000 1600345.000000,902155.190000 1600344.990000,876424.820000 1600332.750000,876347.530000 1600220.970000,875641.690000 1600220.960000,875641.660000 1600196.460000,875486.960000 1599620.500000,874356.580000 1598723.420000,873459.500000 1597593.040000,872883.540000 1596655.190000,872735.000000 1596576.950000,872735.000000 1591336.270000,872735.010000 1586024.820000,872735.010000 1585947.690000,872747.230000 1585947.630000,872747.230000 1585241.690000,872859.030000 1585241.660000,872859.040000 1585086.960000,872883.540000 1584947.400000,872954.650000 1584947.370000,872954.660000 1584248.440000,873310.790000 1583956.580000,873459.500000 1583059.500000,874356.580000 1582483.540000,875486.960000 1582335.000000,876424.810000 1535911.890000,876424.810000 1536090.430000,876254.790000 1536090.440000,876254.770000 1536170.990000,876178.070000 1536345.700000,875915.120000 1537103.250000,874774.900000 1537164.830000,874682.220000 1537235.530000,874496.120000 1537656.310000,873388.400000 1537802.570000,873003.360000 1537822.860000,872859.040000 1537911.660000,872227.120000 1538052.510000,871224.930000 1538055.650000,871000.000000 1538048.690000,870937.940000 1537867.870000,869325.880000 1537867.860000,869325.840000 1537855.460000,869215.280000 1537812.450000,869091.760000 1606440.000000,869091.760000 1606447.200000,869211.300000 1606529.250000,869889.240000 1606591.650000,870134.940000 1607029.220000,871240.150000 1607161.150000,871474.290000 1607875.100000,872414.870000 1608065.130000,872604.900000 1609005.710000,873318.850000 1609239.850000,873450.780000 1610345.060000,873888.350000 1610590.760000,873950.750000 1611268.700000,874032.800000 1611388.240000,874040.000000 1613975.770000,874040.000000 1614165.470000,873996.700000 1614200.000000,873925.000000 1614200.000000,873815.770000 1619280.000000,873815.770000 1619323.300000,874005.470000 1619395.000000,874040.000000 1622091.760000,874040.000000 1622211.300000,874032.800000 1622889.240000,873950.750000 1623134.940000,873888.350000 1624240.150000,873450.780000 1624474.290000,873318.850000 1625414.870000,872604.900000 1625604.900000,872414.870000 1626318.850000,871474.290000 1626450.780000,871240.150000 1626888.350000,870134.940000 1626950.750000,869889.240000 1627032.800000,869211.300000 1627040.000000,869091.760000 1627040.000000,858954.230000 1626996.700000,858764.530000 1626925.000000,858730.000000 1619504.230000,858730.000000 1619314.530000,858773.300000 1619280.000000,858845.000000 1619280.000000,873815.770000 1614200.000000,873815.770000 1614200.000000,858954.230000 1614156.700000,858764.530000 1614085.000000,858730.000000 1606664.230000,858730.000000 1606474.530000,858773.300000 1606440.000000,858845.000000 1606440.000000,869091.760000 1537812.450000,869091.760000 1537780.940000,869001.270000 1537301.450000,867624.370000 1537264.850000,867519.270000 1536313.160000,865996.250000 1536343.200000,865977.480000 1536053.580000,865371.430000 1536005.000000,864934.430000 1536005.000000,853425.770000 1606440.000000,853425.770000 1606483.300000,853615.470000 1606555.000000,853650.000000 1613975.770000,853650.000000 1614165.470000,853606.700000 1614200.000000,853535.000000 1614200.000000,853425.770000 1619280.000000,853425.770000 1619323.300000,853615.470000 1619395.000000,853650.000000 1626815.770000,853650.000000 1627005.470000,853606.700000 1627040.000000,853535.000000 1627040.000000,843288.240000 1627032.800000,843168.700000 1626950.750000,842490.760000 1626888.350000,842245.060000 1626450.780000,841139.850000 1626318.850000,840905.710000 1625604.900000,839965.130000 1625414.870000,839775.100000 1624474.290000,839061.150000 1624240.150000,838929.220000 1623134.940000,838491.650000 1622889.240000,838429.250000 1622211.300000,838347.200000 1622091.760000,838340.000000 1619504.230000,838340.000000 1619314.530000,838383.300000 1619280.000000,838455.000000 1619280.000000,853425.770000 1614200.000000,853425.770000 1614200.000000,838564.230000 1614156.700000,838374.530000 1614085.000000,838340.000000 1611388.240000,838340.000000 1611268.700000,838347.200000 1610590.760000,838429.250000 1610345.060000,838491.650000 1609239.850000,838929.220000 1609005.710000,839061.150000 1608065.130000,839775.100000 1607875.100000,839965.130000 1607161.150000,840905.710000 1607029.220000,841139.850000 1606591.650000,842245.060000 1606529.250000,842490.760000 1606447.200000,843168.700000 1606440.000000,843288.240000 1606440.000000,853425.770000 1536005.000000,853425.770000 1536005.000000,846311.630000 1536202.070000,845448.200000 1536587.860000,844904.490000 1553404.490000,828087.860000 1554154.370000,827616.670000 1554811.630000,827505.000000 1618688.370000,827505.000000 1619551.800000,827702.070000 1620095.510000,828087.860000 1635552.140000,843544.490000 1636023.330000,844294.370000 1636135.000000,844951.630000 1636135.000000,871537.690000 1635937.930000,872401.120000 1635385.740000,873093.530000 1635048.450000,873310.790000 1634756.580000,873459.500000 1633859.500000,874356.580000 1633283.540000,875486.960000 1633135.000000,876424.810000 1633135.010000,902155.180000 1633147.230000,902232.310000 1633147.230000,902232.370000 1633259.030000,902938.310000 1633259.040000,902938.340000 1633283.540000,903093.040000 1633354.650000,903232.600000 1633354.660000,903232.630000 1633788.400000,904083.880000 1633859.500000,904223.420000 1634756.580000,905120.500000 1635886.960000,905696.460000 1636824.810000,905845.000000 1636903.050000,905845.000000 1642143.730000,905844.990000 1647455.180000,905844.990000 1647532.310000,905832.770000 1647532.370000,905832.770000 1648238.310000,905720.970000 1648238.340000,905720.960000 1648393.040000,905696.460000 1648532.600000,905625.350000 1648532.630000,905625.340000 1649383.880000,905191.600000 1649523.420000,905120.500000 1650420.500000,904223.420000 1650996.460000,903093.040000 1651145.000000,902155.190000 1651144.990000,876424.820000 1651132.750000,876347.530000 1651020.970000,875641.690000 1651020.960000,875641.660000 1650996.460000,875486.960000 1650420.500000,874356.580000 1649523.420000,873459.500000 1649231.560000,873310.790000 1648551.710000,872743.210000 1648185.450000,871936.860000 1648145.000000,871537.690000 1648145.000000,842164.080000 1648162.030000,841904.330000 1648179.800000,841769.350000 1648179.800000,841769.280000 1648196.820000,841640.000000 1647990.440000,840072.380000 1647385.360000,838611.590000 1647265.210000,838455.000000 1646664.500000,837672.150000 1646664.470000,837672.110000 1646502.220000,837460.650000 1646502.190000,837460.620000 1646422.820000,837357.180000 1646211.250000,837194.830000 1646015.610000,837023.260000 1626616.740000,817624.390000 1626445.170000,817428.750000 1626282.820000,817217.180000 1625028.410000,816254.640000 1623688.140000,815699.480000 1623688.100000,815699.460000 1623567.620000,815649.560000 1622393.610000,815495.000000 1622129.280000,815460.200000 1622000.000000,815443.180000 1621870.720000,815460.200000 1621870.650000,815460.200000 1621735.670000,815477.970000 1621475.920000,815495.000000 1552024.080000,815495.000000 1551764.330000,815477.970000 1551629.350000,815460.200000 1551629.280000,815460.200000 1551500.000000,815443.180000 1551370.720000,815460.200000 1551106.390000,815495.000000 1549932.380000,815649.560000 1548471.590000,816254.640000 1547217.180000,817217.180000 1547054.830000,817428.750000 1546883.260000,817624.390000 1526124.390000,838383.260000 1525928.750000,838554.830000 1525717.180000,838717.180000 1525637.810000,838820.620000 1525637.780000,838820.650000 1525554.480000,838929.220000 1525475.500000,839032.150000 1524754.640000,839971.590000 1524149.560000,841432.380000 1523943.180000,843000.000000 1523960.200000,843129.280000 1523960.200000,843129.350000 1523977.970000,843264.330000 1523995.000000,843524.080000 1523995.000000,864954.090000 1523797.930000,865817.520000 1523677.730000,866032.080000 1522784.460000,867418.170000 1522170.220000,869105.780000 1522156.280000,869216.110000 1522156.280000,869216.120000 1522088.500000,869752.690000 1521945.140000,870887.530000 1451845.000000,870887.530000 1451845.000000,722535.000000 1452042.070000,721671.570000 1452594.260000,720979.160000 1453392.180000,720594.890000 1453835.000000,720545.000000 2046365.000000,720545.000000 Z"/> 
</g>
</g>
</g> 
</g><g id="substrate-pads" style="fill:#c4c1ba; stroke:#c4c1ba;" mask="url(#pads-mask)"><g style="fill-opacity: 0.0;stroke-width: 3000.000000;stroke-opacity: 1;stroke-linecap: round;stroke-linejoin: round">
<text x="1492000.000000" y="1310500.000000" textLength="61042.860000" font-size="20000.000000" lengthAdjust="spacingAndGlyphs" text-anchor="middle" opacity="0">MLAB</text>
<g class="stroked-text"><desc>MLAB</desc>
<path d="M1467000 1309785 L1467000 1294785 L1472000 1305500 L1477000 1294785 L1477000 1309785 "/>
<path d="M1491285 1309785 L1484142 1309785 L1484142 1294785 "/>
<path d="M1495571 1305500 L1502714 1305500 "/>
<path d="M1494142 1309785 L1499142 1294785 L1504142 1309785 "/>
<path d="M1514142 1301928 L1516285 1302642 L1517000 1303357 L1517714 1304785 L1517714 1306928 L1517000 1308357 L1516285 1309071 L1514857 1309785 L1509142 1309785 L1509142 1294785 L1514142 1294785 L1515571 1295500 L1516285 1296214 L1517000 1297642 L1517000 1299071 L1516285 1300500 L1515571 1301214 L1514142 1301928 L1509142 1301928 "/>
</g><g style="fill-opacity: 1.0;stroke-width: 0.010000;stroke-opacity: 1;stroke-linecap: round;stroke-linejoin: round">
<circle cx="1496100.000000" cy="764800.000000" r="30000.000000"/> 
</g>
<g style="fill-opacity: 1.0;stroke-width: 0.010000;stroke-opacity: 1;stroke-linecap: round;stroke-linejoin: round">
<circle cx="1902500.000000" cy="764800.000000" r="30000.000000"/> 
</g>
<g style="fill-opacity: 1.0;stroke-width: 0.010000;stroke-opacity: 1;stroke-linecap: round;stroke-linejoin: round">
<path style="fill-opacity: 1.0;stroke-width: 0.010000;stroke-opacity: 1;stroke-linecap: round;stroke-linejoin: round;fill-rule: evenodd" d="M 1596340.000000,901840.000000 1586340.000000,901840.000000 1586340.000000,876740.000000 1596340.000000,876740.000000 Z"/> 
<path style="fill-opacity: 1.0;stroke-width: 0.010000;stroke-opacity: 1;stroke-linecap: round;stroke-linejoin: round;fill-rule: evenodd" d="M 1621740.000000,868740.000000 1611740.000000,868740.000000 1611740.000000,843640.000000 1621740.000000,843640.000000 Z"/> 
<path style="fill-opacity: 1.0;stroke-width: 0.010000;stroke-opacity: 1;stroke-linecap: round;stroke-linejoin: round;fill-rule: evenodd" d="M 1647140.000000,901840.000000 1637140.000000,901840.000000 1637140.000000,876740.000000 1647140.000000,876740.000000 Z"/> 
</g>
<g style="fill-opacity: 1.0;stroke-width: 0.010000;stroke-opacity: 1;stroke-linecap: round;stroke-linejoin: round">
<circle cx="1496100.000000" cy="968000.000000" r="30000.000000"/> 
</g>
<g style="fill-opacity: 1.0;stroke-width: 0.010000;stroke-opacity: 1;stroke-linecap: round;stroke-linejoin: round">
<circle cx="1676500.000000" cy="918000.000000" r="4000.000000"/> 
</g>
<g style="fill-opacity: 1.0;stroke-width: 0.010000;stroke-opacity: 1;stroke-linecap: round;stroke-linejoin: round">
<circle cx="1469000.000000" cy="832000.000000" r="4000.000000"/> 
</g>
<g style="fill-opacity: 1.0;stroke-width: 0.010000;stroke-opacity: 1;stroke-linecap: round;stroke-linejoin: round">
<circle cx="1530000.000000" cy="871000.000000" r="4000.000000"/> 
</g>
<g style="fill-opacity: 0.0;stroke-width: 4000.000000;stroke-opacity: 1;stroke-linecap: round;stroke-linejoin: round">
<path d="M1676500 918000 L1604500 918000 "/>
<path d="M1604500 918000 L1591340 904840 "/>
<path d="M1591340 889290 L1589050 887000 "/>
<path d="M1591340 904840 L1591340 889290 "/>
<path d="M1530000 871000 L1530000 843000 "/>
<path d="M1551500 821500 L1622000 821500 "/>
<path d="M1642140 841640 L1642140 889290 "/>
<path d="M1622000 821500 L1642140 841640 "/>
<path d="M1530000 843000 L1551500 821500 "/>
</g>
<g style="fill-opacity: 0.0;stroke-width: 4000.000000;stroke-opacity: 1;stroke-linecap: round;stroke-linejoin: round">
<g style="fill-opacity: 1.0;stroke-width: 0.010000;stroke-opacity: 1;stroke-linecap: round;stroke-linejoin: round">
<path style="fill-opacity: 1.0;stroke-width: 0.010000;stroke-opacity: 1;stroke-linecap: round;stroke-linejoin: round;fill-rule: evenodd" d="M 2047228.430000,720742.070000 2047920.840000,721294.260000 2048305.110000,722092.180000 2048355.000000,722535.000000 2048355.000000,1315065.000000 2048157.930000,1315928.430000 2047605.740000,1316620.840000 2046807.820000,1317005.110000 2046365.000000,1317055.000000 1528066.430000,1317055.000000 1527203.000000,1316857.930000 1526510.590000,1316305.740000 1526126.320000,1315507.820000 1526076.430000,1315065.000000 1526076.430000,1284670.000000 1457923.570000,1284670.000000 1457923.570000,1315065.000000 1457726.500000,1315928.430000 1457174.310000,1316620.840000 1456376.390000,1317005.110000 1455933.570000,1317055.000000 1453835.000000,1317055.000000 1452971.570000,1316857.930000 1452279.160000,1316305.740000 1451894.890000,1315507.820000 1451845.000000,1315065.000000 1451845.000000,870887.530000 1521945.140000,870887.530000 1521956.000000,870998.290000 1521956.000000,870998.300000 1521972.100000,871162.440000 1522120.390000,872674.860000 1522687.260000,874378.960000 1523617.590000,875915.120000 1524865.140000,877206.990000 1526367.890000,878190.360000 1526472.140000,878229.130000 1527946.850000,878777.570000 1527946.870000,878777.570000 1528051.160000,878816.360000 1528161.430000,878831.070000 1528161.460000,878831.080000 1529344.860000,878988.980000 1529831.300000,879053.880000 1529942.070000,879043.800000 1531508.960000,878901.210000 1531508.980000,878901.210000 1531619.810000,878891.120000 1532473.810000,878613.640000 1533221.960000,878370.550000 1533221.990000,878370.540000 1533327.820000,878336.150000 1533572.390000,878190.360000 1534774.890000,877473.530000 1534774.900000,877473.520000 1534870.440000,877416.570000 1535829.730000,876503.050000 1535911.890000,876424.810000 1582335.000000,876424.810000 1582335.010000,902155.180000 1582347.230000,902232.310000 1582347.230000,902232.370000 1582459.030000,902938.310000 1582459.040000,902938.340000 1582483.540000,903093.040000 1582554.650000,903232.600000 1582554.660000,903232.630000 1582988.400000,904083.880000 1583059.500000,904223.420000 1583956.580000,905120.500000 1584569.760000,905432.930000 1585249.610000,906000.520000 1585504.830000,906444.490000 1586094.640000,907868.410000 1587057.180000,909122.820000 1587268.750000,909285.170000 1587464.390000,909456.740000 1599883.260000,921875.610000 1600054.830000,922071.250000 1600217.180000,922282.820000 1601041.210000,922915.120000 1601471.590000,923245.360000 1602932.380000,923850.440000 1604500.000000,924056.820000 1604629.280000,924039.800000 1604629.350000,924039.800000 1604764.330000,924022.030000 1605024.080000,924005.000000 1670463.220000,924005.000000 1671326.650000,924202.070000 1671552.870000,924329.840000 1672675.630000,925064.550000 1672867.890000,925190.360000 1672972.140000,925229.130000 1674446.850000,925777.570000 1674446.870000,925777.570000 1674551.160000,925816.360000 1674661.430000,925831.070000 1674661.460000,925831.080000 1675844.860000,925988.980000 1676331.300000,926053.880000 1676442.070000,926043.800000 1678008.960000,925901.210000 1678008.980000,925901.210000 1678119.810000,925891.120000 1678973.810000,925613.640000 1679721.960000,925370.550000 1679721.990000,925370.540000 1679827.820000,925336.150000 1680072.390000,925190.360000 1681274.890000,924473.530000 1681274.900000,924473.520000 1681370.440000,924416.570000 1682670.990000,923178.070000 1682845.700000,922915.120000 1683603.250000,921774.900000 1683664.830000,921682.220000 1684302.570000,920003.360000 1684552.510000,918224.930000 1684555.650000,918000.000000 1684355.460000,916215.280000 1683764.850000,914519.270000 1682813.160000,912996.250000 1681547.700000,911721.930000 1680031.360000,910759.630000 1679141.090000,910442.620000 1678444.360000,910194.520000 1678444.320000,910194.510000 1678339.510000,910157.190000 1678229.040000,910144.020000 1678229.010000,910144.010000 1676666.710000,909957.720000 1676666.690000,909957.720000 1676556.240000,909944.550000 1674770.170000,910132.270000 1674664.820000,910168.130000 1674664.790000,910168.140000 1673880.350000,910435.190000 1673070.070000,910711.030000 1671540.450000,911652.060000 1671529.920000,911634.940000 1670859.940000,911949.410000 1670436.440000,911995.000000 1607811.630000,911995.000000 1606948.200000,911797.930000 1606404.490000,911412.140000 1600506.240000,905513.890000 1600035.050000,904764.010000 1599935.890000,903883.940000 1600085.880000,903384.430000 1600076.960000,903381.530000 1600125.350000,903232.600000 1600196.460000,903093.040000 1600345.000000,902155.190000 1600344.990000,876424.820000 1600332.750000,876347.530000 1600220.970000,875641.690000 1600220.960000,875641.660000 1600196.460000,875486.960000 1599620.500000,874356.580000 1598723.420000,873459.500000 1597593.040000,872883.540000 1596655.190000,872735.000000 1596576.950000,872735.000000 1591336.270000,872735.010000 1586024.820000,872735.010000 1585947.690000,872747.230000 1585947.630000,872747.230000 1585241.690000,872859.030000 1585241.660000,872859.040000 1585086.960000,872883.540000 1584947.400000,872954.650000 1584947.370000,872954.660000 1584248.440000,873310.790000 1583956.580000,873459.500000 1583059.500000,874356.580000 1582483.540000,875486.960000 1582335.000000,876424.810000 1535911.890000,876424.810000 1536090.430000,876254.790000 1536090.440000,876254.770000 1536170.990000,876178.070000 1536345.700000,875915.120000 1537103.250000,874774.900000 1537164.830000,874682.220000 1537235.530000,874496.120000 1537656.310000,873388.400000 1537802.570000,873003.360000 1537822.860000,872859.040000 1537911.660000,872227.120000 1538052.510000,871224.930000 1538055.650000,871000.000000 1538048.690000,870937.940000 1537867.870000,869325.880000 1537867.860000,869325.840000 1537855.460000,869215.280000 1537812.450000,869091.760000 1606440.000000,869091.760000 1606447.200000,869211.300000 1606529.250000,869889.240000 1606591.650000,870134.940000 1607029.220000,871240.150000 1607161.150000,871474.290000 1607875.100000,872414.870000 1608065.130000,872604.900000 1609005.710000,873318.850000 1609239.850000,873450.780000 1610345.060000,873888.350000 1610590.760000,873950.750000 1611268.700000,874032.800000 1611388.240000,874040.000000 1613975.770000,874040.000000 1614165.470000,873996.700000 1614200.000000,873925.000000 1614200.000000,873815.770000 1619280.000000,873815.770000 1619323.300000,874005.470000 1619395.000000,874040.000000 1622091.760000,874040.000000 1622211.300000,874032.800000 1622889.240000,873950.750000 1623134.940000,873888.350000 1624240.150000,873450.780000 1624474.290000,873318.850000 1625414.870000,872604.900000 1625604.900000,872414.870000 1626318.850000,871474.290000 1626450.780000,871240.150000 1626888.350000,870134.940000 1626950.750000,869889.240000 1627032.800000,869211.300000 1627040.000000,869091.760000 1627040.000000,858954.230000 1626996.700000,858764.530000 1626925.000000,858730.000000 1619504.230000,858730.000000 1619314.530000,858773.300000 1619280.000000,858845.000000 1619280.000000,873815.770000 1614200.000000,873815.770000 1614200.000000,858954.230000 1614156.700000,858764.530000 1614085.000000,858730.000000 1606664.230000,858730.000000 1606474.530000,858773.300000 1606440.000000,858845.000000 1606440.000000,869091.760000 1537812.450000,869091.760000 1537780.940000,869001.270000 1537301.450000,867624.370000 1537264.850000,867519.270000 1536313.160000,865996.250000 1536343.200000,865977.480000 1536053.580000,865371.430000 1536005.000000,864934.430000 1536005.000000,853425.770000 1606440.000000,853425.770000 1606483.300000,853615.470000 1606555.000000,853650.000000 1613975.770000,853650.000000 1614165.470000,853606.700000 1614200.000000,853535.000000 1614200.000000,853425.770000 1619280.000000,853425.770000 1619323.300000,853615.470000 1619395.000000,853650.000000 1626815.770000,853650.000000 1627005.470000,853606.700000 1627040.000000,853535.000000 1627040.000000,843288.240000 1627032.800000,843168.700000 1626950.750000,842490.760000 1626888.350000,842245.060000 1626450.780000,841139.850000 1626318.850000,840905.710000 1625604.900000,839965.130000 1625414.870000,839775.100000 1624474.290000,839061.150000 1624240.150000,838929.220000 1623134.940000,838491.650000 1622889.240000,838429.250000 1622211.300000,838347.200000 1622091.760000,838340.000000 1619504.230000,838340.000000 1619314.530000,838383.300000 1619280.000000,838455.000000 1619280.000000,853425.770000 1614200.000000,853425.770000 1614200.000000,838564.230000 1614156.700000,838374.530000 1614085.000000,838340.000000 1611388.240000,838340.000000 1611268.700000,838347.200000 1610590.760000,838429.250000 1610345.060000,838491.650000 1609239.850000,838929.220000 1609005.710000,839061.150000 1608065.130000,839775.100000 1607875.100000,839965.130000 1607161.150000,840905.710000 1607029.220000,841139.850000 1606591.650000,842245.060000 1606529.250000,842490.760000 1606447.200000,843168.700000 1606440.000000,843288.240000 1606440.000000,853425.770000 1536005.000000,853425.770000 1536005.000000,846311.630000 1536202.070000,845448.200000 1536587.860000,844904.490000 1553404.490000,828087.860000 1554154.370000,827616.670000 1554811.630000,827505.000000 1618688.370000,827505.000000 1619551.800000,827702.070000 1620095.510000,828087.860000 1635552.140000,843544.490000 1636023.330000,844294.370000 1636135.000000,844951.630000 1636135.000000,871537.690000 1635937.930000,872401.120000 1635385.740000,873093.530000 1635048.450000,873310.790000 1634756.580000,873459.500000 1633859.500000,874356.580000 1633283.540000,875486.960000 1633135.000000,876424.810000 1633135.010000,902155.180000 1633147.230000,902232.310000 1633147.230000,902232.370000 1633259.030000,902938.310000 1633259.040000,902938.340000 1633283.540000,903093.040000 1633354.650000,903232.600000 1633354.660000,903232.630000 1633788.400000,904083.880000 1633859.500000,904223.420000 1634756.580000,905120.500000 1635886.960000,905696.460000 1636824.810000,905845.000000 1636903.050000,905845.000000 1642143.730000,905844.990000 1647455.180000,905844.990000 1647532.310000,905832.770000 1647532.370000,905832.770000 1648238.310000,905720.970000 1648238.340000,905720.960000 1648393.040000,905696.460000 1648532.600000,905625.350000 1648532.630000,905625.340000 1649383.880000,905191.600000 1649523.420000,905120.500000 1650420.500000,904223.420000 1650996.460000,903093.040000 1651145.000000,902155.190000 1651144.990000,876424.820000 1651132.750000,876347.530000 1651020.970000,875641.690000 1651020.960000,875641.660000 1650996.460000,875486.960000 1650420.500000,874356.580000 1649523.420000,873459.500000 1649231.560000,873310.790000 1648551.710000,872743.210000 1648185.450000,871936.860000 1648145.000000,871537.690000 1648145.000000,842164.080000 1648162.030000,841904.330000 1648179.800000,841769.350000 1648179.800000,841769.280000 1648196.820000,841640.000000 1647990.440000,840072.380000 1647385.360000,838611.590000 1647265.210000,838455.000000 1646664.500000,837672.150000 1646664.470000,837672.110000 1646502.220000,837460.650000 1646502.190000,837460.620000 1646422.820000,837357.180000 1646211.250000,837194.830000 1646015.610000,837023.260000 1626616.740000,817624.390000 1626445.170000,817428.750000 1626282.820000,817217.180000 1625028.410000,816254.640000 1623688.140000,815699.480000 1623688.100000,815699.460000 1623567.620000,815649.560000 1622393.610000,815495.000000 1622129.280000,815460.200000 1622000.000000,815443.180000 1621870.720000,815460.200000 1621870.650000,815460.200000 1621735.670000,815477.970000 1621475.920000,815495.000000 1552024.080000,815495.000000 1551764.330000,815477.970000 1551629.350000,815460.200000 1551629.280000,815460.200000 1551500.000000,815443.180000 1551370.720000,815460.200000 1551106.390000,815495.000000 1549932.380000,815649.560000 1548471.590000,816254.640000 1547217.180000,817217.180000 1547054.830000,817428.750000 1546883.260000,817624.390000 1526124.390000,838383.260000 1525928.750000,838554.830000 1525717.180000,838717.180000 1525637.810000,838820.620000 1525637.780000,838820.650000 1525554.480000,838929.220000 1525475.500000,839032.150000 1524754.640000,839971.590000 1524149.560000,841432.380000 1523943.180000,843000.000000 1523960.200000,843129.280000 1523960.200000,843129.350000 1523977.970000,843264.330000 1523995.000000,843524.080000 1523995.000000,864954.090000 1523797.930000,865817.520000 1523677.730000,866032.080000 1522784.460000,867418.170000 1522170.220000,869105.780000 1522156.280000,869216.110000 1522156.280000,869216.120000 1522088.500000,869752.690000 1521945.140000,870887.530000 1451845.000000,870887.530000 1451845.000000,722535.000000 1452042.070000,721671.570000 1452594.260000,720979.160000 1453392.180000,720594.890000 1453835.000000,720545.000000 2046365.000000,720545.000000 Z"/> 
</g>
</g>
</g> 
</g><g id="substrate-silk" style="fill:#0b1013; stroke:#0b1013;" mask="url(#pads-mask-silkscreen)"><g style="fill-opacity: 0.0;stroke-width: 3000.000000;stroke-opacity: 1;stroke-linecap: round;stroke-linejoin: round">
<text x="1755000.000000" y="756500.000000" textLength="192519.050000" font-size="22666.660000" lengthAdjust="spacingAndGlyphs" text-anchor="middle" opacity="0">PINHOLDER02A</text>
<g class="stroked-text"><desc>PINHOLDER02A</desc>
<path d="M1664738 755690 L1664738 738690 L1671214 738690 L1672833 739500 L1673642 740309 L1674452 741928 L1674452 744357 L1673642 745976 L1672833 746785 L1671214 747595 L1664738 747595 "/>
<path d="M1681738 755690 L1681738 738690 "/>
<path d="M1689833 755690 L1689833 738690 L1699547 755690 L1699547 738690 "/>
<path d="M1707642 755690 L1707642 738690 "/>
<path d="M1707642 746785 L1717357 746785 "/>
<path d="M1717357 755690 L1717357 738690 "/>
<path d="M1728690 738690 L1731928 738690 L1733547 739500 L1735166 741119 L1735976 744357 L1735976 750023 L1735166 753261 L1733547 754880 L1731928 755690 L1728690 755690 L1727071 754880 L1725452 753261 L1724642 750023 L1724642 744357 L1725452 741119 L1727071 739500 L1728690 738690 "/>
<path d="M1751357 755690 L1743261 755690 L1743261 738690 "/>
<path d="M1757023 755690 L1757023 738690 L1761071 738690 L1763500 739500 L1765119 741119 L1765928 742738 L1766738 745976 L1766738 748404 L1765928 751642 L1765119 753261 L1763500 754880 L1761071 755690 L1757023 755690 "/>
<path d="M1774023 746785 L1779690 746785 "/>
<path d="M1782119 755690 L1774023 755690 L1774023 738690 L1782119 738690 "/>
<path d="M1799119 755690 L1793452 747595 "/>
<path d="M1789404 755690 L1789404 738690 L1795880 738690 L1797500 739500 L1798309 740309 L1799119 741928 L1799119 744357 L1798309 745976 L1797500 746785 L1795880 747595 L1789404 747595 "/>
<path d="M1809642 738690 L1811261 738690 L1812880 739500 L1813690 740309 L1814500 741928 L1815309 745166 L1815309 749214 L1814500 752452 L1813690 754071 L1812880 754880 L1811261 755690 L1809642 755690 L1808023 754880 L1807214 754071 L1806404 752452 L1805595 749214 L1805595 745166 L1806404 741928 L1807214 740309 L1808023 739500 L1809642 738690 "/>
<path d="M1821785 740309 L1822595 739500 L1824214 738690 L1828261 738690 L1829880 739500 L1830690 740309 L1831500 741928 L1831500 743547 L1830690 745976 L1820976 755690 L1831500 755690 "/>
<path d="M1837976 750833 L1846071 750833 "/>
<path d="M1836357 755690 L1842023 738690 L1847690 755690 "/>
</g><text x="1598000.000000" y="755500.000000" textLength="93185.710000" font-size="20000.000000" lengthAdjust="spacingAndGlyphs" text-anchor="middle" opacity="0">MLAB.cz</text>
<g class="stroked-text"><desc>MLAB.cz</desc>
<path d="M1556928 754785 L1556928 739785 L1561928 750500 L1566928 739785 L1566928 754785 "/>
<path d="M1581214 754785 L1574071 754785 L1574071 739785 "/>
<path d="M1585500 750500 L1592642 750500 "/>
<path d="M1584071 754785 L1589071 739785 L1594071 754785 "/>
<path d="M1604071 746928 L1606214 747642 L1606928 748357 L1607642 749785 L1607642 751928 L1606928 753357 L1606214 754071 L1604785 754785 L1599071 754785 L1599071 739785 L1604071 739785 L1605500 740500 L1606214 741214 L1606928 742642 L1606928 744071 L1606214 745500 L1605500 746214 L1604071 746928 L1599071 746928 "/>
<path d="M1614071 753357 L1614785 754071 L1614071 754785 L1613357 754071 L1614071 753357 L1614071 754785 "/>
<path d="M1627642 754071 L1626214 754785 L1623357 754785 L1621928 754071 L1621214 753357 L1620500 751928 L1620500 747642 L1621214 746214 L1621928 745500 L1623357 744785 L1626214 744785 L1627642 745500 "/>
<path d="M1632642 744785 L1640500 744785 L1632642 754785 L1640500 754785 "/>
</g></g>
<g style="fill-opacity: 0.0;stroke-width: 1500.000000;stroke-opacity: 1;stroke-linecap: round;stroke-linejoin: round">
<text x="1617000.000000" y="921000.000000" textLength="68185.710000" font-size="13333.330000" lengthAdjust="spacingAndGlyphs" text-anchor="middle" opacity="0">K GND A</text>
<g class="stroked-text"><desc>K GND A</desc>
<path d="M1587238 920523 L1587238 910523 "/>
<path d="M1592952 920523 L1588666 914809 "/>
<path d="M1592952 910523 L1587238 916238 "/>
<path d="M1610095 911000 L1609142 910523 L1607714 910523 L1606285 911000 L1605333 911952 L1604857 912904 L1604380 914809 L1604380 916238 L1604857 918142 L1605333 919095 L1606285 920047 L1607714 920523 L1608666 920523 L1610095 920047 L1610571 919571 L1610571 916238 L1608666 916238 "/>
<path d="M1614857 920523 L1614857 910523 L1620571 920523 L1620571 910523 "/>
<path d="M1625333 920523 L1625333 910523 L1627714 910523 L1629142 911000 L1630095 911952 L1630571 912904 L1631047 914809 L1631047 916238 L1630571 918142 L1630095 919095 L1629142 920047 L1627714 920523 L1625333 920523 "/>
<path d="M1642476 917666 L1647238 917666 "/>
<path d="M1641523 920523 L1644857 910523 L1648190 920523 "/>
</g><g transform="rotate(-90.000000 1568040.000000 872740.000000)">
<text x="1568040.000000" y="877740.000000" textLength="19092.860000" font-size="13333.330000" lengthAdjust="spacingAndGlyphs" text-anchor="middle" opacity="0">J1</text>
</g>
<g class="stroked-text"><desc>J1</desc>
<path d="M1562563 876073 L1569706 876073 L1571135 876549 L1572087 877501 L1572563 878930 L1572563 879882 "/>
<path d="M1572563 866073 L1572563 871787 "/>
<path d="M1572563 868930 L1562563 868930 L1563992 869882 L1564944 870835 L1565420 871787 "/>
</g></g>
<g style="fill-opacity: 0.0;stroke-width: 1200.000000;stroke-opacity: 1;stroke-linecap: round;stroke-linejoin: round">
<path d="M1655440 886040 L1655440 859440 "/>
<path d="M1598940 886040 L1634540 886040 "/>
<path d="M1578040 886040 L1578040 859440 "/>
<path d="M1578040 886040 L1583740 886040 "/>
<path d="M1624340 859440 L1655440 859440 "/>
<path d="M1649740 859440 L1655440 859440 "/>
<path d="M1583740 886040 L1583740 901240 "/>
<path d="M1578040 859440 L1609140 859440 "/>
</g> 
</g><g id="substrate-outline" style="fill:#000000; stroke:#000000; stroke-width: 1500.0"><g style="fill-opacity: 0.0;stroke-opacity: 1;stroke-linecap: round;stroke-linejoin: round">
<path d="M1447840 1321060 L2052360 1321060 "/>
<path d="M1447840 716540 L2052360 716540 "/>
<path d="M2052360 716540 L2052360 1321060 "/>
<path d="M1447840 1321060 L1447840 716540 "/>
</g> 
<path d="M -15000.0 0.0 A 15000.0 15000.0 0 1 1 15000.0 0.0 L 15000.0 -0.0 A 15000.0 15000.0 0 1 1 -15000.0 -0.0 Z" transform="translate(1496100.0 764800.0) rotate(-0.0)"/><path d="M -15000.0 0.0 A 15000.0 15000.0 0 1 1 15000.0 0.0 L 15000.0 -0.0 A 15000.0 15000.0 0 1 1 -15000.0 -0.0 Z" transform="translate(1902500.0 764800.0) rotate(-0.0)"/><path d="M -15000.0 0.0 A 15000.0 15000.0 0 1 1 15000.0 0.0 L 15000.0 -0.0 A 15000.0 15000.0 0 1 1 -15000.0 -0.0 Z" transform="translate(1496100.0 968000.0) rotate(-0.0)"/><path d="M -2000.0 0.0 A 2000.0 2000.0 0 1 1 2000.0 0.0 L 2000.0 -0.0 A 2000.0 2000.0 0 1 1 -2000.0 -0.0 Z" transform="translate(1676500.0 918000.0) rotate(0)"/><path d="M -2000.0 0.0 A 2000.0 2000.0 0 1 1 2000.0 0.0 L 2000.0 -0.0 A 2000.0 2000.0 0 1 1 -2000.0 -0.0 Z" transform="translate(1469000.0 832000.0) rotate(0)"/><path d="M -2000.0 0.0 A 2000.0 2000.0 0 1 1 2000.0 0.0 L 2000.0 -0.0 A 2000.0 2000.0 0 1 1 -2000.0 -0.0 Z" transform="translate(1530000.0 871000.0) rotate(0)"/></g></g><g id="substrate-paste" style="fill:#8a8a8a; stroke:#8a8a8a;"><g style="fill-opacity: 0.0;stroke-width: 0.000000;stroke-opacity: 1;stroke-linecap: round;stroke-linejoin: round">
<g style="fill-opacity: 1.0;stroke-width: 0.010000;stroke-opacity: 1;stroke-linecap: round;stroke-linejoin: round">
<path style="fill-opacity: 1.0;stroke-width: 0.010000;stroke-opacity: 1;stroke-linecap: round;stroke-linejoin: round;fill-rule: evenodd" d="M 1596340.000000,901840.000000 1586340.000000,901840.000000 1586340.000000,876740.000000 1596340.000000,876740.000000 Z"/> 
<path style="fill-opacity: 1.0;stroke-width: 0.010000;stroke-opacity: 1;stroke-linecap: round;stroke-linejoin: round;fill-rule: evenodd" d="M 1621740.000000,868740.000000 1611740.000000,868740.000000 1611740.000000,843640.000000 1621740.000000,843640.000000 Z"/> 
<path style="fill-opacity: 1.0;stroke-width: 0.010000;stroke-opacity: 1;stroke-linecap: round;stroke-linejoin: round;fill-rule: evenodd" d="M 1647140.000000,901840.000000 1637140.000000,901840.000000 1637140.000000,876740.000000 1647140.000000,876740.000000 Z"/> 
</g>
</g> 
</g></g></svg>