<?xml version='1.0' encoding='ASCII' standalone='yes'?>
<svg xmlns:svg="http://www.w3.org/2000/svg" xmlns="http://www.w3.org/2000/svg" xmlns:xlink="http://www.w3.org/1999/xlink" version="1.1" width="29.700220cm" height="21.000720cm" viewBox="0 0 2970022 2100072">
<title>SVG Picture created as PINHOLDER02-F_Fab.svg date 2023/05/28 01:20:28 </title>
  <desc>Picture generated by PCBNEW </desc>
<g style="fill:#848484; fill-opacity:1.000000;stroke:#848484; stroke-opacity:1.000000; stroke-linecap:round; stroke-linejoin:round;" transform="translate(0 0) scale(1 1)">
</g>
<g style="fill:#848484; fill-opacity:0.0;  stroke:#848484; stroke-width:0.000000; stroke-opacity:1;  stroke-linecap:round; stroke-linejoin:round;">
</g>
<g style="fill:#848484; fill-opacity:0.01;  stroke:#848484; stroke-width:5202.140309; stroke-opacity:1;  stroke-linecap:round; stroke-linejoin:round;">
<text x="1947515.970472" y="560826.724138" textLength="65539.546175" font-size="46241.235632" lengthAdjust="spacingAndGlyphs" text-anchor="middle" opacity="0.01" style="font-family:monospace">J1</text>
<g class="stroked-text"><desc>J1</desc>
<path d="M1959076 524494 L1959076 549266 L1960727 554220 L1964030 557523 L1968985 559175 L1972288 559175 "/>
<path d="M1924395 559175 L1944213 559175 "/>
<path d="M1934304 559175 L1934304 524494 L1937607 529448 L1940910 532751 L1944213 534403 "/>
</g></g>
<g style="fill:#848484; fill-opacity:0.0;  stroke:#848484; stroke-width:13213.436385; stroke-opacity:1;  stroke-linecap:round; stroke-linejoin:round;">
<circle cx="2365906.775069" cy="169140.239794" r="104033.789140"/> 
<circle cx="956473.560642" cy="169140.239794" r="104033.789140"/> 
</g>
<g style="fill:#848484; fill-opacity:0.0;  stroke:#848484; stroke-width:3468.093539; stroke-opacity:1;  stroke-linecap:round; stroke-linejoin:round;">
<path d="M2046703 587531 L2079650 554584 "/>
<path d="M2079650 554584 L2079650 499441 "/>
<path d="M1848328 631575 L1848328 587531 "/>
<path d="M2046703 587531 L2046703 631575 "/>
<path d="M1815381 499441 L1815381 587531 "/>
<path d="M1870524 587531 L1870524 631575 "/>
<path d="M2079650 499441 L1815381 499441 "/>
<path d="M1870524 631575 L1848328 631575 "/>
<path d="M1958613 455396 L1936418 455396 "/>
<path d="M1815381 587531 L2046703 587531 "/>
<path d="M2046703 631575 L2024507 631575 "/>
<path d="M1958613 499441 L1958613 455396 "/>
<path d="M2024507 631575 L2024507 587531 "/>
<path d="M1936418 455396 L1936418 499441 "/>
</g>
<g style="fill:#848484; fill-opacity:0.0;  stroke:#848484; stroke-width:13213.436385; stroke-opacity:1;  stroke-linecap:round; stroke-linejoin:round;">
<circle cx="2365906.775069" cy="873856.847008" r="104033.789140"/> 
<g>
</g>
<g>
</g>
<g>
</g>
<g>
</g>
<g>
</g>
<g>
</g>
<g>
</g>
<g>
</g>
<g>
</g>
<g>
</g>
</g> 
<svg:g><svg:g><svg:title>SVG Picture created as PINHOLDER02-Edge_Cuts.svg date 2023/05/28 01:20:28 </svg:title>
  <svg:desc>Picture generated by PCBNEW </svg:desc>
<svg:g style="fill:#C2C200; fill-opacity:1.000000;stroke:#C2C200; stroke-opacity:1.000000; stroke-linecap:round; stroke-linejoin:round;" transform="translate(0 0) scale(1 1)">
</svg:g>
<svg:g style="fill:#C2C200; fill-opacity:0.0;  stroke:#C2C200; stroke-width:0.000000; stroke-opacity:1;  stroke-linecap:round; stroke-linejoin:round;">
</svg:g>
<svg:g style="fill:#C2C200; fill-opacity:0.0;  stroke:#C2C200; stroke-width:3468.093539; stroke-opacity:1;  stroke-linecap:round; stroke-linejoin:round;">
<svg:path d="M2533276 2098301 L436745 2098301 "/>
<svg:path d="M2533276 1770 L436745 1770 "/>
<svg:path d="M436745 1770 L436745 2098301 "/>
<svg:path d="M2533276 2098301 L2533276 1770 "/>
<svg:g>
</svg:g>
<svg:g>
</svg:g>
<svg:g>
</svg:g>
<svg:g>
</svg:g>
<svg:g>
</svg:g>
<svg:g>
</svg:g>
<svg:g>
</svg:g>
<svg:g>
</svg:g>
<svg:g>
</svg:g>
<svg:g>
</svg:g>
</svg:g> 
</svg:g></svg:g></svg>
