<?xml version='1.0' encoding='ASCII' standalone='yes'?>
<svg xmlns:svg="http://www.w3.org/2000/svg" xmlns="http://www.w3.org/2000/svg" xmlns:xlink="http://www.w3.org/1999/xlink" version="1.1" width="297.0022mm" height="210.0072mm" viewBox="0.0000 0.0000 297.0022 210.0072">
<title>SVG Image created as PINHOLDER02-B_Fab.svg date 2023/07/05 15:06:14 </title>
  <desc>Image generated by PCBNEW </desc>
<g style="fill:#000084; fill-opacity:1.0000;stroke:#000084; stroke-opacity:1.0000; stroke-linecap:round; stroke-linejoin:round;" transform="translate(0 0) scale(1 1)">
</g>
<g style="fill:#000084; fill-opacity:0.0;  stroke:#000084; stroke-width:0.0000; stroke-opacity:1;  stroke-linecap:round; stroke-linejoin:round;">
</g>
<g style="fill:#000084; fill-opacity:0.01;  stroke:#000084; stroke-width:0.5202; stroke-opacity:1;  stroke-linecap:round; stroke-linejoin:round;">
<text x="55.8683" y="48.8898" transform="scale(-1 1) translate(-111.736640 0)" textLength="24.3881" font-size="4.6241" lengthAdjust="spacingAndGlyphs" text-anchor="middle" opacity="0.01" style="font-family:monospace">TestPoint</text>
<g class="stroked-text"><desc>TestPoint</desc>
<path d="M67.4286 45.2651 L65.4469 45.2651 "/>
<path d="M66.4377 48.7332 L66.4377 45.2651 "/>
<path d="M62.9697 48.5680 L63.2999 48.7332 "/>
<path d="M63.2999 48.7332 L63.9605 48.7332 "/>
<path d="M63.9605 48.7332 L64.2908 48.5680 "/>
<path d="M64.2908 48.5680 L64.4560 48.2377 "/>
<path d="M64.4560 48.2377 L64.4560 46.9165 "/>
<path d="M64.4560 46.9165 L64.2908 46.5862 "/>
<path d="M64.2908 46.5862 L63.9605 46.4211 "/>
<path d="M63.9605 46.4211 L63.2999 46.4211 "/>
<path d="M63.2999 46.4211 L62.9697 46.5862 "/>
<path d="M62.9697 46.5862 L62.8045 46.9165 "/>
<path d="M62.8045 46.9165 L62.8045 47.2468 "/>
<path d="M62.8045 47.2468 L64.4560 47.5771 "/>
<path d="M61.4833 48.5680 L61.1530 48.7332 "/>
<path d="M61.1530 48.7332 L60.4924 48.7332 "/>
<path d="M60.4924 48.7332 L60.1621 48.5680 "/>
<path d="M60.1621 48.5680 L59.9970 48.2377 "/>
<path d="M59.9970 48.2377 L59.9970 48.0726 "/>
<path d="M59.9970 48.0726 L60.1621 47.7423 "/>
<path d="M60.1621 47.7423 L60.4924 47.5771 "/>
<path d="M60.4924 47.5771 L60.9879 47.5771 "/>
<path d="M60.9879 47.5771 L61.3182 47.4120 "/>
<path d="M61.3182 47.4120 L61.4833 47.0817 "/>
<path d="M61.4833 47.0817 L61.4833 46.9165 "/>
<path d="M61.4833 46.9165 L61.3182 46.5862 "/>
<path d="M61.3182 46.5862 L60.9879 46.4211 "/>
<path d="M60.9879 46.4211 L60.4924 46.4211 "/>
<path d="M60.4924 46.4211 L60.1621 46.5862 "/>
<path d="M59.0061 46.4211 L57.6849 46.4211 "/>
<path d="M58.5107 45.2651 L58.5107 48.2377 "/>
<path d="M58.5107 48.2377 L58.3455 48.5680 "/>
<path d="M58.3455 48.5680 L58.0152 48.7332 "/>
<path d="M58.0152 48.7332 L57.6849 48.7332 "/>
<path d="M56.5289 48.7332 L56.5289 45.2651 "/>
<path d="M56.5289 45.2651 L55.2077 45.2651 "/>
<path d="M55.2077 45.2651 L54.8774 45.4302 "/>
<path d="M54.8774 45.4302 L54.7123 45.5954 "/>
<path d="M54.7123 45.5954 L54.5471 45.9256 "/>
<path d="M54.5471 45.9256 L54.5471 46.4211 "/>
<path d="M54.5471 46.4211 L54.7123 46.7514 "/>
<path d="M54.7123 46.7514 L54.8774 46.9165 "/>
<path d="M54.8774 46.9165 L55.2077 47.0817 "/>
<path d="M55.2077 47.0817 L56.5289 47.0817 "/>
<path d="M52.5654 48.7332 L52.8957 48.5680 "/>
<path d="M52.8957 48.5680 L53.0608 48.4029 "/>
<path d="M53.0608 48.4029 L53.2260 48.0726 "/>
<path d="M53.2260 48.0726 L53.2260 47.0817 "/>
<path d="M53.2260 47.0817 L53.0608 46.7514 "/>
<path d="M53.0608 46.7514 L52.8957 46.5862 "/>
<path d="M52.8957 46.5862 L52.5654 46.4211 "/>
<path d="M52.5654 46.4211 L52.0699 46.4211 "/>
<path d="M52.0699 46.4211 L51.7396 46.5862 "/>
<path d="M51.7396 46.5862 L51.5745 46.7514 "/>
<path d="M51.5745 46.7514 L51.4093 47.0817 "/>
<path d="M51.4093 47.0817 L51.4093 48.0726 "/>
<path d="M51.4093 48.0726 L51.5745 48.4029 "/>
<path d="M51.5745 48.4029 L51.7396 48.5680 "/>
<path d="M51.7396 48.5680 L52.0699 48.7332 "/>
<path d="M52.0699 48.7332 L52.5654 48.7332 "/>
<path d="M49.9230 48.7332 L49.9230 46.4211 "/>
<path d="M49.9230 45.2651 L50.0882 45.4302 "/>
<path d="M50.0882 45.4302 L49.9230 45.5954 "/>
<path d="M49.9230 45.5954 L49.7579 45.4302 "/>
<path d="M49.7579 45.4302 L49.9230 45.2651 "/>
<path d="M49.9230 45.2651 L49.9230 45.5954 "/>
<path d="M48.2715 46.4211 L48.2715 48.7332 "/>
<path d="M48.2715 46.7514 L48.1064 46.5862 "/>
<path d="M48.1064 46.5862 L47.7761 46.4211 "/>
<path d="M47.7761 46.4211 L47.2807 46.4211 "/>
<path d="M47.2807 46.4211 L46.9504 46.5862 "/>
<path d="M46.9504 46.5862 L46.7852 46.9165 "/>
<path d="M46.7852 46.9165 L46.7852 48.7332 "/>
<path d="M45.6292 46.4211 L44.3080 46.4211 "/>
<path d="M45.1337 45.2651 L45.1337 48.2377 "/>
<path d="M45.1337 48.2377 L44.9686 48.5680 "/>
<path d="M44.9686 48.5680 L44.6383 48.7332 "/>
<path d="M44.6383 48.7332 L44.3080 48.7332 "/>
</g><text x="55.8683" y="34.8441" transform="scale(-1 1) translate(-111.736640 0)" textLength="10.0203" font-size="4.6241" lengthAdjust="spacingAndGlyphs" text-anchor="middle" opacity="0.01" style="font-family:monospace">TP3</text>
<g class="stroked-text"><desc>TP3</desc>
<path d="M60.2447 31.2193 L58.2630 31.2193 "/>
<path d="M59.2538 34.6874 L59.2538 31.2193 "/>
<path d="M57.1069 34.6874 L57.1069 31.2193 "/>
<path d="M57.1069 31.2193 L55.7857 31.2193 "/>
<path d="M55.7857 31.2193 L55.4555 31.3844 "/>
<path d="M55.4555 31.3844 L55.2903 31.5496 "/>
<path d="M55.2903 31.5496 L55.1252 31.8799 "/>
<path d="M55.1252 31.8799 L55.1252 32.3753 "/>
<path d="M55.1252 32.3753 L55.2903 32.7056 "/>
<path d="M55.2903 32.7056 L55.4555 32.8708 "/>
<path d="M55.4555 32.8708 L55.7857 33.0359 "/>
<path d="M55.7857 33.0359 L57.1069 33.0359 "/>
<path d="M53.9691 31.2193 L51.8222 31.2193 "/>
<path d="M51.8222 31.2193 L52.9782 32.5405 "/>
<path d="M52.9782 32.5405 L52.4828 32.5405 "/>
<path d="M52.4828 32.5405 L52.1525 32.7056 "/>
<path d="M52.1525 32.7056 L51.9874 32.8708 "/>
<path d="M51.9874 32.8708 L51.8222 33.2010 "/>
<path d="M51.8222 33.2010 L51.8222 34.0268 "/>
<path d="M51.8222 34.0268 L51.9874 34.3571 "/>
<path d="M51.9874 34.3571 L52.1525 34.5222 "/>
<path d="M52.1525 34.5222 L52.4828 34.6874 "/>
<path d="M52.4828 34.6874 L53.4737 34.6874 "/>
<path d="M53.4737 34.6874 L53.8040 34.5222 "/>
<path d="M53.8040 34.5222 L53.9691 34.3571 "/>
</g></g>
<g style="fill:#000084; fill-opacity:0.0;  stroke:#000084; stroke-width:0.4682; stroke-opacity:1;  stroke-linecap:round; stroke-linejoin:round;">
<g transform="rotate(-90.000000 70.4343 59.1207)">
<text x="70.4343" y="60.6814" transform="scale(-1 1) translate(-140.868626 0)" textLength="9.0183" font-size="4.1617" lengthAdjust="spacingAndGlyphs" text-anchor="middle" opacity="0.01" style="font-family:monospace">TP2</text>
</g>
<g class="stroked-text"><desc>TP2</desc>
<path d="M68.7326 55.1820 L68.7326 56.9656 "/>
<path d="M71.8539 56.0738 L68.7326 56.0738 "/>
<path d="M71.8539 58.0060 L68.7326 58.0060 "/>
<path d="M68.7326 58.0060 L68.7326 59.1950 "/>
<path d="M68.7326 59.1950 L68.8813 59.4923 "/>
<path d="M68.8813 59.4923 L69.0299 59.6409 "/>
<path d="M69.0299 59.6409 L69.3272 59.7896 "/>
<path d="M69.3272 59.7896 L69.7731 59.7896 "/>
<path d="M69.7731 59.7896 L70.0703 59.6409 "/>
<path d="M70.0703 59.6409 L70.2190 59.4923 "/>
<path d="M70.2190 59.4923 L70.3676 59.1950 "/>
<path d="M70.3676 59.1950 L70.3676 58.0060 "/>
<path d="M69.0299 60.9786 L68.8813 61.1273 "/>
<path d="M68.8813 61.1273 L68.7326 61.4245 "/>
<path d="M68.7326 61.4245 L68.7326 62.1677 "/>
<path d="M68.7326 62.1677 L68.8813 62.4650 "/>
<path d="M68.8813 62.4650 L69.0299 62.6136 "/>
<path d="M69.0299 62.6136 L69.3272 62.7622 "/>
<path d="M69.3272 62.7622 L69.6244 62.7622 "/>
<path d="M69.6244 62.7622 L70.0703 62.6136 "/>
<path d="M70.0703 62.6136 L71.8539 60.8300 "/>
<path d="M71.8539 60.8300 L71.8539 62.7622 "/>
</g></g>
<g style="fill:#000084; fill-opacity:0.0;  stroke:#000084; stroke-width:0.5202; stroke-opacity:1;  stroke-linecap:round; stroke-linejoin:round;">
<path d="M68.7003 63.4558 L66.9662 63.4558 "/>
<path d="M66.9662 63.4558 L66.9662 54.7856 "/>
<path d="M72.1684 54.7856 L73.9024 54.7856 "/>
<path d="M73.9024 54.7856 L73.9024 63.4558 "/>
<path d="M72.1684 63.4558 L72.1684 65.1899 "/>
<path d="M68.7003 52.5313 L68.7003 65.7101 "/>
<path d="M66.9662 54.7856 L68.7003 54.7856 "/>
<path d="M72.1684 53.0516 L72.1684 54.7856 "/>
<path d="M68.7003 65.1899 L68.7003 63.4558 "/>
<path d="M73.9024 63.4558 L72.1684 63.4558 "/>
<path d="M72.1684 65.7101 L72.1684 52.5313 "/>
<path d="M73.9024 59.1207 L72.1684 59.1207 "/>
<path d="M72.1684 65.7101 L68.7003 65.7101 "/>
<path d="M68.7003 52.5313 L72.1684 52.5313 "/>
<path d="M68.7003 54.7856 L68.7003 53.0516 "/>
<path d="M68.7003 59.1207 L66.9662 59.1207 "/>
<g>
</g>
<g>
</g>
<g>
</g>
<g>
</g>
<g>
</g>
<g>
</g>
<g>
</g>
<g>
</g>
<g>
</g>
<g>
</g>
</g> 
<svg:g><svg:g><svg:title>SVG Image created as PINHOLDER02-Edge_Cuts.svg date 2023/07/05 15:06:14 </svg:title>
  <svg:desc>Image generated by PCBNEW </svg:desc>
<svg:g style="fill:#C2C200; fill-opacity:1.0000;stroke:#C2C200; stroke-opacity:1.0000; stroke-linecap:round; stroke-linejoin:round;" transform="translate(0 0) scale(1 1)">
</svg:g>
<svg:g style="fill:#C2C200; fill-opacity:0.0;  stroke:#C2C200; stroke-width:0.0000; stroke-opacity:1;  stroke-linecap:round; stroke-linejoin:round;">
</svg:g>
<svg:g style="fill:#C2C200; fill-opacity:0.0;  stroke:#C2C200; stroke-width:0.3468; stroke-opacity:1;  stroke-linecap:round; stroke-linejoin:round;">
<svg:path d="M43.6745 209.8302 L253.3277 209.8302 "/>
<svg:path d="M43.6745 0.1770 L253.3277 0.1770 "/>
<svg:path d="M253.3277 0.1770 L253.3277 209.8302 "/>
<svg:path d="M43.6745 209.8302 L43.6745 0.1770 "/>
<svg:g>
</svg:g>
<svg:g>
</svg:g>
<svg:g>
</svg:g>
<svg:g>
</svg:g>
<svg:g>
</svg:g>
<svg:g>
</svg:g>
<svg:g>
</svg:g>
<svg:g>
</svg:g>
<svg:g>
</svg:g>
<svg:g>
</svg:g>
</svg:g> 
</svg:g></svg:g></svg>
