<?xml version='1.0' encoding='ASCII' standalone='yes'?>
<svg xmlns:svg="http://www.w3.org/2000/svg" xmlns="http://www.w3.org/2000/svg" xmlns:xlink="http://www.w3.org/1999/xlink" version="1.1" width="29.700220cm" height="21.000720cm" viewBox="0 0 2970022 2100072">
<title>SVG Picture created as PINHOLDER02-B_Fab.svg date 2023/04/13 18:10:50 </title>
  <desc>Picture generated by PCBNEW </desc>
<g style="fill:#000084; fill-opacity:1.000000;stroke:#000084; stroke-opacity:1.000000; stroke-linecap:round; stroke-linejoin:round;" transform="translate(0 0) scale(1 1)">
</g>
<g style="fill:#000084; fill-opacity:0.0;  stroke:#000084; stroke-width:0.000000; stroke-opacity:1;  stroke-linecap:round; stroke-linejoin:round;">
</g>
<g style="fill:#000084; fill-opacity:0.01;  stroke:#000084; stroke-width:5202.140309; stroke-opacity:1;  stroke-linecap:round; stroke-linejoin:round;">
<text x="558683.199564" y="488898.464130" transform="scale(-1 1) translate(-1117366.399128 0)" textLength="237812.098692" font-size="46241.235632" lengthAdjust="spacingAndGlyphs" text-anchor="middle" opacity="0.01" style="font-family:monospace">TestPoint</text>
<g class="stroked-text"><desc>TestPoint</desc>
<path d="M674286 452566 L654468 452566 "/>
<path d="M664377 487246 L664377 452566 "/>
<path d="M629696 485595 L632999 487246 L639605 487246 L642908 485595 L644559 482292 L644559 469080 L642908 465777 L639605 464126 L632999 464126 L629696 465777 L628045 469080 L628045 472383 L644559 475686 "/>
<path d="M614833 485595 L611530 487246 L604924 487246 L601621 485595 L599970 482292 L599970 480641 L601621 477338 L604924 475686 L609878 475686 L613181 474035 L614833 470732 L614833 469080 L613181 465777 L609878 464126 L604924 464126 L601621 465777 "/>
<path d="M590061 464126 L576849 464126 "/>
<path d="M585106 452566 L585106 482292 L583455 485595 L580152 487246 L576849 487246 "/>
<path d="M565289 487246 L565289 452566 L552077 452566 L548774 454217 L547122 455869 L545471 459171 L545471 464126 L547122 467429 L548774 469080 L552077 470732 L565289 470732 "/>
<path d="M525653 487246 L528956 485595 L530608 483944 L532259 480641 L532259 470732 L530608 467429 L528956 465777 L525653 464126 L520699 464126 L517396 465777 L515744 467429 L514093 470732 L514093 480641 L515744 483944 L517396 485595 L520699 487246 L525653 487246 "/>
<path d="M499230 487246 L499230 464126 "/>
<path d="M499230 452566 L500881 454217 L499230 455869 L497578 454217 L499230 452566 L499230 455869 "/>
<path d="M482715 464126 L482715 487246 "/>
<path d="M482715 467429 L481063 465777 L477760 464126 L472806 464126 L469503 465777 L467852 469080 L467852 487246 "/>
<path d="M456291 464126 L443080 464126 "/>
<path d="M451337 452566 L451337 482292 L449685 485595 L446383 487246 L443080 487246 "/>
</g><text x="558683.199564" y="348440.675783" transform="scale(-1 1) translate(-1117366.399128 0)" textLength="87371.195006" font-size="46241.235632" lengthAdjust="spacingAndGlyphs" text-anchor="middle" opacity="0.01" style="font-family:monospace">TP3</text>
<g class="stroked-text"><desc>TP3</desc>
<path d="M602447 312108 L582629 312108 "/>
<path d="M592538 346789 L592538 312108 "/>
<path d="M571069 346789 L571069 312108 L557857 312108 L554554 313759 L552903 315411 L551251 318714 L551251 323668 L552903 326971 L554554 328622 L557857 330274 L571069 330274 "/>
<path d="M539691 312108 L518222 312108 L529782 325320 L524827 325320 L521525 326971 L519873 328622 L518222 331925 L518222 340183 L519873 343486 L521525 345137 L524827 346789 L534736 346789 L538039 345137 L539691 343486 "/>
</g></g>
<g style="fill:#000084; fill-opacity:0.0;  stroke:#000084; stroke-width:4681.926278; stroke-opacity:1;  stroke-linecap:round; stroke-linejoin:round;">
<g transform="rotate(-90.000000 704343.128220 591207.223543)">
<text x="704343.128220" y="606813.644471" transform="scale(-1 1) translate(-1408686.256441 0)" textLength="77957.783393" font-size="41617.122473" lengthAdjust="spacingAndGlyphs" text-anchor="middle" opacity="0.01" style="font-family:monospace">TP2</text>
</g>
<g class="stroked-text"><desc>TP2</desc>
<path d="M687250 551819 L687250 569655 "/>
<path d="M718463 560737 L687250 560737 "/>
<path d="M718463 580059 L687250 580059 L687250 591950 L688736 594923 L690223 596409 L693195 597895 L697654 597895 L700627 596409 L702113 594923 L703599 591950 L703599 580059 "/>
<path d="M690223 609786 L688736 611272 L687250 614245 L687250 621676 L688736 624649 L690223 626135 L693195 627622 L696168 627622 L700627 626135 L718463 608299 L718463 627622 "/>
</g></g>
<g style="fill:#000084; fill-opacity:0.0;  stroke:#000084; stroke-width:5202.140309; stroke-opacity:1;  stroke-linecap:round; stroke-linejoin:round;">
<path d="M687002 634558 L669662 634558 "/>
<path d="M669662 634558 L669662 547856 "/>
<path d="M721683 547856 L739024 547856 "/>
<path d="M739024 547856 L739024 634558 "/>
<path d="M721683 634558 L721683 651898 "/>
<path d="M687002 525313 L687002 657101 "/>
<path d="M669662 547856 L687002 547856 "/>
<path d="M721683 530515 L721683 547856 "/>
<path d="M687002 651898 L687002 634558 "/>
<path d="M739024 634558 L721683 634558 "/>
<path d="M721683 657101 L721683 525313 "/>
<path d="M739024 591207 L721683 591207 "/>
<path d="M721683 657101 L687002 657101 "/>
<path d="M687002 525313 L721683 525313 "/>
<path d="M687002 547856 L687002 530515 "/>
<path d="M687002 591207 L669662 591207 "/>
<g>
</g>
<g>
</g>
<g>
</g>
<g>
</g>
<g>
</g>
<g>
</g>
<g>
</g>
<g>
</g>
<g>
</g>
<g>
</g>
</g> 
<svg:g><svg:g><svg:title>SVG Picture created as PINHOLDER02-Edge_Cuts.svg date 2023/04/13 18:10:50 </svg:title>
  <svg:desc>Picture generated by PCBNEW </svg:desc>
<svg:g style="fill:#C2C200; fill-opacity:1.000000;stroke:#C2C200; stroke-opacity:1.000000; stroke-linecap:round; stroke-linejoin:round;" transform="translate(0 0) scale(1 1)">
</svg:g>
<svg:g style="fill:#C2C200; fill-opacity:0.0;  stroke:#C2C200; stroke-width:0.000000; stroke-opacity:1;  stroke-linecap:round; stroke-linejoin:round;">
</svg:g>
<svg:g style="fill:#C2C200; fill-opacity:0.0;  stroke:#C2C200; stroke-width:3468.093539; stroke-opacity:1;  stroke-linecap:round; stroke-linejoin:round;">
<svg:path d="M436745 2098301 L2533276 2098301 "/>
<svg:path d="M436745 1770 L2533276 1770 "/>
<svg:path d="M2533276 1770 L2533276 2098301 "/>
<svg:path d="M436745 2098301 L436745 1770 "/>
<svg:g>
</svg:g>
<svg:g>
</svg:g>
<svg:g>
</svg:g>
<svg:g>
</svg:g>
<svg:g>
</svg:g>
<svg:g>
</svg:g>
<svg:g>
</svg:g>
<svg:g>
</svg:g>
<svg:g>
</svg:g>
<svg:g>
</svg:g>
</svg:g> 
</svg:g></svg:g></svg>
