<?xml version='1.0' encoding='ASCII' standalone='yes'?>
<svg xmlns:svg="http://www.w3.org/2000/svg" xmlns="http://www.w3.org/2000/svg" xmlns:xlink="http://www.w3.org/1999/xlink" version="1.1" width="297.0022mm" height="210.0072mm" viewBox="0.0000 0.0000 297.0022 210.0072">
<title>SVG Image created as PINHOLDER02-F_Fab.svg date 2023/07/05 15:06:14 </title>
  <desc>Image generated by PCBNEW </desc>
<g style="fill:#848484; fill-opacity:1.0000;stroke:#848484; stroke-opacity:1.0000; stroke-linecap:round; stroke-linejoin:round;" transform="translate(0 0) scale(1 1)">
</g>
<g style="fill:#848484; fill-opacity:0.0;  stroke:#848484; stroke-width:0.0000; stroke-opacity:1;  stroke-linecap:round; stroke-linejoin:round;">
</g>
<g style="fill:#848484; fill-opacity:0.01;  stroke:#848484; stroke-width:0.5202; stroke-opacity:1;  stroke-linecap:round; stroke-linejoin:round;">
<text x="194.7516" y="56.0827" textLength="6.5522" font-size="4.6241" lengthAdjust="spacingAndGlyphs" text-anchor="middle" opacity="0.01" style="font-family:monospace">J1</text>
<g class="stroked-text"><desc>J1</desc>
<path d="M195.9076 52.4579 L195.9076 54.9351 "/>
<path d="M195.9076 54.9351 L196.0728 55.4305 "/>
<path d="M196.0728 55.4305 L196.4031 55.7608 "/>
<path d="M196.4031 55.7608 L196.8985 55.9260 "/>
<path d="M196.8985 55.9260 L197.2288 55.9260 "/>
<path d="M192.4395 55.9260 L194.4213 55.9260 "/>
<path d="M193.4304 55.9260 L193.4304 52.4579 "/>
<path d="M193.4304 52.4579 L193.7607 52.9533 "/>
<path d="M193.7607 52.9533 L194.0910 53.2836 "/>
<path d="M194.0910 53.2836 L194.4213 53.4488 "/>
</g></g>
<g style="fill:#848484; fill-opacity:0.0;  stroke:#848484; stroke-width:1.3213; stroke-opacity:1;  stroke-linecap:round; stroke-linejoin:round;">
<circle cx="236.5907" cy="16.9140" r="10.4034"/> 
<circle cx="95.6474" cy="16.9140" r="10.4034"/> 
</g>
<g style="fill:#848484; fill-opacity:0.0;  stroke:#848484; stroke-width:0.3468; stroke-opacity:1;  stroke-linecap:round; stroke-linejoin:round;">
<path d="M204.6703 58.7531 L207.9650 55.4584 "/>
<path d="M207.9650 55.4584 L207.9650 49.9441 "/>
<path d="M184.8328 63.1576 L184.8328 58.7531 "/>
<path d="M204.6703 58.7531 L204.6703 63.1576 "/>
<path d="M181.5382 49.9441 L181.5382 58.7531 "/>
<path d="M187.0524 58.7531 L187.0524 63.1576 "/>
<path d="M207.9650 49.9441 L181.5382 49.9441 "/>
<path d="M187.0524 63.1576 L184.8328 63.1576 "/>
<path d="M195.8614 45.5397 L193.6418 45.5397 "/>
<path d="M181.5382 58.7531 L204.6703 58.7531 "/>
<path d="M204.6703 63.1576 L202.4508 63.1576 "/>
<path d="M195.8614 49.9441 L195.8614 45.5397 "/>
<path d="M202.4508 63.1576 L202.4508 58.7531 "/>
<path d="M193.6418 45.5397 L193.6418 49.9441 "/>
</g>
<g style="fill:#848484; fill-opacity:0.0;  stroke:#848484; stroke-width:1.3213; stroke-opacity:1;  stroke-linecap:round; stroke-linejoin:round;">
<circle cx="236.5907" cy="87.3857" r="10.4034"/> 
<g>
</g>
<g>
</g>
<g>
</g>
<g>
</g>
<g>
</g>
<g>
</g>
<g>
</g>
<g>
</g>
<g>
</g>
<g>
</g>
</g> 
<svg:g><svg:g><svg:title>SVG Image created as PINHOLDER02-Edge_Cuts.svg date 2023/07/05 15:06:14 </svg:title>
  <svg:desc>Image generated by PCBNEW </svg:desc>
<svg:g style="fill:#C2C200; fill-opacity:1.0000;stroke:#C2C200; stroke-opacity:1.0000; stroke-linecap:round; stroke-linejoin:round;" transform="translate(0 0) scale(1 1)">
</svg:g>
<svg:g style="fill:#C2C200; fill-opacity:0.0;  stroke:#C2C200; stroke-width:0.0000; stroke-opacity:1;  stroke-linecap:round; stroke-linejoin:round;">
</svg:g>
<svg:g style="fill:#C2C200; fill-opacity:0.0;  stroke:#C2C200; stroke-width:0.3468; stroke-opacity:1;  stroke-linecap:round; stroke-linejoin:round;">
<svg:path d="M253.3277 209.8302 L43.6745 209.8302 "/>
<svg:path d="M253.3277 0.1770 L43.6745 0.1770 "/>
<svg:path d="M43.6745 0.1770 L43.6745 209.8302 "/>
<svg:path d="M253.3277 209.8302 L253.3277 0.1770 "/>
<svg:g>
</svg:g>
<svg:g>
</svg:g>
<svg:g>
</svg:g>
<svg:g>
</svg:g>
<svg:g>
</svg:g>
<svg:g>
</svg:g>
<svg:g>
</svg:g>
<svg:g>
</svg:g>
<svg:g>
</svg:g>
<svg:g>
</svg:g>
</svg:g> 
</svg:g></svg:g></svg>
