%TF.GenerationSoftware,KiCad,Pcbnew,7.0.5.1-1-g8f565ef7f0-dirty-deb11*%
%TF.CreationDate,2023-07-05T15:05:41+00:00*%
%TF.ProjectId,PINHOLDER02,50494e48-4f4c-4444-9552-30322e6b6963,02A*%
%TF.SameCoordinates,Original*%
%TF.FileFunction,Legend,Bot*%
%TF.FilePolarity,Positive*%
%FSLAX46Y46*%
G04 Gerber Fmt 4.6, Leading zero omitted, Abs format (unit mm)*
G04 Created by KiCad (PCBNEW 7.0.5.1-1-g8f565ef7f0-dirty-deb11) date 2023-07-05 15:05:41*
%MOMM*%
%LPD*%
G01*
G04 APERTURE LIST*
%ADD10C,0.300000*%
%ADD11C,0.250000*%
%ADD12C,0.150000*%
%ADD13C,0.120000*%
G04 APERTURE END LIST*
D10*
X35166190Y759147D02*
X35166190Y2459147D01*
X35166190Y2459147D02*
X34518571Y2459147D01*
X34518571Y2459147D02*
X34356666Y2378195D01*
X34356666Y2378195D02*
X34275713Y2297242D01*
X34275713Y2297242D02*
X34194761Y2135338D01*
X34194761Y2135338D02*
X34194761Y1892480D01*
X34194761Y1892480D02*
X34275713Y1730576D01*
X34275713Y1730576D02*
X34356666Y1649623D01*
X34356666Y1649623D02*
X34518571Y1568671D01*
X34518571Y1568671D02*
X35166190Y1568671D01*
X33466190Y759147D02*
X33466190Y2459147D01*
X32656666Y759147D02*
X32656666Y2459147D01*
X32656666Y2459147D02*
X31685237Y759147D01*
X31685237Y759147D02*
X31685237Y2459147D01*
X30875714Y759147D02*
X30875714Y2459147D01*
X30875714Y1649623D02*
X29904285Y1649623D01*
X29904285Y759147D02*
X29904285Y2459147D01*
X28770952Y2459147D02*
X28447143Y2459147D01*
X28447143Y2459147D02*
X28285238Y2378195D01*
X28285238Y2378195D02*
X28123333Y2216290D01*
X28123333Y2216290D02*
X28042381Y1892480D01*
X28042381Y1892480D02*
X28042381Y1325814D01*
X28042381Y1325814D02*
X28123333Y1002004D01*
X28123333Y1002004D02*
X28285238Y840099D01*
X28285238Y840099D02*
X28447143Y759147D01*
X28447143Y759147D02*
X28770952Y759147D01*
X28770952Y759147D02*
X28932857Y840099D01*
X28932857Y840099D02*
X29094762Y1002004D01*
X29094762Y1002004D02*
X29175714Y1325814D01*
X29175714Y1325814D02*
X29175714Y1892480D01*
X29175714Y1892480D02*
X29094762Y2216290D01*
X29094762Y2216290D02*
X28932857Y2378195D01*
X28932857Y2378195D02*
X28770952Y2459147D01*
X26504286Y759147D02*
X27313810Y759147D01*
X27313810Y759147D02*
X27313810Y2459147D01*
X25937620Y759147D02*
X25937620Y2459147D01*
X25937620Y2459147D02*
X25532858Y2459147D01*
X25532858Y2459147D02*
X25290001Y2378195D01*
X25290001Y2378195D02*
X25128096Y2216290D01*
X25128096Y2216290D02*
X25047143Y2054385D01*
X25047143Y2054385D02*
X24966191Y1730576D01*
X24966191Y1730576D02*
X24966191Y1487719D01*
X24966191Y1487719D02*
X25047143Y1163909D01*
X25047143Y1163909D02*
X25128096Y1002004D01*
X25128096Y1002004D02*
X25290001Y840099D01*
X25290001Y840099D02*
X25532858Y759147D01*
X25532858Y759147D02*
X25937620Y759147D01*
X24237620Y1649623D02*
X23670953Y1649623D01*
X23428096Y759147D02*
X24237620Y759147D01*
X24237620Y759147D02*
X24237620Y2459147D01*
X24237620Y2459147D02*
X23428096Y2459147D01*
X21728096Y759147D02*
X22294763Y1568671D01*
X22699525Y759147D02*
X22699525Y2459147D01*
X22699525Y2459147D02*
X22051906Y2459147D01*
X22051906Y2459147D02*
X21890001Y2378195D01*
X21890001Y2378195D02*
X21809048Y2297242D01*
X21809048Y2297242D02*
X21728096Y2135338D01*
X21728096Y2135338D02*
X21728096Y1892480D01*
X21728096Y1892480D02*
X21809048Y1730576D01*
X21809048Y1730576D02*
X21890001Y1649623D01*
X21890001Y1649623D02*
X22051906Y1568671D01*
X22051906Y1568671D02*
X22699525Y1568671D01*
X20675715Y2459147D02*
X20513810Y2459147D01*
X20513810Y2459147D02*
X20351906Y2378195D01*
X20351906Y2378195D02*
X20270953Y2297242D01*
X20270953Y2297242D02*
X20190001Y2135338D01*
X20190001Y2135338D02*
X20109048Y1811528D01*
X20109048Y1811528D02*
X20109048Y1406766D01*
X20109048Y1406766D02*
X20190001Y1082957D01*
X20190001Y1082957D02*
X20270953Y921052D01*
X20270953Y921052D02*
X20351906Y840099D01*
X20351906Y840099D02*
X20513810Y759147D01*
X20513810Y759147D02*
X20675715Y759147D01*
X20675715Y759147D02*
X20837620Y840099D01*
X20837620Y840099D02*
X20918572Y921052D01*
X20918572Y921052D02*
X20999525Y1082957D01*
X20999525Y1082957D02*
X21080477Y1406766D01*
X21080477Y1406766D02*
X21080477Y1811528D01*
X21080477Y1811528D02*
X20999525Y2135338D01*
X20999525Y2135338D02*
X20918572Y2297242D01*
X20918572Y2297242D02*
X20837620Y2378195D01*
X20837620Y2378195D02*
X20675715Y2459147D01*
X19461429Y2297242D02*
X19380477Y2378195D01*
X19380477Y2378195D02*
X19218572Y2459147D01*
X19218572Y2459147D02*
X18813810Y2459147D01*
X18813810Y2459147D02*
X18651905Y2378195D01*
X18651905Y2378195D02*
X18570953Y2297242D01*
X18570953Y2297242D02*
X18490000Y2135338D01*
X18490000Y2135338D02*
X18490000Y1973433D01*
X18490000Y1973433D02*
X18570953Y1730576D01*
X18570953Y1730576D02*
X19542381Y759147D01*
X19542381Y759147D02*
X18490000Y759147D01*
X17842381Y1244861D02*
X17032857Y1244861D01*
X18004286Y759147D02*
X17437619Y2459147D01*
X17437619Y2459147D02*
X16870952Y759147D01*
D11*
X-598096Y-8867238D02*
X-502858Y-8819619D01*
X-502858Y-8819619D02*
X-360001Y-8819619D01*
X-360001Y-8819619D02*
X-217144Y-8867238D01*
X-217144Y-8867238D02*
X-121906Y-8962476D01*
X-121906Y-8962476D02*
X-74287Y-9057714D01*
X-74287Y-9057714D02*
X-26668Y-9248190D01*
X-26668Y-9248190D02*
X-26668Y-9391047D01*
X-26668Y-9391047D02*
X-74287Y-9581523D01*
X-74287Y-9581523D02*
X-121906Y-9676761D01*
X-121906Y-9676761D02*
X-217144Y-9772000D01*
X-217144Y-9772000D02*
X-360001Y-9819619D01*
X-360001Y-9819619D02*
X-455239Y-9819619D01*
X-455239Y-9819619D02*
X-598096Y-9772000D01*
X-598096Y-9772000D02*
X-645715Y-9724380D01*
X-645715Y-9724380D02*
X-645715Y-9391047D01*
X-645715Y-9391047D02*
X-455239Y-9391047D01*
X-1074287Y-9819619D02*
X-1074287Y-8819619D01*
X-1074287Y-8819619D02*
X-1645715Y-9819619D01*
X-1645715Y-9819619D02*
X-1645715Y-8819619D01*
X-2121906Y-9819619D02*
X-2121906Y-8819619D01*
X-2121906Y-8819619D02*
X-2360001Y-8819619D01*
X-2360001Y-8819619D02*
X-2502858Y-8867238D01*
X-2502858Y-8867238D02*
X-2598096Y-8962476D01*
X-2598096Y-8962476D02*
X-2645715Y-9057714D01*
X-2645715Y-9057714D02*
X-2693334Y-9248190D01*
X-2693334Y-9248190D02*
X-2693334Y-9391047D01*
X-2693334Y-9391047D02*
X-2645715Y-9581523D01*
X-2645715Y-9581523D02*
X-2598096Y-9676761D01*
X-2598096Y-9676761D02*
X-2502858Y-9772000D01*
X-2502858Y-9772000D02*
X-2360001Y-9819619D01*
X-2360001Y-9819619D02*
X-2121906Y-9819619D01*
D10*
X14521143Y909172D02*
X14521143Y2409172D01*
X14521143Y2409172D02*
X14021143Y1337743D01*
X14021143Y1337743D02*
X13521143Y2409172D01*
X13521143Y2409172D02*
X13521143Y909172D01*
X12092571Y909172D02*
X12806857Y909172D01*
X12806857Y909172D02*
X12806857Y2409172D01*
X11663999Y1337743D02*
X10949714Y1337743D01*
X11806856Y909172D02*
X11306856Y2409172D01*
X11306856Y2409172D02*
X10806856Y909172D01*
X9806857Y1694886D02*
X9592571Y1623458D01*
X9592571Y1623458D02*
X9521142Y1552029D01*
X9521142Y1552029D02*
X9449714Y1409172D01*
X9449714Y1409172D02*
X9449714Y1194886D01*
X9449714Y1194886D02*
X9521142Y1052029D01*
X9521142Y1052029D02*
X9592571Y980600D01*
X9592571Y980600D02*
X9735428Y909172D01*
X9735428Y909172D02*
X10306857Y909172D01*
X10306857Y909172D02*
X10306857Y2409172D01*
X10306857Y2409172D02*
X9806857Y2409172D01*
X9806857Y2409172D02*
X9664000Y2337743D01*
X9664000Y2337743D02*
X9592571Y2266315D01*
X9592571Y2266315D02*
X9521142Y2123458D01*
X9521142Y2123458D02*
X9521142Y1980600D01*
X9521142Y1980600D02*
X9592571Y1837743D01*
X9592571Y1837743D02*
X9664000Y1766315D01*
X9664000Y1766315D02*
X9806857Y1694886D01*
X9806857Y1694886D02*
X10306857Y1694886D01*
X8806857Y1052029D02*
X8735428Y980600D01*
X8735428Y980600D02*
X8806857Y909172D01*
X8806857Y909172D02*
X8878285Y980600D01*
X8878285Y980600D02*
X8806857Y1052029D01*
X8806857Y1052029D02*
X8806857Y909172D01*
X7449714Y980600D02*
X7592571Y909172D01*
X7592571Y909172D02*
X7878285Y909172D01*
X7878285Y909172D02*
X8021142Y980600D01*
X8021142Y980600D02*
X8092571Y1052029D01*
X8092571Y1052029D02*
X8163999Y1194886D01*
X8163999Y1194886D02*
X8163999Y1623458D01*
X8163999Y1623458D02*
X8092571Y1766315D01*
X8092571Y1766315D02*
X8021142Y1837743D01*
X8021142Y1837743D02*
X7878285Y1909172D01*
X7878285Y1909172D02*
X7592571Y1909172D01*
X7592571Y1909172D02*
X7449714Y1837743D01*
X6949714Y1909172D02*
X6164000Y1909172D01*
X6164000Y1909172D02*
X6949714Y909172D01*
X6949714Y909172D02*
X6164000Y909172D01*
D12*
X809104Y-12131905D02*
X809104Y-12608095D01*
X1094819Y-12036667D02*
X94819Y-12370000D01*
X94819Y-12370000D02*
X1094819Y-12703333D01*
D13*
%TO.C,TP3*%
X-110000Y-6670000D02*
G75*
G03*
X-110000Y-6670000I-1200000J0D01*
G01*
D12*
%TO.C,TP2*%
X4090000Y-14270000D02*
X4090000Y-10070000D01*
X1690000Y-14270000D02*
X4090000Y-14270000D01*
X4090000Y-10070000D02*
X1690000Y-10070000D01*
X1690000Y-10070000D02*
X1690000Y-14270000D01*
%TD*%
M02*
