%TF.GenerationSoftware,KiCad,Pcbnew,6.0.11+dfsg-1~bpo11+1*%
%TF.CreationDate,2023-06-15T01:17:42+00:00*%
%TF.ProjectId,PINHOLDER02,50494e48-4f4c-4444-9552-30322e6b6963,02A*%
%TF.SameCoordinates,Original*%
%TF.FileFunction,Legend,Top*%
%TF.FilePolarity,Positive*%
%FSLAX46Y46*%
G04 Gerber Fmt 4.6, Leading zero omitted, Abs format (unit mm)*
G04 Created by KiCad (PCBNEW 6.0.11+dfsg-1~bpo11+1) date 2023-06-15 01:17:42*
%MOMM*%
%LPD*%
G01*
G04 APERTURE LIST*
%ADD10C,0.300000*%
%ADD11C,0.150000*%
%ADD12C,0.120000*%
G04 APERTURE END LIST*
D10*
X16863809Y910953D02*
X16863809Y2610953D01*
X17511428Y2610953D01*
X17673333Y2530000D01*
X17754285Y2449048D01*
X17835238Y2287143D01*
X17835238Y2044286D01*
X17754285Y1882381D01*
X17673333Y1801429D01*
X17511428Y1720477D01*
X16863809Y1720477D01*
X18563809Y910953D02*
X18563809Y2610953D01*
X19373333Y910953D02*
X19373333Y2610953D01*
X20344761Y910953D01*
X20344761Y2610953D01*
X21154285Y910953D02*
X21154285Y2610953D01*
X21154285Y1801429D02*
X22125714Y1801429D01*
X22125714Y910953D02*
X22125714Y2610953D01*
X23259047Y2610953D02*
X23582857Y2610953D01*
X23744761Y2530000D01*
X23906666Y2368096D01*
X23987619Y2044286D01*
X23987619Y1477620D01*
X23906666Y1153810D01*
X23744761Y991905D01*
X23582857Y910953D01*
X23259047Y910953D01*
X23097142Y991905D01*
X22935238Y1153810D01*
X22854285Y1477620D01*
X22854285Y2044286D01*
X22935238Y2368096D01*
X23097142Y2530000D01*
X23259047Y2610953D01*
X25525714Y910953D02*
X24716190Y910953D01*
X24716190Y2610953D01*
X26092380Y910953D02*
X26092380Y2610953D01*
X26497142Y2610953D01*
X26740000Y2530000D01*
X26901904Y2368096D01*
X26982857Y2206191D01*
X27063809Y1882381D01*
X27063809Y1639524D01*
X26982857Y1315715D01*
X26901904Y1153810D01*
X26740000Y991905D01*
X26497142Y910953D01*
X26092380Y910953D01*
X27792380Y1801429D02*
X28359047Y1801429D01*
X28601904Y910953D02*
X27792380Y910953D01*
X27792380Y2610953D01*
X28601904Y2610953D01*
X30301904Y910953D02*
X29735238Y1720477D01*
X29330476Y910953D02*
X29330476Y2610953D01*
X29978095Y2610953D01*
X30140000Y2530000D01*
X30220952Y2449048D01*
X30301904Y2287143D01*
X30301904Y2044286D01*
X30220952Y1882381D01*
X30140000Y1801429D01*
X29978095Y1720477D01*
X29330476Y1720477D01*
X31354285Y2610953D02*
X31516190Y2610953D01*
X31678095Y2530000D01*
X31759047Y2449048D01*
X31840000Y2287143D01*
X31920952Y1963334D01*
X31920952Y1558572D01*
X31840000Y1234762D01*
X31759047Y1072858D01*
X31678095Y991905D01*
X31516190Y910953D01*
X31354285Y910953D01*
X31192380Y991905D01*
X31111428Y1072858D01*
X31030476Y1234762D01*
X30949523Y1558572D01*
X30949523Y1963334D01*
X31030476Y2287143D01*
X31111428Y2449048D01*
X31192380Y2530000D01*
X31354285Y2610953D01*
X32568571Y2449048D02*
X32649523Y2530000D01*
X32811428Y2610953D01*
X33216190Y2610953D01*
X33378095Y2530000D01*
X33459047Y2449048D01*
X33540000Y2287143D01*
X33540000Y2125239D01*
X33459047Y1882381D01*
X32487619Y910953D01*
X33540000Y910953D01*
X34187619Y1396667D02*
X34997142Y1396667D01*
X34025714Y910953D02*
X34592380Y2610953D01*
X35159047Y910953D01*
X6082857Y1001429D02*
X6082857Y2501429D01*
X6582857Y1430000D01*
X7082857Y2501429D01*
X7082857Y1001429D01*
X8511428Y1001429D02*
X7797142Y1001429D01*
X7797142Y2501429D01*
X8940000Y1430000D02*
X9654285Y1430000D01*
X8797142Y1001429D02*
X9297142Y2501429D01*
X9797142Y1001429D01*
X10797142Y1787143D02*
X11011428Y1715715D01*
X11082857Y1644286D01*
X11154285Y1501429D01*
X11154285Y1287143D01*
X11082857Y1144286D01*
X11011428Y1072858D01*
X10868571Y1001429D01*
X10297142Y1001429D01*
X10297142Y2501429D01*
X10797142Y2501429D01*
X10940000Y2430000D01*
X11011428Y2358572D01*
X11082857Y2215715D01*
X11082857Y2072858D01*
X11011428Y1930000D01*
X10940000Y1858572D01*
X10797142Y1787143D01*
X10297142Y1787143D01*
X11797142Y1144286D02*
X11868571Y1072858D01*
X11797142Y1001429D01*
X11725714Y1072858D01*
X11797142Y1144286D01*
X11797142Y1001429D01*
X13154285Y1072858D02*
X13011428Y1001429D01*
X12725714Y1001429D01*
X12582857Y1072858D01*
X12511428Y1144286D01*
X12440000Y1287143D01*
X12440000Y1715715D01*
X12511428Y1858572D01*
X12582857Y1930000D01*
X12725714Y2001429D01*
X13011428Y2001429D01*
X13154285Y1930000D01*
X13654285Y2001429D02*
X14440000Y2001429D01*
X13654285Y1001429D01*
X14440000Y1001429D01*
D11*
X9113809Y-15572380D02*
X9113809Y-14572380D01*
X9685238Y-15572380D02*
X9256666Y-15000952D01*
X9685238Y-14572380D02*
X9113809Y-15143809D01*
X11399523Y-14620000D02*
X11304285Y-14572380D01*
X11161428Y-14572380D01*
X11018571Y-14620000D01*
X10923333Y-14715238D01*
X10875714Y-14810476D01*
X10828095Y-15000952D01*
X10828095Y-15143809D01*
X10875714Y-15334285D01*
X10923333Y-15429523D01*
X11018571Y-15524761D01*
X11161428Y-15572380D01*
X11256666Y-15572380D01*
X11399523Y-15524761D01*
X11447142Y-15477142D01*
X11447142Y-15143809D01*
X11256666Y-15143809D01*
X11875714Y-15572380D02*
X11875714Y-14572380D01*
X12447142Y-15572380D01*
X12447142Y-14572380D01*
X12923333Y-15572380D02*
X12923333Y-14572380D01*
X13161428Y-14572380D01*
X13304285Y-14620000D01*
X13399523Y-14715238D01*
X13447142Y-14810476D01*
X13494761Y-15000952D01*
X13494761Y-15143809D01*
X13447142Y-15334285D01*
X13399523Y-15429523D01*
X13304285Y-15524761D01*
X13161428Y-15572380D01*
X12923333Y-15572380D01*
X14637619Y-15286666D02*
X15113809Y-15286666D01*
X14542380Y-15572380D02*
X14875714Y-14572380D01*
X15209047Y-15572380D01*
%TO.C,J1*%
X6646380Y-11127333D02*
X7360666Y-11127333D01*
X7503523Y-11174952D01*
X7598761Y-11270190D01*
X7646380Y-11413047D01*
X7646380Y-11508285D01*
X7646380Y-10127333D02*
X7646380Y-10698761D01*
X7646380Y-10413047D02*
X6646380Y-10413047D01*
X6789238Y-10508285D01*
X6884476Y-10603523D01*
X6932095Y-10698761D01*
D12*
X15934000Y-12124000D02*
X15934000Y-9464000D01*
X10284000Y-12124000D02*
X13844000Y-12124000D01*
X8194000Y-12124000D02*
X8194000Y-9464000D01*
X8194000Y-12124000D02*
X8764000Y-12124000D01*
X12824000Y-9464000D02*
X15934000Y-9464000D01*
X15364000Y-9464000D02*
X15934000Y-9464000D01*
X8764000Y-12124000D02*
X8764000Y-13644000D01*
X8194000Y-9464000D02*
X11304000Y-9464000D01*
%TD*%
M02*
