%TF.GenerationSoftware,KiCad,Pcbnew,6.0.11+dfsg-1~bpo11+1*%
%TF.CreationDate,2023-07-05T12:19:57+00:00*%
%TF.ProjectId,PINHOLDER02,50494e48-4f4c-4444-9552-30322e6b6963,02A*%
%TF.SameCoordinates,Original*%
%TF.FileFunction,Copper,L2,Bot*%
%TF.FilePolarity,Positive*%
%FSLAX46Y46*%
G04 Gerber Fmt 4.6, Leading zero omitted, Abs format (unit mm)*
G04 Created by KiCad (PCBNEW 6.0.11+dfsg-1~bpo11+1) date 2023-07-05 12:19:57*
%MOMM*%
%LPD*%
G01*
G04 APERTURE LIST*
%ADD10C,0.300000*%
%TA.AperFunction,NonConductor*%
%ADD11C,0.300000*%
%TD*%
%TA.AperFunction,ComponentPad*%
%ADD12C,6.000000*%
%TD*%
%TA.AperFunction,SMDPad,CuDef*%
%ADD13C,2.000000*%
%TD*%
%TA.AperFunction,SMDPad,CuDef*%
%ADD14C,0.509900*%
%TD*%
%TA.AperFunction,SMDPad,CuDef*%
%ADD15R,2.000000X3.800000*%
%TD*%
%TA.AperFunction,ViaPad*%
%ADD16C,0.800000*%
%TD*%
%TA.AperFunction,Conductor*%
%ADD17C,0.250000*%
%TD*%
G04 APERTURE END LIST*
D10*
D11*
X2090000Y-54498571D02*
X2090000Y-52998571D01*
X1590000Y-54070000D01*
X1090000Y-52998571D01*
X1090000Y-54498571D01*
X-338572Y-54498571D02*
X375714Y-54498571D01*
X375714Y-52998571D01*
X-767143Y-54070000D02*
X-1481429Y-54070000D01*
X-624286Y-54498571D02*
X-1124286Y-52998571D01*
X-1624286Y-54498571D01*
X-2624286Y-53712857D02*
X-2838572Y-53784285D01*
X-2910000Y-53855714D01*
X-2981429Y-53998571D01*
X-2981429Y-54212857D01*
X-2910000Y-54355714D01*
X-2838572Y-54427142D01*
X-2695715Y-54498571D01*
X-2124286Y-54498571D01*
X-2124286Y-52998571D01*
X-2624286Y-52998571D01*
X-2767143Y-53070000D01*
X-2838572Y-53141428D01*
X-2910000Y-53284285D01*
X-2910000Y-53427142D01*
X-2838572Y-53570000D01*
X-2767143Y-53641428D01*
X-2624286Y-53712857D01*
X-2124286Y-53712857D01*
D12*
%TO.P,M3,1*%
%TO.N,GND*%
X0Y0D03*
%TD*%
%TO.P,M2,1*%
%TO.N,GND*%
X40640000Y0D03*
%TD*%
%TO.P,M4,1*%
%TO.N,GND*%
X0Y-20320000D03*
%TD*%
D13*
%TO.P,TP3,1,1*%
%TO.N,GND*%
X-1310000Y-6670000D03*
%TD*%
D14*
%TO.P,TP1,1,1*%
%TO.N,/circle_0*%
X18140000Y-12120000D03*
%TD*%
D15*
%TO.P,TP2,1,1*%
%TO.N,Net-(J1-Pad3)*%
X2890000Y-12170000D03*
%TD*%
D16*
%TO.N,/circle_0*%
X18040000Y-15320000D03*
%TO.N,GND*%
X-2710000Y-6720000D03*
%TO.N,Net-(J1-Pad3)*%
X3390000Y-10620000D03*
%TD*%
D17*
%TO.N,GND*%
X-2710000Y-6720000D02*
X-2660000Y-6670000D01*
X-2660000Y-6670000D02*
X-1310000Y-6670000D01*
%TD*%
%TA.AperFunction,Conductor*%
%TO.N,/circle_0*%
G36*
X37532121Y-11240002D02*
G01*
X37578614Y-11293658D01*
X37590000Y-11346000D01*
X37590000Y-28394000D01*
X37569998Y-28462121D01*
X37516342Y-28508614D01*
X37464000Y-28520000D01*
X17616000Y-28520000D01*
X17547879Y-28499998D01*
X17501386Y-28446342D01*
X17490000Y-28394000D01*
X17490000Y-11346000D01*
X17510002Y-11277879D01*
X17563658Y-11231386D01*
X17616000Y-11220000D01*
X37464000Y-11220000D01*
X37532121Y-11240002D01*
G37*
%TD.AperFunction*%
%TD*%
M02*
