%TF.GenerationSoftware,KiCad,Pcbnew,7.0.5.1-1-g8f565ef7f0-dirty-deb11*%
%TF.CreationDate,2023-07-05T15:05:41+00:00*%
%TF.ProjectId,PINHOLDER02,50494e48-4f4c-4444-9552-30322e6b6963,02A*%
%TF.SameCoordinates,Original*%
%TF.FileFunction,Legend,Top*%
%TF.FilePolarity,Positive*%
%FSLAX46Y46*%
G04 Gerber Fmt 4.6, Leading zero omitted, Abs format (unit mm)*
G04 Created by KiCad (PCBNEW 7.0.5.1-1-g8f565ef7f0-dirty-deb11) date 2023-07-05 15:05:41*
%MOMM*%
%LPD*%
G01*
G04 APERTURE LIST*
%ADD10C,0.300000*%
%ADD11C,0.150000*%
%ADD12C,0.120000*%
G04 APERTURE END LIST*
D10*
X16863809Y909147D02*
X16863809Y2609147D01*
X16863809Y2609147D02*
X17511428Y2609147D01*
X17511428Y2609147D02*
X17673333Y2528195D01*
X17673333Y2528195D02*
X17754286Y2447242D01*
X17754286Y2447242D02*
X17835238Y2285338D01*
X17835238Y2285338D02*
X17835238Y2042480D01*
X17835238Y2042480D02*
X17754286Y1880576D01*
X17754286Y1880576D02*
X17673333Y1799623D01*
X17673333Y1799623D02*
X17511428Y1718671D01*
X17511428Y1718671D02*
X16863809Y1718671D01*
X18563809Y909147D02*
X18563809Y2609147D01*
X19373333Y909147D02*
X19373333Y2609147D01*
X19373333Y2609147D02*
X20344762Y909147D01*
X20344762Y909147D02*
X20344762Y2609147D01*
X21154285Y909147D02*
X21154285Y2609147D01*
X21154285Y1799623D02*
X22125714Y1799623D01*
X22125714Y909147D02*
X22125714Y2609147D01*
X23259047Y2609147D02*
X23582856Y2609147D01*
X23582856Y2609147D02*
X23744761Y2528195D01*
X23744761Y2528195D02*
X23906666Y2366290D01*
X23906666Y2366290D02*
X23987618Y2042480D01*
X23987618Y2042480D02*
X23987618Y1475814D01*
X23987618Y1475814D02*
X23906666Y1152004D01*
X23906666Y1152004D02*
X23744761Y990099D01*
X23744761Y990099D02*
X23582856Y909147D01*
X23582856Y909147D02*
X23259047Y909147D01*
X23259047Y909147D02*
X23097142Y990099D01*
X23097142Y990099D02*
X22935237Y1152004D01*
X22935237Y1152004D02*
X22854285Y1475814D01*
X22854285Y1475814D02*
X22854285Y2042480D01*
X22854285Y2042480D02*
X22935237Y2366290D01*
X22935237Y2366290D02*
X23097142Y2528195D01*
X23097142Y2528195D02*
X23259047Y2609147D01*
X25525713Y909147D02*
X24716189Y909147D01*
X24716189Y909147D02*
X24716189Y2609147D01*
X26092379Y909147D02*
X26092379Y2609147D01*
X26092379Y2609147D02*
X26497141Y2609147D01*
X26497141Y2609147D02*
X26739998Y2528195D01*
X26739998Y2528195D02*
X26901903Y2366290D01*
X26901903Y2366290D02*
X26982856Y2204385D01*
X26982856Y2204385D02*
X27063808Y1880576D01*
X27063808Y1880576D02*
X27063808Y1637719D01*
X27063808Y1637719D02*
X26982856Y1313909D01*
X26982856Y1313909D02*
X26901903Y1152004D01*
X26901903Y1152004D02*
X26739998Y990099D01*
X26739998Y990099D02*
X26497141Y909147D01*
X26497141Y909147D02*
X26092379Y909147D01*
X27792379Y1799623D02*
X28359046Y1799623D01*
X28601903Y909147D02*
X27792379Y909147D01*
X27792379Y909147D02*
X27792379Y2609147D01*
X27792379Y2609147D02*
X28601903Y2609147D01*
X30301903Y909147D02*
X29735236Y1718671D01*
X29330474Y909147D02*
X29330474Y2609147D01*
X29330474Y2609147D02*
X29978093Y2609147D01*
X29978093Y2609147D02*
X30139998Y2528195D01*
X30139998Y2528195D02*
X30220951Y2447242D01*
X30220951Y2447242D02*
X30301903Y2285338D01*
X30301903Y2285338D02*
X30301903Y2042480D01*
X30301903Y2042480D02*
X30220951Y1880576D01*
X30220951Y1880576D02*
X30139998Y1799623D01*
X30139998Y1799623D02*
X29978093Y1718671D01*
X29978093Y1718671D02*
X29330474Y1718671D01*
X31354284Y2609147D02*
X31516189Y2609147D01*
X31516189Y2609147D02*
X31678093Y2528195D01*
X31678093Y2528195D02*
X31759046Y2447242D01*
X31759046Y2447242D02*
X31839998Y2285338D01*
X31839998Y2285338D02*
X31920951Y1961528D01*
X31920951Y1961528D02*
X31920951Y1556766D01*
X31920951Y1556766D02*
X31839998Y1232957D01*
X31839998Y1232957D02*
X31759046Y1071052D01*
X31759046Y1071052D02*
X31678093Y990099D01*
X31678093Y990099D02*
X31516189Y909147D01*
X31516189Y909147D02*
X31354284Y909147D01*
X31354284Y909147D02*
X31192379Y990099D01*
X31192379Y990099D02*
X31111427Y1071052D01*
X31111427Y1071052D02*
X31030474Y1232957D01*
X31030474Y1232957D02*
X30949522Y1556766D01*
X30949522Y1556766D02*
X30949522Y1961528D01*
X30949522Y1961528D02*
X31030474Y2285338D01*
X31030474Y2285338D02*
X31111427Y2447242D01*
X31111427Y2447242D02*
X31192379Y2528195D01*
X31192379Y2528195D02*
X31354284Y2609147D01*
X32568570Y2447242D02*
X32649522Y2528195D01*
X32649522Y2528195D02*
X32811427Y2609147D01*
X32811427Y2609147D02*
X33216189Y2609147D01*
X33216189Y2609147D02*
X33378094Y2528195D01*
X33378094Y2528195D02*
X33459046Y2447242D01*
X33459046Y2447242D02*
X33539999Y2285338D01*
X33539999Y2285338D02*
X33539999Y2123433D01*
X33539999Y2123433D02*
X33459046Y1880576D01*
X33459046Y1880576D02*
X32487618Y909147D01*
X32487618Y909147D02*
X33539999Y909147D01*
X34187618Y1394861D02*
X34997142Y1394861D01*
X34025713Y909147D02*
X34592380Y2609147D01*
X34592380Y2609147D02*
X35159047Y909147D01*
X6082856Y1001672D02*
X6082856Y2501672D01*
X6082856Y2501672D02*
X6582856Y1430243D01*
X6582856Y1430243D02*
X7082856Y2501672D01*
X7082856Y2501672D02*
X7082856Y1001672D01*
X8511428Y1001672D02*
X7797142Y1001672D01*
X7797142Y1001672D02*
X7797142Y2501672D01*
X8940000Y1430243D02*
X9654286Y1430243D01*
X8797143Y1001672D02*
X9297143Y2501672D01*
X9297143Y2501672D02*
X9797143Y1001672D01*
X10797142Y1787386D02*
X11011428Y1715958D01*
X11011428Y1715958D02*
X11082857Y1644529D01*
X11082857Y1644529D02*
X11154285Y1501672D01*
X11154285Y1501672D02*
X11154285Y1287386D01*
X11154285Y1287386D02*
X11082857Y1144529D01*
X11082857Y1144529D02*
X11011428Y1073100D01*
X11011428Y1073100D02*
X10868571Y1001672D01*
X10868571Y1001672D02*
X10297142Y1001672D01*
X10297142Y1001672D02*
X10297142Y2501672D01*
X10297142Y2501672D02*
X10797142Y2501672D01*
X10797142Y2501672D02*
X10940000Y2430243D01*
X10940000Y2430243D02*
X11011428Y2358815D01*
X11011428Y2358815D02*
X11082857Y2215958D01*
X11082857Y2215958D02*
X11082857Y2073100D01*
X11082857Y2073100D02*
X11011428Y1930243D01*
X11011428Y1930243D02*
X10940000Y1858815D01*
X10940000Y1858815D02*
X10797142Y1787386D01*
X10797142Y1787386D02*
X10297142Y1787386D01*
X11797142Y1144529D02*
X11868571Y1073100D01*
X11868571Y1073100D02*
X11797142Y1001672D01*
X11797142Y1001672D02*
X11725714Y1073100D01*
X11725714Y1073100D02*
X11797142Y1144529D01*
X11797142Y1144529D02*
X11797142Y1001672D01*
X13154286Y1073100D02*
X13011428Y1001672D01*
X13011428Y1001672D02*
X12725714Y1001672D01*
X12725714Y1001672D02*
X12582857Y1073100D01*
X12582857Y1073100D02*
X12511428Y1144529D01*
X12511428Y1144529D02*
X12440000Y1287386D01*
X12440000Y1287386D02*
X12440000Y1715958D01*
X12440000Y1715958D02*
X12511428Y1858815D01*
X12511428Y1858815D02*
X12582857Y1930243D01*
X12582857Y1930243D02*
X12725714Y2001672D01*
X12725714Y2001672D02*
X13011428Y2001672D01*
X13011428Y2001672D02*
X13154286Y1930243D01*
X13654285Y2001672D02*
X14440000Y2001672D01*
X14440000Y2001672D02*
X13654285Y1001672D01*
X13654285Y1001672D02*
X14440000Y1001672D01*
D11*
X9113809Y-15574819D02*
X9113809Y-14574819D01*
X9685237Y-15574819D02*
X9256666Y-15003390D01*
X9685237Y-14574819D02*
X9113809Y-15146247D01*
X11399523Y-14622438D02*
X11304285Y-14574819D01*
X11304285Y-14574819D02*
X11161428Y-14574819D01*
X11161428Y-14574819D02*
X11018571Y-14622438D01*
X11018571Y-14622438D02*
X10923333Y-14717676D01*
X10923333Y-14717676D02*
X10875714Y-14812914D01*
X10875714Y-14812914D02*
X10828095Y-15003390D01*
X10828095Y-15003390D02*
X10828095Y-15146247D01*
X10828095Y-15146247D02*
X10875714Y-15336723D01*
X10875714Y-15336723D02*
X10923333Y-15431961D01*
X10923333Y-15431961D02*
X11018571Y-15527200D01*
X11018571Y-15527200D02*
X11161428Y-15574819D01*
X11161428Y-15574819D02*
X11256666Y-15574819D01*
X11256666Y-15574819D02*
X11399523Y-15527200D01*
X11399523Y-15527200D02*
X11447142Y-15479580D01*
X11447142Y-15479580D02*
X11447142Y-15146247D01*
X11447142Y-15146247D02*
X11256666Y-15146247D01*
X11875714Y-15574819D02*
X11875714Y-14574819D01*
X11875714Y-14574819D02*
X12447142Y-15574819D01*
X12447142Y-15574819D02*
X12447142Y-14574819D01*
X12923333Y-15574819D02*
X12923333Y-14574819D01*
X12923333Y-14574819D02*
X13161428Y-14574819D01*
X13161428Y-14574819D02*
X13304285Y-14622438D01*
X13304285Y-14622438D02*
X13399523Y-14717676D01*
X13399523Y-14717676D02*
X13447142Y-14812914D01*
X13447142Y-14812914D02*
X13494761Y-15003390D01*
X13494761Y-15003390D02*
X13494761Y-15146247D01*
X13494761Y-15146247D02*
X13447142Y-15336723D01*
X13447142Y-15336723D02*
X13399523Y-15431961D01*
X13399523Y-15431961D02*
X13304285Y-15527200D01*
X13304285Y-15527200D02*
X13161428Y-15574819D01*
X13161428Y-15574819D02*
X12923333Y-15574819D01*
X14637619Y-15289104D02*
X15113809Y-15289104D01*
X14542381Y-15574819D02*
X14875714Y-14574819D01*
X14875714Y-14574819D02*
X15209047Y-15574819D01*
%TO.C,J1*%
X6648819Y-11127333D02*
X7363104Y-11127333D01*
X7363104Y-11127333D02*
X7505961Y-11174952D01*
X7505961Y-11174952D02*
X7601200Y-11270190D01*
X7601200Y-11270190D02*
X7648819Y-11413047D01*
X7648819Y-11413047D02*
X7648819Y-11508285D01*
X7648819Y-10127333D02*
X7648819Y-10698761D01*
X7648819Y-10413047D02*
X6648819Y-10413047D01*
X6648819Y-10413047D02*
X6791676Y-10508285D01*
X6791676Y-10508285D02*
X6886914Y-10603523D01*
X6886914Y-10603523D02*
X6934533Y-10698761D01*
D12*
X15934000Y-12124000D02*
X15934000Y-9464000D01*
X10284000Y-12124000D02*
X13844000Y-12124000D01*
X8194000Y-12124000D02*
X8194000Y-9464000D01*
X8194000Y-12124000D02*
X8764000Y-12124000D01*
X12824000Y-9464000D02*
X15934000Y-9464000D01*
X15364000Y-9464000D02*
X15934000Y-9464000D01*
X8764000Y-12124000D02*
X8764000Y-13644000D01*
X8194000Y-9464000D02*
X11304000Y-9464000D01*
%TD*%
M02*
