%TF.GenerationSoftware,KiCad,Pcbnew,7.0.5.1-1-g8f565ef7f0-dirty-deb11*%
%TF.CreationDate,2023-07-05T15:05:41+00:00*%
%TF.ProjectId,PINHOLDER02,50494e48-4f4c-4444-9552-30322e6b6963,02A*%
%TF.SameCoordinates,Original*%
%TF.FileFunction,Copper,L1,Top*%
%TF.FilePolarity,Positive*%
%FSLAX46Y46*%
G04 Gerber Fmt 4.6, Leading zero omitted, Abs format (unit mm)*
G04 Created by KiCad (PCBNEW 7.0.5.1-1-g8f565ef7f0-dirty-deb11) date 2023-07-05 15:05:41*
%MOMM*%
%LPD*%
G01*
G04 APERTURE LIST*
%ADD10C,0.300000*%
%TA.AperFunction,NonConductor*%
%ADD11C,0.300000*%
%TD*%
%TA.AperFunction,ComponentPad*%
%ADD12C,6.000000*%
%TD*%
%TA.AperFunction,SMDPad,CuDef*%
%ADD13R,1.000000X2.510000*%
%TD*%
%TA.AperFunction,ViaPad*%
%ADD14C,0.800000*%
%TD*%
%TA.AperFunction,Conductor*%
%ADD15C,0.400000*%
%TD*%
G04 APERTURE END LIST*
D10*
D11*
X-2910001Y-54498328D02*
X-2910001Y-52998328D01*
X-2910001Y-52998328D02*
X-2410001Y-54069757D01*
X-2410001Y-54069757D02*
X-1910001Y-52998328D01*
X-1910001Y-52998328D02*
X-1910001Y-54498328D01*
X-481429Y-54498328D02*
X-1195715Y-54498328D01*
X-1195715Y-54498328D02*
X-1195715Y-52998328D01*
X-52857Y-54069757D02*
X661429Y-54069757D01*
X-195714Y-54498328D02*
X304286Y-52998328D01*
X304286Y-52998328D02*
X804286Y-54498328D01*
X1804285Y-53712614D02*
X2018571Y-53784042D01*
X2018571Y-53784042D02*
X2090000Y-53855471D01*
X2090000Y-53855471D02*
X2161428Y-53998328D01*
X2161428Y-53998328D02*
X2161428Y-54212614D01*
X2161428Y-54212614D02*
X2090000Y-54355471D01*
X2090000Y-54355471D02*
X2018571Y-54426900D01*
X2018571Y-54426900D02*
X1875714Y-54498328D01*
X1875714Y-54498328D02*
X1304285Y-54498328D01*
X1304285Y-54498328D02*
X1304285Y-52998328D01*
X1304285Y-52998328D02*
X1804285Y-52998328D01*
X1804285Y-52998328D02*
X1947143Y-53069757D01*
X1947143Y-53069757D02*
X2018571Y-53141185D01*
X2018571Y-53141185D02*
X2090000Y-53284042D01*
X2090000Y-53284042D02*
X2090000Y-53426900D01*
X2090000Y-53426900D02*
X2018571Y-53569757D01*
X2018571Y-53569757D02*
X1947143Y-53641185D01*
X1947143Y-53641185D02*
X1804285Y-53712614D01*
X1804285Y-53712614D02*
X1304285Y-53712614D01*
D12*
%TO.P,M3,1*%
%TO.N,GND*%
X0Y0D03*
%TD*%
%TO.P,M2,1*%
%TO.N,GND*%
X40640000Y0D03*
%TD*%
D13*
%TO.P,J1,1*%
%TO.N,/circle_0*%
X9524000Y-12449000D03*
%TO.P,J1,2*%
%TO.N,GND*%
X12064000Y-9139000D03*
%TO.P,J1,3*%
%TO.N,Net-(J1-Pad3)*%
X14604000Y-12449000D03*
%TD*%
D12*
%TO.P,M4,1*%
%TO.N,GND*%
X0Y-20320000D03*
%TD*%
D14*
%TO.N,/circle_0*%
X18040000Y-15320000D03*
%TO.N,GND*%
X-2710000Y-6720000D03*
%TO.N,Net-(J1-Pad3)*%
X3390000Y-10620000D03*
%TD*%
D15*
%TO.N,/circle_0*%
X18040000Y-15320000D02*
X10840000Y-15320000D01*
X10840000Y-15320000D02*
X9524000Y-14004000D01*
X9524000Y-12449000D02*
X9295000Y-12220000D01*
X9524000Y-14004000D02*
X9524000Y-12449000D01*
%TO.N,Net-(J1-Pad3)*%
X3390000Y-10620000D02*
X3390000Y-7820000D01*
X5540000Y-5670000D02*
X12590000Y-5670000D01*
X14604000Y-7684000D02*
X14604000Y-12449000D01*
X12590000Y-5670000D02*
X14604000Y-7684000D01*
X3390000Y-7820000D02*
X5540000Y-5670000D01*
%TD*%
%TA.AperFunction,Conductor*%
%TO.N,GND*%
G36*
X55512843Y4805793D02*
G01*
X55582084Y4750574D01*
X55620511Y4670782D01*
X55625500Y4626500D01*
X55625500Y-55426500D01*
X55605793Y-55512843D01*
X55550574Y-55582084D01*
X55470782Y-55620511D01*
X55426500Y-55625500D01*
X3485929Y-55625500D01*
X3399586Y-55605793D01*
X3330345Y-55550574D01*
X3291918Y-55470782D01*
X3286929Y-55426500D01*
X3286929Y-52080214D01*
X-4106929Y-52080214D01*
X-4106929Y-55426500D01*
X-4126636Y-55512843D01*
X-4181855Y-55582084D01*
X-4261647Y-55620511D01*
X-4305929Y-55625500D01*
X-4626500Y-55625500D01*
X-4712843Y-55605793D01*
X-4782084Y-55550574D01*
X-4820511Y-55470782D01*
X-4825500Y-55426500D01*
X-4825500Y-13735518D01*
X8623500Y-13735518D01*
X8636323Y-13816480D01*
X8638353Y-13829300D01*
X8638354Y-13829303D01*
X8638354Y-13829305D01*
X8695951Y-13942344D01*
X8785657Y-14032050D01*
X8846975Y-14063293D01*
X8914960Y-14120051D01*
X8940483Y-14164449D01*
X8999463Y-14306840D01*
X8999464Y-14306843D01*
X9095717Y-14432282D01*
X9095718Y-14432282D01*
X9122044Y-14452482D01*
X9131835Y-14461070D01*
X10382939Y-15712174D01*
X10391514Y-15721952D01*
X10407962Y-15743388D01*
X10411717Y-15748281D01*
X10508132Y-15822263D01*
X10508131Y-15822263D01*
X10537158Y-15844535D01*
X10537158Y-15844536D01*
X10588804Y-15865928D01*
X10683238Y-15905044D01*
X10840000Y-15925682D01*
X10861384Y-15922866D01*
X10872893Y-15921352D01*
X10885893Y-15920500D01*
X17433751Y-15920500D01*
X17520094Y-15940207D01*
X17539621Y-15950999D01*
X17690478Y-16045789D01*
X17860745Y-16105368D01*
X18040000Y-16125565D01*
X18219255Y-16105368D01*
X18389522Y-16045789D01*
X18542262Y-15949816D01*
X18669816Y-15822262D01*
X18765789Y-15669522D01*
X18825368Y-15499255D01*
X18845565Y-15320000D01*
X18825368Y-15140745D01*
X18765789Y-14970478D01*
X18669816Y-14817738D01*
X18669813Y-14817735D01*
X18669812Y-14817733D01*
X18542266Y-14690187D01*
X18542263Y-14690185D01*
X18542262Y-14690184D01*
X18389522Y-14594211D01*
X18389521Y-14594210D01*
X18389520Y-14594210D01*
X18219258Y-14534633D01*
X18219257Y-14534632D01*
X18219255Y-14534632D01*
X18040000Y-14514435D01*
X18039999Y-14514435D01*
X18009488Y-14517872D01*
X17860745Y-14534632D01*
X17860742Y-14534632D01*
X17860741Y-14534633D01*
X17690479Y-14594210D01*
X17690478Y-14594210D01*
X17539626Y-14688998D01*
X17456032Y-14718249D01*
X17433751Y-14719500D01*
X11171163Y-14719500D01*
X11084820Y-14699793D01*
X11030449Y-14661214D01*
X10440623Y-14071388D01*
X10393504Y-13996400D01*
X10383588Y-13908393D01*
X10404028Y-13840328D01*
X10409646Y-13829304D01*
X10424500Y-13735519D01*
X10424499Y-11162482D01*
X10409646Y-11068696D01*
X10352050Y-10955658D01*
X10352049Y-10955657D01*
X10352048Y-10955655D01*
X10262342Y-10865949D01*
X10149307Y-10808355D01*
X10149304Y-10808354D01*
X10149302Y-10808353D01*
X10149300Y-10808353D01*
X10083818Y-10797982D01*
X10055519Y-10793500D01*
X10055518Y-10793500D01*
X8992481Y-10793500D01*
X8898696Y-10808354D01*
X8898694Y-10808354D01*
X8785655Y-10865951D01*
X8695949Y-10955657D01*
X8638355Y-11068692D01*
X8638353Y-11068699D01*
X8623500Y-11162481D01*
X8623500Y-13735518D01*
X-4825500Y-13735518D01*
X-4825500Y-10620000D01*
X2584435Y-10620000D01*
X2604632Y-10799255D01*
X2604632Y-10799257D01*
X2604633Y-10799258D01*
X2664210Y-10969520D01*
X2664210Y-10969521D01*
X2760187Y-11122266D01*
X2887733Y-11249812D01*
X2887735Y-11249813D01*
X2887738Y-11249816D01*
X3040478Y-11345789D01*
X3210745Y-11405368D01*
X3390000Y-11425565D01*
X3569255Y-11405368D01*
X3739522Y-11345789D01*
X3892262Y-11249816D01*
X4019816Y-11122262D01*
X4115789Y-10969522D01*
X4175368Y-10799255D01*
X4195565Y-10620000D01*
X4175368Y-10440745D01*
X4115789Y-10270478D01*
X4021001Y-10119624D01*
X3991751Y-10036032D01*
X3990500Y-10013751D01*
X3990500Y-9393000D01*
X11034000Y-9393000D01*
X11034000Y-10435500D01*
X11044227Y-10520662D01*
X11097674Y-10656197D01*
X11097679Y-10656205D01*
X11185709Y-10772289D01*
X11185710Y-10772290D01*
X11301794Y-10860320D01*
X11301802Y-10860325D01*
X11437337Y-10913772D01*
X11522500Y-10924000D01*
X11810000Y-10924000D01*
X11810000Y-9393000D01*
X12318000Y-9393000D01*
X12318000Y-10924000D01*
X12605500Y-10924000D01*
X12690662Y-10913772D01*
X12826197Y-10860325D01*
X12826205Y-10860320D01*
X12942289Y-10772290D01*
X12942290Y-10772289D01*
X13030320Y-10656205D01*
X13030325Y-10656197D01*
X13083772Y-10520662D01*
X13094000Y-10435500D01*
X13094000Y-9393000D01*
X12318000Y-9393000D01*
X11810000Y-9393000D01*
X11034000Y-9393000D01*
X3990500Y-9393000D01*
X3990500Y-8885000D01*
X11034000Y-8885000D01*
X11810000Y-8885000D01*
X11810000Y-7354000D01*
X12318000Y-7354000D01*
X12318000Y-8885000D01*
X13094000Y-8885000D01*
X13094000Y-7842499D01*
X13083772Y-7757337D01*
X13030325Y-7621802D01*
X13030320Y-7621794D01*
X12942290Y-7505710D01*
X12942289Y-7505709D01*
X12826205Y-7417679D01*
X12826197Y-7417674D01*
X12690662Y-7364227D01*
X12605500Y-7354000D01*
X12318000Y-7354000D01*
X11810000Y-7354000D01*
X11522500Y-7354000D01*
X11437337Y-7364227D01*
X11301802Y-7417674D01*
X11301794Y-7417679D01*
X11185710Y-7505709D01*
X11185709Y-7505710D01*
X11097679Y-7621794D01*
X11097674Y-7621802D01*
X11044227Y-7757337D01*
X11034000Y-7842499D01*
X11034000Y-8885000D01*
X3990500Y-8885000D01*
X3990500Y-8151163D01*
X4010207Y-8064820D01*
X4048786Y-8010449D01*
X5730449Y-6328786D01*
X5805437Y-6281667D01*
X5871163Y-6270500D01*
X12258837Y-6270500D01*
X12345180Y-6290207D01*
X12399551Y-6328786D01*
X13945214Y-7874449D01*
X13992333Y-7949437D01*
X14003500Y-8015163D01*
X14003500Y-10673768D01*
X13983793Y-10760111D01*
X13928574Y-10829352D01*
X13894846Y-10851077D01*
X13865658Y-10865949D01*
X13865656Y-10865950D01*
X13775949Y-10955657D01*
X13718355Y-11068692D01*
X13718353Y-11068699D01*
X13703500Y-11162481D01*
X13703500Y-13735518D01*
X13716323Y-13816480D01*
X13718353Y-13829300D01*
X13718354Y-13829303D01*
X13718354Y-13829305D01*
X13775951Y-13942344D01*
X13865657Y-14032050D01*
X13978692Y-14089644D01*
X13978696Y-14089646D01*
X14072481Y-14104500D01*
X15135518Y-14104499D01*
X15229304Y-14089646D01*
X15342342Y-14032050D01*
X15432050Y-13942342D01*
X15489646Y-13829304D01*
X15504500Y-13735519D01*
X15504499Y-11162482D01*
X15489646Y-11068696D01*
X15432050Y-10955658D01*
X15432049Y-10955657D01*
X15432048Y-10955655D01*
X15342343Y-10865950D01*
X15342341Y-10865949D01*
X15313154Y-10851077D01*
X15245169Y-10794319D01*
X15208544Y-10713683D01*
X15204500Y-10673768D01*
X15204500Y-7729893D01*
X15205352Y-7716893D01*
X15206866Y-7705384D01*
X15209682Y-7684000D01*
X15189044Y-7527238D01*
X15132910Y-7391718D01*
X15128536Y-7381158D01*
X15056449Y-7287214D01*
X15032280Y-7255716D01*
X15019384Y-7245821D01*
X15005959Y-7235520D01*
X14996167Y-7226932D01*
X13047070Y-5277835D01*
X13038482Y-5268044D01*
X13018282Y-5241718D01*
X13018278Y-5241715D01*
X12892843Y-5145464D01*
X12892840Y-5145463D01*
X12746764Y-5084957D01*
X12746765Y-5084957D01*
X12746762Y-5084956D01*
X12746759Y-5084955D01*
X12746754Y-5084954D01*
X12629365Y-5069499D01*
X12629363Y-5069500D01*
X12603120Y-5066045D01*
X12590000Y-5064318D01*
X12589999Y-5064318D01*
X12557107Y-5068648D01*
X12544107Y-5069500D01*
X5585893Y-5069500D01*
X5572893Y-5068648D01*
X5540000Y-5064318D01*
X5500637Y-5069500D01*
X5500636Y-5069499D01*
X5383245Y-5084954D01*
X5383235Y-5084957D01*
X5237159Y-5145463D01*
X5237152Y-5145467D01*
X5111719Y-5241715D01*
X5091515Y-5268044D01*
X5082926Y-5277837D01*
X2997835Y-7362928D01*
X2988043Y-7371516D01*
X2961718Y-7391717D01*
X2937551Y-7423213D01*
X2865464Y-7517158D01*
X2865463Y-7517158D01*
X2804957Y-7663235D01*
X2804956Y-7663237D01*
X2784318Y-7820001D01*
X2788648Y-7852893D01*
X2789500Y-7865893D01*
X2789500Y-10013751D01*
X2769793Y-10100094D01*
X2758998Y-10119626D01*
X2664210Y-10270478D01*
X2664210Y-10270479D01*
X2606467Y-10435500D01*
X2604632Y-10440745D01*
X2584435Y-10620000D01*
X-4825500Y-10620000D01*
X-4825500Y4626500D01*
X-4805793Y4712843D01*
X-4750574Y4782084D01*
X-4670782Y4820511D01*
X-4626500Y4825500D01*
X55426500Y4825500D01*
X55512843Y4805793D01*
G37*
%TD.AperFunction*%
%TD*%
M02*
